M48
; DRILL file {KiCad 7.0.1-0} date 2023 September 22, Friday 11:11:08
; FORMAT={-:-/ absolute / inch / decimal}
; #@! TF.CreationDate,2023-09-22T11:11:08-04:00
; #@! TF.GenerationSoftware,Kicad,Pcbnew,7.0.1-0
; #@! TF.FileFunction,Plated,1,4,PTH
FMAT,2
INCH
; #@! TA.AperFunction,Plated,PTH,ViaDrill
T1C0.0157
; #@! TA.AperFunction,Plated,PTH,ComponentDrill
T2C0.0300
; #@! TA.AperFunction,Plated,PTH,ComponentDrill
T3C0.0354
; #@! TA.AperFunction,Plated,PTH,ComponentDrill
T4C0.0394
; #@! TA.AperFunction,Plated,PTH,ComponentDrill
T5C0.0433
; #@! TA.AperFunction,Plated,PTH,ComponentDrill
T6C0.0512
; #@! TA.AperFunction,Plated,PTH,ComponentDrill
T7C0.1693
%
G90
G05
T1
X4.0846Y-5.1969
X4.1437Y-4.7638
X4.2126Y-4.3307
X4.252Y-4.2913
X4.252Y-4.3307
X4.3701Y-4.1732
X4.3748Y-4.2276
X4.4193Y-4.3602
X4.4291Y-5.3445
X4.5866Y-3.9173
X4.5866Y-4.2323
X4.626Y-3.9567
X4.626Y-4.2717
X4.6457Y-4.6654
X4.7244Y-4.065
X4.7244Y-4.7736
X4.7343Y-5.3248
X4.7441Y-4.4783
X4.7581Y-4.4001
X4.7835Y-4.3701
X4.7835Y-4.813
X4.8989Y-4.3996
X4.9213Y-5.0197
X4.925Y-4.5532
X4.9311Y-5.3543
X4.9409Y-3.9173
X4.9409Y-4.2323
X4.9643Y-4.5532
X4.97Y-4.3996
X4.9803Y-3.9567
X4.9803Y-4.2717
X4.9811Y-4.3326
X5.0197Y-4.3406
X5.0197Y-5.0787
X5.0295Y-3.9764
X5.0787Y-4.065
X5.0787Y-4.813
X5.0935Y-5.5709
X5.1575Y-4.3307
X5.1772Y-4.8031
X5.187Y-4.0059
X5.1969Y-4.5079
X5.2067Y-4.7441
X5.2067Y-5.2657
X5.2067Y-5.5699
X5.2264Y-4.5965
X5.2461Y-4.6457
X5.2953Y-5.128
X5.315Y-5.2362
X5.3937Y-5.0098
X5.4331Y-5.128
X5.4429Y-5.3051
X5.4626Y-4.7441
X5.6102Y-5.374
X6.4567Y-4.685
X6.5354Y-4.7539
X6.5748Y-4.1634
X6.6535Y-4.1634
X6.7323Y-4.2618
X6.7323Y-4.685
X6.811Y-4.2618
X6.9291Y-4.685
X6.9587Y-4.3012
X7.0079Y-4.7933
X7.1654Y-4.685
X7.2146Y-4.1732
X7.2933Y-4.1732
X7.3622Y-4.685
X7.372Y-4.252
X7.4508Y-4.252
X7.6378Y-4.685
X7.8346Y-4.685
X7.874Y-5.3543
X7.9134Y-5.315
X8.0709Y-4.685
X8.2283Y-5.4331
X8.3858Y-5.0394
X8.4252Y-5.5118
X8.4646Y-5.0394
X8.5039Y-5.5512
X8.5428Y-5.5113
X8.5433Y-5.0394
X8.8189Y-5.3937
X8.9469Y-5.187
X9.0256Y-5.4528
X9.065Y-5.3346
X9.1043Y-5.2657
X9.1043Y-5.3839
X9.1043Y-5.4232
X9.1043Y-5.4626
X9.124Y-4.1929
X9.124Y-4.2323
X9.1437Y-5.3839
X9.1437Y-5.4232
X9.1437Y-5.4626
X9.1732Y-4.7047
X9.1732Y-4.8819
X9.1831Y-5.2362
X9.2224Y-4.7047
X9.2323Y-5.2362
X9.252Y-5.1969
X9.2618Y-4.9803
X9.2717Y-4.7047
X9.2717Y-4.7441
X9.311Y-4.9803
X9.3209Y-4.7047
X9.3209Y-4.7441
X9.3307Y-4.1339
X9.3701Y-4.1339
X9.3701Y-4.1732
X9.3701Y-4.2126
X9.3701Y-5.0
X9.4094Y-4.1339
X9.4094Y-4.1732
X9.4094Y-4.2126
X9.4193Y-4.4587
X9.4193Y-4.5177
X9.4193Y-4.5669
X9.4193Y-4.626
X9.4193Y-4.6654
X9.4193Y-4.7047
X9.4291Y-3.9075
X9.4291Y-3.9469
X9.4291Y-3.9862
X9.4488Y-4.0945
X9.4488Y-4.1339
X9.4488Y-4.1732
X9.4488Y-4.2126
X9.4488Y-4.252
X9.4488Y-4.2913
X9.4783Y-3.9075
X9.4783Y-3.9469
X9.4783Y-3.9862
X9.4882Y-3.8189
X9.4882Y-4.0945
X9.4882Y-4.1339
X9.4882Y-4.1732
X9.4882Y-4.2126
X9.4882Y-4.252
X9.4882Y-4.2913
X9.4882Y-5.0394
X9.5276Y-3.9075
X9.5276Y-3.9469
X9.5276Y-3.9862
X9.5669Y-4.5276
X9.5669Y-4.5669
X9.5669Y-4.6063
X9.5669Y-4.6457
X9.5669Y-4.685
X9.5768Y-3.9075
X9.5768Y-3.9469
X9.5768Y-3.9862
X9.6063Y-4.6457
X9.6063Y-4.685
X9.6161Y-4.0157
X9.626Y-3.8878
X9.6457Y-4.685
X9.685Y-4.685
X9.7244Y-4.685
X9.7441Y-3.8878
X9.7441Y-4.0354
X9.7638Y-4.685
X9.7736Y-3.9272
X9.7736Y-3.9961
X9.7835Y-5.0591
T2
X5.5768Y-3.8626
X5.5768Y-4.5626
X5.6768Y-3.8626
X5.6768Y-4.5626
X5.7768Y-3.8626
X5.7768Y-4.5626
X5.8768Y-3.8626
X5.8768Y-4.5626
X5.9768Y-3.8626
X5.9768Y-4.5626
X6.0768Y-3.8626
X6.0768Y-4.5626
T3
X4.1291Y-4.8528
X4.1291Y-5.4528
X4.2291Y-4.8528
X4.2291Y-5.4528
X4.3291Y-4.8528
X4.3291Y-5.4528
X4.4291Y-4.8528
X4.4291Y-5.4528
X4.5291Y-4.8528
X4.5291Y-5.4528
X4.6291Y-4.8528
X4.6291Y-5.4528
X4.7291Y-4.8528
X4.7291Y-5.4528
X4.8291Y-4.8528
X4.8291Y-5.4528
X4.9291Y-4.8528
X4.9291Y-5.4528
X5.0291Y-4.8528
X5.0291Y-5.4528
X5.1291Y-4.8528
X5.1291Y-5.4528
X5.2291Y-4.8528
X5.2291Y-5.4528
X5.3291Y-4.8528
X5.3291Y-5.4528
X5.4291Y-4.8528
X5.4291Y-5.4528
X5.5291Y-4.8528
X5.5291Y-5.4528
X5.6291Y-4.8528
X5.6291Y-5.4528
X5.7291Y-4.8528
X5.7291Y-5.4528
T4
X6.7323Y-5.1181
X6.7323Y-5.2181
X6.7323Y-5.3181
X6.7323Y-5.4181
X6.9154Y-5.1181
X6.9154Y-5.2181
X6.9154Y-5.3181
X6.9154Y-5.4181
X7.0984Y-5.1181
X7.0984Y-5.2181
X7.0984Y-5.3181
X7.0984Y-5.4181
X7.2835Y-5.1181
X7.2835Y-5.2181
X7.2835Y-5.3181
X7.2835Y-5.4181
X7.8543Y-5.4921
X7.9543Y-5.4921
X8.0543Y-5.4921
X8.7961Y-3.878
X8.8961Y-3.878
X8.9961Y-3.878
X9.0961Y-3.878
X9.1961Y-3.878
T5
X6.25Y-5.3051
X6.25Y-5.4823
X6.5059Y-5.3051
X6.5059Y-5.4823
T6
X9.685Y-3.9701
X9.685Y-4.1701
X9.685Y-4.3701
X9.685Y-4.5701
T7
X4.2913Y-4.6063
X6.378Y-4.9606
X8.0315Y-3.9764
X9.7244Y-5.4331
T0
M30
