%TF.GenerationSoftware,KiCad,Pcbnew,7.0.1-0*%
%TF.CreationDate,2023-09-22T11:11:22-04:00*%
%TF.ProjectId,Segway V7,53656777-6179-4205-9637-2e6b69636164,V1*%
%TF.SameCoordinates,Original*%
%TF.FileFunction,Copper,L3,Inr*%
%TF.FilePolarity,Positive*%
%FSLAX46Y46*%
G04 Gerber Fmt 4.6, Leading zero omitted, Abs format (unit mm)*
G04 Created by KiCad (PCBNEW 7.0.1-0) date 2023-09-22 11:11:22*
%MOMM*%
%LPD*%
G01*
G04 APERTURE LIST*
%ADD10C,0.150000*%
%TA.AperFunction,NonConductor*%
%ADD11C,0.150000*%
%TD*%
%TA.AperFunction,ComponentPad*%
%ADD12R,2.600000X2.600000*%
%TD*%
%TA.AperFunction,ComponentPad*%
%ADD13C,2.600000*%
%TD*%
%TA.AperFunction,ComponentPad*%
%ADD14C,7.500000*%
%TD*%
%TA.AperFunction,ComponentPad*%
%ADD15R,1.700000X1.700000*%
%TD*%
%TA.AperFunction,ComponentPad*%
%ADD16O,1.700000X1.700000*%
%TD*%
%TA.AperFunction,ComponentPad*%
%ADD17C,1.574800*%
%TD*%
%TA.AperFunction,ComponentPad*%
%ADD18R,1.473200X1.473200*%
%TD*%
%TA.AperFunction,ComponentPad*%
%ADD19C,2.000000*%
%TD*%
%TA.AperFunction,ComponentPad*%
%ADD20C,1.524000*%
%TD*%
%TA.AperFunction,ViaPad*%
%ADD21C,0.800000*%
%TD*%
G04 APERTURE END LIST*
D10*
%TO.C,F1*%
D11*
X229666666Y-119188809D02*
X229333333Y-119188809D01*
X229333333Y-119712619D02*
X229333333Y-118712619D01*
X229333333Y-118712619D02*
X229809523Y-118712619D01*
X230714285Y-119712619D02*
X230142857Y-119712619D01*
X230428571Y-119712619D02*
X230428571Y-118712619D01*
X230428571Y-118712619D02*
X230333333Y-118855476D01*
X230333333Y-118855476D02*
X230238095Y-118950714D01*
X230238095Y-118950714D02*
X230142857Y-118998333D01*
%TD*%
D12*
%TO.N,/VBAT_IN*%
%TO.C,J10*%
X246000000Y-116080000D03*
D13*
%TO.N,GND*%
X246000000Y-111000000D03*
X246000000Y-105920000D03*
%TO.N,/VBAT_MOTOR*%
X246000000Y-100840000D03*
%TD*%
D14*
%TO.N,GND*%
%TO.C,REF\u002A\u002A*%
X109000000Y-117000000D03*
%TD*%
D15*
%TO.N,GND*%
%TO.C,J2*%
X199500000Y-139500000D03*
D16*
%TO.N,Net-(J2-Pin_2)*%
X202040000Y-139500000D03*
%TO.N,/BUCK_5V*%
X204580000Y-139500000D03*
%TD*%
D17*
%TO.N,/MOSI*%
%TO.C,U1*%
X104880000Y-138500000D03*
%TO.N,/MISO*%
X107420000Y-138500000D03*
%TO.N,/SCK*%
X109960000Y-138500000D03*
%TO.N,/TFT_D{slash}C*%
X112500000Y-138500000D03*
%TO.N,/SCL*%
X115040000Y-138500000D03*
%TO.N,/SDA*%
X117580000Y-138500000D03*
%TO.N,/WS2812*%
X120120000Y-138500000D03*
%TO.N,/BAT_READING*%
X122660000Y-138500000D03*
%TO.N,/RST*%
X125200000Y-138500000D03*
D18*
%TO.N,GND*%
X127740000Y-138500000D03*
D17*
%TO.N,/TX*%
X130280000Y-138500000D03*
%TO.N,/RX*%
X132820000Y-138500000D03*
%TO.N,/HALL_L_B*%
X135360000Y-138500000D03*
%TO.N,/DIR1*%
X137900000Y-138500000D03*
%TO.N,/DIR2*%
X140440000Y-138500000D03*
%TO.N,/PWM1*%
X142980000Y-138500000D03*
%TO.N,/PWM2*%
X145520000Y-138500000D03*
%TO.N,/IMU_CS*%
X145520000Y-123260000D03*
%TO.N,/IMU_INT*%
X142980000Y-123260000D03*
%TO.N,/IMU_RST*%
X140440000Y-123260000D03*
%TO.N,/HALL_R_B*%
X137900000Y-123260000D03*
%TO.N,/HALL_R_A*%
X135360000Y-123260000D03*
%TO.N,unconnected-(U1-LDO2_OUT-Pad12)*%
X132820000Y-123260000D03*
%TO.N,/TFT_RST*%
X130280000Y-123260000D03*
%TO.N,/HALL_L_A*%
X127740000Y-123260000D03*
%TO.N,/A4*%
X125200000Y-123260000D03*
%TO.N,/A3*%
X122660000Y-123260000D03*
%TO.N,/TFT_CS*%
X120120000Y-123260000D03*
%TO.N,/A1*%
X117580000Y-123260000D03*
%TO.N,/A0*%
X115040000Y-123260000D03*
%TO.N,+3.3V*%
X112500000Y-123260000D03*
%TO.N,+5V*%
X109960000Y-123260000D03*
D18*
%TO.N,GND*%
X107420000Y-123260000D03*
D17*
%TO.N,unconnected-(U1-VBAT-Pad1)*%
X104880000Y-123260000D03*
%TD*%
D15*
%TO.N,/DIR1*%
%TO.C,J8*%
X223420000Y-98500000D03*
D16*
%TO.N,/PWM1*%
X225960000Y-98500000D03*
%TO.N,/DIR2*%
X228500000Y-98500000D03*
%TO.N,/PWM2*%
X231040000Y-98500000D03*
%TO.N,GND*%
X233580000Y-98500000D03*
%TD*%
D15*
%TO.N,+3.3V*%
%TO.C,J3*%
X171000000Y-130000000D03*
D16*
X171000000Y-132540000D03*
X171000000Y-135080000D03*
X171000000Y-137620000D03*
%TD*%
D15*
%TO.N,GND*%
%TO.C,J7*%
X185000000Y-130000000D03*
D16*
%TO.N,+3.3V*%
X185000000Y-132540000D03*
%TO.N,/RX*%
X185000000Y-135080000D03*
%TO.N,/TX*%
X185000000Y-137620000D03*
%TD*%
D15*
%TO.N,GND*%
%TO.C,J4*%
X175650000Y-130000000D03*
D16*
X175650000Y-132540000D03*
X175650000Y-135080000D03*
X175650000Y-137620000D03*
%TD*%
D14*
%TO.N,GND*%
%TO.C,REF\u002A\u002A*%
X204000000Y-101000000D03*
%TD*%
D19*
%TO.N,/RST*%
%TO.C,SW3*%
X158750000Y-134750000D03*
X165250000Y-134750000D03*
%TO.N,GND*%
X158750000Y-139250000D03*
X165250000Y-139250000D03*
%TD*%
D20*
%TO.N,+3.3V*%
%TO.C,A1*%
X141650000Y-115890000D03*
%TO.N,unconnected-(A1-3Vo-Pad2)*%
X144190000Y-115890000D03*
%TO.N,GND*%
X146730000Y-115890000D03*
%TO.N,/SCK*%
X149270000Y-115890000D03*
%TO.N,/MISO*%
X151810000Y-115890000D03*
%TO.N,/IMU_INT*%
X154350000Y-115890000D03*
%TO.N,unconnected-(A1-BT-Pad7)*%
X141650000Y-98110000D03*
%TO.N,+3.3V*%
X144190000Y-98110000D03*
X146730000Y-98110000D03*
%TO.N,/IMU_RST*%
X149270000Y-98110000D03*
%TO.N,/MOSI*%
X151810000Y-98110000D03*
%TO.N,/IMU_CS*%
X154350000Y-98110000D03*
%TD*%
D15*
%TO.N,/BUCK_5V*%
%TO.C,J5*%
X180300000Y-130000000D03*
D16*
X180300000Y-132540000D03*
X180300000Y-135080000D03*
X180300000Y-137620000D03*
%TD*%
D14*
%TO.N,GND*%
%TO.C,REF\u002A\u002A*%
X162000000Y-126000000D03*
%TD*%
%TO.N,GND*%
%TO.C,REF\u002A\u002A*%
X247000000Y-138000000D03*
%TD*%
D21*
%TO.N,/VBAT_MOTOR_PRE*%
X237000000Y-105000000D03*
X241000000Y-104000000D03*
X240000000Y-104000000D03*
X241000000Y-108000000D03*
X241000000Y-109000000D03*
X240000000Y-109000000D03*
X240000000Y-108000000D03*
X241000000Y-107000000D03*
X240000000Y-107000000D03*
X239000000Y-107000000D03*
X238000000Y-107000000D03*
X238000000Y-106000000D03*
X239000000Y-106000000D03*
X240000000Y-106000000D03*
X241000000Y-106000000D03*
X241000000Y-105000000D03*
X240000000Y-105000000D03*
X239000000Y-105000000D03*
X238000000Y-105000000D03*
%TO.N,/VBAT_MOTOR*%
X247500000Y-102500000D03*
X248250000Y-101500000D03*
X248250000Y-99750000D03*
X247500000Y-98750000D03*
X244500000Y-98750000D03*
X244250000Y-102000000D03*
X243250000Y-101250000D03*
X243250000Y-100250000D03*
X243250000Y-99250000D03*
X242000000Y-99250000D03*
X242000000Y-100250000D03*
X242000000Y-101250000D03*
X240750000Y-101250000D03*
X240750000Y-100250000D03*
X240750000Y-99250000D03*
X239500000Y-99250000D03*
X239500000Y-100250000D03*
X239500000Y-101250000D03*
%TO.N,/VBAT*%
X239250000Y-119500000D03*
X239250000Y-118500000D03*
X239250000Y-117500000D03*
X239250000Y-116000000D03*
X239250000Y-114750000D03*
X239250000Y-113250000D03*
X236750000Y-119500000D03*
X236750000Y-120500000D03*
X235500000Y-120500000D03*
X235500000Y-119500000D03*
X234250000Y-119500000D03*
X233000000Y-119500000D03*
%TO.N,/VBAT_IN*%
X244000000Y-118000000D03*
X248000000Y-119000000D03*
X247000000Y-119000000D03*
X246000000Y-119000000D03*
X245000000Y-119000000D03*
X244000000Y-119000000D03*
X243000000Y-119000000D03*
X243000000Y-118000000D03*
X243000000Y-117000000D03*
X243000000Y-116000000D03*
X243000000Y-115000000D03*
%TO.N,GND*%
X238000000Y-127000000D03*
X236500000Y-126500000D03*
X235250000Y-126500000D03*
X235000000Y-132000000D03*
X234500000Y-133000000D03*
X233250000Y-133000000D03*
%TO.N,Net-(U3-SW)*%
X227250000Y-131750000D03*
%TO.N,GND*%
X232250000Y-138750000D03*
X232250000Y-137750000D03*
X232250000Y-136750000D03*
X231250000Y-138750000D03*
X231250000Y-137750000D03*
X231250000Y-136750000D03*
%TO.N,Net-(U3-SW)*%
X229250000Y-138500000D03*
%TO.N,+3.3V*%
X120000000Y-103250000D03*
X111000000Y-106000000D03*
X176000000Y-119000000D03*
X169000000Y-105750000D03*
X117500000Y-100500000D03*
X187000000Y-119000000D03*
X117500000Y-108500000D03*
X189250000Y-108000000D03*
X131000000Y-110000000D03*
X185250000Y-106000000D03*
X126500000Y-100500000D03*
X127500000Y-110250000D03*
X121500000Y-111000000D03*
X126500000Y-108500000D03*
X173000000Y-108250000D03*
X164000000Y-119000000D03*
X187250000Y-108000000D03*
X129000000Y-103250000D03*
X199000000Y-119000000D03*
X171000000Y-108250000D03*
X132750000Y-116750000D03*
X108000000Y-109000000D03*
%TO.N,GND*%
X125500000Y-107500000D03*
X194000000Y-119000000D03*
X121500000Y-122250000D03*
X200000000Y-136000000D03*
X248500000Y-128500000D03*
X224000000Y-137000000D03*
X205000000Y-119000000D03*
X182000000Y-119000000D03*
X108000000Y-110000000D03*
X116500000Y-107500000D03*
X213000000Y-128000000D03*
X209000000Y-138000000D03*
X171000000Y-119000000D03*
X132000000Y-114500000D03*
X231750000Y-106500000D03*
X215000000Y-128000000D03*
X233000000Y-124000000D03*
X201000000Y-135000000D03*
X183250000Y-106000000D03*
X167000000Y-105750000D03*
X241000000Y-97000000D03*
X125500000Y-99500000D03*
X116500000Y-99500000D03*
X120500000Y-113750000D03*
X231750000Y-107500000D03*
X120250000Y-135250000D03*
X217000000Y-128000000D03*
%TO.N,/SCK*%
X105250000Y-121000000D03*
X107000000Y-110000000D03*
X103750000Y-132000000D03*
%TO.N,/MISO*%
X112500000Y-135750000D03*
X138000000Y-130250000D03*
X135000000Y-133000000D03*
%TO.N,/MOSI*%
X112250000Y-110750000D03*
%TO.N,Net-(U3-SW)*%
X230250000Y-135500000D03*
%TO.N,/HALL_L_B*%
X132250000Y-133750000D03*
X134500000Y-130250000D03*
X137000000Y-127250000D03*
%TO.N,/HALL_R_A*%
X133250000Y-118000000D03*
X132250000Y-120500000D03*
X176750000Y-109250000D03*
%TO.N,/HALL_R_B*%
X138750000Y-120500000D03*
%TO.N,/SCL*%
X125000000Y-127500000D03*
X129000000Y-122250000D03*
%TO.N,/SDA*%
X127500000Y-129000000D03*
X131500000Y-122000000D03*
%TO.N,/TX*%
X132250000Y-141474500D03*
%TO.N,/RX*%
X129375000Y-141500000D03*
%TO.N,/A0*%
X166000000Y-120750000D03*
%TO.N,/A1*%
X178000000Y-121750000D03*
%TO.N,Net-(Q1-Pad2)*%
X216987701Y-139987701D03*
X214000000Y-140000000D03*
%TO.N,+5V*%
X216000000Y-141000000D03*
%TO.N,/SC0*%
X126521001Y-110048599D03*
X126237000Y-111750000D03*
%TO.N,/SD1*%
X124430812Y-111750000D03*
X120855003Y-111763534D03*
%TO.N,/SD2*%
X126093315Y-115650500D03*
X127750000Y-101000000D03*
%TO.N,/SC2*%
X125093812Y-115650500D03*
X131750000Y-101750000D03*
%TO.N,/RST*%
X142500000Y-136500000D03*
X138250000Y-134750000D03*
%TO.N,/VBAT_MCU*%
X125250000Y-136000000D03*
X241000000Y-128000000D03*
X231250000Y-133750000D03*
%TO.N,/TFT_RST*%
X111119622Y-107380378D03*
X120000000Y-121250000D03*
X118000000Y-118500000D03*
%TD*%
%TA.AperFunction,Conductor*%
%TO.N,/VBAT_MOTOR_PRE*%
G36*
X237482269Y-102537915D02*
G01*
X239496293Y-102599885D01*
X239503674Y-102600334D01*
X241587985Y-102789816D01*
X241644899Y-102809708D01*
X241685705Y-102854092D01*
X241700754Y-102912475D01*
X241749162Y-110125168D01*
X241732828Y-110187519D01*
X241687405Y-110233248D01*
X241625165Y-110250000D01*
X236324000Y-110250000D01*
X236262000Y-110233387D01*
X236216613Y-110188000D01*
X236200000Y-110126000D01*
X236200000Y-107624000D01*
X236216613Y-107562000D01*
X236262000Y-107516613D01*
X236324000Y-107500000D01*
X236500000Y-107500000D01*
X236500000Y-105500000D01*
X236252408Y-104262040D01*
X236250000Y-104237722D01*
X236250000Y-102627874D01*
X236267254Y-102564776D01*
X236314215Y-102519238D01*
X236377814Y-102503933D01*
X237482269Y-102537915D01*
G37*
%TD.AperFunction*%
%TD*%
%TA.AperFunction,Conductor*%
%TO.N,/VBAT*%
G36*
X239938000Y-112516613D02*
G01*
X239983387Y-112562000D01*
X240000000Y-112624000D01*
X240000000Y-122376000D01*
X239983387Y-122438000D01*
X239938000Y-122483387D01*
X239876000Y-122500000D01*
X237566363Y-122500000D01*
X237507853Y-122485328D01*
X237463189Y-122444783D01*
X236500000Y-121000000D01*
X234500000Y-121000000D01*
X234499999Y-121000000D01*
X234499998Y-121000001D01*
X234034273Y-121931454D01*
X233988555Y-121981481D01*
X233923364Y-122000000D01*
X232624000Y-122000000D01*
X232562000Y-121983387D01*
X232516613Y-121938000D01*
X232500000Y-121876000D01*
X232500000Y-112624000D01*
X232516613Y-112562000D01*
X232562000Y-112516613D01*
X232624000Y-112500000D01*
X239876000Y-112500000D01*
X239938000Y-112516613D01*
G37*
%TD.AperFunction*%
%TD*%
%TA.AperFunction,Conductor*%
%TO.N,/VBAT_MOTOR*%
G36*
X248938000Y-98016613D02*
G01*
X248983387Y-98062000D01*
X249000000Y-98124000D01*
X249000000Y-102876000D01*
X248983387Y-102938000D01*
X248938000Y-102983387D01*
X248876000Y-103000000D01*
X245029272Y-103000000D01*
X244973818Y-102986909D01*
X243000000Y-102000000D01*
X236124000Y-102000000D01*
X236062000Y-101983387D01*
X236016613Y-101938000D01*
X236000000Y-101876000D01*
X236000000Y-100076636D01*
X236018519Y-100011445D01*
X236068546Y-99965727D01*
X239973818Y-98013091D01*
X240029272Y-98000000D01*
X248876000Y-98000000D01*
X248938000Y-98016613D01*
G37*
%TD.AperFunction*%
%TD*%
%TA.AperFunction,Conductor*%
%TO.N,/VBAT_IN*%
G36*
X248438000Y-114016613D02*
G01*
X248483387Y-114062000D01*
X248500000Y-114124000D01*
X248500000Y-125876000D01*
X248483387Y-125938000D01*
X248438000Y-125983387D01*
X248376000Y-126000000D01*
X242124000Y-126000000D01*
X242062000Y-125983387D01*
X242016613Y-125938000D01*
X242000000Y-125876000D01*
X242000000Y-114124000D01*
X242016613Y-114062000D01*
X242062000Y-114016613D01*
X242124000Y-114000000D01*
X248376000Y-114000000D01*
X248438000Y-114016613D01*
G37*
%TD.AperFunction*%
%TD*%
%TA.AperFunction,Conductor*%
%TO.N,+3.3V*%
G36*
X250996591Y-95009939D02*
G01*
X251036819Y-95036819D01*
X253963181Y-97963181D01*
X253990061Y-98003409D01*
X253999500Y-98050862D01*
X253999500Y-140949138D01*
X253990061Y-140996591D01*
X253963181Y-141036819D01*
X252036819Y-142963181D01*
X251996591Y-142990061D01*
X251949138Y-142999500D01*
X103050862Y-142999500D01*
X103003409Y-142990061D01*
X102963181Y-142963181D01*
X101500000Y-141500000D01*
X128469540Y-141500000D01*
X128489326Y-141688257D01*
X128547820Y-141868284D01*
X128642466Y-142032216D01*
X128769129Y-142172889D01*
X128922269Y-142284151D01*
X129095197Y-142361144D01*
X129280352Y-142400500D01*
X129280354Y-142400500D01*
X129469646Y-142400500D01*
X129469648Y-142400500D01*
X129593083Y-142374262D01*
X129654803Y-142361144D01*
X129827730Y-142284151D01*
X129980871Y-142172888D01*
X130107533Y-142032216D01*
X130202179Y-141868284D01*
X130260674Y-141688256D01*
X130280460Y-141500000D01*
X130277780Y-141474500D01*
X131344540Y-141474500D01*
X131364326Y-141662757D01*
X131422820Y-141842784D01*
X131517466Y-142006716D01*
X131644129Y-142147389D01*
X131797269Y-142258651D01*
X131970197Y-142335644D01*
X132155352Y-142375000D01*
X132155354Y-142375000D01*
X132344646Y-142375000D01*
X132344648Y-142375000D01*
X132468084Y-142348762D01*
X132529803Y-142335644D01*
X132702730Y-142258651D01*
X132855871Y-142147388D01*
X132982533Y-142006716D01*
X133077179Y-141842784D01*
X133135674Y-141662756D01*
X133155460Y-141474500D01*
X133135674Y-141286244D01*
X133077179Y-141106216D01*
X133077179Y-141106215D01*
X133015856Y-141000000D01*
X215094540Y-141000000D01*
X215114326Y-141188257D01*
X215172820Y-141368284D01*
X215267466Y-141532216D01*
X215394129Y-141672889D01*
X215547269Y-141784151D01*
X215720197Y-141861144D01*
X215905352Y-141900500D01*
X215905354Y-141900500D01*
X216094646Y-141900500D01*
X216094648Y-141900500D01*
X216234497Y-141870774D01*
X216279803Y-141861144D01*
X216452730Y-141784151D01*
X216452729Y-141784151D01*
X216605870Y-141672889D01*
X216732533Y-141532216D01*
X216827179Y-141368284D01*
X216845551Y-141311742D01*
X216885674Y-141188256D01*
X216905460Y-141000000D01*
X216905540Y-140999239D01*
X216926060Y-140942861D01*
X216970647Y-140902715D01*
X217028861Y-140888201D01*
X217082349Y-140888201D01*
X217235446Y-140855659D01*
X217267504Y-140848845D01*
X217440431Y-140771852D01*
X217528941Y-140707546D01*
X217593571Y-140660590D01*
X217613141Y-140638856D01*
X217720234Y-140519917D01*
X217814880Y-140355985D01*
X217873375Y-140175957D01*
X217893161Y-139987701D01*
X217873375Y-139799445D01*
X217814945Y-139619617D01*
X217814880Y-139619416D01*
X217720234Y-139455484D01*
X217593571Y-139314811D01*
X217440431Y-139203549D01*
X217267503Y-139126556D01*
X217082349Y-139087201D01*
X217082347Y-139087201D01*
X216893055Y-139087201D01*
X216893053Y-139087201D01*
X216707898Y-139126556D01*
X216534970Y-139203549D01*
X216381830Y-139314811D01*
X216255167Y-139455484D01*
X216160521Y-139619416D01*
X216102027Y-139799443D01*
X216082161Y-139988462D01*
X216061641Y-140044840D01*
X216017054Y-140084986D01*
X215958840Y-140099500D01*
X215905352Y-140099500D01*
X215720197Y-140138855D01*
X215547269Y-140215848D01*
X215394129Y-140327110D01*
X215267466Y-140467783D01*
X215172820Y-140631715D01*
X215114326Y-140811742D01*
X215094540Y-141000000D01*
X133015856Y-141000000D01*
X132982533Y-140942283D01*
X132855870Y-140801610D01*
X132702730Y-140690348D01*
X132529802Y-140613355D01*
X132344648Y-140574000D01*
X132344646Y-140574000D01*
X132155354Y-140574000D01*
X132155352Y-140574000D01*
X131970197Y-140613355D01*
X131797269Y-140690348D01*
X131644129Y-140801610D01*
X131517466Y-140942283D01*
X131422820Y-141106215D01*
X131364326Y-141286242D01*
X131344540Y-141474500D01*
X130277780Y-141474500D01*
X130260674Y-141311744D01*
X130229549Y-141215952D01*
X130202179Y-141131715D01*
X130107533Y-140967783D01*
X129980870Y-140827110D01*
X129827730Y-140715848D01*
X129654802Y-140638855D01*
X129469648Y-140599500D01*
X129469646Y-140599500D01*
X129280354Y-140599500D01*
X129280352Y-140599500D01*
X129095197Y-140638855D01*
X128922269Y-140715848D01*
X128769129Y-140827110D01*
X128642466Y-140967783D01*
X128547820Y-141131715D01*
X128489326Y-141311742D01*
X128469540Y-141500000D01*
X101500000Y-141500000D01*
X101036819Y-141036819D01*
X101009939Y-140996591D01*
X101000500Y-140949138D01*
X101000500Y-138500000D01*
X103587179Y-138500000D01*
X103606820Y-138724493D01*
X103606821Y-138724496D01*
X103653981Y-138900500D01*
X103665148Y-138942173D01*
X103760382Y-139146406D01*
X103774437Y-139166478D01*
X103889642Y-139331009D01*
X104048991Y-139490358D01*
X104221492Y-139611144D01*
X104233593Y-139619617D01*
X104363934Y-139680395D01*
X104437830Y-139714853D01*
X104655504Y-139773179D01*
X104880000Y-139792820D01*
X105104496Y-139773179D01*
X105322170Y-139714853D01*
X105526410Y-139619615D01*
X105711009Y-139490358D01*
X105870358Y-139331009D01*
X105999615Y-139146410D01*
X106037617Y-139064912D01*
X106083374Y-139012737D01*
X106150000Y-138993317D01*
X106216626Y-139012737D01*
X106262382Y-139064912D01*
X106300385Y-139146410D01*
X106429642Y-139331009D01*
X106588991Y-139490358D01*
X106761492Y-139611144D01*
X106773593Y-139619617D01*
X106903934Y-139680395D01*
X106977830Y-139714853D01*
X107195504Y-139773179D01*
X107420000Y-139792820D01*
X107644496Y-139773179D01*
X107862170Y-139714853D01*
X108066410Y-139619615D01*
X108251009Y-139490358D01*
X108410358Y-139331009D01*
X108539615Y-139146410D01*
X108577617Y-139064912D01*
X108623374Y-139012737D01*
X108690000Y-138993317D01*
X108756626Y-139012737D01*
X108802382Y-139064912D01*
X108840385Y-139146410D01*
X108969642Y-139331009D01*
X109128991Y-139490358D01*
X109301492Y-139611144D01*
X109313593Y-139619617D01*
X109443934Y-139680395D01*
X109517830Y-139714853D01*
X109735504Y-139773179D01*
X109960000Y-139792820D01*
X110184496Y-139773179D01*
X110402170Y-139714853D01*
X110606410Y-139619615D01*
X110791009Y-139490358D01*
X110950358Y-139331009D01*
X111079615Y-139146410D01*
X111117617Y-139064912D01*
X111163374Y-139012737D01*
X111230000Y-138993317D01*
X111296626Y-139012737D01*
X111342382Y-139064912D01*
X111380385Y-139146410D01*
X111509642Y-139331009D01*
X111668991Y-139490358D01*
X111841492Y-139611144D01*
X111853593Y-139619617D01*
X111983934Y-139680395D01*
X112057830Y-139714853D01*
X112275504Y-139773179D01*
X112500000Y-139792820D01*
X112724496Y-139773179D01*
X112942170Y-139714853D01*
X113146410Y-139619615D01*
X113331009Y-139490358D01*
X113490358Y-139331009D01*
X113619615Y-139146410D01*
X113657617Y-139064912D01*
X113703374Y-139012737D01*
X113770000Y-138993317D01*
X113836626Y-139012737D01*
X113882382Y-139064912D01*
X113920385Y-139146410D01*
X114049642Y-139331009D01*
X114208991Y-139490358D01*
X114381492Y-139611144D01*
X114393593Y-139619617D01*
X114523934Y-139680395D01*
X114597830Y-139714853D01*
X114815504Y-139773179D01*
X115040000Y-139792820D01*
X115264496Y-139773179D01*
X115482170Y-139714853D01*
X115686410Y-139619615D01*
X115871009Y-139490358D01*
X116030358Y-139331009D01*
X116159615Y-139146410D01*
X116197617Y-139064912D01*
X116243374Y-139012737D01*
X116310000Y-138993317D01*
X116376626Y-139012737D01*
X116422382Y-139064912D01*
X116460385Y-139146410D01*
X116589642Y-139331009D01*
X116748991Y-139490358D01*
X116921492Y-139611144D01*
X116933593Y-139619617D01*
X117063934Y-139680395D01*
X117137830Y-139714853D01*
X117355504Y-139773179D01*
X117580000Y-139792820D01*
X117804496Y-139773179D01*
X118022170Y-139714853D01*
X118226410Y-139619615D01*
X118411009Y-139490358D01*
X118570358Y-139331009D01*
X118699615Y-139146410D01*
X118737617Y-139064912D01*
X118783374Y-139012737D01*
X118850000Y-138993317D01*
X118916626Y-139012737D01*
X118962382Y-139064912D01*
X119000385Y-139146410D01*
X119129642Y-139331009D01*
X119288991Y-139490358D01*
X119461492Y-139611144D01*
X119473593Y-139619617D01*
X119603934Y-139680395D01*
X119677830Y-139714853D01*
X119895504Y-139773179D01*
X120120000Y-139792820D01*
X120344496Y-139773179D01*
X120562170Y-139714853D01*
X120766410Y-139619615D01*
X120951009Y-139490358D01*
X121110358Y-139331009D01*
X121239615Y-139146410D01*
X121277617Y-139064912D01*
X121323374Y-139012737D01*
X121390000Y-138993317D01*
X121456626Y-139012737D01*
X121502382Y-139064912D01*
X121540385Y-139146410D01*
X121669642Y-139331009D01*
X121828991Y-139490358D01*
X122001492Y-139611144D01*
X122013593Y-139619617D01*
X122143934Y-139680395D01*
X122217830Y-139714853D01*
X122435504Y-139773179D01*
X122660000Y-139792820D01*
X122884496Y-139773179D01*
X123102170Y-139714853D01*
X123306410Y-139619615D01*
X123491009Y-139490358D01*
X123650358Y-139331009D01*
X123779615Y-139146410D01*
X123817617Y-139064912D01*
X123863374Y-139012737D01*
X123930000Y-138993317D01*
X123996626Y-139012737D01*
X124042382Y-139064912D01*
X124080385Y-139146410D01*
X124209642Y-139331009D01*
X124368991Y-139490358D01*
X124541492Y-139611144D01*
X124553593Y-139619617D01*
X124683934Y-139680395D01*
X124757830Y-139714853D01*
X124975504Y-139773179D01*
X125200000Y-139792820D01*
X125424496Y-139773179D01*
X125642170Y-139714853D01*
X125846410Y-139619615D01*
X126031009Y-139490358D01*
X126190358Y-139331009D01*
X126277326Y-139206805D01*
X126324540Y-139166479D01*
X126385386Y-139154099D01*
X126444605Y-139172768D01*
X126487349Y-139217806D01*
X126502900Y-139277920D01*
X126502900Y-139284465D01*
X126507904Y-139331012D01*
X126509309Y-139344083D01*
X126559604Y-139478931D01*
X126645854Y-139594146D01*
X126761069Y-139680396D01*
X126895917Y-139730691D01*
X126955527Y-139737100D01*
X128524472Y-139737099D01*
X128584083Y-139730691D01*
X128718931Y-139680396D01*
X128834146Y-139594146D01*
X128920396Y-139478931D01*
X128970691Y-139344083D01*
X128977100Y-139284473D01*
X128977099Y-139277935D01*
X128992642Y-139217820D01*
X129035384Y-139172775D01*
X129094605Y-139154100D01*
X129155455Y-139166478D01*
X129202673Y-139206806D01*
X129257057Y-139284473D01*
X129289642Y-139331009D01*
X129448991Y-139490358D01*
X129621492Y-139611144D01*
X129633593Y-139619617D01*
X129763934Y-139680395D01*
X129837830Y-139714853D01*
X130055504Y-139773179D01*
X130280000Y-139792820D01*
X130504496Y-139773179D01*
X130722170Y-139714853D01*
X130926410Y-139619615D01*
X131111009Y-139490358D01*
X131270358Y-139331009D01*
X131399615Y-139146410D01*
X131437617Y-139064912D01*
X131483374Y-139012737D01*
X131550000Y-138993317D01*
X131616626Y-139012737D01*
X131662382Y-139064912D01*
X131700385Y-139146410D01*
X131829642Y-139331009D01*
X131988991Y-139490358D01*
X132161492Y-139611144D01*
X132173593Y-139619617D01*
X132303934Y-139680395D01*
X132377830Y-139714853D01*
X132595504Y-139773179D01*
X132820000Y-139792820D01*
X133044496Y-139773179D01*
X133262170Y-139714853D01*
X133466410Y-139619615D01*
X133651009Y-139490358D01*
X133810358Y-139331009D01*
X133939615Y-139146410D01*
X133977617Y-139064912D01*
X134023374Y-139012737D01*
X134090000Y-138993317D01*
X134156626Y-139012737D01*
X134202382Y-139064912D01*
X134240385Y-139146410D01*
X134369642Y-139331009D01*
X134528991Y-139490358D01*
X134701492Y-139611144D01*
X134713593Y-139619617D01*
X134843934Y-139680395D01*
X134917830Y-139714853D01*
X135135504Y-139773179D01*
X135360000Y-139792820D01*
X135584496Y-139773179D01*
X135802170Y-139714853D01*
X136006410Y-139619615D01*
X136191009Y-139490358D01*
X136350358Y-139331009D01*
X136479615Y-139146410D01*
X136517617Y-139064912D01*
X136563374Y-139012737D01*
X136630000Y-138993317D01*
X136696626Y-139012737D01*
X136742382Y-139064912D01*
X136780385Y-139146410D01*
X136909642Y-139331009D01*
X137068991Y-139490358D01*
X137241492Y-139611144D01*
X137253593Y-139619617D01*
X137383934Y-139680395D01*
X137457830Y-139714853D01*
X137675504Y-139773179D01*
X137900000Y-139792820D01*
X138124496Y-139773179D01*
X138342170Y-139714853D01*
X138546410Y-139619615D01*
X138731009Y-139490358D01*
X138890358Y-139331009D01*
X139019615Y-139146410D01*
X139057617Y-139064912D01*
X139103374Y-139012737D01*
X139170000Y-138993317D01*
X139236626Y-139012737D01*
X139282382Y-139064912D01*
X139320385Y-139146410D01*
X139449642Y-139331009D01*
X139608991Y-139490358D01*
X139781492Y-139611144D01*
X139793593Y-139619617D01*
X139923934Y-139680395D01*
X139997830Y-139714853D01*
X140215504Y-139773179D01*
X140440000Y-139792820D01*
X140664496Y-139773179D01*
X140882170Y-139714853D01*
X141086410Y-139619615D01*
X141271009Y-139490358D01*
X141430358Y-139331009D01*
X141559615Y-139146410D01*
X141597617Y-139064912D01*
X141643374Y-139012737D01*
X141710000Y-138993317D01*
X141776626Y-139012737D01*
X141822382Y-139064912D01*
X141860385Y-139146410D01*
X141989642Y-139331009D01*
X142148991Y-139490358D01*
X142321492Y-139611144D01*
X142333593Y-139619617D01*
X142463934Y-139680395D01*
X142537830Y-139714853D01*
X142755504Y-139773179D01*
X142980000Y-139792820D01*
X143204496Y-139773179D01*
X143422170Y-139714853D01*
X143626410Y-139619615D01*
X143811009Y-139490358D01*
X143970358Y-139331009D01*
X144099615Y-139146410D01*
X144137617Y-139064912D01*
X144183374Y-139012737D01*
X144250000Y-138993317D01*
X144316626Y-139012737D01*
X144362382Y-139064912D01*
X144400385Y-139146410D01*
X144529642Y-139331009D01*
X144688991Y-139490358D01*
X144861492Y-139611144D01*
X144873593Y-139619617D01*
X145003934Y-139680395D01*
X145077830Y-139714853D01*
X145295504Y-139773179D01*
X145520000Y-139792820D01*
X145744496Y-139773179D01*
X145962170Y-139714853D01*
X146166410Y-139619615D01*
X146351009Y-139490358D01*
X146510358Y-139331009D01*
X146567081Y-139250000D01*
X157244356Y-139250000D01*
X157264891Y-139497816D01*
X157264891Y-139497819D01*
X157264892Y-139497821D01*
X157325937Y-139738881D01*
X157340982Y-139773179D01*
X157425825Y-139966604D01*
X157425827Y-139966607D01*
X157561836Y-140174785D01*
X157730256Y-140357738D01*
X157747814Y-140371404D01*
X157926485Y-140510470D01*
X157926487Y-140510471D01*
X157926491Y-140510474D01*
X158145190Y-140628828D01*
X158380386Y-140709571D01*
X158625665Y-140750500D01*
X158874335Y-140750500D01*
X159119614Y-140709571D01*
X159354810Y-140628828D01*
X159573509Y-140510474D01*
X159769744Y-140357738D01*
X159938164Y-140174785D01*
X160074173Y-139966607D01*
X160174063Y-139738881D01*
X160235108Y-139497821D01*
X160255643Y-139250000D01*
X163744356Y-139250000D01*
X163764891Y-139497816D01*
X163764891Y-139497819D01*
X163764892Y-139497821D01*
X163825937Y-139738881D01*
X163840982Y-139773179D01*
X163925825Y-139966604D01*
X163925827Y-139966607D01*
X164061836Y-140174785D01*
X164230256Y-140357738D01*
X164247814Y-140371404D01*
X164426485Y-140510470D01*
X164426487Y-140510471D01*
X164426491Y-140510474D01*
X164645190Y-140628828D01*
X164880386Y-140709571D01*
X165125665Y-140750500D01*
X165374335Y-140750500D01*
X165619614Y-140709571D01*
X165854810Y-140628828D01*
X166073509Y-140510474D01*
X166218184Y-140397869D01*
X198149500Y-140397869D01*
X198155909Y-140457484D01*
X198159751Y-140467784D01*
X198206204Y-140592331D01*
X198292454Y-140707546D01*
X198407669Y-140793796D01*
X198542517Y-140844091D01*
X198602127Y-140850500D01*
X200397872Y-140850499D01*
X200457483Y-140844091D01*
X200592331Y-140793796D01*
X200707546Y-140707546D01*
X200793796Y-140592331D01*
X200842810Y-140460916D01*
X200877789Y-140410537D01*
X200932634Y-140383084D01*
X200993927Y-140385273D01*
X201046673Y-140416569D01*
X201168599Y-140538495D01*
X201362170Y-140674035D01*
X201576337Y-140773903D01*
X201804591Y-140835062D01*
X201804592Y-140835063D01*
X202039999Y-140855659D01*
X202039999Y-140855658D01*
X202040000Y-140855659D01*
X202275408Y-140835063D01*
X202503663Y-140773903D01*
X202717830Y-140674035D01*
X202911401Y-140538495D01*
X203078495Y-140371401D01*
X203208426Y-140185839D01*
X203252743Y-140146975D01*
X203310000Y-140132964D01*
X203367257Y-140146975D01*
X203411573Y-140185839D01*
X203541505Y-140371401D01*
X203708599Y-140538495D01*
X203902170Y-140674035D01*
X204116337Y-140773903D01*
X204344591Y-140835062D01*
X204344592Y-140835063D01*
X204579999Y-140855659D01*
X204579999Y-140855658D01*
X204580000Y-140855659D01*
X204815408Y-140835063D01*
X205043663Y-140773903D01*
X205257830Y-140674035D01*
X205451401Y-140538495D01*
X205618495Y-140371401D01*
X205754035Y-140177830D01*
X205836959Y-139999999D01*
X213094540Y-139999999D01*
X213114326Y-140188257D01*
X213172820Y-140368284D01*
X213267466Y-140532216D01*
X213394129Y-140672889D01*
X213547269Y-140784151D01*
X213720197Y-140861144D01*
X213905352Y-140900500D01*
X213905354Y-140900500D01*
X214094646Y-140900500D01*
X214094648Y-140900500D01*
X214218084Y-140874262D01*
X214279803Y-140861144D01*
X214452730Y-140784151D01*
X214546740Y-140715849D01*
X214605870Y-140672889D01*
X214636515Y-140638855D01*
X214732533Y-140532216D01*
X214827179Y-140368284D01*
X214885674Y-140188256D01*
X214905460Y-140000000D01*
X214885674Y-139811744D01*
X214842996Y-139680395D01*
X214827179Y-139631715D01*
X214732533Y-139467783D01*
X214605870Y-139327110D01*
X214452730Y-139215848D01*
X214279802Y-139138855D01*
X214094648Y-139099500D01*
X214094646Y-139099500D01*
X213905354Y-139099500D01*
X213905352Y-139099500D01*
X213720197Y-139138855D01*
X213547269Y-139215848D01*
X213394129Y-139327110D01*
X213267466Y-139467783D01*
X213172820Y-139631715D01*
X213114326Y-139811742D01*
X213094540Y-139999999D01*
X205836959Y-139999999D01*
X205853903Y-139963663D01*
X205915063Y-139735408D01*
X205935659Y-139500000D01*
X205915063Y-139264592D01*
X205853903Y-139036337D01*
X205754035Y-138822171D01*
X205618495Y-138628599D01*
X205451401Y-138461505D01*
X205257830Y-138325965D01*
X205043663Y-138226097D01*
X204982502Y-138209709D01*
X204815407Y-138164936D01*
X204580000Y-138144340D01*
X204344592Y-138164936D01*
X204116336Y-138226097D01*
X203902170Y-138325965D01*
X203708598Y-138461505D01*
X203541505Y-138628598D01*
X203411575Y-138814159D01*
X203367257Y-138853025D01*
X203310000Y-138867036D01*
X203252743Y-138853025D01*
X203208425Y-138814159D01*
X203171285Y-138761117D01*
X203078495Y-138628599D01*
X202911401Y-138461505D01*
X202717830Y-138325965D01*
X202503663Y-138226097D01*
X202442502Y-138209709D01*
X202275407Y-138164936D01*
X202040000Y-138144340D01*
X201804592Y-138164936D01*
X201576336Y-138226097D01*
X201362170Y-138325965D01*
X201168601Y-138461503D01*
X201046673Y-138583431D01*
X200993926Y-138614726D01*
X200932634Y-138616915D01*
X200877789Y-138589462D01*
X200842810Y-138539082D01*
X200819856Y-138477540D01*
X200793796Y-138407669D01*
X200707546Y-138292454D01*
X200592331Y-138206204D01*
X200457483Y-138155909D01*
X200397873Y-138149500D01*
X200397869Y-138149500D01*
X198602130Y-138149500D01*
X198542515Y-138155909D01*
X198407669Y-138206204D01*
X198292454Y-138292454D01*
X198206204Y-138407668D01*
X198155909Y-138542516D01*
X198149500Y-138602130D01*
X198149500Y-140397869D01*
X166218184Y-140397869D01*
X166269744Y-140357738D01*
X166438164Y-140174785D01*
X166574173Y-139966607D01*
X166674063Y-139738881D01*
X166735108Y-139497821D01*
X166755643Y-139250000D01*
X166735108Y-139002179D01*
X166674063Y-138761119D01*
X166578175Y-138542516D01*
X166574174Y-138533395D01*
X166573404Y-138532216D01*
X166438164Y-138325215D01*
X166269744Y-138142262D01*
X166161261Y-138057826D01*
X166073514Y-137989529D01*
X166073510Y-137989526D01*
X166073509Y-137989526D01*
X165854810Y-137871172D01*
X165854806Y-137871170D01*
X165854805Y-137871170D01*
X165619615Y-137790429D01*
X165374335Y-137749500D01*
X165125665Y-137749500D01*
X164880384Y-137790429D01*
X164645194Y-137871170D01*
X164426485Y-137989529D01*
X164230259Y-138142259D01*
X164230256Y-138142261D01*
X164230256Y-138142262D01*
X164087046Y-138297830D01*
X164061837Y-138325214D01*
X163925825Y-138533395D01*
X163857897Y-138688257D01*
X163825937Y-138761119D01*
X163771608Y-138975659D01*
X163764891Y-139002183D01*
X163744356Y-139250000D01*
X160255643Y-139250000D01*
X160235108Y-139002179D01*
X160174063Y-138761119D01*
X160078175Y-138542516D01*
X160074174Y-138533395D01*
X160073404Y-138532216D01*
X159938164Y-138325215D01*
X159769744Y-138142262D01*
X159661261Y-138057826D01*
X159573514Y-137989529D01*
X159573510Y-137989526D01*
X159573509Y-137989526D01*
X159354810Y-137871172D01*
X159354806Y-137871170D01*
X159354805Y-137871170D01*
X159119615Y-137790429D01*
X158874335Y-137749500D01*
X158625665Y-137749500D01*
X158380384Y-137790429D01*
X158145194Y-137871170D01*
X157926485Y-137989529D01*
X157730259Y-138142259D01*
X157730256Y-138142261D01*
X157730256Y-138142262D01*
X157587046Y-138297830D01*
X157561837Y-138325214D01*
X157425825Y-138533395D01*
X157357897Y-138688257D01*
X157325937Y-138761119D01*
X157271608Y-138975659D01*
X157264891Y-139002183D01*
X157244356Y-139250000D01*
X146567081Y-139250000D01*
X146639615Y-139146410D01*
X146643138Y-139138856D01*
X146677617Y-139064913D01*
X146734853Y-138942170D01*
X146793179Y-138724496D01*
X146812820Y-138500000D01*
X146793179Y-138275504D01*
X146734853Y-138057830D01*
X146717407Y-138020418D01*
X146639617Y-137853593D01*
X146634230Y-137845899D01*
X146510358Y-137668991D01*
X146351009Y-137509642D01*
X146168311Y-137381716D01*
X146166406Y-137380382D01*
X145962173Y-137285148D01*
X145962170Y-137285147D01*
X145821372Y-137247420D01*
X145744493Y-137226820D01*
X145519999Y-137207179D01*
X145295506Y-137226820D01*
X145077826Y-137285148D01*
X144873593Y-137380382D01*
X144688987Y-137509645D01*
X144529645Y-137668987D01*
X144400381Y-137853593D01*
X144362382Y-137935086D01*
X144316625Y-137987262D01*
X144250000Y-138006682D01*
X144183375Y-137987262D01*
X144137618Y-137935086D01*
X144099618Y-137853593D01*
X144027081Y-137750000D01*
X143970358Y-137668991D01*
X143811009Y-137509642D01*
X143628311Y-137381716D01*
X143626406Y-137380382D01*
X143422173Y-137285148D01*
X143422170Y-137285147D01*
X143281372Y-137247420D01*
X143226939Y-137216465D01*
X143194572Y-137162861D01*
X143192524Y-137100276D01*
X143221319Y-137044670D01*
X143232533Y-137032216D01*
X143327179Y-136868284D01*
X143385674Y-136688256D01*
X143405460Y-136500000D01*
X143385674Y-136311744D01*
X143352475Y-136209570D01*
X143327179Y-136131715D01*
X143232533Y-135967783D01*
X143105870Y-135827110D01*
X142952730Y-135715848D01*
X142779802Y-135638855D01*
X142594648Y-135599500D01*
X142594646Y-135599500D01*
X142405354Y-135599500D01*
X142405352Y-135599500D01*
X142220197Y-135638855D01*
X142047269Y-135715848D01*
X141894129Y-135827110D01*
X141767466Y-135967783D01*
X141672820Y-136131715D01*
X141614326Y-136311742D01*
X141594540Y-136499999D01*
X141614326Y-136688257D01*
X141672820Y-136868284D01*
X141767466Y-137032216D01*
X141894129Y-137172889D01*
X142047269Y-137284151D01*
X142108855Y-137311572D01*
X142155799Y-137348084D01*
X142180343Y-137402254D01*
X142176841Y-137461622D01*
X142146101Y-137512532D01*
X141989642Y-137668991D01*
X141860381Y-137853593D01*
X141822382Y-137935086D01*
X141776625Y-137987262D01*
X141710000Y-138006682D01*
X141643375Y-137987262D01*
X141597618Y-137935086D01*
X141559618Y-137853593D01*
X141487081Y-137750000D01*
X141430358Y-137668991D01*
X141271009Y-137509642D01*
X141088311Y-137381716D01*
X141086406Y-137380382D01*
X140882173Y-137285148D01*
X140882170Y-137285147D01*
X140741372Y-137247420D01*
X140664493Y-137226820D01*
X140439999Y-137207179D01*
X140215506Y-137226820D01*
X139997826Y-137285148D01*
X139793593Y-137380382D01*
X139608987Y-137509645D01*
X139449645Y-137668987D01*
X139320381Y-137853593D01*
X139282382Y-137935086D01*
X139236625Y-137987262D01*
X139170000Y-138006682D01*
X139103375Y-137987262D01*
X139057618Y-137935086D01*
X139019618Y-137853593D01*
X138947081Y-137750000D01*
X138890358Y-137668991D01*
X138731009Y-137509642D01*
X138548311Y-137381716D01*
X138546406Y-137380382D01*
X138342173Y-137285148D01*
X138342170Y-137285147D01*
X138201372Y-137247420D01*
X138124493Y-137226820D01*
X137899999Y-137207179D01*
X137675506Y-137226820D01*
X137457826Y-137285148D01*
X137253593Y-137380382D01*
X137068987Y-137509645D01*
X136909645Y-137668987D01*
X136780381Y-137853593D01*
X136742382Y-137935086D01*
X136696625Y-137987262D01*
X136630000Y-138006682D01*
X136563375Y-137987262D01*
X136517618Y-137935086D01*
X136479618Y-137853593D01*
X136407081Y-137750000D01*
X136350358Y-137668991D01*
X136191009Y-137509642D01*
X136008311Y-137381716D01*
X136006406Y-137380382D01*
X135802173Y-137285148D01*
X135802170Y-137285147D01*
X135661372Y-137247420D01*
X135584493Y-137226820D01*
X135359999Y-137207179D01*
X135135506Y-137226820D01*
X134917826Y-137285148D01*
X134713593Y-137380382D01*
X134528987Y-137509645D01*
X134369645Y-137668987D01*
X134240381Y-137853593D01*
X134202382Y-137935086D01*
X134156625Y-137987262D01*
X134090000Y-138006682D01*
X134023375Y-137987262D01*
X133977618Y-137935086D01*
X133939618Y-137853593D01*
X133867081Y-137750000D01*
X133810358Y-137668991D01*
X133651009Y-137509642D01*
X133468311Y-137381716D01*
X133466406Y-137380382D01*
X133262173Y-137285148D01*
X133262170Y-137285147D01*
X133121372Y-137247420D01*
X133044493Y-137226820D01*
X132819999Y-137207179D01*
X132595506Y-137226820D01*
X132377826Y-137285148D01*
X132173593Y-137380382D01*
X131988987Y-137509645D01*
X131829645Y-137668987D01*
X131700381Y-137853593D01*
X131662382Y-137935086D01*
X131616625Y-137987262D01*
X131550000Y-138006682D01*
X131483375Y-137987262D01*
X131437618Y-137935086D01*
X131399618Y-137853593D01*
X131327081Y-137750000D01*
X131270358Y-137668991D01*
X131111009Y-137509642D01*
X130928311Y-137381716D01*
X130926406Y-137380382D01*
X130722173Y-137285148D01*
X130722170Y-137285147D01*
X130581372Y-137247420D01*
X130504493Y-137226820D01*
X130279999Y-137207179D01*
X130055506Y-137226820D01*
X129837826Y-137285148D01*
X129633593Y-137380382D01*
X129448987Y-137509645D01*
X129289641Y-137668991D01*
X129202673Y-137793194D01*
X129155457Y-137833521D01*
X129094609Y-137845900D01*
X129035389Y-137827228D01*
X128992646Y-137782186D01*
X128977099Y-137722070D01*
X128977099Y-137715530D01*
X128972096Y-137668991D01*
X128970691Y-137655917D01*
X128920396Y-137521069D01*
X128834146Y-137405854D01*
X128718931Y-137319604D01*
X128584083Y-137269309D01*
X128524473Y-137262900D01*
X128524469Y-137262900D01*
X126955530Y-137262900D01*
X126895915Y-137269309D01*
X126761069Y-137319604D01*
X126645854Y-137405854D01*
X126559604Y-137521068D01*
X126509309Y-137655916D01*
X126502900Y-137715531D01*
X126502900Y-137722069D01*
X126487353Y-137782185D01*
X126444610Y-137827227D01*
X126385390Y-137845899D01*
X126324542Y-137833520D01*
X126277325Y-137793193D01*
X126247081Y-137750000D01*
X126190358Y-137668991D01*
X126031009Y-137509642D01*
X125848311Y-137381716D01*
X125846406Y-137380382D01*
X125642173Y-137285148D01*
X125642170Y-137285147D01*
X125501372Y-137247420D01*
X125424493Y-137226820D01*
X125199999Y-137207179D01*
X124975506Y-137226820D01*
X124757826Y-137285148D01*
X124553593Y-137380382D01*
X124368987Y-137509645D01*
X124209645Y-137668987D01*
X124080381Y-137853593D01*
X124042382Y-137935086D01*
X123996625Y-137987262D01*
X123930000Y-138006682D01*
X123863375Y-137987262D01*
X123817618Y-137935086D01*
X123779618Y-137853593D01*
X123707081Y-137750000D01*
X123650358Y-137668991D01*
X123491009Y-137509642D01*
X123308311Y-137381716D01*
X123306406Y-137380382D01*
X123102173Y-137285148D01*
X123102170Y-137285147D01*
X122961372Y-137247420D01*
X122884493Y-137226820D01*
X122659999Y-137207179D01*
X122435506Y-137226820D01*
X122217826Y-137285148D01*
X122013593Y-137380382D01*
X121828987Y-137509645D01*
X121669645Y-137668987D01*
X121540381Y-137853593D01*
X121502382Y-137935086D01*
X121456625Y-137987262D01*
X121390000Y-138006682D01*
X121323375Y-137987262D01*
X121277618Y-137935086D01*
X121239618Y-137853593D01*
X121167081Y-137750000D01*
X121110358Y-137668991D01*
X120951009Y-137509642D01*
X120768311Y-137381716D01*
X120766406Y-137380382D01*
X120562173Y-137285148D01*
X120562170Y-137285147D01*
X120421372Y-137247420D01*
X120344493Y-137226820D01*
X120119999Y-137207179D01*
X119895506Y-137226820D01*
X119677826Y-137285148D01*
X119473593Y-137380382D01*
X119288987Y-137509645D01*
X119129645Y-137668987D01*
X119000381Y-137853593D01*
X118962382Y-137935086D01*
X118916625Y-137987262D01*
X118850000Y-138006682D01*
X118783375Y-137987262D01*
X118737618Y-137935086D01*
X118699618Y-137853593D01*
X118627081Y-137750000D01*
X118570358Y-137668991D01*
X118411009Y-137509642D01*
X118228311Y-137381716D01*
X118226406Y-137380382D01*
X118022173Y-137285148D01*
X118022170Y-137285147D01*
X117881372Y-137247420D01*
X117804493Y-137226820D01*
X117579999Y-137207179D01*
X117355506Y-137226820D01*
X117137826Y-137285148D01*
X116933593Y-137380382D01*
X116748987Y-137509645D01*
X116589645Y-137668987D01*
X116460381Y-137853593D01*
X116422382Y-137935086D01*
X116376625Y-137987262D01*
X116310000Y-138006682D01*
X116243375Y-137987262D01*
X116197618Y-137935086D01*
X116159618Y-137853593D01*
X116087081Y-137750000D01*
X116030358Y-137668991D01*
X115871009Y-137509642D01*
X115688311Y-137381716D01*
X115686406Y-137380382D01*
X115482173Y-137285148D01*
X115482170Y-137285147D01*
X115341372Y-137247420D01*
X115264493Y-137226820D01*
X115039999Y-137207179D01*
X114815506Y-137226820D01*
X114597826Y-137285148D01*
X114393593Y-137380382D01*
X114208987Y-137509645D01*
X114049645Y-137668987D01*
X113920381Y-137853593D01*
X113882382Y-137935086D01*
X113836625Y-137987262D01*
X113770000Y-138006682D01*
X113703375Y-137987262D01*
X113657618Y-137935086D01*
X113619618Y-137853593D01*
X113547081Y-137750000D01*
X113490358Y-137668991D01*
X113331009Y-137509642D01*
X113148311Y-137381716D01*
X113146406Y-137380382D01*
X112942173Y-137285148D01*
X112942170Y-137285147D01*
X112801372Y-137247420D01*
X112724493Y-137226820D01*
X112499999Y-137207179D01*
X112275506Y-137226820D01*
X112057826Y-137285148D01*
X111853593Y-137380382D01*
X111668987Y-137509645D01*
X111509645Y-137668987D01*
X111380381Y-137853593D01*
X111342382Y-137935086D01*
X111296625Y-137987262D01*
X111230000Y-138006682D01*
X111163375Y-137987262D01*
X111117618Y-137935086D01*
X111079618Y-137853593D01*
X111007081Y-137750000D01*
X110950358Y-137668991D01*
X110791009Y-137509642D01*
X110608311Y-137381716D01*
X110606406Y-137380382D01*
X110402173Y-137285148D01*
X110402170Y-137285147D01*
X110261372Y-137247420D01*
X110184493Y-137226820D01*
X109959999Y-137207179D01*
X109735506Y-137226820D01*
X109517826Y-137285148D01*
X109313593Y-137380382D01*
X109128987Y-137509645D01*
X108969645Y-137668987D01*
X108840381Y-137853593D01*
X108802382Y-137935086D01*
X108756625Y-137987262D01*
X108690000Y-138006682D01*
X108623375Y-137987262D01*
X108577618Y-137935086D01*
X108539618Y-137853593D01*
X108467081Y-137750000D01*
X108410358Y-137668991D01*
X108251009Y-137509642D01*
X108068311Y-137381716D01*
X108066406Y-137380382D01*
X107862173Y-137285148D01*
X107862170Y-137285147D01*
X107721372Y-137247420D01*
X107644493Y-137226820D01*
X107419999Y-137207179D01*
X107195506Y-137226820D01*
X106977826Y-137285148D01*
X106773593Y-137380382D01*
X106588987Y-137509645D01*
X106429645Y-137668987D01*
X106300381Y-137853593D01*
X106262382Y-137935086D01*
X106216625Y-137987262D01*
X106150000Y-138006682D01*
X106083375Y-137987262D01*
X106037618Y-137935086D01*
X105999618Y-137853593D01*
X105927081Y-137750000D01*
X105870358Y-137668991D01*
X105711009Y-137509642D01*
X105528311Y-137381716D01*
X105526406Y-137380382D01*
X105322173Y-137285148D01*
X105322170Y-137285147D01*
X105181372Y-137247420D01*
X105104493Y-137226820D01*
X104879999Y-137207179D01*
X104655506Y-137226820D01*
X104437826Y-137285148D01*
X104233593Y-137380382D01*
X104048987Y-137509645D01*
X103889645Y-137668987D01*
X103760382Y-137853593D01*
X103665148Y-138057826D01*
X103606820Y-138275506D01*
X103587179Y-138500000D01*
X101000500Y-138500000D01*
X101000500Y-135749999D01*
X111594540Y-135749999D01*
X111614326Y-135938257D01*
X111672820Y-136118284D01*
X111767466Y-136282216D01*
X111894129Y-136422889D01*
X112047269Y-136534151D01*
X112220197Y-136611144D01*
X112405352Y-136650500D01*
X112405354Y-136650500D01*
X112594646Y-136650500D01*
X112594648Y-136650500D01*
X112718083Y-136624262D01*
X112779803Y-136611144D01*
X112952730Y-136534151D01*
X112999735Y-136500000D01*
X113105870Y-136422889D01*
X113142943Y-136381716D01*
X113232533Y-136282216D01*
X113327179Y-136118284D01*
X113385674Y-135938256D01*
X113405460Y-135750000D01*
X113385674Y-135561744D01*
X113354761Y-135466604D01*
X113327179Y-135381715D01*
X113251133Y-135250000D01*
X119344540Y-135250000D01*
X119364326Y-135438257D01*
X119422820Y-135618284D01*
X119517466Y-135782216D01*
X119644129Y-135922889D01*
X119797269Y-136034151D01*
X119970197Y-136111144D01*
X120155352Y-136150500D01*
X120155354Y-136150500D01*
X120344646Y-136150500D01*
X120344648Y-136150500D01*
X120495219Y-136118495D01*
X120529803Y-136111144D01*
X120702730Y-136034151D01*
X120749735Y-136000000D01*
X124344540Y-136000000D01*
X124349806Y-136050100D01*
X124364326Y-136188257D01*
X124422820Y-136368284D01*
X124517466Y-136532216D01*
X124644129Y-136672889D01*
X124797269Y-136784151D01*
X124970197Y-136861144D01*
X125155352Y-136900500D01*
X125155354Y-136900500D01*
X125344646Y-136900500D01*
X125344648Y-136900500D01*
X125468084Y-136874262D01*
X125529803Y-136861144D01*
X125702730Y-136784151D01*
X125749735Y-136750000D01*
X125855870Y-136672889D01*
X125892943Y-136631716D01*
X125982533Y-136532216D01*
X126077179Y-136368284D01*
X126135674Y-136188256D01*
X126155460Y-136000000D01*
X126135674Y-135811744D01*
X126099170Y-135699398D01*
X126077179Y-135631715D01*
X125982533Y-135467783D01*
X125855870Y-135327110D01*
X125702730Y-135215848D01*
X125529802Y-135138855D01*
X125344648Y-135099500D01*
X125344646Y-135099500D01*
X125155354Y-135099500D01*
X125155352Y-135099500D01*
X124970197Y-135138855D01*
X124797269Y-135215848D01*
X124644129Y-135327110D01*
X124517466Y-135467783D01*
X124422820Y-135631715D01*
X124364326Y-135811742D01*
X124348129Y-135965848D01*
X124344540Y-136000000D01*
X120749735Y-136000000D01*
X120855870Y-135922889D01*
X120886515Y-135888855D01*
X120982533Y-135782216D01*
X121077179Y-135618284D01*
X121135674Y-135438256D01*
X121155460Y-135250000D01*
X121135674Y-135061744D01*
X121104515Y-134965848D01*
X121077179Y-134881715D01*
X121001133Y-134750000D01*
X137344540Y-134750000D01*
X137364326Y-134938257D01*
X137422820Y-135118284D01*
X137517466Y-135282216D01*
X137644129Y-135422889D01*
X137797269Y-135534151D01*
X137970197Y-135611144D01*
X138155352Y-135650500D01*
X138155354Y-135650500D01*
X138344646Y-135650500D01*
X138344648Y-135650500D01*
X138468084Y-135624262D01*
X138529803Y-135611144D01*
X138702730Y-135534151D01*
X138795701Y-135466604D01*
X138855870Y-135422889D01*
X138892943Y-135381716D01*
X138982533Y-135282216D01*
X139077179Y-135118284D01*
X139135674Y-134938256D01*
X139155460Y-134750000D01*
X139135674Y-134561744D01*
X139090557Y-134422888D01*
X139077179Y-134381715D01*
X138982533Y-134217783D01*
X138855870Y-134077110D01*
X138702730Y-133965848D01*
X138529802Y-133888855D01*
X138344648Y-133849500D01*
X138344646Y-133849500D01*
X138155354Y-133849500D01*
X138155352Y-133849500D01*
X137970197Y-133888855D01*
X137797269Y-133965848D01*
X137644129Y-134077110D01*
X137517466Y-134217783D01*
X137422820Y-134381715D01*
X137364326Y-134561742D01*
X137344540Y-134750000D01*
X121001133Y-134750000D01*
X120982533Y-134717783D01*
X120855870Y-134577110D01*
X120702730Y-134465848D01*
X120529802Y-134388855D01*
X120344648Y-134349500D01*
X120344646Y-134349500D01*
X120155354Y-134349500D01*
X120155352Y-134349500D01*
X119970197Y-134388855D01*
X119797269Y-134465848D01*
X119644129Y-134577110D01*
X119517466Y-134717783D01*
X119422820Y-134881715D01*
X119364326Y-135061742D01*
X119344540Y-135250000D01*
X113251133Y-135250000D01*
X113232533Y-135217783D01*
X113105870Y-135077110D01*
X112952730Y-134965848D01*
X112779802Y-134888855D01*
X112594648Y-134849500D01*
X112594646Y-134849500D01*
X112405354Y-134849500D01*
X112405352Y-134849500D01*
X112220197Y-134888855D01*
X112047269Y-134965848D01*
X111894129Y-135077110D01*
X111767466Y-135217783D01*
X111672820Y-135381715D01*
X111614326Y-135561742D01*
X111594540Y-135749999D01*
X101000500Y-135749999D01*
X101000500Y-133750000D01*
X131344540Y-133750000D01*
X131364326Y-133938257D01*
X131422820Y-134118284D01*
X131517466Y-134282216D01*
X131644129Y-134422889D01*
X131797269Y-134534151D01*
X131970197Y-134611144D01*
X132155352Y-134650500D01*
X132155354Y-134650500D01*
X132344646Y-134650500D01*
X132344648Y-134650500D01*
X132468083Y-134624262D01*
X132529803Y-134611144D01*
X132702730Y-134534151D01*
X132796740Y-134465849D01*
X132855870Y-134422889D01*
X132886515Y-134388855D01*
X132982533Y-134282216D01*
X133077179Y-134118284D01*
X133135674Y-133938256D01*
X133155460Y-133750000D01*
X133135674Y-133561744D01*
X133086825Y-133411404D01*
X133077179Y-133381715D01*
X132982533Y-133217783D01*
X132855870Y-133077110D01*
X132749735Y-132999999D01*
X134094540Y-132999999D01*
X134114326Y-133188257D01*
X134172820Y-133368284D01*
X134267466Y-133532216D01*
X134394129Y-133672889D01*
X134547269Y-133784151D01*
X134720197Y-133861144D01*
X134905352Y-133900500D01*
X134905354Y-133900500D01*
X135094646Y-133900500D01*
X135094648Y-133900500D01*
X135251043Y-133867257D01*
X135279803Y-133861144D01*
X135452730Y-133784151D01*
X135552115Y-133711944D01*
X135605870Y-133672889D01*
X135633450Y-133642259D01*
X135732533Y-133532216D01*
X135827179Y-133368284D01*
X135885674Y-133188256D01*
X135905460Y-133000000D01*
X135885674Y-132811744D01*
X135840557Y-132672888D01*
X135827179Y-132631715D01*
X135732533Y-132467783D01*
X135605870Y-132327110D01*
X135452730Y-132215848D01*
X135279802Y-132138855D01*
X135094648Y-132099500D01*
X135094646Y-132099500D01*
X134905354Y-132099500D01*
X134905352Y-132099500D01*
X134720197Y-132138855D01*
X134547269Y-132215848D01*
X134394129Y-132327110D01*
X134267466Y-132467783D01*
X134172820Y-132631715D01*
X134114326Y-132811742D01*
X134094540Y-132999999D01*
X132749735Y-132999999D01*
X132702730Y-132965848D01*
X132529802Y-132888855D01*
X132344648Y-132849500D01*
X132344646Y-132849500D01*
X132155354Y-132849500D01*
X132155352Y-132849500D01*
X131970197Y-132888855D01*
X131797269Y-132965848D01*
X131644129Y-133077110D01*
X131517466Y-133217783D01*
X131422820Y-133381715D01*
X131364326Y-133561742D01*
X131344540Y-133750000D01*
X101000500Y-133750000D01*
X101000500Y-132000000D01*
X102844540Y-132000000D01*
X102864326Y-132188257D01*
X102922820Y-132368284D01*
X103017466Y-132532216D01*
X103144129Y-132672889D01*
X103297269Y-132784151D01*
X103470197Y-132861144D01*
X103655352Y-132900500D01*
X103655354Y-132900500D01*
X103844646Y-132900500D01*
X103844648Y-132900500D01*
X103968084Y-132874262D01*
X104029803Y-132861144D01*
X104202730Y-132784151D01*
X104355871Y-132672888D01*
X104482533Y-132532216D01*
X104577179Y-132368284D01*
X104635674Y-132188256D01*
X104655460Y-132000000D01*
X149250000Y-132000000D01*
X149250000Y-139000000D01*
X152500000Y-139000000D01*
X152500000Y-137620000D01*
X174294340Y-137620000D01*
X174314936Y-137855407D01*
X174353680Y-138000000D01*
X174376097Y-138083663D01*
X174475965Y-138297830D01*
X174611505Y-138491401D01*
X174778599Y-138658495D01*
X174972170Y-138794035D01*
X175186337Y-138893903D01*
X175414592Y-138955063D01*
X175650000Y-138975659D01*
X175885408Y-138955063D01*
X176113663Y-138893903D01*
X176327830Y-138794035D01*
X176521401Y-138658495D01*
X176688495Y-138491401D01*
X176824035Y-138297830D01*
X176923903Y-138083663D01*
X176985063Y-137855408D01*
X177005659Y-137620000D01*
X178944340Y-137620000D01*
X178964936Y-137855407D01*
X179003680Y-138000000D01*
X179026097Y-138083663D01*
X179125965Y-138297830D01*
X179261505Y-138491401D01*
X179428599Y-138658495D01*
X179622170Y-138794035D01*
X179836337Y-138893903D01*
X180064592Y-138955063D01*
X180300000Y-138975659D01*
X180535408Y-138955063D01*
X180763663Y-138893903D01*
X180977830Y-138794035D01*
X181171401Y-138658495D01*
X181338495Y-138491401D01*
X181474035Y-138297830D01*
X181573903Y-138083663D01*
X181635063Y-137855408D01*
X181655659Y-137620000D01*
X183644340Y-137620000D01*
X183664936Y-137855407D01*
X183703680Y-138000000D01*
X183726097Y-138083663D01*
X183825965Y-138297830D01*
X183961505Y-138491401D01*
X184128599Y-138658495D01*
X184322170Y-138794035D01*
X184536337Y-138893903D01*
X184764592Y-138955063D01*
X185000000Y-138975659D01*
X185235408Y-138955063D01*
X185463663Y-138893903D01*
X185677830Y-138794035D01*
X185871401Y-138658495D01*
X186038495Y-138491401D01*
X186174035Y-138297830D01*
X186273903Y-138083663D01*
X186296320Y-138000000D01*
X208094540Y-138000000D01*
X208114326Y-138188257D01*
X208172820Y-138368284D01*
X208267466Y-138532216D01*
X208394129Y-138672889D01*
X208547269Y-138784151D01*
X208720197Y-138861144D01*
X208905352Y-138900500D01*
X208905354Y-138900500D01*
X209094646Y-138900500D01*
X209094648Y-138900500D01*
X209218084Y-138874262D01*
X209279803Y-138861144D01*
X209452730Y-138784151D01*
X209519269Y-138735808D01*
X209605870Y-138672889D01*
X209618831Y-138658495D01*
X209732533Y-138532216D01*
X209751133Y-138500000D01*
X228344540Y-138500000D01*
X228364326Y-138688257D01*
X228422820Y-138868284D01*
X228517466Y-139032216D01*
X228644129Y-139172889D01*
X228797269Y-139284151D01*
X228970197Y-139361144D01*
X229155352Y-139400500D01*
X229155354Y-139400500D01*
X229344646Y-139400500D01*
X229344648Y-139400500D01*
X229468083Y-139374262D01*
X229529803Y-139361144D01*
X229702730Y-139284151D01*
X229794027Y-139217820D01*
X229855870Y-139172889D01*
X229879716Y-139146406D01*
X229982533Y-139032216D01*
X230077179Y-138868284D01*
X230108314Y-138772459D01*
X230145221Y-138716911D01*
X230205565Y-138688515D01*
X230271892Y-138695486D01*
X230325015Y-138735808D01*
X230349565Y-138797815D01*
X230356841Y-138867036D01*
X230364326Y-138938257D01*
X230422820Y-139118284D01*
X230517466Y-139282216D01*
X230644129Y-139422889D01*
X230797269Y-139534151D01*
X230970197Y-139611144D01*
X231155352Y-139650500D01*
X231155354Y-139650500D01*
X231344646Y-139650500D01*
X231344648Y-139650500D01*
X231489940Y-139619617D01*
X231529803Y-139611144D01*
X231699566Y-139535559D01*
X231750000Y-139524839D01*
X231800433Y-139535559D01*
X231970196Y-139611143D01*
X231970197Y-139611144D01*
X232155352Y-139650500D01*
X232155354Y-139650500D01*
X232344646Y-139650500D01*
X232344648Y-139650500D01*
X232489940Y-139619617D01*
X232529803Y-139611144D01*
X232702730Y-139534151D01*
X232778734Y-139478931D01*
X232855870Y-139422889D01*
X232926828Y-139344083D01*
X232982533Y-139282216D01*
X233077179Y-139118284D01*
X233135674Y-138938256D01*
X233155460Y-138750000D01*
X233135674Y-138561744D01*
X233085612Y-138407669D01*
X233077179Y-138381715D01*
X233036928Y-138311999D01*
X233020315Y-138249999D01*
X233036928Y-138187999D01*
X233077179Y-138118284D01*
X233115612Y-138000000D01*
X242744680Y-138000000D01*
X242763948Y-138404494D01*
X242821579Y-138805325D01*
X242853828Y-138938256D01*
X242917051Y-139198867D01*
X243049496Y-139581542D01*
X243217720Y-139949900D01*
X243420197Y-140300601D01*
X243655089Y-140630459D01*
X243655093Y-140630464D01*
X243920280Y-140936507D01*
X244213358Y-141215956D01*
X244531672Y-141466281D01*
X244531679Y-141466285D01*
X244531681Y-141466287D01*
X244872331Y-141685210D01*
X244872337Y-141685213D01*
X244872340Y-141685215D01*
X245232276Y-141870775D01*
X245608221Y-142021281D01*
X245996770Y-142135369D01*
X246394405Y-142212007D01*
X246797524Y-142250500D01*
X247202471Y-142250500D01*
X247202476Y-142250500D01*
X247605595Y-142212007D01*
X248003230Y-142135369D01*
X248391779Y-142021281D01*
X248767724Y-141870775D01*
X249127660Y-141685215D01*
X249468328Y-141466281D01*
X249786642Y-141215956D01*
X250079720Y-140936507D01*
X250344907Y-140630464D01*
X250579803Y-140300600D01*
X250782279Y-139949900D01*
X250950503Y-139581543D01*
X251082950Y-139198862D01*
X251178421Y-138805325D01*
X251236052Y-138404494D01*
X251255320Y-138000000D01*
X251236052Y-137595506D01*
X251178421Y-137194675D01*
X251082950Y-136801138D01*
X250950503Y-136418457D01*
X250889167Y-136284151D01*
X250782279Y-136050099D01*
X250579802Y-135699398D01*
X250344910Y-135369540D01*
X250308146Y-135327112D01*
X250079720Y-135063493D01*
X249786642Y-134784044D01*
X249468328Y-134533719D01*
X249468321Y-134533715D01*
X249468318Y-134533712D01*
X249127668Y-134314789D01*
X249057747Y-134278742D01*
X248767724Y-134129225D01*
X248391779Y-133978719D01*
X248391778Y-133978718D01*
X248391774Y-133978717D01*
X248003228Y-133864630D01*
X247605601Y-133787994D01*
X247605599Y-133787993D01*
X247605595Y-133787993D01*
X247202476Y-133749500D01*
X246797524Y-133749500D01*
X246394405Y-133787993D01*
X246394401Y-133787993D01*
X246394398Y-133787994D01*
X245996771Y-133864630D01*
X245608225Y-133978717D01*
X245232276Y-134129225D01*
X244872331Y-134314789D01*
X244531681Y-134533712D01*
X244213354Y-134784047D01*
X243920280Y-135063492D01*
X243655089Y-135369540D01*
X243420197Y-135699398D01*
X243217720Y-136050099D01*
X243049496Y-136418457D01*
X242917051Y-136801132D01*
X242883785Y-136938257D01*
X242821579Y-137194675D01*
X242763948Y-137595506D01*
X242744680Y-138000000D01*
X233115612Y-138000000D01*
X233135674Y-137938256D01*
X233155460Y-137750000D01*
X233135674Y-137561744D01*
X233083852Y-137402254D01*
X233077179Y-137381715D01*
X233036928Y-137311999D01*
X233020315Y-137249999D01*
X233036928Y-137187999D01*
X233077179Y-137118284D01*
X233135674Y-136938256D01*
X233155460Y-136750000D01*
X233135674Y-136561744D01*
X233085478Y-136407257D01*
X233077179Y-136381715D01*
X232982533Y-136217783D01*
X232855870Y-136077110D01*
X232702730Y-135965848D01*
X232529802Y-135888855D01*
X232344648Y-135849500D01*
X232344646Y-135849500D01*
X232155354Y-135849500D01*
X232155352Y-135849500D01*
X231970199Y-135888854D01*
X231800434Y-135964439D01*
X231749999Y-135975159D01*
X231699563Y-135964438D01*
X231529802Y-135888855D01*
X231344648Y-135849500D01*
X231344646Y-135849500D01*
X231253954Y-135849500D01*
X231197660Y-135835985D01*
X231153637Y-135798387D01*
X231131481Y-135744901D01*
X231134912Y-135701281D01*
X231134311Y-135701218D01*
X231135672Y-135688259D01*
X231135674Y-135688256D01*
X231155460Y-135500000D01*
X231135674Y-135311744D01*
X231104515Y-135215848D01*
X231077179Y-135131715D01*
X230982533Y-134967783D01*
X230847150Y-134817426D01*
X230848872Y-134815874D01*
X230818944Y-134778113D01*
X230810585Y-134711947D01*
X230837711Y-134651021D01*
X230892476Y-134612959D01*
X230959036Y-134608772D01*
X231155352Y-134650500D01*
X231155354Y-134650500D01*
X231344646Y-134650500D01*
X231344648Y-134650500D01*
X231468083Y-134624262D01*
X231529803Y-134611144D01*
X231702730Y-134534151D01*
X231796740Y-134465849D01*
X231855870Y-134422889D01*
X231886515Y-134388855D01*
X231982533Y-134282216D01*
X232077179Y-134118284D01*
X232135674Y-133938256D01*
X232155460Y-133750000D01*
X232135674Y-133561744D01*
X232086825Y-133411404D01*
X232077179Y-133381715D01*
X231982533Y-133217783D01*
X231855870Y-133077110D01*
X231749735Y-132999999D01*
X232344540Y-132999999D01*
X232364326Y-133188257D01*
X232422820Y-133368284D01*
X232517466Y-133532216D01*
X232644129Y-133672889D01*
X232797269Y-133784151D01*
X232970197Y-133861144D01*
X233155352Y-133900500D01*
X233155354Y-133900500D01*
X233344646Y-133900500D01*
X233344648Y-133900500D01*
X233501043Y-133867257D01*
X233529803Y-133861144D01*
X233702730Y-133784151D01*
X233802116Y-133711943D01*
X233849219Y-133690972D01*
X233900781Y-133690972D01*
X233947883Y-133711943D01*
X234047270Y-133784151D01*
X234047271Y-133784151D01*
X234047272Y-133784152D01*
X234220197Y-133861144D01*
X234405352Y-133900500D01*
X234405354Y-133900500D01*
X234594646Y-133900500D01*
X234594648Y-133900500D01*
X234751043Y-133867257D01*
X234779803Y-133861144D01*
X234952730Y-133784151D01*
X235052115Y-133711944D01*
X235105870Y-133672889D01*
X235133450Y-133642259D01*
X235232533Y-133532216D01*
X235327179Y-133368284D01*
X235385674Y-133188256D01*
X235405460Y-133000000D01*
X235395219Y-132902567D01*
X235405260Y-132839174D01*
X235445655Y-132789291D01*
X235452730Y-132784151D01*
X235605871Y-132672888D01*
X235732533Y-132532216D01*
X235827179Y-132368284D01*
X235885674Y-132188256D01*
X235905460Y-132000000D01*
X235885674Y-131811744D01*
X235827179Y-131631716D01*
X235827179Y-131631715D01*
X235732533Y-131467783D01*
X235605870Y-131327110D01*
X235452730Y-131215848D01*
X235279802Y-131138855D01*
X235094648Y-131099500D01*
X235094646Y-131099500D01*
X234905354Y-131099500D01*
X234905352Y-131099500D01*
X234720197Y-131138855D01*
X234547269Y-131215848D01*
X234394129Y-131327110D01*
X234267466Y-131467783D01*
X234172820Y-131631715D01*
X234114326Y-131811742D01*
X234094540Y-132000000D01*
X234104779Y-132097431D01*
X234094737Y-132160827D01*
X234054343Y-132210709D01*
X233947885Y-132288055D01*
X233900781Y-132309027D01*
X233849219Y-132309027D01*
X233802115Y-132288055D01*
X233702730Y-132215848D01*
X233529802Y-132138855D01*
X233344648Y-132099500D01*
X233344646Y-132099500D01*
X233155354Y-132099500D01*
X233155352Y-132099500D01*
X232970197Y-132138855D01*
X232797269Y-132215848D01*
X232644129Y-132327110D01*
X232517466Y-132467783D01*
X232422820Y-132631715D01*
X232364326Y-132811742D01*
X232344540Y-132999999D01*
X231749735Y-132999999D01*
X231702730Y-132965848D01*
X231529802Y-132888855D01*
X231344648Y-132849500D01*
X231344646Y-132849500D01*
X231155354Y-132849500D01*
X231155352Y-132849500D01*
X230970197Y-132888855D01*
X230797269Y-132965848D01*
X230644129Y-133077110D01*
X230517466Y-133217783D01*
X230422820Y-133381715D01*
X230364326Y-133561742D01*
X230344540Y-133750000D01*
X230364326Y-133938257D01*
X230422820Y-134118284D01*
X230517466Y-134282216D01*
X230652850Y-134432574D01*
X230651126Y-134434125D01*
X230681054Y-134471883D01*
X230689414Y-134538049D01*
X230662289Y-134598976D01*
X230607525Y-134637039D01*
X230540964Y-134641227D01*
X230344649Y-134599500D01*
X230344646Y-134599500D01*
X230155354Y-134599500D01*
X230155352Y-134599500D01*
X229970197Y-134638855D01*
X229797269Y-134715848D01*
X229644129Y-134827110D01*
X229517466Y-134967783D01*
X229422820Y-135131715D01*
X229364326Y-135311742D01*
X229344540Y-135500000D01*
X229364326Y-135688257D01*
X229422820Y-135868284D01*
X229517466Y-136032216D01*
X229644129Y-136172889D01*
X229797269Y-136284151D01*
X229970197Y-136361144D01*
X230155352Y-136400500D01*
X230246046Y-136400500D01*
X230302340Y-136414015D01*
X230346363Y-136451613D01*
X230368519Y-136505099D01*
X230365087Y-136548718D01*
X230365689Y-136548782D01*
X230364326Y-136561741D01*
X230364326Y-136561744D01*
X230351029Y-136688257D01*
X230344540Y-136749999D01*
X230364326Y-136938257D01*
X230422820Y-137118284D01*
X230463071Y-137187999D01*
X230479684Y-137249998D01*
X230463072Y-137311998D01*
X230422820Y-137381716D01*
X230364326Y-137561742D01*
X230344540Y-137750000D01*
X230364326Y-137938257D01*
X230422820Y-138118284D01*
X230463071Y-138187999D01*
X230479684Y-138249998D01*
X230463072Y-138311998D01*
X230422820Y-138381716D01*
X230391685Y-138477540D01*
X230354778Y-138533089D01*
X230294432Y-138561485D01*
X230228106Y-138554513D01*
X230174984Y-138514191D01*
X230150434Y-138452186D01*
X230135674Y-138311744D01*
X230101382Y-138206204D01*
X230077179Y-138131715D01*
X229982533Y-137967783D01*
X229855870Y-137827110D01*
X229702730Y-137715848D01*
X229529802Y-137638855D01*
X229344648Y-137599500D01*
X229344646Y-137599500D01*
X229155354Y-137599500D01*
X229155352Y-137599500D01*
X228970197Y-137638855D01*
X228797269Y-137715848D01*
X228644129Y-137827110D01*
X228517466Y-137967783D01*
X228422820Y-138131715D01*
X228364326Y-138311742D01*
X228344540Y-138500000D01*
X209751133Y-138500000D01*
X209827179Y-138368284D01*
X209885674Y-138188256D01*
X209905460Y-138000000D01*
X209885674Y-137811744D01*
X209840557Y-137672888D01*
X209827179Y-137631715D01*
X209732533Y-137467783D01*
X209605870Y-137327110D01*
X209452730Y-137215848D01*
X209279802Y-137138855D01*
X209094648Y-137099500D01*
X209094646Y-137099500D01*
X208905354Y-137099500D01*
X208905352Y-137099500D01*
X208720197Y-137138855D01*
X208547269Y-137215848D01*
X208394129Y-137327110D01*
X208267466Y-137467783D01*
X208172820Y-137631715D01*
X208114326Y-137811742D01*
X208094540Y-138000000D01*
X186296320Y-138000000D01*
X186335063Y-137855408D01*
X186355659Y-137620000D01*
X186335063Y-137384592D01*
X186273903Y-137156337D01*
X186201001Y-137000000D01*
X223094540Y-137000000D01*
X223114326Y-137188257D01*
X223172820Y-137368284D01*
X223267466Y-137532216D01*
X223394129Y-137672889D01*
X223547269Y-137784151D01*
X223720197Y-137861144D01*
X223905352Y-137900500D01*
X223905354Y-137900500D01*
X224094646Y-137900500D01*
X224094648Y-137900500D01*
X224218084Y-137874262D01*
X224279803Y-137861144D01*
X224452730Y-137784151D01*
X224546740Y-137715849D01*
X224605870Y-137672889D01*
X224636515Y-137638855D01*
X224732533Y-137532216D01*
X224827179Y-137368284D01*
X224885674Y-137188256D01*
X224905460Y-137000000D01*
X224885674Y-136811744D01*
X224855332Y-136718363D01*
X224827179Y-136631715D01*
X224732533Y-136467783D01*
X224605870Y-136327110D01*
X224452730Y-136215848D01*
X224279802Y-136138855D01*
X224094648Y-136099500D01*
X224094646Y-136099500D01*
X223905354Y-136099500D01*
X223905352Y-136099500D01*
X223720197Y-136138855D01*
X223547269Y-136215848D01*
X223394129Y-136327110D01*
X223267466Y-136467783D01*
X223172820Y-136631715D01*
X223114326Y-136811742D01*
X223094540Y-137000000D01*
X186201001Y-137000000D01*
X186174035Y-136942171D01*
X186038495Y-136748599D01*
X185871401Y-136581505D01*
X185685839Y-136451573D01*
X185646976Y-136407257D01*
X185632965Y-136350000D01*
X185646976Y-136292743D01*
X185685839Y-136248426D01*
X185871401Y-136118495D01*
X185989896Y-136000000D01*
X199094540Y-136000000D01*
X199099806Y-136050100D01*
X199114326Y-136188257D01*
X199172820Y-136368284D01*
X199267466Y-136532216D01*
X199394129Y-136672889D01*
X199547269Y-136784151D01*
X199720197Y-136861144D01*
X199905352Y-136900500D01*
X199905354Y-136900500D01*
X200094646Y-136900500D01*
X200094648Y-136900500D01*
X200218084Y-136874262D01*
X200279803Y-136861144D01*
X200452730Y-136784151D01*
X200499735Y-136750000D01*
X200605870Y-136672889D01*
X200642943Y-136631716D01*
X200732533Y-136532216D01*
X200827179Y-136368284D01*
X200885674Y-136188256D01*
X200904247Y-136011538D01*
X200924767Y-135955160D01*
X200969354Y-135915015D01*
X201027568Y-135900500D01*
X201094648Y-135900500D01*
X201218084Y-135874262D01*
X201279803Y-135861144D01*
X201452730Y-135784151D01*
X201499735Y-135750000D01*
X201605870Y-135672889D01*
X201636515Y-135638855D01*
X201732533Y-135532216D01*
X201827179Y-135368284D01*
X201885674Y-135188256D01*
X201905460Y-135000000D01*
X201885674Y-134811744D01*
X201833452Y-134651021D01*
X201827179Y-134631715D01*
X201732533Y-134467783D01*
X201605870Y-134327110D01*
X201452730Y-134215848D01*
X201279802Y-134138855D01*
X201094648Y-134099500D01*
X201094646Y-134099500D01*
X200905354Y-134099500D01*
X200905352Y-134099500D01*
X200720197Y-134138855D01*
X200547269Y-134215848D01*
X200394129Y-134327110D01*
X200267466Y-134467783D01*
X200172820Y-134631715D01*
X200114326Y-134811742D01*
X200106221Y-134888856D01*
X200098130Y-134965848D01*
X200095753Y-134988461D01*
X200075233Y-135044840D01*
X200030646Y-135084985D01*
X199972432Y-135099500D01*
X199905352Y-135099500D01*
X199720197Y-135138855D01*
X199547269Y-135215848D01*
X199394129Y-135327110D01*
X199267466Y-135467783D01*
X199172820Y-135631715D01*
X199114326Y-135811742D01*
X199098129Y-135965848D01*
X199094540Y-136000000D01*
X185989896Y-136000000D01*
X186038495Y-135951401D01*
X186174035Y-135757830D01*
X186273903Y-135543663D01*
X186335063Y-135315408D01*
X186355659Y-135080000D01*
X186335063Y-134844592D01*
X186273903Y-134616337D01*
X186174035Y-134402171D01*
X186038495Y-134208599D01*
X185871401Y-134041505D01*
X185677830Y-133905965D01*
X185463663Y-133806097D01*
X185381762Y-133784152D01*
X185235407Y-133744936D01*
X185000000Y-133724340D01*
X184764592Y-133744936D01*
X184536336Y-133806097D01*
X184322170Y-133905965D01*
X184128598Y-134041505D01*
X183961505Y-134208598D01*
X183825965Y-134402170D01*
X183726097Y-134616336D01*
X183664936Y-134844592D01*
X183644340Y-135080000D01*
X183664936Y-135315407D01*
X183709709Y-135482502D01*
X183726097Y-135543663D01*
X183825965Y-135757830D01*
X183961505Y-135951401D01*
X184128599Y-136118495D01*
X184314160Y-136248426D01*
X184353024Y-136292743D01*
X184367035Y-136350000D01*
X184353024Y-136407257D01*
X184314158Y-136451575D01*
X184175333Y-136548782D01*
X184128595Y-136581508D01*
X183961505Y-136748598D01*
X183825965Y-136942170D01*
X183726097Y-137156336D01*
X183664936Y-137384592D01*
X183644340Y-137620000D01*
X181655659Y-137620000D01*
X181635063Y-137384592D01*
X181573903Y-137156337D01*
X181474035Y-136942171D01*
X181338495Y-136748599D01*
X181171401Y-136581505D01*
X180985839Y-136451573D01*
X180946976Y-136407257D01*
X180932965Y-136350000D01*
X180946976Y-136292743D01*
X180985839Y-136248426D01*
X181171401Y-136118495D01*
X181338495Y-135951401D01*
X181474035Y-135757830D01*
X181573903Y-135543663D01*
X181635063Y-135315408D01*
X181655659Y-135080000D01*
X181635063Y-134844592D01*
X181573903Y-134616337D01*
X181474035Y-134402171D01*
X181338495Y-134208599D01*
X181171401Y-134041505D01*
X180985839Y-133911573D01*
X180946974Y-133867255D01*
X180932964Y-133809999D01*
X180946975Y-133752742D01*
X180985837Y-133708428D01*
X181171401Y-133578495D01*
X181338495Y-133411401D01*
X181474035Y-133217830D01*
X181573903Y-133003663D01*
X181635063Y-132775408D01*
X181655659Y-132540000D01*
X181635063Y-132304592D01*
X181573903Y-132076337D01*
X181474035Y-131862171D01*
X181395492Y-131749999D01*
X226344540Y-131749999D01*
X226364326Y-131938257D01*
X226422820Y-132118284D01*
X226517466Y-132282216D01*
X226644129Y-132422889D01*
X226797269Y-132534151D01*
X226970197Y-132611144D01*
X227155352Y-132650500D01*
X227155354Y-132650500D01*
X227344646Y-132650500D01*
X227344648Y-132650500D01*
X227468083Y-132624262D01*
X227529803Y-132611144D01*
X227702730Y-132534151D01*
X227855871Y-132422888D01*
X227982533Y-132282216D01*
X228077179Y-132118284D01*
X228135674Y-131938256D01*
X228155460Y-131750000D01*
X228135674Y-131561744D01*
X228077179Y-131381716D01*
X228077179Y-131381715D01*
X227982533Y-131217783D01*
X227855870Y-131077110D01*
X227702730Y-130965848D01*
X227529802Y-130888855D01*
X227344648Y-130849500D01*
X227344646Y-130849500D01*
X227155354Y-130849500D01*
X227155352Y-130849500D01*
X226970197Y-130888855D01*
X226797269Y-130965848D01*
X226644129Y-131077110D01*
X226517466Y-131217783D01*
X226422820Y-131381715D01*
X226364326Y-131561742D01*
X226344540Y-131749999D01*
X181395492Y-131749999D01*
X181338495Y-131668599D01*
X181216569Y-131546673D01*
X181185273Y-131493927D01*
X181183084Y-131432634D01*
X181210537Y-131377789D01*
X181260916Y-131342810D01*
X181392331Y-131293796D01*
X181507546Y-131207546D01*
X181593796Y-131092331D01*
X181644091Y-130957483D01*
X181650500Y-130897873D01*
X181650500Y-130897869D01*
X183649500Y-130897869D01*
X183652190Y-130922888D01*
X183655909Y-130957483D01*
X183706204Y-131092331D01*
X183792454Y-131207546D01*
X183907669Y-131293796D01*
X184042517Y-131344091D01*
X184102127Y-131350500D01*
X185897872Y-131350499D01*
X185957483Y-131344091D01*
X186092331Y-131293796D01*
X186207546Y-131207546D01*
X186293796Y-131092331D01*
X186344091Y-130957483D01*
X186350500Y-130897873D01*
X186350499Y-129102128D01*
X186344091Y-129042517D01*
X186293796Y-128907669D01*
X186207546Y-128792454D01*
X186092331Y-128706204D01*
X185957483Y-128655909D01*
X185897873Y-128649500D01*
X185897869Y-128649500D01*
X184102130Y-128649500D01*
X184042515Y-128655909D01*
X183907669Y-128706204D01*
X183792454Y-128792454D01*
X183706204Y-128907668D01*
X183655909Y-129042516D01*
X183649500Y-129102130D01*
X183649500Y-130897869D01*
X181650500Y-130897869D01*
X181650499Y-129102128D01*
X181644091Y-129042517D01*
X181593796Y-128907669D01*
X181507546Y-128792454D01*
X181392331Y-128706204D01*
X181257483Y-128655909D01*
X181197873Y-128649500D01*
X181197869Y-128649500D01*
X179402130Y-128649500D01*
X179342515Y-128655909D01*
X179207669Y-128706204D01*
X179092454Y-128792454D01*
X179006204Y-128907668D01*
X178955909Y-129042516D01*
X178949500Y-129102130D01*
X178949500Y-130897869D01*
X178952190Y-130922888D01*
X178955909Y-130957483D01*
X179006204Y-131092331D01*
X179092454Y-131207546D01*
X179207669Y-131293796D01*
X179296989Y-131327110D01*
X179339082Y-131342810D01*
X179389462Y-131377789D01*
X179416915Y-131432634D01*
X179414726Y-131493926D01*
X179383431Y-131546673D01*
X179261503Y-131668601D01*
X179125965Y-131862170D01*
X179026097Y-132076336D01*
X178964936Y-132304592D01*
X178944340Y-132540000D01*
X178964936Y-132775407D01*
X178995335Y-132888856D01*
X179026097Y-133003663D01*
X179125965Y-133217830D01*
X179261505Y-133411401D01*
X179428599Y-133578495D01*
X179614160Y-133708426D01*
X179653024Y-133752743D01*
X179667035Y-133810000D01*
X179653024Y-133867257D01*
X179614160Y-133911574D01*
X179440182Y-134033395D01*
X179428595Y-134041508D01*
X179261505Y-134208598D01*
X179125965Y-134402170D01*
X179026097Y-134616336D01*
X178964936Y-134844592D01*
X178944340Y-135080000D01*
X178964936Y-135315407D01*
X179009709Y-135482502D01*
X179026097Y-135543663D01*
X179125965Y-135757830D01*
X179261505Y-135951401D01*
X179428599Y-136118495D01*
X179614160Y-136248426D01*
X179653024Y-136292743D01*
X179667035Y-136350000D01*
X179653024Y-136407257D01*
X179614158Y-136451575D01*
X179475333Y-136548782D01*
X179428595Y-136581508D01*
X179261505Y-136748598D01*
X179125965Y-136942170D01*
X179026097Y-137156336D01*
X178964936Y-137384592D01*
X178944340Y-137620000D01*
X177005659Y-137620000D01*
X176985063Y-137384592D01*
X176923903Y-137156337D01*
X176824035Y-136942171D01*
X176688495Y-136748599D01*
X176521401Y-136581505D01*
X176335839Y-136451573D01*
X176296976Y-136407257D01*
X176282965Y-136350000D01*
X176296976Y-136292743D01*
X176335839Y-136248426D01*
X176521401Y-136118495D01*
X176688495Y-135951401D01*
X176824035Y-135757830D01*
X176923903Y-135543663D01*
X176985063Y-135315408D01*
X177005659Y-135080000D01*
X176985063Y-134844592D01*
X176923903Y-134616337D01*
X176824035Y-134402171D01*
X176688495Y-134208599D01*
X176521401Y-134041505D01*
X176335839Y-133911573D01*
X176296974Y-133867255D01*
X176282964Y-133809999D01*
X176296975Y-133752742D01*
X176335837Y-133708428D01*
X176521401Y-133578495D01*
X176688495Y-133411401D01*
X176824035Y-133217830D01*
X176923903Y-133003663D01*
X176985063Y-132775408D01*
X177005659Y-132540000D01*
X176985063Y-132304592D01*
X176923903Y-132076337D01*
X176824035Y-131862171D01*
X176688495Y-131668599D01*
X176566569Y-131546673D01*
X176535273Y-131493927D01*
X176533084Y-131432634D01*
X176560537Y-131377789D01*
X176610916Y-131342810D01*
X176742331Y-131293796D01*
X176857546Y-131207546D01*
X176943796Y-131092331D01*
X176994091Y-130957483D01*
X177000500Y-130897873D01*
X177000499Y-129102128D01*
X176994091Y-129042517D01*
X176943796Y-128907669D01*
X176857546Y-128792454D01*
X176742331Y-128706204D01*
X176607483Y-128655909D01*
X176547873Y-128649500D01*
X176547869Y-128649500D01*
X174752130Y-128649500D01*
X174692515Y-128655909D01*
X174557669Y-128706204D01*
X174442454Y-128792454D01*
X174356204Y-128907668D01*
X174305909Y-129042516D01*
X174299500Y-129102130D01*
X174299500Y-130897869D01*
X174302190Y-130922888D01*
X174305909Y-130957483D01*
X174356204Y-131092331D01*
X174442454Y-131207546D01*
X174557669Y-131293796D01*
X174646989Y-131327110D01*
X174689082Y-131342810D01*
X174739462Y-131377789D01*
X174766915Y-131432634D01*
X174764726Y-131493926D01*
X174733431Y-131546673D01*
X174611503Y-131668601D01*
X174475965Y-131862170D01*
X174376097Y-132076336D01*
X174314936Y-132304592D01*
X174294340Y-132540000D01*
X174314936Y-132775407D01*
X174345335Y-132888856D01*
X174376097Y-133003663D01*
X174475965Y-133217830D01*
X174611505Y-133411401D01*
X174778599Y-133578495D01*
X174964160Y-133708426D01*
X175003024Y-133752743D01*
X175017035Y-133810000D01*
X175003024Y-133867257D01*
X174964160Y-133911574D01*
X174790182Y-134033395D01*
X174778595Y-134041508D01*
X174611505Y-134208598D01*
X174475965Y-134402170D01*
X174376097Y-134616336D01*
X174314936Y-134844592D01*
X174294340Y-135080000D01*
X174314936Y-135315407D01*
X174359709Y-135482502D01*
X174376097Y-135543663D01*
X174475965Y-135757830D01*
X174611505Y-135951401D01*
X174778599Y-136118495D01*
X174964160Y-136248426D01*
X175003024Y-136292743D01*
X175017035Y-136350000D01*
X175003024Y-136407257D01*
X174964158Y-136451575D01*
X174825333Y-136548782D01*
X174778595Y-136581508D01*
X174611505Y-136748598D01*
X174475965Y-136942170D01*
X174376097Y-137156336D01*
X174314936Y-137384592D01*
X174294340Y-137620000D01*
X152500000Y-137620000D01*
X152500000Y-134750000D01*
X157244356Y-134750000D01*
X157264891Y-134997816D01*
X157264891Y-134997819D01*
X157264892Y-134997821D01*
X157325937Y-135238881D01*
X157359505Y-135315408D01*
X157425825Y-135466604D01*
X157425827Y-135466607D01*
X157561836Y-135674785D01*
X157730256Y-135857738D01*
X157785197Y-135900500D01*
X157926485Y-136010470D01*
X157926487Y-136010471D01*
X157926491Y-136010474D01*
X158145190Y-136128828D01*
X158380386Y-136209571D01*
X158625665Y-136250500D01*
X158874335Y-136250500D01*
X159119614Y-136209571D01*
X159354810Y-136128828D01*
X159573509Y-136010474D01*
X159769744Y-135857738D01*
X159938164Y-135674785D01*
X160074173Y-135466607D01*
X160174063Y-135238881D01*
X160235108Y-134997821D01*
X160255643Y-134750000D01*
X163744356Y-134750000D01*
X163764891Y-134997816D01*
X163764891Y-134997819D01*
X163764892Y-134997821D01*
X163825937Y-135238881D01*
X163859505Y-135315408D01*
X163925825Y-135466604D01*
X163925827Y-135466607D01*
X164061836Y-135674785D01*
X164230256Y-135857738D01*
X164285197Y-135900500D01*
X164426485Y-136010470D01*
X164426487Y-136010471D01*
X164426491Y-136010474D01*
X164645190Y-136128828D01*
X164880386Y-136209571D01*
X165125665Y-136250500D01*
X165374335Y-136250500D01*
X165619614Y-136209571D01*
X165854810Y-136128828D01*
X166073509Y-136010474D01*
X166269744Y-135857738D01*
X166438164Y-135674785D01*
X166574173Y-135466607D01*
X166674063Y-135238881D01*
X166735108Y-134997821D01*
X166755643Y-134750000D01*
X166735108Y-134502179D01*
X166674063Y-134261119D01*
X166574173Y-134033393D01*
X166438164Y-133825215D01*
X166269744Y-133642262D01*
X166247612Y-133625036D01*
X166073514Y-133489529D01*
X166073510Y-133489526D01*
X166073509Y-133489526D01*
X165854810Y-133371172D01*
X165854806Y-133371170D01*
X165854805Y-133371170D01*
X165619615Y-133290429D01*
X165374335Y-133249500D01*
X165125665Y-133249500D01*
X164880384Y-133290429D01*
X164645194Y-133371170D01*
X164645190Y-133371171D01*
X164645190Y-133371172D01*
X164570853Y-133411401D01*
X164426485Y-133489529D01*
X164230259Y-133642259D01*
X164230256Y-133642261D01*
X164230256Y-133642262D01*
X164061836Y-133825215D01*
X164036085Y-133864630D01*
X163925825Y-134033395D01*
X163835780Y-134238678D01*
X163825937Y-134261119D01*
X163782126Y-134434125D01*
X163764891Y-134502183D01*
X163744356Y-134750000D01*
X160255643Y-134750000D01*
X160235108Y-134502179D01*
X160174063Y-134261119D01*
X160074173Y-134033393D01*
X159938164Y-133825215D01*
X159769744Y-133642262D01*
X159747612Y-133625036D01*
X159573514Y-133489529D01*
X159573510Y-133489526D01*
X159573509Y-133489526D01*
X159354810Y-133371172D01*
X159354806Y-133371170D01*
X159354805Y-133371170D01*
X159119615Y-133290429D01*
X158874335Y-133249500D01*
X158625665Y-133249500D01*
X158380384Y-133290429D01*
X158145194Y-133371170D01*
X158145190Y-133371171D01*
X158145190Y-133371172D01*
X158070853Y-133411401D01*
X157926485Y-133489529D01*
X157730259Y-133642259D01*
X157730256Y-133642261D01*
X157730256Y-133642262D01*
X157561836Y-133825215D01*
X157536085Y-133864630D01*
X157425825Y-134033395D01*
X157335780Y-134238678D01*
X157325937Y-134261119D01*
X157282126Y-134434125D01*
X157264891Y-134502183D01*
X157244356Y-134750000D01*
X152500000Y-134750000D01*
X152500000Y-132000000D01*
X149250000Y-132000000D01*
X104655460Y-132000000D01*
X104635674Y-131811744D01*
X104577179Y-131631716D01*
X104577179Y-131631715D01*
X104482533Y-131467783D01*
X104355870Y-131327110D01*
X104202730Y-131215848D01*
X104029802Y-131138855D01*
X103844648Y-131099500D01*
X103844646Y-131099500D01*
X103655354Y-131099500D01*
X103655352Y-131099500D01*
X103470197Y-131138855D01*
X103297269Y-131215848D01*
X103144129Y-131327110D01*
X103017466Y-131467783D01*
X102922820Y-131631715D01*
X102864326Y-131811742D01*
X102844540Y-132000000D01*
X101000500Y-132000000D01*
X101000500Y-130249999D01*
X133594540Y-130249999D01*
X133614326Y-130438257D01*
X133672820Y-130618284D01*
X133767466Y-130782216D01*
X133894129Y-130922889D01*
X134047269Y-131034151D01*
X134220197Y-131111144D01*
X134405352Y-131150500D01*
X134405354Y-131150500D01*
X134594646Y-131150500D01*
X134594648Y-131150500D01*
X134718084Y-131124262D01*
X134779803Y-131111144D01*
X134952730Y-131034151D01*
X135046740Y-130965849D01*
X135105870Y-130922889D01*
X135128396Y-130897872D01*
X135232533Y-130782216D01*
X135327179Y-130618284D01*
X135385674Y-130438256D01*
X135405460Y-130250000D01*
X135405460Y-130249999D01*
X137094540Y-130249999D01*
X137114326Y-130438257D01*
X137172820Y-130618284D01*
X137267466Y-130782216D01*
X137394129Y-130922889D01*
X137547269Y-131034151D01*
X137720197Y-131111144D01*
X137905352Y-131150500D01*
X137905354Y-131150500D01*
X138094646Y-131150500D01*
X138094648Y-131150500D01*
X138218084Y-131124262D01*
X138279803Y-131111144D01*
X138452730Y-131034151D01*
X138546740Y-130965849D01*
X138605870Y-130922889D01*
X138628396Y-130897872D01*
X138732533Y-130782216D01*
X138827179Y-130618284D01*
X138885674Y-130438256D01*
X138905460Y-130250000D01*
X138885674Y-130061744D01*
X138855332Y-129968363D01*
X138827179Y-129881715D01*
X138732533Y-129717783D01*
X138605870Y-129577110D01*
X138452730Y-129465848D01*
X138279802Y-129388855D01*
X138094648Y-129349500D01*
X138094646Y-129349500D01*
X137905354Y-129349500D01*
X137905352Y-129349500D01*
X137720197Y-129388855D01*
X137547269Y-129465848D01*
X137394129Y-129577110D01*
X137267466Y-129717783D01*
X137172820Y-129881715D01*
X137114326Y-130061742D01*
X137094540Y-130249999D01*
X135405460Y-130249999D01*
X135385674Y-130061744D01*
X135355332Y-129968363D01*
X135327179Y-129881715D01*
X135232533Y-129717783D01*
X135105870Y-129577110D01*
X134952730Y-129465848D01*
X134779802Y-129388855D01*
X134594648Y-129349500D01*
X134594646Y-129349500D01*
X134405354Y-129349500D01*
X134405352Y-129349500D01*
X134220197Y-129388855D01*
X134047269Y-129465848D01*
X133894129Y-129577110D01*
X133767466Y-129717783D01*
X133672820Y-129881715D01*
X133614326Y-130061742D01*
X133594540Y-130249999D01*
X101000500Y-130249999D01*
X101000500Y-129000000D01*
X126594540Y-129000000D01*
X126614326Y-129188257D01*
X126672820Y-129368284D01*
X126767466Y-129532216D01*
X126894129Y-129672889D01*
X127047269Y-129784151D01*
X127220197Y-129861144D01*
X127405352Y-129900500D01*
X127405354Y-129900500D01*
X127594646Y-129900500D01*
X127594648Y-129900500D01*
X127734497Y-129870774D01*
X127779803Y-129861144D01*
X127952730Y-129784151D01*
X128044078Y-129717783D01*
X128105870Y-129672889D01*
X128232533Y-129532216D01*
X128327179Y-129368284D01*
X128333282Y-129349500D01*
X128385674Y-129188256D01*
X128405460Y-129000000D01*
X128385674Y-128811744D01*
X128351382Y-128706204D01*
X128327179Y-128631715D01*
X128232533Y-128467783D01*
X128105870Y-128327110D01*
X127952730Y-128215848D01*
X127779802Y-128138855D01*
X127594648Y-128099500D01*
X127594646Y-128099500D01*
X127405354Y-128099500D01*
X127405352Y-128099500D01*
X127220197Y-128138855D01*
X127047269Y-128215848D01*
X126894129Y-128327110D01*
X126767466Y-128467783D01*
X126672820Y-128631715D01*
X126614326Y-128811742D01*
X126594540Y-129000000D01*
X101000500Y-129000000D01*
X101000500Y-127499999D01*
X124094540Y-127499999D01*
X124114326Y-127688257D01*
X124172820Y-127868284D01*
X124267466Y-128032216D01*
X124394129Y-128172889D01*
X124547269Y-128284151D01*
X124720197Y-128361144D01*
X124905352Y-128400500D01*
X124905354Y-128400500D01*
X125094646Y-128400500D01*
X125094648Y-128400500D01*
X125218083Y-128374262D01*
X125279803Y-128361144D01*
X125452730Y-128284151D01*
X125546740Y-128215849D01*
X125605870Y-128172889D01*
X125636515Y-128138855D01*
X125732533Y-128032216D01*
X125827179Y-127868284D01*
X125885674Y-127688256D01*
X125905460Y-127500000D01*
X125885674Y-127311744D01*
X125865612Y-127250000D01*
X136094540Y-127250000D01*
X136114326Y-127438257D01*
X136172820Y-127618284D01*
X136267466Y-127782216D01*
X136394129Y-127922889D01*
X136547269Y-128034151D01*
X136720197Y-128111144D01*
X136905352Y-128150500D01*
X136905354Y-128150500D01*
X137094646Y-128150500D01*
X137094648Y-128150500D01*
X137249599Y-128117564D01*
X137279803Y-128111144D01*
X137452730Y-128034151D01*
X137605871Y-127922888D01*
X137732533Y-127782216D01*
X137827179Y-127618284D01*
X137885674Y-127438256D01*
X137905460Y-127250000D01*
X137885674Y-127061744D01*
X137827179Y-126881716D01*
X137827179Y-126881715D01*
X137732533Y-126717783D01*
X137605870Y-126577110D01*
X137452730Y-126465848D01*
X137279802Y-126388855D01*
X137094648Y-126349500D01*
X137094646Y-126349500D01*
X136905354Y-126349500D01*
X136905352Y-126349500D01*
X136720197Y-126388855D01*
X136547269Y-126465848D01*
X136394129Y-126577110D01*
X136267466Y-126717783D01*
X136172820Y-126881715D01*
X136114326Y-127061742D01*
X136094540Y-127250000D01*
X125865612Y-127250000D01*
X125846433Y-127190972D01*
X125827179Y-127131715D01*
X125732533Y-126967783D01*
X125605870Y-126827110D01*
X125452730Y-126715848D01*
X125279802Y-126638855D01*
X125094648Y-126599500D01*
X125094646Y-126599500D01*
X124905354Y-126599500D01*
X124905352Y-126599500D01*
X124720197Y-126638855D01*
X124547269Y-126715848D01*
X124394129Y-126827110D01*
X124267466Y-126967783D01*
X124172820Y-127131715D01*
X124114326Y-127311742D01*
X124094540Y-127499999D01*
X101000500Y-127499999D01*
X101000500Y-126000000D01*
X157744680Y-126000000D01*
X157763948Y-126404494D01*
X157821579Y-126805325D01*
X157868807Y-127000000D01*
X157917051Y-127198867D01*
X158049496Y-127581542D01*
X158217720Y-127949900D01*
X158420197Y-128300601D01*
X158655089Y-128630459D01*
X158655093Y-128630464D01*
X158920280Y-128936507D01*
X159213358Y-129215956D01*
X159531672Y-129466281D01*
X159531679Y-129466285D01*
X159531681Y-129466287D01*
X159872331Y-129685210D01*
X159872337Y-129685213D01*
X159872340Y-129685215D01*
X160232276Y-129870775D01*
X160608221Y-130021281D01*
X160996770Y-130135369D01*
X161394405Y-130212007D01*
X161797524Y-130250500D01*
X162202471Y-130250500D01*
X162202476Y-130250500D01*
X162605595Y-130212007D01*
X163003230Y-130135369D01*
X163391779Y-130021281D01*
X163767724Y-129870775D01*
X164127660Y-129685215D01*
X164468328Y-129466281D01*
X164786642Y-129215956D01*
X165079720Y-128936507D01*
X165344907Y-128630464D01*
X165579803Y-128300600D01*
X165753354Y-128000000D01*
X212094540Y-128000000D01*
X212114326Y-128188257D01*
X212172820Y-128368284D01*
X212267466Y-128532216D01*
X212394129Y-128672889D01*
X212547269Y-128784151D01*
X212720197Y-128861144D01*
X212905352Y-128900500D01*
X212905354Y-128900500D01*
X213094646Y-128900500D01*
X213094648Y-128900500D01*
X213218084Y-128874262D01*
X213279803Y-128861144D01*
X213452730Y-128784151D01*
X213452730Y-128784150D01*
X213605870Y-128672889D01*
X213642943Y-128631716D01*
X213732533Y-128532216D01*
X213827179Y-128368284D01*
X213882069Y-128199348D01*
X213915116Y-128147276D01*
X213969162Y-128117564D01*
X214030838Y-128117564D01*
X214084884Y-128147276D01*
X214117931Y-128199350D01*
X214172820Y-128368284D01*
X214267466Y-128532216D01*
X214394129Y-128672889D01*
X214547269Y-128784151D01*
X214720197Y-128861144D01*
X214905352Y-128900500D01*
X214905354Y-128900500D01*
X215094646Y-128900500D01*
X215094648Y-128900500D01*
X215218084Y-128874262D01*
X215279803Y-128861144D01*
X215452730Y-128784151D01*
X215452730Y-128784150D01*
X215605870Y-128672889D01*
X215642943Y-128631716D01*
X215732533Y-128532216D01*
X215827179Y-128368284D01*
X215882069Y-128199348D01*
X215915116Y-128147276D01*
X215969162Y-128117564D01*
X216030838Y-128117564D01*
X216084884Y-128147276D01*
X216117931Y-128199350D01*
X216172820Y-128368284D01*
X216267466Y-128532216D01*
X216394129Y-128672889D01*
X216547269Y-128784151D01*
X216720197Y-128861144D01*
X216905352Y-128900500D01*
X216905354Y-128900500D01*
X217094646Y-128900500D01*
X217094648Y-128900500D01*
X217218084Y-128874262D01*
X217279803Y-128861144D01*
X217452730Y-128784151D01*
X217452730Y-128784150D01*
X217605870Y-128672889D01*
X217642943Y-128631716D01*
X217732533Y-128532216D01*
X217827179Y-128368284D01*
X217885674Y-128188256D01*
X217905460Y-128000000D01*
X240094540Y-128000000D01*
X240114326Y-128188257D01*
X240172820Y-128368284D01*
X240267466Y-128532216D01*
X240394129Y-128672889D01*
X240547269Y-128784151D01*
X240720197Y-128861144D01*
X240905352Y-128900500D01*
X240905354Y-128900500D01*
X241094646Y-128900500D01*
X241094648Y-128900500D01*
X241218084Y-128874262D01*
X241279803Y-128861144D01*
X241452730Y-128784151D01*
X241452730Y-128784150D01*
X241605870Y-128672889D01*
X241642943Y-128631716D01*
X241732533Y-128532216D01*
X241751133Y-128499999D01*
X247594540Y-128499999D01*
X247614326Y-128688257D01*
X247672820Y-128868284D01*
X247767466Y-129032216D01*
X247894129Y-129172889D01*
X248047269Y-129284151D01*
X248220197Y-129361144D01*
X248405352Y-129400500D01*
X248405354Y-129400500D01*
X248594646Y-129400500D01*
X248594648Y-129400500D01*
X248718083Y-129374262D01*
X248779803Y-129361144D01*
X248952730Y-129284151D01*
X249046598Y-129215952D01*
X249105870Y-129172889D01*
X249232533Y-129032216D01*
X249327179Y-128868284D01*
X249351818Y-128792454D01*
X249385674Y-128688256D01*
X249405460Y-128500000D01*
X249385674Y-128311744D01*
X249349155Y-128199350D01*
X249327179Y-128131715D01*
X249232533Y-127967783D01*
X249105870Y-127827110D01*
X248952730Y-127715848D01*
X248779802Y-127638855D01*
X248594648Y-127599500D01*
X248594646Y-127599500D01*
X248405354Y-127599500D01*
X248405352Y-127599500D01*
X248220197Y-127638855D01*
X248047269Y-127715848D01*
X247894129Y-127827110D01*
X247767466Y-127967783D01*
X247672820Y-128131715D01*
X247614326Y-128311742D01*
X247594540Y-128499999D01*
X241751133Y-128499999D01*
X241827179Y-128368284D01*
X241885674Y-128188256D01*
X241905460Y-128000000D01*
X241885674Y-127811744D01*
X241854515Y-127715848D01*
X241827179Y-127631715D01*
X241732533Y-127467783D01*
X241605870Y-127327110D01*
X241452730Y-127215848D01*
X241279802Y-127138855D01*
X241094648Y-127099500D01*
X241094646Y-127099500D01*
X240905354Y-127099500D01*
X240905352Y-127099500D01*
X240720197Y-127138855D01*
X240547269Y-127215848D01*
X240394129Y-127327110D01*
X240267466Y-127467783D01*
X240172820Y-127631715D01*
X240114326Y-127811742D01*
X240094540Y-128000000D01*
X217905460Y-128000000D01*
X217885674Y-127811744D01*
X217854515Y-127715848D01*
X217827179Y-127631715D01*
X217732533Y-127467783D01*
X217605870Y-127327110D01*
X217452730Y-127215848D01*
X217279802Y-127138855D01*
X217094648Y-127099500D01*
X217094646Y-127099500D01*
X216905354Y-127099500D01*
X216905352Y-127099500D01*
X216720197Y-127138855D01*
X216547269Y-127215848D01*
X216394129Y-127327110D01*
X216267466Y-127467783D01*
X216172820Y-127631715D01*
X216117931Y-127800649D01*
X216084884Y-127852723D01*
X216030838Y-127882435D01*
X215969162Y-127882435D01*
X215915116Y-127852723D01*
X215882069Y-127800649D01*
X215827179Y-127631715D01*
X215732533Y-127467783D01*
X215605870Y-127327110D01*
X215452730Y-127215848D01*
X215279802Y-127138855D01*
X215094648Y-127099500D01*
X215094646Y-127099500D01*
X214905354Y-127099500D01*
X214905352Y-127099500D01*
X214720197Y-127138855D01*
X214547269Y-127215848D01*
X214394129Y-127327110D01*
X214267466Y-127467783D01*
X214172820Y-127631715D01*
X214117931Y-127800649D01*
X214084884Y-127852723D01*
X214030838Y-127882435D01*
X213969162Y-127882435D01*
X213915116Y-127852723D01*
X213882069Y-127800649D01*
X213827179Y-127631715D01*
X213732533Y-127467783D01*
X213605870Y-127327110D01*
X213452730Y-127215848D01*
X213279802Y-127138855D01*
X213094648Y-127099500D01*
X213094646Y-127099500D01*
X212905354Y-127099500D01*
X212905352Y-127099500D01*
X212720197Y-127138855D01*
X212547269Y-127215848D01*
X212394129Y-127327110D01*
X212267466Y-127467783D01*
X212172820Y-127631715D01*
X212114326Y-127811742D01*
X212094540Y-128000000D01*
X165753354Y-128000000D01*
X165782279Y-127949900D01*
X165950503Y-127581543D01*
X166082950Y-127198862D01*
X166178421Y-126805325D01*
X166222320Y-126499999D01*
X234344540Y-126499999D01*
X234364326Y-126688257D01*
X234422820Y-126868284D01*
X234517466Y-127032216D01*
X234644129Y-127172889D01*
X234797269Y-127284151D01*
X234970197Y-127361144D01*
X235155352Y-127400500D01*
X235155354Y-127400500D01*
X235344646Y-127400500D01*
X235344648Y-127400500D01*
X235468084Y-127374262D01*
X235529803Y-127361144D01*
X235702730Y-127284151D01*
X235802116Y-127211943D01*
X235849219Y-127190972D01*
X235900781Y-127190972D01*
X235947883Y-127211943D01*
X236047270Y-127284151D01*
X236047271Y-127284151D01*
X236047272Y-127284152D01*
X236220197Y-127361144D01*
X236405352Y-127400500D01*
X236405354Y-127400500D01*
X236594646Y-127400500D01*
X236594648Y-127400500D01*
X236718084Y-127374262D01*
X236779803Y-127361144D01*
X236952730Y-127284151D01*
X236970595Y-127271171D01*
X237024079Y-127249016D01*
X237081795Y-127253557D01*
X237131160Y-127283806D01*
X237161410Y-127333169D01*
X237172819Y-127368282D01*
X237267466Y-127532216D01*
X237394129Y-127672889D01*
X237547269Y-127784151D01*
X237720197Y-127861144D01*
X237905352Y-127900500D01*
X237905354Y-127900500D01*
X238094646Y-127900500D01*
X238094648Y-127900500D01*
X238218084Y-127874262D01*
X238279803Y-127861144D01*
X238452730Y-127784151D01*
X238546740Y-127715849D01*
X238605870Y-127672889D01*
X238636515Y-127638855D01*
X238732533Y-127532216D01*
X238827179Y-127368284D01*
X238885674Y-127188256D01*
X238905460Y-127000000D01*
X238885674Y-126811744D01*
X238854515Y-126715848D01*
X238827179Y-126631715D01*
X238732533Y-126467783D01*
X238605870Y-126327110D01*
X238452730Y-126215848D01*
X238279802Y-126138855D01*
X238094648Y-126099500D01*
X238094646Y-126099500D01*
X237905354Y-126099500D01*
X237905352Y-126099500D01*
X237720197Y-126138855D01*
X237547272Y-126215846D01*
X237529404Y-126228829D01*
X237475916Y-126250983D01*
X237418200Y-126246441D01*
X237368838Y-126216191D01*
X237338588Y-126166828D01*
X237327179Y-126131715D01*
X237232533Y-125967783D01*
X237149892Y-125876001D01*
X241494500Y-125876001D01*
X241511724Y-126006830D01*
X241528339Y-126068838D01*
X241578836Y-126190749D01*
X241659170Y-126295442D01*
X241704557Y-126340829D01*
X241809250Y-126421163D01*
X241921803Y-126467784D01*
X241931166Y-126471662D01*
X241993166Y-126488275D01*
X242091291Y-126501193D01*
X242123999Y-126505500D01*
X242124000Y-126505500D01*
X248376000Y-126505500D01*
X248376001Y-126505500D01*
X248402166Y-126502055D01*
X248506834Y-126488275D01*
X248568834Y-126471662D01*
X248690750Y-126421163D01*
X248795442Y-126340829D01*
X248840829Y-126295442D01*
X248921163Y-126190750D01*
X248971662Y-126068834D01*
X248988275Y-126006834D01*
X249005500Y-125876000D01*
X249005500Y-114124000D01*
X249004747Y-114118284D01*
X248988275Y-113993169D01*
X248988275Y-113993166D01*
X248971662Y-113931166D01*
X248921163Y-113809250D01*
X248901822Y-113784044D01*
X248840829Y-113704557D01*
X248795442Y-113659170D01*
X248690749Y-113578836D01*
X248568838Y-113528339D01*
X248506830Y-113511724D01*
X248376001Y-113494500D01*
X248376000Y-113494500D01*
X242124000Y-113494500D01*
X242123999Y-113494500D01*
X241993169Y-113511724D01*
X241931161Y-113528339D01*
X241809250Y-113578836D01*
X241704557Y-113659170D01*
X241659170Y-113704557D01*
X241578836Y-113809250D01*
X241528339Y-113931161D01*
X241511724Y-113993169D01*
X241494500Y-114123999D01*
X241494500Y-125876001D01*
X237149892Y-125876001D01*
X237105870Y-125827110D01*
X236952730Y-125715848D01*
X236779802Y-125638855D01*
X236594648Y-125599500D01*
X236594646Y-125599500D01*
X236405354Y-125599500D01*
X236405352Y-125599500D01*
X236220197Y-125638855D01*
X236047269Y-125715848D01*
X235947885Y-125788055D01*
X235900781Y-125809027D01*
X235849219Y-125809027D01*
X235802115Y-125788055D01*
X235702730Y-125715848D01*
X235529802Y-125638855D01*
X235344648Y-125599500D01*
X235344646Y-125599500D01*
X235155354Y-125599500D01*
X235155352Y-125599500D01*
X234970197Y-125638855D01*
X234797269Y-125715848D01*
X234644129Y-125827110D01*
X234517466Y-125967783D01*
X234422820Y-126131715D01*
X234364326Y-126311742D01*
X234344540Y-126499999D01*
X166222320Y-126499999D01*
X166236052Y-126404494D01*
X166255320Y-126000000D01*
X166236052Y-125595506D01*
X166178421Y-125194675D01*
X166082950Y-124801138D01*
X165950503Y-124418457D01*
X165921133Y-124354145D01*
X165782279Y-124050099D01*
X165753354Y-124000000D01*
X232094540Y-124000000D01*
X232114326Y-124188257D01*
X232172820Y-124368284D01*
X232267466Y-124532216D01*
X232394129Y-124672889D01*
X232547269Y-124784151D01*
X232720197Y-124861144D01*
X232905352Y-124900500D01*
X232905354Y-124900500D01*
X233094646Y-124900500D01*
X233094648Y-124900500D01*
X233218084Y-124874262D01*
X233279803Y-124861144D01*
X233452730Y-124784151D01*
X233605871Y-124672888D01*
X233732533Y-124532216D01*
X233827179Y-124368284D01*
X233885674Y-124188256D01*
X233905460Y-124000000D01*
X233885674Y-123811744D01*
X233827179Y-123631716D01*
X233827179Y-123631715D01*
X233732533Y-123467783D01*
X233605870Y-123327110D01*
X233452730Y-123215848D01*
X233279802Y-123138855D01*
X233094648Y-123099500D01*
X233094646Y-123099500D01*
X232905354Y-123099500D01*
X232905352Y-123099500D01*
X232720197Y-123138855D01*
X232547269Y-123215848D01*
X232394129Y-123327110D01*
X232267466Y-123467783D01*
X232172820Y-123631715D01*
X232114326Y-123811742D01*
X232094540Y-124000000D01*
X165753354Y-124000000D01*
X165579802Y-123699398D01*
X165344910Y-123369540D01*
X165308146Y-123327112D01*
X165079720Y-123063493D01*
X164786642Y-122784044D01*
X164468328Y-122533719D01*
X164468321Y-122533715D01*
X164468318Y-122533712D01*
X164127668Y-122314789D01*
X164040095Y-122269642D01*
X163767724Y-122129225D01*
X163391779Y-121978719D01*
X163391778Y-121978718D01*
X163391774Y-121978717D01*
X163003228Y-121864630D01*
X162605601Y-121787994D01*
X162605599Y-121787993D01*
X162605595Y-121787993D01*
X162207702Y-121749999D01*
X177094540Y-121749999D01*
X177114326Y-121938257D01*
X177172820Y-122118284D01*
X177267466Y-122282216D01*
X177394129Y-122422889D01*
X177547269Y-122534151D01*
X177720197Y-122611144D01*
X177905352Y-122650500D01*
X177905354Y-122650500D01*
X178094646Y-122650500D01*
X178094648Y-122650500D01*
X178218083Y-122624262D01*
X178279803Y-122611144D01*
X178452730Y-122534151D01*
X178533418Y-122475528D01*
X178605870Y-122422889D01*
X178612150Y-122415915D01*
X178732533Y-122282216D01*
X178827179Y-122118284D01*
X178885674Y-121938256D01*
X178892217Y-121876001D01*
X231994500Y-121876001D01*
X232011381Y-122004227D01*
X232011725Y-122006834D01*
X232016030Y-122022900D01*
X232028339Y-122068838D01*
X232078836Y-122190749D01*
X232159170Y-122295442D01*
X232204557Y-122340829D01*
X232302411Y-122415915D01*
X232309250Y-122421163D01*
X232431166Y-122471662D01*
X232493166Y-122488275D01*
X232591291Y-122501193D01*
X232623999Y-122505500D01*
X232624000Y-122505500D01*
X233923360Y-122505500D01*
X233923364Y-122505500D01*
X234061497Y-122486261D01*
X234126688Y-122467742D01*
X234254313Y-122411484D01*
X234361706Y-122322492D01*
X234407424Y-122272465D01*
X234486406Y-122157520D01*
X234778141Y-121574045D01*
X234823859Y-121524019D01*
X234889050Y-121505500D01*
X236163102Y-121505500D01*
X236221612Y-121520172D01*
X236266276Y-121560717D01*
X237042588Y-122725185D01*
X237123420Y-122819066D01*
X237168086Y-122859613D01*
X237269327Y-122931014D01*
X237269330Y-122931015D01*
X237384900Y-122975647D01*
X237443410Y-122990319D01*
X237504886Y-122997909D01*
X237566359Y-123005500D01*
X237566363Y-123005500D01*
X239876000Y-123005500D01*
X239876001Y-123005500D01*
X239902166Y-123002054D01*
X240006834Y-122988275D01*
X240068834Y-122971662D01*
X240190750Y-122921163D01*
X240295442Y-122840829D01*
X240340829Y-122795442D01*
X240421163Y-122690750D01*
X240471662Y-122568834D01*
X240488275Y-122506834D01*
X240505500Y-122376000D01*
X240505500Y-112624000D01*
X240503807Y-112611144D01*
X240488275Y-112493169D01*
X240488275Y-112493166D01*
X240471662Y-112431166D01*
X240421163Y-112309250D01*
X240400419Y-112282216D01*
X240340829Y-112204557D01*
X240295442Y-112159170D01*
X240190749Y-112078836D01*
X240068838Y-112028339D01*
X240026901Y-112017102D01*
X240006834Y-112011725D01*
X240006833Y-112011724D01*
X240006830Y-112011724D01*
X239876001Y-111994500D01*
X239876000Y-111994500D01*
X232624000Y-111994500D01*
X232623999Y-111994500D01*
X232493169Y-112011724D01*
X232431161Y-112028339D01*
X232309250Y-112078836D01*
X232204557Y-112159170D01*
X232159170Y-112204557D01*
X232078836Y-112309250D01*
X232028339Y-112431161D01*
X232011724Y-112493169D01*
X231994500Y-112623999D01*
X231994500Y-121876001D01*
X178892217Y-121876001D01*
X178905460Y-121750000D01*
X178885674Y-121561744D01*
X178854061Y-121464449D01*
X178827179Y-121381715D01*
X178732533Y-121217783D01*
X178605870Y-121077110D01*
X178452730Y-120965848D01*
X178279802Y-120888855D01*
X178094648Y-120849500D01*
X178094646Y-120849500D01*
X177905354Y-120849500D01*
X177905352Y-120849500D01*
X177720197Y-120888855D01*
X177547269Y-120965848D01*
X177394129Y-121077110D01*
X177267466Y-121217783D01*
X177172820Y-121381715D01*
X177114326Y-121561742D01*
X177094540Y-121749999D01*
X162207702Y-121749999D01*
X162202476Y-121749500D01*
X161797524Y-121749500D01*
X161394405Y-121787993D01*
X161394401Y-121787993D01*
X161394398Y-121787994D01*
X160996771Y-121864630D01*
X160608225Y-121978717D01*
X160232276Y-122129225D01*
X159872331Y-122314789D01*
X159531681Y-122533712D01*
X159213354Y-122784047D01*
X158920280Y-123063492D01*
X158655089Y-123369540D01*
X158420197Y-123699398D01*
X158217720Y-124050099D01*
X158049496Y-124418457D01*
X157917051Y-124801132D01*
X157892945Y-124900500D01*
X157821579Y-125194675D01*
X157763948Y-125595506D01*
X157744680Y-126000000D01*
X101000500Y-126000000D01*
X101000500Y-123260000D01*
X103587179Y-123260000D01*
X103606820Y-123484493D01*
X103665148Y-123702173D01*
X103760382Y-123906406D01*
X103774437Y-123926478D01*
X103889642Y-124091009D01*
X104048991Y-124250358D01*
X104217408Y-124368284D01*
X104233593Y-124379617D01*
X104363934Y-124440395D01*
X104437830Y-124474853D01*
X104655504Y-124533179D01*
X104880000Y-124552820D01*
X105104496Y-124533179D01*
X105322170Y-124474853D01*
X105526410Y-124379615D01*
X105711009Y-124250358D01*
X105870358Y-124091009D01*
X105957326Y-123966805D01*
X106004540Y-123926479D01*
X106065386Y-123914099D01*
X106124605Y-123932768D01*
X106167349Y-123977806D01*
X106182900Y-124037920D01*
X106182900Y-124044465D01*
X106187904Y-124091012D01*
X106189309Y-124104083D01*
X106239604Y-124238931D01*
X106325854Y-124354146D01*
X106441069Y-124440396D01*
X106575917Y-124490691D01*
X106635527Y-124497100D01*
X108204472Y-124497099D01*
X108264083Y-124490691D01*
X108398931Y-124440396D01*
X108514146Y-124354146D01*
X108600396Y-124238931D01*
X108650691Y-124104083D01*
X108657100Y-124044473D01*
X108657099Y-124037935D01*
X108672642Y-123977820D01*
X108715384Y-123932775D01*
X108774605Y-123914100D01*
X108835455Y-123926478D01*
X108882673Y-123966806D01*
X108940997Y-124050100D01*
X108969642Y-124091009D01*
X109128991Y-124250358D01*
X109297408Y-124368284D01*
X109313593Y-124379617D01*
X109443934Y-124440395D01*
X109517830Y-124474853D01*
X109735504Y-124533179D01*
X109960000Y-124552820D01*
X110184496Y-124533179D01*
X110402170Y-124474853D01*
X110606410Y-124379615D01*
X110791009Y-124250358D01*
X110950358Y-124091009D01*
X111079615Y-123906410D01*
X111174853Y-123702170D01*
X111233179Y-123484496D01*
X111252820Y-123260000D01*
X113747179Y-123260000D01*
X113766820Y-123484493D01*
X113825148Y-123702173D01*
X113920382Y-123906406D01*
X113934437Y-123926478D01*
X114049642Y-124091009D01*
X114208991Y-124250358D01*
X114377408Y-124368284D01*
X114393593Y-124379617D01*
X114523934Y-124440395D01*
X114597830Y-124474853D01*
X114815504Y-124533179D01*
X115040000Y-124552820D01*
X115264496Y-124533179D01*
X115482170Y-124474853D01*
X115686410Y-124379615D01*
X115871009Y-124250358D01*
X116030358Y-124091009D01*
X116159615Y-123906410D01*
X116197617Y-123824912D01*
X116243374Y-123772737D01*
X116310000Y-123753317D01*
X116376626Y-123772737D01*
X116422382Y-123824912D01*
X116460385Y-123906410D01*
X116589642Y-124091009D01*
X116748991Y-124250358D01*
X116917408Y-124368284D01*
X116933593Y-124379617D01*
X117063934Y-124440395D01*
X117137830Y-124474853D01*
X117355504Y-124533179D01*
X117580000Y-124552820D01*
X117804496Y-124533179D01*
X118022170Y-124474853D01*
X118226410Y-124379615D01*
X118411009Y-124250358D01*
X118570358Y-124091009D01*
X118699615Y-123906410D01*
X118737617Y-123824912D01*
X118783374Y-123772737D01*
X118850000Y-123753317D01*
X118916626Y-123772737D01*
X118962382Y-123824912D01*
X119000385Y-123906410D01*
X119129642Y-124091009D01*
X119288991Y-124250358D01*
X119457408Y-124368284D01*
X119473593Y-124379617D01*
X119603934Y-124440395D01*
X119677830Y-124474853D01*
X119895504Y-124533179D01*
X120120000Y-124552820D01*
X120344496Y-124533179D01*
X120562170Y-124474853D01*
X120766410Y-124379615D01*
X120951009Y-124250358D01*
X121110358Y-124091009D01*
X121239615Y-123906410D01*
X121277617Y-123824912D01*
X121323374Y-123772737D01*
X121390000Y-123753317D01*
X121456626Y-123772737D01*
X121502382Y-123824912D01*
X121540385Y-123906410D01*
X121669642Y-124091009D01*
X121828991Y-124250358D01*
X121997408Y-124368284D01*
X122013593Y-124379617D01*
X122143934Y-124440395D01*
X122217830Y-124474853D01*
X122435504Y-124533179D01*
X122660000Y-124552820D01*
X122884496Y-124533179D01*
X123102170Y-124474853D01*
X123306410Y-124379615D01*
X123491009Y-124250358D01*
X123650358Y-124091009D01*
X123779615Y-123906410D01*
X123817617Y-123824912D01*
X123863374Y-123772737D01*
X123930000Y-123753317D01*
X123996626Y-123772737D01*
X124042382Y-123824912D01*
X124080385Y-123906410D01*
X124209642Y-124091009D01*
X124368991Y-124250358D01*
X124537408Y-124368284D01*
X124553593Y-124379617D01*
X124683934Y-124440395D01*
X124757830Y-124474853D01*
X124975504Y-124533179D01*
X125200000Y-124552820D01*
X125424496Y-124533179D01*
X125642170Y-124474853D01*
X125846410Y-124379615D01*
X126031009Y-124250358D01*
X126190358Y-124091009D01*
X126319615Y-123906410D01*
X126357617Y-123824912D01*
X126403374Y-123772737D01*
X126470000Y-123753317D01*
X126536626Y-123772737D01*
X126582382Y-123824912D01*
X126620385Y-123906410D01*
X126749642Y-124091009D01*
X126908991Y-124250358D01*
X127077408Y-124368284D01*
X127093593Y-124379617D01*
X127223934Y-124440395D01*
X127297830Y-124474853D01*
X127515504Y-124533179D01*
X127740000Y-124552820D01*
X127964496Y-124533179D01*
X128182170Y-124474853D01*
X128386410Y-124379615D01*
X128571009Y-124250358D01*
X128730358Y-124091009D01*
X128859615Y-123906410D01*
X128897617Y-123824912D01*
X128943374Y-123772737D01*
X129010000Y-123753317D01*
X129076626Y-123772737D01*
X129122382Y-123824912D01*
X129160385Y-123906410D01*
X129289642Y-124091009D01*
X129448991Y-124250358D01*
X129617408Y-124368284D01*
X129633593Y-124379617D01*
X129763934Y-124440395D01*
X129837830Y-124474853D01*
X130055504Y-124533179D01*
X130280000Y-124552820D01*
X130504496Y-124533179D01*
X130722170Y-124474853D01*
X130926410Y-124379615D01*
X131111009Y-124250358D01*
X131270358Y-124091009D01*
X131399615Y-123906410D01*
X131437617Y-123824912D01*
X131483374Y-123772737D01*
X131550000Y-123753317D01*
X131616626Y-123772737D01*
X131662382Y-123824912D01*
X131700385Y-123906410D01*
X131829642Y-124091009D01*
X131988991Y-124250358D01*
X132157408Y-124368284D01*
X132173593Y-124379617D01*
X132303934Y-124440395D01*
X132377830Y-124474853D01*
X132595504Y-124533179D01*
X132820000Y-124552820D01*
X133044496Y-124533179D01*
X133262170Y-124474853D01*
X133466410Y-124379615D01*
X133651009Y-124250358D01*
X133810358Y-124091009D01*
X133939615Y-123906410D01*
X133977617Y-123824912D01*
X134023374Y-123772737D01*
X134090000Y-123753317D01*
X134156626Y-123772737D01*
X134202382Y-123824912D01*
X134240385Y-123906410D01*
X134369642Y-124091009D01*
X134528991Y-124250358D01*
X134697408Y-124368284D01*
X134713593Y-124379617D01*
X134843934Y-124440395D01*
X134917830Y-124474853D01*
X135135504Y-124533179D01*
X135360000Y-124552820D01*
X135584496Y-124533179D01*
X135802170Y-124474853D01*
X136006410Y-124379615D01*
X136191009Y-124250358D01*
X136350358Y-124091009D01*
X136479615Y-123906410D01*
X136517617Y-123824912D01*
X136563374Y-123772737D01*
X136630000Y-123753317D01*
X136696626Y-123772737D01*
X136742382Y-123824912D01*
X136780385Y-123906410D01*
X136909642Y-124091009D01*
X137068991Y-124250358D01*
X137237408Y-124368284D01*
X137253593Y-124379617D01*
X137383934Y-124440395D01*
X137457830Y-124474853D01*
X137675504Y-124533179D01*
X137900000Y-124552820D01*
X138124496Y-124533179D01*
X138342170Y-124474853D01*
X138546410Y-124379615D01*
X138731009Y-124250358D01*
X138890358Y-124091009D01*
X139019615Y-123906410D01*
X139057617Y-123824912D01*
X139103374Y-123772737D01*
X139170000Y-123753317D01*
X139236626Y-123772737D01*
X139282382Y-123824912D01*
X139320385Y-123906410D01*
X139449642Y-124091009D01*
X139608991Y-124250358D01*
X139777408Y-124368284D01*
X139793593Y-124379617D01*
X139923934Y-124440395D01*
X139997830Y-124474853D01*
X140215504Y-124533179D01*
X140440000Y-124552820D01*
X140664496Y-124533179D01*
X140882170Y-124474853D01*
X141086410Y-124379615D01*
X141271009Y-124250358D01*
X141430358Y-124091009D01*
X141559615Y-123906410D01*
X141597617Y-123824912D01*
X141643374Y-123772737D01*
X141710000Y-123753317D01*
X141776626Y-123772737D01*
X141822382Y-123824912D01*
X141860385Y-123906410D01*
X141989642Y-124091009D01*
X142148991Y-124250358D01*
X142317408Y-124368284D01*
X142333593Y-124379617D01*
X142463934Y-124440395D01*
X142537830Y-124474853D01*
X142755504Y-124533179D01*
X142980000Y-124552820D01*
X143204496Y-124533179D01*
X143422170Y-124474853D01*
X143626410Y-124379615D01*
X143811009Y-124250358D01*
X143970358Y-124091009D01*
X144099615Y-123906410D01*
X144137617Y-123824912D01*
X144183374Y-123772737D01*
X144250000Y-123753317D01*
X144316626Y-123772737D01*
X144362382Y-123824912D01*
X144400385Y-123906410D01*
X144529642Y-124091009D01*
X144688991Y-124250358D01*
X144857408Y-124368284D01*
X144873593Y-124379617D01*
X145003934Y-124440395D01*
X145077830Y-124474853D01*
X145295504Y-124533179D01*
X145520000Y-124552820D01*
X145744496Y-124533179D01*
X145962170Y-124474853D01*
X146166410Y-124379615D01*
X146351009Y-124250358D01*
X146510358Y-124091009D01*
X146639615Y-123906410D01*
X146734853Y-123702170D01*
X146793179Y-123484496D01*
X146812820Y-123260000D01*
X146793179Y-123035504D01*
X146734853Y-122817830D01*
X146717407Y-122780418D01*
X146639617Y-122613593D01*
X146634230Y-122605899D01*
X146510358Y-122428991D01*
X146351009Y-122269642D01*
X146196834Y-122161688D01*
X146166406Y-122140382D01*
X145962173Y-122045148D01*
X145962170Y-122045147D01*
X145812729Y-122005104D01*
X145744493Y-121986820D01*
X145520000Y-121967179D01*
X145295506Y-121986820D01*
X145077826Y-122045148D01*
X144873593Y-122140382D01*
X144688987Y-122269645D01*
X144529645Y-122428987D01*
X144400381Y-122613593D01*
X144362382Y-122695086D01*
X144316625Y-122747262D01*
X144250000Y-122766682D01*
X144183375Y-122747262D01*
X144137618Y-122695086D01*
X144099618Y-122613593D01*
X144023930Y-122505500D01*
X143970358Y-122428991D01*
X143811009Y-122269642D01*
X143656834Y-122161688D01*
X143626406Y-122140382D01*
X143422173Y-122045148D01*
X143422170Y-122045147D01*
X143272729Y-122005104D01*
X143204493Y-121986820D01*
X142980000Y-121967179D01*
X142755506Y-121986820D01*
X142537826Y-122045148D01*
X142333593Y-122140382D01*
X142148987Y-122269645D01*
X141989645Y-122428987D01*
X141860381Y-122613593D01*
X141822382Y-122695086D01*
X141776625Y-122747262D01*
X141710000Y-122766682D01*
X141643375Y-122747262D01*
X141597618Y-122695086D01*
X141559618Y-122613593D01*
X141483930Y-122505500D01*
X141430358Y-122428991D01*
X141271009Y-122269642D01*
X141116834Y-122161688D01*
X141086406Y-122140382D01*
X140882173Y-122045148D01*
X140882170Y-122045147D01*
X140732729Y-122005104D01*
X140664493Y-121986820D01*
X140440000Y-121967179D01*
X140215506Y-121986820D01*
X139997826Y-122045148D01*
X139793593Y-122140382D01*
X139608987Y-122269645D01*
X139449645Y-122428987D01*
X139320381Y-122613593D01*
X139282382Y-122695086D01*
X139236625Y-122747262D01*
X139170000Y-122766682D01*
X139103375Y-122747262D01*
X139057618Y-122695086D01*
X139019618Y-122613593D01*
X138943930Y-122505500D01*
X138890358Y-122428991D01*
X138731009Y-122269642D01*
X138576834Y-122161688D01*
X138546406Y-122140382D01*
X138342173Y-122045148D01*
X138342170Y-122045147D01*
X138192729Y-122005104D01*
X138124493Y-121986820D01*
X137900000Y-121967179D01*
X137675506Y-121986820D01*
X137457826Y-122045148D01*
X137253593Y-122140382D01*
X137068987Y-122269645D01*
X136909645Y-122428987D01*
X136780381Y-122613593D01*
X136742382Y-122695086D01*
X136696625Y-122747262D01*
X136630000Y-122766682D01*
X136563375Y-122747262D01*
X136517618Y-122695086D01*
X136479618Y-122613593D01*
X136403930Y-122505500D01*
X136350358Y-122428991D01*
X136191009Y-122269642D01*
X136036834Y-122161688D01*
X136006406Y-122140382D01*
X135802173Y-122045148D01*
X135802170Y-122045147D01*
X135652729Y-122005104D01*
X135584493Y-121986820D01*
X135360000Y-121967179D01*
X135135506Y-121986820D01*
X134917826Y-122045148D01*
X134713593Y-122140382D01*
X134528987Y-122269645D01*
X134369645Y-122428987D01*
X134240381Y-122613593D01*
X134202382Y-122695086D01*
X134156625Y-122747262D01*
X134090000Y-122766682D01*
X134023375Y-122747262D01*
X133977618Y-122695086D01*
X133939618Y-122613593D01*
X133863930Y-122505500D01*
X133810358Y-122428991D01*
X133651009Y-122269642D01*
X133496834Y-122161688D01*
X133466406Y-122140382D01*
X133262173Y-122045148D01*
X133262170Y-122045147D01*
X133112729Y-122005104D01*
X133044493Y-121986820D01*
X132820000Y-121967179D01*
X132595504Y-121986820D01*
X132549556Y-121999132D01*
X132496463Y-122001566D01*
X132447228Y-121981548D01*
X132410897Y-121942757D01*
X132394142Y-121892318D01*
X132393028Y-121881716D01*
X132385674Y-121811744D01*
X132340557Y-121672888D01*
X132327179Y-121631715D01*
X132295523Y-121576885D01*
X132279080Y-121521374D01*
X132289631Y-121464449D01*
X132324875Y-121418518D01*
X132377124Y-121393596D01*
X132529803Y-121361144D01*
X132702730Y-121284151D01*
X132749735Y-121250000D01*
X132855870Y-121172889D01*
X132886515Y-121138855D01*
X132982533Y-121032216D01*
X133077179Y-120868284D01*
X133135674Y-120688256D01*
X133155460Y-120500000D01*
X133155460Y-120499999D01*
X137844540Y-120499999D01*
X137864326Y-120688257D01*
X137922820Y-120868284D01*
X138017466Y-121032216D01*
X138144129Y-121172889D01*
X138297269Y-121284151D01*
X138470197Y-121361144D01*
X138655352Y-121400500D01*
X138655354Y-121400500D01*
X138844646Y-121400500D01*
X138844648Y-121400500D01*
X138968083Y-121374262D01*
X139029803Y-121361144D01*
X139202730Y-121284151D01*
X139249735Y-121250000D01*
X139355870Y-121172889D01*
X139386515Y-121138855D01*
X139482533Y-121032216D01*
X139577179Y-120868284D01*
X139615612Y-120750000D01*
X165094540Y-120750000D01*
X165114326Y-120938257D01*
X165172820Y-121118284D01*
X165267466Y-121282216D01*
X165394129Y-121422889D01*
X165547269Y-121534151D01*
X165720197Y-121611144D01*
X165905352Y-121650500D01*
X165905354Y-121650500D01*
X166094646Y-121650500D01*
X166094648Y-121650500D01*
X166218083Y-121624262D01*
X166279803Y-121611144D01*
X166452730Y-121534151D01*
X166546740Y-121465849D01*
X166605870Y-121422889D01*
X166632248Y-121393594D01*
X166732533Y-121282216D01*
X166827179Y-121118284D01*
X166885674Y-120938256D01*
X166905460Y-120750000D01*
X166885674Y-120561744D01*
X166827179Y-120381716D01*
X166827179Y-120381715D01*
X166732533Y-120217783D01*
X166605870Y-120077110D01*
X166452730Y-119965848D01*
X166279802Y-119888855D01*
X166094648Y-119849500D01*
X166094646Y-119849500D01*
X165905354Y-119849500D01*
X165905352Y-119849500D01*
X165720197Y-119888855D01*
X165547269Y-119965848D01*
X165394129Y-120077110D01*
X165267466Y-120217783D01*
X165172820Y-120381715D01*
X165114326Y-120561742D01*
X165094540Y-120750000D01*
X139615612Y-120750000D01*
X139635674Y-120688256D01*
X139655460Y-120500000D01*
X139635674Y-120311744D01*
X139577179Y-120131716D01*
X139577179Y-120131715D01*
X139482533Y-119967783D01*
X139355870Y-119827110D01*
X139202730Y-119715848D01*
X139029802Y-119638855D01*
X138844648Y-119599500D01*
X138844646Y-119599500D01*
X138655354Y-119599500D01*
X138655352Y-119599500D01*
X138470197Y-119638855D01*
X138297269Y-119715848D01*
X138144129Y-119827110D01*
X138017466Y-119967783D01*
X137922820Y-120131715D01*
X137864326Y-120311742D01*
X137844540Y-120499999D01*
X133155460Y-120499999D01*
X133135674Y-120311744D01*
X133077179Y-120131716D01*
X133077179Y-120131715D01*
X132982533Y-119967783D01*
X132855870Y-119827110D01*
X132702730Y-119715848D01*
X132529802Y-119638855D01*
X132344648Y-119599500D01*
X132344646Y-119599500D01*
X132155354Y-119599500D01*
X132155352Y-119599500D01*
X131970197Y-119638855D01*
X131797269Y-119715848D01*
X131644129Y-119827110D01*
X131517466Y-119967783D01*
X131422820Y-120131715D01*
X131364326Y-120311742D01*
X131344540Y-120499999D01*
X131364326Y-120688257D01*
X131422820Y-120868283D01*
X131454477Y-120923115D01*
X131470919Y-120978625D01*
X131460368Y-121035550D01*
X131425124Y-121081480D01*
X131372870Y-121106404D01*
X131220197Y-121138855D01*
X131047269Y-121215848D01*
X130894129Y-121327110D01*
X130767466Y-121467783D01*
X130672820Y-121631715D01*
X130614326Y-121811742D01*
X130614325Y-121811744D01*
X130614326Y-121811744D01*
X130608768Y-121864631D01*
X130607829Y-121873561D01*
X130585248Y-121932899D01*
X130536258Y-121973283D01*
X130473701Y-121984126D01*
X130280000Y-121967179D01*
X130055504Y-121986820D01*
X129990542Y-122004227D01*
X129928450Y-122004769D01*
X129873881Y-121975139D01*
X129840518Y-121922769D01*
X129827179Y-121881716D01*
X129732533Y-121717783D01*
X129605870Y-121577110D01*
X129452730Y-121465848D01*
X129279802Y-121388855D01*
X129094648Y-121349500D01*
X129094646Y-121349500D01*
X128905354Y-121349500D01*
X128905352Y-121349500D01*
X128720197Y-121388855D01*
X128547269Y-121465848D01*
X128394129Y-121577110D01*
X128267465Y-121717785D01*
X128172821Y-121881714D01*
X128161082Y-121917843D01*
X128127718Y-121970211D01*
X128073150Y-121999839D01*
X128011059Y-121999297D01*
X127964495Y-121986820D01*
X127740000Y-121967179D01*
X127515506Y-121986820D01*
X127297826Y-122045148D01*
X127093593Y-122140382D01*
X126908987Y-122269645D01*
X126749645Y-122428987D01*
X126620381Y-122613593D01*
X126582382Y-122695086D01*
X126536625Y-122747262D01*
X126470000Y-122766682D01*
X126403375Y-122747262D01*
X126357618Y-122695086D01*
X126319618Y-122613593D01*
X126243930Y-122505500D01*
X126190358Y-122428991D01*
X126031009Y-122269642D01*
X125876834Y-122161688D01*
X125846406Y-122140382D01*
X125642173Y-122045148D01*
X125642170Y-122045147D01*
X125492729Y-122005104D01*
X125424493Y-121986820D01*
X125200000Y-121967179D01*
X124975506Y-121986820D01*
X124757826Y-122045148D01*
X124553593Y-122140382D01*
X124368987Y-122269645D01*
X124209645Y-122428987D01*
X124080381Y-122613593D01*
X124042382Y-122695086D01*
X123996625Y-122747262D01*
X123930000Y-122766682D01*
X123863375Y-122747262D01*
X123817618Y-122695086D01*
X123779618Y-122613593D01*
X123703930Y-122505500D01*
X123650358Y-122428991D01*
X123491009Y-122269642D01*
X123336834Y-122161688D01*
X123306406Y-122140382D01*
X123102173Y-122045148D01*
X123102170Y-122045147D01*
X122952729Y-122005104D01*
X122884493Y-121986820D01*
X122660000Y-121967179D01*
X122461638Y-121984534D01*
X122407067Y-121977026D01*
X122361132Y-121946622D01*
X122332900Y-121899323D01*
X122327179Y-121881716D01*
X122251133Y-121750000D01*
X122232533Y-121717783D01*
X122105870Y-121577110D01*
X121952730Y-121465848D01*
X121779802Y-121388855D01*
X121594648Y-121349500D01*
X121594646Y-121349500D01*
X121405354Y-121349500D01*
X121405352Y-121349500D01*
X121220199Y-121388854D01*
X121070903Y-121455326D01*
X121007506Y-121465367D01*
X120947582Y-121442364D01*
X120907188Y-121392481D01*
X120897147Y-121329088D01*
X120905460Y-121250000D01*
X120885674Y-121061744D01*
X120854515Y-120965848D01*
X120827179Y-120881715D01*
X120732533Y-120717783D01*
X120605870Y-120577110D01*
X120452730Y-120465848D01*
X120279802Y-120388855D01*
X120094648Y-120349500D01*
X120094646Y-120349500D01*
X119905354Y-120349500D01*
X119905352Y-120349500D01*
X119720197Y-120388855D01*
X119547269Y-120465848D01*
X119394129Y-120577110D01*
X119267466Y-120717783D01*
X119172820Y-120881715D01*
X119114326Y-121061742D01*
X119094540Y-121249999D01*
X119114326Y-121438257D01*
X119172820Y-121618284D01*
X119267466Y-121782216D01*
X119394126Y-121922886D01*
X119394129Y-121922888D01*
X119444928Y-121959795D01*
X119482771Y-122004300D01*
X119496037Y-122061195D01*
X119481781Y-122117849D01*
X119443166Y-122161688D01*
X119288987Y-122269645D01*
X119129645Y-122428987D01*
X119000381Y-122613593D01*
X118962382Y-122695086D01*
X118916625Y-122747262D01*
X118850000Y-122766682D01*
X118783375Y-122747262D01*
X118737618Y-122695086D01*
X118699618Y-122613593D01*
X118623930Y-122505500D01*
X118570358Y-122428991D01*
X118411009Y-122269642D01*
X118256834Y-122161688D01*
X118226406Y-122140382D01*
X118022173Y-122045148D01*
X118022170Y-122045147D01*
X117872729Y-122005104D01*
X117804493Y-121986820D01*
X117580000Y-121967179D01*
X117355506Y-121986820D01*
X117137826Y-122045148D01*
X116933593Y-122140382D01*
X116748987Y-122269645D01*
X116589645Y-122428987D01*
X116460381Y-122613593D01*
X116422382Y-122695086D01*
X116376625Y-122747262D01*
X116310000Y-122766682D01*
X116243375Y-122747262D01*
X116197618Y-122695086D01*
X116159618Y-122613593D01*
X116083930Y-122505500D01*
X116030358Y-122428991D01*
X115871009Y-122269642D01*
X115716834Y-122161688D01*
X115686406Y-122140382D01*
X115482173Y-122045148D01*
X115482170Y-122045147D01*
X115332729Y-122005104D01*
X115264493Y-121986820D01*
X115040000Y-121967179D01*
X114815506Y-121986820D01*
X114597826Y-122045148D01*
X114393593Y-122140382D01*
X114208987Y-122269645D01*
X114049645Y-122428987D01*
X113920382Y-122613593D01*
X113825148Y-122817826D01*
X113766820Y-123035506D01*
X113747179Y-123260000D01*
X111252820Y-123260000D01*
X111233179Y-123035504D01*
X111174853Y-122817830D01*
X111157407Y-122780418D01*
X111079617Y-122613593D01*
X111074230Y-122605899D01*
X110950358Y-122428991D01*
X110791009Y-122269642D01*
X110636834Y-122161688D01*
X110606406Y-122140382D01*
X110402173Y-122045148D01*
X110402170Y-122045147D01*
X110252729Y-122005104D01*
X110184493Y-121986820D01*
X109960000Y-121967179D01*
X109735506Y-121986820D01*
X109517826Y-122045148D01*
X109313593Y-122140382D01*
X109128987Y-122269645D01*
X108969641Y-122428991D01*
X108882673Y-122553194D01*
X108835457Y-122593521D01*
X108774609Y-122605900D01*
X108715389Y-122587228D01*
X108672646Y-122542186D01*
X108657099Y-122482070D01*
X108657099Y-122475530D01*
X108652096Y-122428991D01*
X108650691Y-122415917D01*
X108600396Y-122281069D01*
X108514146Y-122165854D01*
X108398931Y-122079604D01*
X108264083Y-122029309D01*
X108204473Y-122022900D01*
X108204469Y-122022900D01*
X106635530Y-122022900D01*
X106575915Y-122029309D01*
X106441069Y-122079604D01*
X106325854Y-122165854D01*
X106239604Y-122281068D01*
X106189309Y-122415916D01*
X106188559Y-122422889D01*
X106183738Y-122467740D01*
X106182900Y-122475531D01*
X106182900Y-122482069D01*
X106167353Y-122542185D01*
X106124610Y-122587227D01*
X106065390Y-122605899D01*
X106004542Y-122593520D01*
X105957325Y-122553193D01*
X105923930Y-122505500D01*
X105870358Y-122428991D01*
X105711009Y-122269642D01*
X105556834Y-122161688D01*
X105526406Y-122140382D01*
X105452012Y-122105692D01*
X105404609Y-122066894D01*
X105381563Y-122010139D01*
X105388498Y-121949276D01*
X105423721Y-121899160D01*
X105478633Y-121872020D01*
X105529803Y-121861144D01*
X105702730Y-121784151D01*
X105749735Y-121750000D01*
X105855870Y-121672889D01*
X105892943Y-121631716D01*
X105982533Y-121532216D01*
X106077179Y-121368284D01*
X106135674Y-121188256D01*
X106155460Y-121000000D01*
X106135674Y-120811744D01*
X106105144Y-120717783D01*
X106077179Y-120631715D01*
X105982533Y-120467783D01*
X105855870Y-120327110D01*
X105702730Y-120215848D01*
X105529802Y-120138855D01*
X105344648Y-120099500D01*
X105344646Y-120099500D01*
X105155354Y-120099500D01*
X105155352Y-120099500D01*
X104970197Y-120138855D01*
X104797269Y-120215848D01*
X104644129Y-120327110D01*
X104517466Y-120467783D01*
X104422820Y-120631715D01*
X104364326Y-120811742D01*
X104344540Y-120999999D01*
X104364326Y-121188257D01*
X104422820Y-121368284D01*
X104517466Y-121532216D01*
X104644129Y-121672889D01*
X104762689Y-121759027D01*
X104801064Y-121804598D01*
X104813756Y-121862806D01*
X104797835Y-121920216D01*
X104756977Y-121963574D01*
X104700614Y-121982873D01*
X104655506Y-121986820D01*
X104437826Y-122045148D01*
X104233593Y-122140382D01*
X104048987Y-122269645D01*
X103889645Y-122428987D01*
X103760382Y-122613593D01*
X103665148Y-122817826D01*
X103606820Y-123035506D01*
X103587179Y-123260000D01*
X101000500Y-123260000D01*
X101000500Y-117000000D01*
X104744680Y-117000000D01*
X104763948Y-117404494D01*
X104821579Y-117805325D01*
X104868807Y-118000000D01*
X104917051Y-118198867D01*
X105049496Y-118581542D01*
X105217720Y-118949900D01*
X105420197Y-119300601D01*
X105655089Y-119630459D01*
X105655093Y-119630464D01*
X105920280Y-119936507D01*
X106213358Y-120215956D01*
X106531672Y-120466281D01*
X106531679Y-120466285D01*
X106531681Y-120466287D01*
X106872331Y-120685210D01*
X106872337Y-120685213D01*
X106872340Y-120685215D01*
X107232276Y-120870775D01*
X107608221Y-121021281D01*
X107996770Y-121135369D01*
X108394405Y-121212007D01*
X108797524Y-121250500D01*
X109202471Y-121250500D01*
X109202476Y-121250500D01*
X109605595Y-121212007D01*
X110003230Y-121135369D01*
X110391779Y-121021281D01*
X110767724Y-120870775D01*
X111127660Y-120685215D01*
X111468328Y-120466281D01*
X111786642Y-120215956D01*
X112079720Y-119936507D01*
X112344907Y-119630464D01*
X112579803Y-119300600D01*
X112782279Y-118949900D01*
X112950503Y-118581543D01*
X112978725Y-118500000D01*
X117094540Y-118500000D01*
X117114326Y-118688257D01*
X117172820Y-118868284D01*
X117267466Y-119032216D01*
X117394129Y-119172889D01*
X117547269Y-119284151D01*
X117720197Y-119361144D01*
X117905352Y-119400500D01*
X117905354Y-119400500D01*
X118094646Y-119400500D01*
X118094648Y-119400500D01*
X118218083Y-119374262D01*
X118279803Y-119361144D01*
X118452730Y-119284151D01*
X118452730Y-119284150D01*
X118605870Y-119172889D01*
X118732533Y-119032216D01*
X118751133Y-119000000D01*
X170094540Y-119000000D01*
X170114326Y-119188257D01*
X170172820Y-119368284D01*
X170267466Y-119532216D01*
X170394129Y-119672889D01*
X170547269Y-119784151D01*
X170720197Y-119861144D01*
X170905352Y-119900500D01*
X170905354Y-119900500D01*
X171094646Y-119900500D01*
X171094648Y-119900500D01*
X171218084Y-119874262D01*
X171279803Y-119861144D01*
X171452730Y-119784151D01*
X171546740Y-119715849D01*
X171605870Y-119672889D01*
X171636515Y-119638855D01*
X171732533Y-119532216D01*
X171827179Y-119368284D01*
X171885674Y-119188256D01*
X171905460Y-119000000D01*
X181094540Y-119000000D01*
X181114326Y-119188257D01*
X181172820Y-119368284D01*
X181267466Y-119532216D01*
X181394129Y-119672889D01*
X181547269Y-119784151D01*
X181720197Y-119861144D01*
X181905352Y-119900500D01*
X181905354Y-119900500D01*
X182094646Y-119900500D01*
X182094648Y-119900500D01*
X182218084Y-119874262D01*
X182279803Y-119861144D01*
X182452730Y-119784151D01*
X182546740Y-119715849D01*
X182605870Y-119672889D01*
X182636515Y-119638855D01*
X182732533Y-119532216D01*
X182827179Y-119368284D01*
X182885674Y-119188256D01*
X182905460Y-119000000D01*
X193094540Y-119000000D01*
X193114326Y-119188257D01*
X193172820Y-119368284D01*
X193267466Y-119532216D01*
X193394129Y-119672889D01*
X193547269Y-119784151D01*
X193720197Y-119861144D01*
X193905352Y-119900500D01*
X193905354Y-119900500D01*
X194094646Y-119900500D01*
X194094648Y-119900500D01*
X194218084Y-119874262D01*
X194279803Y-119861144D01*
X194452730Y-119784151D01*
X194546740Y-119715849D01*
X194605870Y-119672889D01*
X194636515Y-119638855D01*
X194732533Y-119532216D01*
X194827179Y-119368284D01*
X194885674Y-119188256D01*
X194905460Y-119000000D01*
X204094540Y-119000000D01*
X204114326Y-119188257D01*
X204172820Y-119368284D01*
X204267466Y-119532216D01*
X204394129Y-119672889D01*
X204547269Y-119784151D01*
X204720197Y-119861144D01*
X204905352Y-119900500D01*
X204905354Y-119900500D01*
X205094646Y-119900500D01*
X205094648Y-119900500D01*
X205218084Y-119874262D01*
X205279803Y-119861144D01*
X205452730Y-119784151D01*
X205546740Y-119715849D01*
X205605870Y-119672889D01*
X205636515Y-119638855D01*
X205732533Y-119532216D01*
X205827179Y-119368284D01*
X205885674Y-119188256D01*
X205905460Y-119000000D01*
X205885674Y-118811744D01*
X205855332Y-118718363D01*
X205827179Y-118631715D01*
X205732533Y-118467783D01*
X205605870Y-118327110D01*
X205452730Y-118215848D01*
X205279802Y-118138855D01*
X205094648Y-118099500D01*
X205094646Y-118099500D01*
X204905354Y-118099500D01*
X204905352Y-118099500D01*
X204720197Y-118138855D01*
X204547269Y-118215848D01*
X204394129Y-118327110D01*
X204267466Y-118467783D01*
X204172820Y-118631715D01*
X204114326Y-118811742D01*
X204094540Y-119000000D01*
X194905460Y-119000000D01*
X194885674Y-118811744D01*
X194855332Y-118718363D01*
X194827179Y-118631715D01*
X194732533Y-118467783D01*
X194605870Y-118327110D01*
X194452730Y-118215848D01*
X194279802Y-118138855D01*
X194094648Y-118099500D01*
X194094646Y-118099500D01*
X193905354Y-118099500D01*
X193905352Y-118099500D01*
X193720197Y-118138855D01*
X193547269Y-118215848D01*
X193394129Y-118327110D01*
X193267466Y-118467783D01*
X193172820Y-118631715D01*
X193114326Y-118811742D01*
X193094540Y-119000000D01*
X182905460Y-119000000D01*
X182885674Y-118811744D01*
X182855332Y-118718363D01*
X182827179Y-118631715D01*
X182732533Y-118467783D01*
X182605870Y-118327110D01*
X182452730Y-118215848D01*
X182279802Y-118138855D01*
X182094648Y-118099500D01*
X182094646Y-118099500D01*
X181905354Y-118099500D01*
X181905352Y-118099500D01*
X181720197Y-118138855D01*
X181547269Y-118215848D01*
X181394129Y-118327110D01*
X181267466Y-118467783D01*
X181172820Y-118631715D01*
X181114326Y-118811742D01*
X181094540Y-119000000D01*
X171905460Y-119000000D01*
X171885674Y-118811744D01*
X171855332Y-118718363D01*
X171827179Y-118631715D01*
X171732533Y-118467783D01*
X171605870Y-118327110D01*
X171452730Y-118215848D01*
X171279802Y-118138855D01*
X171094648Y-118099500D01*
X171094646Y-118099500D01*
X170905354Y-118099500D01*
X170905352Y-118099500D01*
X170720197Y-118138855D01*
X170547269Y-118215848D01*
X170394129Y-118327110D01*
X170267466Y-118467783D01*
X170172820Y-118631715D01*
X170114326Y-118811742D01*
X170094540Y-119000000D01*
X118751133Y-119000000D01*
X118827179Y-118868284D01*
X118845551Y-118811742D01*
X118885674Y-118688256D01*
X118905460Y-118500000D01*
X118885674Y-118311744D01*
X118848996Y-118198862D01*
X118827179Y-118131715D01*
X118751133Y-117999999D01*
X132344540Y-117999999D01*
X132364326Y-118188257D01*
X132422820Y-118368284D01*
X132517466Y-118532216D01*
X132644129Y-118672889D01*
X132797269Y-118784151D01*
X132970197Y-118861144D01*
X133155352Y-118900500D01*
X133155354Y-118900500D01*
X133344646Y-118900500D01*
X133344648Y-118900500D01*
X133468084Y-118874262D01*
X133529803Y-118861144D01*
X133702730Y-118784151D01*
X133702730Y-118784150D01*
X133855870Y-118672889D01*
X133892943Y-118631716D01*
X133982533Y-118532216D01*
X134077179Y-118368284D01*
X134135674Y-118188256D01*
X134155460Y-118000000D01*
X134146962Y-117919143D01*
X228364381Y-117919143D01*
X228364381Y-120580857D01*
X231635619Y-120580857D01*
X231635619Y-117919143D01*
X228364381Y-117919143D01*
X134146962Y-117919143D01*
X134135674Y-117811744D01*
X134077179Y-117631716D01*
X134077179Y-117631715D01*
X133982533Y-117467783D01*
X133855870Y-117327110D01*
X133702730Y-117215848D01*
X133529802Y-117138855D01*
X133344648Y-117099500D01*
X133344646Y-117099500D01*
X133155354Y-117099500D01*
X133155352Y-117099500D01*
X132970197Y-117138855D01*
X132797269Y-117215848D01*
X132644129Y-117327110D01*
X132517466Y-117467783D01*
X132422820Y-117631715D01*
X132364326Y-117811742D01*
X132344540Y-117999999D01*
X118751133Y-117999999D01*
X118732533Y-117967783D01*
X118605870Y-117827110D01*
X118452730Y-117715848D01*
X118279802Y-117638855D01*
X118094648Y-117599500D01*
X118094646Y-117599500D01*
X117905354Y-117599500D01*
X117905352Y-117599500D01*
X117720197Y-117638855D01*
X117547269Y-117715848D01*
X117394129Y-117827110D01*
X117267466Y-117967783D01*
X117172820Y-118131715D01*
X117114326Y-118311742D01*
X117094540Y-118500000D01*
X112978725Y-118500000D01*
X113082950Y-118198862D01*
X113178421Y-117805325D01*
X113236052Y-117404494D01*
X113255320Y-117000000D01*
X113236052Y-116595506D01*
X113178421Y-116194675D01*
X113082950Y-115801138D01*
X113030814Y-115650500D01*
X124188352Y-115650500D01*
X124208138Y-115838757D01*
X124266632Y-116018784D01*
X124361278Y-116182716D01*
X124487941Y-116323389D01*
X124641081Y-116434651D01*
X124814009Y-116511644D01*
X124999164Y-116551000D01*
X124999166Y-116551000D01*
X125188458Y-116551000D01*
X125188460Y-116551000D01*
X125373612Y-116511645D01*
X125373613Y-116511644D01*
X125373615Y-116511644D01*
X125543130Y-116436169D01*
X125593562Y-116425450D01*
X125643998Y-116436171D01*
X125813512Y-116511644D01*
X125998667Y-116551000D01*
X125998669Y-116551000D01*
X126187961Y-116551000D01*
X126187963Y-116551000D01*
X126316577Y-116523662D01*
X126373118Y-116511644D01*
X126546045Y-116434651D01*
X126672695Y-116342635D01*
X126699185Y-116323389D01*
X126825848Y-116182716D01*
X126920494Y-116018784D01*
X126920494Y-116018783D01*
X126962339Y-115889999D01*
X142922676Y-115889999D01*
X142941929Y-116110065D01*
X142999106Y-116323451D01*
X143051668Y-116436171D01*
X143092466Y-116523662D01*
X143219174Y-116704620D01*
X143375380Y-116860826D01*
X143556338Y-116987534D01*
X143756550Y-117080894D01*
X143969932Y-117138070D01*
X144190000Y-117157323D01*
X144410068Y-117138070D01*
X144623450Y-117080894D01*
X144823662Y-116987534D01*
X145004620Y-116860826D01*
X145160826Y-116704620D01*
X145287534Y-116523662D01*
X145347617Y-116394811D01*
X145393375Y-116342635D01*
X145460000Y-116323216D01*
X145526625Y-116342635D01*
X145572382Y-116394811D01*
X145632466Y-116523662D01*
X145759174Y-116704620D01*
X145915380Y-116860826D01*
X146096338Y-116987534D01*
X146296550Y-117080894D01*
X146509932Y-117138070D01*
X146730000Y-117157323D01*
X146950068Y-117138070D01*
X147163450Y-117080894D01*
X147363662Y-116987534D01*
X147544620Y-116860826D01*
X147700826Y-116704620D01*
X147827534Y-116523662D01*
X147887617Y-116394811D01*
X147933375Y-116342635D01*
X148000000Y-116323216D01*
X148066625Y-116342635D01*
X148112382Y-116394811D01*
X148172466Y-116523662D01*
X148299174Y-116704620D01*
X148455380Y-116860826D01*
X148636338Y-116987534D01*
X148836550Y-117080894D01*
X149049932Y-117138070D01*
X149270000Y-117157323D01*
X149490068Y-117138070D01*
X149703450Y-117080894D01*
X149903662Y-116987534D01*
X150084620Y-116860826D01*
X150240826Y-116704620D01*
X150367534Y-116523662D01*
X150427617Y-116394811D01*
X150473375Y-116342635D01*
X150540000Y-116323216D01*
X150606625Y-116342635D01*
X150652382Y-116394811D01*
X150712466Y-116523662D01*
X150839174Y-116704620D01*
X150995380Y-116860826D01*
X151176338Y-116987534D01*
X151376550Y-117080894D01*
X151589932Y-117138070D01*
X151810000Y-117157323D01*
X152030068Y-117138070D01*
X152243450Y-117080894D01*
X152443662Y-116987534D01*
X152624620Y-116860826D01*
X152780826Y-116704620D01*
X152907534Y-116523662D01*
X152967617Y-116394811D01*
X153013375Y-116342635D01*
X153080000Y-116323216D01*
X153146625Y-116342635D01*
X153192382Y-116394811D01*
X153252466Y-116523662D01*
X153379174Y-116704620D01*
X153535380Y-116860826D01*
X153716338Y-116987534D01*
X153916550Y-117080894D01*
X154129932Y-117138070D01*
X154350000Y-117157323D01*
X154570068Y-117138070D01*
X154783450Y-117080894D01*
X154983662Y-116987534D01*
X155164620Y-116860826D01*
X155320826Y-116704620D01*
X155447534Y-116523662D01*
X155540894Y-116323450D01*
X155598070Y-116110068D01*
X155617323Y-115890000D01*
X155598070Y-115669932D01*
X155540894Y-115456550D01*
X155447534Y-115256339D01*
X155320826Y-115075380D01*
X155164620Y-114919174D01*
X154983662Y-114792466D01*
X154892593Y-114750000D01*
X154783451Y-114699106D01*
X154570065Y-114641929D01*
X154350000Y-114622676D01*
X154129934Y-114641929D01*
X153916548Y-114699106D01*
X153716338Y-114792466D01*
X153535379Y-114919174D01*
X153379174Y-115075379D01*
X153252466Y-115256338D01*
X153192382Y-115385189D01*
X153146625Y-115437365D01*
X153080000Y-115456784D01*
X153013375Y-115437365D01*
X152967618Y-115385189D01*
X152920503Y-115284151D01*
X152907534Y-115256339D01*
X152780826Y-115075380D01*
X152624620Y-114919174D01*
X152443662Y-114792466D01*
X152352593Y-114750000D01*
X152243451Y-114699106D01*
X152030065Y-114641929D01*
X151810000Y-114622676D01*
X151589934Y-114641929D01*
X151376548Y-114699106D01*
X151176338Y-114792466D01*
X150995379Y-114919174D01*
X150839174Y-115075379D01*
X150712466Y-115256338D01*
X150652382Y-115385189D01*
X150606625Y-115437365D01*
X150540000Y-115456784D01*
X150473375Y-115437365D01*
X150427618Y-115385189D01*
X150380503Y-115284151D01*
X150367534Y-115256339D01*
X150240826Y-115075380D01*
X150084620Y-114919174D01*
X149903662Y-114792466D01*
X149812593Y-114750000D01*
X149703451Y-114699106D01*
X149490065Y-114641929D01*
X149270000Y-114622676D01*
X149049934Y-114641929D01*
X148836548Y-114699106D01*
X148636338Y-114792466D01*
X148455379Y-114919174D01*
X148299174Y-115075379D01*
X148172466Y-115256338D01*
X148112382Y-115385189D01*
X148066625Y-115437365D01*
X148000000Y-115456784D01*
X147933375Y-115437365D01*
X147887618Y-115385189D01*
X147840503Y-115284151D01*
X147827534Y-115256339D01*
X147700826Y-115075380D01*
X147544620Y-114919174D01*
X147363662Y-114792466D01*
X147272593Y-114750000D01*
X147163451Y-114699106D01*
X146950065Y-114641929D01*
X146730000Y-114622676D01*
X146509934Y-114641929D01*
X146296548Y-114699106D01*
X146096338Y-114792466D01*
X145915379Y-114919174D01*
X145759174Y-115075379D01*
X145632466Y-115256338D01*
X145572382Y-115385189D01*
X145526625Y-115437365D01*
X145460000Y-115456784D01*
X145393375Y-115437365D01*
X145347618Y-115385189D01*
X145300503Y-115284151D01*
X145287534Y-115256339D01*
X145160826Y-115075380D01*
X145004620Y-114919174D01*
X144823662Y-114792466D01*
X144732593Y-114750000D01*
X144623451Y-114699106D01*
X144410065Y-114641929D01*
X144190000Y-114622676D01*
X143969934Y-114641929D01*
X143756548Y-114699106D01*
X143556338Y-114792466D01*
X143375379Y-114919174D01*
X143219174Y-115075379D01*
X143092466Y-115256338D01*
X142999106Y-115456548D01*
X142941929Y-115669934D01*
X142922676Y-115889999D01*
X126962339Y-115889999D01*
X126978989Y-115838756D01*
X126998775Y-115650500D01*
X126978989Y-115462244D01*
X126920494Y-115282216D01*
X126920494Y-115282215D01*
X126825848Y-115118283D01*
X126699185Y-114977610D01*
X126546045Y-114866348D01*
X126373117Y-114789355D01*
X126187963Y-114750000D01*
X126187961Y-114750000D01*
X125998669Y-114750000D01*
X125998667Y-114750000D01*
X125813512Y-114789355D01*
X125643999Y-114864828D01*
X125593563Y-114875549D01*
X125543127Y-114864828D01*
X125373614Y-114789355D01*
X125188460Y-114750000D01*
X125188458Y-114750000D01*
X124999166Y-114750000D01*
X124999164Y-114750000D01*
X124814009Y-114789355D01*
X124641081Y-114866348D01*
X124487941Y-114977610D01*
X124361278Y-115118283D01*
X124266632Y-115282215D01*
X124208138Y-115462242D01*
X124188352Y-115650500D01*
X113030814Y-115650500D01*
X112950503Y-115418457D01*
X112889167Y-115284151D01*
X112782279Y-115050099D01*
X112579802Y-114699398D01*
X112344910Y-114369540D01*
X112138834Y-114131715D01*
X112079720Y-114063493D01*
X111786642Y-113784044D01*
X111743352Y-113750000D01*
X119594540Y-113750000D01*
X119614326Y-113938257D01*
X119672820Y-114118284D01*
X119767466Y-114282216D01*
X119894129Y-114422889D01*
X120047269Y-114534151D01*
X120220197Y-114611144D01*
X120405352Y-114650500D01*
X120405354Y-114650500D01*
X120594646Y-114650500D01*
X120594648Y-114650500D01*
X120725549Y-114622676D01*
X120779803Y-114611144D01*
X120952730Y-114534151D01*
X120999735Y-114500000D01*
X120999736Y-114499999D01*
X131094540Y-114499999D01*
X131114326Y-114688257D01*
X131172820Y-114868284D01*
X131267466Y-115032216D01*
X131394129Y-115172889D01*
X131547269Y-115284151D01*
X131720197Y-115361144D01*
X131905352Y-115400500D01*
X131905354Y-115400500D01*
X132094646Y-115400500D01*
X132094648Y-115400500D01*
X132218083Y-115374262D01*
X132279803Y-115361144D01*
X132452730Y-115284151D01*
X132491010Y-115256339D01*
X132605870Y-115172889D01*
X132732533Y-115032216D01*
X132827179Y-114868284D01*
X132852824Y-114789356D01*
X132885674Y-114688256D01*
X132905460Y-114500000D01*
X132885674Y-114311744D01*
X132827179Y-114131716D01*
X132827179Y-114131715D01*
X132732533Y-113967783D01*
X132605870Y-113827110D01*
X132452730Y-113715848D01*
X132279802Y-113638855D01*
X132094648Y-113599500D01*
X132094646Y-113599500D01*
X131905354Y-113599500D01*
X131905352Y-113599500D01*
X131720197Y-113638855D01*
X131547269Y-113715848D01*
X131394129Y-113827110D01*
X131267466Y-113967783D01*
X131172820Y-114131715D01*
X131114326Y-114311742D01*
X131094540Y-114499999D01*
X120999736Y-114499999D01*
X121105870Y-114422889D01*
X121232533Y-114282216D01*
X121327179Y-114118284D01*
X121344982Y-114063492D01*
X121385674Y-113938256D01*
X121405460Y-113750000D01*
X121385674Y-113561744D01*
X121327179Y-113381716D01*
X121327179Y-113381715D01*
X121232533Y-113217783D01*
X121105870Y-113077110D01*
X120952730Y-112965848D01*
X120807783Y-112901313D01*
X120756396Y-112858802D01*
X120734464Y-112795820D01*
X120748330Y-112730585D01*
X120793984Y-112681969D01*
X120858219Y-112664034D01*
X120949651Y-112664034D01*
X121073087Y-112637796D01*
X121134806Y-112624678D01*
X121307733Y-112547685D01*
X121460874Y-112436422D01*
X121587536Y-112295750D01*
X121682182Y-112131818D01*
X121740677Y-111951790D01*
X121760463Y-111763534D01*
X121759041Y-111750000D01*
X123525352Y-111750000D01*
X123545138Y-111938257D01*
X123603632Y-112118284D01*
X123698278Y-112282216D01*
X123824941Y-112422889D01*
X123978081Y-112534151D01*
X124151009Y-112611144D01*
X124336164Y-112650500D01*
X124336166Y-112650500D01*
X124525458Y-112650500D01*
X124525460Y-112650500D01*
X124650136Y-112623999D01*
X124710615Y-112611144D01*
X124883542Y-112534151D01*
X125018055Y-112436422D01*
X125036682Y-112422889D01*
X125163345Y-112282216D01*
X125226519Y-112172796D01*
X125271906Y-112127409D01*
X125333906Y-112110796D01*
X125395906Y-112127409D01*
X125441293Y-112172796D01*
X125504466Y-112282216D01*
X125631129Y-112422889D01*
X125784269Y-112534151D01*
X125957197Y-112611144D01*
X126142352Y-112650500D01*
X126142354Y-112650500D01*
X126331646Y-112650500D01*
X126331648Y-112650500D01*
X126456324Y-112623999D01*
X126516803Y-112611144D01*
X126689730Y-112534151D01*
X126824243Y-112436422D01*
X126842870Y-112422889D01*
X126969533Y-112282216D01*
X127064179Y-112118284D01*
X127076996Y-112078837D01*
X127122674Y-111938256D01*
X127142460Y-111750000D01*
X127122674Y-111561744D01*
X127077557Y-111422888D01*
X127064179Y-111381715D01*
X126969533Y-111217783D01*
X126837459Y-111071101D01*
X126809834Y-111020223D01*
X126809305Y-110999999D01*
X244194450Y-110999999D01*
X244214616Y-111269100D01*
X244214617Y-111269103D01*
X244274666Y-111532195D01*
X244373257Y-111783398D01*
X244508185Y-112017102D01*
X244676439Y-112228085D01*
X244874259Y-112411635D01*
X245097226Y-112563651D01*
X245340359Y-112680738D01*
X245598228Y-112760280D01*
X245865071Y-112800500D01*
X246134929Y-112800500D01*
X246401772Y-112760280D01*
X246659641Y-112680738D01*
X246902775Y-112563651D01*
X247125741Y-112411635D01*
X247323561Y-112228085D01*
X247491815Y-112017102D01*
X247626743Y-111783398D01*
X247725334Y-111532195D01*
X247785383Y-111269103D01*
X247805549Y-111000000D01*
X247785383Y-110730897D01*
X247725334Y-110467805D01*
X247626743Y-110216602D01*
X247491815Y-109982898D01*
X247323561Y-109771915D01*
X247224839Y-109680314D01*
X247125743Y-109588366D01*
X247020163Y-109516383D01*
X246902775Y-109436349D01*
X246659641Y-109319262D01*
X246580097Y-109294726D01*
X246401771Y-109239719D01*
X246134929Y-109199500D01*
X245865071Y-109199500D01*
X245598228Y-109239719D01*
X245340359Y-109319262D01*
X245097228Y-109436347D01*
X244874257Y-109588366D01*
X244676439Y-109771915D01*
X244508184Y-109982899D01*
X244373257Y-110216601D01*
X244274666Y-110467804D01*
X244214616Y-110730899D01*
X244194450Y-110999999D01*
X126809305Y-110999999D01*
X126808319Y-110962348D01*
X126833243Y-110910093D01*
X126879170Y-110874851D01*
X126973731Y-110832750D01*
X127087627Y-110750000D01*
X127126871Y-110721488D01*
X127253534Y-110580815D01*
X127348180Y-110416883D01*
X127348179Y-110416883D01*
X127406675Y-110236855D01*
X127426461Y-110048599D01*
X127406675Y-109860343D01*
X127348180Y-109680315D01*
X127348180Y-109680314D01*
X127253534Y-109516382D01*
X127126871Y-109375709D01*
X126973731Y-109264447D01*
X126941283Y-109250000D01*
X175844540Y-109250000D01*
X175864326Y-109438257D01*
X175922820Y-109618284D01*
X176017466Y-109782216D01*
X176144129Y-109922889D01*
X176297269Y-110034151D01*
X176470197Y-110111144D01*
X176655352Y-110150500D01*
X176655354Y-110150500D01*
X176844646Y-110150500D01*
X176844648Y-110150500D01*
X176979783Y-110121776D01*
X177029803Y-110111144D01*
X177202730Y-110034151D01*
X177296740Y-109965849D01*
X177355870Y-109922889D01*
X177386515Y-109888855D01*
X177482533Y-109782216D01*
X177577179Y-109618284D01*
X177635674Y-109438256D01*
X177655460Y-109250000D01*
X177635674Y-109061744D01*
X177577179Y-108881716D01*
X177577179Y-108881715D01*
X177482533Y-108717783D01*
X177355870Y-108577110D01*
X177202730Y-108465848D01*
X177029802Y-108388855D01*
X176844648Y-108349500D01*
X176844646Y-108349500D01*
X176655354Y-108349500D01*
X176655352Y-108349500D01*
X176470197Y-108388855D01*
X176297269Y-108465848D01*
X176144129Y-108577110D01*
X176017466Y-108717783D01*
X175922820Y-108881715D01*
X175864326Y-109061742D01*
X175844540Y-109250000D01*
X126941283Y-109250000D01*
X126800803Y-109187454D01*
X126615649Y-109148099D01*
X126615647Y-109148099D01*
X126426355Y-109148099D01*
X126426353Y-109148099D01*
X126241198Y-109187454D01*
X126068270Y-109264447D01*
X125915130Y-109375709D01*
X125788467Y-109516382D01*
X125693821Y-109680314D01*
X125635327Y-109860341D01*
X125615541Y-110048599D01*
X125635327Y-110236856D01*
X125693821Y-110416883D01*
X125788467Y-110580815D01*
X125920541Y-110727497D01*
X125948166Y-110778375D01*
X125949681Y-110836250D01*
X125924757Y-110888504D01*
X125878827Y-110923748D01*
X125784269Y-110965848D01*
X125631129Y-111077110D01*
X125504466Y-111217784D01*
X125441293Y-111327203D01*
X125395906Y-111372590D01*
X125333906Y-111389203D01*
X125271906Y-111372590D01*
X125226519Y-111327203D01*
X125163345Y-111217784D01*
X125036682Y-111077110D01*
X124883542Y-110965848D01*
X124710614Y-110888855D01*
X124525460Y-110849500D01*
X124525458Y-110849500D01*
X124336166Y-110849500D01*
X124336164Y-110849500D01*
X124151009Y-110888855D01*
X123978081Y-110965848D01*
X123824941Y-111077110D01*
X123698278Y-111217783D01*
X123603632Y-111381715D01*
X123545138Y-111561742D01*
X123525352Y-111750000D01*
X121759041Y-111750000D01*
X121740677Y-111575278D01*
X121682182Y-111395250D01*
X121682182Y-111395249D01*
X121587536Y-111231317D01*
X121460873Y-111090644D01*
X121307733Y-110979382D01*
X121134805Y-110902389D01*
X120949651Y-110863034D01*
X120949649Y-110863034D01*
X120760357Y-110863034D01*
X120760355Y-110863034D01*
X120575200Y-110902389D01*
X120402272Y-110979382D01*
X120249132Y-111090644D01*
X120122469Y-111231317D01*
X120027823Y-111395249D01*
X119969329Y-111575276D01*
X119949543Y-111763534D01*
X119969329Y-111951791D01*
X120027823Y-112131818D01*
X120122469Y-112295750D01*
X120249132Y-112436423D01*
X120402272Y-112547685D01*
X120547220Y-112612221D01*
X120598607Y-112654732D01*
X120620539Y-112717714D01*
X120606673Y-112782949D01*
X120561019Y-112831565D01*
X120496784Y-112849500D01*
X120405352Y-112849500D01*
X120220197Y-112888855D01*
X120047269Y-112965848D01*
X119894129Y-113077110D01*
X119767466Y-113217783D01*
X119672820Y-113381715D01*
X119614326Y-113561742D01*
X119594540Y-113750000D01*
X111743352Y-113750000D01*
X111468328Y-113533719D01*
X111468321Y-113533715D01*
X111468318Y-113533712D01*
X111127668Y-113314789D01*
X110939502Y-113217783D01*
X110767724Y-113129225D01*
X110391779Y-112978719D01*
X110391778Y-112978718D01*
X110391774Y-112978717D01*
X110003228Y-112864630D01*
X109605601Y-112787994D01*
X109605599Y-112787993D01*
X109605595Y-112787993D01*
X109202476Y-112749500D01*
X108797524Y-112749500D01*
X108394405Y-112787993D01*
X108394401Y-112787993D01*
X108394398Y-112787994D01*
X107996771Y-112864630D01*
X107608225Y-112978717D01*
X107232276Y-113129225D01*
X106872331Y-113314789D01*
X106531681Y-113533712D01*
X106213354Y-113784047D01*
X105920280Y-114063492D01*
X105655089Y-114369540D01*
X105420197Y-114699398D01*
X105217720Y-115050099D01*
X105049496Y-115418457D01*
X104917051Y-115801132D01*
X104895492Y-115890000D01*
X104821579Y-116194675D01*
X104763948Y-116595506D01*
X104744680Y-117000000D01*
X101000500Y-117000000D01*
X101000500Y-110000000D01*
X106094540Y-110000000D01*
X106114326Y-110188257D01*
X106172820Y-110368284D01*
X106267466Y-110532216D01*
X106394129Y-110672889D01*
X106547269Y-110784151D01*
X106720197Y-110861144D01*
X106905352Y-110900500D01*
X106905354Y-110900500D01*
X107094646Y-110900500D01*
X107094648Y-110900500D01*
X107218083Y-110874262D01*
X107279803Y-110861144D01*
X107449566Y-110785559D01*
X107500000Y-110774839D01*
X107550433Y-110785559D01*
X107705825Y-110854745D01*
X107720197Y-110861144D01*
X107905352Y-110900500D01*
X107905354Y-110900500D01*
X108094646Y-110900500D01*
X108094648Y-110900500D01*
X108218083Y-110874262D01*
X108279803Y-110861144D01*
X108452730Y-110784151D01*
X108499735Y-110750000D01*
X108499736Y-110749999D01*
X111344540Y-110749999D01*
X111364326Y-110938257D01*
X111422820Y-111118284D01*
X111517466Y-111282216D01*
X111644129Y-111422889D01*
X111797269Y-111534151D01*
X111970197Y-111611144D01*
X112155352Y-111650500D01*
X112155354Y-111650500D01*
X112344646Y-111650500D01*
X112344648Y-111650500D01*
X112468083Y-111624262D01*
X112529803Y-111611144D01*
X112702730Y-111534151D01*
X112855871Y-111422888D01*
X112982533Y-111282216D01*
X113077179Y-111118284D01*
X113135674Y-110938256D01*
X113155460Y-110750000D01*
X113135674Y-110561744D01*
X113105151Y-110467804D01*
X113077179Y-110381715D01*
X112982533Y-110217783D01*
X112855870Y-110077110D01*
X112702730Y-109965848D01*
X112529802Y-109888855D01*
X112344648Y-109849500D01*
X112344646Y-109849500D01*
X112155354Y-109849500D01*
X112155352Y-109849500D01*
X111970197Y-109888855D01*
X111797269Y-109965848D01*
X111644129Y-110077110D01*
X111517466Y-110217783D01*
X111422820Y-110381715D01*
X111364326Y-110561742D01*
X111344540Y-110749999D01*
X108499736Y-110749999D01*
X108605870Y-110672889D01*
X108732533Y-110532216D01*
X108827179Y-110368284D01*
X108844290Y-110315621D01*
X108885674Y-110188256D01*
X108905460Y-110000000D01*
X108885674Y-109811744D01*
X108827179Y-109631716D01*
X108827179Y-109631715D01*
X108732533Y-109467783D01*
X108605870Y-109327110D01*
X108452730Y-109215848D01*
X108279802Y-109138855D01*
X108094648Y-109099500D01*
X108094646Y-109099500D01*
X107905354Y-109099500D01*
X107905352Y-109099500D01*
X107720199Y-109138854D01*
X107550435Y-109214439D01*
X107500000Y-109225159D01*
X107449565Y-109214439D01*
X107279800Y-109138854D01*
X107094648Y-109099500D01*
X107094646Y-109099500D01*
X106905354Y-109099500D01*
X106905352Y-109099500D01*
X106720197Y-109138855D01*
X106547269Y-109215848D01*
X106394129Y-109327110D01*
X106267466Y-109467783D01*
X106172820Y-109631715D01*
X106114326Y-109811742D01*
X106094540Y-110000000D01*
X101000500Y-110000000D01*
X101000500Y-107380378D01*
X110214162Y-107380378D01*
X110233948Y-107568635D01*
X110292442Y-107748662D01*
X110387088Y-107912594D01*
X110513751Y-108053267D01*
X110666891Y-108164529D01*
X110839819Y-108241522D01*
X111024974Y-108280878D01*
X111024976Y-108280878D01*
X111214268Y-108280878D01*
X111214270Y-108280878D01*
X111337706Y-108254640D01*
X111399425Y-108241522D01*
X111572352Y-108164529D01*
X111725493Y-108053266D01*
X111852155Y-107912594D01*
X111946801Y-107748662D01*
X112005296Y-107568634D01*
X112012510Y-107499999D01*
X115594540Y-107499999D01*
X115614326Y-107688257D01*
X115672820Y-107868284D01*
X115767466Y-108032216D01*
X115894129Y-108172889D01*
X116047269Y-108284151D01*
X116220197Y-108361144D01*
X116405352Y-108400500D01*
X116405354Y-108400500D01*
X116594646Y-108400500D01*
X116594648Y-108400500D01*
X116718084Y-108374262D01*
X116779803Y-108361144D01*
X116952730Y-108284151D01*
X117105871Y-108172888D01*
X117232533Y-108032216D01*
X117327179Y-107868284D01*
X117385674Y-107688256D01*
X117405460Y-107500000D01*
X117405460Y-107499999D01*
X124594540Y-107499999D01*
X124614326Y-107688257D01*
X124672820Y-107868284D01*
X124767466Y-108032216D01*
X124894129Y-108172889D01*
X125047269Y-108284151D01*
X125220197Y-108361144D01*
X125405352Y-108400500D01*
X125405354Y-108400500D01*
X125594646Y-108400500D01*
X125594648Y-108400500D01*
X125718084Y-108374262D01*
X125779803Y-108361144D01*
X125952730Y-108284151D01*
X126105871Y-108172888D01*
X126232533Y-108032216D01*
X126327179Y-107868284D01*
X126385674Y-107688256D01*
X126405460Y-107500000D01*
X126405460Y-107499999D01*
X230844540Y-107499999D01*
X230864326Y-107688257D01*
X230922820Y-107868284D01*
X231017466Y-108032216D01*
X231144129Y-108172889D01*
X231297269Y-108284151D01*
X231470197Y-108361144D01*
X231655352Y-108400500D01*
X231655354Y-108400500D01*
X231844646Y-108400500D01*
X231844648Y-108400500D01*
X231968084Y-108374262D01*
X232029803Y-108361144D01*
X232202730Y-108284151D01*
X232355871Y-108172888D01*
X232482533Y-108032216D01*
X232577179Y-107868284D01*
X232635674Y-107688256D01*
X232655460Y-107500000D01*
X232635674Y-107311744D01*
X232577179Y-107131716D01*
X232536927Y-107061998D01*
X232520315Y-107000000D01*
X232536928Y-106938000D01*
X232536929Y-106937999D01*
X232577179Y-106868284D01*
X232635674Y-106688256D01*
X232655460Y-106500000D01*
X232635674Y-106311744D01*
X232595824Y-106189100D01*
X232577179Y-106131715D01*
X232482533Y-105967783D01*
X232355870Y-105827110D01*
X232202730Y-105715848D01*
X232029802Y-105638855D01*
X231844648Y-105599500D01*
X231844646Y-105599500D01*
X231655354Y-105599500D01*
X231655352Y-105599500D01*
X231470197Y-105638855D01*
X231297269Y-105715848D01*
X231144129Y-105827110D01*
X231017466Y-105967783D01*
X230922820Y-106131715D01*
X230864326Y-106311742D01*
X230844540Y-106500000D01*
X230864326Y-106688257D01*
X230922820Y-106868284D01*
X230963071Y-106937999D01*
X230979684Y-106999998D01*
X230963072Y-107061998D01*
X230922820Y-107131716D01*
X230864326Y-107311742D01*
X230844540Y-107499999D01*
X126405460Y-107499999D01*
X126385674Y-107311744D01*
X126332498Y-107148085D01*
X126327179Y-107131715D01*
X126232533Y-106967783D01*
X126105870Y-106827110D01*
X125952730Y-106715848D01*
X125779802Y-106638855D01*
X125594648Y-106599500D01*
X125594646Y-106599500D01*
X125405354Y-106599500D01*
X125405352Y-106599500D01*
X125220197Y-106638855D01*
X125047269Y-106715848D01*
X124894129Y-106827110D01*
X124767466Y-106967783D01*
X124672820Y-107131715D01*
X124614326Y-107311742D01*
X124594540Y-107499999D01*
X117405460Y-107499999D01*
X117385674Y-107311744D01*
X117332498Y-107148085D01*
X117327179Y-107131715D01*
X117232533Y-106967783D01*
X117105870Y-106827110D01*
X116952730Y-106715848D01*
X116779802Y-106638855D01*
X116594648Y-106599500D01*
X116594646Y-106599500D01*
X116405354Y-106599500D01*
X116405352Y-106599500D01*
X116220197Y-106638855D01*
X116047269Y-106715848D01*
X115894129Y-106827110D01*
X115767466Y-106967783D01*
X115672820Y-107131715D01*
X115614326Y-107311742D01*
X115594540Y-107499999D01*
X112012510Y-107499999D01*
X112025082Y-107380378D01*
X112005296Y-107192122D01*
X111946801Y-107012094D01*
X111946801Y-107012093D01*
X111852155Y-106848161D01*
X111725492Y-106707488D01*
X111572352Y-106596226D01*
X111399424Y-106519233D01*
X111214270Y-106479878D01*
X111214268Y-106479878D01*
X111024976Y-106479878D01*
X111024974Y-106479878D01*
X110839819Y-106519233D01*
X110666891Y-106596226D01*
X110513751Y-106707488D01*
X110387088Y-106848161D01*
X110292442Y-107012093D01*
X110233948Y-107192120D01*
X110214162Y-107380378D01*
X101000500Y-107380378D01*
X101000500Y-105749999D01*
X166094540Y-105749999D01*
X166114326Y-105938257D01*
X166172820Y-106118284D01*
X166267466Y-106282216D01*
X166394129Y-106422889D01*
X166547269Y-106534151D01*
X166720197Y-106611144D01*
X166905352Y-106650500D01*
X166905354Y-106650500D01*
X167094646Y-106650500D01*
X167094648Y-106650500D01*
X167218084Y-106624262D01*
X167279803Y-106611144D01*
X167452730Y-106534151D01*
X167605871Y-106422888D01*
X167732533Y-106282216D01*
X167827179Y-106118284D01*
X167865612Y-106000000D01*
X182344540Y-106000000D01*
X182364326Y-106188257D01*
X182422820Y-106368284D01*
X182517466Y-106532216D01*
X182644129Y-106672889D01*
X182797269Y-106784151D01*
X182970197Y-106861144D01*
X183155352Y-106900500D01*
X183155354Y-106900500D01*
X183344646Y-106900500D01*
X183344648Y-106900500D01*
X183468083Y-106874262D01*
X183529803Y-106861144D01*
X183702730Y-106784151D01*
X183796740Y-106715849D01*
X183855870Y-106672889D01*
X183886515Y-106638855D01*
X183982533Y-106532216D01*
X184077179Y-106368284D01*
X184135674Y-106188256D01*
X184155460Y-106000000D01*
X184135674Y-105811744D01*
X184083412Y-105650899D01*
X184077179Y-105631715D01*
X183982533Y-105467783D01*
X183855870Y-105327110D01*
X183702730Y-105215848D01*
X183529802Y-105138855D01*
X183344648Y-105099500D01*
X183344646Y-105099500D01*
X183155354Y-105099500D01*
X183155352Y-105099500D01*
X182970197Y-105138855D01*
X182797269Y-105215848D01*
X182644129Y-105327110D01*
X182517466Y-105467783D01*
X182422820Y-105631715D01*
X182364326Y-105811742D01*
X182344540Y-106000000D01*
X167865612Y-106000000D01*
X167885674Y-105938256D01*
X167905460Y-105750000D01*
X167885674Y-105561744D01*
X167855144Y-105467783D01*
X167827179Y-105381715D01*
X167732533Y-105217783D01*
X167605870Y-105077110D01*
X167452730Y-104965848D01*
X167279802Y-104888855D01*
X167094648Y-104849500D01*
X167094646Y-104849500D01*
X166905354Y-104849500D01*
X166905352Y-104849500D01*
X166720197Y-104888855D01*
X166547269Y-104965848D01*
X166394129Y-105077110D01*
X166267466Y-105217783D01*
X166172820Y-105381715D01*
X166114326Y-105561742D01*
X166094540Y-105749999D01*
X101000500Y-105749999D01*
X101000500Y-100999999D01*
X126844540Y-100999999D01*
X126864326Y-101188257D01*
X126922820Y-101368284D01*
X127017466Y-101532216D01*
X127144129Y-101672889D01*
X127297269Y-101784151D01*
X127470197Y-101861144D01*
X127655352Y-101900500D01*
X127655354Y-101900500D01*
X127844646Y-101900500D01*
X127844648Y-101900500D01*
X127968084Y-101874262D01*
X128029803Y-101861144D01*
X128202730Y-101784151D01*
X128249735Y-101750000D01*
X128249736Y-101749999D01*
X130844540Y-101749999D01*
X130864326Y-101938257D01*
X130922820Y-102118284D01*
X131017466Y-102282216D01*
X131144129Y-102422889D01*
X131297269Y-102534151D01*
X131470197Y-102611144D01*
X131655352Y-102650500D01*
X131655354Y-102650500D01*
X131844646Y-102650500D01*
X131844648Y-102650500D01*
X131968084Y-102624262D01*
X132029803Y-102611144D01*
X132202730Y-102534151D01*
X132257249Y-102494541D01*
X132355870Y-102422889D01*
X132482533Y-102282216D01*
X132577179Y-102118284D01*
X132593246Y-102068834D01*
X132635674Y-101938256D01*
X132655460Y-101750000D01*
X132635674Y-101561744D01*
X132577179Y-101381716D01*
X132577179Y-101381715D01*
X132482533Y-101217783D01*
X132355870Y-101077110D01*
X132249737Y-101000000D01*
X199744680Y-101000000D01*
X199763948Y-101404494D01*
X199821579Y-101805325D01*
X199853828Y-101938256D01*
X199917051Y-102198867D01*
X200049496Y-102581542D01*
X200217720Y-102949900D01*
X200420197Y-103300601D01*
X200542010Y-103471662D01*
X200655093Y-103630464D01*
X200920280Y-103936507D01*
X201213358Y-104215956D01*
X201531672Y-104466281D01*
X201531679Y-104466285D01*
X201531681Y-104466287D01*
X201872331Y-104685210D01*
X201872337Y-104685213D01*
X201872340Y-104685215D01*
X202232276Y-104870775D01*
X202608221Y-105021281D01*
X202996770Y-105135369D01*
X203394405Y-105212007D01*
X203797524Y-105250500D01*
X204202471Y-105250500D01*
X204202476Y-105250500D01*
X204605595Y-105212007D01*
X205003230Y-105135369D01*
X205391779Y-105021281D01*
X205767724Y-104870775D01*
X206127660Y-104685215D01*
X206468328Y-104466281D01*
X206786642Y-104215956D01*
X207079720Y-103936507D01*
X207344907Y-103630464D01*
X207579803Y-103300600D01*
X207782279Y-102949900D01*
X207950503Y-102581543D01*
X208082950Y-102198862D01*
X208161275Y-101876001D01*
X235494500Y-101876001D01*
X235511724Y-102006830D01*
X235528339Y-102068838D01*
X235578836Y-102190749D01*
X235659170Y-102295442D01*
X235704552Y-102340824D01*
X235704556Y-102340827D01*
X235704558Y-102340829D01*
X235721014Y-102353456D01*
X235753020Y-102390016D01*
X235768521Y-102436067D01*
X235765136Y-102484539D01*
X235762399Y-102494545D01*
X235744500Y-102627871D01*
X235744500Y-104237722D01*
X235746959Y-104287525D01*
X235746960Y-104287534D01*
X235749368Y-104311852D01*
X235756724Y-104361177D01*
X235877658Y-104965848D01*
X235992092Y-105538017D01*
X235994500Y-105562335D01*
X235994500Y-107029006D01*
X235981712Y-107083850D01*
X235945986Y-107127381D01*
X235937851Y-107133623D01*
X235904555Y-107159172D01*
X235859170Y-107204557D01*
X235778836Y-107309250D01*
X235728339Y-107431161D01*
X235711724Y-107493169D01*
X235694500Y-107623999D01*
X235694500Y-110126001D01*
X235711724Y-110256830D01*
X235728339Y-110318838D01*
X235778836Y-110440749D01*
X235859170Y-110545442D01*
X235904557Y-110590829D01*
X236009250Y-110671163D01*
X236130743Y-110721487D01*
X236131166Y-110721662D01*
X236193166Y-110738275D01*
X236291291Y-110751193D01*
X236323999Y-110755500D01*
X236324000Y-110755500D01*
X241625164Y-110755500D01*
X241625165Y-110755500D01*
X241756546Y-110738128D01*
X241818786Y-110721376D01*
X241941135Y-110670457D01*
X242046045Y-110589489D01*
X242091468Y-110543760D01*
X242171730Y-110438308D01*
X242221827Y-110315621D01*
X242238161Y-110253270D01*
X242254651Y-110121775D01*
X242226451Y-105920000D01*
X244194450Y-105920000D01*
X244214616Y-106189100D01*
X244242609Y-106311744D01*
X244274666Y-106452195D01*
X244373257Y-106703398D01*
X244508185Y-106937102D01*
X244676439Y-107148085D01*
X244874259Y-107331635D01*
X245097226Y-107483651D01*
X245340359Y-107600738D01*
X245598228Y-107680280D01*
X245865071Y-107720500D01*
X246134929Y-107720500D01*
X246401772Y-107680280D01*
X246659641Y-107600738D01*
X246902775Y-107483651D01*
X247125741Y-107331635D01*
X247323561Y-107148085D01*
X247491815Y-106937102D01*
X247626743Y-106703398D01*
X247725334Y-106452195D01*
X247785383Y-106189103D01*
X247805549Y-105920000D01*
X247785383Y-105650897D01*
X247725334Y-105387805D01*
X247626743Y-105136602D01*
X247491815Y-104902898D01*
X247323561Y-104691915D01*
X247316335Y-104685210D01*
X247125743Y-104508366D01*
X247064015Y-104466281D01*
X246902775Y-104356349D01*
X246659641Y-104239262D01*
X246580097Y-104214726D01*
X246401771Y-104159719D01*
X246134929Y-104119500D01*
X245865071Y-104119500D01*
X245598228Y-104159719D01*
X245340359Y-104239262D01*
X245097228Y-104356347D01*
X244874257Y-104508366D01*
X244676439Y-104691915D01*
X244508184Y-104902899D01*
X244373257Y-105136601D01*
X244274666Y-105387804D01*
X244214616Y-105650899D01*
X244194450Y-105920000D01*
X242226451Y-105920000D01*
X242206243Y-102909082D01*
X242190254Y-102786300D01*
X242175205Y-102727917D01*
X242175204Y-102727914D01*
X242154343Y-102674924D01*
X242146492Y-102615714D01*
X242167232Y-102559703D01*
X242211753Y-102519885D01*
X242269723Y-102505500D01*
X242851396Y-102505500D01*
X242906850Y-102518591D01*
X244747752Y-103439042D01*
X244817831Y-103464443D01*
X244857676Y-103478886D01*
X244913130Y-103491977D01*
X245029272Y-103505500D01*
X248876000Y-103505500D01*
X248876001Y-103505500D01*
X248902166Y-103502054D01*
X249006834Y-103488275D01*
X249068834Y-103471662D01*
X249190750Y-103421163D01*
X249295442Y-103340829D01*
X249340829Y-103295442D01*
X249421163Y-103190750D01*
X249471662Y-103068834D01*
X249488275Y-103006834D01*
X249505500Y-102876000D01*
X249505500Y-98124000D01*
X249488275Y-97993166D01*
X249471662Y-97931166D01*
X249421163Y-97809250D01*
X249401822Y-97784044D01*
X249340829Y-97704557D01*
X249295442Y-97659170D01*
X249190749Y-97578836D01*
X249068838Y-97528339D01*
X249006830Y-97511724D01*
X248876001Y-97494500D01*
X248876000Y-97494500D01*
X241956841Y-97494500D01*
X241900546Y-97480985D01*
X241856523Y-97443386D01*
X241834368Y-97389898D01*
X241838910Y-97332182D01*
X241862334Y-97260087D01*
X241885674Y-97188256D01*
X241905460Y-97000000D01*
X241885674Y-96811744D01*
X241827179Y-96631716D01*
X241827179Y-96631715D01*
X241732533Y-96467783D01*
X241605870Y-96327110D01*
X241452730Y-96215848D01*
X241279802Y-96138855D01*
X241094648Y-96099500D01*
X241094646Y-96099500D01*
X240905354Y-96099500D01*
X240905352Y-96099500D01*
X240720197Y-96138855D01*
X240547269Y-96215848D01*
X240394129Y-96327110D01*
X240267466Y-96467783D01*
X240172820Y-96631715D01*
X240114326Y-96811742D01*
X240094540Y-96999999D01*
X240114326Y-97188257D01*
X240161090Y-97332182D01*
X240165632Y-97389898D01*
X240143477Y-97443386D01*
X240099454Y-97480985D01*
X240043159Y-97494500D01*
X240029272Y-97494500D01*
X239913130Y-97508022D01*
X239857676Y-97521113D01*
X239747751Y-97560958D01*
X235842482Y-99513592D01*
X235727533Y-99592577D01*
X235677509Y-99638292D01*
X235588514Y-99745689D01*
X235532259Y-99873306D01*
X235513739Y-99938501D01*
X235513739Y-99938503D01*
X235494500Y-100076636D01*
X235494500Y-100076640D01*
X235494500Y-101876001D01*
X208161275Y-101876001D01*
X208178421Y-101805325D01*
X208236052Y-101404494D01*
X208255320Y-101000000D01*
X208236052Y-100595506D01*
X208178421Y-100194675D01*
X208082950Y-99801138D01*
X207992048Y-99538495D01*
X207950503Y-99418457D01*
X207941101Y-99397869D01*
X222069500Y-99397869D01*
X222075909Y-99457484D01*
X222091766Y-99499999D01*
X222126204Y-99592331D01*
X222212454Y-99707546D01*
X222327669Y-99793796D01*
X222462517Y-99844091D01*
X222522127Y-99850500D01*
X224317872Y-99850499D01*
X224377483Y-99844091D01*
X224512331Y-99793796D01*
X224627546Y-99707546D01*
X224713796Y-99592331D01*
X224762810Y-99460916D01*
X224797789Y-99410537D01*
X224852634Y-99383084D01*
X224913927Y-99385273D01*
X224966673Y-99416569D01*
X225088599Y-99538495D01*
X225282170Y-99674035D01*
X225496337Y-99773903D01*
X225724592Y-99835063D01*
X225960000Y-99855659D01*
X226195408Y-99835063D01*
X226423663Y-99773903D01*
X226637830Y-99674035D01*
X226831401Y-99538495D01*
X226998495Y-99371401D01*
X227128426Y-99185839D01*
X227172743Y-99146975D01*
X227230000Y-99132964D01*
X227287257Y-99146975D01*
X227331573Y-99185839D01*
X227461505Y-99371401D01*
X227628599Y-99538495D01*
X227822170Y-99674035D01*
X228036337Y-99773903D01*
X228264592Y-99835063D01*
X228500000Y-99855659D01*
X228735408Y-99835063D01*
X228963663Y-99773903D01*
X229177830Y-99674035D01*
X229371401Y-99538495D01*
X229538495Y-99371401D01*
X229668426Y-99185839D01*
X229712743Y-99146975D01*
X229770000Y-99132964D01*
X229827257Y-99146975D01*
X229871573Y-99185839D01*
X230001505Y-99371401D01*
X230168599Y-99538495D01*
X230362170Y-99674035D01*
X230576337Y-99773903D01*
X230804592Y-99835063D01*
X231040000Y-99855659D01*
X231275408Y-99835063D01*
X231503663Y-99773903D01*
X231717830Y-99674035D01*
X231911401Y-99538495D01*
X232078495Y-99371401D01*
X232208426Y-99185839D01*
X232252743Y-99146975D01*
X232310000Y-99132964D01*
X232367257Y-99146975D01*
X232411573Y-99185839D01*
X232541505Y-99371401D01*
X232708599Y-99538495D01*
X232902170Y-99674035D01*
X233116337Y-99773903D01*
X233344592Y-99835063D01*
X233580000Y-99855659D01*
X233815408Y-99835063D01*
X234043663Y-99773903D01*
X234257830Y-99674035D01*
X234451401Y-99538495D01*
X234618495Y-99371401D01*
X234754035Y-99177830D01*
X234853903Y-98963663D01*
X234915063Y-98735408D01*
X234935659Y-98500000D01*
X234915063Y-98264592D01*
X234853903Y-98036337D01*
X234754035Y-97822171D01*
X234618495Y-97628599D01*
X234451401Y-97461505D01*
X234257830Y-97325965D01*
X234043663Y-97226097D01*
X233982501Y-97209709D01*
X233815407Y-97164936D01*
X233580000Y-97144340D01*
X233344592Y-97164936D01*
X233116336Y-97226097D01*
X232902170Y-97325965D01*
X232708598Y-97461505D01*
X232541505Y-97628598D01*
X232411575Y-97814159D01*
X232367257Y-97853025D01*
X232310000Y-97867036D01*
X232252743Y-97853025D01*
X232208425Y-97814159D01*
X232112234Y-97676784D01*
X232078495Y-97628599D01*
X231911401Y-97461505D01*
X231717830Y-97325965D01*
X231503663Y-97226097D01*
X231442501Y-97209709D01*
X231275407Y-97164936D01*
X231040000Y-97144340D01*
X230804592Y-97164936D01*
X230576336Y-97226097D01*
X230362170Y-97325965D01*
X230168598Y-97461505D01*
X230001505Y-97628598D01*
X229871575Y-97814159D01*
X229827257Y-97853025D01*
X229770000Y-97867036D01*
X229712743Y-97853025D01*
X229668425Y-97814159D01*
X229572234Y-97676784D01*
X229538495Y-97628599D01*
X229371401Y-97461505D01*
X229177830Y-97325965D01*
X228963663Y-97226097D01*
X228902501Y-97209709D01*
X228735407Y-97164936D01*
X228500000Y-97144340D01*
X228264592Y-97164936D01*
X228036336Y-97226097D01*
X227822170Y-97325965D01*
X227628598Y-97461505D01*
X227461505Y-97628598D01*
X227331575Y-97814159D01*
X227287257Y-97853025D01*
X227230000Y-97867036D01*
X227172743Y-97853025D01*
X227128425Y-97814159D01*
X227032234Y-97676784D01*
X226998495Y-97628599D01*
X226831401Y-97461505D01*
X226637830Y-97325965D01*
X226423663Y-97226097D01*
X226362501Y-97209709D01*
X226195407Y-97164936D01*
X225960000Y-97144340D01*
X225724592Y-97164936D01*
X225496336Y-97226097D01*
X225282170Y-97325965D01*
X225088601Y-97461503D01*
X224966673Y-97583431D01*
X224913926Y-97614726D01*
X224852634Y-97616915D01*
X224797789Y-97589462D01*
X224762810Y-97539082D01*
X224752606Y-97511724D01*
X224713796Y-97407669D01*
X224627546Y-97292454D01*
X224512331Y-97206204D01*
X224377483Y-97155909D01*
X224317873Y-97149500D01*
X224317869Y-97149500D01*
X222522130Y-97149500D01*
X222462515Y-97155909D01*
X222327669Y-97206204D01*
X222212454Y-97292454D01*
X222126204Y-97407668D01*
X222075909Y-97542516D01*
X222069500Y-97602130D01*
X222069500Y-99397869D01*
X207941101Y-99397869D01*
X207782279Y-99050099D01*
X207579802Y-98699398D01*
X207344910Y-98369540D01*
X207310707Y-98330068D01*
X207079720Y-98063493D01*
X206786642Y-97784044D01*
X206468328Y-97533719D01*
X206468321Y-97533715D01*
X206468318Y-97533712D01*
X206127668Y-97314789D01*
X205917042Y-97206204D01*
X205767724Y-97129225D01*
X205391779Y-96978719D01*
X205391778Y-96978718D01*
X205391774Y-96978717D01*
X205003228Y-96864630D01*
X204605601Y-96787994D01*
X204605599Y-96787993D01*
X204605595Y-96787993D01*
X204202476Y-96749500D01*
X203797524Y-96749500D01*
X203394405Y-96787993D01*
X203394401Y-96787993D01*
X203394398Y-96787994D01*
X202996771Y-96864630D01*
X202608225Y-96978717D01*
X202232276Y-97129225D01*
X201872331Y-97314789D01*
X201531681Y-97533712D01*
X201531672Y-97533718D01*
X201531672Y-97533719D01*
X201497035Y-97560958D01*
X201213354Y-97784047D01*
X200920280Y-98063492D01*
X200655089Y-98369540D01*
X200420197Y-98699398D01*
X200217720Y-99050099D01*
X200049496Y-99418457D01*
X199917051Y-99801132D01*
X199860991Y-100032216D01*
X199821579Y-100194675D01*
X199763948Y-100595506D01*
X199744680Y-101000000D01*
X132249737Y-101000000D01*
X132202730Y-100965848D01*
X132029802Y-100888855D01*
X131844648Y-100849500D01*
X131844646Y-100849500D01*
X131655354Y-100849500D01*
X131655352Y-100849500D01*
X131470197Y-100888855D01*
X131297269Y-100965848D01*
X131144129Y-101077110D01*
X131017466Y-101217783D01*
X130922820Y-101381715D01*
X130864326Y-101561742D01*
X130844540Y-101749999D01*
X128249736Y-101749999D01*
X128355870Y-101672889D01*
X128482533Y-101532216D01*
X128577179Y-101368284D01*
X128577179Y-101368283D01*
X128635674Y-101188256D01*
X128655460Y-101000000D01*
X128635674Y-100811744D01*
X128577179Y-100631716D01*
X128577179Y-100631715D01*
X128482533Y-100467783D01*
X128355870Y-100327110D01*
X128202730Y-100215848D01*
X128029802Y-100138855D01*
X127844648Y-100099500D01*
X127844646Y-100099500D01*
X127655354Y-100099500D01*
X127655352Y-100099500D01*
X127470197Y-100138855D01*
X127297269Y-100215848D01*
X127144129Y-100327110D01*
X127017466Y-100467783D01*
X126922820Y-100631715D01*
X126864326Y-100811742D01*
X126844540Y-100999999D01*
X101000500Y-100999999D01*
X101000500Y-99500000D01*
X115594540Y-99500000D01*
X115614326Y-99688257D01*
X115672820Y-99868284D01*
X115767466Y-100032216D01*
X115894129Y-100172889D01*
X116047269Y-100284151D01*
X116220197Y-100361144D01*
X116405352Y-100400500D01*
X116405354Y-100400500D01*
X116594646Y-100400500D01*
X116594648Y-100400500D01*
X116718084Y-100374262D01*
X116779803Y-100361144D01*
X116952730Y-100284151D01*
X117046740Y-100215849D01*
X117105870Y-100172889D01*
X117136515Y-100138855D01*
X117232533Y-100032216D01*
X117327179Y-99868284D01*
X117385674Y-99688256D01*
X117405460Y-99500000D01*
X124594540Y-99500000D01*
X124614326Y-99688257D01*
X124672820Y-99868284D01*
X124767466Y-100032216D01*
X124894129Y-100172889D01*
X125047269Y-100284151D01*
X125220197Y-100361144D01*
X125405352Y-100400500D01*
X125405354Y-100400500D01*
X125594646Y-100400500D01*
X125594648Y-100400500D01*
X125718084Y-100374262D01*
X125779803Y-100361144D01*
X125952730Y-100284151D01*
X126046740Y-100215849D01*
X126105870Y-100172889D01*
X126136515Y-100138855D01*
X126232533Y-100032216D01*
X126327179Y-99868284D01*
X126385674Y-99688256D01*
X126405460Y-99500000D01*
X126385674Y-99311744D01*
X126351814Y-99207533D01*
X126327179Y-99131715D01*
X126232533Y-98967783D01*
X126105870Y-98827110D01*
X125952730Y-98715848D01*
X125779802Y-98638855D01*
X125594648Y-98599500D01*
X125594646Y-98599500D01*
X125405354Y-98599500D01*
X125405352Y-98599500D01*
X125220197Y-98638855D01*
X125047269Y-98715848D01*
X124894129Y-98827110D01*
X124767466Y-98967783D01*
X124672820Y-99131715D01*
X124614326Y-99311742D01*
X124594540Y-99500000D01*
X117405460Y-99500000D01*
X117385674Y-99311744D01*
X117351814Y-99207533D01*
X117327179Y-99131715D01*
X117232533Y-98967783D01*
X117105870Y-98827110D01*
X116952730Y-98715848D01*
X116779802Y-98638855D01*
X116594648Y-98599500D01*
X116594646Y-98599500D01*
X116405354Y-98599500D01*
X116405352Y-98599500D01*
X116220197Y-98638855D01*
X116047269Y-98715848D01*
X115894129Y-98827110D01*
X115767466Y-98967783D01*
X115672820Y-99131715D01*
X115614326Y-99311742D01*
X115594540Y-99500000D01*
X101000500Y-99500000D01*
X101000500Y-98109999D01*
X140382676Y-98109999D01*
X140401929Y-98330065D01*
X140447463Y-98500000D01*
X140459106Y-98543450D01*
X140552466Y-98743662D01*
X140679174Y-98924620D01*
X140835380Y-99080826D01*
X141016338Y-99207534D01*
X141216550Y-99300894D01*
X141429932Y-99358070D01*
X141650000Y-99377323D01*
X141870068Y-99358070D01*
X142083450Y-99300894D01*
X142283662Y-99207534D01*
X142464620Y-99080826D01*
X142620826Y-98924620D01*
X142747534Y-98743662D01*
X142840894Y-98543450D01*
X142898070Y-98330068D01*
X142917323Y-98110000D01*
X142917323Y-98109999D01*
X148002676Y-98109999D01*
X148021929Y-98330065D01*
X148067463Y-98500000D01*
X148079106Y-98543450D01*
X148172466Y-98743662D01*
X148299174Y-98924620D01*
X148455380Y-99080826D01*
X148636338Y-99207534D01*
X148836550Y-99300894D01*
X149049932Y-99358070D01*
X149270000Y-99377323D01*
X149490068Y-99358070D01*
X149703450Y-99300894D01*
X149903662Y-99207534D01*
X150084620Y-99080826D01*
X150240826Y-98924620D01*
X150367534Y-98743662D01*
X150427617Y-98614811D01*
X150473375Y-98562635D01*
X150540000Y-98543216D01*
X150606625Y-98562635D01*
X150652382Y-98614811D01*
X150712466Y-98743662D01*
X150839174Y-98924620D01*
X150995380Y-99080826D01*
X151176338Y-99207534D01*
X151376550Y-99300894D01*
X151589932Y-99358070D01*
X151810000Y-99377323D01*
X152030068Y-99358070D01*
X152243450Y-99300894D01*
X152443662Y-99207534D01*
X152624620Y-99080826D01*
X152780826Y-98924620D01*
X152907534Y-98743662D01*
X152967617Y-98614811D01*
X153013375Y-98562635D01*
X153080000Y-98543216D01*
X153146625Y-98562635D01*
X153192382Y-98614811D01*
X153252466Y-98743662D01*
X153379174Y-98924620D01*
X153535380Y-99080826D01*
X153716338Y-99207534D01*
X153916550Y-99300894D01*
X154129932Y-99358070D01*
X154350000Y-99377323D01*
X154570068Y-99358070D01*
X154783450Y-99300894D01*
X154983662Y-99207534D01*
X155164620Y-99080826D01*
X155320826Y-98924620D01*
X155447534Y-98743662D01*
X155540894Y-98543450D01*
X155598070Y-98330068D01*
X155617323Y-98110000D01*
X155598070Y-97889932D01*
X155540894Y-97676550D01*
X155447534Y-97476339D01*
X155320826Y-97295380D01*
X155164620Y-97139174D01*
X154983662Y-97012466D01*
X154964239Y-97003409D01*
X154783451Y-96919106D01*
X154570065Y-96861929D01*
X154350000Y-96842676D01*
X154129934Y-96861929D01*
X153916548Y-96919106D01*
X153716338Y-97012466D01*
X153535379Y-97139174D01*
X153379174Y-97295379D01*
X153252466Y-97476338D01*
X153192382Y-97605189D01*
X153146625Y-97657365D01*
X153080000Y-97676784D01*
X153013375Y-97657365D01*
X152967618Y-97605189D01*
X152950744Y-97569004D01*
X152907534Y-97476339D01*
X152780826Y-97295380D01*
X152624620Y-97139174D01*
X152443662Y-97012466D01*
X152424239Y-97003409D01*
X152243451Y-96919106D01*
X152030065Y-96861929D01*
X151810000Y-96842676D01*
X151589934Y-96861929D01*
X151376548Y-96919106D01*
X151176338Y-97012466D01*
X150995379Y-97139174D01*
X150839174Y-97295379D01*
X150712466Y-97476338D01*
X150652382Y-97605189D01*
X150606625Y-97657365D01*
X150540000Y-97676784D01*
X150473375Y-97657365D01*
X150427618Y-97605189D01*
X150410744Y-97569004D01*
X150367534Y-97476339D01*
X150240826Y-97295380D01*
X150084620Y-97139174D01*
X149903662Y-97012466D01*
X149884239Y-97003409D01*
X149703451Y-96919106D01*
X149490065Y-96861929D01*
X149270000Y-96842676D01*
X149049934Y-96861929D01*
X148836548Y-96919106D01*
X148636338Y-97012466D01*
X148455379Y-97139174D01*
X148299174Y-97295379D01*
X148172466Y-97476338D01*
X148079106Y-97676548D01*
X148021929Y-97889934D01*
X148002676Y-98109999D01*
X142917323Y-98109999D01*
X142898070Y-97889932D01*
X142840894Y-97676550D01*
X142747534Y-97476339D01*
X142620826Y-97295380D01*
X142464620Y-97139174D01*
X142283662Y-97012466D01*
X142264239Y-97003409D01*
X142083451Y-96919106D01*
X141870065Y-96861929D01*
X141650000Y-96842676D01*
X141429934Y-96861929D01*
X141216548Y-96919106D01*
X141016338Y-97012466D01*
X140835379Y-97139174D01*
X140679174Y-97295379D01*
X140552466Y-97476338D01*
X140459106Y-97676548D01*
X140401929Y-97889934D01*
X140382676Y-98109999D01*
X101000500Y-98109999D01*
X101000500Y-97050862D01*
X101009939Y-97003409D01*
X101036819Y-96963181D01*
X102963181Y-95036819D01*
X103003409Y-95009939D01*
X103050862Y-95000500D01*
X250949138Y-95000500D01*
X250996591Y-95009939D01*
G37*
%TD.AperFunction*%
%TD*%
M02*
