%TF.GenerationSoftware,KiCad,Pcbnew,7.0.1-0*%
%TF.CreationDate,2023-09-22T11:11:22-04:00*%
%TF.ProjectId,Segway V7,53656777-6179-4205-9637-2e6b69636164,V1*%
%TF.SameCoordinates,Original*%
%TF.FileFunction,Copper,L4,Bot*%
%TF.FilePolarity,Positive*%
%FSLAX46Y46*%
G04 Gerber Fmt 4.6, Leading zero omitted, Abs format (unit mm)*
G04 Created by KiCad (PCBNEW 7.0.1-0) date 2023-09-22 11:11:22*
%MOMM*%
%LPD*%
G01*
G04 APERTURE LIST*
%TA.AperFunction,ComponentPad*%
%ADD10R,2.600000X2.600000*%
%TD*%
%TA.AperFunction,ComponentPad*%
%ADD11C,2.600000*%
%TD*%
%TA.AperFunction,ComponentPad*%
%ADD12C,7.500000*%
%TD*%
%TA.AperFunction,ComponentPad*%
%ADD13R,1.700000X1.700000*%
%TD*%
%TA.AperFunction,ComponentPad*%
%ADD14O,1.700000X1.700000*%
%TD*%
%TA.AperFunction,ComponentPad*%
%ADD15C,1.574800*%
%TD*%
%TA.AperFunction,ComponentPad*%
%ADD16R,1.473200X1.473200*%
%TD*%
%TA.AperFunction,ComponentPad*%
%ADD17C,2.000000*%
%TD*%
%TA.AperFunction,ComponentPad*%
%ADD18C,1.524000*%
%TD*%
%TA.AperFunction,ViaPad*%
%ADD19C,0.800000*%
%TD*%
%TA.AperFunction,Conductor*%
%ADD20C,0.200000*%
%TD*%
%TA.AperFunction,Conductor*%
%ADD21C,0.250000*%
%TD*%
%TA.AperFunction,Conductor*%
%ADD22C,0.500000*%
%TD*%
%TA.AperFunction,Conductor*%
%ADD23C,0.127000*%
%TD*%
G04 APERTURE END LIST*
D10*
%TO.P,J10,1,Pin_1*%
%TO.N,/VBAT_IN*%
X246000000Y-116080000D03*
D11*
%TO.P,J10,2,Pin_2*%
%TO.N,GND*%
X246000000Y-111000000D03*
%TO.P,J10,3,Pin_3*%
X246000000Y-105920000D03*
%TO.P,J10,4,Pin_4*%
%TO.N,/VBAT_MOTOR*%
X246000000Y-100840000D03*
%TD*%
D12*
%TO.P,REF\u002A\u002A,1*%
%TO.N,GND*%
X109000000Y-117000000D03*
%TD*%
D13*
%TO.P,J2,1,Pin_1*%
%TO.N,GND*%
X199500000Y-139500000D03*
D14*
%TO.P,J2,2,Pin_2*%
%TO.N,Net-(J2-Pin_2)*%
X202040000Y-139500000D03*
%TO.P,J2,3,Pin_3*%
%TO.N,/BUCK_5V*%
X204580000Y-139500000D03*
%TD*%
D15*
%TO.P,U1,34,IO35*%
%TO.N,/MOSI*%
X104880000Y-138500000D03*
%TO.P,U1,33,IO37*%
%TO.N,/MISO*%
X107420000Y-138500000D03*
%TO.P,U1,32,IO36*%
%TO.N,/SCK*%
X109960000Y-138500000D03*
%TO.P,U1,31,IO34*%
%TO.N,/TFT_D{slash}C*%
X112500000Y-138500000D03*
%TO.P,U1,30,IO9*%
%TO.N,/SCL*%
X115040000Y-138500000D03*
%TO.P,U1,29,IO8*%
%TO.N,/SDA*%
X117580000Y-138500000D03*
%TO.P,U1,28,IO7*%
%TO.N,/WS2812*%
X120120000Y-138500000D03*
%TO.P,U1,27,IO6*%
%TO.N,/BAT_READING*%
X122660000Y-138500000D03*
%TO.P,U1,26,RST*%
%TO.N,/RST*%
X125200000Y-138500000D03*
D16*
%TO.P,U1,25,GND*%
%TO.N,GND*%
X127740000Y-138500000D03*
D15*
%TO.P,U1,24,TX*%
%TO.N,/TX*%
X130280000Y-138500000D03*
%TO.P,U1,23,RX*%
%TO.N,/RX*%
X132820000Y-138500000D03*
%TO.P,U1,22,IO38*%
%TO.N,/HALL_L_B*%
X135360000Y-138500000D03*
%TO.P,U1,21,IO39*%
%TO.N,/DIR1*%
X137900000Y-138500000D03*
%TO.P,U1,20,IO40*%
%TO.N,/DIR2*%
X140440000Y-138500000D03*
%TO.P,U1,19,IO41*%
%TO.N,/PWM1*%
X142980000Y-138500000D03*
%TO.P,U1,18,IO42*%
%TO.N,/PWM2*%
X145520000Y-138500000D03*
%TO.P,U1,17,IO12*%
%TO.N,/IMU_CS*%
X145520000Y-123260000D03*
%TO.P,U1,16,IO13*%
%TO.N,/IMU_INT*%
X142980000Y-123260000D03*
%TO.P,U1,15,IO14*%
%TO.N,/IMU_RST*%
X140440000Y-123260000D03*
%TO.P,U1,14,IO15*%
%TO.N,/HALL_R_B*%
X137900000Y-123260000D03*
%TO.P,U1,13,IO16*%
%TO.N,/HALL_R_A*%
X135360000Y-123260000D03*
%TO.P,U1,12,LDO2_OUT*%
%TO.N,unconnected-(U1-LDO2_OUT-Pad12)*%
X132820000Y-123260000D03*
%TO.P,U1,11,IO0*%
%TO.N,/TFT_RST*%
X130280000Y-123260000D03*
%TO.P,U1,10,IO21*%
%TO.N,/HALL_L_A*%
X127740000Y-123260000D03*
%TO.P,U1,9,IO5*%
%TO.N,/A4*%
X125200000Y-123260000D03*
%TO.P,U1,8,IO4*%
%TO.N,/A3*%
X122660000Y-123260000D03*
%TO.P,U1,7,IO3*%
%TO.N,/TFT_CS*%
X120120000Y-123260000D03*
%TO.P,U1,6,IO2*%
%TO.N,/A1*%
X117580000Y-123260000D03*
%TO.P,U1,5,IO1*%
%TO.N,/A0*%
X115040000Y-123260000D03*
%TO.P,U1,4,3V3*%
%TO.N,+3.3V*%
X112500000Y-123260000D03*
%TO.P,U1,3,5V*%
%TO.N,+5V*%
X109960000Y-123260000D03*
D16*
%TO.P,U1,2,GND*%
%TO.N,GND*%
X107420000Y-123260000D03*
D15*
%TO.P,U1,1,VBAT*%
%TO.N,unconnected-(U1-VBAT-Pad1)*%
X104880000Y-123260000D03*
%TD*%
D13*
%TO.P,J8,1,Pin_1*%
%TO.N,/DIR1*%
X223420000Y-98500000D03*
D14*
%TO.P,J8,2,Pin_2*%
%TO.N,/PWM1*%
X225960000Y-98500000D03*
%TO.P,J8,3,Pin_3*%
%TO.N,/DIR2*%
X228500000Y-98500000D03*
%TO.P,J8,4,Pin_4*%
%TO.N,/PWM2*%
X231040000Y-98500000D03*
%TO.P,J8,5,Pin_5*%
%TO.N,GND*%
X233580000Y-98500000D03*
%TD*%
D13*
%TO.P,J3,1,Pin_1*%
%TO.N,+3.3V*%
X171000000Y-130000000D03*
D14*
%TO.P,J3,2,Pin_2*%
X171000000Y-132540000D03*
%TO.P,J3,3,Pin_3*%
X171000000Y-135080000D03*
%TO.P,J3,4,Pin_4*%
X171000000Y-137620000D03*
%TD*%
D13*
%TO.P,J7,1,Pin_1*%
%TO.N,GND*%
X185000000Y-130000000D03*
D14*
%TO.P,J7,2,Pin_2*%
%TO.N,+3.3V*%
X185000000Y-132540000D03*
%TO.P,J7,3,Pin_3*%
%TO.N,/RX*%
X185000000Y-135080000D03*
%TO.P,J7,4,Pin_4*%
%TO.N,/TX*%
X185000000Y-137620000D03*
%TD*%
D13*
%TO.P,J4,1,Pin_1*%
%TO.N,GND*%
X175650000Y-130000000D03*
D14*
%TO.P,J4,2,Pin_2*%
X175650000Y-132540000D03*
%TO.P,J4,3,Pin_3*%
X175650000Y-135080000D03*
%TO.P,J4,4,Pin_4*%
X175650000Y-137620000D03*
%TD*%
D12*
%TO.P,REF\u002A\u002A,3*%
%TO.N,GND*%
X204000000Y-101000000D03*
%TD*%
D17*
%TO.P,SW3,1,1*%
%TO.N,/RST*%
X158750000Y-134750000D03*
X165250000Y-134750000D03*
%TO.P,SW3,2,2*%
%TO.N,GND*%
X158750000Y-139250000D03*
X165250000Y-139250000D03*
%TD*%
D18*
%TO.P,A1,1,Vin*%
%TO.N,+3.3V*%
X141650000Y-115890000D03*
%TO.P,A1,2,3Vo*%
%TO.N,unconnected-(A1-3Vo-Pad2)*%
X144190000Y-115890000D03*
%TO.P,A1,3,GND*%
%TO.N,GND*%
X146730000Y-115890000D03*
%TO.P,A1,4,SCL*%
%TO.N,/SCK*%
X149270000Y-115890000D03*
%TO.P,A1,5,SDA*%
%TO.N,/MISO*%
X151810000Y-115890000D03*
%TO.P,A1,6,INT*%
%TO.N,/IMU_INT*%
X154350000Y-115890000D03*
%TO.P,A1,7,BT*%
%TO.N,unconnected-(A1-BT-Pad7)*%
X141650000Y-98110000D03*
%TO.P,A1,8,P0*%
%TO.N,+3.3V*%
X144190000Y-98110000D03*
%TO.P,A1,9,P1*%
X146730000Y-98110000D03*
%TO.P,A1,10,RST*%
%TO.N,/IMU_RST*%
X149270000Y-98110000D03*
%TO.P,A1,11,DI*%
%TO.N,/MOSI*%
X151810000Y-98110000D03*
%TO.P,A1,12,CS*%
%TO.N,/IMU_CS*%
X154350000Y-98110000D03*
%TD*%
D13*
%TO.P,J5,1,Pin_1*%
%TO.N,/BUCK_5V*%
X180300000Y-130000000D03*
D14*
%TO.P,J5,2,Pin_2*%
X180300000Y-132540000D03*
%TO.P,J5,3,Pin_3*%
X180300000Y-135080000D03*
%TO.P,J5,4,Pin_4*%
X180300000Y-137620000D03*
%TD*%
D12*
%TO.P,REF\u002A\u002A,2*%
%TO.N,GND*%
X162000000Y-126000000D03*
%TD*%
%TO.P,REF\u002A\u002A,4*%
%TO.N,GND*%
X247000000Y-138000000D03*
%TD*%
D19*
%TO.N,/VBAT_MOTOR_PRE*%
X237000000Y-105000000D03*
X241000000Y-104000000D03*
X240000000Y-104000000D03*
X241000000Y-108000000D03*
X241000000Y-109000000D03*
X240000000Y-109000000D03*
X240000000Y-108000000D03*
X241000000Y-107000000D03*
X240000000Y-107000000D03*
X239000000Y-107000000D03*
X238000000Y-107000000D03*
X238000000Y-106000000D03*
X239000000Y-106000000D03*
X240000000Y-106000000D03*
X241000000Y-106000000D03*
X241000000Y-105000000D03*
X240000000Y-105000000D03*
X239000000Y-105000000D03*
X238000000Y-105000000D03*
%TO.N,/VBAT_MOTOR*%
X247500000Y-102500000D03*
X248250000Y-101500000D03*
X248250000Y-99750000D03*
X247500000Y-98750000D03*
X244500000Y-98750000D03*
X244250000Y-102000000D03*
X243250000Y-101250000D03*
X243250000Y-100250000D03*
X243250000Y-99250000D03*
X242000000Y-99250000D03*
X242000000Y-100250000D03*
X242000000Y-101250000D03*
X240750000Y-101250000D03*
X240750000Y-100250000D03*
X240750000Y-99250000D03*
X239500000Y-99250000D03*
X239500000Y-100250000D03*
X239500000Y-101250000D03*
%TO.N,/VBAT*%
X239250000Y-119500000D03*
X239250000Y-118500000D03*
X239250000Y-117500000D03*
X239250000Y-116000000D03*
X239250000Y-114750000D03*
X239250000Y-113250000D03*
X236750000Y-119500000D03*
X236750000Y-120500000D03*
X235500000Y-120500000D03*
X235500000Y-119500000D03*
X234250000Y-119500000D03*
X233000000Y-119500000D03*
%TO.N,/VBAT_IN*%
X244000000Y-118000000D03*
X248000000Y-119000000D03*
X247000000Y-119000000D03*
X246000000Y-119000000D03*
X245000000Y-119000000D03*
X244000000Y-119000000D03*
X243000000Y-119000000D03*
X243000000Y-118000000D03*
X243000000Y-117000000D03*
X243000000Y-116000000D03*
X243000000Y-115000000D03*
%TO.N,GND*%
X238000000Y-127000000D03*
X236500000Y-126500000D03*
X235250000Y-126500000D03*
X235000000Y-132000000D03*
X234500000Y-133000000D03*
X233250000Y-133000000D03*
%TO.N,Net-(U3-SW)*%
X227250000Y-131750000D03*
%TO.N,GND*%
X232250000Y-138750000D03*
X232250000Y-137750000D03*
X232250000Y-136750000D03*
X231250000Y-138750000D03*
X231250000Y-137750000D03*
X231250000Y-136750000D03*
%TO.N,Net-(U3-SW)*%
X229250000Y-138500000D03*
%TO.N,+3.3V*%
X120000000Y-103250000D03*
X111000000Y-106000000D03*
X176000000Y-119000000D03*
X169000000Y-105750000D03*
X117500000Y-100500000D03*
X187000000Y-119000000D03*
X117500000Y-108500000D03*
X189250000Y-108000000D03*
X131000000Y-110000000D03*
X185250000Y-106000000D03*
X126500000Y-100500000D03*
X127500000Y-110250000D03*
X121500000Y-111000000D03*
X126500000Y-108500000D03*
X173000000Y-108250000D03*
X164000000Y-119000000D03*
X187250000Y-108000000D03*
X129000000Y-103250000D03*
X199000000Y-119000000D03*
X171000000Y-108250000D03*
X132750000Y-116750000D03*
X108000000Y-109000000D03*
%TO.N,GND*%
X125500000Y-107500000D03*
X194000000Y-119000000D03*
X121500000Y-122250000D03*
X200000000Y-136000000D03*
X248500000Y-128500000D03*
X224000000Y-137000000D03*
X205000000Y-119000000D03*
X182000000Y-119000000D03*
X108000000Y-110000000D03*
X116500000Y-107500000D03*
X213000000Y-128000000D03*
X209000000Y-138000000D03*
X171000000Y-119000000D03*
X132000000Y-114500000D03*
X231750000Y-106500000D03*
X215000000Y-128000000D03*
X233000000Y-124000000D03*
X201000000Y-135000000D03*
X183250000Y-106000000D03*
X167000000Y-105750000D03*
X241000000Y-97000000D03*
X125500000Y-99500000D03*
X116500000Y-99500000D03*
X120500000Y-113750000D03*
X231750000Y-107500000D03*
X120250000Y-135250000D03*
X217000000Y-128000000D03*
%TO.N,/SCK*%
X105250000Y-121000000D03*
X107000000Y-110000000D03*
X103750000Y-132000000D03*
%TO.N,/MISO*%
X112500000Y-135750000D03*
X138000000Y-130250000D03*
X135000000Y-133000000D03*
%TO.N,/MOSI*%
X112250000Y-110750000D03*
%TO.N,Net-(U3-SW)*%
X230250000Y-135500000D03*
%TO.N,/HALL_L_B*%
X132250000Y-133750000D03*
X134500000Y-130250000D03*
X137000000Y-127250000D03*
%TO.N,/HALL_R_A*%
X133250000Y-118000000D03*
X132250000Y-120500000D03*
X176750000Y-109250000D03*
%TO.N,/HALL_R_B*%
X138750000Y-120500000D03*
%TO.N,/SCL*%
X125000000Y-127500000D03*
X129000000Y-122250000D03*
%TO.N,/SDA*%
X127500000Y-129000000D03*
X131500000Y-122000000D03*
%TO.N,/TX*%
X132250000Y-141474500D03*
%TO.N,/RX*%
X129375000Y-141500000D03*
%TO.N,/A0*%
X166000000Y-120750000D03*
%TO.N,/A1*%
X178000000Y-121750000D03*
%TO.N,Net-(Q1-Pad2)*%
X216987701Y-139987701D03*
X214000000Y-140000000D03*
%TO.N,+5V*%
X216000000Y-141000000D03*
%TO.N,/SC0*%
X126521001Y-110048599D03*
X126237000Y-111750000D03*
%TO.N,/SD1*%
X124430812Y-111750000D03*
X120855003Y-111763534D03*
%TO.N,/SD2*%
X126093315Y-115650500D03*
X127750000Y-101000000D03*
%TO.N,/SC2*%
X125093812Y-115650500D03*
X131750000Y-101750000D03*
%TO.N,/RST*%
X142500000Y-136500000D03*
X138250000Y-134750000D03*
%TO.N,/VBAT_MCU*%
X125250000Y-136000000D03*
X241000000Y-128000000D03*
X231250000Y-133750000D03*
%TO.N,/TFT_RST*%
X111119622Y-107380378D03*
X120000000Y-121250000D03*
X118000000Y-118500000D03*
%TD*%
D20*
%TO.N,/PWM1*%
X142980000Y-138500000D02*
X142980000Y-137770000D01*
X142980000Y-137770000D02*
X148875000Y-131875000D01*
X148875000Y-131875000D02*
X149605000Y-131875000D01*
X149605000Y-131875000D02*
X150090000Y-131390000D01*
X150090000Y-131390000D02*
X196610000Y-131390000D01*
X196610000Y-131390000D02*
X208000000Y-120000000D01*
X208000000Y-120000000D02*
X208000000Y-116460000D01*
X208000000Y-116460000D02*
X225960000Y-98500000D01*
D21*
%TO.N,/A1*%
X117580000Y-123260000D02*
X126020000Y-131700000D01*
X165974695Y-121750000D02*
X178000000Y-121750000D01*
X126020000Y-131700000D02*
X128686396Y-131700000D01*
X128686396Y-131700000D02*
X128936396Y-131450000D01*
X128936396Y-131450000D02*
X149428960Y-131450000D01*
X149428960Y-131450000D02*
X149913960Y-130965000D01*
X149913960Y-130965000D02*
X150535000Y-130965000D01*
X150535000Y-130965000D02*
X160300000Y-121200000D01*
X160300000Y-121200000D02*
X165424695Y-121200000D01*
X165424695Y-121200000D02*
X165974695Y-121750000D01*
D20*
%TO.N,/PWM2*%
X145520000Y-138500000D02*
X146520000Y-139500000D01*
X146520000Y-139500000D02*
X153000000Y-139500000D01*
X153000000Y-139500000D02*
X157450000Y-135050000D01*
X157450000Y-135050000D02*
X157450000Y-134211522D01*
X157450000Y-134211522D02*
X158661522Y-133000000D01*
X158661522Y-133000000D02*
X169833654Y-133000000D01*
X169833654Y-133000000D02*
X170523654Y-133690000D01*
X210000000Y-120000000D02*
X210000000Y-116000000D01*
X210000000Y-116000000D02*
X211000000Y-115000000D01*
X211000000Y-115000000D02*
X222000000Y-115000000D01*
X170523654Y-133690000D02*
X196310000Y-133690000D01*
X196310000Y-133690000D02*
X210000000Y-120000000D01*
X222000000Y-115000000D02*
X233750000Y-103250000D01*
X233750000Y-103250000D02*
X233750000Y-101210000D01*
X233750000Y-101210000D02*
X231040000Y-98500000D01*
%TO.N,/VBAT_MCU*%
X233000000Y-135000000D02*
X232500000Y-135000000D01*
X232500000Y-135000000D02*
X231250000Y-133750000D01*
D22*
%TO.N,Net-(U3-SW)*%
X230250000Y-135500000D02*
X230250000Y-134000000D01*
X230250000Y-134000000D02*
X228000000Y-131750000D01*
X228000000Y-131750000D02*
X227250000Y-131750000D01*
X229250000Y-138500000D02*
X230250000Y-137500000D01*
X230250000Y-137500000D02*
X230250000Y-135500000D01*
D20*
%TO.N,/VBAT_MCU*%
X124000000Y-141250000D02*
X125000000Y-142250000D01*
X213722349Y-139287701D02*
X217277651Y-139287701D01*
X217277651Y-139287701D02*
X219989950Y-142000000D01*
X219989950Y-142000000D02*
X232000000Y-142000000D01*
X124000000Y-137250000D02*
X124000000Y-141250000D01*
X125000000Y-142250000D02*
X210760050Y-142250000D01*
X125250000Y-136000000D02*
X124000000Y-137250000D01*
X210760050Y-142250000D02*
X213722349Y-139287701D01*
X234000000Y-136000000D02*
X233000000Y-135000000D01*
X232000000Y-142000000D02*
X234000000Y-140000000D01*
X234000000Y-140000000D02*
X234000000Y-136000000D01*
X233000000Y-135000000D02*
X233500000Y-135000000D01*
X233500000Y-135000000D02*
X240500000Y-128000000D01*
X240500000Y-128000000D02*
X241000000Y-128000000D01*
%TO.N,/SCK*%
X103750000Y-132000000D02*
X103792600Y-132042600D01*
X110677565Y-121050000D02*
X105300000Y-121050000D01*
X149270000Y-115890000D02*
X145660000Y-119500000D01*
X103792600Y-132042600D02*
X103792600Y-135792600D01*
X112227565Y-119500000D02*
X110677565Y-121050000D01*
X107460000Y-136000000D02*
X109960000Y-138500000D01*
X105300000Y-121050000D02*
X105250000Y-121000000D01*
X103792600Y-131957400D02*
X103750000Y-132000000D01*
X103792600Y-113207400D02*
X103792600Y-131957400D01*
X107000000Y-110000000D02*
X103792600Y-113207400D01*
X145660000Y-119500000D02*
X112227565Y-119500000D01*
X103792600Y-135792600D02*
X104000000Y-136000000D01*
X104000000Y-136000000D02*
X107460000Y-136000000D01*
D21*
%TO.N,/MISO*%
X138000000Y-130250000D02*
X140103172Y-130250000D01*
X140103172Y-130250000D02*
X143603172Y-126750000D01*
X149250000Y-126750000D02*
X151810000Y-124190000D01*
X115250000Y-133000000D02*
X135000000Y-133000000D01*
X112500000Y-135750000D02*
X115250000Y-133000000D01*
X151810000Y-124190000D02*
X151810000Y-115890000D01*
X143603172Y-126750000D02*
X149250000Y-126750000D01*
D20*
%TO.N,/IMU_INT*%
X153288000Y-114828000D02*
X151370105Y-114828000D01*
X150748000Y-116002000D02*
X143490000Y-123260000D01*
X150748000Y-115450105D02*
X150748000Y-116002000D01*
X154350000Y-115890000D02*
X153288000Y-114828000D01*
X151370105Y-114828000D02*
X150748000Y-115450105D01*
X143490000Y-123260000D02*
X142980000Y-123260000D01*
%TO.N,/MOSI*%
X147670000Y-102250000D02*
X151810000Y-98110000D01*
X138050000Y-99800000D02*
X140500000Y-102250000D01*
X140500000Y-102250000D02*
X147670000Y-102250000D01*
X121510050Y-104500000D02*
X126210050Y-99800000D01*
X112250000Y-110750000D02*
X118500000Y-104500000D01*
X118500000Y-104500000D02*
X121510050Y-104500000D01*
X126210050Y-99800000D02*
X138050000Y-99800000D01*
D21*
%TO.N,/HALL_L_B*%
X132250000Y-133750000D02*
X135360000Y-136860000D01*
X135360000Y-136860000D02*
X135360000Y-138500000D01*
X134500000Y-129750000D02*
X134500000Y-130250000D01*
X137000000Y-127250000D02*
X134500000Y-129750000D01*
%TO.N,/HALL_R_A*%
X142000000Y-109250000D02*
X133250000Y-118000000D01*
D20*
X135360000Y-123260000D02*
X132600000Y-120500000D01*
D21*
X176750000Y-109250000D02*
X142000000Y-109250000D01*
D20*
X132600000Y-120500000D02*
X132250000Y-120500000D01*
D21*
%TO.N,/HALL_R_B*%
X138750000Y-120500000D02*
X137900000Y-121350000D01*
X137900000Y-121350000D02*
X137900000Y-123260000D01*
D23*
%TO.N,/SCL*%
X129000000Y-123500000D02*
X129000000Y-122250000D01*
X125000000Y-127500000D02*
X129000000Y-123500000D01*
%TO.N,/SDA*%
X131500000Y-125000000D02*
X131500000Y-122000000D01*
X127500000Y-129000000D02*
X131500000Y-125000000D01*
D21*
%TO.N,/TX*%
X132250000Y-141474500D02*
X132250000Y-140470000D01*
X132250000Y-140470000D02*
X130280000Y-138500000D01*
%TO.N,/RX*%
X129612400Y-137387600D02*
X131707600Y-137387600D01*
X129167600Y-141292600D02*
X129167600Y-137832400D01*
X129167600Y-137832400D02*
X129612400Y-137387600D01*
X131707600Y-137387600D02*
X132820000Y-138500000D01*
X129375000Y-141500000D02*
X129167600Y-141292600D01*
%TO.N,/A0*%
X149727564Y-130515000D02*
X150348604Y-130515000D01*
X119007600Y-123720772D02*
X126536828Y-131250000D01*
X118040772Y-122147600D02*
X119007600Y-123114428D01*
X128500000Y-131250000D02*
X128750000Y-131000000D01*
X160113604Y-120750000D02*
X166000000Y-120750000D01*
X150348604Y-130515000D02*
X160113604Y-120750000D01*
X116152400Y-122147600D02*
X118040772Y-122147600D01*
X115040000Y-123260000D02*
X116152400Y-122147600D01*
X119007600Y-123114428D02*
X119007600Y-123720772D01*
X128750000Y-131000000D02*
X149242564Y-131000000D01*
X149242564Y-131000000D02*
X149727564Y-130515000D01*
X126536828Y-131250000D02*
X128500000Y-131250000D01*
%TO.N,Net-(Q1-Pad2)*%
X216987701Y-139987701D02*
X216975402Y-140000000D01*
X216975402Y-140000000D02*
X214000000Y-140000000D01*
D20*
%TO.N,+5V*%
X111197400Y-124497400D02*
X111197400Y-140197400D01*
X115700000Y-142700000D02*
X214300000Y-142700000D01*
X109960000Y-123260000D02*
X111197400Y-124497400D01*
X214300000Y-142700000D02*
X216000000Y-141000000D01*
X111197400Y-140197400D02*
X113000000Y-142000000D01*
X115000000Y-142000000D02*
X115700000Y-142700000D01*
X113000000Y-142000000D02*
X115000000Y-142000000D01*
D23*
%TO.N,/SC0*%
X126521001Y-110048599D02*
X126521001Y-111465999D01*
X126521001Y-111465999D02*
X126237000Y-111750000D01*
%TO.N,/SD1*%
X124430812Y-111750000D02*
X120868537Y-111750000D01*
X120868537Y-111750000D02*
X120855003Y-111763534D01*
%TO.N,/SD2*%
X126287831Y-115650500D02*
X126093315Y-115650500D01*
X131989950Y-101000000D02*
X132413500Y-101423550D01*
X132413500Y-109524831D02*
X126287831Y-115650500D01*
X127750000Y-101000000D02*
X131989950Y-101000000D01*
X132413500Y-101423550D02*
X132413500Y-109524831D01*
%TO.N,/SC2*%
X125093812Y-108844519D02*
X131750000Y-102188331D01*
X125093812Y-115650500D02*
X125093812Y-108844519D01*
X131750000Y-102188331D02*
X131750000Y-101750000D01*
D21*
%TO.N,/RST*%
X138250000Y-134750000D02*
X140000000Y-136500000D01*
X158750000Y-134750000D02*
X165250000Y-134750000D01*
X140000000Y-136500000D02*
X142500000Y-136500000D01*
D20*
%TO.N,/TFT_RST*%
X121250000Y-120000000D02*
X127739950Y-120000000D01*
X130280000Y-122540050D02*
X130280000Y-123260000D01*
X111119622Y-107380378D02*
X111119622Y-110609572D01*
X118000000Y-117489950D02*
X118000000Y-118500000D01*
X127739950Y-120000000D02*
X130280000Y-122540050D01*
X120000000Y-121250000D02*
X121250000Y-120000000D01*
X111119622Y-110609572D02*
X118000000Y-117489950D01*
%TD*%
%TA.AperFunction,Conductor*%
%TO.N,/VBAT_MOTOR_PRE*%
G36*
X237482269Y-102537915D02*
G01*
X239496293Y-102599885D01*
X239503674Y-102600334D01*
X241587985Y-102789816D01*
X241644899Y-102809708D01*
X241685705Y-102854092D01*
X241700754Y-102912475D01*
X241749162Y-110125168D01*
X241732828Y-110187519D01*
X241687405Y-110233248D01*
X241625165Y-110250000D01*
X236324000Y-110250000D01*
X236262000Y-110233387D01*
X236216613Y-110188000D01*
X236200000Y-110126000D01*
X236200000Y-107624000D01*
X236216613Y-107562000D01*
X236262000Y-107516613D01*
X236324000Y-107500000D01*
X236500000Y-107500000D01*
X236500000Y-105500000D01*
X236252408Y-104262040D01*
X236250000Y-104237722D01*
X236250000Y-102627874D01*
X236267254Y-102564776D01*
X236314215Y-102519238D01*
X236377814Y-102503933D01*
X237482269Y-102537915D01*
G37*
%TD.AperFunction*%
%TD*%
%TA.AperFunction,Conductor*%
%TO.N,/VBAT*%
G36*
X239938000Y-112516613D02*
G01*
X239983387Y-112562000D01*
X240000000Y-112624000D01*
X240000000Y-122376000D01*
X239983387Y-122438000D01*
X239938000Y-122483387D01*
X239876000Y-122500000D01*
X237566363Y-122500000D01*
X237507853Y-122485328D01*
X237463189Y-122444783D01*
X236500000Y-121000000D01*
X234500000Y-121000000D01*
X234499999Y-121000000D01*
X234499998Y-121000001D01*
X234034273Y-121931454D01*
X233988555Y-121981481D01*
X233923364Y-122000000D01*
X232624000Y-122000000D01*
X232562000Y-121983387D01*
X232516613Y-121938000D01*
X232500000Y-121876000D01*
X232500000Y-112624000D01*
X232516613Y-112562000D01*
X232562000Y-112516613D01*
X232624000Y-112500000D01*
X239876000Y-112500000D01*
X239938000Y-112516613D01*
G37*
%TD.AperFunction*%
%TD*%
%TA.AperFunction,Conductor*%
%TO.N,/VBAT_MOTOR*%
G36*
X248938000Y-98016613D02*
G01*
X248983387Y-98062000D01*
X249000000Y-98124000D01*
X249000000Y-102876000D01*
X248983387Y-102938000D01*
X248938000Y-102983387D01*
X248876000Y-103000000D01*
X245029272Y-103000000D01*
X244973818Y-102986909D01*
X243000000Y-102000000D01*
X236124000Y-102000000D01*
X236062000Y-101983387D01*
X236016613Y-101938000D01*
X236000000Y-101876000D01*
X236000000Y-100076636D01*
X236018519Y-100011445D01*
X236068546Y-99965727D01*
X239973818Y-98013091D01*
X240029272Y-98000000D01*
X248876000Y-98000000D01*
X248938000Y-98016613D01*
G37*
%TD.AperFunction*%
%TD*%
%TA.AperFunction,Conductor*%
%TO.N,/VBAT_IN*%
G36*
X248438000Y-114016613D02*
G01*
X248483387Y-114062000D01*
X248500000Y-114124000D01*
X248500000Y-125876000D01*
X248483387Y-125938000D01*
X248438000Y-125983387D01*
X248376000Y-126000000D01*
X242124000Y-126000000D01*
X242062000Y-125983387D01*
X242016613Y-125938000D01*
X242000000Y-125876000D01*
X242000000Y-114124000D01*
X242016613Y-114062000D01*
X242062000Y-114016613D01*
X242124000Y-114000000D01*
X248376000Y-114000000D01*
X248438000Y-114016613D01*
G37*
%TD.AperFunction*%
%TD*%
M02*
