%TF.GenerationSoftware,KiCad,Pcbnew,7.0.1-0*%
%TF.CreationDate,2023-09-22T11:11:22-04:00*%
%TF.ProjectId,Segway V7,53656777-6179-4205-9637-2e6b69636164,V1*%
%TF.SameCoordinates,Original*%
%TF.FileFunction,Copper,L1,Top*%
%TF.FilePolarity,Positive*%
%FSLAX46Y46*%
G04 Gerber Fmt 4.6, Leading zero omitted, Abs format (unit mm)*
G04 Created by KiCad (PCBNEW 7.0.1-0) date 2023-09-22 11:11:22*
%MOMM*%
%LPD*%
G01*
G04 APERTURE LIST*
G04 Aperture macros list*
%AMRoundRect*
0 Rectangle with rounded corners*
0 $1 Rounding radius*
0 $2 $3 $4 $5 $6 $7 $8 $9 X,Y pos of 4 corners*
0 Add a 4 corners polygon primitive as box body*
4,1,4,$2,$3,$4,$5,$6,$7,$8,$9,$2,$3,0*
0 Add four circle primitives for the rounded corners*
1,1,$1+$1,$2,$3*
1,1,$1+$1,$4,$5*
1,1,$1+$1,$6,$7*
1,1,$1+$1,$8,$9*
0 Add four rect primitives between the rounded corners*
20,1,$1+$1,$2,$3,$4,$5,0*
20,1,$1+$1,$4,$5,$6,$7,0*
20,1,$1+$1,$6,$7,$8,$9,0*
20,1,$1+$1,$8,$9,$2,$3,0*%
G04 Aperture macros list end*
%TA.AperFunction,ComponentPad*%
%ADD10R,2.600000X2.600000*%
%TD*%
%TA.AperFunction,ComponentPad*%
%ADD11C,2.600000*%
%TD*%
%TA.AperFunction,SMDPad,CuDef*%
%ADD12RoundRect,0.150000X-0.150000X-0.625000X0.150000X-0.625000X0.150000X0.625000X-0.150000X0.625000X0*%
%TD*%
%TA.AperFunction,SMDPad,CuDef*%
%ADD13RoundRect,0.250000X-0.350000X-0.650000X0.350000X-0.650000X0.350000X0.650000X-0.350000X0.650000X0*%
%TD*%
%TA.AperFunction,SMDPad,CuDef*%
%ADD14RoundRect,0.135000X-0.185000X0.135000X-0.185000X-0.135000X0.185000X-0.135000X0.185000X0.135000X0*%
%TD*%
%TA.AperFunction,ComponentPad*%
%ADD15C,7.500000*%
%TD*%
%TA.AperFunction,SMDPad,CuDef*%
%ADD16RoundRect,0.048800X-0.541200X-0.256200X0.541200X-0.256200X0.541200X0.256200X-0.541200X0.256200X0*%
%TD*%
%TA.AperFunction,ComponentPad*%
%ADD17R,1.700000X1.700000*%
%TD*%
%TA.AperFunction,ComponentPad*%
%ADD18O,1.700000X1.700000*%
%TD*%
%TA.AperFunction,SMDPad,CuDef*%
%ADD19RoundRect,0.250000X-0.625000X0.375000X-0.625000X-0.375000X0.625000X-0.375000X0.625000X0.375000X0*%
%TD*%
%TA.AperFunction,SMDPad,CuDef*%
%ADD20RoundRect,0.250000X0.250000X1.500000X-0.250000X1.500000X-0.250000X-1.500000X0.250000X-1.500000X0*%
%TD*%
%TA.AperFunction,SMDPad,CuDef*%
%ADD21RoundRect,0.250001X0.499999X1.449999X-0.499999X1.449999X-0.499999X-1.449999X0.499999X-1.449999X0*%
%TD*%
%TA.AperFunction,SMDPad,CuDef*%
%ADD22RoundRect,0.135000X0.185000X-0.135000X0.185000X0.135000X-0.185000X0.135000X-0.185000X-0.135000X0*%
%TD*%
%TA.AperFunction,SMDPad,CuDef*%
%ADD23RoundRect,0.020500X-0.184500X0.764500X-0.184500X-0.764500X0.184500X-0.764500X0.184500X0.764500X0*%
%TD*%
%TA.AperFunction,SMDPad,CuDef*%
%ADD24RoundRect,0.135000X0.135000X0.185000X-0.135000X0.185000X-0.135000X-0.185000X0.135000X-0.185000X0*%
%TD*%
%TA.AperFunction,SMDPad,CuDef*%
%ADD25RoundRect,0.041300X0.683700X0.253700X-0.683700X0.253700X-0.683700X-0.253700X0.683700X-0.253700X0*%
%TD*%
%TA.AperFunction,SMDPad,CuDef*%
%ADD26RoundRect,0.135000X-0.135000X-0.185000X0.135000X-0.185000X0.135000X0.185000X-0.135000X0.185000X0*%
%TD*%
%TA.AperFunction,ComponentPad*%
%ADD27C,1.574800*%
%TD*%
%TA.AperFunction,ComponentPad*%
%ADD28R,1.473200X1.473200*%
%TD*%
%TA.AperFunction,SMDPad,CuDef*%
%ADD29RoundRect,0.250000X-2.500000X0.250000X-2.500000X-0.250000X2.500000X-0.250000X2.500000X0.250000X0*%
%TD*%
%TA.AperFunction,SMDPad,CuDef*%
%ADD30RoundRect,0.250000X-1.250000X0.550000X-1.250000X-0.550000X1.250000X-0.550000X1.250000X0.550000X0*%
%TD*%
%TA.AperFunction,SMDPad,CuDef*%
%ADD31RoundRect,0.250000X-0.325000X-1.100000X0.325000X-1.100000X0.325000X1.100000X-0.325000X1.100000X0*%
%TD*%
%TA.AperFunction,SMDPad,CuDef*%
%ADD32RoundRect,0.218750X-0.218750X-0.256250X0.218750X-0.256250X0.218750X0.256250X-0.218750X0.256250X0*%
%TD*%
%TA.AperFunction,SMDPad,CuDef*%
%ADD33RoundRect,0.250000X0.475000X-0.337500X0.475000X0.337500X-0.475000X0.337500X-0.475000X-0.337500X0*%
%TD*%
%TA.AperFunction,SMDPad,CuDef*%
%ADD34RoundRect,0.250000X-0.250000X-2.500000X0.250000X-2.500000X0.250000X2.500000X-0.250000X2.500000X0*%
%TD*%
%TA.AperFunction,SMDPad,CuDef*%
%ADD35RoundRect,0.250000X-0.550000X-1.250000X0.550000X-1.250000X0.550000X1.250000X-0.550000X1.250000X0*%
%TD*%
%TA.AperFunction,SMDPad,CuDef*%
%ADD36RoundRect,0.218750X0.218750X0.256250X-0.218750X0.256250X-0.218750X-0.256250X0.218750X-0.256250X0*%
%TD*%
%TA.AperFunction,SMDPad,CuDef*%
%ADD37RoundRect,0.250000X-0.700000X1.950000X-0.700000X-1.950000X0.700000X-1.950000X0.700000X1.950000X0*%
%TD*%
%TA.AperFunction,SMDPad,CuDef*%
%ADD38R,4.950000X3.175000*%
%TD*%
%TA.AperFunction,SMDPad,CuDef*%
%ADD39RoundRect,0.250000X0.250000X0.475000X-0.250000X0.475000X-0.250000X-0.475000X0.250000X-0.475000X0*%
%TD*%
%TA.AperFunction,ComponentPad*%
%ADD40C,2.000000*%
%TD*%
%TA.AperFunction,ComponentPad*%
%ADD41C,1.524000*%
%TD*%
%TA.AperFunction,SMDPad,CuDef*%
%ADD42RoundRect,0.250000X-1.100000X0.325000X-1.100000X-0.325000X1.100000X-0.325000X1.100000X0.325000X0*%
%TD*%
%TA.AperFunction,SMDPad,CuDef*%
%ADD43RoundRect,0.012400X-1.027600X-0.297600X1.027600X-0.297600X1.027600X0.297600X-1.027600X0.297600X0*%
%TD*%
%TA.AperFunction,SMDPad,CuDef*%
%ADD44RoundRect,0.164100X-2.790900X-2.570900X2.790900X-2.570900X2.790900X2.570900X-2.790900X2.570900X0*%
%TD*%
%TA.AperFunction,SMDPad,CuDef*%
%ADD45RoundRect,0.250000X0.375000X0.625000X-0.375000X0.625000X-0.375000X-0.625000X0.375000X-0.625000X0*%
%TD*%
%TA.AperFunction,SMDPad,CuDef*%
%ADD46RoundRect,0.090000X-0.585000X-0.210000X0.585000X-0.210000X0.585000X0.210000X-0.585000X0.210000X0*%
%TD*%
%TA.AperFunction,SMDPad,CuDef*%
%ADD47RoundRect,0.012400X-0.297600X1.027600X-0.297600X-1.027600X0.297600X-1.027600X0.297600X1.027600X0*%
%TD*%
%TA.AperFunction,SMDPad,CuDef*%
%ADD48RoundRect,0.164100X-2.570900X2.790900X-2.570900X-2.790900X2.570900X-2.790900X2.570900X2.790900X0*%
%TD*%
%TA.AperFunction,SMDPad,CuDef*%
%ADD49R,1.300000X0.300000*%
%TD*%
%TA.AperFunction,SMDPad,CuDef*%
%ADD50R,2.200000X1.800000*%
%TD*%
%TA.AperFunction,ViaPad*%
%ADD51C,0.800000*%
%TD*%
%TA.AperFunction,Conductor*%
%ADD52C,0.127000*%
%TD*%
%TA.AperFunction,Conductor*%
%ADD53C,0.250000*%
%TD*%
%TA.AperFunction,Conductor*%
%ADD54C,0.200000*%
%TD*%
%TA.AperFunction,Conductor*%
%ADD55C,1.000000*%
%TD*%
%TA.AperFunction,Conductor*%
%ADD56C,0.500000*%
%TD*%
G04 APERTURE END LIST*
D10*
%TO.P,J10,1,Pin_1*%
%TO.N,/VBAT_IN*%
X246000000Y-116080000D03*
D11*
%TO.P,J10,2,Pin_2*%
%TO.N,GND*%
X246000000Y-111000000D03*
%TO.P,J10,3,Pin_3*%
X246000000Y-105920000D03*
%TO.P,J10,4,Pin_4*%
%TO.N,/VBAT_MOTOR*%
X246000000Y-100840000D03*
%TD*%
D12*
%TO.P,i2c1,1,GND*%
%TO.N,GND*%
X118000000Y-99000000D03*
%TO.P,i2c1,2,3.3V*%
%TO.N,+3.3V*%
X119000000Y-99000000D03*
%TO.P,i2c1,3,SDA*%
%TO.N,/SD0*%
X120000000Y-99000000D03*
%TO.P,i2c1,4,SCL*%
%TO.N,/SC0*%
X121000000Y-99000000D03*
D13*
%TO.P,i2c1,MP*%
%TO.N,N/C*%
X116700000Y-96475000D03*
X122300000Y-96475000D03*
%TD*%
D14*
%TO.P,RSD2,1*%
%TO.N,/SD2*%
X129000000Y-100990000D03*
%TO.P,RSD2,2*%
%TO.N,+3.3V*%
X129000000Y-102010000D03*
%TD*%
D15*
%TO.P,REF\u002A\u002A,1*%
%TO.N,GND*%
X109000000Y-117000000D03*
%TD*%
D16*
%TO.P,Q2,1*%
%TO.N,Net-(Q1-Pad1)*%
X217975000Y-137085000D03*
%TO.P,Q2,2*%
%TO.N,+5V*%
X217975000Y-138915000D03*
%TO.P,Q2,3*%
%TO.N,/BUCK_5V*%
X220025000Y-138000000D03*
%TD*%
D17*
%TO.P,J2,1,Pin_1*%
%TO.N,GND*%
X199500000Y-139500000D03*
D18*
%TO.P,J2,2,Pin_2*%
%TO.N,Net-(J2-Pin_2)*%
X202040000Y-139500000D03*
%TO.P,J2,3,Pin_3*%
%TO.N,/BUCK_5V*%
X204580000Y-139500000D03*
%TD*%
D19*
%TO.P,F2,1*%
%TO.N,/VBAT_MOTOR*%
X237500000Y-100600000D03*
%TO.P,F2,2*%
%TO.N,/VBAT_MOTOR_PRE*%
X237500000Y-103400000D03*
%TD*%
D20*
%TO.P,E2,1,A*%
%TO.N,/HALL_R_A*%
X189250000Y-103350000D03*
%TO.P,E2,2,B*%
%TO.N,/HALL_R_B*%
X187250000Y-103350000D03*
%TO.P,E2,3,VCC*%
%TO.N,+3.3V*%
X185250000Y-103350000D03*
%TO.P,E2,4,GND*%
%TO.N,GND*%
X183250000Y-103350000D03*
D21*
%TO.P,E2,MP*%
%TO.N,N/C*%
X191600000Y-97600000D03*
X180900000Y-97600000D03*
%TD*%
D22*
%TO.P,R2,1*%
%TO.N,+3.3V*%
X171000000Y-107250000D03*
%TO.P,R2,2*%
%TO.N,/HALL_L_B*%
X171000000Y-106230000D03*
%TD*%
D23*
%TO.P,U2,1,A0*%
%TO.N,Net-(U2-A0)*%
X128850000Y-113760000D03*
%TO.P,U2,2,A1*%
%TO.N,Net-(U2-A1)*%
X128200000Y-113760000D03*
%TO.P,U2,3,~{RESET}*%
%TO.N,Net-(U2-~{RESET})*%
X127550000Y-113760000D03*
%TO.P,U2,4,SD0*%
%TO.N,/SD0*%
X126900000Y-113760000D03*
%TO.P,U2,5,SC0*%
%TO.N,/SC0*%
X126250000Y-113760000D03*
%TO.P,U2,6,SD1*%
%TO.N,/SD1*%
X125600000Y-113760000D03*
%TO.P,U2,7,SC1*%
%TO.N,/SC1*%
X124950000Y-113760000D03*
%TO.P,U2,8,SD2*%
%TO.N,/SD2*%
X124300000Y-113760000D03*
%TO.P,U2,9,SC2*%
%TO.N,/SC2*%
X123650000Y-113760000D03*
%TO.P,U2,10,SD3*%
%TO.N,/SD3*%
X123000000Y-113760000D03*
%TO.P,U2,11,SC3*%
%TO.N,/SC3*%
X122350000Y-113760000D03*
%TO.P,U2,12,GND*%
%TO.N,GND*%
X121700000Y-113760000D03*
%TO.P,U2,13,SD4*%
%TO.N,unconnected-(U2-SD4-Pad13)*%
X121700000Y-119500000D03*
%TO.P,U2,14,SC4*%
%TO.N,unconnected-(U2-SC4-Pad14)*%
X122350000Y-119500000D03*
%TO.P,U2,15,SD5*%
%TO.N,unconnected-(U2-SD5-Pad15)*%
X123000000Y-119500000D03*
%TO.P,U2,16,SC5*%
%TO.N,unconnected-(U2-SC5-Pad16)*%
X123650000Y-119500000D03*
%TO.P,U2,17,SD6*%
%TO.N,unconnected-(U2-SD6-Pad17)*%
X124300000Y-119500000D03*
%TO.P,U2,18,SC6*%
%TO.N,unconnected-(U2-SC6-Pad18)*%
X124950000Y-119500000D03*
%TO.P,U2,19,SD7*%
%TO.N,unconnected-(U2-SD7-Pad19)*%
X125600000Y-119500000D03*
%TO.P,U2,20,SC7*%
%TO.N,unconnected-(U2-SC7-Pad20)*%
X126250000Y-119500000D03*
%TO.P,U2,21,A2*%
%TO.N,Net-(U2-A2)*%
X126900000Y-119500000D03*
%TO.P,U2,22,SCL*%
%TO.N,/SCL*%
X127550000Y-119500000D03*
%TO.P,U2,23,SDA*%
%TO.N,/SDA*%
X128200000Y-119500000D03*
%TO.P,U2,24,VCC*%
%TO.N,+3.3V*%
X128850000Y-119500000D03*
%TD*%
D24*
%TO.P,RSE1,1*%
%TO.N,Net-(U5-SE)*%
X236050000Y-125000000D03*
%TO.P,RSE1,2*%
%TO.N,GND*%
X235030000Y-125000000D03*
%TD*%
D14*
%TO.P,R_I2C_PULLUP1,1*%
%TO.N,+3.3V*%
X127500000Y-111250000D03*
%TO.P,R_I2C_PULLUP1,2*%
%TO.N,Net-(U2-~{RESET})*%
X127500000Y-112270000D03*
%TD*%
%TO.P,RSD1,1*%
%TO.N,/SD1*%
X120000000Y-108980000D03*
%TO.P,RSD1,2*%
%TO.N,+3.3V*%
X120000000Y-110000000D03*
%TD*%
D25*
%TO.P,U3,1,GND*%
%TO.N,GND*%
X228655000Y-136507500D03*
%TO.P,U3,2,SW*%
%TO.N,Net-(U3-SW)*%
X228655000Y-135557500D03*
%TO.P,U3,3,VIN*%
%TO.N,/VBAT_MCU*%
X228655000Y-134607500D03*
%TO.P,U3,4,VFB*%
%TO.N,Net-(U3-VFB)*%
X226345000Y-134607500D03*
%TO.P,U3,5,EN*%
%TO.N,/VBAT_MCU*%
X226345000Y-135557500D03*
%TO.P,U3,6,VBST*%
%TO.N,Net-(U3-VBST)*%
X226345000Y-136507500D03*
%TD*%
D24*
%TO.P,RCs1,1*%
%TO.N,Net-(U5-CS)*%
X236060000Y-124000000D03*
%TO.P,RCs1,2*%
%TO.N,GND*%
X235040000Y-124000000D03*
%TD*%
D26*
%TO.P,R_ZVD_2,1*%
%TO.N,Net-(Q1-Pad1)*%
X210455000Y-137085000D03*
%TO.P,R_ZVD_2,2*%
%TO.N,GND*%
X211475000Y-137085000D03*
%TD*%
D22*
%TO.P,RSE2,1*%
%TO.N,Net-(U6-SE)*%
X233040000Y-107020000D03*
%TO.P,RSE2,2*%
%TO.N,GND*%
X233040000Y-106000000D03*
%TD*%
D14*
%TO.P,RSC1,1*%
%TO.N,/SC1*%
X121000000Y-109000000D03*
%TO.P,RSC1,2*%
%TO.N,+3.3V*%
X121000000Y-110020000D03*
%TD*%
D26*
%TO.P,R_LED1,1*%
%TO.N,/WS2812*%
X193730000Y-139750000D03*
%TO.P,R_LED1,2*%
%TO.N,Net-(J2-Pin_2)*%
X194750000Y-139750000D03*
%TD*%
D27*
%TO.P,U1,34,IO35*%
%TO.N,/MOSI*%
X104880000Y-138500000D03*
%TO.P,U1,33,IO37*%
%TO.N,/MISO*%
X107420000Y-138500000D03*
%TO.P,U1,32,IO36*%
%TO.N,/SCK*%
X109960000Y-138500000D03*
%TO.P,U1,31,IO34*%
%TO.N,/TFT_D{slash}C*%
X112500000Y-138500000D03*
%TO.P,U1,30,IO9*%
%TO.N,/SCL*%
X115040000Y-138500000D03*
%TO.P,U1,29,IO8*%
%TO.N,/SDA*%
X117580000Y-138500000D03*
%TO.P,U1,28,IO7*%
%TO.N,/WS2812*%
X120120000Y-138500000D03*
%TO.P,U1,27,IO6*%
%TO.N,/BAT_READING*%
X122660000Y-138500000D03*
%TO.P,U1,26,RST*%
%TO.N,/RST*%
X125200000Y-138500000D03*
D28*
%TO.P,U1,25,GND*%
%TO.N,GND*%
X127740000Y-138500000D03*
D27*
%TO.P,U1,24,TX*%
%TO.N,/TX*%
X130280000Y-138500000D03*
%TO.P,U1,23,RX*%
%TO.N,/RX*%
X132820000Y-138500000D03*
%TO.P,U1,22,IO38*%
%TO.N,/HALL_L_B*%
X135360000Y-138500000D03*
%TO.P,U1,21,IO39*%
%TO.N,/DIR1*%
X137900000Y-138500000D03*
%TO.P,U1,20,IO40*%
%TO.N,/DIR2*%
X140440000Y-138500000D03*
%TO.P,U1,19,IO41*%
%TO.N,/PWM1*%
X142980000Y-138500000D03*
%TO.P,U1,18,IO42*%
%TO.N,/PWM2*%
X145520000Y-138500000D03*
%TO.P,U1,17,IO12*%
%TO.N,/IMU_CS*%
X145520000Y-123260000D03*
%TO.P,U1,16,IO13*%
%TO.N,/IMU_INT*%
X142980000Y-123260000D03*
%TO.P,U1,15,IO14*%
%TO.N,/IMU_RST*%
X140440000Y-123260000D03*
%TO.P,U1,14,IO15*%
%TO.N,/HALL_R_B*%
X137900000Y-123260000D03*
%TO.P,U1,13,IO16*%
%TO.N,/HALL_R_A*%
X135360000Y-123260000D03*
%TO.P,U1,12,LDO2_OUT*%
%TO.N,unconnected-(U1-LDO2_OUT-Pad12)*%
X132820000Y-123260000D03*
%TO.P,U1,11,IO0*%
%TO.N,/TFT_RST*%
X130280000Y-123260000D03*
%TO.P,U1,10,IO21*%
%TO.N,/HALL_L_A*%
X127740000Y-123260000D03*
%TO.P,U1,9,IO5*%
%TO.N,/A4*%
X125200000Y-123260000D03*
%TO.P,U1,8,IO4*%
%TO.N,/A3*%
X122660000Y-123260000D03*
%TO.P,U1,7,IO3*%
%TO.N,/TFT_CS*%
X120120000Y-123260000D03*
%TO.P,U1,6,IO2*%
%TO.N,/A1*%
X117580000Y-123260000D03*
%TO.P,U1,5,IO1*%
%TO.N,/A0*%
X115040000Y-123260000D03*
%TO.P,U1,4,3V3*%
%TO.N,+3.3V*%
X112500000Y-123260000D03*
%TO.P,U1,3,5V*%
%TO.N,+5V*%
X109960000Y-123260000D03*
D28*
%TO.P,U1,2,GND*%
%TO.N,GND*%
X107420000Y-123260000D03*
D27*
%TO.P,U1,1,VBAT*%
%TO.N,unconnected-(U1-VBAT-Pad1)*%
X104880000Y-123260000D03*
%TD*%
D17*
%TO.P,J8,1,Pin_1*%
%TO.N,/DIR1*%
X223420000Y-98500000D03*
D18*
%TO.P,J8,2,Pin_2*%
%TO.N,/PWM1*%
X225960000Y-98500000D03*
%TO.P,J8,3,Pin_3*%
%TO.N,/DIR2*%
X228500000Y-98500000D03*
%TO.P,J8,4,Pin_4*%
%TO.N,/PWM2*%
X231040000Y-98500000D03*
%TO.P,J8,5,Pin_5*%
%TO.N,GND*%
X233580000Y-98500000D03*
%TD*%
D17*
%TO.P,J3,1,Pin_1*%
%TO.N,+3.3V*%
X171000000Y-130000000D03*
D18*
%TO.P,J3,2,Pin_2*%
X171000000Y-132540000D03*
%TO.P,J3,3,Pin_3*%
X171000000Y-135080000D03*
%TO.P,J3,4,Pin_4*%
X171000000Y-137620000D03*
%TD*%
D17*
%TO.P,J7,1,Pin_1*%
%TO.N,GND*%
X185000000Y-130000000D03*
D18*
%TO.P,J7,2,Pin_2*%
%TO.N,+3.3V*%
X185000000Y-132540000D03*
%TO.P,J7,3,Pin_3*%
%TO.N,/RX*%
X185000000Y-135080000D03*
%TO.P,J7,4,Pin_4*%
%TO.N,/TX*%
X185000000Y-137620000D03*
%TD*%
D24*
%TO.P,RBAT2,1*%
%TO.N,/BAT_READING*%
X122260000Y-136000000D03*
%TO.P,RBAT2,2*%
%TO.N,GND*%
X121240000Y-136000000D03*
%TD*%
D29*
%TO.P,POWER SWITCH,1*%
%TO.N,Net-(R_PWR1-Pad1)*%
X236250000Y-136100000D03*
%TO.P,POWER SWITCH,2*%
%TO.N,/VBAT_IN*%
X236250000Y-138100000D03*
D30*
%TO.P,POWER SWITCH,MP*%
%TO.N,N/C*%
X238500000Y-133700000D03*
X238500000Y-140500000D03*
%TD*%
D31*
%TO.P,Cin1,1*%
%TO.N,/VBAT_MCU*%
X231065000Y-130007500D03*
%TO.P,Cin1,2*%
%TO.N,GND*%
X234015000Y-130007500D03*
%TD*%
D32*
%TO.P,D1,1,K*%
%TO.N,GND*%
X242425000Y-97000000D03*
%TO.P,D1,2,A*%
%TO.N,Net-(D1-A)*%
X244000000Y-97000000D03*
%TD*%
D33*
%TO.P,C_i2C1,1*%
%TO.N,+3.3V*%
X130500000Y-117537500D03*
%TO.P,C_i2C1,2*%
%TO.N,GND*%
X130500000Y-115462500D03*
%TD*%
D34*
%TO.P,MOTOR SWITCH,1*%
%TO.N,Net-(R_MTR1-Pad1)*%
X225540000Y-107000000D03*
%TO.P,MOTOR SWITCH,2*%
%TO.N,/VBAT*%
X227540000Y-107000000D03*
D35*
%TO.P,MOTOR SWITCH,MP*%
%TO.N,N/C*%
X223140000Y-104750000D03*
X229940000Y-104750000D03*
%TD*%
D36*
%TO.P,D2,1,K*%
%TO.N,GND*%
X247115000Y-128000000D03*
%TO.P,D2,2,A*%
%TO.N,Net-(D2-A)*%
X245540000Y-128000000D03*
%TD*%
D22*
%TO.P,RCs2,1*%
%TO.N,Net-(U6-CS)*%
X234000000Y-107000000D03*
%TO.P,RCs2,2*%
%TO.N,GND*%
X234000000Y-105980000D03*
%TD*%
D14*
%TO.P,Rfbb1,1*%
%TO.N,Net-(U3-VFB)*%
X224040000Y-134500000D03*
%TO.P,Rfbb1,2*%
%TO.N,GND*%
X224040000Y-135520000D03*
%TD*%
D12*
%TO.P,i2c4,1,GND*%
%TO.N,GND*%
X127000000Y-106825000D03*
%TO.P,i2c4,2,3.3V*%
%TO.N,+3.3V*%
X128000000Y-106825000D03*
%TO.P,i2c4,3,SDA*%
%TO.N,/SD3*%
X129000000Y-106825000D03*
%TO.P,i2c4,4,SCL*%
%TO.N,/SC3*%
X130000000Y-106825000D03*
D13*
%TO.P,i2c4,MP*%
%TO.N,N/C*%
X125700000Y-104300000D03*
X131300000Y-104300000D03*
%TD*%
D17*
%TO.P,J4,1,Pin_1*%
%TO.N,GND*%
X175650000Y-130000000D03*
D18*
%TO.P,J4,2,Pin_2*%
X175650000Y-132540000D03*
%TO.P,J4,3,Pin_3*%
X175650000Y-135080000D03*
%TO.P,J4,4,Pin_4*%
X175650000Y-137620000D03*
%TD*%
D37*
%TO.P,C_LED1,1*%
%TO.N,/BUCK_5V*%
X202500000Y-124650000D03*
%TO.P,C_LED1,2*%
%TO.N,GND*%
X202500000Y-133350000D03*
%TD*%
D14*
%TO.P,RSC0,1*%
%TO.N,/SC0*%
X121000000Y-101000000D03*
%TO.P,RSC0,2*%
%TO.N,+3.3V*%
X121000000Y-102020000D03*
%TD*%
D26*
%TO.P,R7,1*%
%TO.N,Net-(U2-A0)*%
X129980000Y-113500000D03*
%TO.P,R7,2*%
%TO.N,GND*%
X131000000Y-113500000D03*
%TD*%
D22*
%TO.P,Rfbt1,1*%
%TO.N,/BUCK_5V*%
X223000000Y-135510000D03*
%TO.P,Rfbt1,2*%
%TO.N,Net-(U3-VFB)*%
X223000000Y-134490000D03*
%TD*%
D24*
%TO.P,R_PWR2,1*%
%TO.N,Net-(U5-INPUT)*%
X236080000Y-122000000D03*
%TO.P,R_PWR2,2*%
%TO.N,GND*%
X235060000Y-122000000D03*
%TD*%
D14*
%TO.P,R_MTR1,1*%
%TO.N,Net-(R_MTR1-Pad1)*%
X236000000Y-106000000D03*
%TO.P,R_MTR1,2*%
%TO.N,Net-(U6-INPUT)*%
X236000000Y-107020000D03*
%TD*%
%TO.P,RSC3,1*%
%TO.N,/SC3*%
X130000000Y-108980000D03*
%TO.P,RSC3,2*%
%TO.N,+3.3V*%
X130000000Y-110000000D03*
%TD*%
D38*
%TO.P,L1,1,1*%
%TO.N,Net-(U3-SW)*%
X223540000Y-128507500D03*
%TO.P,L1,2,2*%
%TO.N,/BUCK_5V*%
X223540000Y-119492500D03*
%TD*%
D15*
%TO.P,REF\u002A\u002A,3*%
%TO.N,GND*%
X204000000Y-101000000D03*
%TD*%
D12*
%TO.P,i2c2,1,GND*%
%TO.N,GND*%
X118000000Y-106825000D03*
%TO.P,i2c2,2,3.3V*%
%TO.N,+3.3V*%
X119000000Y-106825000D03*
%TO.P,i2c2,3,SDA*%
%TO.N,/SD1*%
X120000000Y-106825000D03*
%TO.P,i2c2,4,SCL*%
%TO.N,/SC1*%
X121000000Y-106825000D03*
D13*
%TO.P,i2c2,MP*%
%TO.N,N/C*%
X116700000Y-104300000D03*
X122300000Y-104300000D03*
%TD*%
D39*
%TO.P,Cbst1,1*%
%TO.N,Net-(U3-SW)*%
X227950000Y-138500000D03*
%TO.P,Cbst1,2*%
%TO.N,Net-(U3-VBST)*%
X226050000Y-138500000D03*
%TD*%
D24*
%TO.P,RBAT1,1*%
%TO.N,/VBAT_MCU*%
X124260000Y-136000000D03*
%TO.P,RBAT1,2*%
%TO.N,/BAT_READING*%
X123240000Y-136000000D03*
%TD*%
D22*
%TO.P,R1,1*%
%TO.N,+3.3V*%
X173000000Y-107260000D03*
%TO.P,R1,2*%
%TO.N,/HALL_L_A*%
X173000000Y-106240000D03*
%TD*%
D40*
%TO.P,SW3,1,1*%
%TO.N,/RST*%
X158750000Y-134750000D03*
X165250000Y-134750000D03*
%TO.P,SW3,2,2*%
%TO.N,GND*%
X158750000Y-139250000D03*
X165250000Y-139250000D03*
%TD*%
D26*
%TO.P,R_PWR1,1*%
%TO.N,Net-(R_PWR1-Pad1)*%
X235040000Y-123000000D03*
%TO.P,R_PWR1,2*%
%TO.N,Net-(U5-INPUT)*%
X236060000Y-123000000D03*
%TD*%
D24*
%TO.P,R_ZVD_1,1*%
%TO.N,Net-(Q1-Pad2)*%
X211475000Y-139085000D03*
%TO.P,R_ZVD_1,2*%
%TO.N,GND*%
X210455000Y-139085000D03*
%TD*%
D14*
%TO.P,RSD3,1*%
%TO.N,/SD3*%
X129000000Y-108990000D03*
%TO.P,RSD3,2*%
%TO.N,+3.3V*%
X129000000Y-110010000D03*
%TD*%
D22*
%TO.P,R_MTR2,1*%
%TO.N,Net-(U6-INPUT)*%
X235040000Y-107000000D03*
%TO.P,R_MTR2,2*%
%TO.N,GND*%
X235040000Y-105980000D03*
%TD*%
D12*
%TO.P,i2c3,1,GND*%
%TO.N,GND*%
X127000000Y-99000000D03*
%TO.P,i2c3,2,3.3V*%
%TO.N,+3.3V*%
X128000000Y-99000000D03*
%TO.P,i2c3,3,SDA*%
%TO.N,/SD2*%
X129000000Y-99000000D03*
%TO.P,i2c3,4,SCL*%
%TO.N,/SC2*%
X130000000Y-99000000D03*
D13*
%TO.P,i2c3,MP*%
%TO.N,N/C*%
X125700000Y-96475000D03*
X131300000Y-96475000D03*
%TD*%
D34*
%TO.P,POT3,1,1*%
%TO.N,+3.3V*%
X188400000Y-115250000D03*
%TO.P,POT3,2,2*%
%TO.N,/A3*%
X190400000Y-115250000D03*
%TO.P,POT3,3,3*%
%TO.N,GND*%
X192400000Y-115250000D03*
D35*
%TO.P,POT3,MP*%
%TO.N,N/C*%
X186000000Y-113000000D03*
X194800000Y-113000000D03*
%TD*%
D24*
%TO.P,R_MOTOR1,1*%
%TO.N,/VBAT_MOTOR*%
X246500000Y-97000000D03*
%TO.P,R_MOTOR1,2*%
%TO.N,Net-(D1-A)*%
X245480000Y-97000000D03*
%TD*%
D41*
%TO.P,A1,1,Vin*%
%TO.N,+3.3V*%
X141650000Y-115890000D03*
%TO.P,A1,2,3Vo*%
%TO.N,unconnected-(A1-3Vo-Pad2)*%
X144190000Y-115890000D03*
%TO.P,A1,3,GND*%
%TO.N,GND*%
X146730000Y-115890000D03*
%TO.P,A1,4,SCL*%
%TO.N,/SCK*%
X149270000Y-115890000D03*
%TO.P,A1,5,SDA*%
%TO.N,/MISO*%
X151810000Y-115890000D03*
%TO.P,A1,6,INT*%
%TO.N,/IMU_INT*%
X154350000Y-115890000D03*
%TO.P,A1,7,BT*%
%TO.N,unconnected-(A1-BT-Pad7)*%
X141650000Y-98110000D03*
%TO.P,A1,8,P0*%
%TO.N,+3.3V*%
X144190000Y-98110000D03*
%TO.P,A1,9,P1*%
X146730000Y-98110000D03*
%TO.P,A1,10,RST*%
%TO.N,/IMU_RST*%
X149270000Y-98110000D03*
%TO.P,A1,11,DI*%
%TO.N,/MOSI*%
X151810000Y-98110000D03*
%TO.P,A1,12,CS*%
%TO.N,/IMU_CS*%
X154350000Y-98110000D03*
%TD*%
D22*
%TO.P,R3,1*%
%TO.N,+3.3V*%
X189250000Y-107250000D03*
%TO.P,R3,2*%
%TO.N,/HALL_R_A*%
X189250000Y-106230000D03*
%TD*%
D17*
%TO.P,J5,1,Pin_1*%
%TO.N,/BUCK_5V*%
X180300000Y-130000000D03*
D18*
%TO.P,J5,2,Pin_2*%
X180300000Y-132540000D03*
%TO.P,J5,3,Pin_3*%
X180300000Y-135080000D03*
%TO.P,J5,4,Pin_4*%
X180300000Y-137620000D03*
%TD*%
D34*
%TO.P,POT4,1,1*%
%TO.N,+3.3V*%
X199900000Y-115250000D03*
%TO.P,POT4,2,2*%
%TO.N,/A4*%
X201900000Y-115250000D03*
%TO.P,POT4,3,3*%
%TO.N,GND*%
X203900000Y-115250000D03*
D35*
%TO.P,POT4,MP*%
%TO.N,N/C*%
X197500000Y-113000000D03*
X206300000Y-113000000D03*
%TD*%
D15*
%TO.P,REF\u002A\u002A,2*%
%TO.N,GND*%
X162000000Y-126000000D03*
%TD*%
D42*
%TO.P,Cout2,1*%
%TO.N,/BUCK_5V*%
X213000000Y-122500000D03*
%TO.P,Cout2,2*%
%TO.N,GND*%
X213000000Y-125450000D03*
%TD*%
D14*
%TO.P,RSD0,1*%
%TO.N,/SD0*%
X120000000Y-100980000D03*
%TO.P,RSD0,2*%
%TO.N,+3.3V*%
X120000000Y-102000000D03*
%TD*%
D43*
%TO.P,U5,1,OUTPUT*%
%TO.N,/VBAT*%
X238730000Y-120600000D03*
%TO.P,U5,2,OUTPUT*%
X238730000Y-121450000D03*
%TO.P,U5,3,OUTPUT*%
X238730000Y-122300000D03*
%TO.P,U5,4,INPUT*%
%TO.N,Net-(U5-INPUT)*%
X238730000Y-123150000D03*
%TO.P,U5,5,CS*%
%TO.N,Net-(U5-CS)*%
X238730000Y-124000000D03*
%TO.P,U5,6,SE*%
%TO.N,Net-(U5-SE)*%
X238730000Y-124850000D03*
%TO.P,U5,7,GND*%
%TO.N,GND*%
X238730000Y-125700000D03*
D44*
%TO.P,U5,8,VCC*%
%TO.N,/VBAT_IN*%
X245540000Y-123150000D03*
%TD*%
D45*
%TO.P,F1,1*%
%TO.N,/VBAT*%
X233440000Y-121000000D03*
%TO.P,F1,2*%
%TO.N,/VBAT_MCU*%
X230640000Y-121000000D03*
%TD*%
D34*
%TO.P,POT2,1,1*%
%TO.N,+3.3V*%
X177000000Y-115250000D03*
%TO.P,POT2,2,2*%
%TO.N,/A1*%
X179000000Y-115250000D03*
%TO.P,POT2,3,3*%
%TO.N,GND*%
X181000000Y-115250000D03*
D35*
%TO.P,POT2,MP*%
%TO.N,N/C*%
X174600000Y-113000000D03*
X183400000Y-113000000D03*
%TD*%
D22*
%TO.P,R8,1*%
%TO.N,Net-(U2-A1)*%
X128500000Y-112260000D03*
%TO.P,R8,2*%
%TO.N,GND*%
X128500000Y-111240000D03*
%TD*%
D24*
%TO.P,R_PWR_LED1,1*%
%TO.N,Net-(D2-A)*%
X244000000Y-128000000D03*
%TO.P,R_PWR_LED1,2*%
%TO.N,/VBAT_MCU*%
X242980000Y-128000000D03*
%TD*%
D20*
%TO.P,E1,1,A*%
%TO.N,/HALL_L_A*%
X173000000Y-103350000D03*
%TO.P,E1,2,B*%
%TO.N,/HALL_L_B*%
X171000000Y-103350000D03*
%TO.P,E1,3,VCC*%
%TO.N,+3.3V*%
X169000000Y-103350000D03*
%TO.P,E1,4,GND*%
%TO.N,GND*%
X167000000Y-103350000D03*
D21*
%TO.P,E1,MP*%
%TO.N,N/C*%
X175350000Y-97600000D03*
X164650000Y-97600000D03*
%TD*%
D24*
%TO.P,R9,1*%
%TO.N,Net-(U2-A2)*%
X126760000Y-121250000D03*
%TO.P,R9,2*%
%TO.N,GND*%
X125740000Y-121250000D03*
%TD*%
D46*
%TO.P,Q1,1*%
%TO.N,Net-(Q1-Pad1)*%
X213290000Y-137135000D03*
%TO.P,Q1,2*%
%TO.N,Net-(Q1-Pad2)*%
X213290000Y-138085000D03*
%TO.P,Q1,3*%
X213290000Y-139035000D03*
%TO.P,Q1,4*%
X215660000Y-139035000D03*
%TO.P,Q1,5*%
%TO.N,/BUCK_5V*%
X215660000Y-138085000D03*
%TO.P,Q1,6*%
%TO.N,+5V*%
X215660000Y-137135000D03*
%TD*%
D15*
%TO.P,REF\u002A\u002A,4*%
%TO.N,GND*%
X247000000Y-138000000D03*
%TD*%
D14*
%TO.P,RSC2,1*%
%TO.N,/SC2*%
X130000000Y-100990000D03*
%TO.P,RSC2,2*%
%TO.N,+3.3V*%
X130000000Y-102010000D03*
%TD*%
D24*
%TO.P,R_TFT1,1*%
%TO.N,+3.3V*%
X111000000Y-105000000D03*
%TO.P,R_TFT1,2*%
%TO.N,/TFT_RST*%
X109980000Y-105000000D03*
%TD*%
D22*
%TO.P,R4,1*%
%TO.N,+3.3V*%
X187250000Y-107250000D03*
%TO.P,R4,2*%
%TO.N,/HALL_R_B*%
X187250000Y-106230000D03*
%TD*%
D47*
%TO.P,U6,1,OUTPUT*%
%TO.N,/VBAT_MOTOR_PRE*%
X238090000Y-109190000D03*
%TO.P,U6,2,OUTPUT*%
X237240000Y-109190000D03*
%TO.P,U6,3,OUTPUT*%
X236390000Y-109190000D03*
%TO.P,U6,4,INPUT*%
%TO.N,Net-(U6-INPUT)*%
X235540000Y-109190000D03*
%TO.P,U6,5,CS*%
%TO.N,Net-(U6-CS)*%
X234690000Y-109190000D03*
%TO.P,U6,6,SE*%
%TO.N,Net-(U6-SE)*%
X233840000Y-109190000D03*
%TO.P,U6,7,GND*%
%TO.N,GND*%
X232990000Y-109190000D03*
D48*
%TO.P,U6,8,VCC*%
%TO.N,/VBAT*%
X235540000Y-116000000D03*
%TD*%
D49*
%TO.P,U4,1,GPIO2*%
%TO.N,unconnected-(U4-GPIO2-Pad1)*%
X107800000Y-99750000D03*
%TO.P,U4,2,GPIO1*%
%TO.N,unconnected-(U4-GPIO1-Pad2)*%
X107800000Y-100250000D03*
%TO.P,U4,3,BUSY/TE*%
%TO.N,unconnected-(U4-BUSY{slash}TE-Pad3)*%
X107800000Y-100750000D03*
%TO.P,U4,4,INT*%
%TO.N,unconnected-(U4-INT-Pad4)*%
X107800000Y-101250000D03*
%TO.P,U4,5,SDA*%
%TO.N,unconnected-(U4-SDA-Pad5)*%
X107800000Y-101750000D03*
%TO.P,U4,6,SCL*%
%TO.N,unconnected-(U4-SCL-Pad6)*%
X107800000Y-102250000D03*
%TO.P,U4,7,TS_CS*%
%TO.N,unconnected-(U4-TS_CS-Pad7)*%
X107800000Y-102750000D03*
%TO.P,U4,8,MEM_CS*%
%TO.N,unconnected-(U4-MEM_CS-Pad8)*%
X107800000Y-103250000D03*
%TO.P,U4,9,SD_CS*%
%TO.N,unconnected-(U4-SD_CS-Pad9)*%
X107800000Y-103750000D03*
%TO.P,U4,10,DISP_CS*%
%TO.N,/TFT_CS*%
X107800000Y-104250000D03*
%TO.P,U4,11,RESET*%
%TO.N,/TFT_RST*%
X107800000Y-104750000D03*
%TO.P,U4,12,DC*%
%TO.N,/TFT_D{slash}C*%
X107800000Y-105250000D03*
%TO.P,U4,13,MISO*%
%TO.N,unconnected-(U4-MISO-Pad13)*%
X107800000Y-105750000D03*
%TO.P,U4,14,MOSI*%
%TO.N,/MOSI*%
X107800000Y-106250000D03*
%TO.P,U4,15,SCK*%
%TO.N,/SCK*%
X107800000Y-106750000D03*
%TO.P,U4,16,GND*%
%TO.N,GND*%
X107800000Y-107250000D03*
%TO.P,U4,17,BACKLITE*%
%TO.N,unconnected-(U4-BACKLITE-Pad17)*%
X107800000Y-107750000D03*
%TO.P,U4,18,VCC*%
%TO.N,+3.3V*%
X107800000Y-108250000D03*
D50*
%TO.P,U4,MP*%
%TO.N,N/C*%
X104550000Y-97850000D03*
X104550000Y-110150000D03*
%TD*%
D34*
%TO.P,POT1,1,1*%
%TO.N,+3.3V*%
X165600000Y-115250000D03*
%TO.P,POT1,2,2*%
%TO.N,/A0*%
X167600000Y-115250000D03*
%TO.P,POT1,3,3*%
%TO.N,GND*%
X169600000Y-115250000D03*
D35*
%TO.P,POT1,MP*%
%TO.N,N/C*%
X163200000Y-113000000D03*
X172000000Y-113000000D03*
%TD*%
D42*
%TO.P,Cout1,1*%
%TO.N,/BUCK_5V*%
X216500000Y-122500000D03*
%TO.P,Cout1,2*%
%TO.N,GND*%
X216500000Y-125450000D03*
%TD*%
D51*
%TO.N,/VBAT_MOTOR_PRE*%
X237000000Y-105000000D03*
X241000000Y-104000000D03*
X240000000Y-104000000D03*
X241000000Y-108000000D03*
X241000000Y-109000000D03*
X240000000Y-109000000D03*
X240000000Y-108000000D03*
X241000000Y-107000000D03*
X240000000Y-107000000D03*
X239000000Y-107000000D03*
X238000000Y-107000000D03*
X238000000Y-106000000D03*
X239000000Y-106000000D03*
X240000000Y-106000000D03*
X241000000Y-106000000D03*
X241000000Y-105000000D03*
X240000000Y-105000000D03*
X239000000Y-105000000D03*
X238000000Y-105000000D03*
%TO.N,/VBAT_MOTOR*%
X247500000Y-102500000D03*
X248250000Y-101500000D03*
X248250000Y-99750000D03*
X247500000Y-98750000D03*
X244500000Y-98750000D03*
X244250000Y-102000000D03*
X243250000Y-101250000D03*
X243250000Y-100250000D03*
X243250000Y-99250000D03*
X242000000Y-99250000D03*
X242000000Y-100250000D03*
X242000000Y-101250000D03*
X240750000Y-101250000D03*
X240750000Y-100250000D03*
X240750000Y-99250000D03*
X239500000Y-99250000D03*
X239500000Y-100250000D03*
X239500000Y-101250000D03*
%TO.N,/VBAT*%
X239250000Y-119500000D03*
X239250000Y-118500000D03*
X239250000Y-117500000D03*
X239250000Y-116000000D03*
X239250000Y-114750000D03*
X239250000Y-113250000D03*
X236750000Y-119500000D03*
X236750000Y-120500000D03*
X235500000Y-120500000D03*
X235500000Y-119500000D03*
X234250000Y-119500000D03*
X233000000Y-119500000D03*
%TO.N,/VBAT_IN*%
X244000000Y-118000000D03*
X248000000Y-119000000D03*
X247000000Y-119000000D03*
X246000000Y-119000000D03*
X245000000Y-119000000D03*
X244000000Y-119000000D03*
X243000000Y-119000000D03*
X243000000Y-118000000D03*
X243000000Y-117000000D03*
X243000000Y-116000000D03*
X243000000Y-115000000D03*
%TO.N,GND*%
X238000000Y-127000000D03*
X236500000Y-126500000D03*
X235250000Y-126500000D03*
X235000000Y-132000000D03*
X234500000Y-133000000D03*
X233250000Y-133000000D03*
%TO.N,Net-(U3-SW)*%
X227250000Y-131750000D03*
%TO.N,GND*%
X232250000Y-138750000D03*
X232250000Y-137750000D03*
X232250000Y-136750000D03*
X231250000Y-138750000D03*
X231250000Y-137750000D03*
X231250000Y-136750000D03*
%TO.N,Net-(U3-SW)*%
X229250000Y-138500000D03*
%TO.N,+3.3V*%
X120000000Y-103250000D03*
X111000000Y-106000000D03*
X176000000Y-119000000D03*
X169000000Y-105750000D03*
X117500000Y-100500000D03*
X187000000Y-119000000D03*
X117500000Y-108500000D03*
X189250000Y-108000000D03*
X131000000Y-110000000D03*
X185250000Y-106000000D03*
X126500000Y-100500000D03*
X127500000Y-110250000D03*
X121500000Y-111000000D03*
X126500000Y-108500000D03*
X173000000Y-108250000D03*
X164000000Y-119000000D03*
X187250000Y-108000000D03*
X129000000Y-103250000D03*
X199000000Y-119000000D03*
X171000000Y-108250000D03*
X132750000Y-116750000D03*
X108000000Y-109000000D03*
%TO.N,GND*%
X125500000Y-107500000D03*
X194000000Y-119000000D03*
X121500000Y-122250000D03*
X200000000Y-136000000D03*
X248500000Y-128500000D03*
X224000000Y-137000000D03*
X205000000Y-119000000D03*
X182000000Y-119000000D03*
X108000000Y-110000000D03*
X116500000Y-107500000D03*
X213000000Y-128000000D03*
X209000000Y-138000000D03*
X171000000Y-119000000D03*
X132000000Y-114500000D03*
X231750000Y-106500000D03*
X215000000Y-128000000D03*
X233000000Y-124000000D03*
X201000000Y-135000000D03*
X183250000Y-106000000D03*
X167000000Y-105750000D03*
X241000000Y-97000000D03*
X125500000Y-99500000D03*
X116500000Y-99500000D03*
X120500000Y-113750000D03*
X231750000Y-107500000D03*
X120250000Y-135250000D03*
X217000000Y-128000000D03*
%TO.N,/SCK*%
X105250000Y-121000000D03*
X107000000Y-110000000D03*
X103750000Y-132000000D03*
%TO.N,/MISO*%
X112500000Y-135750000D03*
X138000000Y-130250000D03*
X135000000Y-133000000D03*
%TO.N,/MOSI*%
X112250000Y-110750000D03*
%TO.N,Net-(U3-SW)*%
X230250000Y-135500000D03*
%TO.N,/HALL_L_B*%
X132250000Y-133750000D03*
X134500000Y-130250000D03*
X137000000Y-127250000D03*
%TO.N,/HALL_R_A*%
X133250000Y-118000000D03*
X132250000Y-120500000D03*
X176750000Y-109250000D03*
%TO.N,/HALL_R_B*%
X138750000Y-120500000D03*
%TO.N,/SCL*%
X125000000Y-127500000D03*
X129000000Y-122250000D03*
%TO.N,/SDA*%
X127500000Y-129000000D03*
X131500000Y-122000000D03*
%TO.N,/TX*%
X132250000Y-141474500D03*
%TO.N,/RX*%
X129375000Y-141500000D03*
%TO.N,/A0*%
X166000000Y-120750000D03*
%TO.N,/A1*%
X178000000Y-121750000D03*
%TO.N,Net-(Q1-Pad2)*%
X216987701Y-139987701D03*
X214000000Y-140000000D03*
%TO.N,+5V*%
X216000000Y-141000000D03*
%TO.N,/SC0*%
X126521001Y-110048599D03*
X126237000Y-111750000D03*
%TO.N,/SD1*%
X124430812Y-111750000D03*
X120855003Y-111763534D03*
%TO.N,/SD2*%
X126093315Y-115650500D03*
X127750000Y-101000000D03*
%TO.N,/SC2*%
X125093812Y-115650500D03*
X131750000Y-101750000D03*
%TO.N,/RST*%
X142500000Y-136500000D03*
X138250000Y-134750000D03*
%TO.N,/VBAT_MCU*%
X125250000Y-136000000D03*
X241000000Y-128000000D03*
X231250000Y-133750000D03*
%TO.N,/TFT_RST*%
X111119622Y-107380378D03*
X120000000Y-121250000D03*
X118000000Y-118500000D03*
%TD*%
D52*
%TO.N,/VBAT_MOTOR*%
X246500000Y-97000000D02*
X247500000Y-98000000D01*
X247500000Y-98000000D02*
X247500000Y-98750000D01*
D53*
%TO.N,/RST*%
X142500000Y-136500000D02*
X143387600Y-137387600D01*
X143387600Y-137387600D02*
X145980772Y-137387600D01*
X145980772Y-137387600D02*
X148593172Y-140000000D01*
X148593172Y-140000000D02*
X153500000Y-140000000D01*
X153500000Y-140000000D02*
X158750000Y-134750000D01*
D54*
%TO.N,/DIR1*%
X137900000Y-138500000D02*
X145650000Y-130750000D01*
X209375000Y-121625000D02*
X210000000Y-121000000D01*
X158552943Y-132250000D02*
X165750000Y-132250000D01*
X165750000Y-132250000D02*
X171000000Y-127000000D01*
X145650000Y-130750000D02*
X157052942Y-130750000D01*
X171000000Y-127000000D02*
X182168630Y-127000000D01*
X157052942Y-130750000D02*
X158552943Y-132250000D01*
X182168630Y-127000000D02*
X185318630Y-123850000D01*
X185318630Y-123850000D02*
X199150000Y-123850000D01*
X199150000Y-123850000D02*
X201375000Y-121625000D01*
X201375000Y-121625000D02*
X209375000Y-121625000D01*
X210000000Y-121000000D02*
X210000000Y-115000000D01*
X210000000Y-115000000D02*
X223420000Y-101580000D01*
X223420000Y-101580000D02*
X223420000Y-98500000D01*
%TO.N,/DIR2*%
X165150000Y-131850000D02*
X172000000Y-125000000D01*
X228500000Y-97000000D02*
X228500000Y-98500000D01*
X139352600Y-139587400D02*
X137449584Y-139587400D01*
X137449584Y-139587400D02*
X136812600Y-138950416D01*
X140440000Y-138500000D02*
X139352600Y-139587400D01*
X157118628Y-130250000D02*
X158718628Y-131850000D01*
X223120000Y-96500000D02*
X228000000Y-96500000D01*
X228000000Y-96500000D02*
X228500000Y-97000000D01*
X136812600Y-138049584D02*
X144612184Y-130250000D01*
X136812600Y-138950416D02*
X136812600Y-138049584D01*
X144612184Y-130250000D02*
X157118628Y-130250000D01*
X158718628Y-131850000D02*
X165150000Y-131850000D01*
X183602944Y-125000000D02*
X185152945Y-123450000D01*
X172000000Y-125000000D02*
X183602944Y-125000000D01*
X185152945Y-123450000D02*
X198550000Y-123450000D01*
X198550000Y-123450000D02*
X201000000Y-121000000D01*
X201000000Y-121000000D02*
X207000000Y-121000000D01*
X207000000Y-121000000D02*
X208000000Y-120000000D01*
X208000000Y-120000000D02*
X208000000Y-111620000D01*
X208000000Y-111620000D02*
X223120000Y-96500000D01*
D53*
%TO.N,/VBAT_MCU*%
X231250000Y-133750000D02*
X231065000Y-133565000D01*
X231065000Y-133565000D02*
X231065000Y-130007500D01*
D55*
%TO.N,Net-(U3-SW)*%
X227250000Y-131750000D02*
X226782500Y-131750000D01*
X226782500Y-131750000D02*
X223540000Y-128507500D01*
D56*
%TO.N,Net-(U3-VBST)*%
X226050000Y-138500000D02*
X226050000Y-136802500D01*
X226050000Y-136802500D02*
X226345000Y-136507500D01*
%TO.N,Net-(U3-SW)*%
X230250000Y-135500000D02*
X228712500Y-135500000D01*
X228712500Y-135500000D02*
X228655000Y-135557500D01*
X227950000Y-138500000D02*
X229250000Y-138500000D01*
%TO.N,/BUCK_5V*%
X220025000Y-138000000D02*
X220510000Y-138000000D01*
X220510000Y-138000000D02*
X223000000Y-135510000D01*
D53*
%TO.N,+3.3V*%
X187250000Y-107250000D02*
X187250000Y-108000000D01*
D56*
X130500000Y-117850000D02*
X130500000Y-117537500D01*
D54*
X120980000Y-102000000D02*
X121000000Y-102020000D01*
D53*
X169000000Y-103350000D02*
X169000000Y-105750000D01*
D55*
X171000000Y-132540000D02*
X171000000Y-135080000D01*
D54*
X107800000Y-108800000D02*
X108000000Y-109000000D01*
D53*
X126771751Y-108500000D02*
X126500000Y-108500000D01*
D54*
X129000000Y-110010000D02*
X129990000Y-110010000D01*
D53*
X128000000Y-99446751D02*
X126946751Y-100500000D01*
X117946751Y-100500000D02*
X117500000Y-100500000D01*
X171000000Y-107250000D02*
X171000000Y-108250000D01*
D56*
X165600000Y-117400000D02*
X164000000Y-119000000D01*
D54*
X130000000Y-110000000D02*
X131000000Y-110000000D01*
X120980000Y-110000000D02*
X121000000Y-110020000D01*
D56*
X177000000Y-115250000D02*
X177000000Y-118000000D01*
D53*
X128000000Y-99000000D02*
X128000000Y-99446751D01*
D54*
X121000000Y-110020000D02*
X121000000Y-110500000D01*
D53*
X119000000Y-99000000D02*
X119000000Y-99446751D01*
D55*
X171000000Y-135080000D02*
X171000000Y-137620000D01*
D54*
X111000000Y-105000000D02*
X111000000Y-106000000D01*
D53*
X119000000Y-106825000D02*
X119000000Y-107271751D01*
D56*
X199900000Y-115250000D02*
X199900000Y-118100000D01*
D53*
X173000000Y-107260000D02*
X173000000Y-108250000D01*
D54*
X131962500Y-117537500D02*
X132750000Y-116750000D01*
D56*
X165600000Y-115250000D02*
X165600000Y-117400000D01*
D54*
X128850000Y-119500000D02*
X130500000Y-117850000D01*
D53*
X128000000Y-106825000D02*
X128000000Y-107271751D01*
D54*
X129990000Y-110010000D02*
X130000000Y-110000000D01*
D53*
X128000000Y-107271751D02*
X126771751Y-108500000D01*
D54*
X120000000Y-110000000D02*
X120980000Y-110000000D01*
X121000000Y-110500000D02*
X121500000Y-111000000D01*
X120000000Y-102000000D02*
X120980000Y-102000000D01*
D53*
X126946751Y-100500000D02*
X126500000Y-100500000D01*
D56*
X199900000Y-118100000D02*
X199000000Y-119000000D01*
D53*
X119000000Y-99446751D02*
X117946751Y-100500000D01*
D55*
X171000000Y-130000000D02*
X171000000Y-132540000D01*
D53*
X185250000Y-103350000D02*
X185250000Y-106000000D01*
X117771751Y-108500000D02*
X117500000Y-108500000D01*
D54*
X130000000Y-102010000D02*
X129000000Y-102010000D01*
D53*
X189250000Y-107250000D02*
X189250000Y-108000000D01*
D54*
X129000000Y-102010000D02*
X129000000Y-103250000D01*
D56*
X188400000Y-115250000D02*
X188400000Y-117600000D01*
X188400000Y-117600000D02*
X187000000Y-119000000D01*
D53*
X127500000Y-111250000D02*
X127500000Y-110250000D01*
X119000000Y-107271751D02*
X117771751Y-108500000D01*
D54*
X120000000Y-102000000D02*
X120000000Y-103250000D01*
X130500000Y-117537500D02*
X131962500Y-117537500D01*
D56*
X177000000Y-118000000D02*
X176000000Y-119000000D01*
D54*
X107800000Y-108250000D02*
X107800000Y-108800000D01*
D53*
%TO.N,GND*%
X122500000Y-121250000D02*
X121500000Y-122250000D01*
X232990000Y-109190000D02*
X232990000Y-108740000D01*
D55*
X201000000Y-134850000D02*
X201000000Y-135000000D01*
D56*
X203900000Y-115250000D02*
X203900000Y-117900000D01*
X181000000Y-118000000D02*
X182000000Y-119000000D01*
D55*
X175650000Y-135080000D02*
X175650000Y-137620000D01*
D53*
X234000000Y-105980000D02*
X235040000Y-105980000D01*
D54*
X106400000Y-107815686D02*
X106400000Y-108400000D01*
D55*
X199850000Y-136000000D02*
X199500000Y-136350000D01*
D56*
X131000000Y-114962500D02*
X131000000Y-114250000D01*
D53*
X233980000Y-106000000D02*
X234000000Y-105980000D01*
X232250000Y-106000000D02*
X233040000Y-106000000D01*
D56*
X203900000Y-117900000D02*
X205000000Y-119000000D01*
D53*
X126175000Y-106825000D02*
X125500000Y-107500000D01*
X235040000Y-124990000D02*
X235030000Y-125000000D01*
D56*
X192400000Y-115250000D02*
X192400000Y-117400000D01*
D53*
X127000000Y-106825000D02*
X126175000Y-106825000D01*
X126000000Y-99000000D02*
X125500000Y-99500000D01*
D54*
X210085000Y-139085000D02*
X209000000Y-138000000D01*
D55*
X175650000Y-132540000D02*
X175650000Y-135080000D01*
D53*
X127000000Y-99000000D02*
X126000000Y-99000000D01*
D54*
X242425000Y-97000000D02*
X241000000Y-97000000D01*
D56*
X181000000Y-115250000D02*
X181000000Y-118000000D01*
D54*
X117175000Y-106825000D02*
X116500000Y-107500000D01*
D53*
X231750000Y-107500000D02*
X231750000Y-106500000D01*
D55*
X200000000Y-136000000D02*
X199850000Y-136000000D01*
D52*
X120510000Y-113760000D02*
X120500000Y-113750000D01*
D55*
X201000000Y-135000000D02*
X200850000Y-135000000D01*
D53*
X232990000Y-108740000D02*
X231750000Y-107500000D01*
X231750000Y-106500000D02*
X232250000Y-106000000D01*
D56*
X130500000Y-115462500D02*
X131000000Y-114962500D01*
D52*
X121700000Y-113760000D02*
X120510000Y-113760000D01*
D53*
X233000000Y-124000000D02*
X233060000Y-124000000D01*
D55*
X200850000Y-135000000D02*
X200000000Y-135850000D01*
X202500000Y-133350000D02*
X201000000Y-134850000D01*
D53*
X233040000Y-106000000D02*
X233980000Y-106000000D01*
D56*
X192400000Y-117400000D02*
X194000000Y-119000000D01*
D55*
X199500000Y-136350000D02*
X199500000Y-139500000D01*
D54*
X118000000Y-106825000D02*
X117175000Y-106825000D01*
D56*
X121000000Y-136000000D02*
X120250000Y-135250000D01*
D53*
X228655000Y-136507500D02*
X228655000Y-136655000D01*
D56*
X224040000Y-135520000D02*
X224040000Y-136960000D01*
D53*
X125740000Y-121250000D02*
X122500000Y-121250000D01*
D54*
X210455000Y-139085000D02*
X210085000Y-139085000D01*
D53*
X233060000Y-124000000D02*
X235060000Y-122000000D01*
D55*
X200000000Y-135850000D02*
X200000000Y-136000000D01*
D56*
X169600000Y-117600000D02*
X171000000Y-119000000D01*
D54*
X128740000Y-111240000D02*
X131000000Y-113500000D01*
X128500000Y-111240000D02*
X128740000Y-111240000D01*
X210455000Y-138105000D02*
X211475000Y-137085000D01*
D56*
X131000000Y-114250000D02*
X131250000Y-114500000D01*
X169600000Y-115250000D02*
X169600000Y-117600000D01*
D53*
X117000000Y-99000000D02*
X116500000Y-99500000D01*
X248000000Y-128000000D02*
X248500000Y-128500000D01*
D54*
X107800000Y-107250000D02*
X106965686Y-107250000D01*
D53*
X167000000Y-103350000D02*
X167000000Y-105750000D01*
D56*
X121240000Y-136000000D02*
X121000000Y-136000000D01*
D54*
X210455000Y-139085000D02*
X210455000Y-138105000D01*
D53*
X224040000Y-136960000D02*
X224000000Y-137000000D01*
X183250000Y-103350000D02*
X183250000Y-106000000D01*
X247115000Y-128000000D02*
X248000000Y-128000000D01*
D55*
X175650000Y-130000000D02*
X175650000Y-132540000D01*
D54*
X106965686Y-107250000D02*
X106400000Y-107815686D01*
D56*
X131000000Y-114250000D02*
X131000000Y-113500000D01*
D53*
X235040000Y-124000000D02*
X235040000Y-124990000D01*
D56*
X131250000Y-114500000D02*
X132000000Y-114500000D01*
D53*
X118000000Y-99000000D02*
X117000000Y-99000000D01*
D54*
X106400000Y-108400000D02*
X108000000Y-110000000D01*
%TO.N,/SCK*%
X103792600Y-122457400D02*
X103792600Y-132332600D01*
X106900000Y-106750000D02*
X106000000Y-107650000D01*
X107800000Y-106750000D02*
X106900000Y-106750000D01*
X106000000Y-107650000D02*
X106000000Y-109000000D01*
X106000000Y-109000000D02*
X107000000Y-110000000D01*
X105250000Y-121000000D02*
X103792600Y-122457400D01*
D53*
%TO.N,/MISO*%
X137750000Y-130250000D02*
X138000000Y-130250000D01*
X107420000Y-138500000D02*
X110170000Y-135750000D01*
X135000000Y-133000000D02*
X137750000Y-130250000D01*
X110170000Y-135750000D02*
X112500000Y-135750000D01*
D54*
%TO.N,/IMU_RST*%
X140440000Y-106940000D02*
X140440000Y-123260000D01*
X149270000Y-98110000D02*
X140440000Y-106940000D01*
%TO.N,/MOSI*%
X109000000Y-106550000D02*
X109000000Y-111272435D01*
X102000000Y-137000000D02*
X103500000Y-138500000D01*
X109000000Y-111272435D02*
X102000000Y-118272435D01*
X107800000Y-106250000D02*
X108700000Y-106250000D01*
X103500000Y-138500000D02*
X104880000Y-138500000D01*
X102000000Y-118272435D02*
X102000000Y-137000000D01*
X108700000Y-106250000D02*
X109000000Y-106550000D01*
X111727565Y-111272435D02*
X112250000Y-110750000D01*
X109000000Y-111272435D02*
X111727565Y-111272435D01*
%TO.N,/IMU_CS*%
X154350000Y-98110000D02*
X155412000Y-99172000D01*
X155412000Y-116329895D02*
X148481895Y-123260000D01*
X155412000Y-99172000D02*
X155412000Y-116329895D01*
X148481895Y-123260000D02*
X145520000Y-123260000D01*
%TO.N,Net-(U3-VBST)*%
X226345000Y-136655000D02*
X226345000Y-136507500D01*
D56*
%TO.N,/VBAT*%
X235540000Y-116000000D02*
X227540000Y-108000000D01*
X227540000Y-108000000D02*
X227540000Y-107000000D01*
%TO.N,/BUCK_5V*%
X210850000Y-124650000D02*
X213000000Y-122500000D01*
X219507500Y-119492500D02*
X223540000Y-119492500D01*
X209000000Y-124650000D02*
X209000000Y-126607190D01*
D55*
X180300000Y-132540000D02*
X180300000Y-135080000D01*
D56*
X213000000Y-122500000D02*
X216500000Y-122500000D01*
X202500000Y-124650000D02*
X209000000Y-124650000D01*
X209000000Y-124650000D02*
X210850000Y-124650000D01*
X209000000Y-126607190D02*
X220025000Y-137632190D01*
X220025000Y-138000000D02*
X215745000Y-138000000D01*
D55*
X180300000Y-130000000D02*
X185650000Y-124650000D01*
D54*
X215745000Y-138000000D02*
X215660000Y-138085000D01*
D56*
X220025000Y-137632190D02*
X220025000Y-138000000D01*
X204580000Y-139500000D02*
X204580000Y-126730000D01*
X204580000Y-126730000D02*
X202500000Y-124650000D01*
D55*
X185650000Y-124650000D02*
X202500000Y-124650000D01*
D56*
X216500000Y-122500000D02*
X219507500Y-119492500D01*
D55*
X180300000Y-135080000D02*
X180300000Y-137620000D01*
X180300000Y-130000000D02*
X180300000Y-132540000D01*
D53*
%TO.N,/VBAT_IN*%
X250500000Y-128110000D02*
X245540000Y-123150000D01*
X236250000Y-138100000D02*
X238677079Y-138100000D01*
X238677079Y-138100000D02*
X246277079Y-130500000D01*
X246277079Y-130500000D02*
X250000000Y-130500000D01*
X250500000Y-130000000D02*
X250500000Y-128110000D01*
X250000000Y-130500000D02*
X250500000Y-130000000D01*
D56*
%TO.N,Net-(D1-A)*%
X244000000Y-97000000D02*
X245480000Y-97000000D01*
D53*
%TO.N,Net-(D2-A)*%
X245540000Y-128000000D02*
X244000000Y-128000000D01*
D54*
%TO.N,/HALL_L_A*%
X139352600Y-123710416D02*
X140142184Y-124500000D01*
X148660050Y-124500000D02*
X164160050Y-109000000D01*
X174750000Y-106750000D02*
X173510000Y-106750000D01*
X131367400Y-124075616D02*
X131367400Y-123132600D01*
X173510000Y-106750000D02*
X173000000Y-106240000D01*
X134500000Y-120000000D02*
X136543016Y-120000000D01*
X136543016Y-120000000D02*
X139352600Y-122809584D01*
X127740000Y-123260000D02*
X128827400Y-124347400D01*
X173250000Y-109000000D02*
X174750000Y-107500000D01*
X131095616Y-124347400D02*
X131367400Y-124075616D01*
D53*
X173000000Y-103350000D02*
X173000000Y-106240000D01*
D54*
X128827400Y-124347400D02*
X131095616Y-124347400D01*
X139352600Y-122809584D02*
X139352600Y-123710416D01*
X164160050Y-109000000D02*
X173250000Y-109000000D01*
X140142184Y-124500000D02*
X148660050Y-124500000D01*
X174750000Y-107500000D02*
X174750000Y-106750000D01*
X131367400Y-123132600D02*
X134500000Y-120000000D01*
D53*
%TO.N,/HALL_L_B*%
X171000000Y-102786827D02*
X172511827Y-101275000D01*
X167805000Y-109425000D02*
X164325000Y-112905000D01*
X134500000Y-130250000D02*
X132250000Y-132500000D01*
X132250000Y-132500000D02*
X132250000Y-133750000D01*
X164325000Y-112905000D02*
X164325000Y-114488173D01*
X175175000Y-107676040D02*
X173426041Y-109425000D01*
X171000000Y-103350000D02*
X171000000Y-106230000D01*
X173488173Y-101275000D02*
X175175000Y-102961827D01*
X164325000Y-114488173D02*
X151563173Y-127250000D01*
X173426041Y-109425000D02*
X167805000Y-109425000D01*
X172511827Y-101275000D02*
X173488173Y-101275000D01*
X171000000Y-106230000D02*
X171000000Y-102786827D01*
X151563173Y-127250000D02*
X137000000Y-127250000D01*
X175175000Y-102961827D02*
X175175000Y-107676040D01*
%TO.N,/HALL_R_A*%
X189250000Y-106230000D02*
X187975000Y-107505000D01*
X133250000Y-118000000D02*
X133250000Y-119500000D01*
X133250000Y-119500000D02*
X132250000Y-120500000D01*
X187025305Y-109250000D02*
X176750000Y-109250000D01*
X187975000Y-107505000D02*
X187975000Y-108300305D01*
X189250000Y-103350000D02*
X189250000Y-106230000D01*
X187975000Y-108300305D02*
X187025305Y-109250000D01*
%TO.N,/HALL_R_B*%
X147817000Y-98961960D02*
X138750000Y-108028960D01*
X154777251Y-97000000D02*
X148842749Y-97000000D01*
X187250000Y-102786827D02*
X185288173Y-100825000D01*
X187250000Y-103350000D02*
X187250000Y-106230000D01*
X187250000Y-106230000D02*
X187250000Y-102786827D01*
X148842749Y-97000000D02*
X147817000Y-98025749D01*
X147817000Y-98025749D02*
X147817000Y-98961960D01*
X185288173Y-100825000D02*
X158602251Y-100825000D01*
X158602251Y-100825000D02*
X154777251Y-97000000D01*
X138750000Y-108028960D02*
X138750000Y-120500000D01*
D56*
%TO.N,Net-(J2-Pin_2)*%
X196000000Y-141000000D02*
X200540000Y-141000000D01*
X200540000Y-141000000D02*
X202040000Y-139500000D01*
X194750000Y-139750000D02*
X196000000Y-141000000D01*
D52*
%TO.N,/SCL*%
X127550000Y-120800000D02*
X127550000Y-119500000D01*
X125000000Y-128540000D02*
X125000000Y-127500000D01*
X129000000Y-122250000D02*
X127550000Y-120800000D01*
X115040000Y-138500000D02*
X125000000Y-128540000D01*
%TO.N,/SDA*%
X117580000Y-136981669D02*
X125561669Y-129000000D01*
X117580000Y-138500000D02*
X117580000Y-136981669D01*
X129999363Y-122000000D02*
X128200000Y-120200637D01*
X125561669Y-129000000D02*
X127500000Y-129000000D01*
X128200000Y-120200637D02*
X128200000Y-119500000D01*
X131500000Y-122000000D02*
X129999363Y-122000000D01*
D53*
%TO.N,/TX*%
X132250000Y-141474500D02*
X132775500Y-142000000D01*
X132775500Y-142000000D02*
X179250000Y-142000000D01*
X185000000Y-137620000D02*
X180620000Y-142000000D01*
X180620000Y-142000000D02*
X179250000Y-142000000D01*
%TO.N,/RX*%
X185000000Y-135080000D02*
X188500000Y-138580000D01*
X188500000Y-138580000D02*
X188500000Y-141250000D01*
X188500000Y-141250000D02*
X187002000Y-142748000D01*
X187002000Y-142748000D02*
X185750000Y-142748000D01*
X130623000Y-142748000D02*
X186133701Y-142748000D01*
X129375000Y-141500000D02*
X130623000Y-142748000D01*
%TO.N,/A0*%
X166000000Y-120750000D02*
X167600000Y-119150000D01*
X167600000Y-119150000D02*
X167600000Y-115250000D01*
%TO.N,/A1*%
X178000000Y-121750000D02*
X179250000Y-120500000D01*
X179250000Y-115500000D02*
X179000000Y-115250000D01*
X179250000Y-120500000D02*
X179250000Y-115500000D01*
D54*
%TO.N,/A3*%
X159050000Y-131050000D02*
X156750000Y-128750000D01*
X156750000Y-128750000D02*
X129360503Y-128750000D01*
X123747400Y-122172600D02*
X122660000Y-123260000D01*
X184627817Y-122550000D02*
X172450000Y-122550000D01*
X190400000Y-116777817D02*
X184627817Y-122550000D01*
X163950000Y-131050000D02*
X159050000Y-131050000D01*
X129360503Y-128750000D02*
X126287400Y-125676897D01*
X126287400Y-122809584D02*
X125650416Y-122172600D01*
X172450000Y-122550000D02*
X163950000Y-131050000D01*
X190400000Y-115250000D02*
X190400000Y-116777817D01*
X125650416Y-122172600D02*
X123747400Y-122172600D01*
X126287400Y-125676897D02*
X126287400Y-122809584D01*
%TO.N,/A4*%
X172650000Y-122950000D02*
X164150000Y-131450000D01*
X164150000Y-131450000D02*
X158884314Y-131450000D01*
X201900000Y-115250000D02*
X201900000Y-117089950D01*
X125200000Y-125155183D02*
X125200000Y-123260000D01*
X196039950Y-122950000D02*
X172650000Y-122950000D01*
X156934314Y-129500000D02*
X129544817Y-129500000D01*
X158884314Y-131450000D02*
X156934314Y-129500000D01*
X129544817Y-129500000D02*
X125200000Y-125155183D01*
X201900000Y-117089950D02*
X196039950Y-122950000D01*
%TO.N,Net-(Q1-Pad1)*%
X213000000Y-136845000D02*
X213290000Y-137135000D01*
X213000000Y-136000000D02*
X213000000Y-136845000D01*
X211000000Y-135000000D02*
X214000000Y-135000000D01*
X217975000Y-137085000D02*
X216000000Y-135110000D01*
D53*
X210455000Y-137085000D02*
X210000000Y-136630000D01*
D54*
X214000000Y-135000000D02*
X213000000Y-136000000D01*
X216000000Y-135110000D02*
X216000000Y-135000000D01*
X210000000Y-136000000D02*
X211000000Y-135000000D01*
D53*
X210000000Y-136630000D02*
X210000000Y-136000000D01*
D54*
X216000000Y-135000000D02*
X214000000Y-135000000D01*
D53*
%TO.N,Net-(Q1-Pad2)*%
X215660000Y-139035000D02*
X216035000Y-139035000D01*
X216035000Y-139035000D02*
X216987701Y-139987701D01*
D54*
X211475000Y-139085000D02*
X213240000Y-139085000D01*
D53*
X214000000Y-140000000D02*
X214000000Y-139745000D01*
X214000000Y-139745000D02*
X213290000Y-139035000D01*
D54*
X213240000Y-139085000D02*
X213290000Y-139035000D01*
D53*
X213290000Y-139035000D02*
X213290000Y-138085000D01*
%TO.N,+5V*%
X217975000Y-140025000D02*
X217975000Y-138915000D01*
X216000000Y-141000000D02*
X217000000Y-141000000D01*
X214660000Y-137333101D02*
X214660000Y-139660000D01*
X214660000Y-139660000D02*
X216000000Y-141000000D01*
X214858101Y-137135000D02*
X214660000Y-137333101D01*
X215660000Y-137135000D02*
X214858101Y-137135000D01*
X217000000Y-141000000D02*
X217975000Y-140025000D01*
D52*
%TO.N,/SD0*%
X119230000Y-101750000D02*
X119230000Y-103695223D01*
X120000000Y-100980000D02*
X119230000Y-101750000D01*
D54*
X120000000Y-99000000D02*
X120000000Y-101000000D01*
D52*
X119230000Y-103695223D02*
X126900000Y-111365223D01*
X126900000Y-111365223D02*
X126900000Y-113760000D01*
%TO.N,/SC0*%
X126521001Y-110048599D02*
X126048599Y-110048599D01*
D54*
X121000000Y-100375000D02*
X121000000Y-101000000D01*
D52*
X121620000Y-101620000D02*
X121000000Y-101000000D01*
X126048599Y-110048599D02*
X125500000Y-109500000D01*
X125500000Y-109500000D02*
X125500000Y-109451157D01*
X126237000Y-111750000D02*
X126237000Y-113747000D01*
X125500000Y-109451157D02*
X121000000Y-104951157D01*
X121000000Y-102955183D02*
X121620000Y-102335183D01*
X126237000Y-113747000D02*
X126250000Y-113760000D01*
X121620000Y-102335183D02*
X121620000Y-101620000D01*
D54*
X121000000Y-99000000D02*
X121000000Y-100375000D01*
D52*
X121000000Y-104951157D02*
X121000000Y-102955183D01*
D54*
%TO.N,/SD1*%
X120000000Y-108980000D02*
X120000000Y-108375000D01*
D52*
X119000000Y-109883564D02*
X120808218Y-111691782D01*
X124500000Y-111750000D02*
X125600000Y-112850000D01*
X120808218Y-111691782D02*
X120855003Y-111738567D01*
X120808218Y-111691782D02*
X120866436Y-111750000D01*
X119872685Y-108980000D02*
X119000000Y-109852685D01*
X120855003Y-111738567D02*
X120855003Y-111763534D01*
X120000000Y-108980000D02*
X119872685Y-108980000D01*
X119000000Y-109852685D02*
X119000000Y-109883564D01*
X124500000Y-111750000D02*
X124430812Y-111750000D01*
D54*
X120000000Y-108375000D02*
X120000000Y-106825000D01*
D52*
X125600000Y-112850000D02*
X125600000Y-113760000D01*
%TO.N,/SC1*%
X121000000Y-109000000D02*
X123000000Y-111000000D01*
X123000000Y-111000000D02*
X123000000Y-111713637D01*
X123000000Y-111713637D02*
X123997863Y-112711500D01*
D54*
X121000000Y-109000000D02*
X121000000Y-108125000D01*
D52*
X124602137Y-112711500D02*
X124950000Y-113059363D01*
D54*
X121000000Y-108125000D02*
X121000000Y-106825000D01*
D52*
X123997863Y-112711500D02*
X124602137Y-112711500D01*
X124950000Y-113059363D02*
X124950000Y-113760000D01*
%TO.N,/SD2*%
X125309815Y-114867000D02*
X124706363Y-114867000D01*
X124300000Y-114460637D02*
X124300000Y-113760000D01*
D54*
X129000000Y-99000000D02*
X129000000Y-100125000D01*
X129000000Y-100125000D02*
X129000000Y-100990000D01*
X129000000Y-100990000D02*
X127760000Y-100990000D01*
X127760000Y-100990000D02*
X127750000Y-101000000D01*
D52*
X126093315Y-115650500D02*
X125309815Y-114867000D01*
X124706363Y-114867000D02*
X124300000Y-114460637D01*
%TO.N,/SC2*%
X124752500Y-115650500D02*
X125093812Y-115650500D01*
D54*
X130000000Y-99000000D02*
X130000000Y-100990000D01*
D52*
X130760000Y-101750000D02*
X130000000Y-100990000D01*
X131750000Y-101750000D02*
X130760000Y-101750000D01*
X123650000Y-113760000D02*
X123650000Y-114548000D01*
X123650000Y-114548000D02*
X124752500Y-115650500D01*
%TO.N,/SD3*%
X132663500Y-114163500D02*
X132663500Y-114837699D01*
X128634817Y-110580000D02*
X129080000Y-110580000D01*
X129080000Y-110580000D02*
X132663500Y-114163500D01*
X129000000Y-108990000D02*
X128380000Y-109610000D01*
X123000000Y-114500000D02*
X123000000Y-113760000D01*
X128380000Y-110325183D02*
X128634817Y-110580000D01*
D54*
X129000000Y-108990000D02*
X129000000Y-106825000D01*
D52*
X131187699Y-116313500D02*
X124813500Y-116313500D01*
X128380000Y-109610000D02*
X128380000Y-110325183D01*
X132663500Y-114837699D02*
X131187699Y-116313500D01*
X124813500Y-116313500D02*
X123000000Y-114500000D01*
D54*
%TO.N,/SC3*%
X130000000Y-108980000D02*
X130000000Y-106825000D01*
D52*
X133027000Y-114936647D02*
X131323147Y-116640500D01*
X133027000Y-111037050D02*
X133027000Y-114936647D01*
X130969950Y-108980000D02*
X133027000Y-111037050D01*
X130000000Y-108980000D02*
X130969950Y-108980000D01*
X124390500Y-116640500D02*
X122350000Y-114600000D01*
X131323147Y-116640500D02*
X124390500Y-116640500D01*
X122350000Y-114600000D02*
X122350000Y-113760000D01*
D53*
%TO.N,Net-(U3-VFB)*%
X224040000Y-134500000D02*
X223010000Y-134500000D01*
X226345000Y-134607500D02*
X224147500Y-134607500D01*
X223010000Y-134500000D02*
X223000000Y-134490000D01*
X224147500Y-134607500D02*
X224040000Y-134500000D01*
D54*
%TO.N,/WS2812*%
X120120000Y-138500000D02*
X122170000Y-140550000D01*
X184523654Y-133930000D02*
X187910000Y-133930000D01*
X122170000Y-140550000D02*
X180443654Y-140550000D01*
X183850000Y-137143654D02*
X183850000Y-134603654D01*
X180443654Y-140550000D02*
X183850000Y-137143654D01*
X183850000Y-134603654D02*
X184523654Y-133930000D01*
X187910000Y-133930000D02*
X193730000Y-139750000D01*
D53*
%TO.N,Net-(U5-CS)*%
X236060000Y-124000000D02*
X238730000Y-124000000D01*
%TO.N,/RST*%
X125200000Y-138500000D02*
X129175000Y-134525000D01*
X138025000Y-134525000D02*
X138250000Y-134750000D01*
X129175000Y-134525000D02*
X138025000Y-134525000D01*
D54*
%TO.N,/TFT_CS*%
X112000000Y-107984314D02*
X114352600Y-110336915D01*
X112000000Y-105000000D02*
X112000000Y-107984314D01*
X107800000Y-104250000D02*
X111250000Y-104250000D01*
X111250000Y-104250000D02*
X112000000Y-105000000D01*
X114352600Y-110336915D02*
X114352600Y-117492600D01*
X114352600Y-117492600D02*
X120120000Y-123260000D01*
D56*
%TO.N,/BAT_READING*%
X122660000Y-136090000D02*
X122750000Y-136000000D01*
X122660000Y-138500000D02*
X122660000Y-136090000D01*
X122750000Y-136000000D02*
X122260000Y-136000000D01*
X123240000Y-136000000D02*
X122750000Y-136000000D01*
D54*
%TO.N,/TFT_D{slash}C*%
X107800000Y-105250000D02*
X108700000Y-105250000D01*
X109400000Y-105950000D02*
X109400000Y-106650000D01*
X113952600Y-111202600D02*
X113952600Y-137047400D01*
X108700000Y-105250000D02*
X109400000Y-105950000D01*
X109400000Y-106650000D02*
X113952600Y-111202600D01*
X113952600Y-137047400D02*
X112500000Y-138500000D01*
D53*
%TO.N,/VBAT_MCU*%
X228149574Y-134607500D02*
X228655000Y-134607500D01*
D54*
X241000000Y-128000000D02*
X242980000Y-128000000D01*
D53*
X227199574Y-135557500D02*
X228149574Y-134607500D01*
X226345000Y-135557500D02*
X227199574Y-135557500D01*
D54*
X124260000Y-136000000D02*
X125250000Y-136000000D01*
%TO.N,/TFT_RST*%
X118000000Y-118500000D02*
X120000000Y-120500000D01*
X120000000Y-120500000D02*
X120000000Y-121250000D01*
X109980000Y-105000000D02*
X109980000Y-106240756D01*
X107800000Y-104750000D02*
X109730000Y-104750000D01*
X109980000Y-106240756D02*
X111119622Y-107380378D01*
X109730000Y-104750000D02*
X109980000Y-105000000D01*
D53*
%TO.N,Net-(U6-CS)*%
X234690000Y-107690000D02*
X234690000Y-109190000D01*
X234000000Y-107000000D02*
X234690000Y-107690000D01*
%TO.N,Net-(U2-~{RESET})*%
X127550000Y-112320000D02*
X127500000Y-112270000D01*
X127550000Y-113760000D02*
X127550000Y-112320000D01*
%TO.N,Net-(U2-A0)*%
X129980000Y-113500000D02*
X129110000Y-113500000D01*
X129110000Y-113500000D02*
X128850000Y-113760000D01*
%TO.N,Net-(U2-A1)*%
X128200000Y-113760000D02*
X128200000Y-112560000D01*
X128200000Y-112560000D02*
X128500000Y-112260000D01*
D54*
%TO.N,Net-(U2-A2)*%
X126760000Y-119640000D02*
X126900000Y-119500000D01*
X126760000Y-121250000D02*
X126760000Y-119640000D01*
D53*
%TO.N,Net-(U5-SE)*%
X238580000Y-125000000D02*
X238730000Y-124850000D01*
X236050000Y-125000000D02*
X238580000Y-125000000D01*
%TO.N,Net-(U6-SE)*%
X233040000Y-107020000D02*
X233612600Y-107592600D01*
X233840000Y-108237644D02*
X233840000Y-109190000D01*
X233612600Y-108010244D02*
X233840000Y-108237644D01*
X233612600Y-107592600D02*
X233612600Y-108010244D01*
D54*
%TO.N,Net-(R_MTR1-Pad1)*%
X233000000Y-102000000D02*
X236000000Y-105000000D01*
X228446497Y-102000000D02*
X233000000Y-102000000D01*
X236000000Y-105000000D02*
X236000000Y-106000000D01*
X225540000Y-107000000D02*
X225540000Y-104906497D01*
X225540000Y-104906497D02*
X228446497Y-102000000D01*
D53*
%TO.N,Net-(U6-INPUT)*%
X235540000Y-107500000D02*
X235540000Y-109190000D01*
X235040000Y-107000000D02*
X235540000Y-107500000D01*
X235060000Y-107020000D02*
X235040000Y-107000000D01*
X236000000Y-107020000D02*
X235060000Y-107020000D01*
%TO.N,Net-(R_PWR1-Pad1)*%
X234000000Y-127000000D02*
X236250000Y-129250000D01*
X236250000Y-129250000D02*
X236250000Y-136100000D01*
X234000000Y-124030538D02*
X234000000Y-127000000D01*
X235030538Y-123000000D02*
X234000000Y-124030538D01*
X235040000Y-123000000D02*
X235030538Y-123000000D01*
%TO.N,Net-(U5-INPUT)*%
X236060000Y-123000000D02*
X236060000Y-122020000D01*
X236060000Y-122020000D02*
X236080000Y-122000000D01*
X238580000Y-123000000D02*
X238730000Y-123150000D01*
X236060000Y-123000000D02*
X238580000Y-123000000D01*
%TD*%
%TA.AperFunction,Conductor*%
%TO.N,GND*%
G36*
X217938000Y-125016613D02*
G01*
X217983387Y-125062000D01*
X218000000Y-125124000D01*
X218000000Y-128876000D01*
X217983387Y-128938000D01*
X217938000Y-128983387D01*
X217876000Y-129000000D01*
X212505540Y-129000000D01*
X212458087Y-128990561D01*
X212417859Y-128963681D01*
X211036319Y-127582141D01*
X211009439Y-127541913D01*
X211000000Y-127494460D01*
X211000000Y-126051362D01*
X211009439Y-126003909D01*
X211036319Y-125963681D01*
X211963681Y-125036319D01*
X212003909Y-125009439D01*
X212051362Y-125000000D01*
X217876000Y-125000000D01*
X217938000Y-125016613D01*
G37*
%TD.AperFunction*%
%TD*%
%TA.AperFunction,Conductor*%
%TO.N,/BUCK_5V*%
G36*
X228938000Y-117016613D02*
G01*
X228983387Y-117062000D01*
X229000000Y-117124000D01*
X229000000Y-123876000D01*
X228983387Y-123938000D01*
X228938000Y-123983387D01*
X228876000Y-124000000D01*
X211124000Y-124000000D01*
X211062000Y-123983387D01*
X211016613Y-123938000D01*
X211000000Y-123876000D01*
X211000000Y-117124000D01*
X211016613Y-117062000D01*
X211062000Y-117016613D01*
X211124000Y-117000000D01*
X228876000Y-117000000D01*
X228938000Y-117016613D01*
G37*
%TD.AperFunction*%
%TD*%
%TA.AperFunction,Conductor*%
%TO.N,/VBAT_MOTOR_PRE*%
G36*
X237482269Y-102537915D02*
G01*
X239496293Y-102599885D01*
X239503674Y-102600334D01*
X241587985Y-102789816D01*
X241644899Y-102809708D01*
X241685705Y-102854092D01*
X241700754Y-102912475D01*
X241749162Y-110125168D01*
X241732828Y-110187519D01*
X241687405Y-110233248D01*
X241625165Y-110250000D01*
X236474500Y-110250000D01*
X236412500Y-110233387D01*
X236367113Y-110188000D01*
X236350500Y-110126000D01*
X236350499Y-108113348D01*
X236350499Y-108113345D01*
X236343932Y-108052254D01*
X236295827Y-107923283D01*
X236290273Y-107856368D01*
X236320415Y-107796366D01*
X236377413Y-107760875D01*
X236439393Y-107742869D01*
X236577598Y-107661135D01*
X236691135Y-107547598D01*
X236772869Y-107409393D01*
X236817665Y-107255204D01*
X236820500Y-107219181D01*
X236820499Y-106820820D01*
X236817665Y-106784796D01*
X236795266Y-106707701D01*
X236772870Y-106630609D01*
X236772869Y-106630607D01*
X236738870Y-106573117D01*
X236721603Y-106509998D01*
X236738870Y-106446879D01*
X236772869Y-106389393D01*
X236817665Y-106235204D01*
X236820500Y-106199181D01*
X236820499Y-105800820D01*
X236817665Y-105764796D01*
X236772869Y-105610607D01*
X236691135Y-105472402D01*
X236636818Y-105418085D01*
X236609939Y-105377858D01*
X236600500Y-105330405D01*
X236600500Y-105047487D01*
X236601561Y-105031301D01*
X236605682Y-104999999D01*
X236602964Y-104979361D01*
X236585044Y-104843238D01*
X236524536Y-104697159D01*
X236524535Y-104697158D01*
X236452454Y-104603219D01*
X236452452Y-104603217D01*
X236452450Y-104603215D01*
X236428282Y-104571718D01*
X236403229Y-104552494D01*
X236391035Y-104541800D01*
X236314239Y-104465004D01*
X236292592Y-104435833D01*
X236280328Y-104401641D01*
X236252408Y-104262040D01*
X236250000Y-104237722D01*
X236250000Y-102627874D01*
X236267254Y-102564776D01*
X236314215Y-102519238D01*
X236377814Y-102503933D01*
X237482269Y-102537915D01*
G37*
%TD.AperFunction*%
%TD*%
%TA.AperFunction,Conductor*%
%TO.N,/VBAT_MCU*%
G36*
X231938000Y-120016613D02*
G01*
X231983387Y-120062000D01*
X232000000Y-120124000D01*
X232000000Y-132007569D01*
X231999168Y-132021910D01*
X231994500Y-132062000D01*
X231994500Y-133876001D01*
X231998939Y-133909716D01*
X232000000Y-133925902D01*
X232000000Y-134876000D01*
X231983387Y-134938000D01*
X231938000Y-134983387D01*
X231876000Y-135000000D01*
X231066749Y-135000000D01*
X231016314Y-134989280D01*
X230974599Y-134958972D01*
X230855870Y-134827110D01*
X230702730Y-134715848D01*
X230529802Y-134638855D01*
X230344648Y-134599500D01*
X230344646Y-134599500D01*
X230155354Y-134599500D01*
X230155352Y-134599500D01*
X229970197Y-134638855D01*
X229797271Y-134715847D01*
X229783550Y-134725817D01*
X229748982Y-134743431D01*
X229710663Y-134749500D01*
X228776206Y-134749500D01*
X228758236Y-134748191D01*
X228744353Y-134746157D01*
X228734477Y-134744711D01*
X228734476Y-134744711D01*
X228685134Y-134749028D01*
X228674327Y-134749500D01*
X228668789Y-134749500D01*
X228637987Y-134753099D01*
X228634405Y-134753465D01*
X228545267Y-134761265D01*
X228545168Y-134760144D01*
X228533664Y-134762000D01*
X228160084Y-134762000D01*
X228094619Y-134743311D01*
X228048888Y-134692877D01*
X228036676Y-134625901D01*
X229023383Y-124561484D01*
X229047176Y-124499743D01*
X229099338Y-124459027D01*
X229190750Y-124421163D01*
X229295442Y-124340829D01*
X229340829Y-124295442D01*
X229340829Y-124295441D01*
X229421163Y-124190750D01*
X229471662Y-124068834D01*
X229488275Y-124006834D01*
X229505500Y-123876000D01*
X229505500Y-120124000D01*
X229522113Y-120062000D01*
X229567500Y-120016613D01*
X229629500Y-120000000D01*
X231876000Y-120000000D01*
X231938000Y-120016613D01*
G37*
%TD.AperFunction*%
%TD*%
%TA.AperFunction,Conductor*%
%TO.N,/VBAT*%
G36*
X239938000Y-112516613D02*
G01*
X239983387Y-112562000D01*
X240000000Y-112624000D01*
X240000000Y-122222240D01*
X239981106Y-122288033D01*
X239930182Y-122333776D01*
X239862746Y-122345530D01*
X239830338Y-122342046D01*
X239806655Y-122339500D01*
X239806652Y-122339500D01*
X237653348Y-122339500D01*
X237592254Y-122346068D01*
X237536987Y-122366682D01*
X237493653Y-122374500D01*
X237482696Y-122374500D01*
X237424186Y-122359828D01*
X237379522Y-122319283D01*
X236500000Y-121000000D01*
X234500000Y-121000000D01*
X234499999Y-121000000D01*
X234499998Y-121000001D01*
X234034273Y-121931454D01*
X233988555Y-121981481D01*
X233923364Y-122000000D01*
X232629500Y-122000000D01*
X232567500Y-121983387D01*
X232522113Y-121938000D01*
X232505500Y-121876000D01*
X232505500Y-120123999D01*
X232501061Y-120090284D01*
X232500000Y-120074098D01*
X232500000Y-112624000D01*
X232516613Y-112562000D01*
X232562000Y-112516613D01*
X232624000Y-112500000D01*
X239876000Y-112500000D01*
X239938000Y-112516613D01*
G37*
%TD.AperFunction*%
%TD*%
%TA.AperFunction,Conductor*%
%TO.N,/VBAT_MOTOR*%
G36*
X248938000Y-98016613D02*
G01*
X248983387Y-98062000D01*
X249000000Y-98124000D01*
X249000000Y-102876000D01*
X248983387Y-102938000D01*
X248938000Y-102983387D01*
X248876000Y-103000000D01*
X245029272Y-103000000D01*
X244973818Y-102986909D01*
X243000000Y-102000000D01*
X236124000Y-102000000D01*
X236062000Y-101983387D01*
X236016613Y-101938000D01*
X236000000Y-101876000D01*
X236000000Y-100076636D01*
X236018519Y-100011445D01*
X236068546Y-99965727D01*
X239973818Y-98013091D01*
X240029272Y-98000000D01*
X248876000Y-98000000D01*
X248938000Y-98016613D01*
G37*
%TD.AperFunction*%
%TD*%
%TA.AperFunction,Conductor*%
%TO.N,/VBAT_IN*%
G36*
X248438000Y-114016613D02*
G01*
X248483387Y-114062000D01*
X248500000Y-114124000D01*
X248500000Y-125876000D01*
X248483387Y-125938000D01*
X248438000Y-125983387D01*
X248376000Y-126000000D01*
X242124000Y-126000000D01*
X242062000Y-125983387D01*
X242016613Y-125938000D01*
X242000000Y-125876000D01*
X242000000Y-114124000D01*
X242016613Y-114062000D01*
X242062000Y-114016613D01*
X242124000Y-114000000D01*
X248376000Y-114000000D01*
X248438000Y-114016613D01*
G37*
%TD.AperFunction*%
%TD*%
%TA.AperFunction,Conductor*%
%TO.N,GND*%
G36*
X232937501Y-136266613D02*
G01*
X232982888Y-136312000D01*
X232999501Y-136374000D01*
X232999501Y-136401416D01*
X233000000Y-136411210D01*
X233000000Y-137788779D01*
X232999500Y-137798594D01*
X232999500Y-138401415D01*
X233000000Y-138411210D01*
X233000000Y-139376000D01*
X232983387Y-139438000D01*
X232938000Y-139483387D01*
X232876000Y-139500000D01*
X230374000Y-139500000D01*
X230312000Y-139483387D01*
X230266613Y-139438000D01*
X230250000Y-139376000D01*
X230250000Y-137750000D01*
X229790025Y-137750000D01*
X229751706Y-137743931D01*
X229717138Y-137726317D01*
X229702727Y-137715847D01*
X229529802Y-137638855D01*
X229344648Y-137599500D01*
X229344646Y-137599500D01*
X229155354Y-137599500D01*
X229138906Y-137602995D01*
X229084538Y-137602364D01*
X229035666Y-137578533D01*
X228966660Y-137523328D01*
X228930040Y-137475094D01*
X228920632Y-137415270D01*
X228940677Y-137358125D01*
X228985396Y-137317288D01*
X229044122Y-137302500D01*
X229381083Y-137302500D01*
X229468065Y-137292054D01*
X229606489Y-137237466D01*
X229725055Y-137147555D01*
X229814966Y-137028989D01*
X229869554Y-136890565D01*
X229880000Y-136803583D01*
X229880000Y-136757500D01*
X228529000Y-136757500D01*
X228467000Y-136740887D01*
X228421613Y-136695500D01*
X228405000Y-136633500D01*
X228405000Y-136477000D01*
X228421613Y-136415000D01*
X228467000Y-136369613D01*
X228529000Y-136353000D01*
X229381122Y-136353000D01*
X229468185Y-136342544D01*
X229468185Y-136342543D01*
X229606738Y-136287906D01*
X229613609Y-136282695D01*
X229649011Y-136263967D01*
X229688534Y-136257500D01*
X229720297Y-136257500D01*
X229758615Y-136263569D01*
X229793182Y-136281182D01*
X229797269Y-136284151D01*
X229970197Y-136361144D01*
X230155352Y-136400500D01*
X230155354Y-136400500D01*
X230344646Y-136400500D01*
X230344648Y-136400500D01*
X230489959Y-136369613D01*
X230529803Y-136361144D01*
X230702730Y-136284151D01*
X230717138Y-136273682D01*
X230751706Y-136256069D01*
X230790025Y-136250000D01*
X232875501Y-136250000D01*
X232937501Y-136266613D01*
G37*
%TD.AperFunction*%
%TD*%
%TA.AperFunction,Conductor*%
%TO.N,GND*%
G36*
X235252317Y-129156020D02*
G01*
X235301680Y-129186270D01*
X235588181Y-129472771D01*
X235615061Y-129512999D01*
X235624500Y-129560452D01*
X235624500Y-133876000D01*
X235607887Y-133938000D01*
X235562500Y-133983387D01*
X235500500Y-134000000D01*
X232624000Y-134000000D01*
X232562000Y-133983387D01*
X232516613Y-133938000D01*
X232500000Y-133876000D01*
X232500000Y-132062000D01*
X232513091Y-132006546D01*
X232549600Y-131962800D01*
X232549599Y-131962800D01*
X232997876Y-131626592D01*
X233051634Y-131603524D01*
X233109992Y-131607672D01*
X233159952Y-131638114D01*
X233221654Y-131699816D01*
X233370877Y-131791857D01*
X233537303Y-131847006D01*
X233640021Y-131857500D01*
X233765000Y-131857500D01*
X233765000Y-130257500D01*
X234265000Y-130257500D01*
X234265000Y-131857499D01*
X234389979Y-131857499D01*
X234492695Y-131847006D01*
X234659122Y-131791857D01*
X234808345Y-131699816D01*
X234932316Y-131575845D01*
X235024357Y-131426622D01*
X235079506Y-131260196D01*
X235090000Y-131157479D01*
X235090000Y-130257500D01*
X234265000Y-130257500D01*
X233765000Y-130257500D01*
X233765000Y-129881500D01*
X233781613Y-129819500D01*
X233827000Y-129774113D01*
X233889000Y-129757500D01*
X235089999Y-129757500D01*
X235089999Y-129273951D01*
X235103514Y-129217656D01*
X235141114Y-129173633D01*
X235194601Y-129151478D01*
X235252317Y-129156020D01*
G37*
%TD.AperFunction*%
%TD*%
%TA.AperFunction,Conductor*%
%TO.N,GND*%
G36*
X235217500Y-124766613D02*
G01*
X235262887Y-124812000D01*
X235279500Y-124874000D01*
X235279500Y-125249179D01*
X235282335Y-125285205D01*
X235327130Y-125439392D01*
X235327131Y-125439393D01*
X235408865Y-125577598D01*
X235522402Y-125691135D01*
X235660607Y-125772869D01*
X235814796Y-125817665D01*
X235850819Y-125820500D01*
X236249180Y-125820499D01*
X236285204Y-125817665D01*
X236439393Y-125772869D01*
X236577598Y-125691135D01*
X236606913Y-125661819D01*
X236647142Y-125634939D01*
X236694595Y-125625500D01*
X237493653Y-125625500D01*
X237536987Y-125633319D01*
X237592249Y-125653931D01*
X237592252Y-125653931D01*
X237592254Y-125653932D01*
X237653345Y-125660500D01*
X239626000Y-125660499D01*
X239688000Y-125677112D01*
X239733387Y-125722499D01*
X239750000Y-125784499D01*
X239750000Y-127376000D01*
X239733387Y-127438000D01*
X239688000Y-127483387D01*
X239626000Y-127500000D01*
X235435953Y-127500000D01*
X235388500Y-127490561D01*
X235348272Y-127463681D01*
X234661819Y-126777228D01*
X234634939Y-126737000D01*
X234625500Y-126689547D01*
X234625500Y-124874000D01*
X234642113Y-124812000D01*
X234687500Y-124766613D01*
X234749500Y-124750000D01*
X235155500Y-124750000D01*
X235217500Y-124766613D01*
G37*
%TD.AperFunction*%
%TD*%
M02*
