%TF.GenerationSoftware,KiCad,Pcbnew,7.0.1-0*%
%TF.CreationDate,2023-09-22T11:11:22-04:00*%
%TF.ProjectId,Segway V7,53656777-6179-4205-9637-2e6b69636164,V1*%
%TF.SameCoordinates,Original*%
%TF.FileFunction,Copper,L2,Inr*%
%TF.FilePolarity,Positive*%
%FSLAX46Y46*%
G04 Gerber Fmt 4.6, Leading zero omitted, Abs format (unit mm)*
G04 Created by KiCad (PCBNEW 7.0.1-0) date 2023-09-22 11:11:22*
%MOMM*%
%LPD*%
G01*
G04 APERTURE LIST*
%TA.AperFunction,ComponentPad*%
%ADD10R,2.600000X2.600000*%
%TD*%
%TA.AperFunction,ComponentPad*%
%ADD11C,2.600000*%
%TD*%
%TA.AperFunction,ComponentPad*%
%ADD12C,7.500000*%
%TD*%
%TA.AperFunction,ComponentPad*%
%ADD13R,1.700000X1.700000*%
%TD*%
%TA.AperFunction,ComponentPad*%
%ADD14O,1.700000X1.700000*%
%TD*%
%TA.AperFunction,ComponentPad*%
%ADD15C,1.574800*%
%TD*%
%TA.AperFunction,ComponentPad*%
%ADD16R,1.473200X1.473200*%
%TD*%
%TA.AperFunction,ComponentPad*%
%ADD17C,2.000000*%
%TD*%
%TA.AperFunction,ComponentPad*%
%ADD18C,1.524000*%
%TD*%
%TA.AperFunction,ViaPad*%
%ADD19C,0.800000*%
%TD*%
G04 APERTURE END LIST*
D10*
%TO.N,/VBAT_IN*%
%TO.C,J10*%
X246000000Y-116080000D03*
D11*
%TO.N,GND*%
X246000000Y-111000000D03*
X246000000Y-105920000D03*
%TO.N,/VBAT_MOTOR*%
X246000000Y-100840000D03*
%TD*%
D12*
%TO.N,GND*%
%TO.C,REF\u002A\u002A*%
X109000000Y-117000000D03*
%TD*%
D13*
%TO.N,GND*%
%TO.C,J2*%
X199500000Y-139500000D03*
D14*
%TO.N,Net-(J2-Pin_2)*%
X202040000Y-139500000D03*
%TO.N,/BUCK_5V*%
X204580000Y-139500000D03*
%TD*%
D15*
%TO.N,/MOSI*%
%TO.C,U1*%
X104880000Y-138500000D03*
%TO.N,/MISO*%
X107420000Y-138500000D03*
%TO.N,/SCK*%
X109960000Y-138500000D03*
%TO.N,/TFT_D{slash}C*%
X112500000Y-138500000D03*
%TO.N,/SCL*%
X115040000Y-138500000D03*
%TO.N,/SDA*%
X117580000Y-138500000D03*
%TO.N,/WS2812*%
X120120000Y-138500000D03*
%TO.N,/BAT_READING*%
X122660000Y-138500000D03*
%TO.N,/RST*%
X125200000Y-138500000D03*
D16*
%TO.N,GND*%
X127740000Y-138500000D03*
D15*
%TO.N,/TX*%
X130280000Y-138500000D03*
%TO.N,/RX*%
X132820000Y-138500000D03*
%TO.N,/HALL_L_B*%
X135360000Y-138500000D03*
%TO.N,/DIR1*%
X137900000Y-138500000D03*
%TO.N,/DIR2*%
X140440000Y-138500000D03*
%TO.N,/PWM1*%
X142980000Y-138500000D03*
%TO.N,/PWM2*%
X145520000Y-138500000D03*
%TO.N,/IMU_CS*%
X145520000Y-123260000D03*
%TO.N,/IMU_INT*%
X142980000Y-123260000D03*
%TO.N,/IMU_RST*%
X140440000Y-123260000D03*
%TO.N,/HALL_R_B*%
X137900000Y-123260000D03*
%TO.N,/HALL_R_A*%
X135360000Y-123260000D03*
%TO.N,unconnected-(U1-LDO2_OUT-Pad12)*%
X132820000Y-123260000D03*
%TO.N,/TFT_RST*%
X130280000Y-123260000D03*
%TO.N,/HALL_L_A*%
X127740000Y-123260000D03*
%TO.N,/A4*%
X125200000Y-123260000D03*
%TO.N,/A3*%
X122660000Y-123260000D03*
%TO.N,/TFT_CS*%
X120120000Y-123260000D03*
%TO.N,/A1*%
X117580000Y-123260000D03*
%TO.N,/A0*%
X115040000Y-123260000D03*
%TO.N,+3.3V*%
X112500000Y-123260000D03*
%TO.N,+5V*%
X109960000Y-123260000D03*
D16*
%TO.N,GND*%
X107420000Y-123260000D03*
D15*
%TO.N,unconnected-(U1-VBAT-Pad1)*%
X104880000Y-123260000D03*
%TD*%
D13*
%TO.N,/DIR1*%
%TO.C,J8*%
X223420000Y-98500000D03*
D14*
%TO.N,/PWM1*%
X225960000Y-98500000D03*
%TO.N,/DIR2*%
X228500000Y-98500000D03*
%TO.N,/PWM2*%
X231040000Y-98500000D03*
%TO.N,GND*%
X233580000Y-98500000D03*
%TD*%
D13*
%TO.N,+3.3V*%
%TO.C,J3*%
X171000000Y-130000000D03*
D14*
X171000000Y-132540000D03*
X171000000Y-135080000D03*
X171000000Y-137620000D03*
%TD*%
D13*
%TO.N,GND*%
%TO.C,J7*%
X185000000Y-130000000D03*
D14*
%TO.N,+3.3V*%
X185000000Y-132540000D03*
%TO.N,/RX*%
X185000000Y-135080000D03*
%TO.N,/TX*%
X185000000Y-137620000D03*
%TD*%
D13*
%TO.N,GND*%
%TO.C,J4*%
X175650000Y-130000000D03*
D14*
X175650000Y-132540000D03*
X175650000Y-135080000D03*
X175650000Y-137620000D03*
%TD*%
D12*
%TO.N,GND*%
%TO.C,REF\u002A\u002A*%
X204000000Y-101000000D03*
%TD*%
D17*
%TO.N,/RST*%
%TO.C,SW3*%
X158750000Y-134750000D03*
X165250000Y-134750000D03*
%TO.N,GND*%
X158750000Y-139250000D03*
X165250000Y-139250000D03*
%TD*%
D18*
%TO.N,+3.3V*%
%TO.C,A1*%
X141650000Y-115890000D03*
%TO.N,unconnected-(A1-3Vo-Pad2)*%
X144190000Y-115890000D03*
%TO.N,GND*%
X146730000Y-115890000D03*
%TO.N,/SCK*%
X149270000Y-115890000D03*
%TO.N,/MISO*%
X151810000Y-115890000D03*
%TO.N,/IMU_INT*%
X154350000Y-115890000D03*
%TO.N,unconnected-(A1-BT-Pad7)*%
X141650000Y-98110000D03*
%TO.N,+3.3V*%
X144190000Y-98110000D03*
X146730000Y-98110000D03*
%TO.N,/IMU_RST*%
X149270000Y-98110000D03*
%TO.N,/MOSI*%
X151810000Y-98110000D03*
%TO.N,/IMU_CS*%
X154350000Y-98110000D03*
%TD*%
D13*
%TO.N,/BUCK_5V*%
%TO.C,J5*%
X180300000Y-130000000D03*
D14*
X180300000Y-132540000D03*
X180300000Y-135080000D03*
X180300000Y-137620000D03*
%TD*%
D12*
%TO.N,GND*%
%TO.C,REF\u002A\u002A*%
X162000000Y-126000000D03*
%TD*%
%TO.N,GND*%
%TO.C,REF\u002A\u002A*%
X247000000Y-138000000D03*
%TD*%
D19*
%TO.N,/VBAT_MOTOR_PRE*%
X237000000Y-105000000D03*
X241000000Y-104000000D03*
X240000000Y-104000000D03*
X241000000Y-108000000D03*
X241000000Y-109000000D03*
X240000000Y-109000000D03*
X240000000Y-108000000D03*
X241000000Y-107000000D03*
X240000000Y-107000000D03*
X239000000Y-107000000D03*
X238000000Y-107000000D03*
X238000000Y-106000000D03*
X239000000Y-106000000D03*
X240000000Y-106000000D03*
X241000000Y-106000000D03*
X241000000Y-105000000D03*
X240000000Y-105000000D03*
X239000000Y-105000000D03*
X238000000Y-105000000D03*
%TO.N,/VBAT_MOTOR*%
X247500000Y-102500000D03*
X248250000Y-101500000D03*
X248250000Y-99750000D03*
X247500000Y-98750000D03*
X244500000Y-98750000D03*
X244250000Y-102000000D03*
X243250000Y-101250000D03*
X243250000Y-100250000D03*
X243250000Y-99250000D03*
X242000000Y-99250000D03*
X242000000Y-100250000D03*
X242000000Y-101250000D03*
X240750000Y-101250000D03*
X240750000Y-100250000D03*
X240750000Y-99250000D03*
X239500000Y-99250000D03*
X239500000Y-100250000D03*
X239500000Y-101250000D03*
%TO.N,/VBAT*%
X239250000Y-119500000D03*
X239250000Y-118500000D03*
X239250000Y-117500000D03*
X239250000Y-116000000D03*
X239250000Y-114750000D03*
X239250000Y-113250000D03*
X236750000Y-119500000D03*
X236750000Y-120500000D03*
X235500000Y-120500000D03*
X235500000Y-119500000D03*
X234250000Y-119500000D03*
X233000000Y-119500000D03*
%TO.N,/VBAT_IN*%
X244000000Y-118000000D03*
X248000000Y-119000000D03*
X247000000Y-119000000D03*
X246000000Y-119000000D03*
X245000000Y-119000000D03*
X244000000Y-119000000D03*
X243000000Y-119000000D03*
X243000000Y-118000000D03*
X243000000Y-117000000D03*
X243000000Y-116000000D03*
X243000000Y-115000000D03*
%TO.N,GND*%
X238000000Y-127000000D03*
X236500000Y-126500000D03*
X235250000Y-126500000D03*
X235000000Y-132000000D03*
X234500000Y-133000000D03*
X233250000Y-133000000D03*
%TO.N,Net-(U3-SW)*%
X227250000Y-131750000D03*
%TO.N,GND*%
X232250000Y-138750000D03*
X232250000Y-137750000D03*
X232250000Y-136750000D03*
X231250000Y-138750000D03*
X231250000Y-137750000D03*
X231250000Y-136750000D03*
%TO.N,Net-(U3-SW)*%
X229250000Y-138500000D03*
%TO.N,+3.3V*%
X120000000Y-103250000D03*
X111000000Y-106000000D03*
X176000000Y-119000000D03*
X169000000Y-105750000D03*
X117500000Y-100500000D03*
X187000000Y-119000000D03*
X117500000Y-108500000D03*
X189250000Y-108000000D03*
X131000000Y-110000000D03*
X185250000Y-106000000D03*
X126500000Y-100500000D03*
X127500000Y-110250000D03*
X121500000Y-111000000D03*
X126500000Y-108500000D03*
X173000000Y-108250000D03*
X164000000Y-119000000D03*
X187250000Y-108000000D03*
X129000000Y-103250000D03*
X199000000Y-119000000D03*
X171000000Y-108250000D03*
X132750000Y-116750000D03*
X108000000Y-109000000D03*
%TO.N,GND*%
X125500000Y-107500000D03*
X194000000Y-119000000D03*
X121500000Y-122250000D03*
X200000000Y-136000000D03*
X248500000Y-128500000D03*
X224000000Y-137000000D03*
X205000000Y-119000000D03*
X182000000Y-119000000D03*
X108000000Y-110000000D03*
X116500000Y-107500000D03*
X213000000Y-128000000D03*
X209000000Y-138000000D03*
X171000000Y-119000000D03*
X132000000Y-114500000D03*
X231750000Y-106500000D03*
X215000000Y-128000000D03*
X233000000Y-124000000D03*
X201000000Y-135000000D03*
X183250000Y-106000000D03*
X167000000Y-105750000D03*
X241000000Y-97000000D03*
X125500000Y-99500000D03*
X116500000Y-99500000D03*
X120500000Y-113750000D03*
X231750000Y-107500000D03*
X120250000Y-135250000D03*
X217000000Y-128000000D03*
%TO.N,/SCK*%
X105250000Y-121000000D03*
X107000000Y-110000000D03*
X103750000Y-132000000D03*
%TO.N,/MISO*%
X112500000Y-135750000D03*
X138000000Y-130250000D03*
X135000000Y-133000000D03*
%TO.N,/MOSI*%
X112250000Y-110750000D03*
%TO.N,Net-(U3-SW)*%
X230250000Y-135500000D03*
%TO.N,/HALL_L_B*%
X132250000Y-133750000D03*
X134500000Y-130250000D03*
X137000000Y-127250000D03*
%TO.N,/HALL_R_A*%
X133250000Y-118000000D03*
X132250000Y-120500000D03*
X176750000Y-109250000D03*
%TO.N,/HALL_R_B*%
X138750000Y-120500000D03*
%TO.N,/SCL*%
X125000000Y-127500000D03*
X129000000Y-122250000D03*
%TO.N,/SDA*%
X127500000Y-129000000D03*
X131500000Y-122000000D03*
%TO.N,/TX*%
X132250000Y-141474500D03*
%TO.N,/RX*%
X129375000Y-141500000D03*
%TO.N,/A0*%
X166000000Y-120750000D03*
%TO.N,/A1*%
X178000000Y-121750000D03*
%TO.N,Net-(Q1-Pad2)*%
X216987701Y-139987701D03*
X214000000Y-140000000D03*
%TO.N,+5V*%
X216000000Y-141000000D03*
%TO.N,/SC0*%
X126521001Y-110048599D03*
X126237000Y-111750000D03*
%TO.N,/SD1*%
X124430812Y-111750000D03*
X120855003Y-111763534D03*
%TO.N,/SD2*%
X126093315Y-115650500D03*
X127750000Y-101000000D03*
%TO.N,/SC2*%
X125093812Y-115650500D03*
X131750000Y-101750000D03*
%TO.N,/RST*%
X142500000Y-136500000D03*
X138250000Y-134750000D03*
%TO.N,/VBAT_MCU*%
X125250000Y-136000000D03*
X241000000Y-128000000D03*
X231250000Y-133750000D03*
%TO.N,/TFT_RST*%
X111119622Y-107380378D03*
X120000000Y-121250000D03*
X118000000Y-118500000D03*
%TD*%
%TA.AperFunction,Conductor*%
%TO.N,/VBAT_MOTOR_PRE*%
G36*
X237482269Y-102537915D02*
G01*
X239496293Y-102599885D01*
X239503674Y-102600334D01*
X241587985Y-102789816D01*
X241644899Y-102809708D01*
X241685705Y-102854092D01*
X241700754Y-102912475D01*
X241749162Y-110125168D01*
X241732828Y-110187519D01*
X241687405Y-110233248D01*
X241625165Y-110250000D01*
X236324000Y-110250000D01*
X236262000Y-110233387D01*
X236216613Y-110188000D01*
X236200000Y-110126000D01*
X236200000Y-107624000D01*
X236216613Y-107562000D01*
X236262000Y-107516613D01*
X236324000Y-107500000D01*
X236500000Y-107500000D01*
X236500000Y-105500000D01*
X236252408Y-104262040D01*
X236250000Y-104237722D01*
X236250000Y-102627874D01*
X236267254Y-102564776D01*
X236314215Y-102519238D01*
X236377814Y-102503933D01*
X237482269Y-102537915D01*
G37*
%TD.AperFunction*%
%TD*%
%TA.AperFunction,Conductor*%
%TO.N,/VBAT*%
G36*
X239938000Y-112516613D02*
G01*
X239983387Y-112562000D01*
X240000000Y-112624000D01*
X240000000Y-122376000D01*
X239983387Y-122438000D01*
X239938000Y-122483387D01*
X239876000Y-122500000D01*
X237566363Y-122500000D01*
X237507853Y-122485328D01*
X237463189Y-122444783D01*
X236500000Y-121000000D01*
X234500000Y-121000000D01*
X234499999Y-121000000D01*
X234499998Y-121000001D01*
X234034273Y-121931454D01*
X233988555Y-121981481D01*
X233923364Y-122000000D01*
X232624000Y-122000000D01*
X232562000Y-121983387D01*
X232516613Y-121938000D01*
X232500000Y-121876000D01*
X232500000Y-112624000D01*
X232516613Y-112562000D01*
X232562000Y-112516613D01*
X232624000Y-112500000D01*
X239876000Y-112500000D01*
X239938000Y-112516613D01*
G37*
%TD.AperFunction*%
%TD*%
%TA.AperFunction,Conductor*%
%TO.N,/VBAT_MOTOR*%
G36*
X248938000Y-98016613D02*
G01*
X248983387Y-98062000D01*
X249000000Y-98124000D01*
X249000000Y-102876000D01*
X248983387Y-102938000D01*
X248938000Y-102983387D01*
X248876000Y-103000000D01*
X245029272Y-103000000D01*
X244973818Y-102986909D01*
X243000000Y-102000000D01*
X236438418Y-102000000D01*
X236434604Y-101999941D01*
X236393360Y-101998671D01*
X236386808Y-101999347D01*
X236374099Y-102000000D01*
X236124000Y-102000000D01*
X236062000Y-101983387D01*
X236016613Y-101938000D01*
X236000000Y-101876000D01*
X236000000Y-100076636D01*
X236018519Y-100011445D01*
X236068546Y-99965727D01*
X239973818Y-98013091D01*
X240029272Y-98000000D01*
X248876000Y-98000000D01*
X248938000Y-98016613D01*
G37*
%TD.AperFunction*%
%TD*%
%TA.AperFunction,Conductor*%
%TO.N,/VBAT_IN*%
G36*
X248438000Y-114016613D02*
G01*
X248483387Y-114062000D01*
X248500000Y-114124000D01*
X248500000Y-125876000D01*
X248483387Y-125938000D01*
X248438000Y-125983387D01*
X248376000Y-126000000D01*
X242124000Y-126000000D01*
X242062000Y-125983387D01*
X242016613Y-125938000D01*
X242000000Y-125876000D01*
X242000000Y-114124000D01*
X242016613Y-114062000D01*
X242062000Y-114016613D01*
X242124000Y-114000000D01*
X248376000Y-114000000D01*
X248438000Y-114016613D01*
G37*
%TD.AperFunction*%
%TD*%
%TA.AperFunction,Conductor*%
%TO.N,GND*%
G36*
X250996591Y-95009939D02*
G01*
X251036819Y-95036819D01*
X253963181Y-97963181D01*
X253990061Y-98003409D01*
X253999500Y-98050862D01*
X253999500Y-140949138D01*
X253990061Y-140996591D01*
X253963181Y-141036819D01*
X252036819Y-142963181D01*
X251996591Y-142990061D01*
X251949138Y-142999500D01*
X103050862Y-142999500D01*
X103003409Y-142990061D01*
X102963181Y-142963181D01*
X101500000Y-141500000D01*
X128469540Y-141500000D01*
X128489326Y-141688257D01*
X128547820Y-141868284D01*
X128642466Y-142032216D01*
X128769129Y-142172889D01*
X128922269Y-142284151D01*
X129095197Y-142361144D01*
X129280352Y-142400500D01*
X129280354Y-142400500D01*
X129469646Y-142400500D01*
X129469648Y-142400500D01*
X129593083Y-142374262D01*
X129654803Y-142361144D01*
X129827730Y-142284151D01*
X129980871Y-142172888D01*
X130107533Y-142032216D01*
X130202179Y-141868284D01*
X130260674Y-141688256D01*
X130280460Y-141500000D01*
X130277780Y-141474500D01*
X131344540Y-141474500D01*
X131364326Y-141662757D01*
X131422820Y-141842784D01*
X131517466Y-142006716D01*
X131644129Y-142147389D01*
X131797269Y-142258651D01*
X131970197Y-142335644D01*
X132155352Y-142375000D01*
X132155354Y-142375000D01*
X132344646Y-142375000D01*
X132344648Y-142375000D01*
X132468084Y-142348762D01*
X132529803Y-142335644D01*
X132702730Y-142258651D01*
X132855871Y-142147388D01*
X132982533Y-142006716D01*
X133077179Y-141842784D01*
X133135674Y-141662756D01*
X133155460Y-141474500D01*
X133135674Y-141286244D01*
X133077179Y-141106216D01*
X133077179Y-141106215D01*
X133015856Y-141000000D01*
X215094540Y-141000000D01*
X215114326Y-141188257D01*
X215172820Y-141368284D01*
X215267466Y-141532216D01*
X215394129Y-141672889D01*
X215547269Y-141784151D01*
X215720197Y-141861144D01*
X215905352Y-141900500D01*
X215905354Y-141900500D01*
X216094646Y-141900500D01*
X216094648Y-141900500D01*
X216218084Y-141874262D01*
X216279803Y-141861144D01*
X216452730Y-141784151D01*
X216452729Y-141784151D01*
X216605870Y-141672889D01*
X216732533Y-141532216D01*
X216827179Y-141368284D01*
X216845551Y-141311742D01*
X216885674Y-141188256D01*
X216905460Y-141000000D01*
X216905540Y-140999239D01*
X216926060Y-140942861D01*
X216970647Y-140902715D01*
X217028861Y-140888201D01*
X217082349Y-140888201D01*
X217235446Y-140855659D01*
X217267504Y-140848845D01*
X217440431Y-140771852D01*
X217575065Y-140674035D01*
X217593571Y-140660590D01*
X217613141Y-140638856D01*
X217720234Y-140519917D01*
X217814880Y-140355985D01*
X217873375Y-140175957D01*
X217893161Y-139987701D01*
X217873375Y-139799445D01*
X217814945Y-139619617D01*
X217814880Y-139619416D01*
X217720234Y-139455484D01*
X217593571Y-139314811D01*
X217440431Y-139203549D01*
X217267503Y-139126556D01*
X217082349Y-139087201D01*
X217082347Y-139087201D01*
X216893055Y-139087201D01*
X216893053Y-139087201D01*
X216707898Y-139126556D01*
X216534970Y-139203549D01*
X216381830Y-139314811D01*
X216255167Y-139455484D01*
X216160521Y-139619416D01*
X216102027Y-139799443D01*
X216082161Y-139988462D01*
X216061641Y-140044840D01*
X216017054Y-140084986D01*
X215958840Y-140099500D01*
X215905352Y-140099500D01*
X215720197Y-140138855D01*
X215547269Y-140215848D01*
X215394129Y-140327110D01*
X215267466Y-140467783D01*
X215172820Y-140631715D01*
X215114326Y-140811742D01*
X215094540Y-141000000D01*
X133015856Y-141000000D01*
X132982533Y-140942283D01*
X132855870Y-140801610D01*
X132702730Y-140690348D01*
X132529802Y-140613355D01*
X132344648Y-140574000D01*
X132344646Y-140574000D01*
X132155354Y-140574000D01*
X132155352Y-140574000D01*
X131970197Y-140613355D01*
X131797269Y-140690348D01*
X131644129Y-140801610D01*
X131517466Y-140942283D01*
X131422820Y-141106215D01*
X131364326Y-141286242D01*
X131344540Y-141474500D01*
X130277780Y-141474500D01*
X130260674Y-141311744D01*
X130230332Y-141218363D01*
X130202179Y-141131715D01*
X130107533Y-140967783D01*
X129980870Y-140827110D01*
X129827730Y-140715848D01*
X129654802Y-140638855D01*
X129469648Y-140599500D01*
X129469646Y-140599500D01*
X129280354Y-140599500D01*
X129280352Y-140599500D01*
X129095197Y-140638855D01*
X128922269Y-140715848D01*
X128769129Y-140827110D01*
X128642466Y-140967783D01*
X128547820Y-141131715D01*
X128489326Y-141311742D01*
X128469540Y-141500000D01*
X101500000Y-141500000D01*
X101036819Y-141036819D01*
X101009939Y-140996591D01*
X101000500Y-140949138D01*
X101000500Y-138500000D01*
X103587179Y-138500000D01*
X103606820Y-138724493D01*
X103606821Y-138724496D01*
X103641260Y-138853025D01*
X103665148Y-138942173D01*
X103760382Y-139146406D01*
X103760385Y-139146410D01*
X103889642Y-139331009D01*
X104048991Y-139490358D01*
X104233306Y-139619416D01*
X104233593Y-139619617D01*
X104400418Y-139697407D01*
X104437830Y-139714853D01*
X104655504Y-139773179D01*
X104880000Y-139792820D01*
X105104496Y-139773179D01*
X105322170Y-139714853D01*
X105526410Y-139619615D01*
X105711009Y-139490358D01*
X105870358Y-139331009D01*
X105999615Y-139146410D01*
X106037617Y-139064912D01*
X106083374Y-139012737D01*
X106150000Y-138993317D01*
X106216626Y-139012737D01*
X106262382Y-139064912D01*
X106300385Y-139146410D01*
X106429642Y-139331009D01*
X106588991Y-139490358D01*
X106773306Y-139619416D01*
X106773593Y-139619617D01*
X106940418Y-139697407D01*
X106977830Y-139714853D01*
X107195504Y-139773179D01*
X107420000Y-139792820D01*
X107644496Y-139773179D01*
X107862170Y-139714853D01*
X108066410Y-139619615D01*
X108251009Y-139490358D01*
X108410358Y-139331009D01*
X108539615Y-139146410D01*
X108577617Y-139064912D01*
X108623374Y-139012737D01*
X108690000Y-138993317D01*
X108756626Y-139012737D01*
X108802382Y-139064912D01*
X108840385Y-139146410D01*
X108969642Y-139331009D01*
X109128991Y-139490358D01*
X109313306Y-139619416D01*
X109313593Y-139619617D01*
X109480418Y-139697407D01*
X109517830Y-139714853D01*
X109735504Y-139773179D01*
X109960000Y-139792820D01*
X110184496Y-139773179D01*
X110402170Y-139714853D01*
X110606410Y-139619615D01*
X110791009Y-139490358D01*
X110950358Y-139331009D01*
X111079615Y-139146410D01*
X111117617Y-139064912D01*
X111163374Y-139012737D01*
X111230000Y-138993317D01*
X111296626Y-139012737D01*
X111342382Y-139064912D01*
X111380385Y-139146410D01*
X111509642Y-139331009D01*
X111668991Y-139490358D01*
X111853306Y-139619416D01*
X111853593Y-139619617D01*
X112020418Y-139697407D01*
X112057830Y-139714853D01*
X112275504Y-139773179D01*
X112500000Y-139792820D01*
X112724496Y-139773179D01*
X112942170Y-139714853D01*
X113146410Y-139619615D01*
X113331009Y-139490358D01*
X113490358Y-139331009D01*
X113619615Y-139146410D01*
X113657617Y-139064912D01*
X113703374Y-139012737D01*
X113770000Y-138993317D01*
X113836626Y-139012737D01*
X113882382Y-139064912D01*
X113920385Y-139146410D01*
X114049642Y-139331009D01*
X114208991Y-139490358D01*
X114393306Y-139619416D01*
X114393593Y-139619617D01*
X114560418Y-139697407D01*
X114597830Y-139714853D01*
X114815504Y-139773179D01*
X115040000Y-139792820D01*
X115264496Y-139773179D01*
X115482170Y-139714853D01*
X115686410Y-139619615D01*
X115871009Y-139490358D01*
X116030358Y-139331009D01*
X116159615Y-139146410D01*
X116197617Y-139064912D01*
X116243374Y-139012737D01*
X116310000Y-138993317D01*
X116376626Y-139012737D01*
X116422382Y-139064912D01*
X116460385Y-139146410D01*
X116589642Y-139331009D01*
X116748991Y-139490358D01*
X116933306Y-139619416D01*
X116933593Y-139619617D01*
X117100418Y-139697407D01*
X117137830Y-139714853D01*
X117355504Y-139773179D01*
X117580000Y-139792820D01*
X117804496Y-139773179D01*
X118022170Y-139714853D01*
X118226410Y-139619615D01*
X118411009Y-139490358D01*
X118570358Y-139331009D01*
X118699615Y-139146410D01*
X118737617Y-139064912D01*
X118783374Y-139012737D01*
X118850000Y-138993317D01*
X118916626Y-139012737D01*
X118962382Y-139064912D01*
X119000385Y-139146410D01*
X119129642Y-139331009D01*
X119288991Y-139490358D01*
X119473306Y-139619416D01*
X119473593Y-139619617D01*
X119640418Y-139697407D01*
X119677830Y-139714853D01*
X119895504Y-139773179D01*
X120120000Y-139792820D01*
X120344496Y-139773179D01*
X120562170Y-139714853D01*
X120766410Y-139619615D01*
X120951009Y-139490358D01*
X121110358Y-139331009D01*
X121239615Y-139146410D01*
X121277617Y-139064912D01*
X121323374Y-139012737D01*
X121390000Y-138993317D01*
X121456626Y-139012737D01*
X121502382Y-139064912D01*
X121540385Y-139146410D01*
X121669642Y-139331009D01*
X121828991Y-139490358D01*
X122013306Y-139619416D01*
X122013593Y-139619617D01*
X122180418Y-139697407D01*
X122217830Y-139714853D01*
X122435504Y-139773179D01*
X122660000Y-139792820D01*
X122884496Y-139773179D01*
X123102170Y-139714853D01*
X123306410Y-139619615D01*
X123491009Y-139490358D01*
X123650358Y-139331009D01*
X123779615Y-139146410D01*
X123817617Y-139064912D01*
X123863374Y-139012737D01*
X123930000Y-138993317D01*
X123996626Y-139012737D01*
X124042382Y-139064912D01*
X124080385Y-139146410D01*
X124209642Y-139331009D01*
X124368991Y-139490358D01*
X124553306Y-139619416D01*
X124553593Y-139619617D01*
X124720418Y-139697407D01*
X124757830Y-139714853D01*
X124975504Y-139773179D01*
X125200000Y-139792820D01*
X125424496Y-139773179D01*
X125642170Y-139714853D01*
X125846410Y-139619615D01*
X126031009Y-139490358D01*
X126190358Y-139331009D01*
X126319615Y-139146410D01*
X126323138Y-139138856D01*
X126357617Y-139064913D01*
X126414853Y-138942170D01*
X126473179Y-138724496D01*
X126492820Y-138500000D01*
X126492820Y-138499999D01*
X128987179Y-138499999D01*
X129006820Y-138724493D01*
X129006821Y-138724496D01*
X129041260Y-138853025D01*
X129065148Y-138942173D01*
X129160382Y-139146406D01*
X129160385Y-139146410D01*
X129289642Y-139331009D01*
X129448991Y-139490358D01*
X129633306Y-139619416D01*
X129633593Y-139619617D01*
X129800418Y-139697407D01*
X129837830Y-139714853D01*
X130055504Y-139773179D01*
X130280000Y-139792820D01*
X130504496Y-139773179D01*
X130722170Y-139714853D01*
X130926410Y-139619615D01*
X131111009Y-139490358D01*
X131270358Y-139331009D01*
X131399615Y-139146410D01*
X131437617Y-139064912D01*
X131483374Y-139012737D01*
X131550000Y-138993317D01*
X131616626Y-139012737D01*
X131662382Y-139064912D01*
X131700385Y-139146410D01*
X131829642Y-139331009D01*
X131988991Y-139490358D01*
X132173306Y-139619416D01*
X132173593Y-139619617D01*
X132340418Y-139697407D01*
X132377830Y-139714853D01*
X132595504Y-139773179D01*
X132820000Y-139792820D01*
X133044496Y-139773179D01*
X133262170Y-139714853D01*
X133466410Y-139619615D01*
X133651009Y-139490358D01*
X133810358Y-139331009D01*
X133939615Y-139146410D01*
X133977617Y-139064912D01*
X134023374Y-139012737D01*
X134090000Y-138993317D01*
X134156626Y-139012737D01*
X134202382Y-139064912D01*
X134240385Y-139146410D01*
X134369642Y-139331009D01*
X134528991Y-139490358D01*
X134713306Y-139619416D01*
X134713593Y-139619617D01*
X134880418Y-139697407D01*
X134917830Y-139714853D01*
X135135504Y-139773179D01*
X135360000Y-139792820D01*
X135584496Y-139773179D01*
X135802170Y-139714853D01*
X136006410Y-139619615D01*
X136191009Y-139490358D01*
X136350358Y-139331009D01*
X136479615Y-139146410D01*
X136517617Y-139064912D01*
X136563374Y-139012737D01*
X136630000Y-138993317D01*
X136696626Y-139012737D01*
X136742382Y-139064912D01*
X136780385Y-139146410D01*
X136909642Y-139331009D01*
X137068991Y-139490358D01*
X137253306Y-139619416D01*
X137253593Y-139619617D01*
X137420418Y-139697407D01*
X137457830Y-139714853D01*
X137675504Y-139773179D01*
X137900000Y-139792820D01*
X138124496Y-139773179D01*
X138342170Y-139714853D01*
X138546410Y-139619615D01*
X138731009Y-139490358D01*
X138890358Y-139331009D01*
X139019615Y-139146410D01*
X139057617Y-139064912D01*
X139103374Y-139012737D01*
X139170000Y-138993317D01*
X139236626Y-139012737D01*
X139282382Y-139064912D01*
X139320385Y-139146410D01*
X139449642Y-139331009D01*
X139608991Y-139490358D01*
X139793306Y-139619416D01*
X139793593Y-139619617D01*
X139960418Y-139697407D01*
X139997830Y-139714853D01*
X140215504Y-139773179D01*
X140440000Y-139792820D01*
X140664496Y-139773179D01*
X140882170Y-139714853D01*
X141086410Y-139619615D01*
X141271009Y-139490358D01*
X141430358Y-139331009D01*
X141559615Y-139146410D01*
X141597617Y-139064912D01*
X141643374Y-139012737D01*
X141710000Y-138993317D01*
X141776626Y-139012737D01*
X141822382Y-139064912D01*
X141860385Y-139146410D01*
X141989642Y-139331009D01*
X142148991Y-139490358D01*
X142333306Y-139619416D01*
X142333593Y-139619617D01*
X142500418Y-139697407D01*
X142537830Y-139714853D01*
X142755504Y-139773179D01*
X142980000Y-139792820D01*
X143204496Y-139773179D01*
X143422170Y-139714853D01*
X143626410Y-139619615D01*
X143811009Y-139490358D01*
X143970358Y-139331009D01*
X144099615Y-139146410D01*
X144137617Y-139064912D01*
X144183374Y-139012737D01*
X144250000Y-138993317D01*
X144316626Y-139012737D01*
X144362382Y-139064912D01*
X144400385Y-139146410D01*
X144529642Y-139331009D01*
X144688991Y-139490358D01*
X144873306Y-139619416D01*
X144873593Y-139619617D01*
X145040418Y-139697407D01*
X145077830Y-139714853D01*
X145295504Y-139773179D01*
X145520000Y-139792820D01*
X145744496Y-139773179D01*
X145962170Y-139714853D01*
X146166410Y-139619615D01*
X146337239Y-139500000D01*
X200684340Y-139500000D01*
X200704936Y-139735407D01*
X200722095Y-139799445D01*
X200766097Y-139963663D01*
X200865965Y-140177830D01*
X201001505Y-140371401D01*
X201168599Y-140538495D01*
X201362170Y-140674035D01*
X201576337Y-140773903D01*
X201804591Y-140835062D01*
X201804592Y-140835063D01*
X202039999Y-140855659D01*
X202039999Y-140855658D01*
X202040000Y-140855659D01*
X202275408Y-140835063D01*
X202503663Y-140773903D01*
X202717830Y-140674035D01*
X202911401Y-140538495D01*
X203078495Y-140371401D01*
X203208426Y-140185839D01*
X203252743Y-140146975D01*
X203310000Y-140132964D01*
X203367257Y-140146975D01*
X203411573Y-140185839D01*
X203541505Y-140371401D01*
X203708599Y-140538495D01*
X203902170Y-140674035D01*
X204116337Y-140773903D01*
X204344591Y-140835062D01*
X204344592Y-140835063D01*
X204579999Y-140855659D01*
X204579999Y-140855658D01*
X204580000Y-140855659D01*
X204815408Y-140835063D01*
X205043663Y-140773903D01*
X205257830Y-140674035D01*
X205451401Y-140538495D01*
X205618495Y-140371401D01*
X205754035Y-140177830D01*
X205836959Y-139999999D01*
X213094540Y-139999999D01*
X213114326Y-140188257D01*
X213172820Y-140368284D01*
X213267466Y-140532216D01*
X213394129Y-140672889D01*
X213547269Y-140784151D01*
X213720197Y-140861144D01*
X213905352Y-140900500D01*
X213905354Y-140900500D01*
X214094646Y-140900500D01*
X214094648Y-140900500D01*
X214218084Y-140874262D01*
X214279803Y-140861144D01*
X214452730Y-140784151D01*
X214546740Y-140715849D01*
X214605870Y-140672889D01*
X214636515Y-140638855D01*
X214732533Y-140532216D01*
X214827179Y-140368284D01*
X214885674Y-140188256D01*
X214905460Y-140000000D01*
X214885674Y-139811744D01*
X214827179Y-139631716D01*
X214827179Y-139631715D01*
X214732533Y-139467783D01*
X214605870Y-139327110D01*
X214452730Y-139215848D01*
X214279802Y-139138855D01*
X214094648Y-139099500D01*
X214094646Y-139099500D01*
X213905354Y-139099500D01*
X213905352Y-139099500D01*
X213720197Y-139138855D01*
X213547269Y-139215848D01*
X213394129Y-139327110D01*
X213267466Y-139467783D01*
X213172820Y-139631715D01*
X213114326Y-139811742D01*
X213094540Y-139999999D01*
X205836959Y-139999999D01*
X205853903Y-139963663D01*
X205915063Y-139735408D01*
X205935659Y-139500000D01*
X205915063Y-139264592D01*
X205853903Y-139036337D01*
X205754035Y-138822171D01*
X205618495Y-138628599D01*
X205489896Y-138500000D01*
X228344540Y-138500000D01*
X228364326Y-138688257D01*
X228422820Y-138868284D01*
X228517466Y-139032216D01*
X228644129Y-139172889D01*
X228797269Y-139284151D01*
X228970197Y-139361144D01*
X229155352Y-139400500D01*
X229155354Y-139400500D01*
X229344646Y-139400500D01*
X229344648Y-139400500D01*
X229468083Y-139374262D01*
X229529803Y-139361144D01*
X229702730Y-139284151D01*
X229796740Y-139215849D01*
X229855870Y-139172889D01*
X229879716Y-139146406D01*
X229982533Y-139032216D01*
X230077179Y-138868284D01*
X230135674Y-138688256D01*
X230155460Y-138500000D01*
X230135674Y-138311744D01*
X230077179Y-138131716D01*
X230077179Y-138131715D01*
X229982533Y-137967783D01*
X229855870Y-137827110D01*
X229702730Y-137715848D01*
X229529802Y-137638855D01*
X229344648Y-137599500D01*
X229344646Y-137599500D01*
X229155354Y-137599500D01*
X229155352Y-137599500D01*
X228970197Y-137638855D01*
X228797269Y-137715848D01*
X228644129Y-137827110D01*
X228517466Y-137967783D01*
X228422820Y-138131715D01*
X228364326Y-138311742D01*
X228344540Y-138500000D01*
X205489896Y-138500000D01*
X205451401Y-138461505D01*
X205257830Y-138325965D01*
X205043663Y-138226097D01*
X204982502Y-138209709D01*
X204815407Y-138164936D01*
X204580000Y-138144340D01*
X204344592Y-138164936D01*
X204116336Y-138226097D01*
X203902170Y-138325965D01*
X203708598Y-138461505D01*
X203541505Y-138628598D01*
X203411575Y-138814159D01*
X203367257Y-138853025D01*
X203310000Y-138867036D01*
X203252743Y-138853025D01*
X203208425Y-138814159D01*
X203153950Y-138736360D01*
X203078495Y-138628599D01*
X202911401Y-138461505D01*
X202717830Y-138325965D01*
X202503663Y-138226097D01*
X202442502Y-138209709D01*
X202275407Y-138164936D01*
X202040000Y-138144340D01*
X201804592Y-138164936D01*
X201576336Y-138226097D01*
X201362170Y-138325965D01*
X201168598Y-138461505D01*
X201001505Y-138628598D01*
X200865965Y-138822170D01*
X200766097Y-139036336D01*
X200704936Y-139264592D01*
X200684340Y-139500000D01*
X146337239Y-139500000D01*
X146351009Y-139490358D01*
X146510358Y-139331009D01*
X146639615Y-139146410D01*
X146643138Y-139138856D01*
X146677617Y-139064913D01*
X146734853Y-138942170D01*
X146793179Y-138724496D01*
X146812820Y-138500000D01*
X146793179Y-138275504D01*
X146734853Y-138057830D01*
X146717407Y-138020418D01*
X146639617Y-137853593D01*
X146621075Y-137827112D01*
X146510358Y-137668991D01*
X146351009Y-137509642D01*
X146166410Y-137380385D01*
X146166406Y-137380382D01*
X145962173Y-137285148D01*
X145962170Y-137285147D01*
X145821372Y-137247420D01*
X145744493Y-137226820D01*
X145519999Y-137207179D01*
X145295506Y-137226820D01*
X145077826Y-137285148D01*
X144873593Y-137380382D01*
X144688987Y-137509645D01*
X144529645Y-137668987D01*
X144400381Y-137853593D01*
X144362382Y-137935086D01*
X144316625Y-137987262D01*
X144250000Y-138006682D01*
X144183375Y-137987262D01*
X144137618Y-137935086D01*
X144099618Y-137853593D01*
X144003167Y-137715848D01*
X143970358Y-137668991D01*
X143811009Y-137509642D01*
X143626410Y-137380385D01*
X143626406Y-137380382D01*
X143422173Y-137285148D01*
X143422170Y-137285147D01*
X143281372Y-137247420D01*
X143226939Y-137216465D01*
X143194572Y-137162861D01*
X143192524Y-137100276D01*
X143221319Y-137044670D01*
X143232533Y-137032216D01*
X143327179Y-136868284D01*
X143385674Y-136688256D01*
X143405460Y-136500000D01*
X143385674Y-136311744D01*
X143352475Y-136209570D01*
X143327179Y-136131715D01*
X143232533Y-135967783D01*
X143105870Y-135827110D01*
X142952730Y-135715848D01*
X142779802Y-135638855D01*
X142594648Y-135599500D01*
X142594646Y-135599500D01*
X142405354Y-135599500D01*
X142405352Y-135599500D01*
X142220197Y-135638855D01*
X142047269Y-135715848D01*
X141894129Y-135827110D01*
X141767466Y-135967783D01*
X141672820Y-136131715D01*
X141614326Y-136311742D01*
X141594540Y-136499999D01*
X141614326Y-136688257D01*
X141672820Y-136868284D01*
X141767466Y-137032216D01*
X141894129Y-137172889D01*
X142047269Y-137284151D01*
X142108855Y-137311572D01*
X142155799Y-137348084D01*
X142180343Y-137402254D01*
X142176841Y-137461622D01*
X142146101Y-137512532D01*
X141989642Y-137668991D01*
X141860381Y-137853593D01*
X141822382Y-137935086D01*
X141776625Y-137987262D01*
X141710000Y-138006682D01*
X141643375Y-137987262D01*
X141597618Y-137935086D01*
X141559618Y-137853593D01*
X141463167Y-137715848D01*
X141430358Y-137668991D01*
X141271009Y-137509642D01*
X141086410Y-137380385D01*
X141086406Y-137380382D01*
X140882173Y-137285148D01*
X140882170Y-137285147D01*
X140741372Y-137247420D01*
X140664493Y-137226820D01*
X140439999Y-137207179D01*
X140215506Y-137226820D01*
X139997826Y-137285148D01*
X139793593Y-137380382D01*
X139608987Y-137509645D01*
X139449645Y-137668987D01*
X139320381Y-137853593D01*
X139282382Y-137935086D01*
X139236625Y-137987262D01*
X139170000Y-138006682D01*
X139103375Y-137987262D01*
X139057618Y-137935086D01*
X139019618Y-137853593D01*
X138923167Y-137715848D01*
X138890358Y-137668991D01*
X138731009Y-137509642D01*
X138546410Y-137380385D01*
X138546406Y-137380382D01*
X138342173Y-137285148D01*
X138342170Y-137285147D01*
X138201372Y-137247420D01*
X138124493Y-137226820D01*
X137899999Y-137207179D01*
X137675506Y-137226820D01*
X137457826Y-137285148D01*
X137253593Y-137380382D01*
X137068987Y-137509645D01*
X136909645Y-137668987D01*
X136780381Y-137853593D01*
X136742382Y-137935086D01*
X136696625Y-137987262D01*
X136630000Y-138006682D01*
X136563375Y-137987262D01*
X136517618Y-137935086D01*
X136479618Y-137853593D01*
X136383167Y-137715848D01*
X136350358Y-137668991D01*
X136191009Y-137509642D01*
X136006410Y-137380385D01*
X136006406Y-137380382D01*
X135802173Y-137285148D01*
X135802170Y-137285147D01*
X135661372Y-137247420D01*
X135584493Y-137226820D01*
X135359999Y-137207179D01*
X135135506Y-137226820D01*
X134917826Y-137285148D01*
X134713593Y-137380382D01*
X134528987Y-137509645D01*
X134369645Y-137668987D01*
X134240381Y-137853593D01*
X134202382Y-137935086D01*
X134156625Y-137987262D01*
X134090000Y-138006682D01*
X134023375Y-137987262D01*
X133977618Y-137935086D01*
X133939618Y-137853593D01*
X133843167Y-137715848D01*
X133810358Y-137668991D01*
X133651009Y-137509642D01*
X133466410Y-137380385D01*
X133466406Y-137380382D01*
X133262173Y-137285148D01*
X133262170Y-137285147D01*
X133121372Y-137247420D01*
X133044493Y-137226820D01*
X132819999Y-137207179D01*
X132595506Y-137226820D01*
X132377826Y-137285148D01*
X132173593Y-137380382D01*
X131988987Y-137509645D01*
X131829645Y-137668987D01*
X131700381Y-137853593D01*
X131662382Y-137935086D01*
X131616625Y-137987262D01*
X131550000Y-138006682D01*
X131483375Y-137987262D01*
X131437618Y-137935086D01*
X131399618Y-137853593D01*
X131303167Y-137715848D01*
X131270358Y-137668991D01*
X131111009Y-137509642D01*
X130926410Y-137380385D01*
X130926406Y-137380382D01*
X130722173Y-137285148D01*
X130722170Y-137285147D01*
X130581372Y-137247420D01*
X130504493Y-137226820D01*
X130279999Y-137207179D01*
X130055506Y-137226820D01*
X129837826Y-137285148D01*
X129633593Y-137380382D01*
X129448987Y-137509645D01*
X129289645Y-137668987D01*
X129160382Y-137853593D01*
X129065148Y-138057826D01*
X129006820Y-138275506D01*
X128987179Y-138499999D01*
X126492820Y-138499999D01*
X126473179Y-138275504D01*
X126414853Y-138057830D01*
X126397407Y-138020418D01*
X126319617Y-137853593D01*
X126301075Y-137827112D01*
X126190358Y-137668991D01*
X126031009Y-137509642D01*
X125846410Y-137380385D01*
X125846406Y-137380382D01*
X125642173Y-137285148D01*
X125642170Y-137285147D01*
X125501372Y-137247420D01*
X125424493Y-137226820D01*
X125199999Y-137207179D01*
X124975506Y-137226820D01*
X124757826Y-137285148D01*
X124553593Y-137380382D01*
X124368987Y-137509645D01*
X124209645Y-137668987D01*
X124080381Y-137853593D01*
X124042382Y-137935086D01*
X123996625Y-137987262D01*
X123930000Y-138006682D01*
X123863375Y-137987262D01*
X123817618Y-137935086D01*
X123779618Y-137853593D01*
X123683167Y-137715848D01*
X123650358Y-137668991D01*
X123491009Y-137509642D01*
X123306410Y-137380385D01*
X123306406Y-137380382D01*
X123102173Y-137285148D01*
X123102170Y-137285147D01*
X122961372Y-137247420D01*
X122884493Y-137226820D01*
X122659999Y-137207179D01*
X122435506Y-137226820D01*
X122217826Y-137285148D01*
X122013593Y-137380382D01*
X121828987Y-137509645D01*
X121669645Y-137668987D01*
X121540381Y-137853593D01*
X121502382Y-137935086D01*
X121456625Y-137987262D01*
X121390000Y-138006682D01*
X121323375Y-137987262D01*
X121277618Y-137935086D01*
X121239618Y-137853593D01*
X121143167Y-137715848D01*
X121110358Y-137668991D01*
X120951009Y-137509642D01*
X120766410Y-137380385D01*
X120766406Y-137380382D01*
X120562173Y-137285148D01*
X120562170Y-137285147D01*
X120421372Y-137247420D01*
X120344493Y-137226820D01*
X120119999Y-137207179D01*
X119895506Y-137226820D01*
X119677826Y-137285148D01*
X119473593Y-137380382D01*
X119288987Y-137509645D01*
X119129645Y-137668987D01*
X119000381Y-137853593D01*
X118962382Y-137935086D01*
X118916625Y-137987262D01*
X118850000Y-138006682D01*
X118783375Y-137987262D01*
X118737618Y-137935086D01*
X118699618Y-137853593D01*
X118603167Y-137715848D01*
X118570358Y-137668991D01*
X118411009Y-137509642D01*
X118226410Y-137380385D01*
X118226406Y-137380382D01*
X118022173Y-137285148D01*
X118022170Y-137285147D01*
X117881372Y-137247420D01*
X117804493Y-137226820D01*
X117579999Y-137207179D01*
X117355506Y-137226820D01*
X117137826Y-137285148D01*
X116933593Y-137380382D01*
X116748987Y-137509645D01*
X116589645Y-137668987D01*
X116460381Y-137853593D01*
X116422382Y-137935086D01*
X116376625Y-137987262D01*
X116310000Y-138006682D01*
X116243375Y-137987262D01*
X116197618Y-137935086D01*
X116159618Y-137853593D01*
X116063167Y-137715848D01*
X116030358Y-137668991D01*
X115871009Y-137509642D01*
X115686410Y-137380385D01*
X115686406Y-137380382D01*
X115482173Y-137285148D01*
X115482170Y-137285147D01*
X115341372Y-137247420D01*
X115264493Y-137226820D01*
X115039999Y-137207179D01*
X114815506Y-137226820D01*
X114597826Y-137285148D01*
X114393593Y-137380382D01*
X114208987Y-137509645D01*
X114049645Y-137668987D01*
X113920381Y-137853593D01*
X113882382Y-137935086D01*
X113836625Y-137987262D01*
X113770000Y-138006682D01*
X113703375Y-137987262D01*
X113657618Y-137935086D01*
X113619618Y-137853593D01*
X113523167Y-137715848D01*
X113490358Y-137668991D01*
X113331009Y-137509642D01*
X113146410Y-137380385D01*
X113146406Y-137380382D01*
X112942173Y-137285148D01*
X112942170Y-137285147D01*
X112801372Y-137247420D01*
X112724493Y-137226820D01*
X112499999Y-137207179D01*
X112275506Y-137226820D01*
X112057826Y-137285148D01*
X111853593Y-137380382D01*
X111668987Y-137509645D01*
X111509645Y-137668987D01*
X111380381Y-137853593D01*
X111342382Y-137935086D01*
X111296625Y-137987262D01*
X111230000Y-138006682D01*
X111163375Y-137987262D01*
X111117618Y-137935086D01*
X111079618Y-137853593D01*
X110983167Y-137715848D01*
X110950358Y-137668991D01*
X110791009Y-137509642D01*
X110606410Y-137380385D01*
X110606406Y-137380382D01*
X110402173Y-137285148D01*
X110402170Y-137285147D01*
X110261372Y-137247420D01*
X110184493Y-137226820D01*
X109959999Y-137207179D01*
X109735506Y-137226820D01*
X109517826Y-137285148D01*
X109313593Y-137380382D01*
X109128987Y-137509645D01*
X108969645Y-137668987D01*
X108840381Y-137853593D01*
X108802382Y-137935086D01*
X108756625Y-137987262D01*
X108690000Y-138006682D01*
X108623375Y-137987262D01*
X108577618Y-137935086D01*
X108539618Y-137853593D01*
X108443167Y-137715848D01*
X108410358Y-137668991D01*
X108251009Y-137509642D01*
X108066410Y-137380385D01*
X108066406Y-137380382D01*
X107862173Y-137285148D01*
X107862170Y-137285147D01*
X107721372Y-137247420D01*
X107644493Y-137226820D01*
X107419999Y-137207179D01*
X107195506Y-137226820D01*
X106977826Y-137285148D01*
X106773593Y-137380382D01*
X106588987Y-137509645D01*
X106429645Y-137668987D01*
X106300381Y-137853593D01*
X106262382Y-137935086D01*
X106216625Y-137987262D01*
X106150000Y-138006682D01*
X106083375Y-137987262D01*
X106037618Y-137935086D01*
X105999618Y-137853593D01*
X105903167Y-137715848D01*
X105870358Y-137668991D01*
X105711009Y-137509642D01*
X105526410Y-137380385D01*
X105526406Y-137380382D01*
X105322173Y-137285148D01*
X105322170Y-137285147D01*
X105181372Y-137247420D01*
X105104493Y-137226820D01*
X104879999Y-137207179D01*
X104655506Y-137226820D01*
X104437826Y-137285148D01*
X104233593Y-137380382D01*
X104048987Y-137509645D01*
X103889645Y-137668987D01*
X103760382Y-137853593D01*
X103665148Y-138057826D01*
X103606820Y-138275506D01*
X103587179Y-138500000D01*
X101000500Y-138500000D01*
X101000500Y-135749999D01*
X111594540Y-135749999D01*
X111614326Y-135938257D01*
X111672820Y-136118284D01*
X111767466Y-136282216D01*
X111894129Y-136422889D01*
X112047269Y-136534151D01*
X112220197Y-136611144D01*
X112405352Y-136650500D01*
X112405354Y-136650500D01*
X112594646Y-136650500D01*
X112594648Y-136650500D01*
X112718083Y-136624262D01*
X112779803Y-136611144D01*
X112952730Y-136534151D01*
X112999735Y-136500000D01*
X113105870Y-136422889D01*
X113232533Y-136282216D01*
X113327179Y-136118284D01*
X113355144Y-136032216D01*
X113365612Y-136000000D01*
X124344540Y-136000000D01*
X124345641Y-136010474D01*
X124364326Y-136188257D01*
X124422820Y-136368284D01*
X124517466Y-136532216D01*
X124644129Y-136672889D01*
X124797269Y-136784151D01*
X124970197Y-136861144D01*
X125155352Y-136900500D01*
X125155354Y-136900500D01*
X125344646Y-136900500D01*
X125344648Y-136900500D01*
X125468084Y-136874262D01*
X125529803Y-136861144D01*
X125702730Y-136784151D01*
X125751665Y-136748598D01*
X125855870Y-136672889D01*
X125982533Y-136532216D01*
X126077179Y-136368284D01*
X126101724Y-136292743D01*
X126135674Y-136188256D01*
X126155460Y-136000000D01*
X126135674Y-135811744D01*
X126104515Y-135715848D01*
X126077179Y-135631715D01*
X125982533Y-135467783D01*
X125855870Y-135327110D01*
X125702730Y-135215848D01*
X125529802Y-135138855D01*
X125344648Y-135099500D01*
X125344646Y-135099500D01*
X125155354Y-135099500D01*
X125155352Y-135099500D01*
X124970197Y-135138855D01*
X124797269Y-135215848D01*
X124644129Y-135327110D01*
X124517466Y-135467783D01*
X124422820Y-135631715D01*
X124364326Y-135811742D01*
X124347926Y-135967783D01*
X124344540Y-136000000D01*
X113365612Y-136000000D01*
X113385674Y-135938256D01*
X113405460Y-135750000D01*
X113385674Y-135561744D01*
X113327179Y-135381716D01*
X113327179Y-135381715D01*
X113232533Y-135217783D01*
X113105870Y-135077110D01*
X112952730Y-134965848D01*
X112779802Y-134888855D01*
X112594648Y-134849500D01*
X112594646Y-134849500D01*
X112405354Y-134849500D01*
X112405352Y-134849500D01*
X112220197Y-134888855D01*
X112047269Y-134965848D01*
X111894129Y-135077110D01*
X111767466Y-135217783D01*
X111672820Y-135381715D01*
X111614326Y-135561742D01*
X111594540Y-135749999D01*
X101000500Y-135749999D01*
X101000500Y-134750000D01*
X137344540Y-134750000D01*
X137364326Y-134938257D01*
X137422820Y-135118284D01*
X137517466Y-135282216D01*
X137644129Y-135422889D01*
X137797269Y-135534151D01*
X137970197Y-135611144D01*
X138155352Y-135650500D01*
X138155354Y-135650500D01*
X138344646Y-135650500D01*
X138344648Y-135650500D01*
X138468084Y-135624262D01*
X138529803Y-135611144D01*
X138702730Y-135534151D01*
X138855871Y-135422888D01*
X138982533Y-135282216D01*
X139077179Y-135118284D01*
X139135674Y-134938256D01*
X139155460Y-134750000D01*
X139135674Y-134561744D01*
X139090557Y-134422888D01*
X139077179Y-134381715D01*
X138982533Y-134217783D01*
X138855870Y-134077110D01*
X138702730Y-133965848D01*
X138529802Y-133888855D01*
X138344648Y-133849500D01*
X138344646Y-133849500D01*
X138155354Y-133849500D01*
X138155352Y-133849500D01*
X137970197Y-133888855D01*
X137797269Y-133965848D01*
X137644129Y-134077110D01*
X137517466Y-134217783D01*
X137422820Y-134381715D01*
X137364326Y-134561742D01*
X137344540Y-134750000D01*
X101000500Y-134750000D01*
X101000500Y-133750000D01*
X131344540Y-133750000D01*
X131364326Y-133938257D01*
X131422820Y-134118284D01*
X131517466Y-134282216D01*
X131644129Y-134422889D01*
X131797269Y-134534151D01*
X131970197Y-134611144D01*
X132155352Y-134650500D01*
X132155354Y-134650500D01*
X132344646Y-134650500D01*
X132344648Y-134650500D01*
X132468083Y-134624262D01*
X132529803Y-134611144D01*
X132702730Y-134534151D01*
X132840405Y-134434125D01*
X132855870Y-134422889D01*
X132892943Y-134381716D01*
X132982533Y-134282216D01*
X133077179Y-134118284D01*
X133135674Y-133938256D01*
X133155460Y-133750000D01*
X133135674Y-133561744D01*
X133086825Y-133411404D01*
X133077179Y-133381715D01*
X132982533Y-133217783D01*
X132855870Y-133077110D01*
X132749735Y-132999999D01*
X134094540Y-132999999D01*
X134114326Y-133188257D01*
X134172820Y-133368284D01*
X134267466Y-133532216D01*
X134394129Y-133672889D01*
X134547269Y-133784151D01*
X134720197Y-133861144D01*
X134905352Y-133900500D01*
X134905354Y-133900500D01*
X135094646Y-133900500D01*
X135094648Y-133900500D01*
X135251043Y-133867257D01*
X135279803Y-133861144D01*
X135452730Y-133784151D01*
X135549237Y-133714035D01*
X135605870Y-133672889D01*
X135633450Y-133642259D01*
X135732533Y-133532216D01*
X135827179Y-133368284D01*
X135885674Y-133188256D01*
X135905460Y-133000000D01*
X135885674Y-132811744D01*
X135840557Y-132672888D01*
X135827179Y-132631715D01*
X135732533Y-132467783D01*
X135605870Y-132327110D01*
X135452730Y-132215848D01*
X135279802Y-132138855D01*
X135094648Y-132099500D01*
X135094646Y-132099500D01*
X134905354Y-132099500D01*
X134905352Y-132099500D01*
X134720197Y-132138855D01*
X134547269Y-132215848D01*
X134394129Y-132327110D01*
X134267466Y-132467783D01*
X134172820Y-132631715D01*
X134114326Y-132811742D01*
X134094540Y-132999999D01*
X132749735Y-132999999D01*
X132702730Y-132965848D01*
X132529802Y-132888855D01*
X132344648Y-132849500D01*
X132344646Y-132849500D01*
X132155354Y-132849500D01*
X132155352Y-132849500D01*
X131970197Y-132888855D01*
X131797269Y-132965848D01*
X131644129Y-133077110D01*
X131517466Y-133217783D01*
X131422820Y-133381715D01*
X131364326Y-133561742D01*
X131344540Y-133750000D01*
X101000500Y-133750000D01*
X101000500Y-132000000D01*
X102844540Y-132000000D01*
X102864326Y-132188257D01*
X102922820Y-132368284D01*
X103017466Y-132532216D01*
X103144129Y-132672889D01*
X103297269Y-132784151D01*
X103470197Y-132861144D01*
X103655352Y-132900500D01*
X103655354Y-132900500D01*
X103844646Y-132900500D01*
X103844648Y-132900500D01*
X103968084Y-132874262D01*
X104029803Y-132861144D01*
X104202730Y-132784151D01*
X104355871Y-132672888D01*
X104482533Y-132532216D01*
X104577179Y-132368284D01*
X104635674Y-132188256D01*
X104655460Y-132000000D01*
X149250000Y-132000000D01*
X149250000Y-139000000D01*
X152500000Y-139000000D01*
X152500000Y-137620000D01*
X169644340Y-137620000D01*
X169664936Y-137855407D01*
X169700267Y-137987262D01*
X169726097Y-138083663D01*
X169825965Y-138297830D01*
X169961505Y-138491401D01*
X170128599Y-138658495D01*
X170322170Y-138794035D01*
X170536337Y-138893903D01*
X170764592Y-138955063D01*
X171000000Y-138975659D01*
X171235408Y-138955063D01*
X171463663Y-138893903D01*
X171677830Y-138794035D01*
X171871401Y-138658495D01*
X172038495Y-138491401D01*
X172174035Y-138297830D01*
X172273903Y-138083663D01*
X172335063Y-137855408D01*
X172355659Y-137620000D01*
X178944340Y-137620000D01*
X178964936Y-137855407D01*
X179000267Y-137987262D01*
X179026097Y-138083663D01*
X179125965Y-138297830D01*
X179261505Y-138491401D01*
X179428599Y-138658495D01*
X179622170Y-138794035D01*
X179836337Y-138893903D01*
X180064592Y-138955063D01*
X180300000Y-138975659D01*
X180535408Y-138955063D01*
X180763663Y-138893903D01*
X180977830Y-138794035D01*
X181171401Y-138658495D01*
X181338495Y-138491401D01*
X181474035Y-138297830D01*
X181573903Y-138083663D01*
X181635063Y-137855408D01*
X181655659Y-137620000D01*
X183644340Y-137620000D01*
X183664936Y-137855407D01*
X183700267Y-137987262D01*
X183726097Y-138083663D01*
X183825965Y-138297830D01*
X183961505Y-138491401D01*
X184128599Y-138658495D01*
X184322170Y-138794035D01*
X184536337Y-138893903D01*
X184764592Y-138955063D01*
X185000000Y-138975659D01*
X185235408Y-138955063D01*
X185463663Y-138893903D01*
X185677830Y-138794035D01*
X185871401Y-138658495D01*
X186038495Y-138491401D01*
X186174035Y-138297830D01*
X186273903Y-138083663D01*
X186335063Y-137855408D01*
X186355659Y-137620000D01*
X186335063Y-137384592D01*
X186273903Y-137156337D01*
X186174035Y-136942171D01*
X186038495Y-136748599D01*
X185871401Y-136581505D01*
X185685839Y-136451573D01*
X185646976Y-136407257D01*
X185632965Y-136350000D01*
X185646976Y-136292743D01*
X185685839Y-136248426D01*
X185871401Y-136118495D01*
X186038495Y-135951401D01*
X186174035Y-135757830D01*
X186273903Y-135543663D01*
X186285602Y-135500000D01*
X229344540Y-135500000D01*
X229364326Y-135688257D01*
X229422820Y-135868284D01*
X229517466Y-136032216D01*
X229644129Y-136172889D01*
X229797269Y-136284151D01*
X229970197Y-136361144D01*
X230155352Y-136400500D01*
X230155354Y-136400500D01*
X230344646Y-136400500D01*
X230344648Y-136400500D01*
X230468084Y-136374262D01*
X230529803Y-136361144D01*
X230702730Y-136284151D01*
X230805381Y-136209571D01*
X230855870Y-136172889D01*
X230892943Y-136131716D01*
X230982533Y-136032216D01*
X231077179Y-135868284D01*
X231135674Y-135688256D01*
X231155460Y-135500000D01*
X231135674Y-135311744D01*
X231077179Y-135131716D01*
X231077179Y-135131715D01*
X230982533Y-134967783D01*
X230847150Y-134817426D01*
X230848872Y-134815874D01*
X230818944Y-134778113D01*
X230810585Y-134711947D01*
X230837711Y-134651021D01*
X230892476Y-134612959D01*
X230959036Y-134608772D01*
X231155352Y-134650500D01*
X231155354Y-134650500D01*
X231344646Y-134650500D01*
X231344648Y-134650500D01*
X231468083Y-134624262D01*
X231529803Y-134611144D01*
X231702730Y-134534151D01*
X231840405Y-134434125D01*
X231855870Y-134422889D01*
X231892943Y-134381716D01*
X231982533Y-134282216D01*
X232077179Y-134118284D01*
X232135674Y-133938256D01*
X232155460Y-133750000D01*
X232135674Y-133561744D01*
X232086825Y-133411404D01*
X232077179Y-133381715D01*
X231982533Y-133217783D01*
X231855870Y-133077110D01*
X231702730Y-132965848D01*
X231529802Y-132888855D01*
X231344648Y-132849500D01*
X231344646Y-132849500D01*
X231155354Y-132849500D01*
X231155352Y-132849500D01*
X230970197Y-132888855D01*
X230797269Y-132965848D01*
X230644129Y-133077110D01*
X230517466Y-133217783D01*
X230422820Y-133381715D01*
X230364326Y-133561742D01*
X230344540Y-133750000D01*
X230364326Y-133938257D01*
X230422820Y-134118284D01*
X230517466Y-134282216D01*
X230652850Y-134432574D01*
X230651126Y-134434125D01*
X230681054Y-134471883D01*
X230689414Y-134538049D01*
X230662289Y-134598976D01*
X230607525Y-134637039D01*
X230540964Y-134641227D01*
X230344649Y-134599500D01*
X230344646Y-134599500D01*
X230155354Y-134599500D01*
X230155352Y-134599500D01*
X229970197Y-134638855D01*
X229797269Y-134715848D01*
X229644129Y-134827110D01*
X229517466Y-134967783D01*
X229422820Y-135131715D01*
X229364326Y-135311742D01*
X229344540Y-135500000D01*
X186285602Y-135500000D01*
X186335063Y-135315408D01*
X186355659Y-135080000D01*
X186335063Y-134844592D01*
X186273903Y-134616337D01*
X186174035Y-134402171D01*
X186038495Y-134208599D01*
X185871401Y-134041505D01*
X185685839Y-133911573D01*
X185646974Y-133867255D01*
X185632964Y-133809999D01*
X185646975Y-133752742D01*
X185685837Y-133708428D01*
X185871401Y-133578495D01*
X186038495Y-133411401D01*
X186174035Y-133217830D01*
X186273903Y-133003663D01*
X186335063Y-132775408D01*
X186355659Y-132540000D01*
X186335063Y-132304592D01*
X186273903Y-132076337D01*
X186174035Y-131862171D01*
X186095492Y-131749999D01*
X226344540Y-131749999D01*
X226364326Y-131938257D01*
X226422820Y-132118284D01*
X226517466Y-132282216D01*
X226644129Y-132422889D01*
X226797269Y-132534151D01*
X226970197Y-132611144D01*
X227155352Y-132650500D01*
X227155354Y-132650500D01*
X227344646Y-132650500D01*
X227344648Y-132650500D01*
X227468083Y-132624262D01*
X227529803Y-132611144D01*
X227702730Y-132534151D01*
X227855871Y-132422888D01*
X227982533Y-132282216D01*
X228077179Y-132118284D01*
X228135674Y-131938256D01*
X228155460Y-131750000D01*
X228135674Y-131561744D01*
X228077179Y-131381716D01*
X228077179Y-131381715D01*
X227982533Y-131217783D01*
X227855870Y-131077110D01*
X227702730Y-130965848D01*
X227529802Y-130888855D01*
X227344648Y-130849500D01*
X227344646Y-130849500D01*
X227155354Y-130849500D01*
X227155352Y-130849500D01*
X226970197Y-130888855D01*
X226797269Y-130965848D01*
X226644129Y-131077110D01*
X226517466Y-131217783D01*
X226422820Y-131381715D01*
X226364326Y-131561742D01*
X226344540Y-131749999D01*
X186095492Y-131749999D01*
X186038495Y-131668599D01*
X185871401Y-131501505D01*
X185677830Y-131365965D01*
X185463663Y-131266097D01*
X185402501Y-131249709D01*
X185235407Y-131204936D01*
X185000000Y-131184340D01*
X184764592Y-131204936D01*
X184536336Y-131266097D01*
X184322170Y-131365965D01*
X184128598Y-131501505D01*
X183961505Y-131668598D01*
X183825965Y-131862170D01*
X183726097Y-132076336D01*
X183664936Y-132304592D01*
X183644340Y-132540000D01*
X183664936Y-132775407D01*
X183695335Y-132888856D01*
X183726097Y-133003663D01*
X183825965Y-133217830D01*
X183961505Y-133411401D01*
X184128599Y-133578495D01*
X184314160Y-133708426D01*
X184353024Y-133752743D01*
X184367035Y-133810000D01*
X184353024Y-133867257D01*
X184314160Y-133911574D01*
X184140182Y-134033395D01*
X184128595Y-134041508D01*
X183961505Y-134208598D01*
X183825965Y-134402170D01*
X183726097Y-134616336D01*
X183664936Y-134844592D01*
X183644340Y-135080000D01*
X183664936Y-135315407D01*
X183709709Y-135482502D01*
X183726097Y-135543663D01*
X183825965Y-135757830D01*
X183961505Y-135951401D01*
X184128599Y-136118495D01*
X184314160Y-136248426D01*
X184353024Y-136292743D01*
X184367035Y-136350000D01*
X184353024Y-136407257D01*
X184314159Y-136451575D01*
X184128595Y-136581508D01*
X183961505Y-136748598D01*
X183825965Y-136942170D01*
X183726097Y-137156336D01*
X183664936Y-137384592D01*
X183644340Y-137620000D01*
X181655659Y-137620000D01*
X181635063Y-137384592D01*
X181573903Y-137156337D01*
X181474035Y-136942171D01*
X181338495Y-136748599D01*
X181171401Y-136581505D01*
X180985839Y-136451573D01*
X180946976Y-136407257D01*
X180932965Y-136350000D01*
X180946976Y-136292743D01*
X180985839Y-136248426D01*
X181171401Y-136118495D01*
X181338495Y-135951401D01*
X181474035Y-135757830D01*
X181573903Y-135543663D01*
X181635063Y-135315408D01*
X181655659Y-135080000D01*
X181635063Y-134844592D01*
X181573903Y-134616337D01*
X181474035Y-134402171D01*
X181338495Y-134208599D01*
X181171401Y-134041505D01*
X180985839Y-133911573D01*
X180946974Y-133867255D01*
X180932964Y-133809999D01*
X180946975Y-133752742D01*
X180985837Y-133708428D01*
X181171401Y-133578495D01*
X181338495Y-133411401D01*
X181474035Y-133217830D01*
X181573903Y-133003663D01*
X181635063Y-132775408D01*
X181655659Y-132540000D01*
X181635063Y-132304592D01*
X181573903Y-132076337D01*
X181474035Y-131862171D01*
X181338495Y-131668599D01*
X181216569Y-131546673D01*
X181185273Y-131493927D01*
X181183084Y-131432634D01*
X181210537Y-131377789D01*
X181260916Y-131342810D01*
X181392331Y-131293796D01*
X181507546Y-131207546D01*
X181593796Y-131092331D01*
X181644091Y-130957483D01*
X181650500Y-130897873D01*
X181650499Y-129102128D01*
X181644091Y-129042517D01*
X181593796Y-128907669D01*
X181507546Y-128792454D01*
X181392331Y-128706204D01*
X181257483Y-128655909D01*
X181197873Y-128649500D01*
X181197869Y-128649500D01*
X179402130Y-128649500D01*
X179342515Y-128655909D01*
X179207669Y-128706204D01*
X179092454Y-128792454D01*
X179006204Y-128907668D01*
X178955909Y-129042516D01*
X178949500Y-129102130D01*
X178949500Y-130897869D01*
X178952190Y-130922888D01*
X178955909Y-130957483D01*
X179006204Y-131092331D01*
X179092454Y-131207546D01*
X179207669Y-131293796D01*
X179296989Y-131327110D01*
X179339082Y-131342810D01*
X179389462Y-131377789D01*
X179416915Y-131432634D01*
X179414726Y-131493926D01*
X179383431Y-131546673D01*
X179261503Y-131668601D01*
X179125965Y-131862170D01*
X179026097Y-132076336D01*
X178964936Y-132304592D01*
X178944340Y-132540000D01*
X178964936Y-132775407D01*
X178995335Y-132888856D01*
X179026097Y-133003663D01*
X179125965Y-133217830D01*
X179261505Y-133411401D01*
X179428599Y-133578495D01*
X179614160Y-133708426D01*
X179653024Y-133752743D01*
X179667035Y-133810000D01*
X179653024Y-133867257D01*
X179614160Y-133911574D01*
X179440182Y-134033395D01*
X179428595Y-134041508D01*
X179261505Y-134208598D01*
X179125965Y-134402170D01*
X179026097Y-134616336D01*
X178964936Y-134844592D01*
X178944340Y-135080000D01*
X178964936Y-135315407D01*
X179009709Y-135482502D01*
X179026097Y-135543663D01*
X179125965Y-135757830D01*
X179261505Y-135951401D01*
X179428599Y-136118495D01*
X179614160Y-136248426D01*
X179653024Y-136292743D01*
X179667035Y-136350000D01*
X179653024Y-136407257D01*
X179614159Y-136451575D01*
X179428595Y-136581508D01*
X179261505Y-136748598D01*
X179125965Y-136942170D01*
X179026097Y-137156336D01*
X178964936Y-137384592D01*
X178944340Y-137620000D01*
X172355659Y-137620000D01*
X172335063Y-137384592D01*
X172273903Y-137156337D01*
X172174035Y-136942171D01*
X172038495Y-136748599D01*
X171871401Y-136581505D01*
X171685839Y-136451573D01*
X171646976Y-136407257D01*
X171632965Y-136350000D01*
X171646976Y-136292743D01*
X171685839Y-136248426D01*
X171871401Y-136118495D01*
X172038495Y-135951401D01*
X172174035Y-135757830D01*
X172273903Y-135543663D01*
X172335063Y-135315408D01*
X172355659Y-135080000D01*
X172335063Y-134844592D01*
X172273903Y-134616337D01*
X172174035Y-134402171D01*
X172038495Y-134208599D01*
X171871401Y-134041505D01*
X171685839Y-133911573D01*
X171646974Y-133867255D01*
X171632964Y-133809999D01*
X171646975Y-133752742D01*
X171685837Y-133708428D01*
X171871401Y-133578495D01*
X172038495Y-133411401D01*
X172174035Y-133217830D01*
X172273903Y-133003663D01*
X172335063Y-132775408D01*
X172355659Y-132540000D01*
X172335063Y-132304592D01*
X172273903Y-132076337D01*
X172174035Y-131862171D01*
X172038495Y-131668599D01*
X171916569Y-131546673D01*
X171885273Y-131493927D01*
X171883084Y-131432634D01*
X171910537Y-131377789D01*
X171960916Y-131342810D01*
X172092331Y-131293796D01*
X172207546Y-131207546D01*
X172293796Y-131092331D01*
X172344091Y-130957483D01*
X172350500Y-130897873D01*
X172350499Y-129102128D01*
X172344091Y-129042517D01*
X172293796Y-128907669D01*
X172207546Y-128792454D01*
X172092331Y-128706204D01*
X171957483Y-128655909D01*
X171897873Y-128649500D01*
X171897869Y-128649500D01*
X170102130Y-128649500D01*
X170042515Y-128655909D01*
X169907669Y-128706204D01*
X169792454Y-128792454D01*
X169706204Y-128907668D01*
X169655909Y-129042516D01*
X169649500Y-129102130D01*
X169649500Y-130897869D01*
X169652190Y-130922888D01*
X169655909Y-130957483D01*
X169706204Y-131092331D01*
X169792454Y-131207546D01*
X169907669Y-131293796D01*
X169996989Y-131327110D01*
X170039082Y-131342810D01*
X170089462Y-131377789D01*
X170116915Y-131432634D01*
X170114726Y-131493926D01*
X170083431Y-131546673D01*
X169961503Y-131668601D01*
X169825965Y-131862170D01*
X169726097Y-132076336D01*
X169664936Y-132304592D01*
X169644340Y-132540000D01*
X169664936Y-132775407D01*
X169695335Y-132888856D01*
X169726097Y-133003663D01*
X169825965Y-133217830D01*
X169961505Y-133411401D01*
X170128599Y-133578495D01*
X170314160Y-133708426D01*
X170353024Y-133752743D01*
X170367035Y-133810000D01*
X170353024Y-133867257D01*
X170314160Y-133911574D01*
X170140182Y-134033395D01*
X170128595Y-134041508D01*
X169961505Y-134208598D01*
X169825965Y-134402170D01*
X169726097Y-134616336D01*
X169664936Y-134844592D01*
X169644340Y-135080000D01*
X169664936Y-135315407D01*
X169709709Y-135482502D01*
X169726097Y-135543663D01*
X169825965Y-135757830D01*
X169961505Y-135951401D01*
X170128599Y-136118495D01*
X170314160Y-136248426D01*
X170353024Y-136292743D01*
X170367035Y-136350000D01*
X170353024Y-136407257D01*
X170314159Y-136451575D01*
X170128595Y-136581508D01*
X169961505Y-136748598D01*
X169825965Y-136942170D01*
X169726097Y-137156336D01*
X169664936Y-137384592D01*
X169644340Y-137620000D01*
X152500000Y-137620000D01*
X152500000Y-134750000D01*
X157244356Y-134750000D01*
X157264891Y-134997816D01*
X157264891Y-134997819D01*
X157264892Y-134997821D01*
X157325937Y-135238881D01*
X157359505Y-135315408D01*
X157425825Y-135466604D01*
X157425827Y-135466607D01*
X157561836Y-135674785D01*
X157730256Y-135857738D01*
X157795667Y-135908650D01*
X157926485Y-136010470D01*
X157926487Y-136010471D01*
X157926491Y-136010474D01*
X158145190Y-136128828D01*
X158380386Y-136209571D01*
X158625665Y-136250500D01*
X158874335Y-136250500D01*
X159119614Y-136209571D01*
X159354810Y-136128828D01*
X159573509Y-136010474D01*
X159769744Y-135857738D01*
X159938164Y-135674785D01*
X160074173Y-135466607D01*
X160174063Y-135238881D01*
X160235108Y-134997821D01*
X160255643Y-134750000D01*
X163744356Y-134750000D01*
X163764891Y-134997816D01*
X163764891Y-134997819D01*
X163764892Y-134997821D01*
X163825937Y-135238881D01*
X163859505Y-135315408D01*
X163925825Y-135466604D01*
X163925827Y-135466607D01*
X164061836Y-135674785D01*
X164230256Y-135857738D01*
X164295667Y-135908650D01*
X164426485Y-136010470D01*
X164426487Y-136010471D01*
X164426491Y-136010474D01*
X164645190Y-136128828D01*
X164880386Y-136209571D01*
X165125665Y-136250500D01*
X165374335Y-136250500D01*
X165619614Y-136209571D01*
X165854810Y-136128828D01*
X166073509Y-136010474D01*
X166269744Y-135857738D01*
X166438164Y-135674785D01*
X166574173Y-135466607D01*
X166674063Y-135238881D01*
X166735108Y-134997821D01*
X166755643Y-134750000D01*
X166735108Y-134502179D01*
X166674063Y-134261119D01*
X166574173Y-134033393D01*
X166438164Y-133825215D01*
X166269744Y-133642262D01*
X166247612Y-133625036D01*
X166073514Y-133489529D01*
X166073510Y-133489526D01*
X166073509Y-133489526D01*
X165854810Y-133371172D01*
X165854806Y-133371170D01*
X165854805Y-133371170D01*
X165619615Y-133290429D01*
X165374335Y-133249500D01*
X165125665Y-133249500D01*
X164880384Y-133290429D01*
X164645194Y-133371170D01*
X164645190Y-133371171D01*
X164645190Y-133371172D01*
X164570853Y-133411401D01*
X164426485Y-133489529D01*
X164230259Y-133642259D01*
X164230256Y-133642261D01*
X164230256Y-133642262D01*
X164061836Y-133825215D01*
X164034370Y-133867255D01*
X163925825Y-134033395D01*
X163835780Y-134238678D01*
X163825937Y-134261119D01*
X163782126Y-134434125D01*
X163764891Y-134502183D01*
X163744356Y-134750000D01*
X160255643Y-134750000D01*
X160235108Y-134502179D01*
X160174063Y-134261119D01*
X160074173Y-134033393D01*
X159938164Y-133825215D01*
X159769744Y-133642262D01*
X159747612Y-133625036D01*
X159573514Y-133489529D01*
X159573510Y-133489526D01*
X159573509Y-133489526D01*
X159354810Y-133371172D01*
X159354806Y-133371170D01*
X159354805Y-133371170D01*
X159119615Y-133290429D01*
X158874335Y-133249500D01*
X158625665Y-133249500D01*
X158380384Y-133290429D01*
X158145194Y-133371170D01*
X158145190Y-133371171D01*
X158145190Y-133371172D01*
X158070853Y-133411401D01*
X157926485Y-133489529D01*
X157730259Y-133642259D01*
X157730256Y-133642261D01*
X157730256Y-133642262D01*
X157561836Y-133825215D01*
X157534370Y-133867255D01*
X157425825Y-134033395D01*
X157335780Y-134238678D01*
X157325937Y-134261119D01*
X157282126Y-134434125D01*
X157264891Y-134502183D01*
X157244356Y-134750000D01*
X152500000Y-134750000D01*
X152500000Y-132000000D01*
X149250000Y-132000000D01*
X104655460Y-132000000D01*
X104635674Y-131811744D01*
X104577179Y-131631716D01*
X104577179Y-131631715D01*
X104482533Y-131467783D01*
X104355870Y-131327110D01*
X104202730Y-131215848D01*
X104029802Y-131138855D01*
X103844648Y-131099500D01*
X103844646Y-131099500D01*
X103655354Y-131099500D01*
X103655352Y-131099500D01*
X103470197Y-131138855D01*
X103297269Y-131215848D01*
X103144129Y-131327110D01*
X103017466Y-131467783D01*
X102922820Y-131631715D01*
X102864326Y-131811742D01*
X102844540Y-132000000D01*
X101000500Y-132000000D01*
X101000500Y-130249999D01*
X133594540Y-130249999D01*
X133614326Y-130438257D01*
X133672820Y-130618284D01*
X133767466Y-130782216D01*
X133894129Y-130922889D01*
X134047269Y-131034151D01*
X134220197Y-131111144D01*
X134405352Y-131150500D01*
X134405354Y-131150500D01*
X134594646Y-131150500D01*
X134594648Y-131150500D01*
X134718084Y-131124262D01*
X134779803Y-131111144D01*
X134952730Y-131034151D01*
X135046740Y-130965849D01*
X135105870Y-130922889D01*
X135128396Y-130897872D01*
X135232533Y-130782216D01*
X135327179Y-130618284D01*
X135385674Y-130438256D01*
X135405460Y-130250000D01*
X135405460Y-130249999D01*
X137094540Y-130249999D01*
X137114326Y-130438257D01*
X137172820Y-130618284D01*
X137267466Y-130782216D01*
X137394129Y-130922889D01*
X137547269Y-131034151D01*
X137720197Y-131111144D01*
X137905352Y-131150500D01*
X137905354Y-131150500D01*
X138094646Y-131150500D01*
X138094648Y-131150500D01*
X138218084Y-131124262D01*
X138279803Y-131111144D01*
X138452730Y-131034151D01*
X138546740Y-130965849D01*
X138605870Y-130922889D01*
X138628396Y-130897872D01*
X138732533Y-130782216D01*
X138827179Y-130618284D01*
X138885674Y-130438256D01*
X138905460Y-130250000D01*
X138885674Y-130061744D01*
X138855332Y-129968363D01*
X138827179Y-129881715D01*
X138732533Y-129717783D01*
X138605870Y-129577110D01*
X138452730Y-129465848D01*
X138279802Y-129388855D01*
X138094648Y-129349500D01*
X138094646Y-129349500D01*
X137905354Y-129349500D01*
X137905352Y-129349500D01*
X137720197Y-129388855D01*
X137547269Y-129465848D01*
X137394129Y-129577110D01*
X137267466Y-129717783D01*
X137172820Y-129881715D01*
X137114326Y-130061742D01*
X137094540Y-130249999D01*
X135405460Y-130249999D01*
X135385674Y-130061744D01*
X135355332Y-129968363D01*
X135327179Y-129881715D01*
X135232533Y-129717783D01*
X135105870Y-129577110D01*
X134952730Y-129465848D01*
X134779802Y-129388855D01*
X134594648Y-129349500D01*
X134594646Y-129349500D01*
X134405354Y-129349500D01*
X134405352Y-129349500D01*
X134220197Y-129388855D01*
X134047269Y-129465848D01*
X133894129Y-129577110D01*
X133767466Y-129717783D01*
X133672820Y-129881715D01*
X133614326Y-130061742D01*
X133594540Y-130249999D01*
X101000500Y-130249999D01*
X101000500Y-129000000D01*
X126594540Y-129000000D01*
X126614326Y-129188257D01*
X126672820Y-129368284D01*
X126767466Y-129532216D01*
X126894129Y-129672889D01*
X127047269Y-129784151D01*
X127220197Y-129861144D01*
X127405352Y-129900500D01*
X127405354Y-129900500D01*
X127594646Y-129900500D01*
X127594648Y-129900500D01*
X127718084Y-129874262D01*
X127779803Y-129861144D01*
X127952730Y-129784151D01*
X128105871Y-129672888D01*
X128232533Y-129532216D01*
X128327179Y-129368284D01*
X128385674Y-129188256D01*
X128405460Y-129000000D01*
X128385674Y-128811744D01*
X128332958Y-128649501D01*
X128327179Y-128631715D01*
X128232533Y-128467783D01*
X128105870Y-128327110D01*
X127952730Y-128215848D01*
X127779802Y-128138855D01*
X127594648Y-128099500D01*
X127594646Y-128099500D01*
X127405354Y-128099500D01*
X127405352Y-128099500D01*
X127220197Y-128138855D01*
X127047269Y-128215848D01*
X126894129Y-128327110D01*
X126767466Y-128467783D01*
X126672820Y-128631715D01*
X126614326Y-128811742D01*
X126594540Y-129000000D01*
X101000500Y-129000000D01*
X101000500Y-127499999D01*
X124094540Y-127499999D01*
X124114326Y-127688257D01*
X124172820Y-127868284D01*
X124267466Y-128032216D01*
X124394129Y-128172889D01*
X124547269Y-128284151D01*
X124720197Y-128361144D01*
X124905352Y-128400500D01*
X124905354Y-128400500D01*
X125094646Y-128400500D01*
X125094648Y-128400500D01*
X125218083Y-128374262D01*
X125279803Y-128361144D01*
X125452730Y-128284151D01*
X125546740Y-128215849D01*
X125605870Y-128172889D01*
X125636515Y-128138855D01*
X125732533Y-128032216D01*
X125827179Y-127868284D01*
X125885674Y-127688256D01*
X125905460Y-127500000D01*
X125885674Y-127311744D01*
X125865612Y-127250000D01*
X136094540Y-127250000D01*
X136114326Y-127438257D01*
X136172820Y-127618284D01*
X136267466Y-127782216D01*
X136394129Y-127922889D01*
X136547269Y-128034151D01*
X136720197Y-128111144D01*
X136905352Y-128150500D01*
X136905354Y-128150500D01*
X137094646Y-128150500D01*
X137094648Y-128150500D01*
X137218084Y-128124262D01*
X137279803Y-128111144D01*
X137452730Y-128034151D01*
X137499735Y-128000000D01*
X240094540Y-128000000D01*
X240114326Y-128188257D01*
X240172820Y-128368284D01*
X240267466Y-128532216D01*
X240394129Y-128672889D01*
X240547269Y-128784151D01*
X240720197Y-128861144D01*
X240905352Y-128900500D01*
X240905354Y-128900500D01*
X241094646Y-128900500D01*
X241094648Y-128900500D01*
X241218084Y-128874262D01*
X241279803Y-128861144D01*
X241452730Y-128784151D01*
X241452730Y-128784150D01*
X241605870Y-128672889D01*
X241642943Y-128631716D01*
X241732533Y-128532216D01*
X241827179Y-128368284D01*
X241885674Y-128188256D01*
X241905460Y-128000000D01*
X241885674Y-127811744D01*
X241855332Y-127718363D01*
X241827179Y-127631715D01*
X241732533Y-127467783D01*
X241605870Y-127327110D01*
X241452730Y-127215848D01*
X241279802Y-127138855D01*
X241094648Y-127099500D01*
X241094646Y-127099500D01*
X240905354Y-127099500D01*
X240905352Y-127099500D01*
X240720197Y-127138855D01*
X240547269Y-127215848D01*
X240394129Y-127327110D01*
X240267466Y-127467783D01*
X240172820Y-127631715D01*
X240114326Y-127811742D01*
X240094540Y-128000000D01*
X137499735Y-128000000D01*
X137605871Y-127922888D01*
X137732533Y-127782216D01*
X137827179Y-127618284D01*
X137885674Y-127438256D01*
X137905460Y-127250000D01*
X137885674Y-127061744D01*
X137827179Y-126881716D01*
X137827179Y-126881715D01*
X137732533Y-126717783D01*
X137605870Y-126577110D01*
X137452730Y-126465848D01*
X137279802Y-126388855D01*
X137094648Y-126349500D01*
X137094646Y-126349500D01*
X136905354Y-126349500D01*
X136905352Y-126349500D01*
X136720197Y-126388855D01*
X136547269Y-126465848D01*
X136394129Y-126577110D01*
X136267466Y-126717783D01*
X136172820Y-126881715D01*
X136114326Y-127061742D01*
X136094540Y-127250000D01*
X125865612Y-127250000D01*
X125827179Y-127131716D01*
X125827179Y-127131715D01*
X125732533Y-126967783D01*
X125605870Y-126827110D01*
X125452730Y-126715848D01*
X125279802Y-126638855D01*
X125094648Y-126599500D01*
X125094646Y-126599500D01*
X124905354Y-126599500D01*
X124905352Y-126599500D01*
X124720197Y-126638855D01*
X124547269Y-126715848D01*
X124394129Y-126827110D01*
X124267466Y-126967783D01*
X124172820Y-127131715D01*
X124114326Y-127311742D01*
X124094540Y-127499999D01*
X101000500Y-127499999D01*
X101000500Y-125876001D01*
X241494500Y-125876001D01*
X241511724Y-126006830D01*
X241528339Y-126068838D01*
X241578836Y-126190749D01*
X241659170Y-126295442D01*
X241704557Y-126340829D01*
X241767146Y-126388855D01*
X241809250Y-126421163D01*
X241931166Y-126471662D01*
X241993166Y-126488275D01*
X242091291Y-126501193D01*
X242123999Y-126505500D01*
X242124000Y-126505500D01*
X248376000Y-126505500D01*
X248376001Y-126505500D01*
X248402166Y-126502055D01*
X248506834Y-126488275D01*
X248568834Y-126471662D01*
X248690750Y-126421163D01*
X248795442Y-126340829D01*
X248840829Y-126295442D01*
X248921163Y-126190750D01*
X248971662Y-126068834D01*
X248988275Y-126006834D01*
X249005500Y-125876000D01*
X249005500Y-114124000D01*
X248988275Y-113993166D01*
X248971662Y-113931166D01*
X248921163Y-113809250D01*
X248921162Y-113809249D01*
X248840829Y-113704557D01*
X248795442Y-113659170D01*
X248690749Y-113578836D01*
X248568838Y-113528339D01*
X248506830Y-113511724D01*
X248376001Y-113494500D01*
X248376000Y-113494500D01*
X242124000Y-113494500D01*
X242123999Y-113494500D01*
X241993169Y-113511724D01*
X241931161Y-113528339D01*
X241809250Y-113578836D01*
X241704557Y-113659170D01*
X241659170Y-113704557D01*
X241578836Y-113809250D01*
X241528339Y-113931161D01*
X241511724Y-113993169D01*
X241494500Y-114123999D01*
X241494500Y-125876001D01*
X101000500Y-125876001D01*
X101000500Y-123260000D01*
X103587179Y-123260000D01*
X103606820Y-123484493D01*
X103665148Y-123702173D01*
X103760382Y-123906406D01*
X103760385Y-123906410D01*
X103889642Y-124091009D01*
X104048991Y-124250358D01*
X104233590Y-124379615D01*
X104233593Y-124379617D01*
X104400418Y-124457407D01*
X104437830Y-124474853D01*
X104655504Y-124533179D01*
X104880000Y-124552820D01*
X105104496Y-124533179D01*
X105322170Y-124474853D01*
X105526410Y-124379615D01*
X105711009Y-124250358D01*
X105870358Y-124091009D01*
X105999615Y-123906410D01*
X106094853Y-123702170D01*
X106153179Y-123484496D01*
X106172820Y-123260000D01*
X108667179Y-123260000D01*
X108686820Y-123484493D01*
X108745148Y-123702173D01*
X108840382Y-123906406D01*
X108840385Y-123906410D01*
X108969642Y-124091009D01*
X109128991Y-124250358D01*
X109313590Y-124379615D01*
X109313593Y-124379617D01*
X109480418Y-124457407D01*
X109517830Y-124474853D01*
X109735504Y-124533179D01*
X109960000Y-124552820D01*
X110184496Y-124533179D01*
X110402170Y-124474853D01*
X110606410Y-124379615D01*
X110791009Y-124250358D01*
X110950358Y-124091009D01*
X111079615Y-123906410D01*
X111117617Y-123824912D01*
X111163374Y-123772737D01*
X111230000Y-123753317D01*
X111296626Y-123772737D01*
X111342382Y-123824912D01*
X111380385Y-123906410D01*
X111509642Y-124091009D01*
X111668991Y-124250358D01*
X111853590Y-124379615D01*
X111853593Y-124379617D01*
X112020418Y-124457407D01*
X112057830Y-124474853D01*
X112275504Y-124533179D01*
X112500000Y-124552820D01*
X112724496Y-124533179D01*
X112942170Y-124474853D01*
X113146410Y-124379615D01*
X113331009Y-124250358D01*
X113490358Y-124091009D01*
X113619615Y-123906410D01*
X113657617Y-123824912D01*
X113703374Y-123772737D01*
X113770000Y-123753317D01*
X113836626Y-123772737D01*
X113882382Y-123824912D01*
X113920385Y-123906410D01*
X114049642Y-124091009D01*
X114208991Y-124250358D01*
X114393590Y-124379615D01*
X114393593Y-124379617D01*
X114560418Y-124457407D01*
X114597830Y-124474853D01*
X114815504Y-124533179D01*
X115040000Y-124552820D01*
X115264496Y-124533179D01*
X115482170Y-124474853D01*
X115686410Y-124379615D01*
X115871009Y-124250358D01*
X116030358Y-124091009D01*
X116159615Y-123906410D01*
X116197617Y-123824912D01*
X116243374Y-123772737D01*
X116310000Y-123753317D01*
X116376626Y-123772737D01*
X116422382Y-123824912D01*
X116460385Y-123906410D01*
X116589642Y-124091009D01*
X116748991Y-124250358D01*
X116933590Y-124379615D01*
X116933593Y-124379617D01*
X117100418Y-124457407D01*
X117137830Y-124474853D01*
X117355504Y-124533179D01*
X117580000Y-124552820D01*
X117804496Y-124533179D01*
X118022170Y-124474853D01*
X118226410Y-124379615D01*
X118411009Y-124250358D01*
X118570358Y-124091009D01*
X118699615Y-123906410D01*
X118737617Y-123824912D01*
X118783374Y-123772737D01*
X118850000Y-123753317D01*
X118916626Y-123772737D01*
X118962382Y-123824912D01*
X119000385Y-123906410D01*
X119129642Y-124091009D01*
X119288991Y-124250358D01*
X119473590Y-124379615D01*
X119473593Y-124379617D01*
X119640418Y-124457407D01*
X119677830Y-124474853D01*
X119895504Y-124533179D01*
X120120000Y-124552820D01*
X120344496Y-124533179D01*
X120562170Y-124474853D01*
X120766410Y-124379615D01*
X120951009Y-124250358D01*
X121110358Y-124091009D01*
X121239615Y-123906410D01*
X121277617Y-123824912D01*
X121323374Y-123772737D01*
X121390000Y-123753317D01*
X121456626Y-123772737D01*
X121502382Y-123824912D01*
X121540385Y-123906410D01*
X121669642Y-124091009D01*
X121828991Y-124250358D01*
X122013590Y-124379615D01*
X122013593Y-124379617D01*
X122180418Y-124457407D01*
X122217830Y-124474853D01*
X122435504Y-124533179D01*
X122660000Y-124552820D01*
X122884496Y-124533179D01*
X123102170Y-124474853D01*
X123306410Y-124379615D01*
X123491009Y-124250358D01*
X123650358Y-124091009D01*
X123779615Y-123906410D01*
X123817617Y-123824912D01*
X123863374Y-123772737D01*
X123930000Y-123753317D01*
X123996626Y-123772737D01*
X124042382Y-123824912D01*
X124080385Y-123906410D01*
X124209642Y-124091009D01*
X124368991Y-124250358D01*
X124553590Y-124379615D01*
X124553593Y-124379617D01*
X124720418Y-124457407D01*
X124757830Y-124474853D01*
X124975504Y-124533179D01*
X125200000Y-124552820D01*
X125424496Y-124533179D01*
X125642170Y-124474853D01*
X125846410Y-124379615D01*
X126031009Y-124250358D01*
X126190358Y-124091009D01*
X126319615Y-123906410D01*
X126357617Y-123824912D01*
X126403374Y-123772737D01*
X126470000Y-123753317D01*
X126536626Y-123772737D01*
X126582382Y-123824912D01*
X126620385Y-123906410D01*
X126749642Y-124091009D01*
X126908991Y-124250358D01*
X127093590Y-124379615D01*
X127093593Y-124379617D01*
X127260418Y-124457407D01*
X127297830Y-124474853D01*
X127515504Y-124533179D01*
X127740000Y-124552820D01*
X127964496Y-124533179D01*
X128182170Y-124474853D01*
X128386410Y-124379615D01*
X128571009Y-124250358D01*
X128730358Y-124091009D01*
X128859615Y-123906410D01*
X128897617Y-123824912D01*
X128943374Y-123772737D01*
X129010000Y-123753317D01*
X129076626Y-123772737D01*
X129122382Y-123824912D01*
X129160385Y-123906410D01*
X129289642Y-124091009D01*
X129448991Y-124250358D01*
X129633590Y-124379615D01*
X129633593Y-124379617D01*
X129800418Y-124457407D01*
X129837830Y-124474853D01*
X130055504Y-124533179D01*
X130280000Y-124552820D01*
X130504496Y-124533179D01*
X130722170Y-124474853D01*
X130926410Y-124379615D01*
X131111009Y-124250358D01*
X131270358Y-124091009D01*
X131399615Y-123906410D01*
X131437617Y-123824912D01*
X131483374Y-123772737D01*
X131550000Y-123753317D01*
X131616626Y-123772737D01*
X131662382Y-123824912D01*
X131700385Y-123906410D01*
X131829642Y-124091009D01*
X131988991Y-124250358D01*
X132173590Y-124379615D01*
X132173593Y-124379617D01*
X132340418Y-124457407D01*
X132377830Y-124474853D01*
X132595504Y-124533179D01*
X132820000Y-124552820D01*
X133044496Y-124533179D01*
X133262170Y-124474853D01*
X133466410Y-124379615D01*
X133651009Y-124250358D01*
X133810358Y-124091009D01*
X133939615Y-123906410D01*
X133977617Y-123824912D01*
X134023374Y-123772737D01*
X134090000Y-123753317D01*
X134156626Y-123772737D01*
X134202382Y-123824912D01*
X134240385Y-123906410D01*
X134369642Y-124091009D01*
X134528991Y-124250358D01*
X134713590Y-124379615D01*
X134713593Y-124379617D01*
X134880418Y-124457407D01*
X134917830Y-124474853D01*
X135135504Y-124533179D01*
X135360000Y-124552820D01*
X135584496Y-124533179D01*
X135802170Y-124474853D01*
X136006410Y-124379615D01*
X136191009Y-124250358D01*
X136350358Y-124091009D01*
X136479615Y-123906410D01*
X136517617Y-123824912D01*
X136563374Y-123772737D01*
X136630000Y-123753317D01*
X136696626Y-123772737D01*
X136742382Y-123824912D01*
X136780385Y-123906410D01*
X136909642Y-124091009D01*
X137068991Y-124250358D01*
X137253590Y-124379615D01*
X137253593Y-124379617D01*
X137420418Y-124457407D01*
X137457830Y-124474853D01*
X137675504Y-124533179D01*
X137900000Y-124552820D01*
X138124496Y-124533179D01*
X138342170Y-124474853D01*
X138546410Y-124379615D01*
X138731009Y-124250358D01*
X138890358Y-124091009D01*
X139019615Y-123906410D01*
X139057617Y-123824912D01*
X139103374Y-123772737D01*
X139170000Y-123753317D01*
X139236626Y-123772737D01*
X139282382Y-123824912D01*
X139320385Y-123906410D01*
X139449642Y-124091009D01*
X139608991Y-124250358D01*
X139793590Y-124379615D01*
X139793593Y-124379617D01*
X139960418Y-124457407D01*
X139997830Y-124474853D01*
X140215504Y-124533179D01*
X140440000Y-124552820D01*
X140664496Y-124533179D01*
X140882170Y-124474853D01*
X141086410Y-124379615D01*
X141271009Y-124250358D01*
X141430358Y-124091009D01*
X141559615Y-123906410D01*
X141597617Y-123824912D01*
X141643374Y-123772737D01*
X141710000Y-123753317D01*
X141776626Y-123772737D01*
X141822382Y-123824912D01*
X141860385Y-123906410D01*
X141989642Y-124091009D01*
X142148991Y-124250358D01*
X142333590Y-124379615D01*
X142333593Y-124379617D01*
X142500418Y-124457407D01*
X142537830Y-124474853D01*
X142755504Y-124533179D01*
X142980000Y-124552820D01*
X143204496Y-124533179D01*
X143422170Y-124474853D01*
X143626410Y-124379615D01*
X143811009Y-124250358D01*
X143970358Y-124091009D01*
X144099615Y-123906410D01*
X144137617Y-123824912D01*
X144183374Y-123772737D01*
X144250000Y-123753317D01*
X144316626Y-123772737D01*
X144362382Y-123824912D01*
X144400385Y-123906410D01*
X144529642Y-124091009D01*
X144688991Y-124250358D01*
X144873590Y-124379615D01*
X144873593Y-124379617D01*
X145040418Y-124457407D01*
X145077830Y-124474853D01*
X145295504Y-124533179D01*
X145520000Y-124552820D01*
X145744496Y-124533179D01*
X145962170Y-124474853D01*
X146166410Y-124379615D01*
X146351009Y-124250358D01*
X146510358Y-124091009D01*
X146639615Y-123906410D01*
X146734853Y-123702170D01*
X146793179Y-123484496D01*
X146812820Y-123260000D01*
X146793179Y-123035504D01*
X146734853Y-122817830D01*
X146717407Y-122780418D01*
X146639617Y-122613593D01*
X146608279Y-122568838D01*
X146510358Y-122428991D01*
X146351009Y-122269642D01*
X146196834Y-122161688D01*
X146166406Y-122140382D01*
X145962173Y-122045148D01*
X145962170Y-122045147D01*
X145817957Y-122006505D01*
X145744493Y-121986820D01*
X145520000Y-121967179D01*
X145295506Y-121986820D01*
X145077826Y-122045148D01*
X144873593Y-122140382D01*
X144688987Y-122269645D01*
X144529645Y-122428987D01*
X144400381Y-122613593D01*
X144362382Y-122695086D01*
X144316625Y-122747262D01*
X144250000Y-122766682D01*
X144183375Y-122747262D01*
X144137618Y-122695086D01*
X144099618Y-122613593D01*
X144023930Y-122505500D01*
X143970358Y-122428991D01*
X143811009Y-122269642D01*
X143656834Y-122161688D01*
X143626406Y-122140382D01*
X143422173Y-122045148D01*
X143422170Y-122045147D01*
X143277957Y-122006505D01*
X143204493Y-121986820D01*
X142980000Y-121967179D01*
X142755506Y-121986820D01*
X142537826Y-122045148D01*
X142333593Y-122140382D01*
X142148987Y-122269645D01*
X141989645Y-122428987D01*
X141860381Y-122613593D01*
X141822382Y-122695086D01*
X141776625Y-122747262D01*
X141710000Y-122766682D01*
X141643375Y-122747262D01*
X141597618Y-122695086D01*
X141559618Y-122613593D01*
X141483930Y-122505500D01*
X141430358Y-122428991D01*
X141271009Y-122269642D01*
X141116834Y-122161688D01*
X141086406Y-122140382D01*
X140882173Y-122045148D01*
X140882170Y-122045147D01*
X140737957Y-122006505D01*
X140664493Y-121986820D01*
X140440000Y-121967179D01*
X140215506Y-121986820D01*
X139997826Y-122045148D01*
X139793593Y-122140382D01*
X139608987Y-122269645D01*
X139449645Y-122428987D01*
X139320381Y-122613593D01*
X139282382Y-122695086D01*
X139236625Y-122747262D01*
X139170000Y-122766682D01*
X139103375Y-122747262D01*
X139057618Y-122695086D01*
X139019618Y-122613593D01*
X138943930Y-122505500D01*
X138890358Y-122428991D01*
X138731009Y-122269642D01*
X138576834Y-122161688D01*
X138546406Y-122140382D01*
X138342173Y-122045148D01*
X138342170Y-122045147D01*
X138197957Y-122006505D01*
X138124493Y-121986820D01*
X137900000Y-121967179D01*
X137675506Y-121986820D01*
X137457826Y-122045148D01*
X137253593Y-122140382D01*
X137068987Y-122269645D01*
X136909645Y-122428987D01*
X136780381Y-122613593D01*
X136742382Y-122695086D01*
X136696625Y-122747262D01*
X136630000Y-122766682D01*
X136563375Y-122747262D01*
X136517618Y-122695086D01*
X136479618Y-122613593D01*
X136403930Y-122505500D01*
X136350358Y-122428991D01*
X136191009Y-122269642D01*
X136036834Y-122161688D01*
X136006406Y-122140382D01*
X135802173Y-122045148D01*
X135802170Y-122045147D01*
X135657957Y-122006505D01*
X135584493Y-121986820D01*
X135360000Y-121967179D01*
X135135506Y-121986820D01*
X134917826Y-122045148D01*
X134713593Y-122140382D01*
X134528987Y-122269645D01*
X134369645Y-122428987D01*
X134240381Y-122613593D01*
X134202382Y-122695086D01*
X134156625Y-122747262D01*
X134090000Y-122766682D01*
X134023375Y-122747262D01*
X133977618Y-122695086D01*
X133939618Y-122613593D01*
X133863930Y-122505500D01*
X133810358Y-122428991D01*
X133651009Y-122269642D01*
X133496834Y-122161688D01*
X133466406Y-122140382D01*
X133262173Y-122045148D01*
X133262170Y-122045147D01*
X133117957Y-122006505D01*
X133044493Y-121986820D01*
X132820000Y-121967179D01*
X132595504Y-121986820D01*
X132549556Y-121999132D01*
X132496463Y-122001566D01*
X132447228Y-121981548D01*
X132410897Y-121942757D01*
X132394142Y-121892318D01*
X132393028Y-121881716D01*
X132385674Y-121811744D01*
X132365612Y-121749999D01*
X177094540Y-121749999D01*
X177114326Y-121938257D01*
X177172820Y-122118284D01*
X177267466Y-122282216D01*
X177394129Y-122422889D01*
X177547269Y-122534151D01*
X177720197Y-122611144D01*
X177905352Y-122650500D01*
X177905354Y-122650500D01*
X178094646Y-122650500D01*
X178094648Y-122650500D01*
X178218083Y-122624262D01*
X178279803Y-122611144D01*
X178452730Y-122534151D01*
X178597471Y-122428991D01*
X178605870Y-122422889D01*
X178732533Y-122282216D01*
X178827179Y-122118284D01*
X178835015Y-122094166D01*
X178885674Y-121938256D01*
X178892217Y-121876001D01*
X231994500Y-121876001D01*
X232011681Y-122006505D01*
X232011725Y-122006834D01*
X232017866Y-122029753D01*
X232028339Y-122068838D01*
X232078836Y-122190749D01*
X232159170Y-122295442D01*
X232204557Y-122340829D01*
X232309249Y-122421162D01*
X232309250Y-122421163D01*
X232431166Y-122471662D01*
X232493166Y-122488275D01*
X232591291Y-122501193D01*
X232623999Y-122505500D01*
X232624000Y-122505500D01*
X233923360Y-122505500D01*
X233923364Y-122505500D01*
X234061497Y-122486261D01*
X234126688Y-122467742D01*
X234254313Y-122411484D01*
X234361706Y-122322492D01*
X234407424Y-122272465D01*
X234486406Y-122157520D01*
X234778141Y-121574045D01*
X234823859Y-121524019D01*
X234889050Y-121505500D01*
X236163102Y-121505500D01*
X236221612Y-121520172D01*
X236266276Y-121560717D01*
X237042588Y-122725185D01*
X237123420Y-122819066D01*
X237168086Y-122859613D01*
X237269327Y-122931014D01*
X237269330Y-122931015D01*
X237384900Y-122975647D01*
X237443410Y-122990319D01*
X237504886Y-122997909D01*
X237566359Y-123005500D01*
X237566363Y-123005500D01*
X239876000Y-123005500D01*
X239876001Y-123005500D01*
X239902166Y-123002054D01*
X240006834Y-122988275D01*
X240068834Y-122971662D01*
X240190750Y-122921163D01*
X240295442Y-122840829D01*
X240340829Y-122795442D01*
X240421163Y-122690750D01*
X240471662Y-122568834D01*
X240488275Y-122506834D01*
X240505500Y-122376000D01*
X240505500Y-112624000D01*
X240503807Y-112611144D01*
X240488275Y-112493169D01*
X240488275Y-112493166D01*
X240471662Y-112431166D01*
X240421163Y-112309250D01*
X240400419Y-112282216D01*
X240340829Y-112204557D01*
X240295442Y-112159170D01*
X240190749Y-112078836D01*
X240068838Y-112028339D01*
X240006830Y-112011724D01*
X239876001Y-111994500D01*
X239876000Y-111994500D01*
X232624000Y-111994500D01*
X232623999Y-111994500D01*
X232493169Y-112011724D01*
X232431161Y-112028339D01*
X232309250Y-112078836D01*
X232204557Y-112159170D01*
X232159170Y-112204557D01*
X232078836Y-112309250D01*
X232028339Y-112431161D01*
X232011724Y-112493169D01*
X231994500Y-112623999D01*
X231994500Y-121876001D01*
X178892217Y-121876001D01*
X178905460Y-121750000D01*
X178885674Y-121561744D01*
X178854061Y-121464449D01*
X178827179Y-121381715D01*
X178732533Y-121217783D01*
X178605870Y-121077110D01*
X178452730Y-120965848D01*
X178279802Y-120888855D01*
X178094648Y-120849500D01*
X178094646Y-120849500D01*
X177905354Y-120849500D01*
X177905352Y-120849500D01*
X177720197Y-120888855D01*
X177547269Y-120965848D01*
X177394129Y-121077110D01*
X177267466Y-121217783D01*
X177172820Y-121381715D01*
X177114326Y-121561742D01*
X177094540Y-121749999D01*
X132365612Y-121749999D01*
X132340557Y-121672888D01*
X132327179Y-121631715D01*
X132295523Y-121576885D01*
X132279080Y-121521374D01*
X132289631Y-121464449D01*
X132324875Y-121418518D01*
X132377124Y-121393596D01*
X132529803Y-121361144D01*
X132702730Y-121284151D01*
X132749735Y-121250000D01*
X132855870Y-121172889D01*
X132886515Y-121138855D01*
X132982533Y-121032216D01*
X133077179Y-120868284D01*
X133135674Y-120688256D01*
X133155460Y-120500000D01*
X133155460Y-120499999D01*
X137844540Y-120499999D01*
X137864326Y-120688257D01*
X137922820Y-120868284D01*
X138017466Y-121032216D01*
X138144129Y-121172889D01*
X138297269Y-121284151D01*
X138470197Y-121361144D01*
X138655352Y-121400500D01*
X138655354Y-121400500D01*
X138844646Y-121400500D01*
X138844648Y-121400500D01*
X138968083Y-121374262D01*
X139029803Y-121361144D01*
X139202730Y-121284151D01*
X139249735Y-121250000D01*
X139355870Y-121172889D01*
X139386515Y-121138855D01*
X139482533Y-121032216D01*
X139577179Y-120868284D01*
X139615612Y-120750000D01*
X165094540Y-120750000D01*
X165114326Y-120938257D01*
X165172820Y-121118284D01*
X165267466Y-121282216D01*
X165394129Y-121422889D01*
X165547269Y-121534151D01*
X165720197Y-121611144D01*
X165905352Y-121650500D01*
X165905354Y-121650500D01*
X166094646Y-121650500D01*
X166094648Y-121650500D01*
X166218083Y-121624262D01*
X166279803Y-121611144D01*
X166452730Y-121534151D01*
X166546740Y-121465849D01*
X166605870Y-121422889D01*
X166632248Y-121393594D01*
X166732533Y-121282216D01*
X166827179Y-121118284D01*
X166885674Y-120938256D01*
X166905460Y-120750000D01*
X166885674Y-120561744D01*
X166827179Y-120381716D01*
X166827179Y-120381715D01*
X166732533Y-120217783D01*
X166605870Y-120077110D01*
X166452730Y-119965848D01*
X166279802Y-119888855D01*
X166094648Y-119849500D01*
X166094646Y-119849500D01*
X165905354Y-119849500D01*
X165905352Y-119849500D01*
X165720197Y-119888855D01*
X165547269Y-119965848D01*
X165394129Y-120077110D01*
X165267466Y-120217783D01*
X165172820Y-120381715D01*
X165114326Y-120561742D01*
X165094540Y-120750000D01*
X139615612Y-120750000D01*
X139635674Y-120688256D01*
X139655460Y-120500000D01*
X139635674Y-120311744D01*
X139577179Y-120131716D01*
X139577179Y-120131715D01*
X139482533Y-119967783D01*
X139355870Y-119827110D01*
X139202730Y-119715848D01*
X139029802Y-119638855D01*
X138844648Y-119599500D01*
X138844646Y-119599500D01*
X138655354Y-119599500D01*
X138655352Y-119599500D01*
X138470197Y-119638855D01*
X138297269Y-119715848D01*
X138144129Y-119827110D01*
X138017466Y-119967783D01*
X137922820Y-120131715D01*
X137864326Y-120311742D01*
X137844540Y-120499999D01*
X133155460Y-120499999D01*
X133135674Y-120311744D01*
X133077179Y-120131716D01*
X133077179Y-120131715D01*
X132982533Y-119967783D01*
X132855870Y-119827110D01*
X132702730Y-119715848D01*
X132529802Y-119638855D01*
X132344648Y-119599500D01*
X132344646Y-119599500D01*
X132155354Y-119599500D01*
X132155352Y-119599500D01*
X131970197Y-119638855D01*
X131797269Y-119715848D01*
X131644129Y-119827110D01*
X131517466Y-119967783D01*
X131422820Y-120131715D01*
X131364326Y-120311742D01*
X131344540Y-120499999D01*
X131364326Y-120688257D01*
X131422820Y-120868283D01*
X131454477Y-120923115D01*
X131470919Y-120978625D01*
X131460368Y-121035550D01*
X131425124Y-121081480D01*
X131372870Y-121106404D01*
X131220197Y-121138855D01*
X131047269Y-121215848D01*
X130894129Y-121327110D01*
X130767466Y-121467783D01*
X130672820Y-121631715D01*
X130614326Y-121811742D01*
X130607829Y-121873561D01*
X130585248Y-121932899D01*
X130536258Y-121973283D01*
X130473701Y-121984126D01*
X130280000Y-121967179D01*
X130055504Y-121986820D01*
X129990542Y-122004227D01*
X129928450Y-122004769D01*
X129873881Y-121975139D01*
X129840518Y-121922769D01*
X129827179Y-121881716D01*
X129732533Y-121717783D01*
X129605870Y-121577110D01*
X129452730Y-121465848D01*
X129279802Y-121388855D01*
X129094648Y-121349500D01*
X129094646Y-121349500D01*
X128905354Y-121349500D01*
X128905352Y-121349500D01*
X128720197Y-121388855D01*
X128547269Y-121465848D01*
X128394129Y-121577110D01*
X128267465Y-121717785D01*
X128172821Y-121881714D01*
X128161082Y-121917843D01*
X128127718Y-121970211D01*
X128073150Y-121999839D01*
X128011059Y-121999297D01*
X127964495Y-121986820D01*
X127740000Y-121967179D01*
X127515506Y-121986820D01*
X127297826Y-122045148D01*
X127093593Y-122140382D01*
X126908987Y-122269645D01*
X126749645Y-122428987D01*
X126620381Y-122613593D01*
X126582382Y-122695086D01*
X126536625Y-122747262D01*
X126470000Y-122766682D01*
X126403375Y-122747262D01*
X126357618Y-122695086D01*
X126319618Y-122613593D01*
X126243930Y-122505500D01*
X126190358Y-122428991D01*
X126031009Y-122269642D01*
X125876834Y-122161688D01*
X125846406Y-122140382D01*
X125642173Y-122045148D01*
X125642170Y-122045147D01*
X125497957Y-122006505D01*
X125424493Y-121986820D01*
X125200000Y-121967179D01*
X124975506Y-121986820D01*
X124757826Y-122045148D01*
X124553593Y-122140382D01*
X124368987Y-122269645D01*
X124209645Y-122428987D01*
X124080381Y-122613593D01*
X124042382Y-122695086D01*
X123996625Y-122747262D01*
X123930000Y-122766682D01*
X123863375Y-122747262D01*
X123817618Y-122695086D01*
X123779618Y-122613593D01*
X123703930Y-122505500D01*
X123650358Y-122428991D01*
X123491009Y-122269642D01*
X123336834Y-122161688D01*
X123306406Y-122140382D01*
X123102173Y-122045148D01*
X123102170Y-122045147D01*
X122957957Y-122006505D01*
X122884493Y-121986820D01*
X122660000Y-121967179D01*
X122435506Y-121986820D01*
X122217826Y-122045148D01*
X122013593Y-122140382D01*
X121828987Y-122269645D01*
X121669645Y-122428987D01*
X121540381Y-122613593D01*
X121502382Y-122695086D01*
X121456625Y-122747262D01*
X121390000Y-122766682D01*
X121323375Y-122747262D01*
X121277618Y-122695086D01*
X121239618Y-122613593D01*
X121163930Y-122505500D01*
X121110358Y-122428991D01*
X120951009Y-122269642D01*
X120796834Y-122161688D01*
X120766405Y-122140381D01*
X120667295Y-122094166D01*
X120622320Y-122058552D01*
X120598188Y-122006505D01*
X120600065Y-121949168D01*
X120627547Y-121898814D01*
X120732533Y-121782216D01*
X120751134Y-121749999D01*
X120827179Y-121618284D01*
X120845884Y-121560717D01*
X120885674Y-121438256D01*
X120905460Y-121250000D01*
X120885674Y-121061744D01*
X120854515Y-120965848D01*
X120827179Y-120881715D01*
X120732533Y-120717783D01*
X120605870Y-120577110D01*
X120452730Y-120465848D01*
X120279802Y-120388855D01*
X120094648Y-120349500D01*
X120094646Y-120349500D01*
X119905354Y-120349500D01*
X119905352Y-120349500D01*
X119720197Y-120388855D01*
X119547269Y-120465848D01*
X119394129Y-120577110D01*
X119267466Y-120717783D01*
X119172820Y-120881715D01*
X119114326Y-121061742D01*
X119094540Y-121249999D01*
X119114326Y-121438257D01*
X119172820Y-121618284D01*
X119267466Y-121782216D01*
X119394126Y-121922886D01*
X119394129Y-121922888D01*
X119444928Y-121959795D01*
X119482771Y-122004300D01*
X119496037Y-122061195D01*
X119481781Y-122117849D01*
X119443166Y-122161688D01*
X119288987Y-122269645D01*
X119129645Y-122428987D01*
X119000381Y-122613593D01*
X118962382Y-122695086D01*
X118916625Y-122747262D01*
X118850000Y-122766682D01*
X118783375Y-122747262D01*
X118737618Y-122695086D01*
X118699618Y-122613593D01*
X118623930Y-122505500D01*
X118570358Y-122428991D01*
X118411009Y-122269642D01*
X118256834Y-122161688D01*
X118226406Y-122140382D01*
X118022173Y-122045148D01*
X118022170Y-122045147D01*
X117877957Y-122006505D01*
X117804493Y-121986820D01*
X117580000Y-121967179D01*
X117355506Y-121986820D01*
X117137826Y-122045148D01*
X116933593Y-122140382D01*
X116748987Y-122269645D01*
X116589645Y-122428987D01*
X116460381Y-122613593D01*
X116422382Y-122695086D01*
X116376625Y-122747262D01*
X116310000Y-122766682D01*
X116243375Y-122747262D01*
X116197618Y-122695086D01*
X116159618Y-122613593D01*
X116083930Y-122505500D01*
X116030358Y-122428991D01*
X115871009Y-122269642D01*
X115716834Y-122161688D01*
X115686406Y-122140382D01*
X115482173Y-122045148D01*
X115482170Y-122045147D01*
X115337957Y-122006505D01*
X115264493Y-121986820D01*
X115040000Y-121967179D01*
X114815506Y-121986820D01*
X114597826Y-122045148D01*
X114393593Y-122140382D01*
X114208987Y-122269645D01*
X114049645Y-122428987D01*
X113920381Y-122613593D01*
X113882382Y-122695086D01*
X113836625Y-122747262D01*
X113770000Y-122766682D01*
X113703375Y-122747262D01*
X113657618Y-122695086D01*
X113619618Y-122613593D01*
X113543930Y-122505500D01*
X113490358Y-122428991D01*
X113331009Y-122269642D01*
X113176834Y-122161688D01*
X113146406Y-122140382D01*
X112942173Y-122045148D01*
X112942170Y-122045147D01*
X112797957Y-122006505D01*
X112724493Y-121986820D01*
X112500000Y-121967179D01*
X112275506Y-121986820D01*
X112057826Y-122045148D01*
X111853593Y-122140382D01*
X111668987Y-122269645D01*
X111509645Y-122428987D01*
X111380381Y-122613593D01*
X111342382Y-122695086D01*
X111296625Y-122747262D01*
X111230000Y-122766682D01*
X111163375Y-122747262D01*
X111117618Y-122695086D01*
X111079618Y-122613593D01*
X111003930Y-122505500D01*
X110950358Y-122428991D01*
X110791009Y-122269642D01*
X110636834Y-122161688D01*
X110606406Y-122140382D01*
X110402173Y-122045148D01*
X110402170Y-122045147D01*
X110257957Y-122006505D01*
X110184493Y-121986820D01*
X109960000Y-121967179D01*
X109735506Y-121986820D01*
X109517826Y-122045148D01*
X109313593Y-122140382D01*
X109128987Y-122269645D01*
X108969645Y-122428987D01*
X108840382Y-122613593D01*
X108745148Y-122817826D01*
X108686820Y-123035506D01*
X108667179Y-123260000D01*
X106172820Y-123260000D01*
X106153179Y-123035504D01*
X106094853Y-122817830D01*
X106077407Y-122780418D01*
X105999617Y-122613593D01*
X105968279Y-122568838D01*
X105870358Y-122428991D01*
X105711009Y-122269642D01*
X105556834Y-122161688D01*
X105526406Y-122140382D01*
X105452012Y-122105692D01*
X105404609Y-122066894D01*
X105381563Y-122010139D01*
X105388498Y-121949276D01*
X105423721Y-121899160D01*
X105478633Y-121872020D01*
X105529803Y-121861144D01*
X105702730Y-121784151D01*
X105749735Y-121750000D01*
X105855870Y-121672889D01*
X105892943Y-121631716D01*
X105982533Y-121532216D01*
X106077179Y-121368284D01*
X106135674Y-121188256D01*
X106155460Y-121000000D01*
X106135674Y-120811744D01*
X106105144Y-120717783D01*
X106077179Y-120631715D01*
X105982533Y-120467783D01*
X105855870Y-120327110D01*
X105702730Y-120215848D01*
X105529802Y-120138855D01*
X105344648Y-120099500D01*
X105344646Y-120099500D01*
X105155354Y-120099500D01*
X105155352Y-120099500D01*
X104970197Y-120138855D01*
X104797269Y-120215848D01*
X104644129Y-120327110D01*
X104517466Y-120467783D01*
X104422820Y-120631715D01*
X104364326Y-120811742D01*
X104344540Y-120999999D01*
X104364326Y-121188257D01*
X104422820Y-121368284D01*
X104517466Y-121532216D01*
X104644129Y-121672889D01*
X104762689Y-121759027D01*
X104801064Y-121804598D01*
X104813756Y-121862806D01*
X104797835Y-121920216D01*
X104756977Y-121963574D01*
X104700614Y-121982873D01*
X104655506Y-121986820D01*
X104437826Y-122045148D01*
X104233593Y-122140382D01*
X104048987Y-122269645D01*
X103889645Y-122428987D01*
X103760382Y-122613593D01*
X103665148Y-122817826D01*
X103606820Y-123035506D01*
X103587179Y-123260000D01*
X101000500Y-123260000D01*
X101000500Y-118500000D01*
X117094540Y-118500000D01*
X117114326Y-118688257D01*
X117172820Y-118868284D01*
X117267466Y-119032216D01*
X117394129Y-119172889D01*
X117547269Y-119284151D01*
X117720197Y-119361144D01*
X117905352Y-119400500D01*
X117905354Y-119400500D01*
X118094646Y-119400500D01*
X118094648Y-119400500D01*
X118218083Y-119374262D01*
X118279803Y-119361144D01*
X118452730Y-119284151D01*
X118452730Y-119284150D01*
X118605870Y-119172889D01*
X118732533Y-119032216D01*
X118751133Y-119000000D01*
X163094540Y-119000000D01*
X163114326Y-119188257D01*
X163172820Y-119368284D01*
X163267466Y-119532216D01*
X163394129Y-119672889D01*
X163547269Y-119784151D01*
X163720197Y-119861144D01*
X163905352Y-119900500D01*
X163905354Y-119900500D01*
X164094646Y-119900500D01*
X164094648Y-119900500D01*
X164218084Y-119874262D01*
X164279803Y-119861144D01*
X164452730Y-119784151D01*
X164546740Y-119715849D01*
X164605870Y-119672889D01*
X164636515Y-119638855D01*
X164732533Y-119532216D01*
X164827179Y-119368284D01*
X164885674Y-119188256D01*
X164905460Y-119000000D01*
X175094540Y-119000000D01*
X175114326Y-119188257D01*
X175172820Y-119368284D01*
X175267466Y-119532216D01*
X175394129Y-119672889D01*
X175547269Y-119784151D01*
X175720197Y-119861144D01*
X175905352Y-119900500D01*
X175905354Y-119900500D01*
X176094646Y-119900500D01*
X176094648Y-119900500D01*
X176218084Y-119874262D01*
X176279803Y-119861144D01*
X176452730Y-119784151D01*
X176546740Y-119715849D01*
X176605870Y-119672889D01*
X176636515Y-119638855D01*
X176732533Y-119532216D01*
X176827179Y-119368284D01*
X176885674Y-119188256D01*
X176905460Y-119000000D01*
X186094540Y-119000000D01*
X186114326Y-119188257D01*
X186172820Y-119368284D01*
X186267466Y-119532216D01*
X186394129Y-119672889D01*
X186547269Y-119784151D01*
X186720197Y-119861144D01*
X186905352Y-119900500D01*
X186905354Y-119900500D01*
X187094646Y-119900500D01*
X187094648Y-119900500D01*
X187218084Y-119874262D01*
X187279803Y-119861144D01*
X187452730Y-119784151D01*
X187546740Y-119715849D01*
X187605870Y-119672889D01*
X187636515Y-119638855D01*
X187732533Y-119532216D01*
X187827179Y-119368284D01*
X187885674Y-119188256D01*
X187905460Y-119000000D01*
X198094540Y-119000000D01*
X198114326Y-119188257D01*
X198172820Y-119368284D01*
X198267466Y-119532216D01*
X198394129Y-119672889D01*
X198547269Y-119784151D01*
X198720197Y-119861144D01*
X198905352Y-119900500D01*
X198905354Y-119900500D01*
X199094646Y-119900500D01*
X199094648Y-119900500D01*
X199218084Y-119874262D01*
X199279803Y-119861144D01*
X199452730Y-119784151D01*
X199546740Y-119715849D01*
X199605870Y-119672889D01*
X199636515Y-119638855D01*
X199732533Y-119532216D01*
X199827179Y-119368284D01*
X199885674Y-119188256D01*
X199905460Y-119000000D01*
X199885674Y-118811744D01*
X199855332Y-118718363D01*
X199827179Y-118631715D01*
X199732533Y-118467783D01*
X199605870Y-118327110D01*
X199452730Y-118215848D01*
X199279802Y-118138855D01*
X199094648Y-118099500D01*
X199094646Y-118099500D01*
X198905354Y-118099500D01*
X198905352Y-118099500D01*
X198720197Y-118138855D01*
X198547269Y-118215848D01*
X198394129Y-118327110D01*
X198267466Y-118467783D01*
X198172820Y-118631715D01*
X198114326Y-118811742D01*
X198094540Y-119000000D01*
X187905460Y-119000000D01*
X187885674Y-118811744D01*
X187855332Y-118718363D01*
X187827179Y-118631715D01*
X187732533Y-118467783D01*
X187605870Y-118327110D01*
X187452730Y-118215848D01*
X187279802Y-118138855D01*
X187094648Y-118099500D01*
X187094646Y-118099500D01*
X186905354Y-118099500D01*
X186905352Y-118099500D01*
X186720197Y-118138855D01*
X186547269Y-118215848D01*
X186394129Y-118327110D01*
X186267466Y-118467783D01*
X186172820Y-118631715D01*
X186114326Y-118811742D01*
X186094540Y-119000000D01*
X176905460Y-119000000D01*
X176885674Y-118811744D01*
X176855332Y-118718363D01*
X176827179Y-118631715D01*
X176732533Y-118467783D01*
X176605870Y-118327110D01*
X176452730Y-118215848D01*
X176279802Y-118138855D01*
X176094648Y-118099500D01*
X176094646Y-118099500D01*
X175905354Y-118099500D01*
X175905352Y-118099500D01*
X175720197Y-118138855D01*
X175547269Y-118215848D01*
X175394129Y-118327110D01*
X175267466Y-118467783D01*
X175172820Y-118631715D01*
X175114326Y-118811742D01*
X175094540Y-119000000D01*
X164905460Y-119000000D01*
X164885674Y-118811744D01*
X164855332Y-118718363D01*
X164827179Y-118631715D01*
X164732533Y-118467783D01*
X164605870Y-118327110D01*
X164452730Y-118215848D01*
X164279802Y-118138855D01*
X164094648Y-118099500D01*
X164094646Y-118099500D01*
X163905354Y-118099500D01*
X163905352Y-118099500D01*
X163720197Y-118138855D01*
X163547269Y-118215848D01*
X163394129Y-118327110D01*
X163267466Y-118467783D01*
X163172820Y-118631715D01*
X163114326Y-118811742D01*
X163094540Y-119000000D01*
X118751133Y-119000000D01*
X118827179Y-118868284D01*
X118845551Y-118811742D01*
X118885674Y-118688256D01*
X118905460Y-118500000D01*
X118885674Y-118311744D01*
X118854515Y-118215848D01*
X118827179Y-118131715D01*
X118732533Y-117967783D01*
X118605870Y-117827110D01*
X118452730Y-117715848D01*
X118279802Y-117638855D01*
X118094648Y-117599500D01*
X118094646Y-117599500D01*
X117905354Y-117599500D01*
X117905352Y-117599500D01*
X117720197Y-117638855D01*
X117547269Y-117715848D01*
X117394129Y-117827110D01*
X117267466Y-117967783D01*
X117172820Y-118131715D01*
X117114326Y-118311742D01*
X117094540Y-118500000D01*
X101000500Y-118500000D01*
X101000500Y-116749999D01*
X131844540Y-116749999D01*
X131864326Y-116938257D01*
X131922820Y-117118284D01*
X132017466Y-117282216D01*
X132144129Y-117422889D01*
X132297268Y-117534150D01*
X132297269Y-117534150D01*
X132297270Y-117534151D01*
X132332650Y-117549903D01*
X132379928Y-117586841D01*
X132404331Y-117641650D01*
X132400146Y-117701501D01*
X132364326Y-117811742D01*
X132344540Y-117999999D01*
X132364326Y-118188257D01*
X132422820Y-118368284D01*
X132517466Y-118532216D01*
X132644129Y-118672889D01*
X132797269Y-118784151D01*
X132970197Y-118861144D01*
X133155352Y-118900500D01*
X133155354Y-118900500D01*
X133344646Y-118900500D01*
X133344648Y-118900500D01*
X133468084Y-118874262D01*
X133529803Y-118861144D01*
X133702730Y-118784151D01*
X133702730Y-118784150D01*
X133855870Y-118672889D01*
X133892943Y-118631716D01*
X133982533Y-118532216D01*
X134077179Y-118368284D01*
X134135674Y-118188256D01*
X134155460Y-118000000D01*
X134135674Y-117811744D01*
X134077179Y-117631716D01*
X134077179Y-117631715D01*
X133982533Y-117467783D01*
X133855870Y-117327110D01*
X133702732Y-117215849D01*
X133667349Y-117200096D01*
X133620070Y-117163158D01*
X133595668Y-117108348D01*
X133599852Y-117048502D01*
X133635674Y-116938256D01*
X133655460Y-116750000D01*
X133635674Y-116561744D01*
X133591389Y-116425450D01*
X133577179Y-116381715D01*
X133482533Y-116217783D01*
X133355870Y-116077110D01*
X133202730Y-115965848D01*
X133032371Y-115889999D01*
X140382676Y-115889999D01*
X140401929Y-116110065D01*
X140459106Y-116323451D01*
X140511668Y-116436171D01*
X140552466Y-116523662D01*
X140679174Y-116704620D01*
X140835380Y-116860826D01*
X141016338Y-116987534D01*
X141216550Y-117080894D01*
X141429932Y-117138070D01*
X141650000Y-117157323D01*
X141870068Y-117138070D01*
X142083450Y-117080894D01*
X142283662Y-116987534D01*
X142464620Y-116860826D01*
X142620826Y-116704620D01*
X142747534Y-116523662D01*
X142807617Y-116394811D01*
X142853375Y-116342635D01*
X142920000Y-116323216D01*
X142986625Y-116342635D01*
X143032382Y-116394811D01*
X143092466Y-116523662D01*
X143219174Y-116704620D01*
X143375380Y-116860826D01*
X143556338Y-116987534D01*
X143756550Y-117080894D01*
X143969932Y-117138070D01*
X144190000Y-117157323D01*
X144410068Y-117138070D01*
X144623450Y-117080894D01*
X144823662Y-116987534D01*
X145004620Y-116860826D01*
X145160826Y-116704620D01*
X145287534Y-116523662D01*
X145380894Y-116323450D01*
X145438070Y-116110068D01*
X145457323Y-115890000D01*
X145457323Y-115889999D01*
X148002676Y-115889999D01*
X148021929Y-116110065D01*
X148079106Y-116323451D01*
X148131668Y-116436171D01*
X148172466Y-116523662D01*
X148299174Y-116704620D01*
X148455380Y-116860826D01*
X148636338Y-116987534D01*
X148836550Y-117080894D01*
X149049932Y-117138070D01*
X149270000Y-117157323D01*
X149490068Y-117138070D01*
X149703450Y-117080894D01*
X149903662Y-116987534D01*
X150084620Y-116860826D01*
X150240826Y-116704620D01*
X150367534Y-116523662D01*
X150427617Y-116394811D01*
X150473375Y-116342635D01*
X150540000Y-116323216D01*
X150606625Y-116342635D01*
X150652382Y-116394811D01*
X150712466Y-116523662D01*
X150839174Y-116704620D01*
X150995380Y-116860826D01*
X151176338Y-116987534D01*
X151376550Y-117080894D01*
X151589932Y-117138070D01*
X151810000Y-117157323D01*
X152030068Y-117138070D01*
X152243450Y-117080894D01*
X152443662Y-116987534D01*
X152624620Y-116860826D01*
X152780826Y-116704620D01*
X152907534Y-116523662D01*
X152967617Y-116394811D01*
X153013375Y-116342635D01*
X153080000Y-116323216D01*
X153146625Y-116342635D01*
X153192382Y-116394811D01*
X153252466Y-116523662D01*
X153379174Y-116704620D01*
X153535380Y-116860826D01*
X153716338Y-116987534D01*
X153916550Y-117080894D01*
X154129932Y-117138070D01*
X154350000Y-117157323D01*
X154570068Y-117138070D01*
X154783450Y-117080894D01*
X154983662Y-116987534D01*
X155164620Y-116860826D01*
X155320826Y-116704620D01*
X155447534Y-116523662D01*
X155540894Y-116323450D01*
X155598070Y-116110068D01*
X155617323Y-115890000D01*
X155598070Y-115669932D01*
X155540894Y-115456550D01*
X155447534Y-115256339D01*
X155320826Y-115075380D01*
X155164620Y-114919174D01*
X154983662Y-114792466D01*
X154892593Y-114750000D01*
X154783451Y-114699106D01*
X154570065Y-114641929D01*
X154350000Y-114622676D01*
X154129934Y-114641929D01*
X153916548Y-114699106D01*
X153716338Y-114792466D01*
X153535379Y-114919174D01*
X153379174Y-115075379D01*
X153252466Y-115256338D01*
X153192382Y-115385189D01*
X153146625Y-115437365D01*
X153080000Y-115456784D01*
X153013375Y-115437365D01*
X152967618Y-115385189D01*
X152950744Y-115349004D01*
X152907534Y-115256339D01*
X152780826Y-115075380D01*
X152624620Y-114919174D01*
X152443662Y-114792466D01*
X152352593Y-114750000D01*
X152243451Y-114699106D01*
X152030065Y-114641929D01*
X151810000Y-114622676D01*
X151589934Y-114641929D01*
X151376548Y-114699106D01*
X151176338Y-114792466D01*
X150995379Y-114919174D01*
X150839174Y-115075379D01*
X150712466Y-115256338D01*
X150652382Y-115385189D01*
X150606625Y-115437365D01*
X150540000Y-115456784D01*
X150473375Y-115437365D01*
X150427618Y-115385189D01*
X150410744Y-115349004D01*
X150367534Y-115256339D01*
X150240826Y-115075380D01*
X150084620Y-114919174D01*
X149903662Y-114792466D01*
X149812593Y-114750000D01*
X149703451Y-114699106D01*
X149490065Y-114641929D01*
X149270000Y-114622676D01*
X149049934Y-114641929D01*
X148836548Y-114699106D01*
X148636338Y-114792466D01*
X148455379Y-114919174D01*
X148299174Y-115075379D01*
X148172466Y-115256338D01*
X148079106Y-115456548D01*
X148021929Y-115669934D01*
X148002676Y-115889999D01*
X145457323Y-115889999D01*
X145438070Y-115669932D01*
X145380894Y-115456550D01*
X145287534Y-115256339D01*
X145160826Y-115075380D01*
X145004620Y-114919174D01*
X144823662Y-114792466D01*
X144732593Y-114750000D01*
X144623451Y-114699106D01*
X144410065Y-114641929D01*
X144190000Y-114622676D01*
X143969934Y-114641929D01*
X143756548Y-114699106D01*
X143556338Y-114792466D01*
X143375379Y-114919174D01*
X143219174Y-115075379D01*
X143092466Y-115256338D01*
X143032382Y-115385189D01*
X142986625Y-115437365D01*
X142920000Y-115456784D01*
X142853375Y-115437365D01*
X142807618Y-115385189D01*
X142790744Y-115349004D01*
X142747534Y-115256339D01*
X142620826Y-115075380D01*
X142464620Y-114919174D01*
X142283662Y-114792466D01*
X142192593Y-114750000D01*
X142083451Y-114699106D01*
X141870065Y-114641929D01*
X141650000Y-114622676D01*
X141429934Y-114641929D01*
X141216548Y-114699106D01*
X141016338Y-114792466D01*
X140835379Y-114919174D01*
X140679174Y-115075379D01*
X140552466Y-115256338D01*
X140459106Y-115456548D01*
X140401929Y-115669934D01*
X140382676Y-115889999D01*
X133032371Y-115889999D01*
X133029802Y-115888855D01*
X132844648Y-115849500D01*
X132844646Y-115849500D01*
X132655354Y-115849500D01*
X132655352Y-115849500D01*
X132470197Y-115888855D01*
X132297269Y-115965848D01*
X132144129Y-116077110D01*
X132017466Y-116217783D01*
X131922820Y-116381715D01*
X131864326Y-116561742D01*
X131844540Y-116749999D01*
X101000500Y-116749999D01*
X101000500Y-115650500D01*
X124188352Y-115650500D01*
X124208138Y-115838757D01*
X124266632Y-116018784D01*
X124361278Y-116182716D01*
X124487941Y-116323389D01*
X124641081Y-116434651D01*
X124814009Y-116511644D01*
X124999164Y-116551000D01*
X124999166Y-116551000D01*
X125188458Y-116551000D01*
X125188460Y-116551000D01*
X125373612Y-116511645D01*
X125373613Y-116511644D01*
X125373615Y-116511644D01*
X125543130Y-116436169D01*
X125593562Y-116425450D01*
X125643998Y-116436171D01*
X125813512Y-116511644D01*
X125998667Y-116551000D01*
X125998669Y-116551000D01*
X126187961Y-116551000D01*
X126187963Y-116551000D01*
X126316577Y-116523662D01*
X126373118Y-116511644D01*
X126546045Y-116434651D01*
X126618904Y-116381716D01*
X126699185Y-116323389D01*
X126825848Y-116182716D01*
X126920494Y-116018784D01*
X126937694Y-115965848D01*
X126978989Y-115838756D01*
X126998775Y-115650500D01*
X126978989Y-115462244D01*
X126920494Y-115282216D01*
X126920494Y-115282215D01*
X126825848Y-115118283D01*
X126699185Y-114977610D01*
X126546045Y-114866348D01*
X126373117Y-114789355D01*
X126187963Y-114750000D01*
X126187961Y-114750000D01*
X125998669Y-114750000D01*
X125998667Y-114750000D01*
X125813512Y-114789355D01*
X125643999Y-114864828D01*
X125593563Y-114875549D01*
X125543127Y-114864828D01*
X125373614Y-114789355D01*
X125188460Y-114750000D01*
X125188458Y-114750000D01*
X124999166Y-114750000D01*
X124999164Y-114750000D01*
X124814009Y-114789355D01*
X124641081Y-114866348D01*
X124487941Y-114977610D01*
X124361278Y-115118283D01*
X124266632Y-115282215D01*
X124208138Y-115462242D01*
X124188352Y-115650500D01*
X101000500Y-115650500D01*
X101000500Y-111763534D01*
X119949543Y-111763534D01*
X119969329Y-111951791D01*
X120027823Y-112131818D01*
X120122469Y-112295750D01*
X120249132Y-112436423D01*
X120402272Y-112547685D01*
X120575200Y-112624678D01*
X120760355Y-112664034D01*
X120760357Y-112664034D01*
X120949649Y-112664034D01*
X120949651Y-112664034D01*
X121073087Y-112637796D01*
X121134806Y-112624678D01*
X121307733Y-112547685D01*
X121460874Y-112436422D01*
X121587536Y-112295750D01*
X121682182Y-112131818D01*
X121740677Y-111951790D01*
X121741267Y-111946172D01*
X121764268Y-111886247D01*
X121814149Y-111845851D01*
X121952730Y-111784151D01*
X121952730Y-111784150D01*
X121952732Y-111784150D01*
X121999736Y-111750000D01*
X123525352Y-111750000D01*
X123545138Y-111938257D01*
X123603632Y-112118284D01*
X123698278Y-112282216D01*
X123824941Y-112422889D01*
X123978081Y-112534151D01*
X124151009Y-112611144D01*
X124336164Y-112650500D01*
X124336166Y-112650500D01*
X124525458Y-112650500D01*
X124525460Y-112650500D01*
X124650136Y-112623999D01*
X124710615Y-112611144D01*
X124883542Y-112534151D01*
X125018055Y-112436422D01*
X125036682Y-112422889D01*
X125163345Y-112282216D01*
X125226519Y-112172796D01*
X125271906Y-112127409D01*
X125333906Y-112110796D01*
X125395906Y-112127409D01*
X125441293Y-112172796D01*
X125504466Y-112282216D01*
X125631129Y-112422889D01*
X125784269Y-112534151D01*
X125957197Y-112611144D01*
X126142352Y-112650500D01*
X126142354Y-112650500D01*
X126331646Y-112650500D01*
X126331648Y-112650500D01*
X126456324Y-112623999D01*
X126516803Y-112611144D01*
X126689730Y-112534151D01*
X126824243Y-112436422D01*
X126842870Y-112422889D01*
X126969533Y-112282216D01*
X127064179Y-112118284D01*
X127076996Y-112078837D01*
X127122674Y-111938256D01*
X127142460Y-111750000D01*
X127122674Y-111561744D01*
X127077557Y-111422888D01*
X127064179Y-111381715D01*
X126990751Y-111254535D01*
X126974165Y-111195132D01*
X126988249Y-111135086D01*
X127029517Y-111089253D01*
X127087762Y-111068970D01*
X127148573Y-111079255D01*
X127220199Y-111111145D01*
X127405352Y-111150500D01*
X127405354Y-111150500D01*
X127594646Y-111150500D01*
X127594648Y-111150500D01*
X127718083Y-111124262D01*
X127779803Y-111111144D01*
X127952730Y-111034151D01*
X128028112Y-110979383D01*
X128105870Y-110922889D01*
X128110559Y-110917682D01*
X128232533Y-110782216D01*
X128327179Y-110618284D01*
X128385674Y-110438256D01*
X128405460Y-110250000D01*
X128385674Y-110061744D01*
X128365612Y-109999999D01*
X130094540Y-109999999D01*
X130114326Y-110188257D01*
X130172820Y-110368284D01*
X130267466Y-110532216D01*
X130394129Y-110672889D01*
X130547269Y-110784151D01*
X130720197Y-110861144D01*
X130905352Y-110900500D01*
X130905354Y-110900500D01*
X131094646Y-110900500D01*
X131094648Y-110900500D01*
X131218083Y-110874262D01*
X131279803Y-110861144D01*
X131452730Y-110784151D01*
X131499735Y-110750000D01*
X131605870Y-110672889D01*
X131642943Y-110631716D01*
X131732533Y-110532216D01*
X131827179Y-110368284D01*
X131885674Y-110188256D01*
X131905460Y-110000000D01*
X131885674Y-109811744D01*
X131827179Y-109631716D01*
X131827179Y-109631715D01*
X131732533Y-109467783D01*
X131605870Y-109327110D01*
X131499737Y-109250000D01*
X175844540Y-109250000D01*
X175864326Y-109438257D01*
X175922820Y-109618284D01*
X176017466Y-109782216D01*
X176144129Y-109922889D01*
X176297269Y-110034151D01*
X176470197Y-110111144D01*
X176655352Y-110150500D01*
X176655354Y-110150500D01*
X176844646Y-110150500D01*
X176844648Y-110150500D01*
X176979783Y-110121776D01*
X177029803Y-110111144D01*
X177202730Y-110034151D01*
X177249735Y-110000000D01*
X177355870Y-109922889D01*
X177386515Y-109888855D01*
X177482533Y-109782216D01*
X177577179Y-109618284D01*
X177635674Y-109438256D01*
X177655460Y-109250000D01*
X177635674Y-109061744D01*
X177590557Y-108922888D01*
X177577179Y-108881715D01*
X177482533Y-108717783D01*
X177355870Y-108577110D01*
X177202730Y-108465848D01*
X177029802Y-108388855D01*
X176844648Y-108349500D01*
X176844646Y-108349500D01*
X176655354Y-108349500D01*
X176655352Y-108349500D01*
X176470197Y-108388855D01*
X176297269Y-108465848D01*
X176144129Y-108577110D01*
X176017466Y-108717783D01*
X175922820Y-108881715D01*
X175864326Y-109061742D01*
X175844540Y-109250000D01*
X131499737Y-109250000D01*
X131452730Y-109215848D01*
X131279802Y-109138855D01*
X131094648Y-109099500D01*
X131094646Y-109099500D01*
X130905354Y-109099500D01*
X130905352Y-109099500D01*
X130720197Y-109138855D01*
X130547269Y-109215848D01*
X130394129Y-109327110D01*
X130267466Y-109467783D01*
X130172820Y-109631715D01*
X130114326Y-109811742D01*
X130094540Y-109999999D01*
X128365612Y-109999999D01*
X128337999Y-109915015D01*
X128327179Y-109881715D01*
X128232533Y-109717783D01*
X128105870Y-109577110D01*
X127952730Y-109465848D01*
X127779802Y-109388855D01*
X127594648Y-109349500D01*
X127594646Y-109349500D01*
X127405354Y-109349500D01*
X127405351Y-109349500D01*
X127215992Y-109389748D01*
X127164431Y-109389748D01*
X127117329Y-109368778D01*
X127114864Y-109366986D01*
X127077258Y-109322949D01*
X127063751Y-109266633D01*
X127077291Y-109210326D01*
X127099335Y-109184542D01*
X127097150Y-109182574D01*
X127232533Y-109032216D01*
X127327179Y-108868284D01*
X127345551Y-108811742D01*
X127385674Y-108688256D01*
X127405460Y-108500000D01*
X127385674Y-108311744D01*
X127365612Y-108250000D01*
X170094540Y-108250000D01*
X170114326Y-108438257D01*
X170172820Y-108618284D01*
X170267466Y-108782216D01*
X170394129Y-108922889D01*
X170547269Y-109034151D01*
X170720197Y-109111144D01*
X170905352Y-109150500D01*
X170905354Y-109150500D01*
X171094646Y-109150500D01*
X171094648Y-109150500D01*
X171218083Y-109124262D01*
X171279803Y-109111144D01*
X171452730Y-109034151D01*
X171605871Y-108922888D01*
X171732533Y-108782216D01*
X171827179Y-108618284D01*
X171882069Y-108449348D01*
X171915116Y-108397276D01*
X171969162Y-108367564D01*
X172030838Y-108367564D01*
X172084884Y-108397276D01*
X172117931Y-108449350D01*
X172172820Y-108618284D01*
X172267466Y-108782216D01*
X172394129Y-108922889D01*
X172547269Y-109034151D01*
X172720197Y-109111144D01*
X172905352Y-109150500D01*
X172905354Y-109150500D01*
X173094646Y-109150500D01*
X173094648Y-109150500D01*
X173218083Y-109124262D01*
X173279803Y-109111144D01*
X173452730Y-109034151D01*
X173605871Y-108922888D01*
X173732533Y-108782216D01*
X173827179Y-108618284D01*
X173885674Y-108438256D01*
X173905460Y-108250000D01*
X173885674Y-108061744D01*
X173865612Y-108000000D01*
X186344540Y-108000000D01*
X186364326Y-108188257D01*
X186422820Y-108368284D01*
X186517466Y-108532216D01*
X186644129Y-108672889D01*
X186797269Y-108784151D01*
X186970197Y-108861144D01*
X187155352Y-108900500D01*
X187155354Y-108900500D01*
X187344646Y-108900500D01*
X187344648Y-108900500D01*
X187468084Y-108874262D01*
X187529803Y-108861144D01*
X187702730Y-108784151D01*
X187794078Y-108717783D01*
X187855870Y-108672889D01*
X187892943Y-108631716D01*
X187982533Y-108532216D01*
X188077179Y-108368284D01*
X188132069Y-108199348D01*
X188165116Y-108147276D01*
X188219162Y-108117564D01*
X188280838Y-108117564D01*
X188334884Y-108147276D01*
X188367931Y-108199350D01*
X188422820Y-108368284D01*
X188517466Y-108532216D01*
X188644129Y-108672889D01*
X188797269Y-108784151D01*
X188970197Y-108861144D01*
X189155352Y-108900500D01*
X189155354Y-108900500D01*
X189344646Y-108900500D01*
X189344648Y-108900500D01*
X189468084Y-108874262D01*
X189529803Y-108861144D01*
X189702730Y-108784151D01*
X189794078Y-108717783D01*
X189855870Y-108672889D01*
X189892943Y-108631716D01*
X189982533Y-108532216D01*
X190077179Y-108368284D01*
X190135674Y-108188256D01*
X190155460Y-108000000D01*
X190135674Y-107811744D01*
X190077179Y-107631716D01*
X190077179Y-107631715D01*
X189982533Y-107467783D01*
X189855870Y-107327110D01*
X189702730Y-107215848D01*
X189529802Y-107138855D01*
X189344648Y-107099500D01*
X189344646Y-107099500D01*
X189155354Y-107099500D01*
X189155352Y-107099500D01*
X188970197Y-107138855D01*
X188797269Y-107215848D01*
X188644129Y-107327110D01*
X188517466Y-107467783D01*
X188422820Y-107631715D01*
X188367931Y-107800649D01*
X188334884Y-107852723D01*
X188280838Y-107882435D01*
X188219162Y-107882435D01*
X188165116Y-107852723D01*
X188132069Y-107800649D01*
X188077179Y-107631715D01*
X187982533Y-107467783D01*
X187855870Y-107327110D01*
X187702730Y-107215848D01*
X187529802Y-107138855D01*
X187344648Y-107099500D01*
X187344646Y-107099500D01*
X187155354Y-107099500D01*
X187155352Y-107099500D01*
X186970197Y-107138855D01*
X186797269Y-107215848D01*
X186644129Y-107327110D01*
X186517466Y-107467783D01*
X186422820Y-107631715D01*
X186364326Y-107811742D01*
X186344540Y-108000000D01*
X173865612Y-108000000D01*
X173827179Y-107881716D01*
X173827179Y-107881715D01*
X173732533Y-107717783D01*
X173605870Y-107577110D01*
X173452730Y-107465848D01*
X173279802Y-107388855D01*
X173094648Y-107349500D01*
X173094646Y-107349500D01*
X172905354Y-107349500D01*
X172905352Y-107349500D01*
X172720197Y-107388855D01*
X172547269Y-107465848D01*
X172394129Y-107577110D01*
X172267466Y-107717783D01*
X172172820Y-107881715D01*
X172117931Y-108050649D01*
X172084884Y-108102723D01*
X172030838Y-108132435D01*
X171969162Y-108132435D01*
X171915116Y-108102723D01*
X171882069Y-108050649D01*
X171827179Y-107881715D01*
X171732533Y-107717783D01*
X171605870Y-107577110D01*
X171452730Y-107465848D01*
X171279802Y-107388855D01*
X171094648Y-107349500D01*
X171094646Y-107349500D01*
X170905354Y-107349500D01*
X170905352Y-107349500D01*
X170720197Y-107388855D01*
X170547269Y-107465848D01*
X170394129Y-107577110D01*
X170267466Y-107717783D01*
X170172820Y-107881715D01*
X170114326Y-108061742D01*
X170094540Y-108250000D01*
X127365612Y-108250000D01*
X127349155Y-108199350D01*
X127327179Y-108131715D01*
X127232533Y-107967783D01*
X127105870Y-107827110D01*
X126952730Y-107715848D01*
X126779802Y-107638855D01*
X126594648Y-107599500D01*
X126594646Y-107599500D01*
X126405354Y-107599500D01*
X126405352Y-107599500D01*
X126220197Y-107638855D01*
X126047269Y-107715848D01*
X125894129Y-107827110D01*
X125767466Y-107967783D01*
X125672820Y-108131715D01*
X125614326Y-108311742D01*
X125594540Y-108500000D01*
X125614326Y-108688257D01*
X125672820Y-108868284D01*
X125767466Y-109032216D01*
X125894129Y-109172889D01*
X125906133Y-109181610D01*
X125943727Y-109225621D01*
X125957248Y-109281901D01*
X125943751Y-109338186D01*
X125921669Y-109364060D01*
X125923851Y-109366025D01*
X125788467Y-109516382D01*
X125693821Y-109680314D01*
X125635327Y-109860341D01*
X125615541Y-110048599D01*
X125635327Y-110236856D01*
X125693821Y-110416883D01*
X125788467Y-110580815D01*
X125920541Y-110727497D01*
X125948166Y-110778375D01*
X125949681Y-110836250D01*
X125924757Y-110888504D01*
X125878827Y-110923748D01*
X125784269Y-110965848D01*
X125631129Y-111077110D01*
X125504466Y-111217784D01*
X125441293Y-111327203D01*
X125395906Y-111372590D01*
X125333906Y-111389203D01*
X125271906Y-111372590D01*
X125226519Y-111327203D01*
X125163345Y-111217784D01*
X125036682Y-111077110D01*
X124883542Y-110965848D01*
X124710614Y-110888855D01*
X124525460Y-110849500D01*
X124525458Y-110849500D01*
X124336166Y-110849500D01*
X124336164Y-110849500D01*
X124151009Y-110888855D01*
X123978081Y-110965848D01*
X123824941Y-111077110D01*
X123698278Y-111217783D01*
X123603632Y-111381715D01*
X123545138Y-111561742D01*
X123525352Y-111750000D01*
X121999736Y-111750000D01*
X122105870Y-111672889D01*
X122232533Y-111532216D01*
X122327179Y-111368284D01*
X122355144Y-111282216D01*
X122385674Y-111188256D01*
X122405460Y-111000000D01*
X122385674Y-110811744D01*
X122339767Y-110670457D01*
X122327179Y-110631715D01*
X122232533Y-110467783D01*
X122105870Y-110327110D01*
X121952730Y-110215848D01*
X121779802Y-110138855D01*
X121594648Y-110099500D01*
X121594646Y-110099500D01*
X121405354Y-110099500D01*
X121405352Y-110099500D01*
X121220197Y-110138855D01*
X121047269Y-110215848D01*
X120894129Y-110327110D01*
X120767466Y-110467783D01*
X120672820Y-110631715D01*
X120614325Y-110811746D01*
X120613734Y-110817371D01*
X120590731Y-110877290D01*
X120540850Y-110917682D01*
X120402272Y-110979382D01*
X120249132Y-111090644D01*
X120122469Y-111231317D01*
X120027823Y-111395249D01*
X119969329Y-111575276D01*
X119949543Y-111763534D01*
X101000500Y-111763534D01*
X101000500Y-110000000D01*
X106094540Y-110000000D01*
X106114326Y-110188257D01*
X106172820Y-110368284D01*
X106267466Y-110532216D01*
X106394129Y-110672889D01*
X106547269Y-110784151D01*
X106720197Y-110861144D01*
X106905352Y-110900500D01*
X106905354Y-110900500D01*
X107094646Y-110900500D01*
X107094648Y-110900500D01*
X107218083Y-110874262D01*
X107279803Y-110861144D01*
X107452730Y-110784151D01*
X107499735Y-110750000D01*
X107499736Y-110749999D01*
X111344540Y-110749999D01*
X111364326Y-110938257D01*
X111422820Y-111118284D01*
X111517466Y-111282216D01*
X111644129Y-111422889D01*
X111797269Y-111534151D01*
X111970197Y-111611144D01*
X112155352Y-111650500D01*
X112155354Y-111650500D01*
X112344646Y-111650500D01*
X112344648Y-111650500D01*
X112468083Y-111624262D01*
X112529803Y-111611144D01*
X112702730Y-111534151D01*
X112855871Y-111422888D01*
X112982533Y-111282216D01*
X113077179Y-111118284D01*
X113135674Y-110938256D01*
X113155460Y-110750000D01*
X113135674Y-110561744D01*
X113105144Y-110467783D01*
X113077179Y-110381715D01*
X112982533Y-110217783D01*
X112855870Y-110077110D01*
X112702730Y-109965848D01*
X112529802Y-109888855D01*
X112344648Y-109849500D01*
X112344646Y-109849500D01*
X112155354Y-109849500D01*
X112155352Y-109849500D01*
X111970197Y-109888855D01*
X111797269Y-109965848D01*
X111644129Y-110077110D01*
X111517466Y-110217783D01*
X111422820Y-110381715D01*
X111364326Y-110561742D01*
X111344540Y-110749999D01*
X107499736Y-110749999D01*
X107605870Y-110672889D01*
X107642943Y-110631716D01*
X107732533Y-110532216D01*
X107827179Y-110368284D01*
X107885674Y-110188256D01*
X107904247Y-110011538D01*
X107924767Y-109955160D01*
X107969354Y-109915015D01*
X108027568Y-109900500D01*
X108094648Y-109900500D01*
X108218084Y-109874262D01*
X108279803Y-109861144D01*
X108452730Y-109784151D01*
X108605871Y-109672888D01*
X108732533Y-109532216D01*
X108827179Y-109368284D01*
X108885674Y-109188256D01*
X108905460Y-109000000D01*
X108885674Y-108811744D01*
X108855144Y-108717783D01*
X108827179Y-108631715D01*
X108751133Y-108500000D01*
X116594540Y-108500000D01*
X116614326Y-108688257D01*
X116672820Y-108868284D01*
X116767466Y-109032216D01*
X116894129Y-109172889D01*
X117047269Y-109284151D01*
X117220197Y-109361144D01*
X117405352Y-109400500D01*
X117405354Y-109400500D01*
X117594646Y-109400500D01*
X117594648Y-109400500D01*
X117743892Y-109368777D01*
X117779803Y-109361144D01*
X117952730Y-109284151D01*
X118046740Y-109215849D01*
X118105870Y-109172889D01*
X118136515Y-109138855D01*
X118232533Y-109032216D01*
X118327179Y-108868284D01*
X118385674Y-108688256D01*
X118405460Y-108500000D01*
X118385674Y-108311744D01*
X118349155Y-108199350D01*
X118327179Y-108131715D01*
X118232533Y-107967783D01*
X118105870Y-107827110D01*
X117952730Y-107715848D01*
X117779802Y-107638855D01*
X117594648Y-107599500D01*
X117594646Y-107599500D01*
X117405354Y-107599500D01*
X117405352Y-107599500D01*
X117220197Y-107638855D01*
X117047269Y-107715848D01*
X116894129Y-107827110D01*
X116767466Y-107967783D01*
X116672820Y-108131715D01*
X116614326Y-108311742D01*
X116594540Y-108500000D01*
X108751133Y-108500000D01*
X108732533Y-108467783D01*
X108605870Y-108327110D01*
X108452730Y-108215848D01*
X108279802Y-108138855D01*
X108094648Y-108099500D01*
X108094646Y-108099500D01*
X107905354Y-108099500D01*
X107905352Y-108099500D01*
X107720197Y-108138855D01*
X107547269Y-108215848D01*
X107394129Y-108327110D01*
X107267466Y-108467783D01*
X107172820Y-108631715D01*
X107114326Y-108811742D01*
X107106972Y-108881715D01*
X107102645Y-108922889D01*
X107095753Y-108988461D01*
X107075233Y-109044840D01*
X107030646Y-109084985D01*
X106972432Y-109099500D01*
X106905352Y-109099500D01*
X106720197Y-109138855D01*
X106547269Y-109215848D01*
X106394129Y-109327110D01*
X106267466Y-109467783D01*
X106172820Y-109631715D01*
X106114326Y-109811742D01*
X106094540Y-110000000D01*
X101000500Y-110000000D01*
X101000500Y-106000000D01*
X110094540Y-106000000D01*
X110114326Y-106188257D01*
X110172820Y-106368284D01*
X110267466Y-106532216D01*
X110394808Y-106673643D01*
X110422974Y-106726615D01*
X110422976Y-106786610D01*
X110394811Y-106839583D01*
X110387090Y-106848157D01*
X110292442Y-107012093D01*
X110233948Y-107192120D01*
X110214162Y-107380378D01*
X110233948Y-107568635D01*
X110292442Y-107748662D01*
X110387088Y-107912594D01*
X110513751Y-108053267D01*
X110666891Y-108164529D01*
X110839819Y-108241522D01*
X111024974Y-108280878D01*
X111024976Y-108280878D01*
X111214268Y-108280878D01*
X111214270Y-108280878D01*
X111337706Y-108254640D01*
X111399425Y-108241522D01*
X111572352Y-108164529D01*
X111616526Y-108132435D01*
X111725492Y-108053267D01*
X111852155Y-107912594D01*
X111946801Y-107748662D01*
X111982479Y-107638856D01*
X112005296Y-107568634D01*
X112025082Y-107380378D01*
X112005296Y-107192122D01*
X111946801Y-107012094D01*
X111946801Y-107012093D01*
X111852155Y-106848161D01*
X111724813Y-106706734D01*
X111696646Y-106653760D01*
X111696647Y-106593762D01*
X111724813Y-106540789D01*
X111732533Y-106532216D01*
X111827179Y-106368284D01*
X111885674Y-106188256D01*
X111905460Y-106000000D01*
X111885674Y-105811744D01*
X111865612Y-105749999D01*
X168094540Y-105749999D01*
X168114326Y-105938257D01*
X168172820Y-106118284D01*
X168267466Y-106282216D01*
X168394129Y-106422889D01*
X168547269Y-106534151D01*
X168720197Y-106611144D01*
X168905352Y-106650500D01*
X168905354Y-106650500D01*
X169094646Y-106650500D01*
X169094648Y-106650500D01*
X169218084Y-106624262D01*
X169279803Y-106611144D01*
X169452730Y-106534151D01*
X169605871Y-106422888D01*
X169732533Y-106282216D01*
X169827179Y-106118284D01*
X169865612Y-106000000D01*
X184344540Y-106000000D01*
X184364326Y-106188257D01*
X184422820Y-106368284D01*
X184517466Y-106532216D01*
X184644129Y-106672889D01*
X184797269Y-106784151D01*
X184970197Y-106861144D01*
X185155352Y-106900500D01*
X185155354Y-106900500D01*
X185344646Y-106900500D01*
X185344648Y-106900500D01*
X185468083Y-106874262D01*
X185529803Y-106861144D01*
X185702730Y-106784151D01*
X185702729Y-106784151D01*
X185855870Y-106672889D01*
X185982533Y-106532216D01*
X186077179Y-106368284D01*
X186105144Y-106282216D01*
X186135674Y-106188256D01*
X186155460Y-106000000D01*
X186135674Y-105811744D01*
X186077179Y-105631716D01*
X186077179Y-105631715D01*
X185982533Y-105467783D01*
X185855870Y-105327110D01*
X185702730Y-105215848D01*
X185529802Y-105138855D01*
X185344648Y-105099500D01*
X185344646Y-105099500D01*
X185155354Y-105099500D01*
X185155352Y-105099500D01*
X184970197Y-105138855D01*
X184797269Y-105215848D01*
X184644129Y-105327110D01*
X184517466Y-105467783D01*
X184422820Y-105631715D01*
X184364326Y-105811742D01*
X184344540Y-106000000D01*
X169865612Y-106000000D01*
X169885674Y-105938256D01*
X169905460Y-105750000D01*
X169885674Y-105561744D01*
X169827179Y-105381716D01*
X169827179Y-105381715D01*
X169732533Y-105217783D01*
X169605870Y-105077110D01*
X169452730Y-104965848D01*
X169279802Y-104888855D01*
X169094648Y-104849500D01*
X169094646Y-104849500D01*
X168905354Y-104849500D01*
X168905352Y-104849500D01*
X168720197Y-104888855D01*
X168547269Y-104965848D01*
X168394129Y-105077110D01*
X168267466Y-105217783D01*
X168172820Y-105381715D01*
X168114326Y-105561742D01*
X168094540Y-105749999D01*
X111865612Y-105749999D01*
X111827179Y-105631716D01*
X111827179Y-105631715D01*
X111732533Y-105467783D01*
X111605870Y-105327110D01*
X111452730Y-105215848D01*
X111279802Y-105138855D01*
X111094648Y-105099500D01*
X111094646Y-105099500D01*
X110905354Y-105099500D01*
X110905352Y-105099500D01*
X110720197Y-105138855D01*
X110547269Y-105215848D01*
X110394129Y-105327110D01*
X110267466Y-105467783D01*
X110172820Y-105631715D01*
X110114326Y-105811742D01*
X110094540Y-106000000D01*
X101000500Y-106000000D01*
X101000500Y-103249999D01*
X119094540Y-103249999D01*
X119114326Y-103438257D01*
X119172820Y-103618284D01*
X119267466Y-103782216D01*
X119394129Y-103922889D01*
X119547269Y-104034151D01*
X119720197Y-104111144D01*
X119905352Y-104150500D01*
X119905354Y-104150500D01*
X120094646Y-104150500D01*
X120094648Y-104150500D01*
X120218084Y-104124262D01*
X120279803Y-104111144D01*
X120452730Y-104034151D01*
X120605871Y-103922888D01*
X120732533Y-103782216D01*
X120827179Y-103618284D01*
X120885674Y-103438256D01*
X120905460Y-103250000D01*
X120905460Y-103249999D01*
X128094540Y-103249999D01*
X128114326Y-103438257D01*
X128172820Y-103618284D01*
X128267466Y-103782216D01*
X128394129Y-103922889D01*
X128547269Y-104034151D01*
X128720197Y-104111144D01*
X128905352Y-104150500D01*
X128905354Y-104150500D01*
X129094646Y-104150500D01*
X129094648Y-104150500D01*
X129218084Y-104124262D01*
X129279803Y-104111144D01*
X129452730Y-104034151D01*
X129605871Y-103922888D01*
X129732533Y-103782216D01*
X129827179Y-103618284D01*
X129885674Y-103438256D01*
X129905460Y-103250000D01*
X129885674Y-103061744D01*
X129855332Y-102968363D01*
X129827179Y-102881715D01*
X129732533Y-102717783D01*
X129605870Y-102577110D01*
X129452730Y-102465848D01*
X129279802Y-102388855D01*
X129094648Y-102349500D01*
X129094646Y-102349500D01*
X128905354Y-102349500D01*
X128905352Y-102349500D01*
X128720197Y-102388855D01*
X128547269Y-102465848D01*
X128394129Y-102577110D01*
X128267466Y-102717783D01*
X128172820Y-102881715D01*
X128114326Y-103061742D01*
X128094540Y-103249999D01*
X120905460Y-103249999D01*
X120885674Y-103061744D01*
X120855332Y-102968363D01*
X120827179Y-102881715D01*
X120732533Y-102717783D01*
X120605870Y-102577110D01*
X120452730Y-102465848D01*
X120279802Y-102388855D01*
X120094648Y-102349500D01*
X120094646Y-102349500D01*
X119905354Y-102349500D01*
X119905352Y-102349500D01*
X119720197Y-102388855D01*
X119547269Y-102465848D01*
X119394129Y-102577110D01*
X119267466Y-102717783D01*
X119172820Y-102881715D01*
X119114326Y-103061742D01*
X119094540Y-103249999D01*
X101000500Y-103249999D01*
X101000500Y-100500000D01*
X116594540Y-100500000D01*
X116614326Y-100688257D01*
X116672820Y-100868284D01*
X116767466Y-101032216D01*
X116894129Y-101172889D01*
X117047269Y-101284151D01*
X117220197Y-101361144D01*
X117405352Y-101400500D01*
X117405354Y-101400500D01*
X117594646Y-101400500D01*
X117594648Y-101400500D01*
X117718083Y-101374262D01*
X117779803Y-101361144D01*
X117952730Y-101284151D01*
X118044078Y-101217783D01*
X118105870Y-101172889D01*
X118232533Y-101032216D01*
X118327179Y-100868284D01*
X118345551Y-100811742D01*
X118385674Y-100688256D01*
X118405460Y-100500000D01*
X118405460Y-100499999D01*
X125594540Y-100499999D01*
X125614326Y-100688257D01*
X125672820Y-100868284D01*
X125767466Y-101032216D01*
X125894129Y-101172889D01*
X126047269Y-101284151D01*
X126220197Y-101361144D01*
X126405352Y-101400500D01*
X126405354Y-101400500D01*
X126594646Y-101400500D01*
X126594648Y-101400500D01*
X126707018Y-101376614D01*
X126779803Y-101361144D01*
X126788294Y-101357363D01*
X126847378Y-101346943D01*
X126904441Y-101365482D01*
X126946120Y-101408641D01*
X127017466Y-101532215D01*
X127144129Y-101672889D01*
X127297269Y-101784151D01*
X127470197Y-101861144D01*
X127655352Y-101900500D01*
X127655354Y-101900500D01*
X127844646Y-101900500D01*
X127844648Y-101900500D01*
X127968084Y-101874262D01*
X128029803Y-101861144D01*
X128202730Y-101784151D01*
X128249735Y-101750000D01*
X128249736Y-101749999D01*
X130844540Y-101749999D01*
X130864326Y-101938257D01*
X130922820Y-102118284D01*
X131017466Y-102282216D01*
X131144129Y-102422889D01*
X131297269Y-102534151D01*
X131470197Y-102611144D01*
X131655352Y-102650500D01*
X131655354Y-102650500D01*
X131844646Y-102650500D01*
X131844648Y-102650500D01*
X131968084Y-102624262D01*
X132029803Y-102611144D01*
X132202730Y-102534151D01*
X132257249Y-102494541D01*
X132355870Y-102422889D01*
X132386515Y-102388855D01*
X132482533Y-102282216D01*
X132577179Y-102118284D01*
X132635674Y-101938256D01*
X132642217Y-101876001D01*
X235494500Y-101876001D01*
X235511724Y-102006830D01*
X235528339Y-102068838D01*
X235578836Y-102190749D01*
X235659170Y-102295442D01*
X235704552Y-102340824D01*
X235704556Y-102340827D01*
X235704558Y-102340829D01*
X235721014Y-102353456D01*
X235753020Y-102390016D01*
X235768521Y-102436067D01*
X235765136Y-102484539D01*
X235762399Y-102494545D01*
X235744500Y-102627871D01*
X235744500Y-104237722D01*
X235746959Y-104287525D01*
X235746960Y-104287534D01*
X235749368Y-104311852D01*
X235756724Y-104361177D01*
X235756726Y-104361186D01*
X235992092Y-105538017D01*
X235994500Y-105562335D01*
X235994500Y-107029006D01*
X235981712Y-107083850D01*
X235945986Y-107127382D01*
X235904555Y-107159172D01*
X235859170Y-107204557D01*
X235778836Y-107309250D01*
X235728339Y-107431161D01*
X235711724Y-107493169D01*
X235694500Y-107623999D01*
X235694500Y-110126001D01*
X235711724Y-110256830D01*
X235728339Y-110318838D01*
X235778836Y-110440749D01*
X235859170Y-110545442D01*
X235904557Y-110590829D01*
X236009250Y-110671163D01*
X236130743Y-110721487D01*
X236131166Y-110721662D01*
X236193166Y-110738275D01*
X236291291Y-110751193D01*
X236323999Y-110755500D01*
X236324000Y-110755500D01*
X241625164Y-110755500D01*
X241625165Y-110755500D01*
X241756546Y-110738128D01*
X241818786Y-110721376D01*
X241941135Y-110670457D01*
X242046045Y-110589489D01*
X242091468Y-110543760D01*
X242171730Y-110438308D01*
X242221827Y-110315621D01*
X242238161Y-110253270D01*
X242254651Y-110121775D01*
X242206243Y-102909082D01*
X242190254Y-102786300D01*
X242175205Y-102727917D01*
X242171216Y-102717784D01*
X242154343Y-102674924D01*
X242146492Y-102615714D01*
X242167232Y-102559703D01*
X242211753Y-102519885D01*
X242269723Y-102505500D01*
X242851396Y-102505500D01*
X242906850Y-102518591D01*
X244747752Y-103439042D01*
X244817831Y-103464443D01*
X244857676Y-103478886D01*
X244913130Y-103491977D01*
X245029272Y-103505500D01*
X248876000Y-103505500D01*
X248876001Y-103505500D01*
X248902166Y-103502054D01*
X249006834Y-103488275D01*
X249068834Y-103471662D01*
X249190750Y-103421163D01*
X249295442Y-103340829D01*
X249340829Y-103295442D01*
X249421163Y-103190750D01*
X249471662Y-103068834D01*
X249488275Y-103006834D01*
X249502055Y-102902166D01*
X249505500Y-102876001D01*
X249505500Y-98123999D01*
X249495871Y-98050862D01*
X249488275Y-97993166D01*
X249471662Y-97931166D01*
X249421163Y-97809250D01*
X249340829Y-97704557D01*
X249295442Y-97659170D01*
X249190749Y-97578836D01*
X249068838Y-97528339D01*
X249006830Y-97511724D01*
X248876001Y-97494500D01*
X248876000Y-97494500D01*
X240029272Y-97494500D01*
X239913130Y-97508022D01*
X239857676Y-97521113D01*
X239747751Y-97560958D01*
X235842482Y-99513592D01*
X235727533Y-99592577D01*
X235677509Y-99638292D01*
X235588514Y-99745689D01*
X235532259Y-99873306D01*
X235513739Y-99938501D01*
X235513739Y-99938503D01*
X235494500Y-100076636D01*
X235494500Y-100076640D01*
X235494500Y-101876001D01*
X132642217Y-101876001D01*
X132655460Y-101750000D01*
X132635674Y-101561744D01*
X132585928Y-101408641D01*
X132577179Y-101381715D01*
X132482533Y-101217783D01*
X132355870Y-101077110D01*
X132202730Y-100965848D01*
X132029802Y-100888855D01*
X131844648Y-100849500D01*
X131844646Y-100849500D01*
X131655354Y-100849500D01*
X131655352Y-100849500D01*
X131470197Y-100888855D01*
X131297269Y-100965848D01*
X131144129Y-101077110D01*
X131017466Y-101217783D01*
X130922820Y-101381715D01*
X130864326Y-101561742D01*
X130844540Y-101749999D01*
X128249736Y-101749999D01*
X128355870Y-101672889D01*
X128482533Y-101532216D01*
X128577179Y-101368284D01*
X128597281Y-101306417D01*
X128635674Y-101188256D01*
X128655460Y-101000000D01*
X128635674Y-100811744D01*
X128605332Y-100718363D01*
X128577179Y-100631715D01*
X128482533Y-100467783D01*
X128355870Y-100327110D01*
X128202730Y-100215848D01*
X128029802Y-100138855D01*
X127844648Y-100099500D01*
X127844646Y-100099500D01*
X127655354Y-100099500D01*
X127655352Y-100099500D01*
X127470198Y-100138855D01*
X127461699Y-100142639D01*
X127402614Y-100153056D01*
X127345555Y-100134515D01*
X127303879Y-100091358D01*
X127232533Y-99967784D01*
X127105870Y-99827110D01*
X126952730Y-99715848D01*
X126779802Y-99638855D01*
X126594648Y-99599500D01*
X126594646Y-99599500D01*
X126405354Y-99599500D01*
X126405352Y-99599500D01*
X126220197Y-99638855D01*
X126047269Y-99715848D01*
X125894129Y-99827110D01*
X125767466Y-99967783D01*
X125672820Y-100131715D01*
X125614326Y-100311742D01*
X125594540Y-100499999D01*
X118405460Y-100499999D01*
X118385674Y-100311744D01*
X118329499Y-100138855D01*
X118327179Y-100131715D01*
X118232533Y-99967783D01*
X118105870Y-99827110D01*
X117952730Y-99715848D01*
X117779802Y-99638855D01*
X117594648Y-99599500D01*
X117594646Y-99599500D01*
X117405354Y-99599500D01*
X117405352Y-99599500D01*
X117220197Y-99638855D01*
X117047269Y-99715848D01*
X116894129Y-99827110D01*
X116767466Y-99967783D01*
X116672820Y-100131715D01*
X116614326Y-100311742D01*
X116594540Y-100500000D01*
X101000500Y-100500000D01*
X101000500Y-99397869D01*
X222069500Y-99397869D01*
X222075909Y-99457484D01*
X222096836Y-99513592D01*
X222126204Y-99592331D01*
X222212454Y-99707546D01*
X222327669Y-99793796D01*
X222462517Y-99844091D01*
X222522127Y-99850500D01*
X224317872Y-99850499D01*
X224377483Y-99844091D01*
X224512331Y-99793796D01*
X224627546Y-99707546D01*
X224713796Y-99592331D01*
X224762810Y-99460916D01*
X224797789Y-99410537D01*
X224852634Y-99383084D01*
X224913927Y-99385273D01*
X224966673Y-99416569D01*
X225088599Y-99538495D01*
X225282170Y-99674035D01*
X225496337Y-99773903D01*
X225724592Y-99835063D01*
X225960000Y-99855659D01*
X226195408Y-99835063D01*
X226423663Y-99773903D01*
X226637830Y-99674035D01*
X226831401Y-99538495D01*
X226998495Y-99371401D01*
X227128426Y-99185839D01*
X227172743Y-99146975D01*
X227230000Y-99132964D01*
X227287257Y-99146975D01*
X227331573Y-99185839D01*
X227461505Y-99371401D01*
X227628599Y-99538495D01*
X227822170Y-99674035D01*
X228036337Y-99773903D01*
X228264592Y-99835063D01*
X228500000Y-99855659D01*
X228735408Y-99835063D01*
X228963663Y-99773903D01*
X229177830Y-99674035D01*
X229371401Y-99538495D01*
X229538495Y-99371401D01*
X229668426Y-99185839D01*
X229712743Y-99146975D01*
X229770000Y-99132964D01*
X229827257Y-99146975D01*
X229871573Y-99185839D01*
X230001505Y-99371401D01*
X230168599Y-99538495D01*
X230362170Y-99674035D01*
X230576337Y-99773903D01*
X230804592Y-99835063D01*
X231040000Y-99855659D01*
X231275408Y-99835063D01*
X231503663Y-99773903D01*
X231717830Y-99674035D01*
X231911401Y-99538495D01*
X232078495Y-99371401D01*
X232214035Y-99177830D01*
X232313903Y-98963663D01*
X232375063Y-98735408D01*
X232395659Y-98500000D01*
X232375063Y-98264592D01*
X232313903Y-98036337D01*
X232214035Y-97822171D01*
X232078495Y-97628599D01*
X231911401Y-97461505D01*
X231717830Y-97325965D01*
X231503663Y-97226097D01*
X231442501Y-97209709D01*
X231275407Y-97164936D01*
X231040000Y-97144340D01*
X230804592Y-97164936D01*
X230576336Y-97226097D01*
X230362170Y-97325965D01*
X230168598Y-97461505D01*
X230001505Y-97628598D01*
X229871575Y-97814159D01*
X229827257Y-97853025D01*
X229770000Y-97867036D01*
X229712743Y-97853025D01*
X229668425Y-97814159D01*
X229572234Y-97676784D01*
X229538495Y-97628599D01*
X229371401Y-97461505D01*
X229177830Y-97325965D01*
X228963663Y-97226097D01*
X228902501Y-97209709D01*
X228735407Y-97164936D01*
X228500000Y-97144340D01*
X228264592Y-97164936D01*
X228036336Y-97226097D01*
X227822170Y-97325965D01*
X227628598Y-97461505D01*
X227461505Y-97628598D01*
X227331575Y-97814159D01*
X227287257Y-97853025D01*
X227230000Y-97867036D01*
X227172743Y-97853025D01*
X227128425Y-97814159D01*
X227032234Y-97676784D01*
X226998495Y-97628599D01*
X226831401Y-97461505D01*
X226637830Y-97325965D01*
X226423663Y-97226097D01*
X226362501Y-97209709D01*
X226195407Y-97164936D01*
X225960000Y-97144340D01*
X225724592Y-97164936D01*
X225496336Y-97226097D01*
X225282170Y-97325965D01*
X225088601Y-97461503D01*
X224966673Y-97583431D01*
X224913926Y-97614726D01*
X224852634Y-97616915D01*
X224797789Y-97589462D01*
X224762810Y-97539082D01*
X224752606Y-97511724D01*
X224713796Y-97407669D01*
X224627546Y-97292454D01*
X224512331Y-97206204D01*
X224377483Y-97155909D01*
X224317873Y-97149500D01*
X224317869Y-97149500D01*
X222522130Y-97149500D01*
X222462515Y-97155909D01*
X222327669Y-97206204D01*
X222212454Y-97292454D01*
X222126204Y-97407668D01*
X222075909Y-97542516D01*
X222069500Y-97602130D01*
X222069500Y-99397869D01*
X101000500Y-99397869D01*
X101000500Y-98109999D01*
X140382676Y-98109999D01*
X140401929Y-98330065D01*
X140447463Y-98500000D01*
X140459106Y-98543450D01*
X140552466Y-98743662D01*
X140679174Y-98924620D01*
X140835380Y-99080826D01*
X141016338Y-99207534D01*
X141216550Y-99300894D01*
X141429932Y-99358070D01*
X141650000Y-99377323D01*
X141870068Y-99358070D01*
X142083450Y-99300894D01*
X142283662Y-99207534D01*
X142464620Y-99080826D01*
X142620826Y-98924620D01*
X142747534Y-98743662D01*
X142807617Y-98614811D01*
X142853375Y-98562635D01*
X142920000Y-98543216D01*
X142986625Y-98562635D01*
X143032382Y-98614811D01*
X143092466Y-98743662D01*
X143219174Y-98924620D01*
X143375380Y-99080826D01*
X143556338Y-99207534D01*
X143756550Y-99300894D01*
X143969932Y-99358070D01*
X144190000Y-99377323D01*
X144410068Y-99358070D01*
X144623450Y-99300894D01*
X144823662Y-99207534D01*
X145004620Y-99080826D01*
X145160826Y-98924620D01*
X145287534Y-98743662D01*
X145347617Y-98614811D01*
X145393375Y-98562635D01*
X145460000Y-98543216D01*
X145526625Y-98562635D01*
X145572382Y-98614811D01*
X145632466Y-98743662D01*
X145759174Y-98924620D01*
X145915380Y-99080826D01*
X146096338Y-99207534D01*
X146296550Y-99300894D01*
X146509932Y-99358070D01*
X146730000Y-99377323D01*
X146950068Y-99358070D01*
X147163450Y-99300894D01*
X147363662Y-99207534D01*
X147544620Y-99080826D01*
X147700826Y-98924620D01*
X147827534Y-98743662D01*
X147887617Y-98614811D01*
X147933375Y-98562635D01*
X148000000Y-98543216D01*
X148066625Y-98562635D01*
X148112382Y-98614811D01*
X148172466Y-98743662D01*
X148299174Y-98924620D01*
X148455380Y-99080826D01*
X148636338Y-99207534D01*
X148836550Y-99300894D01*
X149049932Y-99358070D01*
X149270000Y-99377323D01*
X149490068Y-99358070D01*
X149703450Y-99300894D01*
X149903662Y-99207534D01*
X150084620Y-99080826D01*
X150240826Y-98924620D01*
X150367534Y-98743662D01*
X150427617Y-98614811D01*
X150473375Y-98562635D01*
X150540000Y-98543216D01*
X150606625Y-98562635D01*
X150652382Y-98614811D01*
X150712466Y-98743662D01*
X150839174Y-98924620D01*
X150995380Y-99080826D01*
X151176338Y-99207534D01*
X151376550Y-99300894D01*
X151589932Y-99358070D01*
X151810000Y-99377323D01*
X152030068Y-99358070D01*
X152243450Y-99300894D01*
X152443662Y-99207534D01*
X152624620Y-99080826D01*
X152780826Y-98924620D01*
X152907534Y-98743662D01*
X152967617Y-98614811D01*
X153013375Y-98562635D01*
X153080000Y-98543216D01*
X153146625Y-98562635D01*
X153192382Y-98614811D01*
X153252466Y-98743662D01*
X153379174Y-98924620D01*
X153535380Y-99080826D01*
X153716338Y-99207534D01*
X153916550Y-99300894D01*
X154129932Y-99358070D01*
X154350000Y-99377323D01*
X154570068Y-99358070D01*
X154783450Y-99300894D01*
X154983662Y-99207534D01*
X155164620Y-99080826D01*
X155320826Y-98924620D01*
X155447534Y-98743662D01*
X155540894Y-98543450D01*
X155598070Y-98330068D01*
X155617323Y-98110000D01*
X155598070Y-97889932D01*
X155540894Y-97676550D01*
X155447534Y-97476339D01*
X155320826Y-97295380D01*
X155164620Y-97139174D01*
X154983662Y-97012466D01*
X154877970Y-96963181D01*
X154783451Y-96919106D01*
X154570065Y-96861929D01*
X154350000Y-96842676D01*
X154129934Y-96861929D01*
X153916548Y-96919106D01*
X153716338Y-97012466D01*
X153535379Y-97139174D01*
X153379174Y-97295379D01*
X153252466Y-97476338D01*
X153192382Y-97605189D01*
X153146625Y-97657365D01*
X153080000Y-97676784D01*
X153013375Y-97657365D01*
X152967618Y-97605189D01*
X152950744Y-97569004D01*
X152907534Y-97476339D01*
X152780826Y-97295380D01*
X152624620Y-97139174D01*
X152443662Y-97012466D01*
X152337970Y-96963181D01*
X152243451Y-96919106D01*
X152030065Y-96861929D01*
X151810000Y-96842676D01*
X151589934Y-96861929D01*
X151376548Y-96919106D01*
X151176338Y-97012466D01*
X150995379Y-97139174D01*
X150839174Y-97295379D01*
X150712466Y-97476338D01*
X150652382Y-97605189D01*
X150606625Y-97657365D01*
X150540000Y-97676784D01*
X150473375Y-97657365D01*
X150427618Y-97605189D01*
X150410744Y-97569004D01*
X150367534Y-97476339D01*
X150240826Y-97295380D01*
X150084620Y-97139174D01*
X149903662Y-97012466D01*
X149797970Y-96963181D01*
X149703451Y-96919106D01*
X149490065Y-96861929D01*
X149270000Y-96842676D01*
X149049934Y-96861929D01*
X148836548Y-96919106D01*
X148636338Y-97012466D01*
X148455379Y-97139174D01*
X148299174Y-97295379D01*
X148172466Y-97476338D01*
X148112382Y-97605189D01*
X148066625Y-97657365D01*
X148000000Y-97676784D01*
X147933375Y-97657365D01*
X147887618Y-97605189D01*
X147870744Y-97569004D01*
X147827534Y-97476339D01*
X147700826Y-97295380D01*
X147544620Y-97139174D01*
X147363662Y-97012466D01*
X147257970Y-96963181D01*
X147163451Y-96919106D01*
X146950065Y-96861929D01*
X146730000Y-96842676D01*
X146509934Y-96861929D01*
X146296548Y-96919106D01*
X146096338Y-97012466D01*
X145915379Y-97139174D01*
X145759174Y-97295379D01*
X145632466Y-97476338D01*
X145572382Y-97605189D01*
X145526625Y-97657365D01*
X145460000Y-97676784D01*
X145393375Y-97657365D01*
X145347618Y-97605189D01*
X145330744Y-97569004D01*
X145287534Y-97476339D01*
X145160826Y-97295380D01*
X145004620Y-97139174D01*
X144823662Y-97012466D01*
X144717970Y-96963181D01*
X144623451Y-96919106D01*
X144410065Y-96861929D01*
X144190000Y-96842676D01*
X143969934Y-96861929D01*
X143756548Y-96919106D01*
X143556338Y-97012466D01*
X143375379Y-97139174D01*
X143219174Y-97295379D01*
X143092466Y-97476338D01*
X143032382Y-97605189D01*
X142986625Y-97657365D01*
X142920000Y-97676784D01*
X142853375Y-97657365D01*
X142807618Y-97605189D01*
X142790744Y-97569004D01*
X142747534Y-97476339D01*
X142620826Y-97295380D01*
X142464620Y-97139174D01*
X142283662Y-97012466D01*
X142177970Y-96963181D01*
X142083451Y-96919106D01*
X141870065Y-96861929D01*
X141650000Y-96842676D01*
X141429934Y-96861929D01*
X141216548Y-96919106D01*
X141016338Y-97012466D01*
X140835379Y-97139174D01*
X140679174Y-97295379D01*
X140552466Y-97476338D01*
X140459106Y-97676548D01*
X140401929Y-97889934D01*
X140382676Y-98109999D01*
X101000500Y-98109999D01*
X101000500Y-97050862D01*
X101009939Y-97003409D01*
X101036819Y-96963181D01*
X102963181Y-95036819D01*
X103003409Y-95009939D01*
X103050862Y-95000500D01*
X250949138Y-95000500D01*
X250996591Y-95009939D01*
G37*
%TD.AperFunction*%
%TD*%
M02*
