%TF.GenerationSoftware,KiCad,Pcbnew,7.0.1-0*%
%TF.CreationDate,2023-07-27T20:08:02-04:00*%
%TF.ProjectId,Segway V3,53656777-6179-4205-9633-2e6b69636164,V1*%
%TF.SameCoordinates,Original*%
%TF.FileFunction,Soldermask,Top*%
%TF.FilePolarity,Negative*%
%FSLAX46Y46*%
G04 Gerber Fmt 4.6, Leading zero omitted, Abs format (unit mm)*
G04 Created by KiCad (PCBNEW 7.0.1-0) date 2023-07-27 20:08:02*
%MOMM*%
%LPD*%
G01*
G04 APERTURE LIST*
G04 Aperture macros list*
%AMRoundRect*
0 Rectangle with rounded corners*
0 $1 Rounding radius*
0 $2 $3 $4 $5 $6 $7 $8 $9 X,Y pos of 4 corners*
0 Add a 4 corners polygon primitive as box body*
4,1,4,$2,$3,$4,$5,$6,$7,$8,$9,$2,$3,0*
0 Add four circle primitives for the rounded corners*
1,1,$1+$1,$2,$3*
1,1,$1+$1,$4,$5*
1,1,$1+$1,$6,$7*
1,1,$1+$1,$8,$9*
0 Add four rect primitives between the rounded corners*
20,1,$1+$1,$2,$3,$4,$5,0*
20,1,$1+$1,$4,$5,$6,$7,0*
20,1,$1+$1,$6,$7,$8,$9,0*
20,1,$1+$1,$8,$9,$2,$3,0*%
%AMFreePoly0*
4,1,6,1.000000,0.000000,0.500000,-0.750000,-0.500000,-0.750000,-0.500000,0.750000,0.500000,0.750000,1.000000,0.000000,1.000000,0.000000,$1*%
%AMFreePoly1*
4,1,6,0.500000,-0.750000,-0.650000,-0.750000,-0.150000,0.000000,-0.650000,0.750000,0.500000,0.750000,0.500000,-0.750000,0.500000,-0.750000,$1*%
G04 Aperture macros list end*
%ADD10C,7.500000*%
%ADD11RoundRect,0.237500X-0.237500X0.287500X-0.237500X-0.287500X0.237500X-0.287500X0.237500X0.287500X0*%
%ADD12RoundRect,0.250000X-0.337500X-0.475000X0.337500X-0.475000X0.337500X0.475000X-0.337500X0.475000X0*%
%ADD13RoundRect,0.250000X-0.475000X0.337500X-0.475000X-0.337500X0.475000X-0.337500X0.475000X0.337500X0*%
%ADD14RoundRect,0.237500X0.237500X-0.250000X0.237500X0.250000X-0.237500X0.250000X-0.237500X-0.250000X0*%
%ADD15RoundRect,0.150000X-0.150000X-0.625000X0.150000X-0.625000X0.150000X0.625000X-0.150000X0.625000X0*%
%ADD16RoundRect,0.250000X-0.350000X-0.650000X0.350000X-0.650000X0.350000X0.650000X-0.350000X0.650000X0*%
%ADD17FreePoly0,0.000000*%
%ADD18FreePoly1,0.000000*%
%ADD19RoundRect,0.250000X0.337500X0.475000X-0.337500X0.475000X-0.337500X-0.475000X0.337500X-0.475000X0*%
%ADD20C,2.340000*%
%ADD21RoundRect,0.250000X-0.250000X-1.500000X0.250000X-1.500000X0.250000X1.500000X-0.250000X1.500000X0*%
%ADD22RoundRect,0.250001X-0.499999X-1.449999X0.499999X-1.449999X0.499999X1.449999X-0.499999X1.449999X0*%
%ADD23R,2.600000X2.600000*%
%ADD24C,2.600000*%
%ADD25R,1.700000X1.700000*%
%ADD26O,1.700000X1.700000*%
%ADD27C,2.000000*%
%ADD28C,1.625600*%
%ADD29RoundRect,0.025400X0.736600X0.736600X-0.736600X0.736600X-0.736600X-0.736600X0.736600X-0.736600X0*%
%ADD30RoundRect,0.237500X0.250000X0.237500X-0.250000X0.237500X-0.250000X-0.237500X0.250000X-0.237500X0*%
%ADD31RoundRect,0.041300X0.253700X-0.683700X0.253700X0.683700X-0.253700X0.683700X-0.253700X-0.683700X0*%
%ADD32RoundRect,0.237500X-0.287500X-0.237500X0.287500X-0.237500X0.287500X0.237500X-0.287500X0.237500X0*%
%ADD33RoundRect,0.237500X-0.250000X-0.237500X0.250000X-0.237500X0.250000X0.237500X-0.250000X0.237500X0*%
%ADD34RoundRect,0.250001X-0.624999X0.462499X-0.624999X-0.462499X0.624999X-0.462499X0.624999X0.462499X0*%
%ADD35RoundRect,0.090000X0.210000X-0.585000X0.210000X0.585000X-0.210000X0.585000X-0.210000X-0.585000X0*%
%ADD36C,1.524000*%
%ADD37RoundRect,0.020500X-0.429500X-0.184500X0.429500X-0.184500X0.429500X0.184500X-0.429500X0.184500X0*%
%ADD38RoundRect,0.012400X-0.437600X-0.142600X0.437600X-0.142600X0.437600X0.142600X-0.437600X0.142600X0*%
%ADD39RoundRect,0.020500X0.429500X0.184500X-0.429500X0.184500X-0.429500X-0.184500X0.429500X-0.184500X0*%
%ADD40RoundRect,0.012400X0.437600X0.142600X-0.437600X0.142600X-0.437600X-0.142600X0.437600X-0.142600X0*%
%ADD41R,3.175000X4.950000*%
%ADD42O,3.500000X2.200000*%
%ADD43R,2.500000X1.500000*%
%ADD44O,2.500000X1.500000*%
%ADD45RoundRect,0.020500X0.184500X-0.764500X0.184500X0.764500X-0.184500X0.764500X-0.184500X-0.764500X0*%
%ADD46R,0.300000X1.300000*%
%ADD47R,1.800000X2.200000*%
%ADD48R,2.000000X2.000000*%
%ADD49RoundRect,0.048800X-0.256200X0.541200X-0.256200X-0.541200X0.256200X-0.541200X0.256200X0.541200X0*%
G04 APERTURE END LIST*
D10*
%TO.C,REF\u002A\u002A*%
X80000000Y-112000000D03*
%TD*%
D11*
%TO.C,D1*%
X150400000Y-124925000D03*
X150400000Y-126675000D03*
%TD*%
D12*
%TO.C,Cout2*%
X91162500Y-136200000D03*
X93237500Y-136200000D03*
%TD*%
D13*
%TO.C,C_i2C1*%
X223600000Y-119925000D03*
X223600000Y-122000000D03*
%TD*%
D14*
%TO.C,R_LED1*%
X189500000Y-109825000D03*
X189500000Y-108000000D03*
%TD*%
D15*
%TO.C,Qw4*%
X214700000Y-143000000D03*
X215700000Y-143000000D03*
X216700000Y-143000000D03*
X217700000Y-143000000D03*
D16*
X213400000Y-140475000D03*
X219000000Y-140475000D03*
%TD*%
D17*
%TO.C,JP2*%
X169775000Y-134000000D03*
D18*
X171225000Y-134000000D03*
%TD*%
D19*
%TO.C,Cin2*%
X109087500Y-132712500D03*
X107012500Y-132712500D03*
%TD*%
D20*
%TO.C,POT3*%
X150000000Y-105000000D03*
X145000000Y-105000000D03*
X140000000Y-105000000D03*
%TD*%
%TO.C,POT2*%
X125000000Y-105000000D03*
X120000000Y-105000000D03*
X115000000Y-105000000D03*
%TD*%
D21*
%TO.C,E2*%
X152750000Y-139150000D03*
X154750000Y-139150000D03*
X156750000Y-139150000D03*
X158750000Y-139150000D03*
D22*
X150400000Y-144900000D03*
X161100000Y-144900000D03*
%TD*%
D14*
%TO.C,R_ZVD_2*%
X94400000Y-144475000D03*
X94400000Y-142650000D03*
%TD*%
D23*
%TO.C,J9*%
X104107502Y-141307500D03*
D24*
X109107502Y-141307500D03*
%TD*%
D15*
%TO.C,Qw2*%
X214700000Y-129325000D03*
X215700000Y-129325000D03*
X216700000Y-129325000D03*
X217700000Y-129325000D03*
D16*
X213400000Y-126800000D03*
X219000000Y-126800000D03*
%TD*%
D25*
%TO.C,J5*%
X122500000Y-119500000D03*
D26*
X122500000Y-122040000D03*
X122500000Y-124580000D03*
X122500000Y-127120000D03*
%TD*%
D27*
%TO.C,RST*%
X130500000Y-138262500D03*
X130500000Y-144762500D03*
X126000000Y-138262500D03*
X126000000Y-144762500D03*
%TD*%
D25*
%TO.C,J6*%
X131500000Y-119500000D03*
D26*
X131500000Y-122040000D03*
X131500000Y-124580000D03*
X131500000Y-127120000D03*
%TD*%
D28*
%TO.C,U1*%
X166760000Y-144360000D03*
D29*
X166760000Y-141820000D03*
D28*
X166760000Y-139280000D03*
X166760000Y-136740000D03*
X166760000Y-134200000D03*
X166760000Y-131660000D03*
X166760000Y-129120000D03*
X166760000Y-126580000D03*
X166760000Y-124040000D03*
X166760000Y-121500000D03*
X166760000Y-118960000D03*
X166760000Y-116420000D03*
X166760000Y-113880000D03*
X166760000Y-111340000D03*
X166760000Y-108800000D03*
X166760000Y-106260000D03*
X166760000Y-103720000D03*
X182000000Y-103720000D03*
X182000000Y-106260000D03*
X182000000Y-108800000D03*
X182000000Y-111340000D03*
X182000000Y-113880000D03*
X182000000Y-116420000D03*
X182000000Y-118960000D03*
D29*
X182000000Y-121500000D03*
D28*
X182000000Y-124040000D03*
X182000000Y-126580000D03*
X182000000Y-129120000D03*
X182000000Y-131660000D03*
X182000000Y-134200000D03*
X182000000Y-136740000D03*
X182000000Y-139280000D03*
X182000000Y-141820000D03*
X182000000Y-144360000D03*
%TD*%
D10*
%TO.C,REF\u002A\u002A*%
X160000000Y-112000000D03*
%TD*%
D25*
%TO.C,J2*%
X192000000Y-104000000D03*
D26*
X189460000Y-104000000D03*
X186920000Y-104000000D03*
%TD*%
D20*
%TO.C,POT4*%
X222500000Y-105000000D03*
X217500000Y-105000000D03*
X212500000Y-105000000D03*
%TD*%
D30*
%TO.C,Rfbt1*%
X113000000Y-127500000D03*
X111175000Y-127500000D03*
%TD*%
D31*
%TO.C,U3*%
X105307502Y-129080000D03*
X106257502Y-129080000D03*
X107207502Y-129080000D03*
X107207502Y-126770000D03*
X106257502Y-126770000D03*
X105307502Y-126770000D03*
%TD*%
D32*
%TO.C,D2*%
X121625000Y-136600000D03*
X123375000Y-136600000D03*
%TD*%
D10*
%TO.C,REF\u002A\u002A*%
X232000000Y-112000000D03*
%TD*%
D33*
%TO.C,RBAT2*%
X116587500Y-133500000D03*
X118412500Y-133500000D03*
%TD*%
D25*
%TO.C,J8*%
X157250000Y-131575000D03*
D26*
X157250000Y-129035000D03*
X157250000Y-126495000D03*
X157250000Y-123955000D03*
X157250000Y-121415000D03*
%TD*%
D25*
%TO.C,J7*%
X136000000Y-119500000D03*
D26*
X136000000Y-122040000D03*
X136000000Y-124580000D03*
X136000000Y-127120000D03*
%TD*%
D34*
%TO.C,F1*%
X114000000Y-138025000D03*
X114000000Y-141000000D03*
%TD*%
D35*
%TO.C,Q1*%
X89450000Y-144747500D03*
X90400000Y-144747500D03*
X91350000Y-144747500D03*
X91350000Y-142377500D03*
X90400000Y-142377500D03*
X89450000Y-142377500D03*
%TD*%
D15*
%TO.C,Qw3*%
X214700000Y-135825000D03*
X215700000Y-135825000D03*
X216700000Y-135825000D03*
X217700000Y-135825000D03*
D16*
X213400000Y-133300000D03*
X219000000Y-133300000D03*
%TD*%
D30*
%TO.C,R_PWR1*%
X123412500Y-135000000D03*
X121587500Y-135000000D03*
%TD*%
D19*
%TO.C,Cin1*%
X109125000Y-134712500D03*
X107050000Y-134712500D03*
%TD*%
D25*
%TO.C,J3*%
X127000000Y-119500000D03*
D26*
X127000000Y-122040000D03*
X127000000Y-124580000D03*
X127000000Y-127120000D03*
%TD*%
D10*
%TO.C,REF\u002A\u002A*%
X80000000Y-136000000D03*
%TD*%
D14*
%TO.C,Rfbb1*%
X109300000Y-127412500D03*
X109300000Y-125587500D03*
%TD*%
D17*
%TO.C,JP1*%
X169800000Y-136750000D03*
D18*
X171250000Y-136750000D03*
%TD*%
D12*
%TO.C,Cbst1*%
X101362500Y-126412500D03*
X103437500Y-126412500D03*
%TD*%
D36*
%TO.C,A1*%
X191150000Y-143890000D03*
X193690000Y-143890000D03*
X196230000Y-143890000D03*
X198770000Y-143890000D03*
X201310000Y-143890000D03*
X203850000Y-143890000D03*
X191150000Y-126110000D03*
X193690000Y-126110000D03*
X196230000Y-126110000D03*
X198770000Y-126110000D03*
X201310000Y-126110000D03*
X203850000Y-126110000D03*
%TD*%
D14*
%TO.C,R_MOTOR1*%
X150400000Y-130400000D03*
X150400000Y-128575000D03*
%TD*%
D37*
%TO.C,RN1*%
X223430000Y-133800000D03*
D38*
X223430000Y-134490000D03*
X223430000Y-135130000D03*
X223430000Y-135770000D03*
D37*
X223430000Y-136460000D03*
D39*
X225200000Y-136460000D03*
D40*
X225200000Y-135770000D03*
X225200000Y-135130000D03*
X225200000Y-134490000D03*
D39*
X225200000Y-133800000D03*
%TD*%
D21*
%TO.C,E1*%
X138750000Y-139150000D03*
X140750000Y-139150000D03*
X142750000Y-139150000D03*
X144750000Y-139150000D03*
D22*
X136400000Y-144900000D03*
X147100000Y-144900000D03*
%TD*%
D13*
%TO.C,C_i2C2*%
X221600000Y-119925000D03*
X221600000Y-122000000D03*
%TD*%
D41*
%TO.C,L1*%
X98407500Y-127812500D03*
X89392500Y-127812500D03*
%TD*%
D25*
%TO.C,J4*%
X118000000Y-119500000D03*
D26*
X118000000Y-122040000D03*
X118000000Y-124580000D03*
X118000000Y-127120000D03*
%TD*%
D12*
%TO.C,Cout1*%
X91162500Y-134200000D03*
X93237500Y-134200000D03*
%TD*%
D33*
%TO.C,RBAT1*%
X116675000Y-132000000D03*
X118500000Y-132000000D03*
%TD*%
D42*
%TO.C,S1*%
X118000000Y-136512500D03*
X118000000Y-144712500D03*
D43*
X118000000Y-138612500D03*
D44*
X118000000Y-140612500D03*
X118000000Y-142612500D03*
%TD*%
D42*
%TO.C,MOTOR_SW1*%
X145500000Y-122975000D03*
X145500000Y-131175000D03*
D43*
X145500000Y-125075000D03*
D44*
X145500000Y-127075000D03*
X145500000Y-129075000D03*
%TD*%
D45*
%TO.C,U2*%
X226025000Y-125870000D03*
X226675000Y-125870000D03*
X227325000Y-125870000D03*
X227975000Y-125870000D03*
X228625000Y-125870000D03*
X229275000Y-125870000D03*
X229925000Y-125870000D03*
X230575000Y-125870000D03*
X231225000Y-125870000D03*
X231875000Y-125870000D03*
X232525000Y-125870000D03*
X233175000Y-125870000D03*
X233175000Y-120130000D03*
X232525000Y-120130000D03*
X231875000Y-120130000D03*
X231225000Y-120130000D03*
X230575000Y-120130000D03*
X229925000Y-120130000D03*
X229275000Y-120130000D03*
X228625000Y-120130000D03*
X227975000Y-120130000D03*
X227325000Y-120130000D03*
X226675000Y-120130000D03*
X226025000Y-120130000D03*
%TD*%
D15*
%TO.C,Qw1*%
X214700000Y-123000000D03*
X215700000Y-123000000D03*
X216700000Y-123000000D03*
X217700000Y-123000000D03*
D16*
X213400000Y-120475000D03*
X219000000Y-120475000D03*
%TD*%
D20*
%TO.C,POT1*%
X100000000Y-105000000D03*
X95000000Y-105000000D03*
X90000000Y-105000000D03*
%TD*%
D14*
%TO.C,R_ZVD_1*%
X94400000Y-139912500D03*
X94400000Y-138087500D03*
%TD*%
D10*
%TO.C,REF\u002A\u002A*%
X232000000Y-136000000D03*
%TD*%
D46*
%TO.C,U4*%
X196750000Y-121850000D03*
X196250000Y-121850000D03*
X195750000Y-121850000D03*
X195250000Y-121850000D03*
X194750000Y-121850000D03*
X194250000Y-121850000D03*
X193750000Y-121850000D03*
X193250000Y-121850000D03*
X192750000Y-121850000D03*
X192250000Y-121850000D03*
X191750000Y-121850000D03*
X191250000Y-121850000D03*
X190750000Y-121850000D03*
X190250000Y-121850000D03*
X189750000Y-121850000D03*
X189250000Y-121850000D03*
X188750000Y-121850000D03*
X188250000Y-121850000D03*
D47*
X198650000Y-118600000D03*
X186350000Y-118600000D03*
%TD*%
D48*
%TO.C,C_LED1*%
X203250000Y-110367677D03*
D27*
X203250000Y-105367677D03*
%TD*%
D49*
%TO.C,Q2*%
X91315000Y-138287500D03*
X89485000Y-138287500D03*
X90400000Y-140337500D03*
%TD*%
M02*
