M48
; DRILL file {KiCad 7.0.1-0} date 2023 July 27, Thursday 20:07:58
; FORMAT={-:-/ absolute / inch / decimal}
; #@! TF.CreationDate,2023-07-27T20:07:58-04:00
; #@! TF.GenerationSoftware,Kicad,Pcbnew,7.0.1-0
; #@! TF.FileFunction,Plated,1,4,PTH
FMAT,2
INCH
; #@! TA.AperFunction,Plated,PTH,ViaDrill
T1C0.0157
; #@! TA.AperFunction,Plated,PTH,ComponentDrill
T2C0.0300
; #@! TA.AperFunction,Plated,PTH,ComponentDrill
T3C0.0315
; #@! TA.AperFunction,Plated,PTH,ComponentDrill
T4C0.0354
; #@! TA.AperFunction,Plated,PTH,ComponentDrill
T5C0.0394
; #@! TA.AperFunction,Plated,PTH,ComponentDrill
T6C0.0433
; #@! TA.AperFunction,Plated,PTH,ComponentDrill
T7C0.0512
; #@! TA.AperFunction,Plated,PTH,ComponentDrill
T8C0.0591
; #@! TA.AperFunction,Plated,PTH,ComponentDrill
T9C0.1693
%
G90
G05
T1
X3.5197Y-5.5276
X3.6063Y-5.5591
X3.7165Y-5.2835
X3.7165Y-5.3622
X3.7598Y-5.5236
X3.7638Y-5.5984
X4.0551Y-5.2362
X4.0551Y-5.315
X4.1102Y-5.0866
X4.1339Y-5.2362
X4.1339Y-5.315
X4.1417Y-5.1339
X4.3071Y-4.8976
X4.4567Y-5.1496
X4.4961Y-5.0551
X4.7087Y-5.2126
X4.7165Y-5.3071
X5.2677Y-5.1811
X5.5118Y-4.5866
X5.5276Y-5.2756
X5.6201Y-5.6181
X5.6988Y-5.6181
X5.8583Y-4.7717
X5.9213Y-5.1811
X5.9449Y-4.4646
X5.9764Y-5.2205
X6.0138Y-4.872
X6.0945Y-4.378
X6.1417Y-4.7244
X6.1496Y-4.6693
X6.1713Y-5.6004
X6.25Y-5.6004
X6.2756Y-4.6063
X6.2835Y-4.874
X6.2835Y-5.0945
X6.6732Y-5.1673
X6.7091Y-4.283
X6.7244Y-4.7638
X6.7323Y-4.5591
X6.7323Y-5.1969
X6.7717Y-4.7047
X6.7717Y-5.1575
X6.7717Y-5.1969
X6.7795Y-4.9291
X6.811Y-5.1181
X6.811Y-5.1575
X6.811Y-5.1969
X6.8346Y-4.5748
X6.8819Y-4.6457
X6.8976Y-5.2933
X6.9665Y-5.2657
X7.2598Y-4.5591
X7.2677Y-4.4626
X7.3031Y-4.9035
X7.3602Y-4.5571
X7.3701Y-4.8268
X7.4075Y-4.498
X7.4075Y-4.6299
X7.4213Y-4.8622
X7.5354Y-5.2835
X7.5531Y-4.8504
X7.5748Y-5.4173
X7.6457Y-5.1811
X8.0157Y-5.1732
X8.1181Y-4.9528
X8.4488Y-5.1417
X8.4488Y-5.4016
X8.4488Y-5.7008
X8.4567Y-4.8976
X8.4882Y-5.1417
X8.4882Y-5.4016
X8.4882Y-5.7008
X8.4961Y-4.8976
X8.5748Y-5.1732
X8.6378Y-5.0995
X8.685Y-5.16
X8.7165Y-5.6378
X8.7244Y-4.6693
X8.7323Y-4.5748
X8.7323Y-5.1654
X8.7323Y-5.4882
X8.7559Y-5.2362
X8.8031Y-4.6693
X8.811Y-4.8661
X8.8268Y-4.9528
X8.8346Y-4.5906
X8.8504Y-4.7244
X8.8504Y-4.9055
X8.8661Y-5.0315
X8.877Y-4.6693
X8.924Y-5.013
X8.9295Y-5.0733
X8.9749Y-5.0197
X8.9764Y-4.6772
X9.0079Y-5.5512
X9.0288Y-5.0288
X9.0315Y-5.1102
X9.0787Y-5.1102
X9.1102Y-5.1496
X9.1732Y-5.0551
X9.2126Y-4.9528
X9.2126Y-5.0866
T2
X7.5256Y-4.965
X7.5256Y-5.665
X7.6256Y-4.965
X7.6256Y-5.665
X7.7256Y-4.965
X7.7256Y-5.665
X7.8256Y-4.965
X7.8256Y-5.665
X7.9256Y-4.965
X7.9256Y-5.665
X8.0256Y-4.965
X8.0256Y-5.665
T3
X4.6457Y-5.4572
X4.6457Y-5.5359
X4.6457Y-5.6147
X5.7283Y-4.9242
X5.7283Y-5.003
X5.7283Y-5.0817
T4
X6.5654Y-4.0835
X6.5654Y-4.1835
X6.5654Y-4.2835
X6.5654Y-4.3835
X6.5654Y-4.4835
X6.5654Y-4.5835
X6.5654Y-4.6835
X6.5654Y-4.7835
X6.5654Y-4.8835
X6.5654Y-4.9835
X6.5654Y-5.0835
X6.5654Y-5.1835
X6.5654Y-5.2835
X6.5654Y-5.3835
X6.5654Y-5.4835
X6.5654Y-5.5835
X6.5654Y-5.6835
X7.1654Y-4.0835
X7.1654Y-4.1835
X7.1654Y-4.2835
X7.1654Y-4.3835
X7.1654Y-4.4835
X7.1654Y-4.5835
X7.1654Y-4.6835
X7.1654Y-4.7835
X7.1654Y-4.8835
X7.1654Y-4.9835
X7.1654Y-5.0835
X7.1654Y-5.1835
X7.1654Y-5.2835
X7.1654Y-5.3835
X7.1654Y-5.4835
X7.1654Y-5.5835
X7.1654Y-5.6835
T5
X4.6457Y-4.7047
X4.6457Y-4.8047
X4.6457Y-4.9047
X4.6457Y-5.0047
X4.8228Y-4.7047
X4.8228Y-4.8047
X4.8228Y-4.9047
X4.8228Y-5.0047
X5.0Y-4.7047
X5.0Y-4.8047
X5.0Y-4.9047
X5.0Y-5.0047
X5.1772Y-4.7047
X5.1772Y-4.8047
X5.1772Y-4.9047
X5.1772Y-5.0047
X5.3543Y-4.7047
X5.3543Y-4.8047
X5.3543Y-4.9047
X5.3543Y-5.0047
X6.1909Y-4.7801
X6.1909Y-4.8801
X6.1909Y-4.9801
X6.1909Y-5.0801
X6.1909Y-5.1801
X7.3591Y-4.0945
X7.4591Y-4.0945
X7.5591Y-4.0945
X8.002Y-4.1483
X8.002Y-4.3452
T6
X4.9606Y-5.4434
X4.9606Y-5.6993
X5.1378Y-5.4434
X5.1378Y-5.6993
T7
X3.5433Y-4.1339
X3.7402Y-4.1339
X3.937Y-4.1339
X4.0987Y-5.5633
X4.2956Y-5.5633
X4.5276Y-4.1339
X4.7244Y-4.1339
X4.9213Y-4.1339
X5.5118Y-4.1339
X5.7087Y-4.1339
X5.9055Y-4.1339
X8.3661Y-4.1339
X8.563Y-4.1339
X8.7598Y-4.1339
T8
X4.6457Y-5.3745
X4.6457Y-5.6973
X5.7283Y-4.8415
X5.7283Y-5.1644
T9
X3.1496Y-4.4094
X3.1496Y-5.3543
X6.2992Y-4.4094
X9.1339Y-4.4094
X9.1339Y-5.3543
T0
M30
