%TF.GenerationSoftware,KiCad,Pcbnew,7.0.1-0*%
%TF.CreationDate,2023-07-27T20:08:02-04:00*%
%TF.ProjectId,Segway V3,53656777-6179-4205-9633-2e6b69636164,V1*%
%TF.SameCoordinates,Original*%
%TF.FileFunction,Soldermask,Bot*%
%TF.FilePolarity,Negative*%
%FSLAX46Y46*%
G04 Gerber Fmt 4.6, Leading zero omitted, Abs format (unit mm)*
G04 Created by KiCad (PCBNEW 7.0.1-0) date 2023-07-27 20:08:02*
%MOMM*%
%LPD*%
G01*
G04 APERTURE LIST*
G04 Aperture macros list*
%AMRoundRect*
0 Rectangle with rounded corners*
0 $1 Rounding radius*
0 $2 $3 $4 $5 $6 $7 $8 $9 X,Y pos of 4 corners*
0 Add a 4 corners polygon primitive as box body*
4,1,4,$2,$3,$4,$5,$6,$7,$8,$9,$2,$3,0*
0 Add four circle primitives for the rounded corners*
1,1,$1+$1,$2,$3*
1,1,$1+$1,$4,$5*
1,1,$1+$1,$6,$7*
1,1,$1+$1,$8,$9*
0 Add four rect primitives between the rounded corners*
20,1,$1+$1,$2,$3,$4,$5,0*
20,1,$1+$1,$4,$5,$6,$7,0*
20,1,$1+$1,$6,$7,$8,$9,0*
20,1,$1+$1,$8,$9,$2,$3,0*%
G04 Aperture macros list end*
%ADD10C,7.500000*%
%ADD11C,2.340000*%
%ADD12R,2.600000X2.600000*%
%ADD13C,2.600000*%
%ADD14R,1.700000X1.700000*%
%ADD15O,1.700000X1.700000*%
%ADD16C,2.000000*%
%ADD17C,1.625600*%
%ADD18RoundRect,0.025400X0.736600X0.736600X-0.736600X0.736600X-0.736600X-0.736600X0.736600X-0.736600X0*%
%ADD19C,1.524000*%
%ADD20O,3.500000X2.200000*%
%ADD21R,2.500000X1.500000*%
%ADD22O,2.500000X1.500000*%
%ADD23R,2.000000X2.000000*%
G04 APERTURE END LIST*
D10*
%TO.C,REF\u002A\u002A*%
X80000000Y-112000000D03*
%TD*%
D11*
%TO.C,POT3*%
X150000000Y-105000000D03*
X145000000Y-105000000D03*
X140000000Y-105000000D03*
%TD*%
%TO.C,POT2*%
X125000000Y-105000000D03*
X120000000Y-105000000D03*
X115000000Y-105000000D03*
%TD*%
D12*
%TO.C,J9*%
X104107502Y-141307500D03*
D13*
X109107502Y-141307500D03*
%TD*%
D14*
%TO.C,J5*%
X122500000Y-119500000D03*
D15*
X122500000Y-122040000D03*
X122500000Y-124580000D03*
X122500000Y-127120000D03*
%TD*%
D16*
%TO.C,RST*%
X130500000Y-138262500D03*
X130500000Y-144762500D03*
X126000000Y-138262500D03*
X126000000Y-144762500D03*
%TD*%
D14*
%TO.C,J6*%
X131500000Y-119500000D03*
D15*
X131500000Y-122040000D03*
X131500000Y-124580000D03*
X131500000Y-127120000D03*
%TD*%
D17*
%TO.C,U1*%
X166760000Y-144360000D03*
D18*
X166760000Y-141820000D03*
D17*
X166760000Y-139280000D03*
X166760000Y-136740000D03*
X166760000Y-134200000D03*
X166760000Y-131660000D03*
X166760000Y-129120000D03*
X166760000Y-126580000D03*
X166760000Y-124040000D03*
X166760000Y-121500000D03*
X166760000Y-118960000D03*
X166760000Y-116420000D03*
X166760000Y-113880000D03*
X166760000Y-111340000D03*
X166760000Y-108800000D03*
X166760000Y-106260000D03*
X166760000Y-103720000D03*
X182000000Y-103720000D03*
X182000000Y-106260000D03*
X182000000Y-108800000D03*
X182000000Y-111340000D03*
X182000000Y-113880000D03*
X182000000Y-116420000D03*
X182000000Y-118960000D03*
D18*
X182000000Y-121500000D03*
D17*
X182000000Y-124040000D03*
X182000000Y-126580000D03*
X182000000Y-129120000D03*
X182000000Y-131660000D03*
X182000000Y-134200000D03*
X182000000Y-136740000D03*
X182000000Y-139280000D03*
X182000000Y-141820000D03*
X182000000Y-144360000D03*
%TD*%
D10*
%TO.C,REF\u002A\u002A*%
X160000000Y-112000000D03*
%TD*%
D14*
%TO.C,J2*%
X192000000Y-104000000D03*
D15*
X189460000Y-104000000D03*
X186920000Y-104000000D03*
%TD*%
D11*
%TO.C,POT4*%
X222500000Y-105000000D03*
X217500000Y-105000000D03*
X212500000Y-105000000D03*
%TD*%
D10*
%TO.C,REF\u002A\u002A*%
X232000000Y-112000000D03*
%TD*%
D14*
%TO.C,J8*%
X157250000Y-131575000D03*
D15*
X157250000Y-129035000D03*
X157250000Y-126495000D03*
X157250000Y-123955000D03*
X157250000Y-121415000D03*
%TD*%
D14*
%TO.C,J7*%
X136000000Y-119500000D03*
D15*
X136000000Y-122040000D03*
X136000000Y-124580000D03*
X136000000Y-127120000D03*
%TD*%
D14*
%TO.C,J3*%
X127000000Y-119500000D03*
D15*
X127000000Y-122040000D03*
X127000000Y-124580000D03*
X127000000Y-127120000D03*
%TD*%
D10*
%TO.C,REF\u002A\u002A*%
X80000000Y-136000000D03*
%TD*%
D19*
%TO.C,A1*%
X191150000Y-143890000D03*
X193690000Y-143890000D03*
X196230000Y-143890000D03*
X198770000Y-143890000D03*
X201310000Y-143890000D03*
X203850000Y-143890000D03*
X191150000Y-126110000D03*
X193690000Y-126110000D03*
X196230000Y-126110000D03*
X198770000Y-126110000D03*
X201310000Y-126110000D03*
X203850000Y-126110000D03*
%TD*%
D14*
%TO.C,J4*%
X118000000Y-119500000D03*
D15*
X118000000Y-122040000D03*
X118000000Y-124580000D03*
X118000000Y-127120000D03*
%TD*%
D20*
%TO.C,S1*%
X118000000Y-136512500D03*
X118000000Y-144712500D03*
D21*
X118000000Y-138612500D03*
D22*
X118000000Y-140612500D03*
X118000000Y-142612500D03*
%TD*%
D20*
%TO.C,MOTOR_SW1*%
X145500000Y-122975000D03*
X145500000Y-131175000D03*
D21*
X145500000Y-125075000D03*
D22*
X145500000Y-127075000D03*
X145500000Y-129075000D03*
%TD*%
D11*
%TO.C,POT1*%
X100000000Y-105000000D03*
X95000000Y-105000000D03*
X90000000Y-105000000D03*
%TD*%
D10*
%TO.C,REF\u002A\u002A*%
X232000000Y-136000000D03*
%TD*%
D23*
%TO.C,C_LED1*%
X203250000Y-110367677D03*
D16*
X203250000Y-105367677D03*
%TD*%
M02*
