%TF.GenerationSoftware,KiCad,Pcbnew,7.0.1-0*%
%TF.CreationDate,2023-07-27T20:08:02-04:00*%
%TF.ProjectId,Segway V3,53656777-6179-4205-9633-2e6b69636164,V1*%
%TF.SameCoordinates,Original*%
%TF.FileFunction,Copper,L3,Inr*%
%TF.FilePolarity,Positive*%
%FSLAX46Y46*%
G04 Gerber Fmt 4.6, Leading zero omitted, Abs format (unit mm)*
G04 Created by KiCad (PCBNEW 7.0.1-0) date 2023-07-27 20:08:02*
%MOMM*%
%LPD*%
G01*
G04 APERTURE LIST*
%TA.AperFunction,ComponentPad*%
%ADD10C,7.500000*%
%TD*%
%TA.AperFunction,ComponentPad*%
%ADD11C,2.340000*%
%TD*%
%TA.AperFunction,ComponentPad*%
%ADD12R,2.600000X2.600000*%
%TD*%
%TA.AperFunction,ComponentPad*%
%ADD13C,2.600000*%
%TD*%
%TA.AperFunction,ComponentPad*%
%ADD14R,1.700000X1.700000*%
%TD*%
%TA.AperFunction,ComponentPad*%
%ADD15O,1.700000X1.700000*%
%TD*%
%TA.AperFunction,ComponentPad*%
%ADD16C,2.000000*%
%TD*%
%TA.AperFunction,ComponentPad*%
%ADD17C,1.574800*%
%TD*%
%TA.AperFunction,ComponentPad*%
%ADD18R,1.473200X1.473200*%
%TD*%
%TA.AperFunction,ComponentPad*%
%ADD19C,1.524000*%
%TD*%
%TA.AperFunction,ComponentPad*%
%ADD20O,3.500000X2.200000*%
%TD*%
%TA.AperFunction,ComponentPad*%
%ADD21R,2.500000X1.500000*%
%TD*%
%TA.AperFunction,ComponentPad*%
%ADD22O,2.500000X1.500000*%
%TD*%
%TA.AperFunction,ComponentPad*%
%ADD23R,2.000000X2.000000*%
%TD*%
%TA.AperFunction,ViaPad*%
%ADD24C,0.800000*%
%TD*%
G04 APERTURE END LIST*
D10*
%TO.N,GND*%
%TO.C,REF\u002A\u002A*%
X80000000Y-112000000D03*
%TD*%
D11*
%TO.N,+3.3V*%
%TO.C,POT3*%
X150000000Y-105000000D03*
%TO.N,/A3*%
X145000000Y-105000000D03*
%TO.N,GND*%
X140000000Y-105000000D03*
%TD*%
%TO.N,+3.3V*%
%TO.C,POT2*%
X125000000Y-105000000D03*
%TO.N,/A1*%
X120000000Y-105000000D03*
%TO.N,GND*%
X115000000Y-105000000D03*
%TD*%
D12*
%TO.N,GND*%
%TO.C,J9*%
X104107502Y-141307500D03*
D13*
%TO.N,Net-(J9-Pin_2)*%
X109107502Y-141307500D03*
%TD*%
D14*
%TO.N,/BUCK_5V*%
%TO.C,J5*%
X122500000Y-119500000D03*
D15*
X122500000Y-122040000D03*
X122500000Y-124580000D03*
X122500000Y-127120000D03*
%TD*%
D16*
%TO.N,/RST*%
%TO.C,RST*%
X130500000Y-138262500D03*
X130500000Y-144762500D03*
%TO.N,GND*%
X126000000Y-138262500D03*
X126000000Y-144762500D03*
%TD*%
D14*
%TO.N,GND*%
%TO.C,J6*%
X131500000Y-119500000D03*
D15*
%TO.N,+3.3V*%
X131500000Y-122040000D03*
%TO.N,/SDA*%
X131500000Y-124580000D03*
%TO.N,/SCL*%
X131500000Y-127120000D03*
%TD*%
D17*
%TO.N,unconnected-(U1-VBAT-Pad1)*%
%TO.C,U1*%
X166760000Y-144360000D03*
D18*
%TO.N,GND*%
X166760000Y-141820000D03*
D17*
%TO.N,+5V*%
X166760000Y-139280000D03*
%TO.N,/LD01*%
X166760000Y-136740000D03*
%TO.N,/A0*%
X166760000Y-134200000D03*
%TO.N,/A1*%
X166760000Y-131660000D03*
%TO.N,/TFT_CS*%
X166760000Y-129120000D03*
%TO.N,/A3*%
X166760000Y-126580000D03*
%TO.N,/A4*%
X166760000Y-124040000D03*
%TO.N,/HALL_L_A*%
X166760000Y-121500000D03*
%TO.N,/HALL_L_B*%
X166760000Y-118960000D03*
%TO.N,/LDO2*%
X166760000Y-116420000D03*
%TO.N,/HALL_R_A*%
X166760000Y-113880000D03*
%TO.N,/HALL_R_B*%
X166760000Y-111340000D03*
%TO.N,/IMU_RST*%
X166760000Y-108800000D03*
%TO.N,/IMU_INT*%
X166760000Y-106260000D03*
%TO.N,/IMU_CS*%
X166760000Y-103720000D03*
%TO.N,unconnected-(U1-IO42-Pad18)*%
X182000000Y-103720000D03*
%TO.N,/TFT_RST*%
X182000000Y-106260000D03*
%TO.N,/DIR2*%
X182000000Y-108800000D03*
%TO.N,/DIR1*%
X182000000Y-111340000D03*
%TO.N,/MOTOR_EN*%
X182000000Y-113880000D03*
%TO.N,/RX*%
X182000000Y-116420000D03*
%TO.N,/TX*%
X182000000Y-118960000D03*
D18*
%TO.N,GND*%
X182000000Y-121500000D03*
D17*
%TO.N,/RST*%
X182000000Y-124040000D03*
%TO.N,/BAT_READING*%
X182000000Y-126580000D03*
%TO.N,/WS2812*%
X182000000Y-129120000D03*
%TO.N,/SDA*%
X182000000Y-131660000D03*
%TO.N,/SCL*%
X182000000Y-134200000D03*
%TO.N,/TFT_D{slash}C*%
X182000000Y-136740000D03*
%TO.N,/SCK*%
X182000000Y-139280000D03*
%TO.N,/MISO*%
X182000000Y-141820000D03*
%TO.N,/MOSI*%
X182000000Y-144360000D03*
%TD*%
D10*
%TO.N,GND*%
%TO.C,REF\u002A\u002A*%
X160000000Y-112000000D03*
%TD*%
D14*
%TO.N,GND*%
%TO.C,J2*%
X192000000Y-104000000D03*
D15*
%TO.N,Net-(J2-Pin_2)*%
X189460000Y-104000000D03*
%TO.N,/BUCK_5V*%
X186920000Y-104000000D03*
%TD*%
D11*
%TO.N,+3.3V*%
%TO.C,POT4*%
X222500000Y-105000000D03*
%TO.N,/A4*%
X217500000Y-105000000D03*
%TO.N,GND*%
X212500000Y-105000000D03*
%TD*%
D10*
%TO.N,GND*%
%TO.C,REF\u002A\u002A*%
X232000000Y-112000000D03*
%TD*%
D14*
%TO.N,/DIR1*%
%TO.C,J8*%
X157250000Y-131575000D03*
D15*
%TO.N,+3.3V*%
X157250000Y-129035000D03*
%TO.N,/DIR2*%
X157250000Y-126495000D03*
%TO.N,+3.3V*%
X157250000Y-123955000D03*
%TO.N,GND*%
X157250000Y-121415000D03*
%TD*%
D14*
%TO.N,GND*%
%TO.C,J7*%
X136000000Y-119500000D03*
D15*
%TO.N,+3.3V*%
X136000000Y-122040000D03*
%TO.N,/RX*%
X136000000Y-124580000D03*
%TO.N,/TX*%
X136000000Y-127120000D03*
%TD*%
D14*
%TO.N,+3.3V*%
%TO.C,J3*%
X127000000Y-119500000D03*
D15*
X127000000Y-122040000D03*
X127000000Y-124580000D03*
X127000000Y-127120000D03*
%TD*%
D10*
%TO.N,GND*%
%TO.C,REF\u002A\u002A*%
X80000000Y-136000000D03*
%TD*%
D19*
%TO.N,+3.3V*%
%TO.C,A1*%
X191150000Y-143890000D03*
%TO.N,unconnected-(A1-3Vo-Pad2)*%
X193690000Y-143890000D03*
%TO.N,GND*%
X196230000Y-143890000D03*
%TO.N,/SCK*%
X198770000Y-143890000D03*
%TO.N,/MISO*%
X201310000Y-143890000D03*
%TO.N,/IMU_INT*%
X203850000Y-143890000D03*
%TO.N,unconnected-(A1-BT-Pad7)*%
X191150000Y-126110000D03*
%TO.N,+3.3V*%
X193690000Y-126110000D03*
X196230000Y-126110000D03*
%TO.N,/IMU_RST*%
X198770000Y-126110000D03*
%TO.N,/MOSI*%
X201310000Y-126110000D03*
%TO.N,/IMU_CS*%
X203850000Y-126110000D03*
%TD*%
D14*
%TO.N,GND*%
%TO.C,J4*%
X118000000Y-119500000D03*
D15*
X118000000Y-122040000D03*
X118000000Y-124580000D03*
X118000000Y-127120000D03*
%TD*%
D20*
%TO.N,*%
%TO.C,S1*%
X118000000Y-136512500D03*
X118000000Y-144712500D03*
D21*
%TO.N,/VBAT*%
X118000000Y-138612500D03*
D22*
%TO.N,/PWR_EN*%
X118000000Y-140612500D03*
%TO.N,GND*%
X118000000Y-142612500D03*
%TD*%
D20*
%TO.N,*%
%TO.C,MOTOR_SW1*%
X145500000Y-122975000D03*
X145500000Y-131175000D03*
D21*
%TO.N,unconnected-(MOTOR_SW1-A-Pad1)*%
X145500000Y-125075000D03*
D22*
%TO.N,/MOTOR_EN*%
X145500000Y-127075000D03*
%TO.N,GND*%
X145500000Y-129075000D03*
%TD*%
D11*
%TO.N,+3.3V*%
%TO.C,POT1*%
X100000000Y-105000000D03*
%TO.N,/A0*%
X95000000Y-105000000D03*
%TO.N,GND*%
X90000000Y-105000000D03*
%TD*%
D10*
%TO.N,GND*%
%TO.C,REF\u002A\u002A*%
X232000000Y-136000000D03*
%TD*%
D23*
%TO.N,/BUCK_5V*%
%TO.C,C_LED1*%
X203250000Y-110367677D03*
D16*
%TO.N,GND*%
X203250000Y-105367677D03*
%TD*%
D24*
%TO.N,+3.3V*%
X172000000Y-131000000D03*
X173000000Y-130000000D03*
X142750000Y-142699500D03*
X172000000Y-132000000D03*
X171000000Y-132000000D03*
X150400000Y-131600000D03*
X173000000Y-132000000D03*
X222400000Y-133000000D03*
X187200000Y-122600000D03*
X215600000Y-137200000D03*
X215800000Y-124400000D03*
X221600000Y-118600000D03*
X223600000Y-118600000D03*
X224800000Y-120000000D03*
X156750000Y-142250000D03*
X215600000Y-130600000D03*
X215600000Y-144800000D03*
X173000000Y-131000000D03*
%TO.N,GND*%
X104400000Y-129200000D03*
X95600000Y-142200000D03*
X223800000Y-123600000D03*
X119800000Y-134800000D03*
X94400000Y-136200000D03*
X109400000Y-124400000D03*
X144750000Y-142699500D03*
X228000000Y-118800000D03*
X214800000Y-124400000D03*
X105000000Y-133000000D03*
X158750000Y-142250000D03*
X105000000Y-135000000D03*
X103000000Y-135000000D03*
X188500000Y-123500000D03*
X224800000Y-124600000D03*
X105200000Y-130400000D03*
X234000000Y-125800000D03*
X214600000Y-144800000D03*
X214600000Y-130600000D03*
X94400000Y-134200000D03*
X103000000Y-133000000D03*
X214600000Y-137200000D03*
%TO.N,/SCK*%
X192400000Y-137600000D03*
%TO.N,/IMU_INT*%
X170412299Y-108787701D03*
%TO.N,/BUCK_5V*%
X114200000Y-128400000D03*
%TO.N,/MOTOR_EN*%
X151000000Y-113400000D03*
%TO.N,/HALL_L_A*%
X151800000Y-132600000D03*
%TO.N,/HALL_L_B*%
X170800000Y-121000000D03*
X172200000Y-125200000D03*
%TO.N,/HALL_R_A*%
X152750000Y-123750000D03*
%TO.N,/HALL_R_B*%
X156000000Y-120000000D03*
%TO.N,/SCL*%
X140400000Y-134000000D03*
X191400000Y-134200000D03*
X176950000Y-133750000D03*
%TO.N,/SDA*%
X175200000Y-134449500D03*
X224400000Y-116600000D03*
X194200000Y-131600000D03*
X225475455Y-118599500D03*
X203600000Y-131400000D03*
X206200000Y-125800000D03*
X133800000Y-131600000D03*
%TO.N,/TX*%
X156200000Y-118600000D03*
X174800000Y-118000000D03*
X140000000Y-116500000D03*
X159400000Y-117000000D03*
%TO.N,/RX*%
X148800000Y-121200000D03*
X154800000Y-111200000D03*
%TO.N,/DIR1*%
X173600000Y-116200000D03*
X159600000Y-129400000D03*
%TO.N,/DIR2*%
X159600000Y-123800000D03*
X171000000Y-115800000D03*
%TO.N,Net-(Q1-Pad2)*%
X91600000Y-141200000D03*
X95500000Y-140300000D03*
%TO.N,+5V*%
X89400000Y-140400000D03*
%TO.N,/SD0*%
X225200000Y-127800000D03*
X226809659Y-128863000D03*
X221800000Y-131200000D03*
X227962000Y-127499688D03*
%TO.N,/SC0*%
X220600000Y-131063000D03*
X224200000Y-125800000D03*
%TO.N,/SD1*%
X229331188Y-127731188D03*
X229400000Y-129800000D03*
%TO.N,/SC1*%
X217800000Y-131400000D03*
X219400000Y-129526500D03*
%TO.N,/SC2*%
X228800000Y-141000000D03*
X221800000Y-139400000D03*
%TO.N,/SD3*%
X234000000Y-129200000D03*
X231400000Y-130800000D03*
%TO.N,/SC3*%
X230600000Y-129800000D03*
X233000000Y-128400000D03*
X221400000Y-143200000D03*
%TO.N,/WS2812*%
X184400000Y-115800000D03*
%TO.N,/PWR_EN*%
X113200000Y-130800000D03*
%TO.N,/RST*%
X191850000Y-123200000D03*
X221800000Y-116200000D03*
X226668812Y-127331188D03*
X185500000Y-124550000D03*
%TO.N,/BAT_READING*%
X119600000Y-132400000D03*
%TO.N,/TFT_RST*%
X184600000Y-113350000D03*
X188150000Y-114250000D03*
X188150000Y-117600000D03*
X186950000Y-115750000D03*
%TO.N,/LDO2*%
X169500000Y-131250000D03*
X172000000Y-119500000D03*
%TD*%
%TA.AperFunction,Conductor*%
%TO.N,+3.3V*%
G36*
X236747229Y-101507566D02*
G01*
X236784673Y-101529339D01*
X239955597Y-104212428D01*
X239987990Y-104254915D01*
X239999500Y-104307088D01*
X239999500Y-144776519D01*
X239999305Y-144783473D01*
X239993031Y-144895173D01*
X239993000Y-144895706D01*
X239989524Y-144953172D01*
X239974934Y-145004464D01*
X239940150Y-145044885D01*
X237460303Y-146904772D01*
X237048426Y-147213681D01*
X237033067Y-147225200D01*
X236997879Y-147243637D01*
X236958667Y-147250000D01*
X76051362Y-147250000D01*
X76003909Y-147240561D01*
X75963681Y-147213681D01*
X73786319Y-145036319D01*
X73759439Y-144996091D01*
X73750000Y-144948638D01*
X73750000Y-144712500D01*
X115744551Y-144712500D01*
X115764317Y-144963649D01*
X115823126Y-145208610D01*
X115840843Y-145251382D01*
X115919534Y-145441359D01*
X116051164Y-145656159D01*
X116214776Y-145847724D01*
X116406341Y-146011336D01*
X116621141Y-146142966D01*
X116853889Y-146239373D01*
X117098852Y-146298183D01*
X117287118Y-146313000D01*
X118712879Y-146313000D01*
X118712882Y-146313000D01*
X118901148Y-146298183D01*
X119146111Y-146239373D01*
X119378859Y-146142966D01*
X119593659Y-146011336D01*
X119785224Y-145847724D01*
X119948836Y-145656159D01*
X120080466Y-145441359D01*
X120176873Y-145208611D01*
X120235683Y-144963648D01*
X120251514Y-144762499D01*
X124494356Y-144762499D01*
X124514891Y-145010316D01*
X124514891Y-145010319D01*
X124514892Y-145010321D01*
X124575937Y-145251381D01*
X124611395Y-145332216D01*
X124675825Y-145479104D01*
X124675827Y-145479107D01*
X124811836Y-145687285D01*
X124980256Y-145870238D01*
X124980259Y-145870240D01*
X125176485Y-146022970D01*
X125176487Y-146022971D01*
X125176491Y-146022974D01*
X125395190Y-146141328D01*
X125630386Y-146222071D01*
X125875665Y-146263000D01*
X126124335Y-146263000D01*
X126369614Y-146222071D01*
X126604810Y-146141328D01*
X126823509Y-146022974D01*
X127019744Y-145870238D01*
X127188164Y-145687285D01*
X127324173Y-145479107D01*
X127424063Y-145251381D01*
X127485108Y-145010321D01*
X127505643Y-144762500D01*
X127505643Y-144762499D01*
X128994356Y-144762499D01*
X129014891Y-145010316D01*
X129014891Y-145010319D01*
X129014892Y-145010321D01*
X129075937Y-145251381D01*
X129111395Y-145332216D01*
X129175825Y-145479104D01*
X129175827Y-145479107D01*
X129311836Y-145687285D01*
X129480256Y-145870238D01*
X129480259Y-145870240D01*
X129676485Y-146022970D01*
X129676487Y-146022971D01*
X129676491Y-146022974D01*
X129895190Y-146141328D01*
X130130386Y-146222071D01*
X130375665Y-146263000D01*
X130624335Y-146263000D01*
X130869614Y-146222071D01*
X131104810Y-146141328D01*
X131323509Y-146022974D01*
X131519744Y-145870238D01*
X131688164Y-145687285D01*
X131824173Y-145479107D01*
X131924063Y-145251381D01*
X131985108Y-145010321D01*
X132005643Y-144762500D01*
X131985108Y-144514679D01*
X131945938Y-144359999D01*
X165467179Y-144359999D01*
X165486820Y-144584493D01*
X165494122Y-144611744D01*
X165534517Y-144762500D01*
X165545148Y-144802173D01*
X165640382Y-145006406D01*
X165640385Y-145006410D01*
X165769642Y-145191009D01*
X165928991Y-145350358D01*
X166113590Y-145479615D01*
X166113593Y-145479617D01*
X166280418Y-145557407D01*
X166317830Y-145574853D01*
X166535504Y-145633179D01*
X166760000Y-145652820D01*
X166984496Y-145633179D01*
X167202170Y-145574853D01*
X167406410Y-145479615D01*
X167591009Y-145350358D01*
X167750358Y-145191009D01*
X167879615Y-145006410D01*
X167880523Y-145004464D01*
X167918663Y-144922671D01*
X167974853Y-144802170D01*
X168033179Y-144584496D01*
X168052820Y-144360000D01*
X168052820Y-144359999D01*
X180707179Y-144359999D01*
X180726820Y-144584493D01*
X180734122Y-144611744D01*
X180774517Y-144762500D01*
X180785148Y-144802173D01*
X180880382Y-145006406D01*
X180880385Y-145006410D01*
X181009642Y-145191009D01*
X181168991Y-145350358D01*
X181353590Y-145479615D01*
X181353593Y-145479617D01*
X181520418Y-145557407D01*
X181557830Y-145574853D01*
X181775504Y-145633179D01*
X182000000Y-145652820D01*
X182224496Y-145633179D01*
X182442170Y-145574853D01*
X182646410Y-145479615D01*
X182831009Y-145350358D01*
X182990358Y-145191009D01*
X183119615Y-145006410D01*
X183120523Y-145004464D01*
X183158663Y-144922671D01*
X183214853Y-144802170D01*
X183273179Y-144584496D01*
X183292820Y-144360000D01*
X183273179Y-144135504D01*
X183214853Y-143917830D01*
X183201876Y-143890000D01*
X192422676Y-143890000D01*
X192441929Y-144110065D01*
X192499106Y-144323451D01*
X192563410Y-144461352D01*
X192592466Y-144523662D01*
X192719174Y-144704620D01*
X192875380Y-144860826D01*
X193056338Y-144987534D01*
X193256550Y-145080894D01*
X193469932Y-145138070D01*
X193690000Y-145157323D01*
X193910068Y-145138070D01*
X194123450Y-145080894D01*
X194323662Y-144987534D01*
X194504620Y-144860826D01*
X194660826Y-144704620D01*
X194787534Y-144523662D01*
X194847617Y-144394811D01*
X194893375Y-144342635D01*
X194960000Y-144323216D01*
X195026625Y-144342635D01*
X195072382Y-144394811D01*
X195132466Y-144523662D01*
X195259174Y-144704620D01*
X195415380Y-144860826D01*
X195596338Y-144987534D01*
X195796550Y-145080894D01*
X196009932Y-145138070D01*
X196230000Y-145157323D01*
X196450068Y-145138070D01*
X196663450Y-145080894D01*
X196863662Y-144987534D01*
X197044620Y-144860826D01*
X197200826Y-144704620D01*
X197327534Y-144523662D01*
X197387617Y-144394811D01*
X197433375Y-144342635D01*
X197500000Y-144323216D01*
X197566625Y-144342635D01*
X197612382Y-144394811D01*
X197672466Y-144523662D01*
X197799174Y-144704620D01*
X197955380Y-144860826D01*
X198136338Y-144987534D01*
X198336550Y-145080894D01*
X198549932Y-145138070D01*
X198770000Y-145157323D01*
X198990068Y-145138070D01*
X199203450Y-145080894D01*
X199403662Y-144987534D01*
X199584620Y-144860826D01*
X199740826Y-144704620D01*
X199867534Y-144523662D01*
X199927617Y-144394811D01*
X199973375Y-144342635D01*
X200040000Y-144323216D01*
X200106625Y-144342635D01*
X200152382Y-144394811D01*
X200212466Y-144523662D01*
X200339174Y-144704620D01*
X200495380Y-144860826D01*
X200676338Y-144987534D01*
X200876550Y-145080894D01*
X201089932Y-145138070D01*
X201310000Y-145157323D01*
X201530068Y-145138070D01*
X201743450Y-145080894D01*
X201943662Y-144987534D01*
X202124620Y-144860826D01*
X202280826Y-144704620D01*
X202407534Y-144523662D01*
X202467617Y-144394811D01*
X202513375Y-144342635D01*
X202580000Y-144323216D01*
X202646625Y-144342635D01*
X202692382Y-144394811D01*
X202752466Y-144523662D01*
X202879174Y-144704620D01*
X203035380Y-144860826D01*
X203216338Y-144987534D01*
X203416550Y-145080894D01*
X203629932Y-145138070D01*
X203850000Y-145157323D01*
X204070068Y-145138070D01*
X204283450Y-145080894D01*
X204483662Y-144987534D01*
X204664620Y-144860826D01*
X204725447Y-144799999D01*
X213694540Y-144799999D01*
X213714326Y-144988257D01*
X213772820Y-145168284D01*
X213867466Y-145332216D01*
X213994129Y-145472889D01*
X214147269Y-145584151D01*
X214320197Y-145661144D01*
X214505352Y-145700500D01*
X214505354Y-145700500D01*
X214694646Y-145700500D01*
X214694648Y-145700500D01*
X214818083Y-145674262D01*
X214879803Y-145661144D01*
X215052730Y-145584151D01*
X215190014Y-145484409D01*
X215205870Y-145472889D01*
X215332533Y-145332216D01*
X215427179Y-145168284D01*
X215455574Y-145080893D01*
X215485674Y-144988256D01*
X215505460Y-144800000D01*
X215485674Y-144611744D01*
X215454135Y-144514679D01*
X215427179Y-144431715D01*
X215332533Y-144267783D01*
X215205870Y-144127110D01*
X215052730Y-144015848D01*
X214879802Y-143938855D01*
X214694648Y-143899500D01*
X214694646Y-143899500D01*
X214505354Y-143899500D01*
X214505352Y-143899500D01*
X214320197Y-143938855D01*
X214147269Y-144015848D01*
X213994129Y-144127110D01*
X213867466Y-144267783D01*
X213772820Y-144431715D01*
X213714326Y-144611742D01*
X213694540Y-144799999D01*
X204725447Y-144799999D01*
X204820826Y-144704620D01*
X204947534Y-144523662D01*
X205040894Y-144323450D01*
X205098070Y-144110068D01*
X205117323Y-143890000D01*
X205098070Y-143669932D01*
X205040894Y-143456550D01*
X204947534Y-143256339D01*
X204908085Y-143200000D01*
X220494540Y-143200000D01*
X220514326Y-143388257D01*
X220572820Y-143568284D01*
X220667466Y-143732216D01*
X220794129Y-143872889D01*
X220947269Y-143984151D01*
X221120197Y-144061144D01*
X221305352Y-144100500D01*
X221305354Y-144100500D01*
X221494646Y-144100500D01*
X221494648Y-144100500D01*
X221618084Y-144074262D01*
X221679803Y-144061144D01*
X221852730Y-143984151D01*
X221853435Y-143983639D01*
X222005870Y-143872889D01*
X222132533Y-143732216D01*
X222227179Y-143568284D01*
X222239947Y-143528987D01*
X222285674Y-143388256D01*
X222305460Y-143200000D01*
X222285674Y-143011744D01*
X222227179Y-142831716D01*
X222227179Y-142831715D01*
X222132533Y-142667783D01*
X222005870Y-142527110D01*
X221852730Y-142415848D01*
X221679802Y-142338855D01*
X221494648Y-142299500D01*
X221494646Y-142299500D01*
X221305354Y-142299500D01*
X221305352Y-142299500D01*
X221120197Y-142338855D01*
X220947269Y-142415848D01*
X220794129Y-142527110D01*
X220667466Y-142667783D01*
X220572820Y-142831715D01*
X220514326Y-143011742D01*
X220494540Y-143200000D01*
X204908085Y-143200000D01*
X204820826Y-143075380D01*
X204664620Y-142919174D01*
X204483662Y-142792466D01*
X204459152Y-142781037D01*
X204283451Y-142699106D01*
X204070065Y-142641929D01*
X203850000Y-142622676D01*
X203629934Y-142641929D01*
X203416548Y-142699106D01*
X203216338Y-142792466D01*
X203035379Y-142919174D01*
X202879174Y-143075379D01*
X202752466Y-143256338D01*
X202692382Y-143385189D01*
X202646625Y-143437365D01*
X202580000Y-143456784D01*
X202513375Y-143437365D01*
X202467618Y-143385189D01*
X202436268Y-143317960D01*
X202407534Y-143256339D01*
X202280826Y-143075380D01*
X202124620Y-142919174D01*
X201943662Y-142792466D01*
X201919152Y-142781037D01*
X201743451Y-142699106D01*
X201530065Y-142641929D01*
X201310000Y-142622676D01*
X201089934Y-142641929D01*
X200876548Y-142699106D01*
X200676338Y-142792466D01*
X200495379Y-142919174D01*
X200339174Y-143075379D01*
X200212466Y-143256338D01*
X200152382Y-143385189D01*
X200106625Y-143437365D01*
X200040000Y-143456784D01*
X199973375Y-143437365D01*
X199927618Y-143385189D01*
X199896268Y-143317960D01*
X199867534Y-143256339D01*
X199740826Y-143075380D01*
X199584620Y-142919174D01*
X199403662Y-142792466D01*
X199379152Y-142781037D01*
X199203451Y-142699106D01*
X198990065Y-142641929D01*
X198770000Y-142622676D01*
X198549934Y-142641929D01*
X198336548Y-142699106D01*
X198136338Y-142792466D01*
X197955379Y-142919174D01*
X197799174Y-143075379D01*
X197672466Y-143256338D01*
X197612382Y-143385189D01*
X197566625Y-143437365D01*
X197500000Y-143456784D01*
X197433375Y-143437365D01*
X197387618Y-143385189D01*
X197356268Y-143317960D01*
X197327534Y-143256339D01*
X197200826Y-143075380D01*
X197044620Y-142919174D01*
X196863662Y-142792466D01*
X196839152Y-142781037D01*
X196663451Y-142699106D01*
X196450065Y-142641929D01*
X196230000Y-142622676D01*
X196009934Y-142641929D01*
X195796548Y-142699106D01*
X195596338Y-142792466D01*
X195415379Y-142919174D01*
X195259174Y-143075379D01*
X195132466Y-143256338D01*
X195072382Y-143385189D01*
X195026625Y-143437365D01*
X194960000Y-143456784D01*
X194893375Y-143437365D01*
X194847618Y-143385189D01*
X194816268Y-143317960D01*
X194787534Y-143256339D01*
X194660826Y-143075380D01*
X194504620Y-142919174D01*
X194323662Y-142792466D01*
X194299152Y-142781037D01*
X194123451Y-142699106D01*
X193910065Y-142641929D01*
X193690000Y-142622676D01*
X193469934Y-142641929D01*
X193256548Y-142699106D01*
X193056338Y-142792466D01*
X192875379Y-142919174D01*
X192719174Y-143075379D01*
X192592466Y-143256338D01*
X192499106Y-143456548D01*
X192441929Y-143669934D01*
X192422676Y-143890000D01*
X183201876Y-143890000D01*
X183177495Y-143837714D01*
X183119617Y-143713593D01*
X183078421Y-143654759D01*
X182990358Y-143528991D01*
X182831009Y-143369642D01*
X182646410Y-143240385D01*
X182564912Y-143202382D01*
X182512737Y-143156626D01*
X182493317Y-143090000D01*
X182512737Y-143023374D01*
X182564912Y-142977617D01*
X182646410Y-142939615D01*
X182831009Y-142810358D01*
X182990358Y-142651009D01*
X183119615Y-142466410D01*
X183214853Y-142262170D01*
X183273179Y-142044496D01*
X183292820Y-141820000D01*
X183273179Y-141595504D01*
X183214853Y-141377830D01*
X183178794Y-141300500D01*
X183119617Y-141173593D01*
X183102185Y-141148697D01*
X182998067Y-141000000D01*
X227894540Y-141000000D01*
X227914326Y-141188257D01*
X227972820Y-141368284D01*
X228067466Y-141532216D01*
X228194129Y-141672889D01*
X228347269Y-141784151D01*
X228520197Y-141861144D01*
X228705352Y-141900500D01*
X228705354Y-141900500D01*
X228894646Y-141900500D01*
X228894648Y-141900500D01*
X229024551Y-141872888D01*
X229079803Y-141861144D01*
X229252730Y-141784151D01*
X229306844Y-141744835D01*
X229405870Y-141672889D01*
X229410468Y-141667783D01*
X229532533Y-141532216D01*
X229627179Y-141368284D01*
X229685674Y-141188256D01*
X229705460Y-141000000D01*
X229685674Y-140811744D01*
X229639238Y-140668830D01*
X229627179Y-140631715D01*
X229532533Y-140467783D01*
X229405870Y-140327110D01*
X229252730Y-140215848D01*
X229079802Y-140138855D01*
X228894648Y-140099500D01*
X228894646Y-140099500D01*
X228705354Y-140099500D01*
X228705352Y-140099500D01*
X228520197Y-140138855D01*
X228347269Y-140215848D01*
X228194129Y-140327110D01*
X228067466Y-140467783D01*
X227972820Y-140631715D01*
X227914326Y-140811742D01*
X227894540Y-141000000D01*
X182998067Y-141000000D01*
X182990358Y-140988991D01*
X182831009Y-140829642D01*
X182646410Y-140700385D01*
X182646409Y-140700384D01*
X182646407Y-140700383D01*
X182564912Y-140662381D01*
X182512736Y-140616624D01*
X182493317Y-140549998D01*
X182512737Y-140483372D01*
X182564911Y-140437618D01*
X182646410Y-140399615D01*
X182831009Y-140270358D01*
X182990358Y-140111009D01*
X183119615Y-139926410D01*
X183126805Y-139910992D01*
X183145558Y-139870774D01*
X183214853Y-139722170D01*
X183273179Y-139504496D01*
X183282321Y-139399999D01*
X220894540Y-139399999D01*
X220914326Y-139588257D01*
X220972820Y-139768284D01*
X221067466Y-139932216D01*
X221194129Y-140072889D01*
X221347269Y-140184151D01*
X221520197Y-140261144D01*
X221705352Y-140300500D01*
X221705354Y-140300500D01*
X221894646Y-140300500D01*
X221894648Y-140300500D01*
X222036473Y-140270354D01*
X222079803Y-140261144D01*
X222252730Y-140184151D01*
X222252730Y-140184150D01*
X222405870Y-140072889D01*
X222442943Y-140031716D01*
X222532533Y-139932216D01*
X222627179Y-139768284D01*
X222685674Y-139588256D01*
X222705460Y-139400000D01*
X222685674Y-139211744D01*
X222627179Y-139031716D01*
X222627179Y-139031715D01*
X222532533Y-138867783D01*
X222405870Y-138727110D01*
X222252730Y-138615848D01*
X222079802Y-138538855D01*
X221894648Y-138499500D01*
X221894646Y-138499500D01*
X221705354Y-138499500D01*
X221705352Y-138499500D01*
X221520197Y-138538855D01*
X221347269Y-138615848D01*
X221194129Y-138727110D01*
X221067466Y-138867783D01*
X220972820Y-139031715D01*
X220914326Y-139211742D01*
X220894540Y-139399999D01*
X183282321Y-139399999D01*
X183292820Y-139280000D01*
X183273179Y-139055504D01*
X183214853Y-138837830D01*
X183174542Y-138751382D01*
X183119617Y-138633593D01*
X183117423Y-138630459D01*
X182990358Y-138448991D01*
X182831009Y-138289642D01*
X182646410Y-138160385D01*
X182646409Y-138160384D01*
X182646407Y-138160383D01*
X182564912Y-138122381D01*
X182512736Y-138076624D01*
X182493317Y-138009998D01*
X182512737Y-137943372D01*
X182564911Y-137897618D01*
X182646410Y-137859615D01*
X182831009Y-137730358D01*
X182961367Y-137600000D01*
X191494540Y-137600000D01*
X191514326Y-137788257D01*
X191572820Y-137968284D01*
X191667466Y-138132216D01*
X191794129Y-138272889D01*
X191947269Y-138384151D01*
X192120197Y-138461144D01*
X192305352Y-138500500D01*
X192305354Y-138500500D01*
X192494646Y-138500500D01*
X192494648Y-138500500D01*
X192618084Y-138474262D01*
X192679803Y-138461144D01*
X192852730Y-138384151D01*
X193005871Y-138272888D01*
X193132533Y-138132216D01*
X193227179Y-137968284D01*
X193285674Y-137788256D01*
X193305460Y-137600000D01*
X193285674Y-137411744D01*
X193230313Y-137241360D01*
X193227179Y-137231715D01*
X193208868Y-137199999D01*
X213694540Y-137199999D01*
X213714326Y-137388257D01*
X213772820Y-137568284D01*
X213867466Y-137732216D01*
X213994129Y-137872889D01*
X214147269Y-137984151D01*
X214320197Y-138061144D01*
X214505352Y-138100500D01*
X214505354Y-138100500D01*
X214694646Y-138100500D01*
X214694648Y-138100500D01*
X214860970Y-138065147D01*
X214879803Y-138061144D01*
X215052730Y-137984151D01*
X215205871Y-137872888D01*
X215332533Y-137732216D01*
X215427179Y-137568284D01*
X215485674Y-137388256D01*
X215505460Y-137200000D01*
X215485674Y-137011744D01*
X215427179Y-136831716D01*
X215427179Y-136831715D01*
X215332533Y-136667783D01*
X215205870Y-136527110D01*
X215052730Y-136415848D01*
X214879802Y-136338855D01*
X214694648Y-136299500D01*
X214694646Y-136299500D01*
X214505354Y-136299500D01*
X214505352Y-136299500D01*
X214320197Y-136338855D01*
X214147269Y-136415848D01*
X213994129Y-136527110D01*
X213867466Y-136667783D01*
X213772820Y-136831715D01*
X213714326Y-137011742D01*
X213694540Y-137199999D01*
X193208868Y-137199999D01*
X193132533Y-137067783D01*
X193005870Y-136927110D01*
X192852730Y-136815848D01*
X192679802Y-136738855D01*
X192494648Y-136699500D01*
X192494646Y-136699500D01*
X192305354Y-136699500D01*
X192305352Y-136699500D01*
X192120197Y-136738855D01*
X191947269Y-136815848D01*
X191794129Y-136927110D01*
X191667466Y-137067783D01*
X191572820Y-137231715D01*
X191514326Y-137411742D01*
X191494540Y-137600000D01*
X182961367Y-137600000D01*
X182990358Y-137571009D01*
X183119615Y-137386410D01*
X183214853Y-137182170D01*
X183273179Y-136964496D01*
X183292820Y-136740000D01*
X183273179Y-136515504D01*
X183214853Y-136297830D01*
X183197407Y-136260418D01*
X183119617Y-136093593D01*
X183119615Y-136093590D01*
X183054083Y-136000000D01*
X227744680Y-136000000D01*
X227763948Y-136404494D01*
X227821579Y-136805325D01*
X227870896Y-137008611D01*
X227917051Y-137198867D01*
X228049496Y-137581542D01*
X228217720Y-137949900D01*
X228420197Y-138300601D01*
X228655089Y-138630459D01*
X228655093Y-138630464D01*
X228920280Y-138936507D01*
X229213358Y-139215956D01*
X229531672Y-139466281D01*
X229531679Y-139466285D01*
X229531681Y-139466287D01*
X229872331Y-139685210D01*
X229872337Y-139685213D01*
X229872340Y-139685215D01*
X230232276Y-139870775D01*
X230608221Y-140021281D01*
X230996770Y-140135369D01*
X231394405Y-140212007D01*
X231797524Y-140250500D01*
X232202471Y-140250500D01*
X232202476Y-140250500D01*
X232605595Y-140212007D01*
X233003230Y-140135369D01*
X233391779Y-140021281D01*
X233767724Y-139870775D01*
X234127660Y-139685215D01*
X234468328Y-139466281D01*
X234786642Y-139215956D01*
X235079720Y-138936507D01*
X235344907Y-138630464D01*
X235579803Y-138300600D01*
X235782279Y-137949900D01*
X235950503Y-137581543D01*
X236082950Y-137198862D01*
X236178421Y-136805325D01*
X236236052Y-136404494D01*
X236255320Y-136000000D01*
X236236052Y-135595506D01*
X236178421Y-135194675D01*
X236082950Y-134801138D01*
X236017399Y-134611742D01*
X235950503Y-134418457D01*
X235782279Y-134050099D01*
X235579802Y-133699398D01*
X235344910Y-133369540D01*
X235344434Y-133368991D01*
X235079720Y-133063493D01*
X234786642Y-132784044D01*
X234468328Y-132533719D01*
X234468321Y-132533715D01*
X234468318Y-132533712D01*
X234127668Y-132314789D01*
X234023611Y-132261144D01*
X233767724Y-132129225D01*
X233391779Y-131978719D01*
X233391778Y-131978718D01*
X233391774Y-131978717D01*
X233003228Y-131864630D01*
X232605601Y-131787994D01*
X232605599Y-131787993D01*
X232605595Y-131787993D01*
X232202476Y-131749500D01*
X232006780Y-131749500D01*
X231947042Y-131734162D01*
X231902083Y-131691942D01*
X231883025Y-131633286D01*
X231894582Y-131572703D01*
X231933895Y-131525182D01*
X232005870Y-131472889D01*
X232043332Y-131431284D01*
X232132533Y-131332216D01*
X232227179Y-131168284D01*
X232285674Y-130988256D01*
X232305460Y-130800000D01*
X232285674Y-130611744D01*
X232250140Y-130502381D01*
X232227179Y-130431715D01*
X232132533Y-130267783D01*
X232005870Y-130127110D01*
X231852730Y-130015848D01*
X231679802Y-129938855D01*
X231604204Y-129922786D01*
X231550263Y-129896472D01*
X231514999Y-129847908D01*
X231510054Y-129812621D01*
X231506822Y-129812961D01*
X231502594Y-129772734D01*
X231485674Y-129611744D01*
X231455332Y-129518363D01*
X231427179Y-129431715D01*
X231332533Y-129267783D01*
X231205870Y-129127110D01*
X231052730Y-129015848D01*
X230879802Y-128938855D01*
X230694648Y-128899500D01*
X230694646Y-128899500D01*
X230505354Y-128899500D01*
X230505352Y-128899500D01*
X230320197Y-128938855D01*
X230147270Y-129015848D01*
X230072883Y-129069892D01*
X230025779Y-129090864D01*
X229974217Y-129090863D01*
X229927114Y-129069891D01*
X229852730Y-129015848D01*
X229679802Y-128938855D01*
X229494648Y-128899500D01*
X229494646Y-128899500D01*
X229305354Y-128899500D01*
X229305352Y-128899500D01*
X229120197Y-128938855D01*
X228947269Y-129015848D01*
X228794129Y-129127110D01*
X228667466Y-129267783D01*
X228572820Y-129431715D01*
X228514326Y-129611742D01*
X228494540Y-129800000D01*
X228514326Y-129988257D01*
X228572820Y-130168284D01*
X228667466Y-130332216D01*
X228794129Y-130472889D01*
X228947269Y-130584151D01*
X229120197Y-130661144D01*
X229305352Y-130700500D01*
X229305354Y-130700500D01*
X229494646Y-130700500D01*
X229494648Y-130700500D01*
X229618084Y-130674262D01*
X229679803Y-130661144D01*
X229852730Y-130584151D01*
X229927116Y-130530105D01*
X229974219Y-130509135D01*
X230025781Y-130509135D01*
X230072883Y-130530105D01*
X230147270Y-130584151D01*
X230147271Y-130584151D01*
X230147272Y-130584152D01*
X230320194Y-130661143D01*
X230320195Y-130661143D01*
X230320197Y-130661144D01*
X230395796Y-130677212D01*
X230449709Y-130703504D01*
X230484975Y-130752028D01*
X230489952Y-130787377D01*
X230493178Y-130787039D01*
X230494540Y-130799999D01*
X230494540Y-130800000D01*
X230507517Y-130923478D01*
X230514326Y-130988257D01*
X230572820Y-131168284D01*
X230667466Y-131332216D01*
X230794129Y-131472889D01*
X230947267Y-131584150D01*
X231041598Y-131626149D01*
X231090217Y-131664835D01*
X231113967Y-131722248D01*
X231106886Y-131783974D01*
X231070751Y-131834517D01*
X231014635Y-131861187D01*
X230996773Y-131864630D01*
X230608225Y-131978717D01*
X230232276Y-132129225D01*
X229872331Y-132314789D01*
X229531681Y-132533712D01*
X229213354Y-132784047D01*
X228920280Y-133063492D01*
X228655089Y-133369540D01*
X228420197Y-133699398D01*
X228217720Y-134050099D01*
X228049496Y-134418457D01*
X227917051Y-134801132D01*
X227872294Y-134985626D01*
X227821579Y-135194675D01*
X227763948Y-135595506D01*
X227744680Y-136000000D01*
X183054083Y-136000000D01*
X182990358Y-135908991D01*
X182831009Y-135749642D01*
X182646410Y-135620385D01*
X182564912Y-135582382D01*
X182512737Y-135536626D01*
X182493317Y-135470000D01*
X182512737Y-135403374D01*
X182564912Y-135357617D01*
X182646410Y-135319615D01*
X182831009Y-135190358D01*
X182990358Y-135031009D01*
X183119615Y-134846410D01*
X183214853Y-134642170D01*
X183273179Y-134424496D01*
X183292820Y-134200000D01*
X183292820Y-134199999D01*
X190494540Y-134199999D01*
X190514326Y-134388257D01*
X190572820Y-134568284D01*
X190667466Y-134732216D01*
X190794129Y-134872889D01*
X190947269Y-134984151D01*
X191120197Y-135061144D01*
X191305352Y-135100500D01*
X191305354Y-135100500D01*
X191494646Y-135100500D01*
X191494648Y-135100500D01*
X191618084Y-135074262D01*
X191679803Y-135061144D01*
X191852730Y-134984151D01*
X192005871Y-134872888D01*
X192132533Y-134732216D01*
X192227179Y-134568284D01*
X192285674Y-134388256D01*
X192305460Y-134200000D01*
X192285674Y-134011744D01*
X192249528Y-133900500D01*
X192227179Y-133831715D01*
X192132533Y-133667783D01*
X192005870Y-133527110D01*
X191852730Y-133415848D01*
X191679802Y-133338855D01*
X191494648Y-133299500D01*
X191494646Y-133299500D01*
X191305354Y-133299500D01*
X191305352Y-133299500D01*
X191120197Y-133338855D01*
X190947269Y-133415848D01*
X190794129Y-133527110D01*
X190667466Y-133667783D01*
X190572820Y-133831715D01*
X190514326Y-134011742D01*
X190494540Y-134199999D01*
X183292820Y-134199999D01*
X183273179Y-133975504D01*
X183214853Y-133757830D01*
X183171728Y-133665348D01*
X183119617Y-133553593D01*
X183101075Y-133527112D01*
X182990358Y-133368991D01*
X182831009Y-133209642D01*
X182646410Y-133080385D01*
X182646409Y-133080384D01*
X182646407Y-133080383D01*
X182564912Y-133042381D01*
X182512736Y-132996624D01*
X182493317Y-132929998D01*
X182512737Y-132863372D01*
X182564911Y-132817618D01*
X182646410Y-132779615D01*
X182831009Y-132650358D01*
X182990358Y-132491009D01*
X183119615Y-132306410D01*
X183214853Y-132102170D01*
X183273179Y-131884496D01*
X183292820Y-131660000D01*
X183287571Y-131600000D01*
X193294540Y-131600000D01*
X193314326Y-131788257D01*
X193372820Y-131968284D01*
X193467466Y-132132216D01*
X193594129Y-132272889D01*
X193747269Y-132384151D01*
X193920197Y-132461144D01*
X194105352Y-132500500D01*
X194105354Y-132500500D01*
X194294646Y-132500500D01*
X194294648Y-132500500D01*
X194424641Y-132472869D01*
X194479803Y-132461144D01*
X194652730Y-132384151D01*
X194748199Y-132314789D01*
X194805870Y-132272889D01*
X194842943Y-132231716D01*
X194932533Y-132132216D01*
X195027179Y-131968284D01*
X195085674Y-131788256D01*
X195105460Y-131600000D01*
X195085674Y-131411744D01*
X195081858Y-131400000D01*
X202694540Y-131400000D01*
X202714326Y-131588257D01*
X202772820Y-131768284D01*
X202867466Y-131932216D01*
X202994129Y-132072889D01*
X203147269Y-132184151D01*
X203320197Y-132261144D01*
X203505352Y-132300500D01*
X203505354Y-132300500D01*
X203694646Y-132300500D01*
X203694648Y-132300500D01*
X203824551Y-132272888D01*
X203879803Y-132261144D01*
X204052730Y-132184151D01*
X204099047Y-132150500D01*
X204205870Y-132072889D01*
X204210468Y-132067783D01*
X204332533Y-131932216D01*
X204427179Y-131768284D01*
X204485674Y-131588256D01*
X204505460Y-131400000D01*
X204485674Y-131211744D01*
X204427179Y-131031716D01*
X204427179Y-131031715D01*
X204332533Y-130867783D01*
X204205870Y-130727110D01*
X204052730Y-130615848D01*
X204017135Y-130600000D01*
X213694540Y-130600000D01*
X213702655Y-130677211D01*
X213714326Y-130788257D01*
X213772820Y-130968284D01*
X213867466Y-131132216D01*
X213994129Y-131272889D01*
X214147269Y-131384151D01*
X214320197Y-131461144D01*
X214505352Y-131500500D01*
X214505354Y-131500500D01*
X214694646Y-131500500D01*
X214694648Y-131500500D01*
X214824551Y-131472888D01*
X214879803Y-131461144D01*
X215017133Y-131400000D01*
X216894540Y-131400000D01*
X216914326Y-131588257D01*
X216972820Y-131768284D01*
X217067466Y-131932216D01*
X217194129Y-132072889D01*
X217347269Y-132184151D01*
X217520197Y-132261144D01*
X217705352Y-132300500D01*
X217705354Y-132300500D01*
X217894646Y-132300500D01*
X217894648Y-132300500D01*
X218024551Y-132272888D01*
X218079803Y-132261144D01*
X218252730Y-132184151D01*
X218299047Y-132150500D01*
X218405870Y-132072889D01*
X218410468Y-132067783D01*
X218532533Y-131932216D01*
X218627179Y-131768284D01*
X218685674Y-131588256D01*
X218705460Y-131400000D01*
X218685674Y-131211744D01*
X218627179Y-131031716D01*
X218627179Y-131031715D01*
X218532533Y-130867783D01*
X218405870Y-130727110D01*
X218252730Y-130615848D01*
X218079802Y-130538855D01*
X217894648Y-130499500D01*
X217894646Y-130499500D01*
X217705354Y-130499500D01*
X217705352Y-130499500D01*
X217520197Y-130538855D01*
X217347269Y-130615848D01*
X217194129Y-130727110D01*
X217067466Y-130867783D01*
X216972820Y-131031715D01*
X216914326Y-131211742D01*
X216894540Y-131400000D01*
X215017133Y-131400000D01*
X215052730Y-131384151D01*
X215205871Y-131272888D01*
X215332533Y-131132216D01*
X215427179Y-130968284D01*
X215485674Y-130788256D01*
X215505460Y-130600000D01*
X215485674Y-130411744D01*
X215449528Y-130300500D01*
X215427179Y-130231715D01*
X215332533Y-130067783D01*
X215205870Y-129927110D01*
X215052730Y-129815848D01*
X214879802Y-129738855D01*
X214694648Y-129699500D01*
X214694646Y-129699500D01*
X214505354Y-129699500D01*
X214505352Y-129699500D01*
X214320197Y-129738855D01*
X214147269Y-129815848D01*
X213994129Y-129927110D01*
X213867466Y-130067783D01*
X213772820Y-130231715D01*
X213714326Y-130411742D01*
X213696206Y-130584151D01*
X213694540Y-130600000D01*
X204017135Y-130600000D01*
X203879802Y-130538855D01*
X203694648Y-130499500D01*
X203694646Y-130499500D01*
X203505354Y-130499500D01*
X203505352Y-130499500D01*
X203320197Y-130538855D01*
X203147269Y-130615848D01*
X202994129Y-130727110D01*
X202867466Y-130867783D01*
X202772820Y-131031715D01*
X202714326Y-131211742D01*
X202694540Y-131400000D01*
X195081858Y-131400000D01*
X195036741Y-131261144D01*
X195027179Y-131231715D01*
X194932533Y-131067783D01*
X194805870Y-130927110D01*
X194652730Y-130815848D01*
X194479802Y-130738855D01*
X194294648Y-130699500D01*
X194294646Y-130699500D01*
X194105354Y-130699500D01*
X194105352Y-130699500D01*
X193920197Y-130738855D01*
X193747269Y-130815848D01*
X193594129Y-130927110D01*
X193467466Y-131067783D01*
X193372820Y-131231715D01*
X193314326Y-131411742D01*
X193294540Y-131600000D01*
X183287571Y-131600000D01*
X183273179Y-131435504D01*
X183214853Y-131217830D01*
X183194881Y-131175000D01*
X183119617Y-131013593D01*
X183118321Y-131011742D01*
X182990358Y-130828991D01*
X182831009Y-130669642D01*
X182646410Y-130540385D01*
X182564912Y-130502382D01*
X182512737Y-130456626D01*
X182493317Y-130390000D01*
X182512737Y-130323374D01*
X182564912Y-130277617D01*
X182646410Y-130239615D01*
X182831009Y-130110358D01*
X182990358Y-129951009D01*
X183119615Y-129766410D01*
X183214853Y-129562170D01*
X183224411Y-129526500D01*
X218494540Y-129526500D01*
X218514326Y-129714757D01*
X218572820Y-129894784D01*
X218667466Y-130058716D01*
X218794129Y-130199389D01*
X218947269Y-130310651D01*
X219120197Y-130387644D01*
X219305352Y-130427000D01*
X219305354Y-130427000D01*
X219494646Y-130427000D01*
X219494648Y-130427000D01*
X219679799Y-130387645D01*
X219679799Y-130387644D01*
X219679803Y-130387644D01*
X219694991Y-130380881D01*
X219755801Y-130370595D01*
X219814046Y-130390876D01*
X219855316Y-130436710D01*
X219869401Y-130496756D01*
X219852815Y-130556160D01*
X219772820Y-130694715D01*
X219714326Y-130874742D01*
X219694540Y-131062999D01*
X219714326Y-131251257D01*
X219772820Y-131431284D01*
X219867466Y-131595216D01*
X219994129Y-131735889D01*
X220147269Y-131847151D01*
X220320197Y-131924144D01*
X220505352Y-131963500D01*
X220505354Y-131963500D01*
X220694646Y-131963500D01*
X220694648Y-131963500D01*
X220879800Y-131924145D01*
X220879801Y-131924144D01*
X220879803Y-131924144D01*
X221052730Y-131847151D01*
X221052734Y-131847147D01*
X221054818Y-131846220D01*
X221105253Y-131835499D01*
X221155688Y-131846218D01*
X221182986Y-131866051D01*
X221183585Y-131865228D01*
X221347269Y-131984151D01*
X221520197Y-132061144D01*
X221705352Y-132100500D01*
X221705354Y-132100500D01*
X221894646Y-132100500D01*
X221894648Y-132100500D01*
X222024551Y-132072888D01*
X222079803Y-132061144D01*
X222252730Y-131984151D01*
X222405871Y-131872888D01*
X222532533Y-131732216D01*
X222627179Y-131568284D01*
X222685674Y-131388256D01*
X222705460Y-131200000D01*
X222685674Y-131011744D01*
X222627179Y-130831716D01*
X222627179Y-130831715D01*
X222532533Y-130667783D01*
X222405870Y-130527110D01*
X222252730Y-130415848D01*
X222079802Y-130338855D01*
X221894648Y-130299500D01*
X221894646Y-130299500D01*
X221705354Y-130299500D01*
X221705352Y-130299500D01*
X221520197Y-130338855D01*
X221345179Y-130416779D01*
X221294740Y-130427500D01*
X221244302Y-130416777D01*
X221217013Y-130396948D01*
X221216415Y-130397772D01*
X221052730Y-130278848D01*
X220879802Y-130201855D01*
X220694648Y-130162500D01*
X220694646Y-130162500D01*
X220505354Y-130162500D01*
X220505352Y-130162500D01*
X220320196Y-130201855D01*
X220305005Y-130208619D01*
X220244194Y-130218904D01*
X220185950Y-130198621D01*
X220144681Y-130152787D01*
X220130598Y-130092742D01*
X220147184Y-130033339D01*
X220157283Y-130015848D01*
X220227179Y-129894784D01*
X220285674Y-129714756D01*
X220305460Y-129526500D01*
X220285674Y-129338244D01*
X220250920Y-129231284D01*
X220227179Y-129158215D01*
X220132533Y-128994283D01*
X220005870Y-128853610D01*
X219852730Y-128742348D01*
X219679802Y-128665355D01*
X219494648Y-128626000D01*
X219494646Y-128626000D01*
X219305354Y-128626000D01*
X219305352Y-128626000D01*
X219120197Y-128665355D01*
X218947269Y-128742348D01*
X218794129Y-128853610D01*
X218667466Y-128994283D01*
X218572820Y-129158215D01*
X218514326Y-129338242D01*
X218494540Y-129526500D01*
X183224411Y-129526500D01*
X183273179Y-129344496D01*
X183292820Y-129120000D01*
X183273179Y-128895504D01*
X183214853Y-128677830D01*
X183150049Y-128538856D01*
X183119617Y-128473593D01*
X183084552Y-128423515D01*
X182990358Y-128288991D01*
X182831009Y-128129642D01*
X182646410Y-128000385D01*
X182564912Y-127962382D01*
X182512737Y-127916626D01*
X182493317Y-127850000D01*
X182507891Y-127800000D01*
X224294540Y-127800000D01*
X224314326Y-127988257D01*
X224372820Y-128168284D01*
X224467466Y-128332216D01*
X224594129Y-128472889D01*
X224747269Y-128584151D01*
X224920197Y-128661144D01*
X225105352Y-128700500D01*
X225105354Y-128700500D01*
X225294646Y-128700500D01*
X225294648Y-128700500D01*
X225418083Y-128674262D01*
X225479803Y-128661144D01*
X225652730Y-128584151D01*
X225737591Y-128522495D01*
X225794935Y-128499792D01*
X225856124Y-128507522D01*
X225906020Y-128543773D01*
X225932280Y-128599578D01*
X225928408Y-128661131D01*
X225923985Y-128674740D01*
X225911281Y-128795613D01*
X225904199Y-128863000D01*
X225908035Y-128899500D01*
X225923985Y-129051257D01*
X225982479Y-129231284D01*
X226077125Y-129395216D01*
X226203788Y-129535889D01*
X226356928Y-129647151D01*
X226529856Y-129724144D01*
X226715011Y-129763500D01*
X226715013Y-129763500D01*
X226904305Y-129763500D01*
X226904307Y-129763500D01*
X227051486Y-129732216D01*
X227089462Y-129724144D01*
X227262389Y-129647151D01*
X227343450Y-129588257D01*
X227415529Y-129535889D01*
X227481171Y-129462987D01*
X227542192Y-129395216D01*
X227636838Y-129231284D01*
X227695333Y-129051256D01*
X227715119Y-128863000D01*
X227695333Y-128674744D01*
X227653112Y-128544804D01*
X227649754Y-128480706D01*
X227678894Y-128423515D01*
X227732726Y-128388556D01*
X227796825Y-128385197D01*
X227867352Y-128400188D01*
X227867354Y-128400188D01*
X228056646Y-128400188D01*
X228056648Y-128400188D01*
X228180084Y-128373950D01*
X228241803Y-128360832D01*
X228414730Y-128283839D01*
X228446717Y-128260598D01*
X228502340Y-128238125D01*
X228562009Y-128244396D01*
X228611749Y-128277946D01*
X228725317Y-128404077D01*
X228878457Y-128515339D01*
X229051385Y-128592332D01*
X229236540Y-128631688D01*
X229236542Y-128631688D01*
X229425834Y-128631688D01*
X229425836Y-128631688D01*
X229576901Y-128599578D01*
X229610991Y-128592332D01*
X229783918Y-128515339D01*
X229812303Y-128494716D01*
X229937058Y-128404077D01*
X229940729Y-128400000D01*
X232094540Y-128400000D01*
X232114326Y-128588257D01*
X232172820Y-128768284D01*
X232267466Y-128932216D01*
X232394129Y-129072889D01*
X232547269Y-129184151D01*
X232720197Y-129261144D01*
X232905352Y-129300500D01*
X232995721Y-129300500D01*
X233046156Y-129311220D01*
X233087871Y-129341528D01*
X233113652Y-129386182D01*
X233172820Y-129568284D01*
X233267466Y-129732216D01*
X233394129Y-129872889D01*
X233547269Y-129984151D01*
X233720197Y-130061144D01*
X233905352Y-130100500D01*
X233905354Y-130100500D01*
X234094646Y-130100500D01*
X234094648Y-130100500D01*
X234224551Y-130072888D01*
X234279803Y-130061144D01*
X234452730Y-129984151D01*
X234498346Y-129951009D01*
X234605870Y-129872889D01*
X234610468Y-129867783D01*
X234732533Y-129732216D01*
X234827179Y-129568284D01*
X234885674Y-129388256D01*
X234905460Y-129200000D01*
X234885674Y-129011744D01*
X234851466Y-128906462D01*
X234827179Y-128831715D01*
X234732533Y-128667783D01*
X234605870Y-128527110D01*
X234452730Y-128415848D01*
X234279802Y-128338855D01*
X234094648Y-128299500D01*
X234094646Y-128299500D01*
X234004279Y-128299500D01*
X233953844Y-128288780D01*
X233912129Y-128258472D01*
X233886348Y-128213818D01*
X233827179Y-128031715D01*
X233732533Y-127867783D01*
X233605870Y-127727110D01*
X233452730Y-127615848D01*
X233279802Y-127538855D01*
X233094648Y-127499500D01*
X233094646Y-127499500D01*
X232905354Y-127499500D01*
X232905352Y-127499500D01*
X232720197Y-127538855D01*
X232547269Y-127615848D01*
X232394129Y-127727110D01*
X232267466Y-127867783D01*
X232172820Y-128031715D01*
X232114326Y-128211742D01*
X232094540Y-128400000D01*
X229940729Y-128400000D01*
X229995784Y-128338856D01*
X230063721Y-128263404D01*
X230158367Y-128099472D01*
X230216862Y-127919444D01*
X230236648Y-127731188D01*
X230216862Y-127542932D01*
X230173998Y-127411012D01*
X230158367Y-127362903D01*
X230063721Y-127198971D01*
X229937058Y-127058298D01*
X229783918Y-126947036D01*
X229610990Y-126870043D01*
X229425836Y-126830688D01*
X229425834Y-126830688D01*
X229236542Y-126830688D01*
X229236540Y-126830688D01*
X229051385Y-126870043D01*
X228878458Y-126947036D01*
X228846472Y-126970275D01*
X228790844Y-126992749D01*
X228731177Y-126986478D01*
X228681438Y-126952928D01*
X228567870Y-126826798D01*
X228414730Y-126715536D01*
X228241802Y-126638543D01*
X228056648Y-126599188D01*
X228056646Y-126599188D01*
X227867354Y-126599188D01*
X227867352Y-126599188D01*
X227682197Y-126638543D01*
X227509271Y-126715535D01*
X227488934Y-126730311D01*
X227433306Y-126752785D01*
X227373639Y-126746512D01*
X227323902Y-126712963D01*
X227274683Y-126658300D01*
X227274682Y-126658299D01*
X227274681Y-126658298D01*
X227121542Y-126547036D01*
X226948614Y-126470043D01*
X226763460Y-126430688D01*
X226763458Y-126430688D01*
X226574166Y-126430688D01*
X226574164Y-126430688D01*
X226389009Y-126470043D01*
X226216081Y-126547036D01*
X226062941Y-126658298D01*
X225936278Y-126798971D01*
X225835116Y-126974191D01*
X225833024Y-126972983D01*
X225814116Y-127003827D01*
X225764755Y-127034068D01*
X225707045Y-127038607D01*
X225664676Y-127021057D01*
X225664636Y-127021149D01*
X225661129Y-127019587D01*
X225653564Y-127016454D01*
X225652729Y-127015848D01*
X225479802Y-126938855D01*
X225294648Y-126899500D01*
X225294646Y-126899500D01*
X225105354Y-126899500D01*
X225105352Y-126899500D01*
X224920197Y-126938855D01*
X224747269Y-127015848D01*
X224594129Y-127127110D01*
X224467466Y-127267783D01*
X224372820Y-127431715D01*
X224314326Y-127611742D01*
X224294540Y-127800000D01*
X182507891Y-127800000D01*
X182512737Y-127783374D01*
X182564912Y-127737617D01*
X182646410Y-127699615D01*
X182831009Y-127570358D01*
X182990358Y-127411009D01*
X183119615Y-127226410D01*
X183214853Y-127022170D01*
X183273179Y-126804496D01*
X183292820Y-126580000D01*
X183273179Y-126355504D01*
X183214853Y-126137830D01*
X183201875Y-126109999D01*
X189882676Y-126109999D01*
X189901929Y-126330065D01*
X189959106Y-126543451D01*
X189976866Y-126581537D01*
X190052466Y-126743662D01*
X190179174Y-126924620D01*
X190335380Y-127080826D01*
X190516338Y-127207534D01*
X190716550Y-127300894D01*
X190929932Y-127358070D01*
X191150000Y-127377323D01*
X191370068Y-127358070D01*
X191583450Y-127300894D01*
X191783662Y-127207534D01*
X191964620Y-127080826D01*
X192120826Y-126924620D01*
X192247534Y-126743662D01*
X192340894Y-126543450D01*
X192398070Y-126330068D01*
X192417323Y-126110000D01*
X192417323Y-126109999D01*
X197502676Y-126109999D01*
X197521929Y-126330065D01*
X197579106Y-126543451D01*
X197596866Y-126581537D01*
X197672466Y-126743662D01*
X197799174Y-126924620D01*
X197955380Y-127080826D01*
X198136338Y-127207534D01*
X198336550Y-127300894D01*
X198549932Y-127358070D01*
X198770000Y-127377323D01*
X198990068Y-127358070D01*
X199203450Y-127300894D01*
X199403662Y-127207534D01*
X199584620Y-127080826D01*
X199740826Y-126924620D01*
X199867534Y-126743662D01*
X199927617Y-126614811D01*
X199973375Y-126562635D01*
X200040000Y-126543216D01*
X200106625Y-126562635D01*
X200152382Y-126614811D01*
X200212466Y-126743662D01*
X200339174Y-126924620D01*
X200495380Y-127080826D01*
X200676338Y-127207534D01*
X200876550Y-127300894D01*
X201089932Y-127358070D01*
X201310000Y-127377323D01*
X201530068Y-127358070D01*
X201743450Y-127300894D01*
X201943662Y-127207534D01*
X202124620Y-127080826D01*
X202280826Y-126924620D01*
X202407534Y-126743662D01*
X202467617Y-126614811D01*
X202513375Y-126562635D01*
X202580000Y-126543216D01*
X202646625Y-126562635D01*
X202692382Y-126614811D01*
X202752466Y-126743662D01*
X202879174Y-126924620D01*
X203035380Y-127080826D01*
X203216338Y-127207534D01*
X203416550Y-127300894D01*
X203629932Y-127358070D01*
X203850000Y-127377323D01*
X204070068Y-127358070D01*
X204283450Y-127300894D01*
X204483662Y-127207534D01*
X204664620Y-127080826D01*
X204820826Y-126924620D01*
X204947534Y-126743662D01*
X205040894Y-126543450D01*
X205098070Y-126330068D01*
X205114387Y-126143553D01*
X205138108Y-126080778D01*
X205191062Y-126039553D01*
X205257739Y-126031956D01*
X205318610Y-126060211D01*
X205355846Y-126116042D01*
X205372821Y-126168285D01*
X205467466Y-126332216D01*
X205594129Y-126472889D01*
X205747269Y-126584151D01*
X205920197Y-126661144D01*
X206105352Y-126700500D01*
X206105354Y-126700500D01*
X206294646Y-126700500D01*
X206294648Y-126700500D01*
X206418084Y-126674262D01*
X206479803Y-126661144D01*
X206652730Y-126584151D01*
X206708750Y-126543450D01*
X206805870Y-126472889D01*
X206886520Y-126383319D01*
X206932533Y-126332216D01*
X207027179Y-126168284D01*
X207085674Y-125988256D01*
X207105460Y-125800000D01*
X207085674Y-125611744D01*
X207041678Y-125476338D01*
X207027179Y-125431715D01*
X206932533Y-125267783D01*
X206805870Y-125127110D01*
X206652730Y-125015848D01*
X206479802Y-124938855D01*
X206294648Y-124899500D01*
X206294646Y-124899500D01*
X206105354Y-124899500D01*
X206105352Y-124899500D01*
X205920197Y-124938855D01*
X205747269Y-125015848D01*
X205594129Y-125127110D01*
X205467466Y-125267783D01*
X205372820Y-125431715D01*
X205314326Y-125611742D01*
X205302331Y-125725869D01*
X205276989Y-125788908D01*
X205222232Y-125829130D01*
X205154500Y-125834461D01*
X205094126Y-125803299D01*
X205059235Y-125745000D01*
X205040894Y-125676550D01*
X204947534Y-125476339D01*
X204820826Y-125295380D01*
X204664620Y-125139174D01*
X204483662Y-125012466D01*
X204388913Y-124968284D01*
X204283451Y-124919106D01*
X204070065Y-124861929D01*
X203850000Y-124842676D01*
X203629934Y-124861929D01*
X203416548Y-124919106D01*
X203216338Y-125012466D01*
X203035379Y-125139174D01*
X202879174Y-125295379D01*
X202752466Y-125476338D01*
X202692382Y-125605189D01*
X202646625Y-125657365D01*
X202580000Y-125676784D01*
X202513375Y-125657365D01*
X202467618Y-125605189D01*
X202429865Y-125524228D01*
X202407534Y-125476339D01*
X202280826Y-125295380D01*
X202124620Y-125139174D01*
X201943662Y-125012466D01*
X201848913Y-124968284D01*
X201743451Y-124919106D01*
X201530065Y-124861929D01*
X201310000Y-124842676D01*
X201089934Y-124861929D01*
X200876548Y-124919106D01*
X200676338Y-125012466D01*
X200495379Y-125139174D01*
X200339174Y-125295379D01*
X200212466Y-125476338D01*
X200152382Y-125605189D01*
X200106625Y-125657365D01*
X200040000Y-125676784D01*
X199973375Y-125657365D01*
X199927618Y-125605189D01*
X199889865Y-125524228D01*
X199867534Y-125476339D01*
X199740826Y-125295380D01*
X199584620Y-125139174D01*
X199403662Y-125012466D01*
X199308913Y-124968284D01*
X199203451Y-124919106D01*
X198990065Y-124861929D01*
X198770000Y-124842676D01*
X198549934Y-124861929D01*
X198336548Y-124919106D01*
X198136338Y-125012466D01*
X197955379Y-125139174D01*
X197799174Y-125295379D01*
X197672466Y-125476338D01*
X197579106Y-125676548D01*
X197521929Y-125889934D01*
X197502676Y-126109999D01*
X192417323Y-126109999D01*
X192414766Y-126080778D01*
X192398070Y-125889934D01*
X192398070Y-125889932D01*
X192340894Y-125676550D01*
X192247534Y-125476339D01*
X192120826Y-125295380D01*
X191964620Y-125139174D01*
X191783662Y-125012466D01*
X191688913Y-124968284D01*
X191583451Y-124919106D01*
X191370065Y-124861929D01*
X191150000Y-124842676D01*
X190929934Y-124861929D01*
X190716548Y-124919106D01*
X190516338Y-125012466D01*
X190335379Y-125139174D01*
X190179174Y-125295379D01*
X190052466Y-125476338D01*
X189959106Y-125676548D01*
X189901929Y-125889934D01*
X189882676Y-126109999D01*
X183201875Y-126109999D01*
X183169026Y-126039553D01*
X183119617Y-125933593D01*
X183119615Y-125933590D01*
X182990358Y-125748991D01*
X182831009Y-125589642D01*
X182646410Y-125460385D01*
X182564912Y-125422382D01*
X182512737Y-125376626D01*
X182493317Y-125310000D01*
X182512737Y-125243374D01*
X182564912Y-125197617D01*
X182646410Y-125159615D01*
X182831009Y-125030358D01*
X182990358Y-124871009D01*
X183119615Y-124686410D01*
X183183224Y-124550000D01*
X184594540Y-124550000D01*
X184614326Y-124738257D01*
X184672820Y-124918284D01*
X184767466Y-125082216D01*
X184894129Y-125222889D01*
X185047269Y-125334151D01*
X185220197Y-125411144D01*
X185405352Y-125450500D01*
X185405354Y-125450500D01*
X185594646Y-125450500D01*
X185594648Y-125450500D01*
X185726932Y-125422382D01*
X185779803Y-125411144D01*
X185952730Y-125334151D01*
X186053216Y-125261144D01*
X186105870Y-125222889D01*
X186126480Y-125200000D01*
X186232533Y-125082216D01*
X186327179Y-124918284D01*
X186385674Y-124738256D01*
X186405460Y-124550000D01*
X186385674Y-124361744D01*
X186327179Y-124181716D01*
X186327179Y-124181715D01*
X186232533Y-124017783D01*
X186105870Y-123877110D01*
X185952730Y-123765848D01*
X185779802Y-123688855D01*
X185594648Y-123649500D01*
X185594646Y-123649500D01*
X185405354Y-123649500D01*
X185405352Y-123649500D01*
X185220197Y-123688855D01*
X185047269Y-123765848D01*
X184894129Y-123877110D01*
X184767466Y-124017783D01*
X184672820Y-124181715D01*
X184614326Y-124361742D01*
X184594540Y-124550000D01*
X183183224Y-124550000D01*
X183214853Y-124482170D01*
X183273179Y-124264496D01*
X183292820Y-124040000D01*
X183273179Y-123815504D01*
X183214853Y-123597830D01*
X183187353Y-123538855D01*
X183169234Y-123499999D01*
X187594540Y-123499999D01*
X187614326Y-123688257D01*
X187672820Y-123868284D01*
X187767466Y-124032216D01*
X187894129Y-124172889D01*
X188047269Y-124284151D01*
X188220197Y-124361144D01*
X188405352Y-124400500D01*
X188405354Y-124400500D01*
X188594646Y-124400500D01*
X188594648Y-124400500D01*
X188597005Y-124399999D01*
X213894540Y-124399999D01*
X213914326Y-124588257D01*
X213972820Y-124768284D01*
X214067466Y-124932216D01*
X214194129Y-125072889D01*
X214347269Y-125184151D01*
X214520197Y-125261144D01*
X214705352Y-125300500D01*
X214705354Y-125300500D01*
X214894646Y-125300500D01*
X214894648Y-125300500D01*
X215024551Y-125272888D01*
X215079803Y-125261144D01*
X215252730Y-125184151D01*
X215286501Y-125159615D01*
X215405870Y-125072889D01*
X215532533Y-124932216D01*
X215627179Y-124768284D01*
X215649203Y-124700500D01*
X215685674Y-124588256D01*
X215705460Y-124400000D01*
X215685674Y-124211744D01*
X215629871Y-124040000D01*
X215627179Y-124031715D01*
X215532533Y-123867783D01*
X215405870Y-123727110D01*
X215252730Y-123615848D01*
X215217135Y-123600000D01*
X222894540Y-123600000D01*
X222914326Y-123788257D01*
X222972820Y-123968284D01*
X223067466Y-124132216D01*
X223194129Y-124272889D01*
X223347269Y-124384151D01*
X223520197Y-124461144D01*
X223705352Y-124500500D01*
X223772432Y-124500500D01*
X223830646Y-124515015D01*
X223875233Y-124555160D01*
X223895753Y-124611539D01*
X223914326Y-124788259D01*
X223923315Y-124815922D01*
X223927500Y-124875772D01*
X223903097Y-124930581D01*
X223855820Y-124967518D01*
X223747269Y-125015848D01*
X223594129Y-125127110D01*
X223467466Y-125267783D01*
X223372820Y-125431715D01*
X223314326Y-125611742D01*
X223294540Y-125800000D01*
X223314326Y-125988257D01*
X223372820Y-126168284D01*
X223467466Y-126332216D01*
X223594129Y-126472889D01*
X223747269Y-126584151D01*
X223920197Y-126661144D01*
X224105352Y-126700500D01*
X224105354Y-126700500D01*
X224294646Y-126700500D01*
X224294648Y-126700500D01*
X224418084Y-126674262D01*
X224479803Y-126661144D01*
X224652730Y-126584151D01*
X224708750Y-126543450D01*
X224805870Y-126472889D01*
X224886520Y-126383319D01*
X224932533Y-126332216D01*
X225027179Y-126168284D01*
X225085674Y-125988256D01*
X225105460Y-125800000D01*
X233094540Y-125800000D01*
X233114326Y-125988257D01*
X233172820Y-126168284D01*
X233267466Y-126332216D01*
X233394129Y-126472889D01*
X233547269Y-126584151D01*
X233720197Y-126661144D01*
X233905352Y-126700500D01*
X233905354Y-126700500D01*
X234094646Y-126700500D01*
X234094648Y-126700500D01*
X234218084Y-126674262D01*
X234279803Y-126661144D01*
X234452730Y-126584151D01*
X234508750Y-126543450D01*
X234605870Y-126472889D01*
X234686520Y-126383319D01*
X234732533Y-126332216D01*
X234827179Y-126168284D01*
X234885674Y-125988256D01*
X234905460Y-125800000D01*
X234885674Y-125611744D01*
X234841678Y-125476338D01*
X234827179Y-125431715D01*
X234732533Y-125267783D01*
X234605870Y-125127110D01*
X234452730Y-125015848D01*
X234279802Y-124938855D01*
X234094648Y-124899500D01*
X234094646Y-124899500D01*
X233905354Y-124899500D01*
X233905352Y-124899500D01*
X233720197Y-124938855D01*
X233547269Y-125015848D01*
X233394129Y-125127110D01*
X233267466Y-125267783D01*
X233172820Y-125431715D01*
X233114326Y-125611742D01*
X233094540Y-125800000D01*
X225105460Y-125800000D01*
X225085674Y-125611744D01*
X225076683Y-125584075D01*
X225072499Y-125524228D01*
X225096902Y-125469418D01*
X225144176Y-125432482D01*
X225252730Y-125384151D01*
X225405871Y-125272888D01*
X225532533Y-125132216D01*
X225627179Y-124968284D01*
X225685674Y-124788256D01*
X225705460Y-124600000D01*
X225685674Y-124411744D01*
X225655332Y-124318363D01*
X225627179Y-124231715D01*
X225532533Y-124067783D01*
X225405870Y-123927110D01*
X225252730Y-123815848D01*
X225079802Y-123738855D01*
X224894648Y-123699500D01*
X224894646Y-123699500D01*
X224827568Y-123699500D01*
X224769354Y-123684985D01*
X224724767Y-123644840D01*
X224704247Y-123588461D01*
X224685674Y-123411744D01*
X224631475Y-123244937D01*
X224627179Y-123231715D01*
X224532533Y-123067783D01*
X224405870Y-122927110D01*
X224252730Y-122815848D01*
X224079802Y-122738855D01*
X223894648Y-122699500D01*
X223894646Y-122699500D01*
X223705354Y-122699500D01*
X223705352Y-122699500D01*
X223520197Y-122738855D01*
X223347269Y-122815848D01*
X223194129Y-122927110D01*
X223067466Y-123067783D01*
X222972820Y-123231715D01*
X222914326Y-123411742D01*
X222894540Y-123600000D01*
X215217135Y-123600000D01*
X215079802Y-123538855D01*
X214894648Y-123499500D01*
X214894646Y-123499500D01*
X214705354Y-123499500D01*
X214705352Y-123499500D01*
X214520197Y-123538855D01*
X214347269Y-123615848D01*
X214194129Y-123727110D01*
X214067466Y-123867783D01*
X213972820Y-124031715D01*
X213914326Y-124211742D01*
X213894540Y-124399999D01*
X188597005Y-124399999D01*
X188718083Y-124374262D01*
X188779803Y-124361144D01*
X188952730Y-124284151D01*
X189045876Y-124216477D01*
X189105870Y-124172889D01*
X189154841Y-124118502D01*
X189232533Y-124032216D01*
X189327179Y-123868284D01*
X189385674Y-123688256D01*
X189405460Y-123500000D01*
X189385674Y-123311744D01*
X189349366Y-123200000D01*
X190944540Y-123200000D01*
X190945485Y-123208987D01*
X190964326Y-123388257D01*
X191022820Y-123568284D01*
X191117466Y-123732216D01*
X191244129Y-123872889D01*
X191397269Y-123984151D01*
X191570197Y-124061144D01*
X191755352Y-124100500D01*
X191755354Y-124100500D01*
X191944646Y-124100500D01*
X191944648Y-124100500D01*
X192068084Y-124074262D01*
X192129803Y-124061144D01*
X192302730Y-123984151D01*
X192392870Y-123918661D01*
X192455870Y-123872889D01*
X192460468Y-123867783D01*
X192582533Y-123732216D01*
X192677179Y-123568284D01*
X192735674Y-123388256D01*
X192755460Y-123200000D01*
X192735674Y-123011744D01*
X192703070Y-122911401D01*
X192677179Y-122831715D01*
X192582533Y-122667783D01*
X192455870Y-122527110D01*
X192302730Y-122415848D01*
X192129802Y-122338855D01*
X191944648Y-122299500D01*
X191944646Y-122299500D01*
X191755354Y-122299500D01*
X191755352Y-122299500D01*
X191570197Y-122338855D01*
X191397269Y-122415848D01*
X191244129Y-122527110D01*
X191117466Y-122667783D01*
X191022820Y-122831715D01*
X190964326Y-123011742D01*
X190951717Y-123131715D01*
X190944540Y-123200000D01*
X189349366Y-123200000D01*
X189327179Y-123131716D01*
X189327179Y-123131715D01*
X189232533Y-122967783D01*
X189105870Y-122827110D01*
X188952730Y-122715848D01*
X188779802Y-122638855D01*
X188594648Y-122599500D01*
X188594646Y-122599500D01*
X188405354Y-122599500D01*
X188405352Y-122599500D01*
X188220197Y-122638855D01*
X188047269Y-122715848D01*
X187894129Y-122827110D01*
X187767466Y-122967783D01*
X187672820Y-123131715D01*
X187614326Y-123311742D01*
X187594540Y-123499999D01*
X183169234Y-123499999D01*
X183119617Y-123393593D01*
X183111300Y-123381715D01*
X182990358Y-123208991D01*
X182831009Y-123049642D01*
X182706804Y-122962673D01*
X182666478Y-122915457D01*
X182654099Y-122854609D01*
X182672771Y-122795389D01*
X182717813Y-122752646D01*
X182777928Y-122737099D01*
X182784472Y-122737099D01*
X182844083Y-122730691D01*
X182978931Y-122680396D01*
X183094146Y-122594146D01*
X183180396Y-122478931D01*
X183230691Y-122344083D01*
X183237100Y-122284473D01*
X183237099Y-120715528D01*
X183230691Y-120655917D01*
X183180396Y-120521069D01*
X183094146Y-120405854D01*
X182978931Y-120319604D01*
X182844083Y-120269309D01*
X182784473Y-120262900D01*
X182784469Y-120262900D01*
X182777930Y-120262900D01*
X182717814Y-120247353D01*
X182672772Y-120204610D01*
X182654100Y-120145390D01*
X182666480Y-120084542D01*
X182706805Y-120037326D01*
X182831009Y-119950358D01*
X182990358Y-119791009D01*
X183119615Y-119606410D01*
X183129995Y-119584151D01*
X183212583Y-119407037D01*
X183214853Y-119402170D01*
X183273179Y-119184496D01*
X183292820Y-118960000D01*
X183273179Y-118735504D01*
X183236737Y-118599500D01*
X224569995Y-118599500D01*
X224571282Y-118611742D01*
X224589781Y-118787757D01*
X224648275Y-118967784D01*
X224742921Y-119131716D01*
X224869584Y-119272389D01*
X225022724Y-119383651D01*
X225195652Y-119460644D01*
X225380807Y-119500000D01*
X225380809Y-119500000D01*
X225570101Y-119500000D01*
X225570103Y-119500000D01*
X225697654Y-119472888D01*
X225755258Y-119460644D01*
X225928185Y-119383651D01*
X225976773Y-119348350D01*
X226081325Y-119272389D01*
X226207988Y-119131716D01*
X226302634Y-118967784D01*
X226324496Y-118900500D01*
X226357151Y-118799999D01*
X227094540Y-118799999D01*
X227114326Y-118988257D01*
X227172820Y-119168284D01*
X227267466Y-119332216D01*
X227394129Y-119472889D01*
X227547269Y-119584151D01*
X227720197Y-119661144D01*
X227905352Y-119700500D01*
X227905354Y-119700500D01*
X228094646Y-119700500D01*
X228094648Y-119700500D01*
X228218083Y-119674262D01*
X228279803Y-119661144D01*
X228452730Y-119584151D01*
X228452730Y-119584150D01*
X228605870Y-119472889D01*
X228610468Y-119467783D01*
X228732533Y-119332216D01*
X228827179Y-119168284D01*
X228885674Y-118988256D01*
X228905460Y-118800000D01*
X228885674Y-118611744D01*
X228827179Y-118431716D01*
X228827179Y-118431715D01*
X228732533Y-118267783D01*
X228605870Y-118127110D01*
X228452730Y-118015848D01*
X228279802Y-117938855D01*
X228094648Y-117899500D01*
X228094646Y-117899500D01*
X227905354Y-117899500D01*
X227905352Y-117899500D01*
X227720197Y-117938855D01*
X227547269Y-118015848D01*
X227394129Y-118127110D01*
X227267466Y-118267783D01*
X227172820Y-118431715D01*
X227114326Y-118611742D01*
X227094540Y-118799999D01*
X226357151Y-118799999D01*
X226361129Y-118787756D01*
X226380915Y-118599500D01*
X226361129Y-118411244D01*
X226322532Y-118292454D01*
X226302634Y-118231215D01*
X226207988Y-118067283D01*
X226081325Y-117926610D01*
X225928185Y-117815348D01*
X225755257Y-117738355D01*
X225570103Y-117699000D01*
X225570101Y-117699000D01*
X225380809Y-117699000D01*
X225380807Y-117699000D01*
X225195652Y-117738355D01*
X225022724Y-117815348D01*
X224869584Y-117926610D01*
X224742921Y-118067283D01*
X224648275Y-118231215D01*
X224589781Y-118411242D01*
X224577067Y-118532216D01*
X224569995Y-118599500D01*
X183236737Y-118599500D01*
X183214853Y-118517830D01*
X183165384Y-118411742D01*
X183119617Y-118313593D01*
X183087541Y-118267784D01*
X182990358Y-118128991D01*
X182831009Y-117969642D01*
X182646410Y-117840385D01*
X182646409Y-117840384D01*
X182646407Y-117840383D01*
X182564912Y-117802381D01*
X182512736Y-117756624D01*
X182493317Y-117689998D01*
X182512737Y-117623372D01*
X182539388Y-117600000D01*
X187244540Y-117600000D01*
X187246997Y-117623375D01*
X187264326Y-117788257D01*
X187322820Y-117968284D01*
X187417466Y-118132216D01*
X187544129Y-118272889D01*
X187697269Y-118384151D01*
X187870197Y-118461144D01*
X188055352Y-118500500D01*
X188055354Y-118500500D01*
X188244646Y-118500500D01*
X188244648Y-118500500D01*
X188368084Y-118474262D01*
X188429803Y-118461144D01*
X188602730Y-118384151D01*
X188699845Y-118313593D01*
X188755870Y-118272889D01*
X188760468Y-118267783D01*
X188882533Y-118132216D01*
X188977179Y-117968284D01*
X189035674Y-117788256D01*
X189055460Y-117600000D01*
X189035674Y-117411744D01*
X188977179Y-117231716D01*
X188977179Y-117231715D01*
X188882533Y-117067783D01*
X188755870Y-116927110D01*
X188602730Y-116815848D01*
X188429802Y-116738855D01*
X188244648Y-116699500D01*
X188244646Y-116699500D01*
X188055354Y-116699500D01*
X188055352Y-116699500D01*
X187870197Y-116738855D01*
X187697269Y-116815848D01*
X187544129Y-116927110D01*
X187417466Y-117067783D01*
X187322820Y-117231715D01*
X187264326Y-117411742D01*
X187246892Y-117577618D01*
X187244540Y-117600000D01*
X182539388Y-117600000D01*
X182564911Y-117577618D01*
X182646410Y-117539615D01*
X182831009Y-117410358D01*
X182990358Y-117251009D01*
X183119615Y-117066410D01*
X183214853Y-116862170D01*
X183273179Y-116644496D01*
X183292820Y-116420000D01*
X183273179Y-116195504D01*
X183214853Y-115977830D01*
X183164933Y-115870775D01*
X183131930Y-115799999D01*
X183494540Y-115799999D01*
X183514326Y-115988257D01*
X183572820Y-116168284D01*
X183667466Y-116332216D01*
X183794129Y-116472889D01*
X183947269Y-116584151D01*
X184120197Y-116661144D01*
X184305352Y-116700500D01*
X184305354Y-116700500D01*
X184494646Y-116700500D01*
X184494648Y-116700500D01*
X184618084Y-116674262D01*
X184679803Y-116661144D01*
X184852730Y-116584151D01*
X184874569Y-116568284D01*
X185005870Y-116472889D01*
X185010468Y-116467783D01*
X185132533Y-116332216D01*
X185227179Y-116168284D01*
X185285674Y-115988256D01*
X185305460Y-115800000D01*
X185300205Y-115750000D01*
X186044540Y-115750000D01*
X186064326Y-115938257D01*
X186122820Y-116118284D01*
X186217466Y-116282216D01*
X186344129Y-116422889D01*
X186497269Y-116534151D01*
X186670197Y-116611144D01*
X186855352Y-116650500D01*
X186855354Y-116650500D01*
X187044646Y-116650500D01*
X187044648Y-116650500D01*
X187168084Y-116624262D01*
X187229803Y-116611144D01*
X187402730Y-116534151D01*
X187449735Y-116500000D01*
X187555870Y-116422889D01*
X187682533Y-116282216D01*
X187730000Y-116200000D01*
X220894540Y-116200000D01*
X220914326Y-116388257D01*
X220972820Y-116568284D01*
X221067466Y-116732216D01*
X221194129Y-116872889D01*
X221347269Y-116984151D01*
X221520197Y-117061144D01*
X221705352Y-117100500D01*
X221705354Y-117100500D01*
X221894646Y-117100500D01*
X221894648Y-117100500D01*
X222018084Y-117074262D01*
X222079803Y-117061144D01*
X222252730Y-116984151D01*
X222405871Y-116872888D01*
X222532533Y-116732216D01*
X222608868Y-116600000D01*
X223494540Y-116600000D01*
X223514326Y-116788257D01*
X223572820Y-116968284D01*
X223667466Y-117132216D01*
X223794129Y-117272889D01*
X223947269Y-117384151D01*
X224120197Y-117461144D01*
X224305352Y-117500500D01*
X224305354Y-117500500D01*
X224494646Y-117500500D01*
X224494648Y-117500500D01*
X224618084Y-117474262D01*
X224679803Y-117461144D01*
X224852730Y-117384151D01*
X225005871Y-117272888D01*
X225132533Y-117132216D01*
X225227179Y-116968284D01*
X225285674Y-116788256D01*
X225305460Y-116600000D01*
X225285674Y-116411744D01*
X225243588Y-116282216D01*
X225227179Y-116231715D01*
X225132533Y-116067783D01*
X225005870Y-115927110D01*
X224852730Y-115815848D01*
X224679802Y-115738855D01*
X224494648Y-115699500D01*
X224494646Y-115699500D01*
X224305354Y-115699500D01*
X224305352Y-115699500D01*
X224120197Y-115738855D01*
X223947269Y-115815848D01*
X223794129Y-115927110D01*
X223667466Y-116067783D01*
X223572820Y-116231715D01*
X223514326Y-116411742D01*
X223494540Y-116600000D01*
X222608868Y-116600000D01*
X222627179Y-116568284D01*
X222685674Y-116388256D01*
X222705460Y-116200000D01*
X222685674Y-116011744D01*
X222627179Y-115831716D01*
X222627179Y-115831715D01*
X222532533Y-115667783D01*
X222405870Y-115527110D01*
X222252730Y-115415848D01*
X222079802Y-115338855D01*
X221894648Y-115299500D01*
X221894646Y-115299500D01*
X221705354Y-115299500D01*
X221705352Y-115299500D01*
X221520197Y-115338855D01*
X221347269Y-115415848D01*
X221194129Y-115527110D01*
X221067466Y-115667783D01*
X220972820Y-115831715D01*
X220914326Y-116011742D01*
X220894540Y-116200000D01*
X187730000Y-116200000D01*
X187777179Y-116118284D01*
X187790552Y-116077127D01*
X187835674Y-115938256D01*
X187855460Y-115750000D01*
X187835674Y-115561744D01*
X187777179Y-115381716D01*
X187777179Y-115381715D01*
X187725355Y-115291953D01*
X187708987Y-115237739D01*
X187718431Y-115181901D01*
X187751718Y-115136086D01*
X187801904Y-115109849D01*
X187858523Y-115108663D01*
X188055352Y-115150500D01*
X188055354Y-115150500D01*
X188244646Y-115150500D01*
X188244648Y-115150500D01*
X188368084Y-115124262D01*
X188429803Y-115111144D01*
X188602730Y-115034151D01*
X188696740Y-114965849D01*
X188755870Y-114922889D01*
X188785349Y-114890150D01*
X188882533Y-114782216D01*
X188977179Y-114618284D01*
X189035674Y-114438256D01*
X189055460Y-114250000D01*
X189035674Y-114061744D01*
X189005332Y-113968363D01*
X188977179Y-113881715D01*
X188882533Y-113717783D01*
X188755870Y-113577110D01*
X188602730Y-113465848D01*
X188429802Y-113388855D01*
X188244648Y-113349500D01*
X188244646Y-113349500D01*
X188055354Y-113349500D01*
X188055352Y-113349500D01*
X187870197Y-113388855D01*
X187697269Y-113465848D01*
X187544129Y-113577110D01*
X187417466Y-113717783D01*
X187322820Y-113881715D01*
X187264326Y-114061742D01*
X187244540Y-114250000D01*
X187264326Y-114438257D01*
X187322821Y-114618286D01*
X187374644Y-114708047D01*
X187391012Y-114762260D01*
X187381568Y-114818098D01*
X187348281Y-114863913D01*
X187298095Y-114890150D01*
X187241477Y-114891336D01*
X187044649Y-114849500D01*
X187044646Y-114849500D01*
X186855354Y-114849500D01*
X186855352Y-114849500D01*
X186670197Y-114888855D01*
X186497269Y-114965848D01*
X186344129Y-115077110D01*
X186217466Y-115217783D01*
X186122820Y-115381715D01*
X186064326Y-115561742D01*
X186044540Y-115750000D01*
X185300205Y-115750000D01*
X185285674Y-115611744D01*
X185227179Y-115431716D01*
X185227179Y-115431715D01*
X185132533Y-115267783D01*
X185005870Y-115127110D01*
X184852730Y-115015848D01*
X184679802Y-114938855D01*
X184494648Y-114899500D01*
X184494646Y-114899500D01*
X184305354Y-114899500D01*
X184305352Y-114899500D01*
X184120197Y-114938855D01*
X183947269Y-115015848D01*
X183794129Y-115127110D01*
X183667466Y-115267783D01*
X183572820Y-115431715D01*
X183514326Y-115611742D01*
X183494540Y-115799999D01*
X183131930Y-115799999D01*
X183119617Y-115773593D01*
X183095293Y-115738855D01*
X182990358Y-115588991D01*
X182831009Y-115429642D01*
X182646410Y-115300385D01*
X182564912Y-115262382D01*
X182512737Y-115216626D01*
X182493317Y-115150000D01*
X182512737Y-115083374D01*
X182564912Y-115037617D01*
X182646410Y-114999615D01*
X182831009Y-114870358D01*
X182990358Y-114711009D01*
X183119615Y-114526410D01*
X183214853Y-114322170D01*
X183273179Y-114104496D01*
X183292820Y-113880000D01*
X183273179Y-113655504D01*
X183214853Y-113437830D01*
X183192016Y-113388855D01*
X183173898Y-113350000D01*
X183694540Y-113350000D01*
X183714326Y-113538257D01*
X183772820Y-113718284D01*
X183867466Y-113882216D01*
X183994129Y-114022889D01*
X184147269Y-114134151D01*
X184320197Y-114211144D01*
X184505352Y-114250500D01*
X184505354Y-114250500D01*
X184694646Y-114250500D01*
X184694648Y-114250500D01*
X184818084Y-114224262D01*
X184879803Y-114211144D01*
X185052730Y-114134151D01*
X185205871Y-114022888D01*
X185332533Y-113882216D01*
X185427179Y-113718284D01*
X185485674Y-113538256D01*
X185505460Y-113350000D01*
X185485674Y-113161744D01*
X185427179Y-112981716D01*
X185427179Y-112981715D01*
X185332533Y-112817783D01*
X185205870Y-112677110D01*
X185052730Y-112565848D01*
X184879802Y-112488855D01*
X184694648Y-112449500D01*
X184694646Y-112449500D01*
X184505354Y-112449500D01*
X184505352Y-112449500D01*
X184320197Y-112488855D01*
X184147269Y-112565848D01*
X183994129Y-112677110D01*
X183867466Y-112817783D01*
X183772820Y-112981715D01*
X183714326Y-113161742D01*
X183694540Y-113350000D01*
X183173898Y-113350000D01*
X183119617Y-113233593D01*
X183069308Y-113161744D01*
X182990358Y-113048991D01*
X182831009Y-112889642D01*
X182646410Y-112760385D01*
X182646409Y-112760384D01*
X182646407Y-112760383D01*
X182564912Y-112722381D01*
X182512736Y-112676624D01*
X182493317Y-112609998D01*
X182512737Y-112543372D01*
X182564911Y-112497618D01*
X182646410Y-112459615D01*
X182831009Y-112330358D01*
X182990358Y-112171009D01*
X183110099Y-112000000D01*
X227744680Y-112000000D01*
X227763948Y-112404494D01*
X227821579Y-112805325D01*
X227842034Y-112889642D01*
X227917051Y-113198867D01*
X228049496Y-113581542D01*
X228217720Y-113949900D01*
X228420197Y-114300601D01*
X228646421Y-114618286D01*
X228655093Y-114630464D01*
X228920280Y-114936507D01*
X229213358Y-115215956D01*
X229531672Y-115466281D01*
X229531679Y-115466285D01*
X229531681Y-115466287D01*
X229872331Y-115685210D01*
X229872337Y-115685213D01*
X229872340Y-115685215D01*
X230232276Y-115870775D01*
X230608221Y-116021281D01*
X230996770Y-116135369D01*
X231394405Y-116212007D01*
X231797524Y-116250500D01*
X232202471Y-116250500D01*
X232202476Y-116250500D01*
X232605595Y-116212007D01*
X233003230Y-116135369D01*
X233391779Y-116021281D01*
X233767724Y-115870775D01*
X234127660Y-115685215D01*
X234468328Y-115466281D01*
X234786642Y-115215956D01*
X235079720Y-114936507D01*
X235344907Y-114630464D01*
X235579803Y-114300600D01*
X235782279Y-113949900D01*
X235950503Y-113581543D01*
X236082950Y-113198862D01*
X236178421Y-112805325D01*
X236236052Y-112404494D01*
X236255320Y-112000000D01*
X236236052Y-111595506D01*
X236178421Y-111194675D01*
X236082950Y-110801138D01*
X235950503Y-110418457D01*
X235949312Y-110415848D01*
X235782279Y-110050099D01*
X235579802Y-109699398D01*
X235344910Y-109369540D01*
X235301816Y-109319807D01*
X235079720Y-109063493D01*
X234786642Y-108784044D01*
X234468328Y-108533719D01*
X234468321Y-108533715D01*
X234468318Y-108533712D01*
X234127668Y-108314789D01*
X234012632Y-108255484D01*
X233767724Y-108129225D01*
X233391779Y-107978719D01*
X233391778Y-107978718D01*
X233391774Y-107978717D01*
X233003228Y-107864630D01*
X232605601Y-107787994D01*
X232605599Y-107787993D01*
X232605595Y-107787993D01*
X232202476Y-107749500D01*
X231797524Y-107749500D01*
X231394405Y-107787993D01*
X231394401Y-107787993D01*
X231394398Y-107787994D01*
X230996771Y-107864630D01*
X230608225Y-107978717D01*
X230232276Y-108129225D01*
X229872331Y-108314789D01*
X229531681Y-108533712D01*
X229213354Y-108784047D01*
X228920280Y-109063492D01*
X228655089Y-109369540D01*
X228420197Y-109699398D01*
X228217720Y-110050099D01*
X228049496Y-110418457D01*
X227917051Y-110801132D01*
X227854752Y-111057931D01*
X227821579Y-111194675D01*
X227763948Y-111595506D01*
X227744680Y-112000000D01*
X183110099Y-112000000D01*
X183119615Y-111986410D01*
X183120669Y-111984151D01*
X183172551Y-111872888D01*
X183214853Y-111782170D01*
X183273179Y-111564496D01*
X183286211Y-111415546D01*
X201749500Y-111415546D01*
X201755909Y-111475160D01*
X201806204Y-111610008D01*
X201892454Y-111725223D01*
X202007669Y-111811473D01*
X202142517Y-111861768D01*
X202202127Y-111868177D01*
X204297872Y-111868176D01*
X204357483Y-111861768D01*
X204492331Y-111811473D01*
X204607546Y-111725223D01*
X204693796Y-111610008D01*
X204744091Y-111475160D01*
X204750500Y-111415550D01*
X204750499Y-109319805D01*
X204744091Y-109260194D01*
X204693796Y-109125346D01*
X204607546Y-109010131D01*
X204492331Y-108923881D01*
X204357483Y-108873586D01*
X204297873Y-108867177D01*
X204297869Y-108867177D01*
X202202130Y-108867177D01*
X202142515Y-108873586D01*
X202007669Y-108923881D01*
X201892454Y-109010131D01*
X201806204Y-109125345D01*
X201755909Y-109260193D01*
X201749500Y-109319807D01*
X201749500Y-111415546D01*
X183286211Y-111415546D01*
X183292820Y-111340000D01*
X183273179Y-111115504D01*
X183214853Y-110897830D01*
X183169765Y-110801138D01*
X183119617Y-110693593D01*
X183119615Y-110693590D01*
X182990358Y-110508991D01*
X182831009Y-110349642D01*
X182646410Y-110220385D01*
X182564912Y-110182382D01*
X182512737Y-110136626D01*
X182493317Y-110070000D01*
X182512737Y-110003374D01*
X182564912Y-109957617D01*
X182646410Y-109919615D01*
X182831009Y-109790358D01*
X182990358Y-109631009D01*
X183119615Y-109446410D01*
X183214853Y-109242170D01*
X183273179Y-109024496D01*
X183292820Y-108800000D01*
X183273179Y-108575504D01*
X183214853Y-108357830D01*
X183167129Y-108255484D01*
X183119617Y-108153593D01*
X183119615Y-108153590D01*
X182990358Y-107968991D01*
X182831009Y-107809642D01*
X182646410Y-107680385D01*
X182646409Y-107680384D01*
X182646407Y-107680383D01*
X182564912Y-107642381D01*
X182512736Y-107596624D01*
X182493317Y-107529998D01*
X182512737Y-107463372D01*
X182564911Y-107417618D01*
X182646410Y-107379615D01*
X182831009Y-107250358D01*
X182990358Y-107091009D01*
X183119615Y-106906410D01*
X183214853Y-106702170D01*
X183273179Y-106484496D01*
X183292820Y-106260000D01*
X183273179Y-106035504D01*
X183214853Y-105817830D01*
X183120505Y-105615498D01*
X183119617Y-105613593D01*
X183119615Y-105613590D01*
X182990358Y-105428991D01*
X182929043Y-105367676D01*
X201744356Y-105367676D01*
X201764891Y-105615493D01*
X201764891Y-105615496D01*
X201764892Y-105615498D01*
X201825937Y-105856558D01*
X201864145Y-105943664D01*
X201925825Y-106084281D01*
X201925827Y-106084284D01*
X202061836Y-106292462D01*
X202230256Y-106475415D01*
X202295667Y-106526326D01*
X202426485Y-106628147D01*
X202426487Y-106628148D01*
X202426491Y-106628151D01*
X202645190Y-106746505D01*
X202880386Y-106827248D01*
X203125665Y-106868177D01*
X203374335Y-106868177D01*
X203619614Y-106827248D01*
X203854810Y-106746505D01*
X204073509Y-106628151D01*
X204269744Y-106475415D01*
X204438164Y-106292462D01*
X204574173Y-106084284D01*
X204674063Y-105856558D01*
X204735108Y-105615498D01*
X204755643Y-105367677D01*
X204735108Y-105119856D01*
X204704756Y-104999999D01*
X210824815Y-104999999D01*
X210843525Y-105249670D01*
X210899240Y-105493771D01*
X210990710Y-105726833D01*
X210990711Y-105726835D01*
X211115898Y-105943665D01*
X211272003Y-106139414D01*
X211455540Y-106309712D01*
X211662408Y-106450752D01*
X211887987Y-106559385D01*
X212127236Y-106633184D01*
X212374813Y-106670500D01*
X212625187Y-106670500D01*
X212872764Y-106633184D01*
X213112013Y-106559385D01*
X213337592Y-106450752D01*
X213544460Y-106309712D01*
X213727997Y-106139414D01*
X213884102Y-105943665D01*
X214009289Y-105726835D01*
X214100760Y-105493769D01*
X214156474Y-105249673D01*
X214175184Y-105000000D01*
X214175184Y-104999999D01*
X215824815Y-104999999D01*
X215843525Y-105249670D01*
X215899240Y-105493771D01*
X215990710Y-105726833D01*
X215990711Y-105726835D01*
X216115898Y-105943665D01*
X216272003Y-106139414D01*
X216455540Y-106309712D01*
X216662408Y-106450752D01*
X216887987Y-106559385D01*
X217127236Y-106633184D01*
X217374813Y-106670500D01*
X217625187Y-106670500D01*
X217872764Y-106633184D01*
X218112013Y-106559385D01*
X218337592Y-106450752D01*
X218544460Y-106309712D01*
X218727997Y-106139414D01*
X218884102Y-105943665D01*
X219009289Y-105726835D01*
X219100760Y-105493769D01*
X219156474Y-105249673D01*
X219175184Y-105000000D01*
X219156474Y-104750327D01*
X219100760Y-104506231D01*
X219009289Y-104273165D01*
X218884102Y-104056335D01*
X218727997Y-103860586D01*
X218544460Y-103690288D01*
X218337592Y-103549248D01*
X218112013Y-103440615D01*
X218038213Y-103417850D01*
X217872763Y-103366815D01*
X217625187Y-103329500D01*
X217374813Y-103329500D01*
X217127236Y-103366815D01*
X216887987Y-103440615D01*
X216662407Y-103549248D01*
X216455540Y-103690287D01*
X216272003Y-103860585D01*
X216115897Y-104056335D01*
X215990710Y-104273166D01*
X215899240Y-104506228D01*
X215843525Y-104750329D01*
X215824815Y-104999999D01*
X214175184Y-104999999D01*
X214156474Y-104750327D01*
X214100760Y-104506231D01*
X214009289Y-104273165D01*
X213884102Y-104056335D01*
X213727997Y-103860586D01*
X213544460Y-103690288D01*
X213337592Y-103549248D01*
X213112013Y-103440615D01*
X213038213Y-103417850D01*
X212872763Y-103366815D01*
X212625187Y-103329500D01*
X212374813Y-103329500D01*
X212127236Y-103366815D01*
X211887987Y-103440615D01*
X211662407Y-103549248D01*
X211455540Y-103690287D01*
X211272003Y-103860585D01*
X211115897Y-104056335D01*
X210990710Y-104273166D01*
X210899240Y-104506228D01*
X210843525Y-104750329D01*
X210824815Y-104999999D01*
X204704756Y-104999999D01*
X204674063Y-104878796D01*
X204574173Y-104651070D01*
X204438164Y-104442892D01*
X204269744Y-104259939D01*
X204208702Y-104212428D01*
X204073514Y-104107206D01*
X204073510Y-104107203D01*
X204073509Y-104107203D01*
X203854810Y-103988849D01*
X203854806Y-103988847D01*
X203854805Y-103988847D01*
X203619615Y-103908106D01*
X203374335Y-103867177D01*
X203125665Y-103867177D01*
X202880384Y-103908106D01*
X202645194Y-103988847D01*
X202426485Y-104107206D01*
X202230259Y-104259936D01*
X202230256Y-104259938D01*
X202230256Y-104259939D01*
X202061836Y-104442892D01*
X202048266Y-104463663D01*
X201925825Y-104651072D01*
X201843124Y-104839614D01*
X201825937Y-104878796D01*
X201797776Y-104990000D01*
X201764891Y-105119860D01*
X201744356Y-105367676D01*
X182929043Y-105367676D01*
X182831009Y-105269642D01*
X182646410Y-105140385D01*
X182564912Y-105102382D01*
X182512737Y-105056626D01*
X182493317Y-104990000D01*
X182512737Y-104923374D01*
X182564912Y-104877617D01*
X182646410Y-104839615D01*
X182831009Y-104710358D01*
X182990358Y-104551009D01*
X183119615Y-104366410D01*
X183214853Y-104162170D01*
X183258307Y-103999999D01*
X185564340Y-103999999D01*
X185584936Y-104235407D01*
X185595054Y-104273166D01*
X185646097Y-104463663D01*
X185745965Y-104677830D01*
X185881505Y-104871401D01*
X186048599Y-105038495D01*
X186242170Y-105174035D01*
X186456337Y-105273903D01*
X186684592Y-105335063D01*
X186920000Y-105355659D01*
X187155408Y-105335063D01*
X187383663Y-105273903D01*
X187597830Y-105174035D01*
X187791401Y-105038495D01*
X187958495Y-104871401D01*
X188088426Y-104685839D01*
X188132743Y-104646975D01*
X188190000Y-104632964D01*
X188247257Y-104646975D01*
X188291573Y-104685839D01*
X188421505Y-104871401D01*
X188588599Y-105038495D01*
X188782170Y-105174035D01*
X188996337Y-105273903D01*
X189224592Y-105335063D01*
X189460000Y-105355659D01*
X189695408Y-105335063D01*
X189923663Y-105273903D01*
X190137830Y-105174035D01*
X190331401Y-105038495D01*
X190453329Y-104916566D01*
X190506072Y-104885273D01*
X190567365Y-104883084D01*
X190622209Y-104910537D01*
X190657189Y-104960916D01*
X190706204Y-105092331D01*
X190792454Y-105207546D01*
X190907669Y-105293796D01*
X191042517Y-105344091D01*
X191102127Y-105350500D01*
X192897872Y-105350499D01*
X192957483Y-105344091D01*
X193092331Y-105293796D01*
X193207546Y-105207546D01*
X193293796Y-105092331D01*
X193344091Y-104957483D01*
X193350500Y-104897873D01*
X193350499Y-103102128D01*
X193344091Y-103042517D01*
X193293796Y-102907669D01*
X193207546Y-102792454D01*
X193092331Y-102706204D01*
X192957483Y-102655909D01*
X192897873Y-102649500D01*
X192897869Y-102649500D01*
X191102130Y-102649500D01*
X191042515Y-102655909D01*
X190907669Y-102706204D01*
X190792454Y-102792454D01*
X190706204Y-102907669D01*
X190657189Y-103039083D01*
X190622209Y-103089462D01*
X190567365Y-103116915D01*
X190506072Y-103114726D01*
X190453326Y-103083430D01*
X190331404Y-102961508D01*
X190331401Y-102961505D01*
X190137830Y-102825965D01*
X189923663Y-102726097D01*
X189862502Y-102709709D01*
X189695407Y-102664936D01*
X189460000Y-102644340D01*
X189224592Y-102664936D01*
X188996336Y-102726097D01*
X188782170Y-102825965D01*
X188588598Y-102961505D01*
X188421505Y-103128598D01*
X188291575Y-103314159D01*
X188247257Y-103353025D01*
X188190000Y-103367036D01*
X188132743Y-103353025D01*
X188088425Y-103314159D01*
X188062984Y-103277826D01*
X187958495Y-103128599D01*
X187791401Y-102961505D01*
X187597830Y-102825965D01*
X187383663Y-102726097D01*
X187322502Y-102709709D01*
X187155407Y-102664936D01*
X186920000Y-102644340D01*
X186684592Y-102664936D01*
X186456336Y-102726097D01*
X186242170Y-102825965D01*
X186048598Y-102961505D01*
X185881505Y-103128598D01*
X185745965Y-103322170D01*
X185646097Y-103536336D01*
X185584936Y-103764592D01*
X185564340Y-103999999D01*
X183258307Y-103999999D01*
X183273179Y-103944496D01*
X183292820Y-103720000D01*
X183273179Y-103495504D01*
X183214853Y-103277830D01*
X183145266Y-103128599D01*
X183119617Y-103073593D01*
X183119615Y-103073590D01*
X182990358Y-102888991D01*
X182831009Y-102729642D01*
X182646410Y-102600385D01*
X182646406Y-102600382D01*
X182442173Y-102505148D01*
X182442170Y-102505147D01*
X182333332Y-102475983D01*
X182224493Y-102446820D01*
X182000000Y-102427179D01*
X181775506Y-102446820D01*
X181557826Y-102505148D01*
X181353593Y-102600382D01*
X181168987Y-102729645D01*
X181009645Y-102888987D01*
X181009642Y-102888990D01*
X181009642Y-102888991D01*
X180996564Y-102907669D01*
X180880382Y-103073593D01*
X180785148Y-103277826D01*
X180726820Y-103495506D01*
X180707179Y-103720000D01*
X180726820Y-103944493D01*
X180785148Y-104162173D01*
X180880382Y-104366406D01*
X180880385Y-104366410D01*
X181009642Y-104551009D01*
X181168991Y-104710358D01*
X181274476Y-104784219D01*
X181353593Y-104839618D01*
X181435086Y-104877618D01*
X181487262Y-104923375D01*
X181506682Y-104990000D01*
X181487262Y-105056625D01*
X181435086Y-105102382D01*
X181353593Y-105140381D01*
X181168987Y-105269645D01*
X181009645Y-105428987D01*
X180880382Y-105613593D01*
X180785148Y-105817826D01*
X180726820Y-106035506D01*
X180707179Y-106259999D01*
X180726820Y-106484493D01*
X180726821Y-106484496D01*
X180765312Y-106628147D01*
X180785148Y-106702173D01*
X180880382Y-106906406D01*
X180880385Y-106906410D01*
X181009642Y-107091009D01*
X181168991Y-107250358D01*
X181274476Y-107324219D01*
X181353593Y-107379618D01*
X181435086Y-107417618D01*
X181487262Y-107463375D01*
X181506682Y-107530000D01*
X181487262Y-107596625D01*
X181435086Y-107642382D01*
X181353593Y-107680381D01*
X181168987Y-107809645D01*
X181009645Y-107968987D01*
X181009642Y-107968990D01*
X181009642Y-107968991D01*
X180986208Y-108002458D01*
X180880382Y-108153593D01*
X180785148Y-108357826D01*
X180726820Y-108575506D01*
X180707179Y-108800000D01*
X180726820Y-109024493D01*
X180785148Y-109242173D01*
X180880382Y-109446406D01*
X180880385Y-109446410D01*
X181009642Y-109631009D01*
X181168991Y-109790358D01*
X181274476Y-109864219D01*
X181353593Y-109919618D01*
X181435086Y-109957618D01*
X181487262Y-110003375D01*
X181506682Y-110070000D01*
X181487262Y-110136625D01*
X181435086Y-110182382D01*
X181353593Y-110220381D01*
X181168987Y-110349645D01*
X181009645Y-110508987D01*
X180880382Y-110693593D01*
X180785148Y-110897826D01*
X180726820Y-111115506D01*
X180707179Y-111340000D01*
X180726820Y-111564493D01*
X180785148Y-111782173D01*
X180880382Y-111986406D01*
X180880385Y-111986410D01*
X181009642Y-112171009D01*
X181168991Y-112330358D01*
X181274869Y-112404494D01*
X181353591Y-112459616D01*
X181396802Y-112479765D01*
X181435086Y-112497617D01*
X181487262Y-112543373D01*
X181506682Y-112609998D01*
X181487263Y-112676623D01*
X181435087Y-112722381D01*
X181353592Y-112760383D01*
X181168987Y-112889645D01*
X181009645Y-113048987D01*
X180880382Y-113233593D01*
X180785148Y-113437826D01*
X180726820Y-113655506D01*
X180707179Y-113879999D01*
X180726820Y-114104493D01*
X180726821Y-114104496D01*
X180779340Y-114300500D01*
X180785148Y-114322173D01*
X180880382Y-114526406D01*
X180880385Y-114526410D01*
X181009642Y-114711009D01*
X181168991Y-114870358D01*
X181263462Y-114936507D01*
X181353593Y-114999618D01*
X181435086Y-115037618D01*
X181487262Y-115083375D01*
X181506682Y-115150000D01*
X181487262Y-115216625D01*
X181435086Y-115262382D01*
X181353593Y-115300381D01*
X181168987Y-115429645D01*
X181009645Y-115588987D01*
X180880382Y-115773593D01*
X180785148Y-115977826D01*
X180726820Y-116195506D01*
X180707179Y-116420000D01*
X180726820Y-116644493D01*
X180785148Y-116862173D01*
X180880382Y-117066406D01*
X180880385Y-117066410D01*
X181009642Y-117251009D01*
X181168991Y-117410358D01*
X181274476Y-117484219D01*
X181353593Y-117539618D01*
X181435086Y-117577618D01*
X181487262Y-117623375D01*
X181506682Y-117690000D01*
X181487262Y-117756625D01*
X181435086Y-117802382D01*
X181353593Y-117840381D01*
X181212958Y-117938856D01*
X181170931Y-117968284D01*
X181168987Y-117969645D01*
X181009645Y-118128987D01*
X180880382Y-118313593D01*
X180785148Y-118517826D01*
X180726820Y-118735506D01*
X180707179Y-118960000D01*
X180726820Y-119184493D01*
X180785148Y-119402173D01*
X180880382Y-119606406D01*
X180880385Y-119606410D01*
X181009642Y-119791009D01*
X181168991Y-119950358D01*
X181293194Y-120037326D01*
X181333520Y-120084540D01*
X181345900Y-120145386D01*
X181327231Y-120204605D01*
X181282193Y-120247349D01*
X181222079Y-120262900D01*
X181215534Y-120262900D01*
X181155915Y-120269309D01*
X181021069Y-120319604D01*
X180905854Y-120405854D01*
X180819604Y-120521068D01*
X180769309Y-120655916D01*
X180762900Y-120715530D01*
X180762900Y-122284469D01*
X180767904Y-122331012D01*
X180769309Y-122344083D01*
X180819604Y-122478931D01*
X180905854Y-122594146D01*
X181021069Y-122680396D01*
X181155917Y-122730691D01*
X181215527Y-122737100D01*
X181222063Y-122737099D01*
X181282179Y-122752642D01*
X181327224Y-122795384D01*
X181345899Y-122854605D01*
X181333521Y-122915455D01*
X181293193Y-122962673D01*
X181168991Y-123049641D01*
X181009645Y-123208987D01*
X180880382Y-123393593D01*
X180785148Y-123597826D01*
X180726820Y-123815506D01*
X180707179Y-124040000D01*
X180726820Y-124264493D01*
X180736200Y-124299500D01*
X180763129Y-124400000D01*
X180785148Y-124482173D01*
X180880382Y-124686406D01*
X180880385Y-124686410D01*
X181009642Y-124871009D01*
X181168991Y-125030358D01*
X181274476Y-125104219D01*
X181353593Y-125159618D01*
X181435086Y-125197618D01*
X181487262Y-125243375D01*
X181506682Y-125310000D01*
X181487262Y-125376625D01*
X181435086Y-125422382D01*
X181353593Y-125460381D01*
X181168987Y-125589645D01*
X181009645Y-125748987D01*
X180880382Y-125933593D01*
X180785148Y-126137826D01*
X180726820Y-126355506D01*
X180707179Y-126580000D01*
X180726820Y-126804493D01*
X180726821Y-126804496D01*
X180784873Y-127021149D01*
X180785148Y-127022173D01*
X180880382Y-127226406D01*
X180880385Y-127226410D01*
X181009642Y-127411009D01*
X181168991Y-127570358D01*
X181274476Y-127644219D01*
X181353593Y-127699618D01*
X181435086Y-127737618D01*
X181487262Y-127783375D01*
X181506682Y-127850000D01*
X181487262Y-127916625D01*
X181435086Y-127962382D01*
X181353593Y-128000381D01*
X181168987Y-128129645D01*
X181009645Y-128288987D01*
X180880382Y-128473593D01*
X180785148Y-128677826D01*
X180726820Y-128895506D01*
X180707179Y-129119999D01*
X180726820Y-129344493D01*
X180785148Y-129562173D01*
X180880382Y-129766406D01*
X180880385Y-129766410D01*
X181009642Y-129951009D01*
X181168991Y-130110358D01*
X181309323Y-130208619D01*
X181353591Y-130239616D01*
X181396802Y-130259765D01*
X181435086Y-130277617D01*
X181487262Y-130323373D01*
X181506682Y-130389998D01*
X181487263Y-130456623D01*
X181435087Y-130502381D01*
X181353592Y-130540383D01*
X181215020Y-130637412D01*
X181181128Y-130661144D01*
X181168987Y-130669645D01*
X181009645Y-130828987D01*
X180880382Y-131013593D01*
X180785148Y-131217826D01*
X180726820Y-131435506D01*
X180707179Y-131660000D01*
X180726820Y-131884493D01*
X180785148Y-132102173D01*
X180880382Y-132306406D01*
X180886249Y-132314785D01*
X181009642Y-132491009D01*
X181168991Y-132650358D01*
X181274476Y-132724219D01*
X181353593Y-132779618D01*
X181435086Y-132817618D01*
X181487262Y-132863375D01*
X181506682Y-132930000D01*
X181487262Y-132996625D01*
X181435086Y-133042382D01*
X181353593Y-133080381D01*
X181168987Y-133209645D01*
X181009645Y-133368987D01*
X181009642Y-133368990D01*
X181009642Y-133368991D01*
X181009258Y-133369540D01*
X180880382Y-133553593D01*
X180785148Y-133757826D01*
X180726820Y-133975506D01*
X180707179Y-134200000D01*
X180726820Y-134424493D01*
X180785148Y-134642173D01*
X180880382Y-134846406D01*
X180880385Y-134846410D01*
X181009642Y-135031009D01*
X181168991Y-135190358D01*
X181274476Y-135264219D01*
X181353593Y-135319618D01*
X181435086Y-135357618D01*
X181487262Y-135403375D01*
X181506682Y-135470000D01*
X181487262Y-135536625D01*
X181435086Y-135582382D01*
X181353593Y-135620381D01*
X181168987Y-135749645D01*
X181009645Y-135908987D01*
X180880382Y-136093593D01*
X180785148Y-136297826D01*
X180726820Y-136515506D01*
X180707179Y-136739999D01*
X180726820Y-136964493D01*
X180785148Y-137182173D01*
X180880382Y-137386406D01*
X180881678Y-137388257D01*
X181009642Y-137571009D01*
X181168991Y-137730358D01*
X181316670Y-137833763D01*
X181353591Y-137859616D01*
X181382054Y-137872888D01*
X181435086Y-137897617D01*
X181487262Y-137943373D01*
X181506682Y-138009998D01*
X181487263Y-138076623D01*
X181435087Y-138122381D01*
X181353592Y-138160383D01*
X181168987Y-138289645D01*
X181009645Y-138448987D01*
X181009642Y-138448990D01*
X181009642Y-138448991D01*
X180986208Y-138482458D01*
X180880382Y-138633593D01*
X180785148Y-138837826D01*
X180726820Y-139055506D01*
X180707179Y-139280000D01*
X180726820Y-139504493D01*
X180736028Y-139538856D01*
X180785120Y-139722071D01*
X180785148Y-139722173D01*
X180880382Y-139926406D01*
X180884100Y-139931716D01*
X181009642Y-140111009D01*
X181168991Y-140270358D01*
X181316670Y-140373763D01*
X181353591Y-140399616D01*
X181388402Y-140415848D01*
X181435086Y-140437617D01*
X181487262Y-140483373D01*
X181506682Y-140549998D01*
X181487263Y-140616623D01*
X181435087Y-140662381D01*
X181353592Y-140700383D01*
X181168987Y-140829645D01*
X181009645Y-140988987D01*
X181009642Y-140988990D01*
X181009642Y-140988991D01*
X181001592Y-141000488D01*
X180880382Y-141173593D01*
X180785148Y-141377826D01*
X180726820Y-141595506D01*
X180707179Y-141820000D01*
X180726820Y-142044493D01*
X180739254Y-142090898D01*
X180775056Y-142224512D01*
X180785148Y-142262173D01*
X180880382Y-142466406D01*
X180880385Y-142466410D01*
X181009642Y-142651009D01*
X181168991Y-142810358D01*
X181258294Y-142872888D01*
X181353593Y-142939618D01*
X181435086Y-142977618D01*
X181487262Y-143023375D01*
X181506682Y-143090000D01*
X181487262Y-143156625D01*
X181435086Y-143202382D01*
X181353593Y-143240381D01*
X181186508Y-143357376D01*
X181168993Y-143369641D01*
X181168987Y-143369645D01*
X181009645Y-143528987D01*
X180880382Y-143713593D01*
X180785148Y-143917826D01*
X180726820Y-144135506D01*
X180707179Y-144359999D01*
X168052820Y-144359999D01*
X168033179Y-144135504D01*
X167974853Y-143917830D01*
X167937495Y-143837714D01*
X167879617Y-143713593D01*
X167838421Y-143654759D01*
X167750358Y-143528991D01*
X167591009Y-143369642D01*
X167466804Y-143282673D01*
X167426478Y-143235457D01*
X167414099Y-143174609D01*
X167432771Y-143115389D01*
X167477813Y-143072646D01*
X167537928Y-143057099D01*
X167544472Y-143057099D01*
X167604083Y-143050691D01*
X167738931Y-143000396D01*
X167854146Y-142914146D01*
X167940396Y-142798931D01*
X167990691Y-142664083D01*
X167997100Y-142604473D01*
X167997099Y-141035528D01*
X167990691Y-140975917D01*
X167940396Y-140841069D01*
X167854146Y-140725854D01*
X167738931Y-140639604D01*
X167604083Y-140589309D01*
X167544473Y-140582900D01*
X167544469Y-140582900D01*
X167537930Y-140582900D01*
X167477814Y-140567353D01*
X167432772Y-140524610D01*
X167414100Y-140465390D01*
X167426480Y-140404542D01*
X167466805Y-140357326D01*
X167591009Y-140270358D01*
X167750358Y-140111009D01*
X167879615Y-139926410D01*
X167886805Y-139910992D01*
X167905558Y-139870774D01*
X167974853Y-139722170D01*
X168033179Y-139504496D01*
X168052820Y-139280000D01*
X168033179Y-139055504D01*
X167974853Y-138837830D01*
X167934542Y-138751382D01*
X167879617Y-138633593D01*
X167877423Y-138630459D01*
X167750358Y-138448991D01*
X167591009Y-138289642D01*
X167406410Y-138160385D01*
X167406409Y-138160384D01*
X167406407Y-138160383D01*
X167324912Y-138122381D01*
X167272736Y-138076624D01*
X167253317Y-138009998D01*
X167272737Y-137943372D01*
X167324911Y-137897618D01*
X167406410Y-137859615D01*
X167591009Y-137730358D01*
X167750358Y-137571009D01*
X167879615Y-137386410D01*
X167974853Y-137182170D01*
X168033179Y-136964496D01*
X168052820Y-136740000D01*
X168033179Y-136515504D01*
X167974853Y-136297830D01*
X167957407Y-136260418D01*
X167879617Y-136093593D01*
X167879615Y-136093590D01*
X167750358Y-135908991D01*
X167591009Y-135749642D01*
X167406410Y-135620385D01*
X167324912Y-135582382D01*
X167272737Y-135536626D01*
X167253317Y-135470000D01*
X167272737Y-135403374D01*
X167324912Y-135357617D01*
X167406410Y-135319615D01*
X167591009Y-135190358D01*
X167750358Y-135031009D01*
X167879615Y-134846410D01*
X167974853Y-134642170D01*
X168026479Y-134449500D01*
X174294540Y-134449500D01*
X174314326Y-134637757D01*
X174372820Y-134817784D01*
X174467466Y-134981716D01*
X174594129Y-135122389D01*
X174747269Y-135233651D01*
X174920197Y-135310644D01*
X175105352Y-135350000D01*
X175105354Y-135350000D01*
X175294646Y-135350000D01*
X175294648Y-135350000D01*
X175437602Y-135319614D01*
X175479803Y-135310644D01*
X175652730Y-135233651D01*
X175680241Y-135213663D01*
X175805870Y-135122389D01*
X175810215Y-135117564D01*
X175932533Y-134981716D01*
X176027179Y-134817784D01*
X176085674Y-134637756D01*
X176103800Y-134465285D01*
X176122423Y-134411810D01*
X176162884Y-134372187D01*
X176216743Y-134354687D01*
X176272767Y-134362959D01*
X176319269Y-134395278D01*
X176344129Y-134422888D01*
X176356280Y-134431716D01*
X176497269Y-134534151D01*
X176670197Y-134611144D01*
X176855352Y-134650500D01*
X176855354Y-134650500D01*
X177044646Y-134650500D01*
X177044648Y-134650500D01*
X177168083Y-134624262D01*
X177229803Y-134611144D01*
X177402730Y-134534151D01*
X177519243Y-134449500D01*
X177555870Y-134422889D01*
X177601523Y-134372187D01*
X177682533Y-134282216D01*
X177777179Y-134118284D01*
X177835674Y-133938256D01*
X177855460Y-133750000D01*
X177835674Y-133561744D01*
X177788269Y-133415848D01*
X177777179Y-133381715D01*
X177682533Y-133217783D01*
X177555870Y-133077110D01*
X177402730Y-132965848D01*
X177229802Y-132888855D01*
X177044648Y-132849500D01*
X177044646Y-132849500D01*
X176855354Y-132849500D01*
X176855352Y-132849500D01*
X176670197Y-132888855D01*
X176497269Y-132965848D01*
X176344129Y-133077110D01*
X176217466Y-133217783D01*
X176122820Y-133381715D01*
X176064326Y-133561742D01*
X176064325Y-133561744D01*
X176064326Y-133561744D01*
X176052645Y-133672889D01*
X176046200Y-133734208D01*
X176027576Y-133787689D01*
X175987115Y-133827312D01*
X175933255Y-133844812D01*
X175877232Y-133836539D01*
X175830729Y-133804220D01*
X175815844Y-133787689D01*
X175805871Y-133776612D01*
X175805869Y-133776611D01*
X175805867Y-133776608D01*
X175652730Y-133665348D01*
X175479802Y-133588355D01*
X175294648Y-133549000D01*
X175294646Y-133549000D01*
X175105354Y-133549000D01*
X175105352Y-133549000D01*
X174920197Y-133588355D01*
X174747269Y-133665348D01*
X174594129Y-133776610D01*
X174467466Y-133917283D01*
X174372820Y-134081215D01*
X174314326Y-134261242D01*
X174294540Y-134449500D01*
X168026479Y-134449500D01*
X168033179Y-134424496D01*
X168052820Y-134200000D01*
X168033179Y-133975504D01*
X167974853Y-133757830D01*
X167931728Y-133665348D01*
X167879617Y-133553593D01*
X167861075Y-133527112D01*
X167750358Y-133368991D01*
X167591009Y-133209642D01*
X167406410Y-133080385D01*
X167406409Y-133080384D01*
X167406407Y-133080383D01*
X167324912Y-133042381D01*
X167272736Y-132996624D01*
X167253317Y-132929998D01*
X167272737Y-132863372D01*
X167324911Y-132817618D01*
X167406410Y-132779615D01*
X167591009Y-132650358D01*
X167750358Y-132491009D01*
X167879615Y-132306410D01*
X167974853Y-132102170D01*
X168033179Y-131884496D01*
X168052820Y-131660000D01*
X168033179Y-131435504D01*
X167983473Y-131250000D01*
X168594540Y-131250000D01*
X168614326Y-131438257D01*
X168672820Y-131618284D01*
X168767466Y-131782216D01*
X168894129Y-131922889D01*
X169047269Y-132034151D01*
X169220197Y-132111144D01*
X169405352Y-132150500D01*
X169405354Y-132150500D01*
X169594646Y-132150500D01*
X169594648Y-132150500D01*
X169744447Y-132118659D01*
X169779803Y-132111144D01*
X169952730Y-132034151D01*
X169956083Y-132031715D01*
X170105870Y-131922889D01*
X170232533Y-131782216D01*
X170327179Y-131618284D01*
X170336936Y-131588256D01*
X170385674Y-131438256D01*
X170405460Y-131250000D01*
X170385674Y-131061744D01*
X170341929Y-130927112D01*
X170327179Y-130881715D01*
X170232533Y-130717783D01*
X170105870Y-130577110D01*
X169952730Y-130465848D01*
X169779802Y-130388855D01*
X169594648Y-130349500D01*
X169594646Y-130349500D01*
X169405354Y-130349500D01*
X169405352Y-130349500D01*
X169220197Y-130388855D01*
X169047269Y-130465848D01*
X168894129Y-130577110D01*
X168767466Y-130717783D01*
X168672820Y-130881715D01*
X168614326Y-131061742D01*
X168594540Y-131250000D01*
X167983473Y-131250000D01*
X167974853Y-131217830D01*
X167954881Y-131175000D01*
X167879617Y-131013593D01*
X167878321Y-131011742D01*
X167750358Y-130828991D01*
X167591009Y-130669642D01*
X167406410Y-130540385D01*
X167324912Y-130502382D01*
X167272737Y-130456626D01*
X167253317Y-130390000D01*
X167272737Y-130323374D01*
X167324912Y-130277617D01*
X167406410Y-130239615D01*
X167591009Y-130110358D01*
X167750358Y-129951009D01*
X167879615Y-129766410D01*
X167974853Y-129562170D01*
X168033179Y-129344496D01*
X168052820Y-129120000D01*
X168033179Y-128895504D01*
X167974853Y-128677830D01*
X167910049Y-128538856D01*
X167879617Y-128473593D01*
X167844552Y-128423515D01*
X167750358Y-128288991D01*
X167591009Y-128129642D01*
X167406410Y-128000385D01*
X167324912Y-127962382D01*
X167272737Y-127916626D01*
X167253317Y-127850000D01*
X167272737Y-127783374D01*
X167324912Y-127737617D01*
X167406410Y-127699615D01*
X167591009Y-127570358D01*
X167750358Y-127411009D01*
X167879615Y-127226410D01*
X167974853Y-127022170D01*
X168033179Y-126804496D01*
X168052820Y-126580000D01*
X168033179Y-126355504D01*
X167974853Y-126137830D01*
X167929026Y-126039553D01*
X167879617Y-125933593D01*
X167879615Y-125933590D01*
X167750358Y-125748991D01*
X167591009Y-125589642D01*
X167406410Y-125460385D01*
X167324912Y-125422382D01*
X167272737Y-125376626D01*
X167253317Y-125310000D01*
X167272737Y-125243374D01*
X167322195Y-125200000D01*
X171294540Y-125200000D01*
X171314326Y-125388257D01*
X171372820Y-125568284D01*
X171467466Y-125732216D01*
X171594129Y-125872889D01*
X171747269Y-125984151D01*
X171920197Y-126061144D01*
X172105352Y-126100500D01*
X172105354Y-126100500D01*
X172294646Y-126100500D01*
X172294648Y-126100500D01*
X172450695Y-126067331D01*
X172479803Y-126061144D01*
X172652730Y-125984151D01*
X172705289Y-125945965D01*
X172805870Y-125872889D01*
X172805885Y-125872873D01*
X172932533Y-125732216D01*
X173027179Y-125568284D01*
X173085674Y-125388256D01*
X173105460Y-125200000D01*
X173085674Y-125011744D01*
X173055307Y-124918284D01*
X173027179Y-124831715D01*
X172932533Y-124667783D01*
X172805870Y-124527110D01*
X172652730Y-124415848D01*
X172479802Y-124338855D01*
X172294648Y-124299500D01*
X172294646Y-124299500D01*
X172105354Y-124299500D01*
X172105352Y-124299500D01*
X171920197Y-124338855D01*
X171747269Y-124415848D01*
X171594129Y-124527110D01*
X171467466Y-124667783D01*
X171372820Y-124831715D01*
X171314326Y-125011742D01*
X171294540Y-125200000D01*
X167322195Y-125200000D01*
X167324912Y-125197617D01*
X167406410Y-125159615D01*
X167591009Y-125030358D01*
X167750358Y-124871009D01*
X167879615Y-124686410D01*
X167974853Y-124482170D01*
X168033179Y-124264496D01*
X168052820Y-124040000D01*
X168033179Y-123815504D01*
X167974853Y-123597830D01*
X167947353Y-123538855D01*
X167879617Y-123393593D01*
X167871300Y-123381715D01*
X167750358Y-123208991D01*
X167591009Y-123049642D01*
X167406410Y-122920385D01*
X167406409Y-122920384D01*
X167406407Y-122920383D01*
X167324912Y-122882381D01*
X167272736Y-122836624D01*
X167253317Y-122769998D01*
X167272737Y-122703372D01*
X167324911Y-122657618D01*
X167406410Y-122619615D01*
X167591009Y-122490358D01*
X167750358Y-122331009D01*
X167879615Y-122146410D01*
X167974853Y-121942170D01*
X168033179Y-121724496D01*
X168052820Y-121500000D01*
X168033179Y-121275504D01*
X167974853Y-121057830D01*
X167947887Y-121000000D01*
X169894540Y-121000000D01*
X169914326Y-121188257D01*
X169972820Y-121368284D01*
X170067466Y-121532216D01*
X170194129Y-121672889D01*
X170347269Y-121784151D01*
X170520197Y-121861144D01*
X170705352Y-121900500D01*
X170705354Y-121900500D01*
X170894646Y-121900500D01*
X170894648Y-121900500D01*
X171024551Y-121872888D01*
X171079803Y-121861144D01*
X171252730Y-121784151D01*
X171324213Y-121732216D01*
X171405870Y-121672889D01*
X171532533Y-121532216D01*
X171627179Y-121368284D01*
X171629166Y-121362170D01*
X171685674Y-121188256D01*
X171705460Y-121000000D01*
X171685674Y-120811744D01*
X171651818Y-120707546D01*
X171627179Y-120631715D01*
X171575355Y-120541953D01*
X171558987Y-120487739D01*
X171568431Y-120431901D01*
X171601718Y-120386086D01*
X171651904Y-120359849D01*
X171708523Y-120358663D01*
X171905352Y-120400500D01*
X171905354Y-120400500D01*
X172094646Y-120400500D01*
X172094648Y-120400500D01*
X172218083Y-120374262D01*
X172279803Y-120361144D01*
X172452730Y-120284151D01*
X172546740Y-120215849D01*
X172605870Y-120172889D01*
X172614437Y-120163375D01*
X172732533Y-120032216D01*
X172827179Y-119868284D01*
X172885674Y-119688256D01*
X172905460Y-119500000D01*
X172885674Y-119311744D01*
X172844328Y-119184496D01*
X172827179Y-119131715D01*
X172732533Y-118967783D01*
X172605870Y-118827110D01*
X172452730Y-118715848D01*
X172279802Y-118638855D01*
X172094648Y-118599500D01*
X172094646Y-118599500D01*
X171905354Y-118599500D01*
X171905352Y-118599500D01*
X171720197Y-118638855D01*
X171547269Y-118715848D01*
X171394129Y-118827110D01*
X171267466Y-118967783D01*
X171172820Y-119131715D01*
X171114326Y-119311742D01*
X171094540Y-119500000D01*
X171114326Y-119688257D01*
X171172821Y-119868286D01*
X171224644Y-119958047D01*
X171241012Y-120012260D01*
X171231568Y-120068098D01*
X171198281Y-120113913D01*
X171148095Y-120140150D01*
X171091477Y-120141336D01*
X170894649Y-120099500D01*
X170894646Y-120099500D01*
X170705354Y-120099500D01*
X170705352Y-120099500D01*
X170520197Y-120138855D01*
X170347269Y-120215848D01*
X170194129Y-120327110D01*
X170067466Y-120467783D01*
X169972820Y-120631715D01*
X169914326Y-120811742D01*
X169894540Y-121000000D01*
X167947887Y-121000000D01*
X167925195Y-120951337D01*
X167879617Y-120853593D01*
X167837746Y-120793795D01*
X167750358Y-120668991D01*
X167591009Y-120509642D01*
X167406410Y-120380385D01*
X167324912Y-120342382D01*
X167272737Y-120296626D01*
X167253317Y-120230000D01*
X167272737Y-120163374D01*
X167324912Y-120117617D01*
X167406410Y-120079615D01*
X167591009Y-119950358D01*
X167750358Y-119791009D01*
X167879615Y-119606410D01*
X167889995Y-119584151D01*
X167972583Y-119407037D01*
X167974853Y-119402170D01*
X168033179Y-119184496D01*
X168052820Y-118960000D01*
X168033179Y-118735504D01*
X167974853Y-118517830D01*
X167925384Y-118411742D01*
X167879617Y-118313593D01*
X167847541Y-118267784D01*
X167750358Y-118128991D01*
X167621367Y-118000000D01*
X173894540Y-118000000D01*
X173914326Y-118188257D01*
X173972820Y-118368284D01*
X174067466Y-118532216D01*
X174194129Y-118672889D01*
X174347269Y-118784151D01*
X174520197Y-118861144D01*
X174705352Y-118900500D01*
X174705354Y-118900500D01*
X174894646Y-118900500D01*
X174894648Y-118900500D01*
X175018084Y-118874262D01*
X175079803Y-118861144D01*
X175252730Y-118784151D01*
X175252730Y-118784150D01*
X175405870Y-118672889D01*
X175436515Y-118638855D01*
X175532533Y-118532216D01*
X175627179Y-118368284D01*
X175685674Y-118188256D01*
X175705460Y-118000000D01*
X175685674Y-117811744D01*
X175655332Y-117718363D01*
X175627179Y-117631715D01*
X175532533Y-117467783D01*
X175405870Y-117327110D01*
X175252730Y-117215848D01*
X175079802Y-117138855D01*
X174894648Y-117099500D01*
X174894646Y-117099500D01*
X174705354Y-117099500D01*
X174705352Y-117099500D01*
X174520197Y-117138855D01*
X174347269Y-117215848D01*
X174194129Y-117327110D01*
X174067466Y-117467783D01*
X173972820Y-117631715D01*
X173914326Y-117811742D01*
X173894540Y-118000000D01*
X167621367Y-118000000D01*
X167591009Y-117969642D01*
X167406410Y-117840385D01*
X167406409Y-117840384D01*
X167406407Y-117840383D01*
X167324912Y-117802381D01*
X167272736Y-117756624D01*
X167253317Y-117689998D01*
X167272737Y-117623372D01*
X167324911Y-117577618D01*
X167406410Y-117539615D01*
X167591009Y-117410358D01*
X167750358Y-117251009D01*
X167879615Y-117066410D01*
X167974853Y-116862170D01*
X168033179Y-116644496D01*
X168052820Y-116420000D01*
X168033179Y-116195504D01*
X167974853Y-115977830D01*
X167924933Y-115870775D01*
X167891930Y-115799999D01*
X170094540Y-115799999D01*
X170114326Y-115988257D01*
X170172820Y-116168284D01*
X170267466Y-116332216D01*
X170394129Y-116472889D01*
X170547269Y-116584151D01*
X170720197Y-116661144D01*
X170905352Y-116700500D01*
X170905354Y-116700500D01*
X171094646Y-116700500D01*
X171094648Y-116700500D01*
X171218084Y-116674262D01*
X171279803Y-116661144D01*
X171452730Y-116584151D01*
X171474569Y-116568284D01*
X171605870Y-116472889D01*
X171610468Y-116467783D01*
X171732533Y-116332216D01*
X171808868Y-116200000D01*
X172694540Y-116200000D01*
X172714326Y-116388257D01*
X172772820Y-116568284D01*
X172867466Y-116732216D01*
X172994129Y-116872889D01*
X173147269Y-116984151D01*
X173320197Y-117061144D01*
X173505352Y-117100500D01*
X173505354Y-117100500D01*
X173694646Y-117100500D01*
X173694648Y-117100500D01*
X173818084Y-117074262D01*
X173879803Y-117061144D01*
X174052730Y-116984151D01*
X174205871Y-116872888D01*
X174332533Y-116732216D01*
X174427179Y-116568284D01*
X174485674Y-116388256D01*
X174505460Y-116200000D01*
X174485674Y-116011744D01*
X174427179Y-115831716D01*
X174427179Y-115831715D01*
X174332533Y-115667783D01*
X174205870Y-115527110D01*
X174052730Y-115415848D01*
X173879802Y-115338855D01*
X173694648Y-115299500D01*
X173694646Y-115299500D01*
X173505354Y-115299500D01*
X173505352Y-115299500D01*
X173320197Y-115338855D01*
X173147269Y-115415848D01*
X172994129Y-115527110D01*
X172867466Y-115667783D01*
X172772820Y-115831715D01*
X172714326Y-116011742D01*
X172694540Y-116200000D01*
X171808868Y-116200000D01*
X171827179Y-116168284D01*
X171885674Y-115988256D01*
X171905460Y-115800000D01*
X171885674Y-115611744D01*
X171827179Y-115431716D01*
X171827179Y-115431715D01*
X171732533Y-115267783D01*
X171605870Y-115127110D01*
X171452730Y-115015848D01*
X171279802Y-114938855D01*
X171094648Y-114899500D01*
X171094646Y-114899500D01*
X170905354Y-114899500D01*
X170905352Y-114899500D01*
X170720197Y-114938855D01*
X170547269Y-115015848D01*
X170394129Y-115127110D01*
X170267466Y-115267783D01*
X170172820Y-115431715D01*
X170114326Y-115611742D01*
X170094540Y-115799999D01*
X167891930Y-115799999D01*
X167879617Y-115773593D01*
X167855293Y-115738855D01*
X167750358Y-115588991D01*
X167591009Y-115429642D01*
X167406410Y-115300385D01*
X167324912Y-115262382D01*
X167272737Y-115216626D01*
X167253317Y-115150000D01*
X167272737Y-115083374D01*
X167324912Y-115037617D01*
X167406410Y-114999615D01*
X167591009Y-114870358D01*
X167750358Y-114711009D01*
X167879615Y-114526410D01*
X167974853Y-114322170D01*
X168033179Y-114104496D01*
X168052820Y-113880000D01*
X168033179Y-113655504D01*
X167974853Y-113437830D01*
X167952016Y-113388855D01*
X167879617Y-113233593D01*
X167829308Y-113161744D01*
X167750358Y-113048991D01*
X167591009Y-112889642D01*
X167406410Y-112760385D01*
X167406409Y-112760384D01*
X167406407Y-112760383D01*
X167324912Y-112722381D01*
X167272736Y-112676624D01*
X167253317Y-112609998D01*
X167272737Y-112543372D01*
X167324911Y-112497618D01*
X167406410Y-112459615D01*
X167591009Y-112330358D01*
X167750358Y-112171009D01*
X167879615Y-111986410D01*
X167880669Y-111984151D01*
X167932551Y-111872888D01*
X167974853Y-111782170D01*
X168033179Y-111564496D01*
X168052820Y-111340000D01*
X168033179Y-111115504D01*
X167974853Y-110897830D01*
X167929765Y-110801138D01*
X167879617Y-110693593D01*
X167879615Y-110693590D01*
X167750358Y-110508991D01*
X167591009Y-110349642D01*
X167406410Y-110220385D01*
X167324912Y-110182382D01*
X167272737Y-110136626D01*
X167253317Y-110070000D01*
X167272737Y-110003374D01*
X167324912Y-109957617D01*
X167406410Y-109919615D01*
X167591009Y-109790358D01*
X167750358Y-109631009D01*
X167879615Y-109446410D01*
X167974853Y-109242170D01*
X168033179Y-109024496D01*
X168052820Y-108800000D01*
X168051744Y-108787701D01*
X169506839Y-108787701D01*
X169526625Y-108975958D01*
X169585119Y-109155985D01*
X169679765Y-109319917D01*
X169806428Y-109460590D01*
X169959568Y-109571852D01*
X170132496Y-109648845D01*
X170317651Y-109688201D01*
X170317653Y-109688201D01*
X170506945Y-109688201D01*
X170506947Y-109688201D01*
X170630383Y-109661963D01*
X170692102Y-109648845D01*
X170865029Y-109571852D01*
X171018170Y-109460589D01*
X171144832Y-109319917D01*
X171239478Y-109155985D01*
X171297973Y-108975957D01*
X171317759Y-108787701D01*
X171297973Y-108599445D01*
X171239478Y-108419417D01*
X171239478Y-108419416D01*
X171144832Y-108255484D01*
X171018169Y-108114811D01*
X170865029Y-108003549D01*
X170692101Y-107926556D01*
X170506947Y-107887201D01*
X170506945Y-107887201D01*
X170317653Y-107887201D01*
X170317651Y-107887201D01*
X170132496Y-107926556D01*
X169959568Y-108003549D01*
X169806428Y-108114811D01*
X169679765Y-108255484D01*
X169585119Y-108419416D01*
X169526625Y-108599443D01*
X169506839Y-108787701D01*
X168051744Y-108787701D01*
X168033179Y-108575504D01*
X167974853Y-108357830D01*
X167927129Y-108255484D01*
X167879617Y-108153593D01*
X167879615Y-108153590D01*
X167750358Y-107968991D01*
X167591009Y-107809642D01*
X167406410Y-107680385D01*
X167406409Y-107680384D01*
X167406407Y-107680383D01*
X167324912Y-107642381D01*
X167272736Y-107596624D01*
X167253317Y-107529998D01*
X167272737Y-107463372D01*
X167324911Y-107417618D01*
X167406410Y-107379615D01*
X167591009Y-107250358D01*
X167750358Y-107091009D01*
X167879615Y-106906410D01*
X167974853Y-106702170D01*
X168033179Y-106484496D01*
X168052820Y-106260000D01*
X168033179Y-106035504D01*
X167974853Y-105817830D01*
X167880505Y-105615498D01*
X167879617Y-105613593D01*
X167879615Y-105613590D01*
X167750358Y-105428991D01*
X167591009Y-105269642D01*
X167406410Y-105140385D01*
X167324912Y-105102382D01*
X167272737Y-105056626D01*
X167253317Y-104990000D01*
X167272737Y-104923374D01*
X167324912Y-104877617D01*
X167406410Y-104839615D01*
X167591009Y-104710358D01*
X167750358Y-104551009D01*
X167879615Y-104366410D01*
X167974853Y-104162170D01*
X168033179Y-103944496D01*
X168052820Y-103720000D01*
X168033179Y-103495504D01*
X167974853Y-103277830D01*
X167905266Y-103128599D01*
X167879617Y-103073593D01*
X167879615Y-103073590D01*
X167750358Y-102888991D01*
X167591009Y-102729642D01*
X167406410Y-102600385D01*
X167406406Y-102600382D01*
X167202173Y-102505148D01*
X167202170Y-102505147D01*
X167093332Y-102475983D01*
X166984493Y-102446820D01*
X166760000Y-102427179D01*
X166535506Y-102446820D01*
X166317826Y-102505148D01*
X166113593Y-102600382D01*
X165928987Y-102729645D01*
X165769645Y-102888987D01*
X165769642Y-102888990D01*
X165769642Y-102888991D01*
X165756564Y-102907669D01*
X165640382Y-103073593D01*
X165545148Y-103277826D01*
X165486820Y-103495506D01*
X165467179Y-103720000D01*
X165486820Y-103944493D01*
X165545148Y-104162173D01*
X165640382Y-104366406D01*
X165640385Y-104366410D01*
X165769642Y-104551009D01*
X165928991Y-104710358D01*
X166034476Y-104784219D01*
X166113593Y-104839618D01*
X166195086Y-104877618D01*
X166247262Y-104923375D01*
X166266682Y-104990000D01*
X166247262Y-105056625D01*
X166195086Y-105102382D01*
X166113593Y-105140381D01*
X165928987Y-105269645D01*
X165769645Y-105428987D01*
X165640382Y-105613593D01*
X165545148Y-105817826D01*
X165486820Y-106035506D01*
X165467179Y-106259999D01*
X165486820Y-106484493D01*
X165486821Y-106484496D01*
X165525312Y-106628147D01*
X165545148Y-106702173D01*
X165640382Y-106906406D01*
X165640385Y-106906410D01*
X165769642Y-107091009D01*
X165928991Y-107250358D01*
X166034476Y-107324219D01*
X166113593Y-107379618D01*
X166195086Y-107417618D01*
X166247262Y-107463375D01*
X166266682Y-107530000D01*
X166247262Y-107596625D01*
X166195086Y-107642382D01*
X166113593Y-107680381D01*
X165928987Y-107809645D01*
X165769645Y-107968987D01*
X165769642Y-107968990D01*
X165769642Y-107968991D01*
X165746208Y-108002458D01*
X165640382Y-108153593D01*
X165545148Y-108357826D01*
X165486820Y-108575506D01*
X165467179Y-108800000D01*
X165486820Y-109024493D01*
X165545148Y-109242173D01*
X165640382Y-109446406D01*
X165640385Y-109446410D01*
X165769642Y-109631009D01*
X165928991Y-109790358D01*
X166034476Y-109864219D01*
X166113593Y-109919618D01*
X166195086Y-109957618D01*
X166247262Y-110003375D01*
X166266682Y-110070000D01*
X166247262Y-110136625D01*
X166195086Y-110182382D01*
X166113593Y-110220381D01*
X165928987Y-110349645D01*
X165769645Y-110508987D01*
X165640382Y-110693593D01*
X165545148Y-110897826D01*
X165486820Y-111115506D01*
X165467179Y-111340000D01*
X165486820Y-111564493D01*
X165545148Y-111782173D01*
X165640382Y-111986406D01*
X165640385Y-111986410D01*
X165769642Y-112171009D01*
X165928991Y-112330358D01*
X166034869Y-112404494D01*
X166113591Y-112459616D01*
X166156802Y-112479765D01*
X166195086Y-112497617D01*
X166247262Y-112543373D01*
X166266682Y-112609998D01*
X166247263Y-112676623D01*
X166195087Y-112722381D01*
X166113592Y-112760383D01*
X165928987Y-112889645D01*
X165769645Y-113048987D01*
X165640382Y-113233593D01*
X165545148Y-113437826D01*
X165486820Y-113655506D01*
X165467179Y-113879999D01*
X165486820Y-114104493D01*
X165486821Y-114104496D01*
X165539340Y-114300500D01*
X165545148Y-114322173D01*
X165640382Y-114526406D01*
X165640385Y-114526410D01*
X165769642Y-114711009D01*
X165928991Y-114870358D01*
X166023462Y-114936507D01*
X166113593Y-114999618D01*
X166195086Y-115037618D01*
X166247262Y-115083375D01*
X166266682Y-115150000D01*
X166247262Y-115216625D01*
X166195086Y-115262382D01*
X166113593Y-115300381D01*
X165928987Y-115429645D01*
X165769645Y-115588987D01*
X165640382Y-115773593D01*
X165545148Y-115977826D01*
X165486820Y-116195506D01*
X165467179Y-116420000D01*
X165486820Y-116644493D01*
X165545148Y-116862173D01*
X165640382Y-117066406D01*
X165640385Y-117066410D01*
X165769642Y-117251009D01*
X165928991Y-117410358D01*
X166034476Y-117484219D01*
X166113593Y-117539618D01*
X166195086Y-117577618D01*
X166247262Y-117623375D01*
X166266682Y-117690000D01*
X166247262Y-117756625D01*
X166195086Y-117802382D01*
X166113593Y-117840381D01*
X165972958Y-117938856D01*
X165930931Y-117968284D01*
X165928987Y-117969645D01*
X165769645Y-118128987D01*
X165640382Y-118313593D01*
X165545148Y-118517826D01*
X165486820Y-118735506D01*
X165467179Y-118960000D01*
X165486820Y-119184493D01*
X165545148Y-119402173D01*
X165640382Y-119606406D01*
X165640385Y-119606410D01*
X165769642Y-119791009D01*
X165928991Y-119950358D01*
X166017397Y-120012260D01*
X166113593Y-120079618D01*
X166195086Y-120117618D01*
X166247262Y-120163375D01*
X166266682Y-120230000D01*
X166247262Y-120296625D01*
X166195086Y-120342382D01*
X166113593Y-120380381D01*
X165928987Y-120509645D01*
X165769645Y-120668987D01*
X165640382Y-120853593D01*
X165545148Y-121057826D01*
X165486820Y-121275506D01*
X165467179Y-121499999D01*
X165486820Y-121724493D01*
X165502806Y-121784151D01*
X165533981Y-121900500D01*
X165545148Y-121942173D01*
X165640382Y-122146406D01*
X165640385Y-122146410D01*
X165769642Y-122331009D01*
X165928991Y-122490358D01*
X166034476Y-122564219D01*
X166113593Y-122619618D01*
X166195086Y-122657618D01*
X166247262Y-122703375D01*
X166266682Y-122770000D01*
X166247262Y-122836625D01*
X166195086Y-122882382D01*
X166113593Y-122920381D01*
X165946508Y-123037376D01*
X165928993Y-123049641D01*
X165928987Y-123049645D01*
X165769645Y-123208987D01*
X165640382Y-123393593D01*
X165545148Y-123597826D01*
X165486820Y-123815506D01*
X165467179Y-124040000D01*
X165486820Y-124264493D01*
X165496200Y-124299500D01*
X165523129Y-124400000D01*
X165545148Y-124482173D01*
X165640382Y-124686406D01*
X165640385Y-124686410D01*
X165769642Y-124871009D01*
X165928991Y-125030358D01*
X166034476Y-125104219D01*
X166113593Y-125159618D01*
X166195086Y-125197618D01*
X166247262Y-125243375D01*
X166266682Y-125310000D01*
X166247262Y-125376625D01*
X166195086Y-125422382D01*
X166113593Y-125460381D01*
X165928987Y-125589645D01*
X165769645Y-125748987D01*
X165640382Y-125933593D01*
X165545148Y-126137826D01*
X165486820Y-126355506D01*
X165467179Y-126580000D01*
X165486820Y-126804493D01*
X165486821Y-126804496D01*
X165544873Y-127021149D01*
X165545148Y-127022173D01*
X165640382Y-127226406D01*
X165640385Y-127226410D01*
X165769642Y-127411009D01*
X165928991Y-127570358D01*
X166034476Y-127644219D01*
X166113593Y-127699618D01*
X166195086Y-127737618D01*
X166247262Y-127783375D01*
X166266682Y-127850000D01*
X166247262Y-127916625D01*
X166195086Y-127962382D01*
X166113593Y-128000381D01*
X165928987Y-128129645D01*
X165769645Y-128288987D01*
X165640382Y-128473593D01*
X165545148Y-128677826D01*
X165486820Y-128895506D01*
X165467179Y-129119999D01*
X165486820Y-129344493D01*
X165545148Y-129562173D01*
X165640382Y-129766406D01*
X165640385Y-129766410D01*
X165769642Y-129951009D01*
X165928991Y-130110358D01*
X166069323Y-130208619D01*
X166113591Y-130239616D01*
X166156802Y-130259765D01*
X166195086Y-130277617D01*
X166247262Y-130323373D01*
X166266682Y-130389998D01*
X166247263Y-130456623D01*
X166195087Y-130502381D01*
X166113592Y-130540383D01*
X165975020Y-130637412D01*
X165941128Y-130661144D01*
X165928987Y-130669645D01*
X165769645Y-130828987D01*
X165640382Y-131013593D01*
X165545148Y-131217826D01*
X165486820Y-131435506D01*
X165467179Y-131660000D01*
X165486820Y-131884493D01*
X165545148Y-132102173D01*
X165640382Y-132306406D01*
X165646249Y-132314785D01*
X165769642Y-132491009D01*
X165928991Y-132650358D01*
X166034476Y-132724219D01*
X166113593Y-132779618D01*
X166195086Y-132817618D01*
X166247262Y-132863375D01*
X166266682Y-132930000D01*
X166247262Y-132996625D01*
X166195086Y-133042382D01*
X166113593Y-133080381D01*
X165928987Y-133209645D01*
X165769645Y-133368987D01*
X165769642Y-133368990D01*
X165769642Y-133368991D01*
X165769258Y-133369540D01*
X165640382Y-133553593D01*
X165545148Y-133757826D01*
X165486820Y-133975506D01*
X165467179Y-134200000D01*
X165486820Y-134424493D01*
X165545148Y-134642173D01*
X165640382Y-134846406D01*
X165640385Y-134846410D01*
X165769642Y-135031009D01*
X165928991Y-135190358D01*
X166034476Y-135264219D01*
X166113593Y-135319618D01*
X166195086Y-135357618D01*
X166247262Y-135403375D01*
X166266682Y-135470000D01*
X166247262Y-135536625D01*
X166195086Y-135582382D01*
X166113593Y-135620381D01*
X165928987Y-135749645D01*
X165769645Y-135908987D01*
X165640382Y-136093593D01*
X165545148Y-136297826D01*
X165486820Y-136515506D01*
X165467179Y-136739999D01*
X165486820Y-136964493D01*
X165545148Y-137182173D01*
X165640382Y-137386406D01*
X165641678Y-137388257D01*
X165769642Y-137571009D01*
X165928991Y-137730358D01*
X166076670Y-137833763D01*
X166113591Y-137859616D01*
X166142054Y-137872888D01*
X166195086Y-137897617D01*
X166247262Y-137943373D01*
X166266682Y-138009998D01*
X166247263Y-138076623D01*
X166195087Y-138122381D01*
X166113592Y-138160383D01*
X165928987Y-138289645D01*
X165769645Y-138448987D01*
X165769642Y-138448990D01*
X165769642Y-138448991D01*
X165746208Y-138482458D01*
X165640382Y-138633593D01*
X165545148Y-138837826D01*
X165486820Y-139055506D01*
X165467179Y-139280000D01*
X165486820Y-139504493D01*
X165496028Y-139538856D01*
X165545120Y-139722071D01*
X165545148Y-139722173D01*
X165640382Y-139926406D01*
X165644100Y-139931716D01*
X165769642Y-140111009D01*
X165928991Y-140270358D01*
X166053194Y-140357326D01*
X166093520Y-140404540D01*
X166105900Y-140465386D01*
X166087231Y-140524605D01*
X166042193Y-140567349D01*
X165982079Y-140582900D01*
X165975534Y-140582900D01*
X165915915Y-140589309D01*
X165781069Y-140639604D01*
X165665854Y-140725854D01*
X165579604Y-140841068D01*
X165529309Y-140975916D01*
X165522900Y-141035530D01*
X165522900Y-142604469D01*
X165529309Y-142664084D01*
X165548293Y-142714983D01*
X165579604Y-142798931D01*
X165665854Y-142914146D01*
X165781069Y-143000396D01*
X165915917Y-143050691D01*
X165975527Y-143057100D01*
X165982063Y-143057099D01*
X166042179Y-143072642D01*
X166087224Y-143115384D01*
X166105899Y-143174605D01*
X166093521Y-143235455D01*
X166053193Y-143282673D01*
X165928991Y-143369641D01*
X165769645Y-143528987D01*
X165640382Y-143713593D01*
X165545148Y-143917826D01*
X165486820Y-144135506D01*
X165467179Y-144359999D01*
X131945938Y-144359999D01*
X131924063Y-144273619D01*
X131824173Y-144045893D01*
X131688164Y-143837715D01*
X131519744Y-143654762D01*
X131449386Y-143600000D01*
X131323514Y-143502029D01*
X131323510Y-143502026D01*
X131323509Y-143502026D01*
X131104810Y-143383672D01*
X131104806Y-143383670D01*
X131104805Y-143383670D01*
X130869615Y-143302929D01*
X130624335Y-143262000D01*
X130375665Y-143262000D01*
X130130384Y-143302929D01*
X129895194Y-143383670D01*
X129676485Y-143502029D01*
X129480259Y-143654759D01*
X129480256Y-143654761D01*
X129480256Y-143654762D01*
X129311836Y-143837715D01*
X129288856Y-143872889D01*
X129175825Y-144045895D01*
X129101040Y-144216389D01*
X129075937Y-144273619D01*
X129035901Y-144431716D01*
X129014891Y-144514683D01*
X128994356Y-144762499D01*
X127505643Y-144762499D01*
X127485108Y-144514679D01*
X127424063Y-144273619D01*
X127324173Y-144045893D01*
X127188164Y-143837715D01*
X127019744Y-143654762D01*
X126949386Y-143600000D01*
X126823514Y-143502029D01*
X126823510Y-143502026D01*
X126823509Y-143502026D01*
X126604810Y-143383672D01*
X126604806Y-143383670D01*
X126604805Y-143383670D01*
X126369615Y-143302929D01*
X126124335Y-143262000D01*
X125875665Y-143262000D01*
X125630384Y-143302929D01*
X125395194Y-143383670D01*
X125176485Y-143502029D01*
X124980259Y-143654759D01*
X124980256Y-143654761D01*
X124980256Y-143654762D01*
X124811836Y-143837715D01*
X124788856Y-143872889D01*
X124675825Y-144045895D01*
X124601040Y-144216389D01*
X124575937Y-144273619D01*
X124535901Y-144431716D01*
X124514891Y-144514683D01*
X124494356Y-144762499D01*
X120251514Y-144762499D01*
X120255449Y-144712500D01*
X120235683Y-144461352D01*
X120176873Y-144216389D01*
X120080466Y-143983641D01*
X119948836Y-143768841D01*
X119785224Y-143577276D01*
X119597593Y-143417024D01*
X119563040Y-143368899D01*
X119554758Y-143310234D01*
X119574637Y-143254426D01*
X119605635Y-143207468D01*
X119694103Y-143000488D01*
X119744191Y-142781037D01*
X119747853Y-142699500D01*
X143844540Y-142699500D01*
X143864326Y-142887757D01*
X143922820Y-143067784D01*
X144017466Y-143231716D01*
X144144129Y-143372389D01*
X144297269Y-143483651D01*
X144470197Y-143560644D01*
X144655352Y-143600000D01*
X144655354Y-143600000D01*
X144844646Y-143600000D01*
X144844648Y-143600000D01*
X144993859Y-143568284D01*
X145029803Y-143560644D01*
X145202730Y-143483651D01*
X145239709Y-143456784D01*
X145355870Y-143372389D01*
X145358344Y-143369642D01*
X145482533Y-143231716D01*
X145577179Y-143067784D01*
X145635674Y-142887756D01*
X145655460Y-142699500D01*
X145635674Y-142511244D01*
X145595713Y-142388256D01*
X145577179Y-142331215D01*
X145530290Y-142250000D01*
X157844540Y-142250000D01*
X157864326Y-142438257D01*
X157922820Y-142618284D01*
X158017466Y-142782216D01*
X158144129Y-142922889D01*
X158297269Y-143034151D01*
X158470197Y-143111144D01*
X158655352Y-143150500D01*
X158655354Y-143150500D01*
X158844646Y-143150500D01*
X158844648Y-143150500D01*
X158968083Y-143124262D01*
X159029803Y-143111144D01*
X159202730Y-143034151D01*
X159233571Y-143011744D01*
X159355870Y-142922889D01*
X159383785Y-142891887D01*
X159482533Y-142782216D01*
X159577179Y-142618284D01*
X159635674Y-142438256D01*
X159655460Y-142250000D01*
X159635674Y-142061744D01*
X159605332Y-141968363D01*
X159577179Y-141881715D01*
X159482533Y-141717783D01*
X159355870Y-141577110D01*
X159202730Y-141465848D01*
X159029802Y-141388855D01*
X158844648Y-141349500D01*
X158844646Y-141349500D01*
X158655354Y-141349500D01*
X158655352Y-141349500D01*
X158470197Y-141388855D01*
X158297269Y-141465848D01*
X158144129Y-141577110D01*
X158017466Y-141717783D01*
X157922820Y-141881715D01*
X157864326Y-142061742D01*
X157844540Y-142250000D01*
X145530290Y-142250000D01*
X145482533Y-142167283D01*
X145355870Y-142026610D01*
X145202730Y-141915348D01*
X145029802Y-141838355D01*
X144844648Y-141799000D01*
X144844646Y-141799000D01*
X144655354Y-141799000D01*
X144655352Y-141799000D01*
X144470197Y-141838355D01*
X144297269Y-141915348D01*
X144144129Y-142026610D01*
X144017466Y-142167283D01*
X143922820Y-142331215D01*
X143864326Y-142511242D01*
X143844540Y-142699500D01*
X119747853Y-142699500D01*
X119754290Y-142556170D01*
X119724075Y-142333113D01*
X119654517Y-142119036D01*
X119547852Y-141920819D01*
X119407508Y-141744834D01*
X119363488Y-141706374D01*
X119327143Y-141651313D01*
X119324183Y-141585402D01*
X119355448Y-141527303D01*
X119363747Y-141518623D01*
X119481632Y-141395325D01*
X119605635Y-141207468D01*
X119694103Y-141000488D01*
X119744191Y-140781037D01*
X119754290Y-140556170D01*
X119724075Y-140333113D01*
X119654517Y-140119036D01*
X119547852Y-139920819D01*
X119547849Y-139920815D01*
X119542563Y-139910992D01*
X119544087Y-139910171D01*
X119523773Y-139862959D01*
X119532090Y-139798081D01*
X119572257Y-139746462D01*
X119607546Y-139720046D01*
X119693796Y-139604831D01*
X119744091Y-139469983D01*
X119750500Y-139410373D01*
X119750499Y-138262500D01*
X124494356Y-138262500D01*
X124514891Y-138510316D01*
X124514891Y-138510319D01*
X124514892Y-138510321D01*
X124575937Y-138751381D01*
X124613855Y-138837826D01*
X124675825Y-138979104D01*
X124675827Y-138979107D01*
X124811836Y-139187285D01*
X124980256Y-139370238D01*
X124980259Y-139370240D01*
X125176485Y-139522970D01*
X125176487Y-139522971D01*
X125176491Y-139522974D01*
X125395190Y-139641328D01*
X125630386Y-139722071D01*
X125875665Y-139763000D01*
X126124335Y-139763000D01*
X126369614Y-139722071D01*
X126604810Y-139641328D01*
X126823509Y-139522974D01*
X127019744Y-139370238D01*
X127188164Y-139187285D01*
X127324173Y-138979107D01*
X127424063Y-138751381D01*
X127485108Y-138510321D01*
X127505643Y-138262500D01*
X128994356Y-138262500D01*
X129014891Y-138510316D01*
X129014891Y-138510319D01*
X129014892Y-138510321D01*
X129075937Y-138751381D01*
X129113855Y-138837826D01*
X129175825Y-138979104D01*
X129175827Y-138979107D01*
X129311836Y-139187285D01*
X129480256Y-139370238D01*
X129480259Y-139370240D01*
X129676485Y-139522970D01*
X129676487Y-139522971D01*
X129676491Y-139522974D01*
X129895190Y-139641328D01*
X130130386Y-139722071D01*
X130375665Y-139763000D01*
X130624335Y-139763000D01*
X130869614Y-139722071D01*
X131104810Y-139641328D01*
X131323509Y-139522974D01*
X131519744Y-139370238D01*
X131688164Y-139187285D01*
X131824173Y-138979107D01*
X131924063Y-138751381D01*
X131985108Y-138510321D01*
X132005643Y-138262500D01*
X131985108Y-138014679D01*
X131924063Y-137773619D01*
X131824173Y-137545893D01*
X131688164Y-137337715D01*
X131519744Y-137154762D01*
X131497612Y-137137536D01*
X131323514Y-137002029D01*
X131323510Y-137002026D01*
X131323509Y-137002026D01*
X131104810Y-136883672D01*
X131104806Y-136883670D01*
X131104805Y-136883670D01*
X130869615Y-136802929D01*
X130624335Y-136762000D01*
X130375665Y-136762000D01*
X130130384Y-136802929D01*
X129895194Y-136883670D01*
X129676485Y-137002029D01*
X129480259Y-137154759D01*
X129480256Y-137154761D01*
X129480256Y-137154762D01*
X129438612Y-137200000D01*
X129311837Y-137337714D01*
X129175825Y-137545895D01*
X129110464Y-137694905D01*
X129075937Y-137773619D01*
X129032949Y-137943373D01*
X129014891Y-138014683D01*
X128994356Y-138262500D01*
X127505643Y-138262500D01*
X127485108Y-138014679D01*
X127424063Y-137773619D01*
X127324173Y-137545893D01*
X127188164Y-137337715D01*
X127019744Y-137154762D01*
X126997612Y-137137536D01*
X126823514Y-137002029D01*
X126823510Y-137002026D01*
X126823509Y-137002026D01*
X126604810Y-136883672D01*
X126604806Y-136883670D01*
X126604805Y-136883670D01*
X126369615Y-136802929D01*
X126124335Y-136762000D01*
X125875665Y-136762000D01*
X125630384Y-136802929D01*
X125395194Y-136883670D01*
X125176485Y-137002029D01*
X124980259Y-137154759D01*
X124980256Y-137154761D01*
X124980256Y-137154762D01*
X124938612Y-137200000D01*
X124811837Y-137337714D01*
X124675825Y-137545895D01*
X124610464Y-137694905D01*
X124575937Y-137773619D01*
X124532949Y-137943373D01*
X124514891Y-138014683D01*
X124494356Y-138262500D01*
X119750499Y-138262500D01*
X119750499Y-137814628D01*
X119744091Y-137755017D01*
X119744089Y-137755012D01*
X119743978Y-137753977D01*
X119752043Y-137694905D01*
X119779888Y-137656002D01*
X119778886Y-137655146D01*
X119948834Y-137456161D01*
X119948836Y-137456159D01*
X120080466Y-137241359D01*
X120176873Y-137008611D01*
X120235683Y-136763648D01*
X120255449Y-136512500D01*
X120235683Y-136261352D01*
X120176873Y-136016389D01*
X120083748Y-135791565D01*
X120075234Y-135729004D01*
X120098632Y-135670358D01*
X120147872Y-135630837D01*
X120252730Y-135584151D01*
X120252730Y-135584150D01*
X120252734Y-135584149D01*
X120405870Y-135472889D01*
X120532533Y-135332216D01*
X120627179Y-135168284D01*
X120642091Y-135122389D01*
X120685674Y-134988256D01*
X120705460Y-134800000D01*
X120685674Y-134611744D01*
X120638088Y-134465291D01*
X120627179Y-134431715D01*
X120532533Y-134267783D01*
X120405870Y-134127110D01*
X120252730Y-134015848D01*
X120217135Y-134000000D01*
X139494540Y-134000000D01*
X139514326Y-134188257D01*
X139572820Y-134368284D01*
X139667466Y-134532216D01*
X139794129Y-134672889D01*
X139947269Y-134784151D01*
X140120197Y-134861144D01*
X140305352Y-134900500D01*
X140305354Y-134900500D01*
X140494646Y-134900500D01*
X140494648Y-134900500D01*
X140624551Y-134872888D01*
X140679803Y-134861144D01*
X140852730Y-134784151D01*
X141005871Y-134672888D01*
X141132533Y-134532216D01*
X141227179Y-134368284D01*
X141285674Y-134188256D01*
X141305460Y-134000000D01*
X141285674Y-133811744D01*
X141227179Y-133631716D01*
X141227179Y-133631715D01*
X141132533Y-133467783D01*
X141005870Y-133327110D01*
X140852730Y-133215848D01*
X140679802Y-133138855D01*
X140494648Y-133099500D01*
X140494646Y-133099500D01*
X140305354Y-133099500D01*
X140305352Y-133099500D01*
X140120197Y-133138855D01*
X139947269Y-133215848D01*
X139794129Y-133327110D01*
X139667466Y-133467783D01*
X139572820Y-133631715D01*
X139514326Y-133811742D01*
X139494540Y-134000000D01*
X120217135Y-134000000D01*
X120079802Y-133938855D01*
X119894648Y-133899500D01*
X119894646Y-133899500D01*
X119705354Y-133899500D01*
X119705352Y-133899500D01*
X119520197Y-133938855D01*
X119347269Y-134015848D01*
X119194129Y-134127110D01*
X119067466Y-134267783D01*
X118972820Y-134431715D01*
X118914326Y-134611742D01*
X118894001Y-134805127D01*
X118871630Y-134864172D01*
X118823085Y-134904547D01*
X118760952Y-134915783D01*
X118732516Y-134913545D01*
X118712882Y-134912000D01*
X117287118Y-134912000D01*
X117174158Y-134920890D01*
X117098850Y-134926817D01*
X116853889Y-134985626D01*
X116621139Y-135082035D01*
X116406342Y-135213663D01*
X116214776Y-135377276D01*
X116051163Y-135568842D01*
X115919535Y-135783639D01*
X115823126Y-136016389D01*
X115764317Y-136261350D01*
X115744551Y-136512499D01*
X115764317Y-136763649D01*
X115823126Y-137008610D01*
X115871330Y-137124984D01*
X115919534Y-137241359D01*
X115919535Y-137241360D01*
X116051165Y-137456161D01*
X116221114Y-137655146D01*
X116220112Y-137656001D01*
X116247958Y-137694914D01*
X116256020Y-137753975D01*
X116249500Y-137814628D01*
X116249500Y-139410369D01*
X116255909Y-139469984D01*
X116273016Y-139515849D01*
X116306204Y-139604831D01*
X116392453Y-139720044D01*
X116392455Y-139720047D01*
X116431596Y-139749348D01*
X116470289Y-139797564D01*
X116480894Y-139858469D01*
X116460774Y-139916925D01*
X116394364Y-140017532D01*
X116305896Y-140224512D01*
X116255809Y-140443962D01*
X116245709Y-140668828D01*
X116275925Y-140891888D01*
X116338395Y-141084151D01*
X116345483Y-141105964D01*
X116452148Y-141304181D01*
X116541200Y-141415848D01*
X116581074Y-141465849D01*
X116592492Y-141480166D01*
X116636510Y-141518624D01*
X116672856Y-141573686D01*
X116675816Y-141639596D01*
X116644552Y-141697695D01*
X116518368Y-141829674D01*
X116394365Y-142017531D01*
X116305896Y-142224512D01*
X116255809Y-142443962D01*
X116245709Y-142668828D01*
X116275925Y-142891888D01*
X116345483Y-143105964D01*
X116430687Y-143264301D01*
X116445388Y-143317960D01*
X116435147Y-143372647D01*
X116402025Y-143417350D01*
X116214776Y-143577276D01*
X116051163Y-143768842D01*
X115919535Y-143983639D01*
X115823126Y-144216389D01*
X115764317Y-144461350D01*
X115744551Y-144712500D01*
X73750000Y-144712500D01*
X73750000Y-140400000D01*
X88494540Y-140400000D01*
X88514326Y-140588257D01*
X88572820Y-140768284D01*
X88667466Y-140932216D01*
X88794129Y-141072889D01*
X88947269Y-141184151D01*
X89120197Y-141261144D01*
X89305352Y-141300500D01*
X89305354Y-141300500D01*
X89494646Y-141300500D01*
X89494648Y-141300500D01*
X89618084Y-141274262D01*
X89679803Y-141261144D01*
X89817133Y-141200000D01*
X90694540Y-141200000D01*
X90714326Y-141388257D01*
X90772820Y-141568284D01*
X90867466Y-141732216D01*
X90994129Y-141872889D01*
X91147269Y-141984151D01*
X91320197Y-142061144D01*
X91505352Y-142100500D01*
X91505354Y-142100500D01*
X91694646Y-142100500D01*
X91694648Y-142100500D01*
X91818084Y-142074262D01*
X91879803Y-142061144D01*
X92052730Y-141984151D01*
X92052730Y-141984150D01*
X92205870Y-141872889D01*
X92242943Y-141831716D01*
X92332533Y-141732216D01*
X92427179Y-141568284D01*
X92485674Y-141388256D01*
X92505460Y-141200000D01*
X92485674Y-141011744D01*
X92430218Y-140841068D01*
X92427179Y-140831715D01*
X92332533Y-140667783D01*
X92205870Y-140527110D01*
X92052730Y-140415848D01*
X91879802Y-140338855D01*
X91697000Y-140300000D01*
X94594540Y-140300000D01*
X94614326Y-140488257D01*
X94672820Y-140668284D01*
X94767466Y-140832216D01*
X94894129Y-140972889D01*
X95047267Y-141084150D01*
X95096258Y-141105962D01*
X95215341Y-141158982D01*
X95260449Y-141193220D01*
X95285629Y-141243945D01*
X95285629Y-141300576D01*
X95260449Y-141351301D01*
X95215341Y-141385540D01*
X95147269Y-141415848D01*
X94994129Y-141527110D01*
X94867466Y-141667783D01*
X94772820Y-141831715D01*
X94714326Y-142011742D01*
X94694540Y-142200000D01*
X94714326Y-142388257D01*
X94772820Y-142568284D01*
X94867466Y-142732216D01*
X94994129Y-142872889D01*
X95147269Y-142984151D01*
X95320197Y-143061144D01*
X95505352Y-143100500D01*
X95505354Y-143100500D01*
X95694646Y-143100500D01*
X95694648Y-143100500D01*
X95825709Y-143072642D01*
X95879803Y-143061144D01*
X96052730Y-142984151D01*
X96149084Y-142914146D01*
X96205870Y-142872889D01*
X96226633Y-142849830D01*
X96332533Y-142732216D01*
X96376901Y-142655369D01*
X102307002Y-142655369D01*
X102313411Y-142714984D01*
X102319838Y-142732216D01*
X102363706Y-142849831D01*
X102449956Y-142965046D01*
X102565171Y-143051296D01*
X102700019Y-143101591D01*
X102759629Y-143108000D01*
X105455374Y-143107999D01*
X105514985Y-143101591D01*
X105649833Y-143051296D01*
X105765048Y-142965046D01*
X105851298Y-142849831D01*
X105901593Y-142714983D01*
X105908002Y-142655373D01*
X105908001Y-141307500D01*
X107301952Y-141307500D01*
X107322118Y-141576600D01*
X107360517Y-141744835D01*
X107382168Y-141839695D01*
X107480759Y-142090898D01*
X107615687Y-142324602D01*
X107783941Y-142535585D01*
X107981761Y-142719135D01*
X108204728Y-142871151D01*
X108447861Y-142988238D01*
X108705730Y-143067780D01*
X108972573Y-143108000D01*
X109242431Y-143108000D01*
X109509274Y-143067780D01*
X109767143Y-142988238D01*
X110010277Y-142871151D01*
X110233243Y-142719135D01*
X110431063Y-142535585D01*
X110599317Y-142324602D01*
X110734245Y-142090898D01*
X110832836Y-141839695D01*
X110892885Y-141576603D01*
X110913051Y-141307500D01*
X110892885Y-141038397D01*
X110832836Y-140775305D01*
X110734245Y-140524102D01*
X110599317Y-140290398D01*
X110431063Y-140079415D01*
X110379655Y-140031715D01*
X110233245Y-139895866D01*
X110136160Y-139829675D01*
X110010277Y-139743849D01*
X109767143Y-139626762D01*
X109642310Y-139588256D01*
X109509273Y-139547219D01*
X109242431Y-139507000D01*
X108972573Y-139507000D01*
X108705730Y-139547219D01*
X108447861Y-139626762D01*
X108204730Y-139743847D01*
X107981759Y-139895866D01*
X107783941Y-140079415D01*
X107615686Y-140290399D01*
X107480759Y-140524101D01*
X107382168Y-140775304D01*
X107322118Y-141038399D01*
X107301952Y-141307500D01*
X105908001Y-141307500D01*
X105908001Y-139959628D01*
X105901593Y-139900017D01*
X105851298Y-139765169D01*
X105765048Y-139649954D01*
X105649833Y-139563704D01*
X105514985Y-139513409D01*
X105455375Y-139507000D01*
X105455371Y-139507000D01*
X102759632Y-139507000D01*
X102700017Y-139513409D01*
X102565171Y-139563704D01*
X102449956Y-139649954D01*
X102363706Y-139765168D01*
X102313411Y-139900015D01*
X102313411Y-139900017D01*
X102311175Y-139920819D01*
X102307002Y-139959630D01*
X102307002Y-142655369D01*
X96376901Y-142655369D01*
X96427179Y-142568284D01*
X96485674Y-142388256D01*
X96505460Y-142200000D01*
X96485674Y-142011744D01*
X96429772Y-141839695D01*
X96427179Y-141831715D01*
X96332533Y-141667783D01*
X96205870Y-141527110D01*
X96052730Y-141415848D01*
X95884658Y-141341017D01*
X95839550Y-141306778D01*
X95814370Y-141256053D01*
X95814370Y-141199422D01*
X95839551Y-141148697D01*
X95884657Y-141114459D01*
X95952730Y-141084151D01*
X96101702Y-140975917D01*
X96105870Y-140972889D01*
X96232533Y-140832216D01*
X96327179Y-140668284D01*
X96343965Y-140616623D01*
X96385674Y-140488256D01*
X96405460Y-140300000D01*
X96385674Y-140111744D01*
X96336248Y-139959627D01*
X96327179Y-139931715D01*
X96232533Y-139767783D01*
X96105870Y-139627110D01*
X95952730Y-139515848D01*
X95779802Y-139438855D01*
X95594648Y-139399500D01*
X95594646Y-139399500D01*
X95405354Y-139399500D01*
X95405352Y-139399500D01*
X95220197Y-139438855D01*
X95047269Y-139515848D01*
X94894129Y-139627110D01*
X94767466Y-139767783D01*
X94672820Y-139931715D01*
X94614326Y-140111742D01*
X94594540Y-140300000D01*
X91697000Y-140300000D01*
X91694648Y-140299500D01*
X91694646Y-140299500D01*
X91505354Y-140299500D01*
X91505352Y-140299500D01*
X91320197Y-140338855D01*
X91147269Y-140415848D01*
X90994129Y-140527110D01*
X90867466Y-140667783D01*
X90772820Y-140831715D01*
X90714326Y-141011742D01*
X90694540Y-141200000D01*
X89817133Y-141200000D01*
X89852730Y-141184151D01*
X89887374Y-141158981D01*
X90005870Y-141072889D01*
X90132533Y-140932216D01*
X90227179Y-140768284D01*
X90249241Y-140700385D01*
X90285674Y-140588256D01*
X90305460Y-140400000D01*
X90285674Y-140211744D01*
X90252943Y-140111009D01*
X90227179Y-140031715D01*
X90132533Y-139867783D01*
X90005870Y-139727110D01*
X89852730Y-139615848D01*
X89679802Y-139538855D01*
X89494648Y-139499500D01*
X89494646Y-139499500D01*
X89305354Y-139499500D01*
X89305352Y-139499500D01*
X89120197Y-139538855D01*
X88947269Y-139615848D01*
X88794129Y-139727110D01*
X88667466Y-139867783D01*
X88572820Y-140031715D01*
X88514326Y-140211742D01*
X88494540Y-140400000D01*
X73750000Y-140400000D01*
X73750000Y-136000000D01*
X75744680Y-136000000D01*
X75763948Y-136404494D01*
X75821579Y-136805325D01*
X75870896Y-137008611D01*
X75917051Y-137198867D01*
X76049496Y-137581542D01*
X76217720Y-137949900D01*
X76420197Y-138300601D01*
X76655089Y-138630459D01*
X76655093Y-138630464D01*
X76920280Y-138936507D01*
X77213358Y-139215956D01*
X77531672Y-139466281D01*
X77531679Y-139466285D01*
X77531681Y-139466287D01*
X77872331Y-139685210D01*
X77872337Y-139685213D01*
X77872340Y-139685215D01*
X78232276Y-139870775D01*
X78608221Y-140021281D01*
X78996770Y-140135369D01*
X79394405Y-140212007D01*
X79797524Y-140250500D01*
X80202471Y-140250500D01*
X80202476Y-140250500D01*
X80605595Y-140212007D01*
X81003230Y-140135369D01*
X81391779Y-140021281D01*
X81767724Y-139870775D01*
X82127660Y-139685215D01*
X82468328Y-139466281D01*
X82786642Y-139215956D01*
X83079720Y-138936507D01*
X83344907Y-138630464D01*
X83579803Y-138300600D01*
X83782279Y-137949900D01*
X83950503Y-137581543D01*
X84082950Y-137198862D01*
X84178421Y-136805325D01*
X84236052Y-136404494D01*
X84245793Y-136200000D01*
X93494540Y-136200000D01*
X93514326Y-136388257D01*
X93572820Y-136568284D01*
X93667466Y-136732216D01*
X93794129Y-136872889D01*
X93947269Y-136984151D01*
X94120197Y-137061144D01*
X94305352Y-137100500D01*
X94305354Y-137100500D01*
X94494646Y-137100500D01*
X94494648Y-137100500D01*
X94618084Y-137074262D01*
X94679803Y-137061144D01*
X94852730Y-136984151D01*
X95005871Y-136872888D01*
X95132533Y-136732216D01*
X95227179Y-136568284D01*
X95285674Y-136388256D01*
X95305460Y-136200000D01*
X95285674Y-136011744D01*
X95227179Y-135831716D01*
X95227179Y-135831715D01*
X95132533Y-135667783D01*
X95005870Y-135527110D01*
X94852730Y-135415848D01*
X94679802Y-135338855D01*
X94597163Y-135321290D01*
X94538060Y-135290392D01*
X94503512Y-135233346D01*
X94503512Y-135166654D01*
X94538060Y-135109608D01*
X94597163Y-135078710D01*
X94654269Y-135066571D01*
X94679803Y-135061144D01*
X94817133Y-135000000D01*
X102094540Y-135000000D01*
X102114326Y-135188257D01*
X102172820Y-135368284D01*
X102267466Y-135532216D01*
X102394129Y-135672889D01*
X102547269Y-135784151D01*
X102720197Y-135861144D01*
X102905352Y-135900500D01*
X102905354Y-135900500D01*
X103094646Y-135900500D01*
X103094648Y-135900500D01*
X103218084Y-135874262D01*
X103279803Y-135861144D01*
X103452730Y-135784151D01*
X103605871Y-135672888D01*
X103732533Y-135532216D01*
X103827179Y-135368284D01*
X103882069Y-135199348D01*
X103915116Y-135147276D01*
X103969162Y-135117564D01*
X104030838Y-135117564D01*
X104084884Y-135147276D01*
X104117931Y-135199350D01*
X104172820Y-135368284D01*
X104267466Y-135532216D01*
X104394129Y-135672889D01*
X104547269Y-135784151D01*
X104720197Y-135861144D01*
X104905352Y-135900500D01*
X104905354Y-135900500D01*
X105094646Y-135900500D01*
X105094648Y-135900500D01*
X105218084Y-135874262D01*
X105279803Y-135861144D01*
X105452730Y-135784151D01*
X105605871Y-135672888D01*
X105732533Y-135532216D01*
X105827179Y-135368284D01*
X105885674Y-135188256D01*
X105905460Y-135000000D01*
X105885674Y-134811744D01*
X105840557Y-134672888D01*
X105827179Y-134631715D01*
X105732533Y-134467783D01*
X105605870Y-134327110D01*
X105452730Y-134215848D01*
X105279802Y-134138855D01*
X105197163Y-134121290D01*
X105138060Y-134090392D01*
X105103512Y-134033346D01*
X105103512Y-133966654D01*
X105138060Y-133909608D01*
X105197163Y-133878710D01*
X105254269Y-133866571D01*
X105279803Y-133861144D01*
X105452730Y-133784151D01*
X105521471Y-133734208D01*
X105605870Y-133672889D01*
X105610468Y-133667783D01*
X105732533Y-133532216D01*
X105827179Y-133368284D01*
X105885674Y-133188256D01*
X105905460Y-133000000D01*
X105885674Y-132811744D01*
X105827179Y-132631716D01*
X105827179Y-132631715D01*
X105732533Y-132467783D01*
X105671501Y-132400000D01*
X118694540Y-132400000D01*
X118714326Y-132588257D01*
X118772820Y-132768284D01*
X118867466Y-132932216D01*
X118994129Y-133072889D01*
X119147269Y-133184151D01*
X119320197Y-133261144D01*
X119505352Y-133300500D01*
X119505354Y-133300500D01*
X119694646Y-133300500D01*
X119694648Y-133300500D01*
X119824551Y-133272888D01*
X119879803Y-133261144D01*
X120052730Y-133184151D01*
X120103484Y-133147276D01*
X120205870Y-133072889D01*
X120332533Y-132932216D01*
X120427179Y-132768284D01*
X120448757Y-132701873D01*
X120485674Y-132588256D01*
X120505460Y-132400000D01*
X120485674Y-132211744D01*
X120449528Y-132100500D01*
X120427179Y-132031715D01*
X120332533Y-131867783D01*
X120205870Y-131727110D01*
X120052730Y-131615848D01*
X120017133Y-131599999D01*
X132894540Y-131599999D01*
X132914326Y-131788257D01*
X132972820Y-131968284D01*
X133067466Y-132132216D01*
X133194129Y-132272889D01*
X133347269Y-132384151D01*
X133520197Y-132461144D01*
X133705352Y-132500500D01*
X133705354Y-132500500D01*
X133894646Y-132500500D01*
X133894648Y-132500500D01*
X134024641Y-132472869D01*
X134079803Y-132461144D01*
X134252730Y-132384151D01*
X134348199Y-132314789D01*
X134405870Y-132272889D01*
X134442943Y-132231716D01*
X134532533Y-132132216D01*
X134627179Y-131968284D01*
X134685674Y-131788256D01*
X134705460Y-131600000D01*
X134685674Y-131411744D01*
X134636741Y-131261144D01*
X134627179Y-131231715D01*
X134594435Y-131175000D01*
X143244551Y-131175000D01*
X143264317Y-131426149D01*
X143323126Y-131671110D01*
X143363377Y-131768284D01*
X143419534Y-131903859D01*
X143551164Y-132118659D01*
X143714776Y-132310224D01*
X143906341Y-132473836D01*
X144121141Y-132605466D01*
X144353889Y-132701873D01*
X144598852Y-132760683D01*
X144787118Y-132775500D01*
X146212879Y-132775500D01*
X146212882Y-132775500D01*
X146401148Y-132760683D01*
X146646111Y-132701873D01*
X146878859Y-132605466D01*
X146887779Y-132600000D01*
X150894540Y-132600000D01*
X150901617Y-132667331D01*
X150914326Y-132788257D01*
X150972820Y-132968284D01*
X151067466Y-133132216D01*
X151194129Y-133272889D01*
X151347269Y-133384151D01*
X151520197Y-133461144D01*
X151705352Y-133500500D01*
X151705354Y-133500500D01*
X151894646Y-133500500D01*
X151894648Y-133500500D01*
X152018083Y-133474262D01*
X152079803Y-133461144D01*
X152252730Y-133384151D01*
X152274569Y-133368284D01*
X152405870Y-133272889D01*
X152532533Y-133132216D01*
X152627179Y-132968284D01*
X152639618Y-132930000D01*
X152685674Y-132788256D01*
X152705460Y-132600000D01*
X152692098Y-132472869D01*
X155899500Y-132472869D01*
X155902471Y-132500500D01*
X155905909Y-132532483D01*
X155956204Y-132667331D01*
X156042454Y-132782546D01*
X156157669Y-132868796D01*
X156292517Y-132919091D01*
X156352127Y-132925500D01*
X158147872Y-132925499D01*
X158207483Y-132919091D01*
X158342331Y-132868796D01*
X158457546Y-132782546D01*
X158543796Y-132667331D01*
X158594091Y-132532483D01*
X158600500Y-132472873D01*
X158600499Y-130677128D01*
X158594091Y-130617517D01*
X158543796Y-130482669D01*
X158457546Y-130367454D01*
X158342331Y-130281204D01*
X158207483Y-130230909D01*
X158147873Y-130224500D01*
X158147869Y-130224500D01*
X156352130Y-130224500D01*
X156292515Y-130230909D01*
X156157669Y-130281204D01*
X156042454Y-130367454D01*
X155956204Y-130482668D01*
X155905909Y-130617515D01*
X155905909Y-130617517D01*
X155900305Y-130669645D01*
X155899500Y-130677130D01*
X155899500Y-132472869D01*
X152692098Y-132472869D01*
X152685674Y-132411744D01*
X152627179Y-132231716D01*
X152627179Y-132231715D01*
X152532533Y-132067783D01*
X152405870Y-131927110D01*
X152252730Y-131815848D01*
X152079802Y-131738855D01*
X151894648Y-131699500D01*
X151894646Y-131699500D01*
X151705354Y-131699500D01*
X151705352Y-131699500D01*
X151520197Y-131738855D01*
X151347269Y-131815848D01*
X151194129Y-131927110D01*
X151067466Y-132067783D01*
X150972820Y-132231715D01*
X150914326Y-132411742D01*
X150901636Y-132532483D01*
X150894540Y-132600000D01*
X146887779Y-132600000D01*
X147093659Y-132473836D01*
X147285224Y-132310224D01*
X147448836Y-132118659D01*
X147580466Y-131903859D01*
X147676873Y-131671111D01*
X147735683Y-131426148D01*
X147755449Y-131175000D01*
X147735683Y-130923852D01*
X147676873Y-130678889D01*
X147580466Y-130446141D01*
X147448836Y-130231341D01*
X147285224Y-130039776D01*
X147097593Y-129879524D01*
X147063040Y-129831399D01*
X147054758Y-129772734D01*
X147074637Y-129716926D01*
X147105635Y-129669968D01*
X147194103Y-129462988D01*
X147208480Y-129399999D01*
X158694540Y-129399999D01*
X158714326Y-129588257D01*
X158772820Y-129768284D01*
X158867466Y-129932216D01*
X158994129Y-130072889D01*
X159147269Y-130184151D01*
X159320197Y-130261144D01*
X159505352Y-130300500D01*
X159505354Y-130300500D01*
X159694646Y-130300500D01*
X159694648Y-130300500D01*
X159818084Y-130274262D01*
X159879803Y-130261144D01*
X160052730Y-130184151D01*
X160154298Y-130110358D01*
X160205870Y-130072889D01*
X160210468Y-130067783D01*
X160332533Y-129932216D01*
X160427179Y-129768284D01*
X160485674Y-129588256D01*
X160505460Y-129400000D01*
X160485674Y-129211744D01*
X160455332Y-129118363D01*
X160427179Y-129031715D01*
X160332533Y-128867783D01*
X160205870Y-128727110D01*
X160052730Y-128615848D01*
X159879802Y-128538855D01*
X159694648Y-128499500D01*
X159694646Y-128499500D01*
X159505354Y-128499500D01*
X159505352Y-128499500D01*
X159320197Y-128538855D01*
X159147269Y-128615848D01*
X158994129Y-128727110D01*
X158867466Y-128867783D01*
X158772820Y-129031715D01*
X158714326Y-129211742D01*
X158694540Y-129399999D01*
X147208480Y-129399999D01*
X147244191Y-129243537D01*
X147254290Y-129018670D01*
X147224075Y-128795613D01*
X147154517Y-128581536D01*
X147047852Y-128383319D01*
X146907508Y-128207334D01*
X146863488Y-128168874D01*
X146827143Y-128113813D01*
X146824183Y-128047902D01*
X146855448Y-127989803D01*
X146881665Y-127962382D01*
X146981632Y-127857825D01*
X147105635Y-127669968D01*
X147194103Y-127462988D01*
X147244191Y-127243537D01*
X147254290Y-127018670D01*
X147224075Y-126795613D01*
X147154517Y-126581536D01*
X147107950Y-126494999D01*
X155894340Y-126494999D01*
X155914936Y-126730407D01*
X155952352Y-126870043D01*
X155976097Y-126958663D01*
X156075965Y-127172830D01*
X156211505Y-127366401D01*
X156378599Y-127533495D01*
X156572170Y-127669035D01*
X156786337Y-127768903D01*
X157014592Y-127830063D01*
X157250000Y-127850659D01*
X157485408Y-127830063D01*
X157713663Y-127768903D01*
X157927830Y-127669035D01*
X158121401Y-127533495D01*
X158288495Y-127366401D01*
X158424035Y-127172830D01*
X158523903Y-126958663D01*
X158585063Y-126730408D01*
X158605659Y-126495000D01*
X158604349Y-126480032D01*
X158585063Y-126259592D01*
X158564418Y-126182544D01*
X158523903Y-126031337D01*
X158424035Y-125817171D01*
X158288495Y-125623599D01*
X158121401Y-125456505D01*
X157927830Y-125320965D01*
X157713663Y-125221097D01*
X157634927Y-125200000D01*
X157485407Y-125159936D01*
X157250000Y-125139340D01*
X157014592Y-125159936D01*
X156786336Y-125221097D01*
X156572170Y-125320965D01*
X156378598Y-125456505D01*
X156211505Y-125623598D01*
X156075965Y-125817170D01*
X155976097Y-126031336D01*
X155914936Y-126259592D01*
X155894340Y-126494999D01*
X147107950Y-126494999D01*
X147047852Y-126383319D01*
X147047849Y-126383315D01*
X147042563Y-126373492D01*
X147044087Y-126372671D01*
X147023773Y-126325459D01*
X147032090Y-126260581D01*
X147072257Y-126208962D01*
X147107546Y-126182546D01*
X147193796Y-126067331D01*
X147244091Y-125932483D01*
X147250500Y-125872873D01*
X147250499Y-124277128D01*
X147244091Y-124217517D01*
X147244089Y-124217512D01*
X147243978Y-124216477D01*
X147252043Y-124157405D01*
X147279888Y-124118502D01*
X147278886Y-124117646D01*
X147432098Y-123938257D01*
X147448836Y-123918659D01*
X147552191Y-123749999D01*
X151844540Y-123749999D01*
X151864326Y-123938257D01*
X151922820Y-124118284D01*
X152017466Y-124282216D01*
X152144129Y-124422889D01*
X152297269Y-124534151D01*
X152470197Y-124611144D01*
X152655352Y-124650500D01*
X152655354Y-124650500D01*
X152844646Y-124650500D01*
X152844648Y-124650500D01*
X152968083Y-124624262D01*
X153029803Y-124611144D01*
X153202730Y-124534151D01*
X153355871Y-124422888D01*
X153482533Y-124282216D01*
X153577179Y-124118284D01*
X153635674Y-123938256D01*
X153650205Y-123800000D01*
X158694540Y-123800000D01*
X158696170Y-123815506D01*
X158714326Y-123988257D01*
X158772820Y-124168284D01*
X158867466Y-124332216D01*
X158994129Y-124472889D01*
X159147269Y-124584151D01*
X159320197Y-124661144D01*
X159505352Y-124700500D01*
X159505354Y-124700500D01*
X159694646Y-124700500D01*
X159694648Y-124700500D01*
X159818084Y-124674262D01*
X159879803Y-124661144D01*
X160052730Y-124584151D01*
X160099735Y-124550000D01*
X160205870Y-124472889D01*
X160332533Y-124332216D01*
X160427179Y-124168284D01*
X160443354Y-124118502D01*
X160485674Y-123988256D01*
X160505460Y-123800000D01*
X160485674Y-123611744D01*
X160449366Y-123499999D01*
X160427179Y-123431715D01*
X160332533Y-123267783D01*
X160205870Y-123127110D01*
X160052730Y-123015848D01*
X159879802Y-122938855D01*
X159694648Y-122899500D01*
X159694646Y-122899500D01*
X159505354Y-122899500D01*
X159505352Y-122899500D01*
X159320197Y-122938855D01*
X159147269Y-123015848D01*
X158994129Y-123127110D01*
X158867466Y-123267783D01*
X158772820Y-123431715D01*
X158714326Y-123611742D01*
X158701664Y-123732216D01*
X158694540Y-123800000D01*
X153650205Y-123800000D01*
X153655460Y-123750000D01*
X153635674Y-123561744D01*
X153581037Y-123393590D01*
X153577179Y-123381715D01*
X153482533Y-123217783D01*
X153355870Y-123077110D01*
X153202730Y-122965848D01*
X153029802Y-122888855D01*
X152844648Y-122849500D01*
X152844646Y-122849500D01*
X152655354Y-122849500D01*
X152655352Y-122849500D01*
X152470197Y-122888855D01*
X152297269Y-122965848D01*
X152144129Y-123077110D01*
X152017466Y-123217783D01*
X151922820Y-123381715D01*
X151864326Y-123561742D01*
X151844540Y-123749999D01*
X147552191Y-123749999D01*
X147580466Y-123703859D01*
X147676873Y-123471111D01*
X147735683Y-123226148D01*
X147755449Y-122975000D01*
X147735683Y-122723852D01*
X147676873Y-122478889D01*
X147580466Y-122246141D01*
X147448836Y-122031341D01*
X147285224Y-121839776D01*
X147093659Y-121676164D01*
X146878859Y-121544534D01*
X146762485Y-121496330D01*
X146646110Y-121448126D01*
X146401149Y-121389317D01*
X146354081Y-121385612D01*
X146212882Y-121374500D01*
X144787118Y-121374500D01*
X144674158Y-121383390D01*
X144598850Y-121389317D01*
X144353889Y-121448126D01*
X144121139Y-121544535D01*
X143906342Y-121676163D01*
X143714776Y-121839776D01*
X143551163Y-122031342D01*
X143419535Y-122246139D01*
X143323126Y-122478889D01*
X143264317Y-122723850D01*
X143244551Y-122975000D01*
X143264317Y-123226149D01*
X143323126Y-123471110D01*
X143335093Y-123500000D01*
X143419534Y-123703859D01*
X143487950Y-123815504D01*
X143551165Y-123918661D01*
X143721114Y-124117646D01*
X143720112Y-124118501D01*
X143747958Y-124157414D01*
X143756020Y-124216475D01*
X143749500Y-124277128D01*
X143749500Y-125872869D01*
X143751335Y-125889934D01*
X143755909Y-125932483D01*
X143806204Y-126067331D01*
X143892453Y-126182544D01*
X143892455Y-126182547D01*
X143931596Y-126211848D01*
X143970289Y-126260064D01*
X143980894Y-126320969D01*
X143960774Y-126379425D01*
X143894364Y-126480032D01*
X143805896Y-126687012D01*
X143755809Y-126906462D01*
X143745709Y-127131328D01*
X143775925Y-127354388D01*
X143835862Y-127538856D01*
X143845483Y-127568464D01*
X143952148Y-127766681D01*
X144092492Y-127942666D01*
X144136510Y-127981124D01*
X144172856Y-128036186D01*
X144175816Y-128102096D01*
X144144552Y-128160195D01*
X144018368Y-128292174D01*
X143894365Y-128480031D01*
X143805896Y-128687012D01*
X143755809Y-128906462D01*
X143745709Y-129131328D01*
X143775925Y-129354388D01*
X143845483Y-129568464D01*
X143930687Y-129726801D01*
X143945388Y-129780460D01*
X143935147Y-129835147D01*
X143902025Y-129879850D01*
X143714776Y-130039776D01*
X143551163Y-130231342D01*
X143419535Y-130446139D01*
X143323126Y-130678889D01*
X143264317Y-130923850D01*
X143244551Y-131175000D01*
X134594435Y-131175000D01*
X134532533Y-131067783D01*
X134405870Y-130927110D01*
X134252730Y-130815848D01*
X134079802Y-130738855D01*
X133894648Y-130699500D01*
X133894646Y-130699500D01*
X133705354Y-130699500D01*
X133705352Y-130699500D01*
X133520197Y-130738855D01*
X133347269Y-130815848D01*
X133194129Y-130927110D01*
X133067466Y-131067783D01*
X132972820Y-131231715D01*
X132914326Y-131411742D01*
X132894540Y-131599999D01*
X120017133Y-131599999D01*
X119879802Y-131538855D01*
X119694648Y-131499500D01*
X119694646Y-131499500D01*
X119505354Y-131499500D01*
X119505352Y-131499500D01*
X119320197Y-131538855D01*
X119147269Y-131615848D01*
X118994129Y-131727110D01*
X118867466Y-131867783D01*
X118772820Y-132031715D01*
X118714326Y-132211742D01*
X118694540Y-132400000D01*
X105671501Y-132400000D01*
X105605870Y-132327110D01*
X105452730Y-132215848D01*
X105279802Y-132138855D01*
X105094648Y-132099500D01*
X105094646Y-132099500D01*
X104905354Y-132099500D01*
X104905352Y-132099500D01*
X104720197Y-132138855D01*
X104547269Y-132215848D01*
X104394129Y-132327110D01*
X104267466Y-132467783D01*
X104172820Y-132631715D01*
X104117931Y-132800649D01*
X104084884Y-132852723D01*
X104030838Y-132882435D01*
X103969162Y-132882435D01*
X103915116Y-132852723D01*
X103882069Y-132800649D01*
X103827179Y-132631715D01*
X103732533Y-132467783D01*
X103605870Y-132327110D01*
X103452730Y-132215848D01*
X103279802Y-132138855D01*
X103094648Y-132099500D01*
X103094646Y-132099500D01*
X102905354Y-132099500D01*
X102905352Y-132099500D01*
X102720197Y-132138855D01*
X102547269Y-132215848D01*
X102394129Y-132327110D01*
X102267466Y-132467783D01*
X102172820Y-132631715D01*
X102114326Y-132811742D01*
X102094540Y-133000000D01*
X102114326Y-133188257D01*
X102172820Y-133368284D01*
X102267466Y-133532216D01*
X102394129Y-133672889D01*
X102547269Y-133784151D01*
X102720197Y-133861144D01*
X102802836Y-133878710D01*
X102861939Y-133909608D01*
X102896487Y-133966654D01*
X102896487Y-134033346D01*
X102861939Y-134090392D01*
X102802836Y-134121290D01*
X102720197Y-134138855D01*
X102547269Y-134215848D01*
X102394129Y-134327110D01*
X102267466Y-134467783D01*
X102172820Y-134631715D01*
X102114326Y-134811742D01*
X102094540Y-135000000D01*
X94817133Y-135000000D01*
X94852730Y-134984151D01*
X95005871Y-134872888D01*
X95132533Y-134732216D01*
X95227179Y-134568284D01*
X95285674Y-134388256D01*
X95305460Y-134200000D01*
X95285674Y-134011744D01*
X95249528Y-133900500D01*
X95227179Y-133831715D01*
X95132533Y-133667783D01*
X95005870Y-133527110D01*
X94852730Y-133415848D01*
X94679802Y-133338855D01*
X94494648Y-133299500D01*
X94494646Y-133299500D01*
X94305354Y-133299500D01*
X94305352Y-133299500D01*
X94120197Y-133338855D01*
X93947269Y-133415848D01*
X93794129Y-133527110D01*
X93667466Y-133667783D01*
X93572820Y-133831715D01*
X93514326Y-134011742D01*
X93494540Y-134200000D01*
X93514326Y-134388257D01*
X93572820Y-134568284D01*
X93667466Y-134732216D01*
X93794129Y-134872889D01*
X93947269Y-134984151D01*
X94120197Y-135061144D01*
X94202836Y-135078710D01*
X94261939Y-135109608D01*
X94296487Y-135166654D01*
X94296487Y-135233346D01*
X94261939Y-135290392D01*
X94202836Y-135321290D01*
X94120197Y-135338855D01*
X93947269Y-135415848D01*
X93794129Y-135527110D01*
X93667466Y-135667783D01*
X93572820Y-135831715D01*
X93514326Y-136011742D01*
X93494540Y-136200000D01*
X84245793Y-136200000D01*
X84255320Y-136000000D01*
X84236052Y-135595506D01*
X84178421Y-135194675D01*
X84082950Y-134801138D01*
X84017399Y-134611742D01*
X83950503Y-134418457D01*
X83782279Y-134050099D01*
X83579802Y-133699398D01*
X83344910Y-133369540D01*
X83344434Y-133368991D01*
X83079720Y-133063493D01*
X82786642Y-132784044D01*
X82468328Y-132533719D01*
X82468321Y-132533715D01*
X82468318Y-132533712D01*
X82127668Y-132314789D01*
X82023611Y-132261144D01*
X81767724Y-132129225D01*
X81391779Y-131978719D01*
X81391778Y-131978718D01*
X81391774Y-131978717D01*
X81003228Y-131864630D01*
X80605601Y-131787994D01*
X80605599Y-131787993D01*
X80605595Y-131787993D01*
X80202476Y-131749500D01*
X79797524Y-131749500D01*
X79394405Y-131787993D01*
X79394401Y-131787993D01*
X79394398Y-131787994D01*
X78996771Y-131864630D01*
X78608225Y-131978717D01*
X78232276Y-132129225D01*
X77872331Y-132314789D01*
X77531681Y-132533712D01*
X77213354Y-132784047D01*
X76920280Y-133063492D01*
X76655089Y-133369540D01*
X76420197Y-133699398D01*
X76217720Y-134050099D01*
X76049496Y-134418457D01*
X75917051Y-134801132D01*
X75872294Y-134985626D01*
X75821579Y-135194675D01*
X75763948Y-135595506D01*
X75744680Y-136000000D01*
X73750000Y-136000000D01*
X73750000Y-129199999D01*
X103494540Y-129199999D01*
X103514326Y-129388257D01*
X103572820Y-129568284D01*
X103667466Y-129732216D01*
X103794129Y-129872889D01*
X103947269Y-129984151D01*
X104120193Y-130061143D01*
X104120196Y-130061143D01*
X104120197Y-130061144D01*
X104216358Y-130081583D01*
X104270280Y-130107883D01*
X104305546Y-130156421D01*
X104313896Y-130215834D01*
X104295711Y-130388855D01*
X104294540Y-130400000D01*
X104301461Y-130465848D01*
X104314326Y-130588257D01*
X104372820Y-130768284D01*
X104467466Y-130932216D01*
X104594129Y-131072889D01*
X104747269Y-131184151D01*
X104920197Y-131261144D01*
X105105352Y-131300500D01*
X105105354Y-131300500D01*
X105294646Y-131300500D01*
X105294648Y-131300500D01*
X105424551Y-131272888D01*
X105479803Y-131261144D01*
X105652730Y-131184151D01*
X105805871Y-131072888D01*
X105932533Y-130932216D01*
X106008868Y-130800000D01*
X112294540Y-130800000D01*
X112314326Y-130988257D01*
X112372820Y-131168284D01*
X112467466Y-131332216D01*
X112594129Y-131472889D01*
X112747269Y-131584151D01*
X112920197Y-131661144D01*
X113105352Y-131700500D01*
X113105354Y-131700500D01*
X113294646Y-131700500D01*
X113294648Y-131700500D01*
X113418084Y-131674262D01*
X113479803Y-131661144D01*
X113652730Y-131584151D01*
X113674569Y-131568284D01*
X113805870Y-131472889D01*
X113843332Y-131431284D01*
X113932533Y-131332216D01*
X114027179Y-131168284D01*
X114085674Y-130988256D01*
X114105460Y-130800000D01*
X114085674Y-130611744D01*
X114050140Y-130502381D01*
X114027179Y-130431715D01*
X113932533Y-130267783D01*
X113805870Y-130127110D01*
X113652730Y-130015848D01*
X113479802Y-129938855D01*
X113294648Y-129899500D01*
X113294646Y-129899500D01*
X113105354Y-129899500D01*
X113105352Y-129899500D01*
X112920197Y-129938855D01*
X112747269Y-130015848D01*
X112594129Y-130127110D01*
X112467466Y-130267783D01*
X112372820Y-130431715D01*
X112314326Y-130611742D01*
X112294540Y-130800000D01*
X106008868Y-130800000D01*
X106027179Y-130768284D01*
X106085674Y-130588256D01*
X106105460Y-130400000D01*
X106085674Y-130211744D01*
X106055332Y-130118363D01*
X106027179Y-130031715D01*
X105932533Y-129867783D01*
X105805870Y-129727110D01*
X105652730Y-129615848D01*
X105479802Y-129538855D01*
X105383643Y-129518416D01*
X105329718Y-129492116D01*
X105294453Y-129443577D01*
X105286103Y-129384168D01*
X105305460Y-129200000D01*
X105285674Y-129011744D01*
X105251466Y-128906462D01*
X105227179Y-128831715D01*
X105132533Y-128667783D01*
X105005870Y-128527110D01*
X104852730Y-128415848D01*
X104817135Y-128400000D01*
X113294540Y-128400000D01*
X113303022Y-128480706D01*
X113314326Y-128588257D01*
X113372820Y-128768284D01*
X113467466Y-128932216D01*
X113594129Y-129072889D01*
X113747269Y-129184151D01*
X113920197Y-129261144D01*
X114105352Y-129300500D01*
X114105354Y-129300500D01*
X114294646Y-129300500D01*
X114294648Y-129300500D01*
X114418084Y-129274262D01*
X114479803Y-129261144D01*
X114652730Y-129184151D01*
X114731241Y-129127110D01*
X114805870Y-129072889D01*
X114808570Y-129069891D01*
X114932533Y-128932216D01*
X115027179Y-128768284D01*
X115085674Y-128588256D01*
X115105460Y-128400000D01*
X115085674Y-128211744D01*
X115041880Y-128076961D01*
X115027179Y-128031715D01*
X114932533Y-127867783D01*
X114805870Y-127727110D01*
X114652730Y-127615848D01*
X114479802Y-127538855D01*
X114294648Y-127499500D01*
X114294646Y-127499500D01*
X114105354Y-127499500D01*
X114105352Y-127499500D01*
X113920197Y-127538855D01*
X113747269Y-127615848D01*
X113594129Y-127727110D01*
X113467466Y-127867783D01*
X113372820Y-128031715D01*
X113314326Y-128211742D01*
X113296293Y-128383318D01*
X113294540Y-128400000D01*
X104817135Y-128400000D01*
X104679802Y-128338855D01*
X104494648Y-128299500D01*
X104494646Y-128299500D01*
X104305354Y-128299500D01*
X104305352Y-128299500D01*
X104120197Y-128338855D01*
X103947269Y-128415848D01*
X103794129Y-128527110D01*
X103667466Y-128667783D01*
X103572820Y-128831715D01*
X103514326Y-129011742D01*
X103494540Y-129199999D01*
X73750000Y-129199999D01*
X73750000Y-127119999D01*
X116644340Y-127119999D01*
X116664936Y-127355407D01*
X116703546Y-127499500D01*
X116726097Y-127583663D01*
X116825965Y-127797830D01*
X116961505Y-127991401D01*
X117128599Y-128158495D01*
X117322170Y-128294035D01*
X117536337Y-128393903D01*
X117764592Y-128455063D01*
X118000000Y-128475659D01*
X118235408Y-128455063D01*
X118463663Y-128393903D01*
X118677830Y-128294035D01*
X118871401Y-128158495D01*
X119038495Y-127991401D01*
X119174035Y-127797830D01*
X119273903Y-127583663D01*
X119335063Y-127355408D01*
X119355659Y-127120000D01*
X119355659Y-127119999D01*
X121144340Y-127119999D01*
X121164936Y-127355407D01*
X121203546Y-127499500D01*
X121226097Y-127583663D01*
X121325965Y-127797830D01*
X121461505Y-127991401D01*
X121628599Y-128158495D01*
X121822170Y-128294035D01*
X122036337Y-128393903D01*
X122264592Y-128455063D01*
X122500000Y-128475659D01*
X122735408Y-128455063D01*
X122963663Y-128393903D01*
X123177830Y-128294035D01*
X123371401Y-128158495D01*
X123538495Y-127991401D01*
X123674035Y-127797830D01*
X123773903Y-127583663D01*
X123835063Y-127355408D01*
X123855659Y-127120000D01*
X130144340Y-127120000D01*
X130164936Y-127355407D01*
X130203546Y-127499500D01*
X130226097Y-127583663D01*
X130325965Y-127797830D01*
X130461505Y-127991401D01*
X130628599Y-128158495D01*
X130822170Y-128294035D01*
X131036337Y-128393903D01*
X131264592Y-128455063D01*
X131500000Y-128475659D01*
X131735408Y-128455063D01*
X131963663Y-128393903D01*
X132177830Y-128294035D01*
X132371401Y-128158495D01*
X132538495Y-127991401D01*
X132674035Y-127797830D01*
X132773903Y-127583663D01*
X132835063Y-127355408D01*
X132855659Y-127120000D01*
X134644340Y-127120000D01*
X134664936Y-127355407D01*
X134703546Y-127499500D01*
X134726097Y-127583663D01*
X134825965Y-127797830D01*
X134961505Y-127991401D01*
X135128599Y-128158495D01*
X135322170Y-128294035D01*
X135536337Y-128393903D01*
X135764592Y-128455063D01*
X136000000Y-128475659D01*
X136235408Y-128455063D01*
X136463663Y-128393903D01*
X136677830Y-128294035D01*
X136871401Y-128158495D01*
X137038495Y-127991401D01*
X137174035Y-127797830D01*
X137273903Y-127583663D01*
X137335063Y-127355408D01*
X137355659Y-127120000D01*
X137355376Y-127116771D01*
X137335063Y-126884592D01*
X137331165Y-126870043D01*
X137273903Y-126656337D01*
X137174035Y-126442171D01*
X137038495Y-126248599D01*
X136871401Y-126081505D01*
X136685839Y-125951573D01*
X136646975Y-125907257D01*
X136632964Y-125850000D01*
X136646975Y-125792743D01*
X136685839Y-125748426D01*
X136871401Y-125618495D01*
X137038495Y-125451401D01*
X137174035Y-125257830D01*
X137273903Y-125043663D01*
X137335063Y-124815408D01*
X137355659Y-124580000D01*
X137335063Y-124344592D01*
X137273903Y-124116337D01*
X137174035Y-123902171D01*
X137038495Y-123708599D01*
X136871401Y-123541505D01*
X136677830Y-123405965D01*
X136463663Y-123306097D01*
X136402502Y-123289709D01*
X136235407Y-123244936D01*
X136000000Y-123224340D01*
X135764592Y-123244936D01*
X135536336Y-123306097D01*
X135322170Y-123405965D01*
X135128598Y-123541505D01*
X134961505Y-123708598D01*
X134825965Y-123902170D01*
X134726097Y-124116336D01*
X134664936Y-124344592D01*
X134644340Y-124579999D01*
X134664936Y-124815407D01*
X134709709Y-124982501D01*
X134726097Y-125043663D01*
X134825965Y-125257830D01*
X134961505Y-125451401D01*
X135128599Y-125618495D01*
X135314160Y-125748426D01*
X135353024Y-125792743D01*
X135367035Y-125850000D01*
X135353024Y-125907257D01*
X135314158Y-125951575D01*
X135129638Y-126080778D01*
X135128595Y-126081508D01*
X134961505Y-126248598D01*
X134825965Y-126442170D01*
X134726097Y-126656336D01*
X134664936Y-126884592D01*
X134644340Y-127120000D01*
X132855659Y-127120000D01*
X132855376Y-127116771D01*
X132835063Y-126884592D01*
X132831165Y-126870043D01*
X132773903Y-126656337D01*
X132674035Y-126442171D01*
X132538495Y-126248599D01*
X132371401Y-126081505D01*
X132185839Y-125951573D01*
X132146975Y-125907257D01*
X132132964Y-125850000D01*
X132146975Y-125792743D01*
X132185839Y-125748426D01*
X132371401Y-125618495D01*
X132538495Y-125451401D01*
X132674035Y-125257830D01*
X132773903Y-125043663D01*
X132835063Y-124815408D01*
X132855659Y-124580000D01*
X132835063Y-124344592D01*
X132773903Y-124116337D01*
X132674035Y-123902171D01*
X132538495Y-123708599D01*
X132371401Y-123541505D01*
X132177830Y-123405965D01*
X131963663Y-123306097D01*
X131902502Y-123289709D01*
X131735407Y-123244936D01*
X131500000Y-123224340D01*
X131264592Y-123244936D01*
X131036336Y-123306097D01*
X130822170Y-123405965D01*
X130628598Y-123541505D01*
X130461505Y-123708598D01*
X130325965Y-123902170D01*
X130226097Y-124116336D01*
X130164936Y-124344592D01*
X130144340Y-124579999D01*
X130164936Y-124815407D01*
X130209709Y-124982501D01*
X130226097Y-125043663D01*
X130325965Y-125257830D01*
X130461505Y-125451401D01*
X130628599Y-125618495D01*
X130814160Y-125748426D01*
X130853024Y-125792743D01*
X130867035Y-125850000D01*
X130853024Y-125907257D01*
X130814158Y-125951575D01*
X130629638Y-126080778D01*
X130628595Y-126081508D01*
X130461505Y-126248598D01*
X130325965Y-126442170D01*
X130226097Y-126656336D01*
X130164936Y-126884592D01*
X130144340Y-127120000D01*
X123855659Y-127120000D01*
X123855376Y-127116771D01*
X123835063Y-126884592D01*
X123831165Y-126870043D01*
X123773903Y-126656337D01*
X123674035Y-126442171D01*
X123538495Y-126248599D01*
X123371401Y-126081505D01*
X123185839Y-125951573D01*
X123146975Y-125907257D01*
X123132964Y-125850000D01*
X123146975Y-125792743D01*
X123185839Y-125748426D01*
X123371401Y-125618495D01*
X123538495Y-125451401D01*
X123674035Y-125257830D01*
X123773903Y-125043663D01*
X123835063Y-124815408D01*
X123855659Y-124580000D01*
X123835063Y-124344592D01*
X123773903Y-124116337D01*
X123674035Y-123902171D01*
X123538495Y-123708599D01*
X123371401Y-123541505D01*
X123185839Y-123411573D01*
X123146974Y-123367255D01*
X123132964Y-123309999D01*
X123146975Y-123252742D01*
X123185837Y-123208428D01*
X123371401Y-123078495D01*
X123538495Y-122911401D01*
X123674035Y-122717830D01*
X123773903Y-122503663D01*
X123835063Y-122275408D01*
X123855659Y-122040000D01*
X123835063Y-121804592D01*
X123773903Y-121576337D01*
X123674035Y-121362171D01*
X123560481Y-121199999D01*
X147894540Y-121199999D01*
X147914326Y-121388257D01*
X147972820Y-121568284D01*
X148067466Y-121732216D01*
X148194129Y-121872889D01*
X148347269Y-121984151D01*
X148520197Y-122061144D01*
X148705352Y-122100500D01*
X148705354Y-122100500D01*
X148894646Y-122100500D01*
X148894648Y-122100500D01*
X149018084Y-122074262D01*
X149079803Y-122061144D01*
X149252730Y-121984151D01*
X149367866Y-121900500D01*
X149405870Y-121872889D01*
X149532533Y-121732216D01*
X149627179Y-121568284D01*
X149627178Y-121568284D01*
X149685674Y-121388256D01*
X149705460Y-121200000D01*
X149685674Y-121011744D01*
X149636740Y-120861142D01*
X149627179Y-120831715D01*
X149532533Y-120667783D01*
X149405870Y-120527110D01*
X149252730Y-120415848D01*
X149079802Y-120338855D01*
X148894648Y-120299500D01*
X148894646Y-120299500D01*
X148705354Y-120299500D01*
X148705352Y-120299500D01*
X148520197Y-120338855D01*
X148347269Y-120415848D01*
X148194129Y-120527110D01*
X148067466Y-120667783D01*
X147972820Y-120831715D01*
X147914326Y-121011742D01*
X147894540Y-121199999D01*
X123560481Y-121199999D01*
X123538495Y-121168599D01*
X123416568Y-121046672D01*
X123385273Y-120993927D01*
X123383084Y-120932634D01*
X123410537Y-120877789D01*
X123460916Y-120842810D01*
X123592331Y-120793796D01*
X123707546Y-120707546D01*
X123793796Y-120592331D01*
X123844091Y-120457483D01*
X123850500Y-120397873D01*
X123850500Y-120397869D01*
X130149500Y-120397869D01*
X130155909Y-120457484D01*
X130159751Y-120467784D01*
X130206204Y-120592331D01*
X130292454Y-120707546D01*
X130407669Y-120793796D01*
X130542517Y-120844091D01*
X130602127Y-120850500D01*
X132397872Y-120850499D01*
X132457483Y-120844091D01*
X132592331Y-120793796D01*
X132707546Y-120707546D01*
X132793796Y-120592331D01*
X132844091Y-120457483D01*
X132850500Y-120397873D01*
X132850500Y-120397869D01*
X134649500Y-120397869D01*
X134655909Y-120457484D01*
X134659751Y-120467784D01*
X134706204Y-120592331D01*
X134792454Y-120707546D01*
X134907669Y-120793796D01*
X135042517Y-120844091D01*
X135102127Y-120850500D01*
X136897872Y-120850499D01*
X136957483Y-120844091D01*
X137092331Y-120793796D01*
X137207546Y-120707546D01*
X137293796Y-120592331D01*
X137344091Y-120457483D01*
X137350500Y-120397873D01*
X137350500Y-120000000D01*
X155094540Y-120000000D01*
X155104432Y-120094127D01*
X155114326Y-120188257D01*
X155172820Y-120368284D01*
X155267466Y-120532216D01*
X155394129Y-120672889D01*
X155547269Y-120784151D01*
X155609244Y-120811744D01*
X155720197Y-120861144D01*
X155857361Y-120890299D01*
X155916145Y-120920900D01*
X155950774Y-120977408D01*
X155951353Y-121043681D01*
X155914936Y-121179592D01*
X155894340Y-121415000D01*
X155914936Y-121650407D01*
X155936857Y-121732216D01*
X155976097Y-121878663D01*
X156075965Y-122092830D01*
X156211505Y-122286401D01*
X156378599Y-122453495D01*
X156572170Y-122589035D01*
X156786337Y-122688903D01*
X157014592Y-122750063D01*
X157250000Y-122770659D01*
X157485408Y-122750063D01*
X157713663Y-122688903D01*
X157927830Y-122589035D01*
X158121401Y-122453495D01*
X158288495Y-122286401D01*
X158424035Y-122092830D01*
X158523903Y-121878663D01*
X158585063Y-121650408D01*
X158605659Y-121415000D01*
X158585063Y-121179592D01*
X158523903Y-120951337D01*
X158424035Y-120737171D01*
X158288495Y-120543599D01*
X158121401Y-120376505D01*
X157927830Y-120240965D01*
X157713663Y-120141097D01*
X157652502Y-120124709D01*
X157485407Y-120079936D01*
X157249999Y-120059340D01*
X157036169Y-120078048D01*
X156973612Y-120067205D01*
X156924621Y-120026820D01*
X156902042Y-119967485D01*
X156885674Y-119811744D01*
X156849528Y-119700500D01*
X156827179Y-119631715D01*
X156730759Y-119464710D01*
X156714222Y-119407037D01*
X156726696Y-119348350D01*
X156765261Y-119302392D01*
X156805871Y-119272888D01*
X156932533Y-119132216D01*
X157027179Y-118968284D01*
X157085674Y-118788256D01*
X157105460Y-118600000D01*
X157085674Y-118411744D01*
X157027179Y-118231716D01*
X157027179Y-118231715D01*
X156932533Y-118067783D01*
X156805870Y-117927110D01*
X156652730Y-117815848D01*
X156479802Y-117738855D01*
X156294648Y-117699500D01*
X156294646Y-117699500D01*
X156105354Y-117699500D01*
X156105352Y-117699500D01*
X155920197Y-117738855D01*
X155747269Y-117815848D01*
X155594129Y-117927110D01*
X155467466Y-118067783D01*
X155372820Y-118231715D01*
X155314326Y-118411742D01*
X155294540Y-118600000D01*
X155314326Y-118788257D01*
X155372820Y-118968284D01*
X155469240Y-119135288D01*
X155485777Y-119192960D01*
X155473304Y-119251645D01*
X155434740Y-119297605D01*
X155394129Y-119327111D01*
X155267466Y-119467783D01*
X155172820Y-119631715D01*
X155114326Y-119811742D01*
X155108383Y-119868286D01*
X155094540Y-120000000D01*
X137350500Y-120000000D01*
X137350499Y-118602128D01*
X137344091Y-118542517D01*
X137293796Y-118407669D01*
X137207546Y-118292454D01*
X137092331Y-118206204D01*
X136957483Y-118155909D01*
X136897873Y-118149500D01*
X136897869Y-118149500D01*
X135102130Y-118149500D01*
X135042515Y-118155909D01*
X134907669Y-118206204D01*
X134792454Y-118292454D01*
X134706204Y-118407668D01*
X134655909Y-118542515D01*
X134655909Y-118542517D01*
X134649783Y-118599500D01*
X134649500Y-118602130D01*
X134649500Y-120397869D01*
X132850500Y-120397869D01*
X132850499Y-118602128D01*
X132844091Y-118542517D01*
X132793796Y-118407669D01*
X132707546Y-118292454D01*
X132592331Y-118206204D01*
X132457483Y-118155909D01*
X132397873Y-118149500D01*
X132397869Y-118149500D01*
X130602130Y-118149500D01*
X130542515Y-118155909D01*
X130407669Y-118206204D01*
X130292454Y-118292454D01*
X130206204Y-118407668D01*
X130155909Y-118542515D01*
X130155909Y-118542517D01*
X130149783Y-118599500D01*
X130149500Y-118602130D01*
X130149500Y-120397869D01*
X123850500Y-120397869D01*
X123850499Y-118602128D01*
X123844091Y-118542517D01*
X123793796Y-118407669D01*
X123707546Y-118292454D01*
X123592331Y-118206204D01*
X123457483Y-118155909D01*
X123397873Y-118149500D01*
X123397869Y-118149500D01*
X121602130Y-118149500D01*
X121542515Y-118155909D01*
X121407669Y-118206204D01*
X121292454Y-118292454D01*
X121206204Y-118407668D01*
X121155909Y-118542515D01*
X121155909Y-118542517D01*
X121149783Y-118599500D01*
X121149500Y-118602130D01*
X121149500Y-120397869D01*
X121155909Y-120457484D01*
X121159751Y-120467784D01*
X121206204Y-120592331D01*
X121292454Y-120707546D01*
X121407669Y-120793796D01*
X121509335Y-120831715D01*
X121539082Y-120842810D01*
X121589462Y-120877789D01*
X121616915Y-120932634D01*
X121614726Y-120993926D01*
X121583431Y-121046673D01*
X121461503Y-121168601D01*
X121325965Y-121362170D01*
X121226097Y-121576336D01*
X121164936Y-121804592D01*
X121144340Y-122039999D01*
X121164936Y-122275407D01*
X121209709Y-122442502D01*
X121226097Y-122503663D01*
X121325965Y-122717830D01*
X121461505Y-122911401D01*
X121628599Y-123078495D01*
X121814160Y-123208426D01*
X121853024Y-123252743D01*
X121867035Y-123310000D01*
X121853024Y-123367257D01*
X121814159Y-123411575D01*
X121813918Y-123411744D01*
X121729133Y-123471111D01*
X121628595Y-123541508D01*
X121461505Y-123708598D01*
X121325965Y-123902170D01*
X121226097Y-124116336D01*
X121164936Y-124344592D01*
X121144340Y-124580000D01*
X121164936Y-124815407D01*
X121209709Y-124982501D01*
X121226097Y-125043663D01*
X121325965Y-125257830D01*
X121461505Y-125451401D01*
X121628599Y-125618495D01*
X121814160Y-125748426D01*
X121853024Y-125792743D01*
X121867035Y-125850000D01*
X121853024Y-125907257D01*
X121814158Y-125951575D01*
X121629638Y-126080778D01*
X121628595Y-126081508D01*
X121461505Y-126248598D01*
X121325965Y-126442170D01*
X121226097Y-126656336D01*
X121164936Y-126884592D01*
X121144340Y-127119999D01*
X119355659Y-127119999D01*
X119355376Y-127116771D01*
X119335063Y-126884592D01*
X119331165Y-126870043D01*
X119273903Y-126656337D01*
X119174035Y-126442171D01*
X119038495Y-126248599D01*
X118871401Y-126081505D01*
X118685839Y-125951573D01*
X118646975Y-125907257D01*
X118632964Y-125850000D01*
X118646975Y-125792743D01*
X118685839Y-125748426D01*
X118871401Y-125618495D01*
X119038495Y-125451401D01*
X119174035Y-125257830D01*
X119273903Y-125043663D01*
X119335063Y-124815408D01*
X119355659Y-124580000D01*
X119335063Y-124344592D01*
X119273903Y-124116337D01*
X119174035Y-123902171D01*
X119038495Y-123708599D01*
X118871401Y-123541505D01*
X118685839Y-123411573D01*
X118646974Y-123367255D01*
X118632964Y-123309999D01*
X118646975Y-123252742D01*
X118685837Y-123208428D01*
X118871401Y-123078495D01*
X119038495Y-122911401D01*
X119174035Y-122717830D01*
X119273903Y-122503663D01*
X119335063Y-122275408D01*
X119355659Y-122040000D01*
X119354901Y-122031341D01*
X119335063Y-121804592D01*
X119315670Y-121732216D01*
X119273903Y-121576337D01*
X119174035Y-121362171D01*
X119038495Y-121168599D01*
X118916568Y-121046672D01*
X118885273Y-120993927D01*
X118883084Y-120932634D01*
X118910537Y-120877789D01*
X118960916Y-120842810D01*
X119092331Y-120793796D01*
X119207546Y-120707546D01*
X119293796Y-120592331D01*
X119344091Y-120457483D01*
X119350500Y-120397873D01*
X119350499Y-118602128D01*
X119344091Y-118542517D01*
X119293796Y-118407669D01*
X119207546Y-118292454D01*
X119092331Y-118206204D01*
X118957483Y-118155909D01*
X118897873Y-118149500D01*
X118897869Y-118149500D01*
X117102130Y-118149500D01*
X117042515Y-118155909D01*
X116907669Y-118206204D01*
X116792454Y-118292454D01*
X116706204Y-118407668D01*
X116655909Y-118542515D01*
X116655909Y-118542517D01*
X116649783Y-118599500D01*
X116649500Y-118602130D01*
X116649500Y-120397869D01*
X116655909Y-120457484D01*
X116659751Y-120467784D01*
X116706204Y-120592331D01*
X116792454Y-120707546D01*
X116907669Y-120793796D01*
X117009335Y-120831715D01*
X117039082Y-120842810D01*
X117089462Y-120877789D01*
X117116915Y-120932634D01*
X117114726Y-120993926D01*
X117083431Y-121046673D01*
X116961503Y-121168601D01*
X116825965Y-121362170D01*
X116726097Y-121576336D01*
X116664936Y-121804592D01*
X116644340Y-122039999D01*
X116664936Y-122275407D01*
X116709709Y-122442502D01*
X116726097Y-122503663D01*
X116825965Y-122717830D01*
X116961505Y-122911401D01*
X117128599Y-123078495D01*
X117314160Y-123208426D01*
X117353024Y-123252743D01*
X117367035Y-123310000D01*
X117353024Y-123367257D01*
X117314159Y-123411575D01*
X117313918Y-123411744D01*
X117229133Y-123471111D01*
X117128595Y-123541508D01*
X116961505Y-123708598D01*
X116825965Y-123902170D01*
X116726097Y-124116336D01*
X116664936Y-124344592D01*
X116644340Y-124580000D01*
X116664936Y-124815407D01*
X116709709Y-124982501D01*
X116726097Y-125043663D01*
X116825965Y-125257830D01*
X116961505Y-125451401D01*
X117128599Y-125618495D01*
X117314160Y-125748426D01*
X117353024Y-125792743D01*
X117367035Y-125850000D01*
X117353024Y-125907257D01*
X117314158Y-125951575D01*
X117129638Y-126080778D01*
X117128595Y-126081508D01*
X116961505Y-126248598D01*
X116825965Y-126442170D01*
X116726097Y-126656336D01*
X116664936Y-126884592D01*
X116644340Y-127119999D01*
X73750000Y-127119999D01*
X73750000Y-124400000D01*
X108494540Y-124400000D01*
X108514326Y-124588257D01*
X108572820Y-124768284D01*
X108667466Y-124932216D01*
X108794129Y-125072889D01*
X108947269Y-125184151D01*
X109120197Y-125261144D01*
X109305352Y-125300500D01*
X109305354Y-125300500D01*
X109494646Y-125300500D01*
X109494648Y-125300500D01*
X109624551Y-125272888D01*
X109679803Y-125261144D01*
X109852730Y-125184151D01*
X109886501Y-125159615D01*
X110005870Y-125072889D01*
X110132533Y-124932216D01*
X110227179Y-124768284D01*
X110249203Y-124700500D01*
X110285674Y-124588256D01*
X110305460Y-124400000D01*
X110285674Y-124211744D01*
X110229871Y-124040000D01*
X110227179Y-124031715D01*
X110132533Y-123867783D01*
X110005870Y-123727110D01*
X109852730Y-123615848D01*
X109679802Y-123538855D01*
X109494648Y-123499500D01*
X109494646Y-123499500D01*
X109305354Y-123499500D01*
X109305352Y-123499500D01*
X109120197Y-123538855D01*
X108947269Y-123615848D01*
X108794129Y-123727110D01*
X108667466Y-123867783D01*
X108572820Y-124031715D01*
X108514326Y-124211742D01*
X108494540Y-124400000D01*
X73750000Y-124400000D01*
X73750000Y-116499999D01*
X139094540Y-116499999D01*
X139114326Y-116688257D01*
X139172820Y-116868284D01*
X139267466Y-117032216D01*
X139394129Y-117172889D01*
X139547269Y-117284151D01*
X139720197Y-117361144D01*
X139905352Y-117400500D01*
X139905354Y-117400500D01*
X140094646Y-117400500D01*
X140094648Y-117400500D01*
X140218083Y-117374262D01*
X140279803Y-117361144D01*
X140452730Y-117284151D01*
X140546740Y-117215849D01*
X140605870Y-117172889D01*
X140636515Y-117138855D01*
X140732533Y-117032216D01*
X140827179Y-116868284D01*
X140885674Y-116688256D01*
X140905460Y-116500000D01*
X140885674Y-116311744D01*
X140839061Y-116168284D01*
X140827179Y-116131715D01*
X140732533Y-115967783D01*
X140605870Y-115827110D01*
X140452730Y-115715848D01*
X140279802Y-115638855D01*
X140094648Y-115599500D01*
X140094646Y-115599500D01*
X139905354Y-115599500D01*
X139905352Y-115599500D01*
X139720197Y-115638855D01*
X139547269Y-115715848D01*
X139394129Y-115827110D01*
X139267466Y-115967783D01*
X139172820Y-116131715D01*
X139114326Y-116311742D01*
X139094540Y-116499999D01*
X73750000Y-116499999D01*
X73750000Y-112000000D01*
X75744680Y-112000000D01*
X75763948Y-112404494D01*
X75821579Y-112805325D01*
X75842034Y-112889642D01*
X75917051Y-113198867D01*
X76049496Y-113581542D01*
X76217720Y-113949900D01*
X76420197Y-114300601D01*
X76646421Y-114618286D01*
X76655093Y-114630464D01*
X76920280Y-114936507D01*
X77213358Y-115215956D01*
X77531672Y-115466281D01*
X77531679Y-115466285D01*
X77531681Y-115466287D01*
X77872331Y-115685210D01*
X77872337Y-115685213D01*
X77872340Y-115685215D01*
X78232276Y-115870775D01*
X78608221Y-116021281D01*
X78996770Y-116135369D01*
X79394405Y-116212007D01*
X79797524Y-116250500D01*
X80202471Y-116250500D01*
X80202476Y-116250500D01*
X80605595Y-116212007D01*
X81003230Y-116135369D01*
X81391779Y-116021281D01*
X81767724Y-115870775D01*
X82127660Y-115685215D01*
X82468328Y-115466281D01*
X82786642Y-115215956D01*
X83079720Y-114936507D01*
X83344907Y-114630464D01*
X83579803Y-114300600D01*
X83782279Y-113949900D01*
X83950503Y-113581543D01*
X84013336Y-113399999D01*
X150094540Y-113399999D01*
X150114326Y-113588257D01*
X150172820Y-113768284D01*
X150267466Y-113932216D01*
X150394129Y-114072889D01*
X150547269Y-114184151D01*
X150720197Y-114261144D01*
X150905352Y-114300500D01*
X150905354Y-114300500D01*
X151094646Y-114300500D01*
X151094648Y-114300500D01*
X151218083Y-114274262D01*
X151279803Y-114261144D01*
X151452730Y-114184151D01*
X151452729Y-114184151D01*
X151605870Y-114072889D01*
X151732533Y-113932216D01*
X151827179Y-113768284D01*
X151843425Y-113718284D01*
X151885674Y-113588256D01*
X151905460Y-113400000D01*
X151885674Y-113211744D01*
X151827179Y-113031716D01*
X151827179Y-113031715D01*
X151732533Y-112867783D01*
X151605870Y-112727110D01*
X151452730Y-112615848D01*
X151279802Y-112538855D01*
X151094648Y-112499500D01*
X151094646Y-112499500D01*
X150905354Y-112499500D01*
X150905352Y-112499500D01*
X150720197Y-112538855D01*
X150547269Y-112615848D01*
X150394129Y-112727110D01*
X150267466Y-112867783D01*
X150172820Y-113031715D01*
X150114326Y-113211742D01*
X150094540Y-113399999D01*
X84013336Y-113399999D01*
X84082950Y-113198862D01*
X84178421Y-112805325D01*
X84236052Y-112404494D01*
X84255320Y-112000000D01*
X84236052Y-111595506D01*
X84179186Y-111199999D01*
X153894540Y-111199999D01*
X153914326Y-111388257D01*
X153972820Y-111568284D01*
X154067466Y-111732216D01*
X154194129Y-111872889D01*
X154347269Y-111984151D01*
X154520197Y-112061144D01*
X154705352Y-112100500D01*
X154705354Y-112100500D01*
X154894646Y-112100500D01*
X154894648Y-112100500D01*
X155018083Y-112074262D01*
X155079803Y-112061144D01*
X155252730Y-111984151D01*
X155405871Y-111872888D01*
X155532533Y-111732216D01*
X155532532Y-111732216D01*
X155537453Y-111726752D01*
X155587489Y-111693095D01*
X155647484Y-111687020D01*
X155703250Y-111709964D01*
X155741600Y-111756501D01*
X155753462Y-111815622D01*
X155744680Y-112000000D01*
X155763948Y-112404494D01*
X155821579Y-112805325D01*
X155842034Y-112889642D01*
X155917051Y-113198867D01*
X156049496Y-113581542D01*
X156217720Y-113949900D01*
X156420197Y-114300601D01*
X156646421Y-114618286D01*
X156655093Y-114630464D01*
X156920280Y-114936507D01*
X157213358Y-115215956D01*
X157531672Y-115466281D01*
X157531679Y-115466285D01*
X157531681Y-115466287D01*
X157872331Y-115685210D01*
X157872337Y-115685213D01*
X157872340Y-115685215D01*
X158232276Y-115870775D01*
X158608221Y-116021281D01*
X158608224Y-116021282D01*
X158608227Y-116021283D01*
X158674324Y-116040690D01*
X158798418Y-116077127D01*
X158856026Y-116113571D01*
X158885667Y-116174958D01*
X158878380Y-116242736D01*
X158836369Y-116296421D01*
X158794130Y-116327109D01*
X158667466Y-116467783D01*
X158572820Y-116631715D01*
X158514326Y-116811742D01*
X158494540Y-116999999D01*
X158514326Y-117188257D01*
X158572820Y-117368284D01*
X158667466Y-117532216D01*
X158794129Y-117672889D01*
X158947269Y-117784151D01*
X159120197Y-117861144D01*
X159305352Y-117900500D01*
X159305354Y-117900500D01*
X159494646Y-117900500D01*
X159494648Y-117900500D01*
X159618084Y-117874262D01*
X159679803Y-117861144D01*
X159852730Y-117784151D01*
X159852729Y-117784151D01*
X160005870Y-117672889D01*
X160042943Y-117631716D01*
X160132533Y-117532216D01*
X160227179Y-117368284D01*
X160285674Y-117188256D01*
X160305460Y-117000000D01*
X160285674Y-116811744D01*
X160249528Y-116700500D01*
X160227179Y-116631715D01*
X160132533Y-116467783D01*
X160122693Y-116456855D01*
X160092866Y-116396190D01*
X160099292Y-116328895D01*
X160140061Y-116274971D01*
X160203053Y-116250444D01*
X160605595Y-116212007D01*
X161003230Y-116135369D01*
X161391779Y-116021281D01*
X161767724Y-115870775D01*
X162127660Y-115685215D01*
X162468328Y-115466281D01*
X162786642Y-115215956D01*
X163079720Y-114936507D01*
X163344907Y-114630464D01*
X163579803Y-114300600D01*
X163782279Y-113949900D01*
X163950503Y-113581543D01*
X164082950Y-113198862D01*
X164178421Y-112805325D01*
X164236052Y-112404494D01*
X164255320Y-112000000D01*
X164236052Y-111595506D01*
X164178421Y-111194675D01*
X164082950Y-110801138D01*
X163950503Y-110418457D01*
X163949312Y-110415848D01*
X163782279Y-110050099D01*
X163579802Y-109699398D01*
X163344910Y-109369540D01*
X163301816Y-109319807D01*
X163079720Y-109063493D01*
X162786642Y-108784044D01*
X162468328Y-108533719D01*
X162468321Y-108533715D01*
X162468318Y-108533712D01*
X162127668Y-108314789D01*
X162012632Y-108255484D01*
X161767724Y-108129225D01*
X161391779Y-107978719D01*
X161391778Y-107978718D01*
X161391774Y-107978717D01*
X161003228Y-107864630D01*
X160605601Y-107787994D01*
X160605599Y-107787993D01*
X160605595Y-107787993D01*
X160202476Y-107749500D01*
X159797524Y-107749500D01*
X159394405Y-107787993D01*
X159394401Y-107787993D01*
X159394398Y-107787994D01*
X158996771Y-107864630D01*
X158608225Y-107978717D01*
X158232276Y-108129225D01*
X157872331Y-108314789D01*
X157531681Y-108533712D01*
X157213354Y-108784047D01*
X156920280Y-109063492D01*
X156655089Y-109369540D01*
X156420197Y-109699398D01*
X156217720Y-110050099D01*
X156049496Y-110418457D01*
X155917049Y-110801140D01*
X155892076Y-110904077D01*
X155861802Y-110959899D01*
X155807863Y-110993413D01*
X155744406Y-110995830D01*
X155688074Y-110966516D01*
X155653642Y-110913160D01*
X155627179Y-110831716D01*
X155547434Y-110693593D01*
X155532533Y-110667783D01*
X155405870Y-110527110D01*
X155252730Y-110415848D01*
X155079802Y-110338855D01*
X154894648Y-110299500D01*
X154894646Y-110299500D01*
X154705354Y-110299500D01*
X154705352Y-110299500D01*
X154520197Y-110338855D01*
X154347269Y-110415848D01*
X154194129Y-110527110D01*
X154067466Y-110667783D01*
X153972820Y-110831715D01*
X153914326Y-111011742D01*
X153894540Y-111199999D01*
X84179186Y-111199999D01*
X84178421Y-111194675D01*
X84082950Y-110801138D01*
X83950503Y-110418457D01*
X83949312Y-110415848D01*
X83782279Y-110050099D01*
X83579802Y-109699398D01*
X83344910Y-109369540D01*
X83301816Y-109319807D01*
X83079720Y-109063493D01*
X82786642Y-108784044D01*
X82468328Y-108533719D01*
X82468321Y-108533715D01*
X82468318Y-108533712D01*
X82127668Y-108314789D01*
X82012632Y-108255484D01*
X81767724Y-108129225D01*
X81391779Y-107978719D01*
X81391778Y-107978718D01*
X81391774Y-107978717D01*
X81003228Y-107864630D01*
X80605601Y-107787994D01*
X80605599Y-107787993D01*
X80605595Y-107787993D01*
X80202476Y-107749500D01*
X79797524Y-107749500D01*
X79394405Y-107787993D01*
X79394401Y-107787993D01*
X79394398Y-107787994D01*
X78996771Y-107864630D01*
X78608225Y-107978717D01*
X78232276Y-108129225D01*
X77872331Y-108314789D01*
X77531681Y-108533712D01*
X77213354Y-108784047D01*
X76920280Y-109063492D01*
X76655089Y-109369540D01*
X76420197Y-109699398D01*
X76217720Y-110050099D01*
X76049496Y-110418457D01*
X75917051Y-110801132D01*
X75854752Y-111057931D01*
X75821579Y-111194675D01*
X75763948Y-111595506D01*
X75744680Y-112000000D01*
X73750000Y-112000000D01*
X73750000Y-104999999D01*
X88324815Y-104999999D01*
X88343525Y-105249670D01*
X88399240Y-105493771D01*
X88490710Y-105726833D01*
X88490711Y-105726835D01*
X88615898Y-105943665D01*
X88772003Y-106139414D01*
X88955540Y-106309712D01*
X89162408Y-106450752D01*
X89387987Y-106559385D01*
X89627236Y-106633184D01*
X89874813Y-106670500D01*
X90125187Y-106670500D01*
X90372764Y-106633184D01*
X90612013Y-106559385D01*
X90837592Y-106450752D01*
X91044460Y-106309712D01*
X91227997Y-106139414D01*
X91384102Y-105943665D01*
X91509289Y-105726835D01*
X91600760Y-105493769D01*
X91656474Y-105249673D01*
X91675184Y-105000000D01*
X91675184Y-104999999D01*
X93324815Y-104999999D01*
X93343525Y-105249670D01*
X93399240Y-105493771D01*
X93490710Y-105726833D01*
X93490711Y-105726835D01*
X93615898Y-105943665D01*
X93772003Y-106139414D01*
X93955540Y-106309712D01*
X94162408Y-106450752D01*
X94387987Y-106559385D01*
X94627236Y-106633184D01*
X94874813Y-106670500D01*
X95125187Y-106670500D01*
X95372764Y-106633184D01*
X95612013Y-106559385D01*
X95837592Y-106450752D01*
X96044460Y-106309712D01*
X96227997Y-106139414D01*
X96384102Y-105943665D01*
X96509289Y-105726835D01*
X96600760Y-105493769D01*
X96656474Y-105249673D01*
X96675184Y-105000000D01*
X96675184Y-104999999D01*
X113324815Y-104999999D01*
X113343525Y-105249670D01*
X113399240Y-105493771D01*
X113490710Y-105726833D01*
X113490711Y-105726835D01*
X113615898Y-105943665D01*
X113772003Y-106139414D01*
X113955540Y-106309712D01*
X114162408Y-106450752D01*
X114387987Y-106559385D01*
X114627236Y-106633184D01*
X114874813Y-106670500D01*
X115125187Y-106670500D01*
X115372764Y-106633184D01*
X115612013Y-106559385D01*
X115837592Y-106450752D01*
X116044460Y-106309712D01*
X116227997Y-106139414D01*
X116384102Y-105943665D01*
X116509289Y-105726835D01*
X116600760Y-105493769D01*
X116656474Y-105249673D01*
X116675184Y-105000000D01*
X116675184Y-104999999D01*
X118324815Y-104999999D01*
X118343525Y-105249670D01*
X118399240Y-105493771D01*
X118490710Y-105726833D01*
X118490711Y-105726835D01*
X118615898Y-105943665D01*
X118772003Y-106139414D01*
X118955540Y-106309712D01*
X119162408Y-106450752D01*
X119387987Y-106559385D01*
X119627236Y-106633184D01*
X119874813Y-106670500D01*
X120125187Y-106670500D01*
X120372764Y-106633184D01*
X120612013Y-106559385D01*
X120837592Y-106450752D01*
X121044460Y-106309712D01*
X121227997Y-106139414D01*
X121384102Y-105943665D01*
X121509289Y-105726835D01*
X121600760Y-105493769D01*
X121656474Y-105249673D01*
X121675184Y-105000000D01*
X121675184Y-104999999D01*
X138324815Y-104999999D01*
X138343525Y-105249670D01*
X138399240Y-105493771D01*
X138490710Y-105726833D01*
X138490711Y-105726835D01*
X138615898Y-105943665D01*
X138772003Y-106139414D01*
X138955540Y-106309712D01*
X139162408Y-106450752D01*
X139387987Y-106559385D01*
X139627236Y-106633184D01*
X139874813Y-106670500D01*
X140125187Y-106670500D01*
X140372764Y-106633184D01*
X140612013Y-106559385D01*
X140837592Y-106450752D01*
X141044460Y-106309712D01*
X141227997Y-106139414D01*
X141384102Y-105943665D01*
X141509289Y-105726835D01*
X141600760Y-105493769D01*
X141656474Y-105249673D01*
X141675184Y-105000000D01*
X141675184Y-104999999D01*
X143324815Y-104999999D01*
X143343525Y-105249670D01*
X143399240Y-105493771D01*
X143490710Y-105726833D01*
X143490711Y-105726835D01*
X143615898Y-105943665D01*
X143772003Y-106139414D01*
X143955540Y-106309712D01*
X144162408Y-106450752D01*
X144387987Y-106559385D01*
X144627236Y-106633184D01*
X144874813Y-106670500D01*
X145125187Y-106670500D01*
X145372764Y-106633184D01*
X145612013Y-106559385D01*
X145837592Y-106450752D01*
X146044460Y-106309712D01*
X146227997Y-106139414D01*
X146384102Y-105943665D01*
X146509289Y-105726835D01*
X146600760Y-105493769D01*
X146656474Y-105249673D01*
X146675184Y-105000000D01*
X146656474Y-104750327D01*
X146600760Y-104506231D01*
X146509289Y-104273165D01*
X146384102Y-104056335D01*
X146227997Y-103860586D01*
X146044460Y-103690288D01*
X145837592Y-103549248D01*
X145612013Y-103440615D01*
X145538213Y-103417850D01*
X145372763Y-103366815D01*
X145125187Y-103329500D01*
X144874813Y-103329500D01*
X144627236Y-103366815D01*
X144387987Y-103440615D01*
X144162407Y-103549248D01*
X143955540Y-103690287D01*
X143772003Y-103860585D01*
X143615897Y-104056335D01*
X143490710Y-104273166D01*
X143399240Y-104506228D01*
X143343525Y-104750329D01*
X143324815Y-104999999D01*
X141675184Y-104999999D01*
X141656474Y-104750327D01*
X141600760Y-104506231D01*
X141509289Y-104273165D01*
X141384102Y-104056335D01*
X141227997Y-103860586D01*
X141044460Y-103690288D01*
X140837592Y-103549248D01*
X140612013Y-103440615D01*
X140538213Y-103417850D01*
X140372763Y-103366815D01*
X140125187Y-103329500D01*
X139874813Y-103329500D01*
X139627236Y-103366815D01*
X139387987Y-103440615D01*
X139162407Y-103549248D01*
X138955540Y-103690287D01*
X138772003Y-103860585D01*
X138615897Y-104056335D01*
X138490710Y-104273166D01*
X138399240Y-104506228D01*
X138343525Y-104750329D01*
X138324815Y-104999999D01*
X121675184Y-104999999D01*
X121656474Y-104750327D01*
X121600760Y-104506231D01*
X121509289Y-104273165D01*
X121384102Y-104056335D01*
X121227997Y-103860586D01*
X121044460Y-103690288D01*
X120837592Y-103549248D01*
X120612013Y-103440615D01*
X120538213Y-103417850D01*
X120372763Y-103366815D01*
X120125187Y-103329500D01*
X119874813Y-103329500D01*
X119627236Y-103366815D01*
X119387987Y-103440615D01*
X119162407Y-103549248D01*
X118955540Y-103690287D01*
X118772003Y-103860585D01*
X118615897Y-104056335D01*
X118490710Y-104273166D01*
X118399240Y-104506228D01*
X118343525Y-104750329D01*
X118324815Y-104999999D01*
X116675184Y-104999999D01*
X116656474Y-104750327D01*
X116600760Y-104506231D01*
X116509289Y-104273165D01*
X116384102Y-104056335D01*
X116227997Y-103860586D01*
X116044460Y-103690288D01*
X115837592Y-103549248D01*
X115612013Y-103440615D01*
X115538213Y-103417850D01*
X115372763Y-103366815D01*
X115125187Y-103329500D01*
X114874813Y-103329500D01*
X114627236Y-103366815D01*
X114387987Y-103440615D01*
X114162407Y-103549248D01*
X113955540Y-103690287D01*
X113772003Y-103860585D01*
X113615897Y-104056335D01*
X113490710Y-104273166D01*
X113399240Y-104506228D01*
X113343525Y-104750329D01*
X113324815Y-104999999D01*
X96675184Y-104999999D01*
X96656474Y-104750327D01*
X96600760Y-104506231D01*
X96509289Y-104273165D01*
X96384102Y-104056335D01*
X96227997Y-103860586D01*
X96044460Y-103690288D01*
X95837592Y-103549248D01*
X95612013Y-103440615D01*
X95538213Y-103417850D01*
X95372763Y-103366815D01*
X95125187Y-103329500D01*
X94874813Y-103329500D01*
X94627236Y-103366815D01*
X94387987Y-103440615D01*
X94162407Y-103549248D01*
X93955540Y-103690287D01*
X93772003Y-103860585D01*
X93615897Y-104056335D01*
X93490710Y-104273166D01*
X93399240Y-104506228D01*
X93343525Y-104750329D01*
X93324815Y-104999999D01*
X91675184Y-104999999D01*
X91656474Y-104750327D01*
X91600760Y-104506231D01*
X91509289Y-104273165D01*
X91384102Y-104056335D01*
X91227997Y-103860586D01*
X91044460Y-103690288D01*
X90837592Y-103549248D01*
X90612013Y-103440615D01*
X90538213Y-103417850D01*
X90372763Y-103366815D01*
X90125187Y-103329500D01*
X89874813Y-103329500D01*
X89627236Y-103366815D01*
X89387987Y-103440615D01*
X89162407Y-103549248D01*
X88955540Y-103690287D01*
X88772003Y-103860585D01*
X88615897Y-104056335D01*
X88490710Y-104273166D01*
X88399240Y-104506228D01*
X88343525Y-104750329D01*
X88324815Y-104999999D01*
X73750000Y-104999999D01*
X73750000Y-103801362D01*
X73759439Y-103753909D01*
X73786319Y-103713681D01*
X75963681Y-101536319D01*
X76003909Y-101509439D01*
X76051362Y-101500000D01*
X236704578Y-101500000D01*
X236747229Y-101507566D01*
G37*
%TD.AperFunction*%
%TD*%
M02*
