%TF.GenerationSoftware,KiCad,Pcbnew,7.0.1-0*%
%TF.CreationDate,2023-07-27T20:08:02-04:00*%
%TF.ProjectId,Segway V3,53656777-6179-4205-9633-2e6b69636164,V1*%
%TF.SameCoordinates,Original*%
%TF.FileFunction,Copper,L4,Bot*%
%TF.FilePolarity,Positive*%
%FSLAX46Y46*%
G04 Gerber Fmt 4.6, Leading zero omitted, Abs format (unit mm)*
G04 Created by KiCad (PCBNEW 7.0.1-0) date 2023-07-27 20:08:02*
%MOMM*%
%LPD*%
G01*
G04 APERTURE LIST*
%TA.AperFunction,ComponentPad*%
%ADD10C,7.500000*%
%TD*%
%TA.AperFunction,ComponentPad*%
%ADD11C,2.340000*%
%TD*%
%TA.AperFunction,ComponentPad*%
%ADD12R,2.600000X2.600000*%
%TD*%
%TA.AperFunction,ComponentPad*%
%ADD13C,2.600000*%
%TD*%
%TA.AperFunction,ComponentPad*%
%ADD14R,1.700000X1.700000*%
%TD*%
%TA.AperFunction,ComponentPad*%
%ADD15O,1.700000X1.700000*%
%TD*%
%TA.AperFunction,ComponentPad*%
%ADD16C,2.000000*%
%TD*%
%TA.AperFunction,ComponentPad*%
%ADD17C,1.574800*%
%TD*%
%TA.AperFunction,ComponentPad*%
%ADD18R,1.473200X1.473200*%
%TD*%
%TA.AperFunction,ComponentPad*%
%ADD19C,1.524000*%
%TD*%
%TA.AperFunction,ComponentPad*%
%ADD20O,3.500000X2.200000*%
%TD*%
%TA.AperFunction,ComponentPad*%
%ADD21R,2.500000X1.500000*%
%TD*%
%TA.AperFunction,ComponentPad*%
%ADD22O,2.500000X1.500000*%
%TD*%
%TA.AperFunction,ComponentPad*%
%ADD23R,2.000000X2.000000*%
%TD*%
%TA.AperFunction,ViaPad*%
%ADD24C,0.800000*%
%TD*%
%TA.AperFunction,Conductor*%
%ADD25C,0.127000*%
%TD*%
%TA.AperFunction,Conductor*%
%ADD26C,0.200000*%
%TD*%
%TA.AperFunction,Conductor*%
%ADD27C,0.250000*%
%TD*%
%TA.AperFunction,Conductor*%
%ADD28C,0.500000*%
%TD*%
G04 APERTURE END LIST*
D10*
%TO.P,REF\u002A\u002A,2*%
%TO.N,GND*%
X80000000Y-112000000D03*
%TD*%
D11*
%TO.P,POT3,1,1*%
%TO.N,+3.3V*%
X150000000Y-105000000D03*
%TO.P,POT3,2,2*%
%TO.N,/A3*%
X145000000Y-105000000D03*
%TO.P,POT3,3,3*%
%TO.N,GND*%
X140000000Y-105000000D03*
%TD*%
%TO.P,POT2,1,1*%
%TO.N,+3.3V*%
X125000000Y-105000000D03*
%TO.P,POT2,2,2*%
%TO.N,/A1*%
X120000000Y-105000000D03*
%TO.P,POT2,3,3*%
%TO.N,GND*%
X115000000Y-105000000D03*
%TD*%
D12*
%TO.P,J9,1,Pin_1*%
%TO.N,GND*%
X104107502Y-141307500D03*
D13*
%TO.P,J9,2,Pin_2*%
%TO.N,Net-(J9-Pin_2)*%
X109107502Y-141307500D03*
%TD*%
D14*
%TO.P,J5,1,Pin_1*%
%TO.N,/BUCK_5V*%
X122500000Y-119500000D03*
D15*
%TO.P,J5,2,Pin_2*%
X122500000Y-122040000D03*
%TO.P,J5,3,Pin_3*%
X122500000Y-124580000D03*
%TO.P,J5,4,Pin_4*%
X122500000Y-127120000D03*
%TD*%
D16*
%TO.P,RST,1,1*%
%TO.N,/RST*%
X130500000Y-138262500D03*
X130500000Y-144762500D03*
%TO.P,RST,2,2*%
%TO.N,GND*%
X126000000Y-138262500D03*
X126000000Y-144762500D03*
%TD*%
D14*
%TO.P,J6,1,Pin_1*%
%TO.N,GND*%
X131500000Y-119500000D03*
D15*
%TO.P,J6,2,Pin_2*%
%TO.N,+3.3V*%
X131500000Y-122040000D03*
%TO.P,J6,3,Pin_3*%
%TO.N,/SDA*%
X131500000Y-124580000D03*
%TO.P,J6,4,Pin_4*%
%TO.N,/SCL*%
X131500000Y-127120000D03*
%TD*%
D17*
%TO.P,U1,1,VBAT*%
%TO.N,unconnected-(U1-VBAT-Pad1)*%
X166760000Y-144360000D03*
D18*
%TO.P,U1,2,GND*%
%TO.N,GND*%
X166760000Y-141820000D03*
D17*
%TO.P,U1,3,5V*%
%TO.N,+5V*%
X166760000Y-139280000D03*
%TO.P,U1,4,3V3*%
%TO.N,/LD01*%
X166760000Y-136740000D03*
%TO.P,U1,5,IO1*%
%TO.N,/A0*%
X166760000Y-134200000D03*
%TO.P,U1,6,IO2*%
%TO.N,/A1*%
X166760000Y-131660000D03*
%TO.P,U1,7,IO3*%
%TO.N,/TFT_CS*%
X166760000Y-129120000D03*
%TO.P,U1,8,IO4*%
%TO.N,/A3*%
X166760000Y-126580000D03*
%TO.P,U1,9,IO5*%
%TO.N,/A4*%
X166760000Y-124040000D03*
%TO.P,U1,10,IO21*%
%TO.N,/HALL_L_A*%
X166760000Y-121500000D03*
%TO.P,U1,11,IO0*%
%TO.N,/HALL_L_B*%
X166760000Y-118960000D03*
%TO.P,U1,12,LDO2_OUT*%
%TO.N,/LDO2*%
X166760000Y-116420000D03*
%TO.P,U1,13,IO16*%
%TO.N,/HALL_R_A*%
X166760000Y-113880000D03*
%TO.P,U1,14,IO15*%
%TO.N,/HALL_R_B*%
X166760000Y-111340000D03*
%TO.P,U1,15,IO14*%
%TO.N,/IMU_RST*%
X166760000Y-108800000D03*
%TO.P,U1,16,IO13*%
%TO.N,/IMU_INT*%
X166760000Y-106260000D03*
%TO.P,U1,17,IO12*%
%TO.N,/IMU_CS*%
X166760000Y-103720000D03*
%TO.P,U1,18,IO42*%
%TO.N,unconnected-(U1-IO42-Pad18)*%
X182000000Y-103720000D03*
%TO.P,U1,19,IO41*%
%TO.N,/TFT_RST*%
X182000000Y-106260000D03*
%TO.P,U1,20,IO40*%
%TO.N,/DIR2*%
X182000000Y-108800000D03*
%TO.P,U1,21,IO39*%
%TO.N,/DIR1*%
X182000000Y-111340000D03*
%TO.P,U1,22,IO38*%
%TO.N,/MOTOR_EN*%
X182000000Y-113880000D03*
%TO.P,U1,23,RX*%
%TO.N,/RX*%
X182000000Y-116420000D03*
%TO.P,U1,24,TX*%
%TO.N,/TX*%
X182000000Y-118960000D03*
D18*
%TO.P,U1,25,GND*%
%TO.N,GND*%
X182000000Y-121500000D03*
D17*
%TO.P,U1,26,RST*%
%TO.N,/RST*%
X182000000Y-124040000D03*
%TO.P,U1,27,IO6*%
%TO.N,/BAT_READING*%
X182000000Y-126580000D03*
%TO.P,U1,28,IO7*%
%TO.N,/WS2812*%
X182000000Y-129120000D03*
%TO.P,U1,29,IO8*%
%TO.N,/SDA*%
X182000000Y-131660000D03*
%TO.P,U1,30,IO9*%
%TO.N,/SCL*%
X182000000Y-134200000D03*
%TO.P,U1,31,IO34*%
%TO.N,/TFT_D{slash}C*%
X182000000Y-136740000D03*
%TO.P,U1,32,IO36*%
%TO.N,/SCK*%
X182000000Y-139280000D03*
%TO.P,U1,33,IO37*%
%TO.N,/MISO*%
X182000000Y-141820000D03*
%TO.P,U1,34,IO35*%
%TO.N,/MOSI*%
X182000000Y-144360000D03*
%TD*%
D10*
%TO.P,REF\u002A\u002A,5*%
%TO.N,GND*%
X160000000Y-112000000D03*
%TD*%
D14*
%TO.P,J2,1,Pin_1*%
%TO.N,GND*%
X192000000Y-104000000D03*
D15*
%TO.P,J2,2,Pin_2*%
%TO.N,Net-(J2-Pin_2)*%
X189460000Y-104000000D03*
%TO.P,J2,3,Pin_3*%
%TO.N,/BUCK_5V*%
X186920000Y-104000000D03*
%TD*%
D11*
%TO.P,POT4,1,1*%
%TO.N,+3.3V*%
X222500000Y-105000000D03*
%TO.P,POT4,2,2*%
%TO.N,/A4*%
X217500000Y-105000000D03*
%TO.P,POT4,3,3*%
%TO.N,GND*%
X212500000Y-105000000D03*
%TD*%
D10*
%TO.P,REF\u002A\u002A,3*%
%TO.N,GND*%
X232000000Y-112000000D03*
%TD*%
D14*
%TO.P,J8,1,Pin_1*%
%TO.N,/DIR1*%
X157250000Y-131575000D03*
D15*
%TO.P,J8,2,Pin_2*%
%TO.N,+3.3V*%
X157250000Y-129035000D03*
%TO.P,J8,3,Pin_3*%
%TO.N,/DIR2*%
X157250000Y-126495000D03*
%TO.P,J8,4,Pin_4*%
%TO.N,+3.3V*%
X157250000Y-123955000D03*
%TO.P,J8,5,Pin_5*%
%TO.N,GND*%
X157250000Y-121415000D03*
%TD*%
D14*
%TO.P,J7,1,Pin_1*%
%TO.N,GND*%
X136000000Y-119500000D03*
D15*
%TO.P,J7,2,Pin_2*%
%TO.N,+3.3V*%
X136000000Y-122040000D03*
%TO.P,J7,3,Pin_3*%
%TO.N,/RX*%
X136000000Y-124580000D03*
%TO.P,J7,4,Pin_4*%
%TO.N,/TX*%
X136000000Y-127120000D03*
%TD*%
D14*
%TO.P,J3,1,Pin_1*%
%TO.N,+3.3V*%
X127000000Y-119500000D03*
D15*
%TO.P,J3,2,Pin_2*%
X127000000Y-122040000D03*
%TO.P,J3,3,Pin_3*%
X127000000Y-124580000D03*
%TO.P,J3,4,Pin_4*%
X127000000Y-127120000D03*
%TD*%
D10*
%TO.P,REF\u002A\u002A,2*%
%TO.N,GND*%
X80000000Y-136000000D03*
%TD*%
D19*
%TO.P,A1,1,Vin*%
%TO.N,+3.3V*%
X191150000Y-143890000D03*
%TO.P,A1,2,3Vo*%
%TO.N,unconnected-(A1-3Vo-Pad2)*%
X193690000Y-143890000D03*
%TO.P,A1,3,GND*%
%TO.N,GND*%
X196230000Y-143890000D03*
%TO.P,A1,4,SCL*%
%TO.N,/SCK*%
X198770000Y-143890000D03*
%TO.P,A1,5,SDA*%
%TO.N,/MISO*%
X201310000Y-143890000D03*
%TO.P,A1,6,INT*%
%TO.N,/IMU_INT*%
X203850000Y-143890000D03*
%TO.P,A1,7,BT*%
%TO.N,unconnected-(A1-BT-Pad7)*%
X191150000Y-126110000D03*
%TO.P,A1,8,P0*%
%TO.N,+3.3V*%
X193690000Y-126110000D03*
%TO.P,A1,9,P1*%
X196230000Y-126110000D03*
%TO.P,A1,10,RST*%
%TO.N,/IMU_RST*%
X198770000Y-126110000D03*
%TO.P,A1,11,DI*%
%TO.N,/MOSI*%
X201310000Y-126110000D03*
%TO.P,A1,12,CS*%
%TO.N,/IMU_CS*%
X203850000Y-126110000D03*
%TD*%
D14*
%TO.P,J4,1,Pin_1*%
%TO.N,GND*%
X118000000Y-119500000D03*
D15*
%TO.P,J4,2,Pin_2*%
X118000000Y-122040000D03*
%TO.P,J4,3,Pin_3*%
X118000000Y-124580000D03*
%TO.P,J4,4,Pin_4*%
X118000000Y-127120000D03*
%TD*%
D20*
%TO.P,S1,*%
%TO.N,*%
X118000000Y-136512500D03*
X118000000Y-144712500D03*
D21*
%TO.P,S1,1*%
%TO.N,/VBAT*%
X118000000Y-138612500D03*
D22*
%TO.P,S1,2*%
%TO.N,/PWR_EN*%
X118000000Y-140612500D03*
%TO.P,S1,3*%
%TO.N,GND*%
X118000000Y-142612500D03*
%TD*%
D20*
%TO.P,MOTOR_SW1,*%
%TO.N,*%
X145500000Y-122975000D03*
X145500000Y-131175000D03*
D21*
%TO.P,MOTOR_SW1,1,A*%
%TO.N,unconnected-(MOTOR_SW1-A-Pad1)*%
X145500000Y-125075000D03*
D22*
%TO.P,MOTOR_SW1,2,B*%
%TO.N,/MOTOR_EN*%
X145500000Y-127075000D03*
%TO.P,MOTOR_SW1,3,C*%
%TO.N,GND*%
X145500000Y-129075000D03*
%TD*%
D11*
%TO.P,POT1,1,1*%
%TO.N,+3.3V*%
X100000000Y-105000000D03*
%TO.P,POT1,2,2*%
%TO.N,/A0*%
X95000000Y-105000000D03*
%TO.P,POT1,3,3*%
%TO.N,GND*%
X90000000Y-105000000D03*
%TD*%
D10*
%TO.P,REF\u002A\u002A,4*%
%TO.N,GND*%
X232000000Y-136000000D03*
%TD*%
D23*
%TO.P,C_LED1,1*%
%TO.N,/BUCK_5V*%
X203250000Y-110367677D03*
D16*
%TO.P,C_LED1,2*%
%TO.N,GND*%
X203250000Y-105367677D03*
%TD*%
D24*
%TO.N,+3.3V*%
X172000000Y-131000000D03*
X173000000Y-130000000D03*
X142750000Y-142699500D03*
X172000000Y-132000000D03*
X171000000Y-132000000D03*
X150400000Y-131600000D03*
X173000000Y-132000000D03*
X222400000Y-133000000D03*
X187200000Y-122600000D03*
X215600000Y-137200000D03*
X215800000Y-124400000D03*
X221600000Y-118600000D03*
X223600000Y-118600000D03*
X224800000Y-120000000D03*
X156750000Y-142250000D03*
X215600000Y-130600000D03*
X215600000Y-144800000D03*
X173000000Y-131000000D03*
%TO.N,GND*%
X104400000Y-129200000D03*
X95600000Y-142200000D03*
X223800000Y-123600000D03*
X119800000Y-134800000D03*
X94400000Y-136200000D03*
X109400000Y-124400000D03*
X144750000Y-142699500D03*
X228000000Y-118800000D03*
X214800000Y-124400000D03*
X105000000Y-133000000D03*
X158750000Y-142250000D03*
X105000000Y-135000000D03*
X103000000Y-135000000D03*
X188500000Y-123500000D03*
X224800000Y-124600000D03*
X105200000Y-130400000D03*
X234000000Y-125800000D03*
X214600000Y-144800000D03*
X214600000Y-130600000D03*
X94400000Y-134200000D03*
X103000000Y-133000000D03*
X214600000Y-137200000D03*
%TO.N,/SCK*%
X192400000Y-137600000D03*
%TO.N,/IMU_INT*%
X170412299Y-108787701D03*
%TO.N,/BUCK_5V*%
X114200000Y-128400000D03*
%TO.N,/MOTOR_EN*%
X151000000Y-113400000D03*
%TO.N,/HALL_L_A*%
X151800000Y-132600000D03*
%TO.N,/HALL_L_B*%
X170800000Y-121000000D03*
X172200000Y-125200000D03*
%TO.N,/HALL_R_A*%
X152750000Y-123750000D03*
%TO.N,/HALL_R_B*%
X156000000Y-120000000D03*
%TO.N,/SCL*%
X140400000Y-134000000D03*
X191400000Y-134200000D03*
X176950000Y-133750000D03*
%TO.N,/SDA*%
X175200000Y-134449500D03*
X224400000Y-116600000D03*
X194200000Y-131600000D03*
X225475455Y-118599500D03*
X203600000Y-131400000D03*
X206200000Y-125800000D03*
X133800000Y-131600000D03*
%TO.N,/TX*%
X156200000Y-118600000D03*
X174800000Y-118000000D03*
X140000000Y-116500000D03*
X159400000Y-117000000D03*
%TO.N,/RX*%
X148800000Y-121200000D03*
X154800000Y-111200000D03*
%TO.N,/DIR1*%
X173600000Y-116200000D03*
X159600000Y-129400000D03*
%TO.N,/DIR2*%
X159600000Y-123800000D03*
X171000000Y-115800000D03*
%TO.N,Net-(Q1-Pad2)*%
X91600000Y-141200000D03*
X95500000Y-140300000D03*
%TO.N,+5V*%
X89400000Y-140400000D03*
%TO.N,/SD0*%
X225200000Y-127800000D03*
X226809659Y-128863000D03*
X221800000Y-131200000D03*
X227962000Y-127499688D03*
%TO.N,/SC0*%
X220600000Y-131063000D03*
X224200000Y-125800000D03*
%TO.N,/SD1*%
X229331188Y-127731188D03*
X229400000Y-129800000D03*
%TO.N,/SC1*%
X217800000Y-131400000D03*
X219400000Y-129526500D03*
%TO.N,/SC2*%
X228800000Y-141000000D03*
X221800000Y-139400000D03*
%TO.N,/SD3*%
X234000000Y-129200000D03*
X231400000Y-130800000D03*
%TO.N,/SC3*%
X230600000Y-129800000D03*
X233000000Y-128400000D03*
X221400000Y-143200000D03*
%TO.N,/WS2812*%
X184400000Y-115800000D03*
%TO.N,/PWR_EN*%
X113200000Y-130800000D03*
%TO.N,/RST*%
X191850000Y-123200000D03*
X221800000Y-116200000D03*
X226668812Y-127331188D03*
X185500000Y-124550000D03*
%TO.N,/BAT_READING*%
X119600000Y-132400000D03*
%TO.N,/TFT_RST*%
X184600000Y-113350000D03*
X188150000Y-114250000D03*
X188150000Y-117600000D03*
X186950000Y-115750000D03*
%TO.N,/LDO2*%
X169500000Y-131250000D03*
X172000000Y-119500000D03*
%TD*%
D25*
%TO.N,/SCK*%
X192480000Y-137600000D02*
X192400000Y-137600000D01*
X198770000Y-143890000D02*
X192480000Y-137600000D01*
D26*
%TO.N,/IMU_INT*%
X174051998Y-112427400D02*
X189129295Y-112427400D01*
X202788000Y-142828000D02*
X203850000Y-143890000D01*
X189129295Y-112427400D02*
X202788000Y-126086105D01*
X202788000Y-126086105D02*
X202788000Y-142828000D01*
X170412299Y-108787701D02*
X174051998Y-112427400D01*
D25*
%TO.N,/IMU_RST*%
X187590900Y-114930900D02*
X172890900Y-114930900D01*
X172890900Y-114930900D02*
X166760000Y-108800000D01*
X198770000Y-126110000D02*
X187590900Y-114930900D01*
D27*
%TO.N,/MOSI*%
X201310000Y-126110000D02*
X183060000Y-144360000D01*
X183060000Y-144360000D02*
X182000000Y-144360000D01*
D25*
%TO.N,/IMU_CS*%
X203850000Y-126110000D02*
X188029100Y-110289100D01*
X188029100Y-110289100D02*
X173329100Y-110289100D01*
X173329100Y-110289100D02*
X166760000Y-103720000D01*
D28*
%TO.N,/BUCK_5V*%
X193367677Y-110367677D02*
X203250000Y-110367677D01*
X188300000Y-105300000D02*
X193367677Y-110367677D01*
X153000000Y-110750000D02*
X131250000Y-110750000D01*
X115000000Y-129200000D02*
X121400000Y-129200000D01*
X121400000Y-129200000D02*
X121400000Y-128220000D01*
X114200000Y-128400000D02*
X115000000Y-129200000D01*
X131250000Y-110750000D02*
X122500000Y-119500000D01*
X186920000Y-104000000D02*
X185402600Y-102482600D01*
X185402600Y-102482600D02*
X161267400Y-102482600D01*
X121400000Y-128220000D02*
X122500000Y-127120000D01*
X188220000Y-105300000D02*
X188300000Y-105300000D01*
X161267400Y-102482600D02*
X153000000Y-110750000D01*
X186920000Y-104000000D02*
X188220000Y-105300000D01*
D27*
%TO.N,/MOTOR_EN*%
X151163172Y-113400000D02*
X156963172Y-107600000D01*
X168200000Y-107600000D02*
X174480000Y-113880000D01*
X151000000Y-113400000D02*
X151163172Y-113400000D01*
X174480000Y-113880000D02*
X182000000Y-113880000D01*
X156963172Y-107600000D02*
X168200000Y-107600000D01*
D26*
%TO.N,/HALL_L_A*%
X156600000Y-127800000D02*
X160460000Y-127800000D01*
X151800000Y-132600000D02*
X156600000Y-127800000D01*
X160460000Y-127800000D02*
X166760000Y-121500000D01*
%TO.N,/HALL_L_B*%
X172200000Y-125200000D02*
X172200000Y-122400000D01*
X172200000Y-122400000D02*
X170800000Y-121000000D01*
D27*
%TO.N,/HALL_R_A*%
X152750000Y-123750000D02*
X154000000Y-122500000D01*
X158050000Y-122590000D02*
X166760000Y-113880000D01*
X154000000Y-122500000D02*
X156673299Y-122500000D01*
X156763299Y-122590000D02*
X158050000Y-122590000D01*
X156673299Y-122500000D02*
X156763299Y-122590000D01*
%TO.N,/HALL_R_B*%
X156000000Y-120000000D02*
X158100000Y-120000000D01*
X158100000Y-120000000D02*
X166760000Y-111340000D01*
D26*
%TO.N,/SCL*%
X171400000Y-133000000D02*
X164200000Y-133000000D01*
D25*
X182000000Y-134200000D02*
X191400000Y-134200000D01*
D26*
X172150000Y-133750000D02*
X171400000Y-133000000D01*
X164200000Y-133000000D02*
X163200000Y-134000000D01*
X163200000Y-134000000D02*
X140400000Y-134000000D01*
X176950000Y-133750000D02*
X172150000Y-133750000D01*
%TO.N,/SDA*%
X137600000Y-135400000D02*
X133800000Y-131600000D01*
D25*
X225475455Y-118599500D02*
X225475455Y-117675455D01*
X206200000Y-128800000D02*
X203600000Y-131400000D01*
X194140000Y-131660000D02*
X194200000Y-131600000D01*
X182000000Y-131660000D02*
X194140000Y-131660000D01*
X225475455Y-117675455D02*
X224400000Y-116600000D01*
D26*
X175200000Y-134449500D02*
X174249500Y-135400000D01*
D25*
X206200000Y-125800000D02*
X206200000Y-128800000D01*
D26*
X174249500Y-135400000D02*
X137600000Y-135400000D01*
%TO.N,/TX*%
X157800000Y-118600000D02*
X159400000Y-117000000D01*
X140000000Y-116500000D02*
X140000000Y-123120000D01*
X175760000Y-118960000D02*
X182000000Y-118960000D01*
X156200000Y-118600000D02*
X157800000Y-118600000D01*
X140000000Y-123120000D02*
X136000000Y-127120000D01*
X174800000Y-118000000D02*
X175760000Y-118960000D01*
%TO.N,/RX*%
X148800000Y-121200000D02*
X154800000Y-115200000D01*
X154800000Y-115200000D02*
X154800000Y-111200000D01*
D27*
%TO.N,/DIR1*%
X159600000Y-129400000D02*
X166200000Y-122800000D01*
X166200000Y-122800000D02*
X167600000Y-122800000D01*
X167600000Y-122800000D02*
X173600000Y-116800000D01*
X173600000Y-116800000D02*
X173600000Y-116200000D01*
%TO.N,/DIR2*%
X168952400Y-117847600D02*
X171000000Y-115800000D01*
X159600000Y-123800000D02*
X165552400Y-117847600D01*
X165552400Y-117847600D02*
X168952400Y-117847600D01*
D28*
%TO.N,Net-(Q1-Pad2)*%
X95500000Y-140300000D02*
X94600000Y-141200000D01*
X94600000Y-141200000D02*
X91600000Y-141200000D01*
%TO.N,+5V*%
X86600000Y-144600000D02*
X86600000Y-141800000D01*
X163520000Y-139280000D02*
X156000000Y-146800000D01*
X88800000Y-146800000D02*
X86600000Y-144600000D01*
X86800000Y-141600000D02*
X88000000Y-140400000D01*
X166760000Y-139280000D02*
X163520000Y-139280000D01*
X88000000Y-140400000D02*
X89400000Y-140400000D01*
X86600000Y-141800000D02*
X86800000Y-141600000D01*
X156000000Y-146800000D02*
X88800000Y-146800000D01*
D25*
%TO.N,/SD0*%
X221800000Y-131200000D02*
X225200000Y-127800000D01*
X227962000Y-127710659D02*
X227962000Y-127499688D01*
X226809659Y-128863000D02*
X227962000Y-127710659D01*
%TO.N,/SC0*%
X220600000Y-129400000D02*
X224200000Y-125800000D01*
X220600000Y-131063000D02*
X220600000Y-129400000D01*
%TO.N,/SD1*%
X229400000Y-127800000D02*
X229331188Y-127731188D01*
X229400000Y-129800000D02*
X229400000Y-127800000D01*
%TO.N,/SC1*%
X217800000Y-131400000D02*
X217800000Y-131126500D01*
X217800000Y-131126500D02*
X219400000Y-129526500D01*
%TO.N,/SC2*%
X227600000Y-140800000D02*
X227800000Y-141000000D01*
X227800000Y-141000000D02*
X228800000Y-141000000D01*
X226200000Y-139400000D02*
X227600000Y-140800000D01*
X221800000Y-139400000D02*
X226200000Y-139400000D01*
%TO.N,/SD3*%
X231400000Y-130800000D02*
X233000000Y-129200000D01*
X233000000Y-129200000D02*
X234000000Y-129200000D01*
%TO.N,/SC3*%
X230600000Y-129800000D02*
X232000000Y-128400000D01*
X221400000Y-143200000D02*
X232800000Y-143200000D01*
X237800000Y-131600000D02*
X234600000Y-128400000D01*
X234600000Y-128400000D02*
X233000000Y-128400000D01*
X232800000Y-143200000D02*
X237800000Y-138200000D01*
X232000000Y-128400000D02*
X233000000Y-128400000D01*
X237800000Y-138200000D02*
X237800000Y-131600000D01*
%TO.N,/WS2812*%
X184400000Y-126720000D02*
X182000000Y-129120000D01*
X184400000Y-115800000D02*
X184400000Y-126720000D01*
D27*
%TO.N,/PWR_EN*%
X120575215Y-134549910D02*
X116825305Y-130800000D01*
X118650000Y-140612500D02*
X120575215Y-138687285D01*
X118000000Y-140612500D02*
X118650000Y-140612500D01*
X116825305Y-130800000D02*
X113200000Y-130800000D01*
X120575215Y-138687285D02*
X120575215Y-134549910D01*
D25*
%TO.N,/RST*%
X190500000Y-124550000D02*
X185500000Y-124550000D01*
X226668812Y-127331188D02*
X226668812Y-120730481D01*
X191850000Y-123200000D02*
X190500000Y-124550000D01*
X222138331Y-116200000D02*
X221800000Y-116200000D01*
X226668812Y-120730481D02*
X222138331Y-116200000D01*
D26*
%TO.N,/BAT_READING*%
X181549584Y-128032600D02*
X182000000Y-128032600D01*
X127899022Y-142000000D02*
X156000000Y-142000000D01*
X156000000Y-142000000D02*
X160000000Y-138000000D01*
X160000000Y-138000000D02*
X174450000Y-138000000D01*
X182000000Y-128032600D02*
X182000000Y-126580000D01*
X124812011Y-137612011D02*
X124700000Y-137724022D01*
X124700000Y-138800978D02*
X127899022Y-142000000D01*
X180912600Y-128669584D02*
X181549584Y-128032600D01*
X174450000Y-138000000D02*
X180912600Y-131537400D01*
X119600000Y-132400000D02*
X124812011Y-137612011D01*
X180912600Y-131537400D02*
X180912600Y-128669584D01*
X124700000Y-137724022D02*
X124700000Y-138800978D01*
%TO.N,/TFT_RST*%
X188150000Y-117600000D02*
X188150000Y-116950000D01*
X188150000Y-116950000D02*
X186950000Y-115750000D01*
X187250000Y-113350000D02*
X184600000Y-113350000D01*
X188150000Y-114250000D02*
X187250000Y-113350000D01*
D28*
%TO.N,/LDO2*%
X173050000Y-120550000D02*
X173050000Y-127700000D01*
X173050000Y-127700000D02*
X169500000Y-131250000D01*
X172000000Y-119500000D02*
X173050000Y-120550000D01*
%TD*%
M02*
