%TF.GenerationSoftware,KiCad,Pcbnew,7.0.1-0*%
%TF.CreationDate,2023-07-27T20:08:02-04:00*%
%TF.ProjectId,Segway V3,53656777-6179-4205-9633-2e6b69636164,V1*%
%TF.SameCoordinates,Original*%
%TF.FileFunction,Copper,L1,Top*%
%TF.FilePolarity,Positive*%
%FSLAX46Y46*%
G04 Gerber Fmt 4.6, Leading zero omitted, Abs format (unit mm)*
G04 Created by KiCad (PCBNEW 7.0.1-0) date 2023-07-27 20:08:02*
%MOMM*%
%LPD*%
G01*
G04 APERTURE LIST*
G04 Aperture macros list*
%AMRoundRect*
0 Rectangle with rounded corners*
0 $1 Rounding radius*
0 $2 $3 $4 $5 $6 $7 $8 $9 X,Y pos of 4 corners*
0 Add a 4 corners polygon primitive as box body*
4,1,4,$2,$3,$4,$5,$6,$7,$8,$9,$2,$3,0*
0 Add four circle primitives for the rounded corners*
1,1,$1+$1,$2,$3*
1,1,$1+$1,$4,$5*
1,1,$1+$1,$6,$7*
1,1,$1+$1,$8,$9*
0 Add four rect primitives between the rounded corners*
20,1,$1+$1,$2,$3,$4,$5,0*
20,1,$1+$1,$4,$5,$6,$7,0*
20,1,$1+$1,$6,$7,$8,$9,0*
20,1,$1+$1,$8,$9,$2,$3,0*%
%AMFreePoly0*
4,1,6,1.000000,0.000000,0.500000,-0.750000,-0.500000,-0.750000,-0.500000,0.750000,0.500000,0.750000,1.000000,0.000000,1.000000,0.000000,$1*%
%AMFreePoly1*
4,1,6,0.500000,-0.750000,-0.650000,-0.750000,-0.150000,0.000000,-0.650000,0.750000,0.500000,0.750000,0.500000,-0.750000,0.500000,-0.750000,$1*%
G04 Aperture macros list end*
%TA.AperFunction,ComponentPad*%
%ADD10C,7.500000*%
%TD*%
%TA.AperFunction,SMDPad,CuDef*%
%ADD11RoundRect,0.237500X-0.237500X0.287500X-0.237500X-0.287500X0.237500X-0.287500X0.237500X0.287500X0*%
%TD*%
%TA.AperFunction,SMDPad,CuDef*%
%ADD12RoundRect,0.250000X-0.337500X-0.475000X0.337500X-0.475000X0.337500X0.475000X-0.337500X0.475000X0*%
%TD*%
%TA.AperFunction,SMDPad,CuDef*%
%ADD13RoundRect,0.250000X-0.475000X0.337500X-0.475000X-0.337500X0.475000X-0.337500X0.475000X0.337500X0*%
%TD*%
%TA.AperFunction,SMDPad,CuDef*%
%ADD14RoundRect,0.237500X0.237500X-0.250000X0.237500X0.250000X-0.237500X0.250000X-0.237500X-0.250000X0*%
%TD*%
%TA.AperFunction,SMDPad,CuDef*%
%ADD15RoundRect,0.150000X-0.150000X-0.625000X0.150000X-0.625000X0.150000X0.625000X-0.150000X0.625000X0*%
%TD*%
%TA.AperFunction,SMDPad,CuDef*%
%ADD16RoundRect,0.250000X-0.350000X-0.650000X0.350000X-0.650000X0.350000X0.650000X-0.350000X0.650000X0*%
%TD*%
%TA.AperFunction,SMDPad,CuDef*%
%ADD17FreePoly0,0.000000*%
%TD*%
%TA.AperFunction,SMDPad,CuDef*%
%ADD18FreePoly1,0.000000*%
%TD*%
%TA.AperFunction,SMDPad,CuDef*%
%ADD19RoundRect,0.250000X0.337500X0.475000X-0.337500X0.475000X-0.337500X-0.475000X0.337500X-0.475000X0*%
%TD*%
%TA.AperFunction,ComponentPad*%
%ADD20C,2.340000*%
%TD*%
%TA.AperFunction,SMDPad,CuDef*%
%ADD21RoundRect,0.250000X-0.250000X-1.500000X0.250000X-1.500000X0.250000X1.500000X-0.250000X1.500000X0*%
%TD*%
%TA.AperFunction,SMDPad,CuDef*%
%ADD22RoundRect,0.250001X-0.499999X-1.449999X0.499999X-1.449999X0.499999X1.449999X-0.499999X1.449999X0*%
%TD*%
%TA.AperFunction,ComponentPad*%
%ADD23R,2.600000X2.600000*%
%TD*%
%TA.AperFunction,ComponentPad*%
%ADD24C,2.600000*%
%TD*%
%TA.AperFunction,ComponentPad*%
%ADD25R,1.700000X1.700000*%
%TD*%
%TA.AperFunction,ComponentPad*%
%ADD26O,1.700000X1.700000*%
%TD*%
%TA.AperFunction,ComponentPad*%
%ADD27C,2.000000*%
%TD*%
%TA.AperFunction,ComponentPad*%
%ADD28C,1.574800*%
%TD*%
%TA.AperFunction,ComponentPad*%
%ADD29R,1.473200X1.473200*%
%TD*%
%TA.AperFunction,SMDPad,CuDef*%
%ADD30RoundRect,0.237500X0.250000X0.237500X-0.250000X0.237500X-0.250000X-0.237500X0.250000X-0.237500X0*%
%TD*%
%TA.AperFunction,SMDPad,CuDef*%
%ADD31RoundRect,0.041300X0.253700X-0.683700X0.253700X0.683700X-0.253700X0.683700X-0.253700X-0.683700X0*%
%TD*%
%TA.AperFunction,SMDPad,CuDef*%
%ADD32RoundRect,0.237500X-0.287500X-0.237500X0.287500X-0.237500X0.287500X0.237500X-0.287500X0.237500X0*%
%TD*%
%TA.AperFunction,SMDPad,CuDef*%
%ADD33RoundRect,0.237500X-0.250000X-0.237500X0.250000X-0.237500X0.250000X0.237500X-0.250000X0.237500X0*%
%TD*%
%TA.AperFunction,SMDPad,CuDef*%
%ADD34RoundRect,0.250001X-0.624999X0.462499X-0.624999X-0.462499X0.624999X-0.462499X0.624999X0.462499X0*%
%TD*%
%TA.AperFunction,SMDPad,CuDef*%
%ADD35RoundRect,0.090000X0.210000X-0.585000X0.210000X0.585000X-0.210000X0.585000X-0.210000X-0.585000X0*%
%TD*%
%TA.AperFunction,ComponentPad*%
%ADD36C,1.524000*%
%TD*%
%TA.AperFunction,SMDPad,CuDef*%
%ADD37RoundRect,0.020500X-0.429500X-0.184500X0.429500X-0.184500X0.429500X0.184500X-0.429500X0.184500X0*%
%TD*%
%TA.AperFunction,SMDPad,CuDef*%
%ADD38RoundRect,0.012400X-0.437600X-0.142600X0.437600X-0.142600X0.437600X0.142600X-0.437600X0.142600X0*%
%TD*%
%TA.AperFunction,SMDPad,CuDef*%
%ADD39RoundRect,0.020500X0.429500X0.184500X-0.429500X0.184500X-0.429500X-0.184500X0.429500X-0.184500X0*%
%TD*%
%TA.AperFunction,SMDPad,CuDef*%
%ADD40RoundRect,0.012400X0.437600X0.142600X-0.437600X0.142600X-0.437600X-0.142600X0.437600X-0.142600X0*%
%TD*%
%TA.AperFunction,SMDPad,CuDef*%
%ADD41R,3.175000X4.950000*%
%TD*%
%TA.AperFunction,ComponentPad*%
%ADD42O,3.500000X2.200000*%
%TD*%
%TA.AperFunction,ComponentPad*%
%ADD43R,2.500000X1.500000*%
%TD*%
%TA.AperFunction,ComponentPad*%
%ADD44O,2.500000X1.500000*%
%TD*%
%TA.AperFunction,SMDPad,CuDef*%
%ADD45RoundRect,0.020500X0.184500X-0.764500X0.184500X0.764500X-0.184500X0.764500X-0.184500X-0.764500X0*%
%TD*%
%TA.AperFunction,SMDPad,CuDef*%
%ADD46R,0.300000X1.300000*%
%TD*%
%TA.AperFunction,SMDPad,CuDef*%
%ADD47R,1.800000X2.200000*%
%TD*%
%TA.AperFunction,ComponentPad*%
%ADD48R,2.000000X2.000000*%
%TD*%
%TA.AperFunction,SMDPad,CuDef*%
%ADD49RoundRect,0.048800X-0.256200X0.541200X-0.256200X-0.541200X0.256200X-0.541200X0.256200X0.541200X0*%
%TD*%
%TA.AperFunction,ViaPad*%
%ADD50C,0.800000*%
%TD*%
%TA.AperFunction,Conductor*%
%ADD51C,0.500000*%
%TD*%
%TA.AperFunction,Conductor*%
%ADD52C,0.250000*%
%TD*%
%TA.AperFunction,Conductor*%
%ADD53C,0.200000*%
%TD*%
%TA.AperFunction,Conductor*%
%ADD54C,0.127000*%
%TD*%
%TA.AperFunction,Conductor*%
%ADD55C,1.000000*%
%TD*%
G04 APERTURE END LIST*
D10*
%TO.P,REF\u002A\u002A,2*%
%TO.N,GND*%
X80000000Y-112000000D03*
%TD*%
D11*
%TO.P,D1,1,K*%
%TO.N,/MOTOR_EN*%
X150400000Y-124925000D03*
%TO.P,D1,2,A*%
%TO.N,Net-(D1-A)*%
X150400000Y-126675000D03*
%TD*%
D12*
%TO.P,Cout2,1*%
%TO.N,/BUCK_5V*%
X91162500Y-136200000D03*
%TO.P,Cout2,2*%
%TO.N,GND*%
X93237500Y-136200000D03*
%TD*%
D13*
%TO.P,C_i2C1,1*%
%TO.N,+3.3V*%
X223600000Y-119925000D03*
%TO.P,C_i2C1,2*%
%TO.N,GND*%
X223600000Y-122000000D03*
%TD*%
D14*
%TO.P,R_LED1,1*%
%TO.N,/WS2812*%
X189500000Y-109825000D03*
%TO.P,R_LED1,2*%
%TO.N,Net-(J2-Pin_2)*%
X189500000Y-108000000D03*
%TD*%
D15*
%TO.P,Qw4,1,GND*%
%TO.N,GND*%
X214700000Y-143000000D03*
%TO.P,Qw4,2,3.3V*%
%TO.N,+3.3V*%
X215700000Y-143000000D03*
%TO.P,Qw4,3,SDA*%
%TO.N,/SD3*%
X216700000Y-143000000D03*
%TO.P,Qw4,4,SCL*%
%TO.N,/SC3*%
X217700000Y-143000000D03*
D16*
%TO.P,Qw4,MP*%
%TO.N,N/C*%
X213400000Y-140475000D03*
X219000000Y-140475000D03*
%TD*%
D17*
%TO.P,JP2,1,A*%
%TO.N,/LDO2*%
X169775000Y-134000000D03*
D18*
%TO.P,JP2,2,B*%
%TO.N,+3.3V*%
X171225000Y-134000000D03*
%TD*%
D19*
%TO.P,Cin2,1*%
%TO.N,/VBAT*%
X109087500Y-132712500D03*
%TO.P,Cin2,2*%
%TO.N,GND*%
X107012500Y-132712500D03*
%TD*%
D20*
%TO.P,POT3,1,1*%
%TO.N,+3.3V*%
X150000000Y-105000000D03*
%TO.P,POT3,2,2*%
%TO.N,/A3*%
X145000000Y-105000000D03*
%TO.P,POT3,3,3*%
%TO.N,GND*%
X140000000Y-105000000D03*
%TD*%
%TO.P,POT2,1,1*%
%TO.N,+3.3V*%
X125000000Y-105000000D03*
%TO.P,POT2,2,2*%
%TO.N,/A1*%
X120000000Y-105000000D03*
%TO.P,POT2,3,3*%
%TO.N,GND*%
X115000000Y-105000000D03*
%TD*%
D21*
%TO.P,E2,1,A*%
%TO.N,/HALL_R_A*%
X152750000Y-139150000D03*
%TO.P,E2,2,B*%
%TO.N,/HALL_R_B*%
X154750000Y-139150000D03*
%TO.P,E2,3,VCC*%
%TO.N,+3.3V*%
X156750000Y-139150000D03*
%TO.P,E2,4,GND*%
%TO.N,GND*%
X158750000Y-139150000D03*
D22*
%TO.P,E2,MP*%
%TO.N,N/C*%
X150400000Y-144900000D03*
X161100000Y-144900000D03*
%TD*%
D14*
%TO.P,R_ZVD_2,1*%
%TO.N,Net-(Q1-Pad1)*%
X94400000Y-144475000D03*
%TO.P,R_ZVD_2,2*%
%TO.N,GND*%
X94400000Y-142650000D03*
%TD*%
D23*
%TO.P,J9,1,Pin_1*%
%TO.N,GND*%
X104107502Y-141307500D03*
D24*
%TO.P,J9,2,Pin_2*%
%TO.N,Net-(J9-Pin_2)*%
X109107502Y-141307500D03*
%TD*%
D15*
%TO.P,Qw2,1,GND*%
%TO.N,GND*%
X214700000Y-129325000D03*
%TO.P,Qw2,2,3.3V*%
%TO.N,+3.3V*%
X215700000Y-129325000D03*
%TO.P,Qw2,3,SDA*%
%TO.N,/SD1*%
X216700000Y-129325000D03*
%TO.P,Qw2,4,SCL*%
%TO.N,/SC1*%
X217700000Y-129325000D03*
D16*
%TO.P,Qw2,MP*%
%TO.N,N/C*%
X213400000Y-126800000D03*
X219000000Y-126800000D03*
%TD*%
D25*
%TO.P,J5,1,Pin_1*%
%TO.N,/BUCK_5V*%
X122500000Y-119500000D03*
D26*
%TO.P,J5,2,Pin_2*%
X122500000Y-122040000D03*
%TO.P,J5,3,Pin_3*%
X122500000Y-124580000D03*
%TO.P,J5,4,Pin_4*%
X122500000Y-127120000D03*
%TD*%
D27*
%TO.P,RST,1,1*%
%TO.N,/RST*%
X130500000Y-138262500D03*
X130500000Y-144762500D03*
%TO.P,RST,2,2*%
%TO.N,GND*%
X126000000Y-138262500D03*
X126000000Y-144762500D03*
%TD*%
D25*
%TO.P,J6,1,Pin_1*%
%TO.N,GND*%
X131500000Y-119500000D03*
D26*
%TO.P,J6,2,Pin_2*%
%TO.N,+3.3V*%
X131500000Y-122040000D03*
%TO.P,J6,3,Pin_3*%
%TO.N,/SDA*%
X131500000Y-124580000D03*
%TO.P,J6,4,Pin_4*%
%TO.N,/SCL*%
X131500000Y-127120000D03*
%TD*%
D28*
%TO.P,U1,1,VBAT*%
%TO.N,unconnected-(U1-VBAT-Pad1)*%
X166760000Y-144360000D03*
D29*
%TO.P,U1,2,GND*%
%TO.N,GND*%
X166760000Y-141820000D03*
D28*
%TO.P,U1,3,5V*%
%TO.N,+5V*%
X166760000Y-139280000D03*
%TO.P,U1,4,3V3*%
%TO.N,/LD01*%
X166760000Y-136740000D03*
%TO.P,U1,5,IO1*%
%TO.N,/A0*%
X166760000Y-134200000D03*
%TO.P,U1,6,IO2*%
%TO.N,/A1*%
X166760000Y-131660000D03*
%TO.P,U1,7,IO3*%
%TO.N,/TFT_CS*%
X166760000Y-129120000D03*
%TO.P,U1,8,IO4*%
%TO.N,/A3*%
X166760000Y-126580000D03*
%TO.P,U1,9,IO5*%
%TO.N,/A4*%
X166760000Y-124040000D03*
%TO.P,U1,10,IO21*%
%TO.N,/HALL_L_A*%
X166760000Y-121500000D03*
%TO.P,U1,11,IO0*%
%TO.N,/HALL_L_B*%
X166760000Y-118960000D03*
%TO.P,U1,12,LDO2_OUT*%
%TO.N,/LDO2*%
X166760000Y-116420000D03*
%TO.P,U1,13,IO16*%
%TO.N,/HALL_R_A*%
X166760000Y-113880000D03*
%TO.P,U1,14,IO15*%
%TO.N,/HALL_R_B*%
X166760000Y-111340000D03*
%TO.P,U1,15,IO14*%
%TO.N,/IMU_RST*%
X166760000Y-108800000D03*
%TO.P,U1,16,IO13*%
%TO.N,/IMU_INT*%
X166760000Y-106260000D03*
%TO.P,U1,17,IO12*%
%TO.N,/IMU_CS*%
X166760000Y-103720000D03*
%TO.P,U1,18,IO42*%
%TO.N,unconnected-(U1-IO42-Pad18)*%
X182000000Y-103720000D03*
%TO.P,U1,19,IO41*%
%TO.N,/TFT_RST*%
X182000000Y-106260000D03*
%TO.P,U1,20,IO40*%
%TO.N,/DIR2*%
X182000000Y-108800000D03*
%TO.P,U1,21,IO39*%
%TO.N,/DIR1*%
X182000000Y-111340000D03*
%TO.P,U1,22,IO38*%
%TO.N,/MOTOR_EN*%
X182000000Y-113880000D03*
%TO.P,U1,23,RX*%
%TO.N,/RX*%
X182000000Y-116420000D03*
%TO.P,U1,24,TX*%
%TO.N,/TX*%
X182000000Y-118960000D03*
D29*
%TO.P,U1,25,GND*%
%TO.N,GND*%
X182000000Y-121500000D03*
D28*
%TO.P,U1,26,RST*%
%TO.N,/RST*%
X182000000Y-124040000D03*
%TO.P,U1,27,IO6*%
%TO.N,/BAT_READING*%
X182000000Y-126580000D03*
%TO.P,U1,28,IO7*%
%TO.N,/WS2812*%
X182000000Y-129120000D03*
%TO.P,U1,29,IO8*%
%TO.N,/SDA*%
X182000000Y-131660000D03*
%TO.P,U1,30,IO9*%
%TO.N,/SCL*%
X182000000Y-134200000D03*
%TO.P,U1,31,IO34*%
%TO.N,/TFT_D{slash}C*%
X182000000Y-136740000D03*
%TO.P,U1,32,IO36*%
%TO.N,/SCK*%
X182000000Y-139280000D03*
%TO.P,U1,33,IO37*%
%TO.N,/MISO*%
X182000000Y-141820000D03*
%TO.P,U1,34,IO35*%
%TO.N,/MOSI*%
X182000000Y-144360000D03*
%TD*%
D10*
%TO.P,REF\u002A\u002A,5*%
%TO.N,GND*%
X160000000Y-112000000D03*
%TD*%
D25*
%TO.P,J2,1,Pin_1*%
%TO.N,GND*%
X192000000Y-104000000D03*
D26*
%TO.P,J2,2,Pin_2*%
%TO.N,Net-(J2-Pin_2)*%
X189460000Y-104000000D03*
%TO.P,J2,3,Pin_3*%
%TO.N,/BUCK_5V*%
X186920000Y-104000000D03*
%TD*%
D20*
%TO.P,POT4,1,1*%
%TO.N,+3.3V*%
X222500000Y-105000000D03*
%TO.P,POT4,2,2*%
%TO.N,/A4*%
X217500000Y-105000000D03*
%TO.P,POT4,3,3*%
%TO.N,GND*%
X212500000Y-105000000D03*
%TD*%
D30*
%TO.P,Rfbt1,1*%
%TO.N,/BUCK_5V*%
X113000000Y-127500000D03*
%TO.P,Rfbt1,2*%
%TO.N,Net-(U3-VFB)*%
X111175000Y-127500000D03*
%TD*%
D31*
%TO.P,U3,1,GND*%
%TO.N,GND*%
X105307502Y-129080000D03*
%TO.P,U3,2,SW*%
%TO.N,Net-(U3-SW)*%
X106257502Y-129080000D03*
%TO.P,U3,3,VIN*%
%TO.N,/VBAT*%
X107207502Y-129080000D03*
%TO.P,U3,4,VFB*%
%TO.N,Net-(U3-VFB)*%
X107207502Y-126770000D03*
%TO.P,U3,5,EN*%
%TO.N,/PWR_EN*%
X106257502Y-126770000D03*
%TO.P,U3,6,VBST*%
%TO.N,Net-(U3-VBST)*%
X105307502Y-126770000D03*
%TD*%
D32*
%TO.P,D2,1,K*%
%TO.N,GND*%
X121625000Y-136600000D03*
%TO.P,D2,2,A*%
%TO.N,Net-(D2-A)*%
X123375000Y-136600000D03*
%TD*%
D10*
%TO.P,REF\u002A\u002A,3*%
%TO.N,GND*%
X232000000Y-112000000D03*
%TD*%
D33*
%TO.P,RBAT2,1*%
%TO.N,/BAT_READING*%
X116587500Y-133500000D03*
%TO.P,RBAT2,2*%
%TO.N,GND*%
X118412500Y-133500000D03*
%TD*%
D25*
%TO.P,J8,1,Pin_1*%
%TO.N,/DIR1*%
X157250000Y-131575000D03*
D26*
%TO.P,J8,2,Pin_2*%
%TO.N,+3.3V*%
X157250000Y-129035000D03*
%TO.P,J8,3,Pin_3*%
%TO.N,/DIR2*%
X157250000Y-126495000D03*
%TO.P,J8,4,Pin_4*%
%TO.N,+3.3V*%
X157250000Y-123955000D03*
%TO.P,J8,5,Pin_5*%
%TO.N,GND*%
X157250000Y-121415000D03*
%TD*%
D25*
%TO.P,J7,1,Pin_1*%
%TO.N,GND*%
X136000000Y-119500000D03*
D26*
%TO.P,J7,2,Pin_2*%
%TO.N,+3.3V*%
X136000000Y-122040000D03*
%TO.P,J7,3,Pin_3*%
%TO.N,/RX*%
X136000000Y-124580000D03*
%TO.P,J7,4,Pin_4*%
%TO.N,/TX*%
X136000000Y-127120000D03*
%TD*%
D34*
%TO.P,F1,1*%
%TO.N,/VBAT*%
X114000000Y-138025000D03*
%TO.P,F1,2*%
%TO.N,Net-(J9-Pin_2)*%
X114000000Y-141000000D03*
%TD*%
D35*
%TO.P,Q1,1*%
%TO.N,Net-(Q1-Pad1)*%
X89450000Y-144747500D03*
%TO.P,Q1,2*%
%TO.N,Net-(Q1-Pad2)*%
X90400000Y-144747500D03*
%TO.P,Q1,3*%
X91350000Y-144747500D03*
%TO.P,Q1,4*%
X91350000Y-142377500D03*
%TO.P,Q1,5*%
%TO.N,/BUCK_5V*%
X90400000Y-142377500D03*
%TO.P,Q1,6*%
%TO.N,+5V*%
X89450000Y-142377500D03*
%TD*%
D15*
%TO.P,Qw3,1,GND*%
%TO.N,GND*%
X214700000Y-135825000D03*
%TO.P,Qw3,2,3.3V*%
%TO.N,+3.3V*%
X215700000Y-135825000D03*
%TO.P,Qw3,3,SDA*%
%TO.N,/SD2*%
X216700000Y-135825000D03*
%TO.P,Qw3,4,SCL*%
%TO.N,/SC2*%
X217700000Y-135825000D03*
D16*
%TO.P,Qw3,MP*%
%TO.N,N/C*%
X213400000Y-133300000D03*
X219000000Y-133300000D03*
%TD*%
D30*
%TO.P,R_PWR1,1*%
%TO.N,Net-(D2-A)*%
X123412500Y-135000000D03*
%TO.P,R_PWR1,2*%
%TO.N,/PWR_EN*%
X121587500Y-135000000D03*
%TD*%
D19*
%TO.P,Cin1,1*%
%TO.N,/VBAT*%
X109125000Y-134712500D03*
%TO.P,Cin1,2*%
%TO.N,GND*%
X107050000Y-134712500D03*
%TD*%
D25*
%TO.P,J3,1,Pin_1*%
%TO.N,+3.3V*%
X127000000Y-119500000D03*
D26*
%TO.P,J3,2,Pin_2*%
X127000000Y-122040000D03*
%TO.P,J3,3,Pin_3*%
X127000000Y-124580000D03*
%TO.P,J3,4,Pin_4*%
X127000000Y-127120000D03*
%TD*%
D10*
%TO.P,REF\u002A\u002A,2*%
%TO.N,GND*%
X80000000Y-136000000D03*
%TD*%
D14*
%TO.P,Rfbb1,1*%
%TO.N,Net-(U3-VFB)*%
X109300000Y-127412500D03*
%TO.P,Rfbb1,2*%
%TO.N,GND*%
X109300000Y-125587500D03*
%TD*%
D17*
%TO.P,JP1,1,A*%
%TO.N,/LD01*%
X169800000Y-136750000D03*
D18*
%TO.P,JP1,2,B*%
%TO.N,+3.3V*%
X171250000Y-136750000D03*
%TD*%
D12*
%TO.P,Cbst1,1*%
%TO.N,Net-(U3-SW)*%
X101362500Y-126412500D03*
%TO.P,Cbst1,2*%
%TO.N,Net-(U3-VBST)*%
X103437500Y-126412500D03*
%TD*%
D36*
%TO.P,A1,1,Vin*%
%TO.N,+3.3V*%
X191150000Y-143890000D03*
%TO.P,A1,2,3Vo*%
%TO.N,unconnected-(A1-3Vo-Pad2)*%
X193690000Y-143890000D03*
%TO.P,A1,3,GND*%
%TO.N,GND*%
X196230000Y-143890000D03*
%TO.P,A1,4,SCL*%
%TO.N,/SCK*%
X198770000Y-143890000D03*
%TO.P,A1,5,SDA*%
%TO.N,/MISO*%
X201310000Y-143890000D03*
%TO.P,A1,6,INT*%
%TO.N,/IMU_INT*%
X203850000Y-143890000D03*
%TO.P,A1,7,BT*%
%TO.N,unconnected-(A1-BT-Pad7)*%
X191150000Y-126110000D03*
%TO.P,A1,8,P0*%
%TO.N,+3.3V*%
X193690000Y-126110000D03*
%TO.P,A1,9,P1*%
X196230000Y-126110000D03*
%TO.P,A1,10,RST*%
%TO.N,/IMU_RST*%
X198770000Y-126110000D03*
%TO.P,A1,11,DI*%
%TO.N,/MOSI*%
X201310000Y-126110000D03*
%TO.P,A1,12,CS*%
%TO.N,/IMU_CS*%
X203850000Y-126110000D03*
%TD*%
D14*
%TO.P,R_MOTOR1,1*%
%TO.N,+3.3V*%
X150400000Y-130400000D03*
%TO.P,R_MOTOR1,2*%
%TO.N,Net-(D1-A)*%
X150400000Y-128575000D03*
%TD*%
D37*
%TO.P,RN1,1,common*%
%TO.N,+3.3V*%
X223430000Y-133800000D03*
D38*
%TO.P,RN1,2,R1*%
%TO.N,/SD0*%
X223430000Y-134490000D03*
%TO.P,RN1,3,R2*%
%TO.N,/SC0*%
X223430000Y-135130000D03*
%TO.P,RN1,4,R3*%
%TO.N,/SD1*%
X223430000Y-135770000D03*
D37*
%TO.P,RN1,5,R4*%
%TO.N,/SC1*%
X223430000Y-136460000D03*
D39*
%TO.P,RN1,6,R5*%
%TO.N,/SD2*%
X225200000Y-136460000D03*
D40*
%TO.P,RN1,7,R6*%
%TO.N,/SC2*%
X225200000Y-135770000D03*
%TO.P,RN1,8,R7*%
%TO.N,/SD3*%
X225200000Y-135130000D03*
%TO.P,RN1,9,R8*%
%TO.N,/SC3*%
X225200000Y-134490000D03*
D39*
%TO.P,RN1,10*%
%TO.N,N/C*%
X225200000Y-133800000D03*
%TD*%
D21*
%TO.P,E1,1,A*%
%TO.N,/HALL_L_A*%
X138750000Y-139150000D03*
%TO.P,E1,2,B*%
%TO.N,/HALL_L_B*%
X140750000Y-139150000D03*
%TO.P,E1,3,VCC*%
%TO.N,+3.3V*%
X142750000Y-139150000D03*
%TO.P,E1,4,GND*%
%TO.N,GND*%
X144750000Y-139150000D03*
D22*
%TO.P,E1,MP*%
%TO.N,N/C*%
X136400000Y-144900000D03*
X147100000Y-144900000D03*
%TD*%
D13*
%TO.P,C_i2C2,1*%
%TO.N,+3.3V*%
X221600000Y-119925000D03*
%TO.P,C_i2C2,2*%
%TO.N,GND*%
X221600000Y-122000000D03*
%TD*%
D41*
%TO.P,L1,1,1*%
%TO.N,Net-(U3-SW)*%
X98407500Y-127812500D03*
%TO.P,L1,2,2*%
%TO.N,/BUCK_5V*%
X89392500Y-127812500D03*
%TD*%
D25*
%TO.P,J4,1,Pin_1*%
%TO.N,GND*%
X118000000Y-119500000D03*
D26*
%TO.P,J4,2,Pin_2*%
X118000000Y-122040000D03*
%TO.P,J4,3,Pin_3*%
X118000000Y-124580000D03*
%TO.P,J4,4,Pin_4*%
X118000000Y-127120000D03*
%TD*%
D12*
%TO.P,Cout1,1*%
%TO.N,/BUCK_5V*%
X91162500Y-134200000D03*
%TO.P,Cout1,2*%
%TO.N,GND*%
X93237500Y-134200000D03*
%TD*%
D33*
%TO.P,RBAT1,1*%
%TO.N,/VBAT*%
X116675000Y-132000000D03*
%TO.P,RBAT1,2*%
%TO.N,/BAT_READING*%
X118500000Y-132000000D03*
%TD*%
D42*
%TO.P,S1,*%
%TO.N,*%
X118000000Y-136512500D03*
X118000000Y-144712500D03*
D43*
%TO.P,S1,1*%
%TO.N,/VBAT*%
X118000000Y-138612500D03*
D44*
%TO.P,S1,2*%
%TO.N,/PWR_EN*%
X118000000Y-140612500D03*
%TO.P,S1,3*%
%TO.N,GND*%
X118000000Y-142612500D03*
%TD*%
D42*
%TO.P,MOTOR_SW1,*%
%TO.N,*%
X145500000Y-122975000D03*
X145500000Y-131175000D03*
D43*
%TO.P,MOTOR_SW1,1,A*%
%TO.N,unconnected-(MOTOR_SW1-A-Pad1)*%
X145500000Y-125075000D03*
D44*
%TO.P,MOTOR_SW1,2,B*%
%TO.N,/MOTOR_EN*%
X145500000Y-127075000D03*
%TO.P,MOTOR_SW1,3,C*%
%TO.N,GND*%
X145500000Y-129075000D03*
%TD*%
D45*
%TO.P,U2,1,A0*%
%TO.N,GND*%
X226025000Y-125870000D03*
%TO.P,U2,2,A1*%
X226675000Y-125870000D03*
%TO.P,U2,3,~{RESET}*%
%TO.N,/RST*%
X227325000Y-125870000D03*
%TO.P,U2,4,SD0*%
%TO.N,/SD0*%
X227975000Y-125870000D03*
%TO.P,U2,5,SC0*%
%TO.N,/SC0*%
X228625000Y-125870000D03*
%TO.P,U2,6,SD1*%
%TO.N,/SD1*%
X229275000Y-125870000D03*
%TO.P,U2,7,SC1*%
%TO.N,/SC1*%
X229925000Y-125870000D03*
%TO.P,U2,8,SD2*%
%TO.N,/SD2*%
X230575000Y-125870000D03*
%TO.P,U2,9,SC2*%
%TO.N,/SC2*%
X231225000Y-125870000D03*
%TO.P,U2,10,SD3*%
%TO.N,/SD3*%
X231875000Y-125870000D03*
%TO.P,U2,11,SC3*%
%TO.N,/SC3*%
X232525000Y-125870000D03*
%TO.P,U2,12,GND*%
%TO.N,GND*%
X233175000Y-125870000D03*
%TO.P,U2,13,SD4*%
%TO.N,unconnected-(U2-SD4-Pad13)*%
X233175000Y-120130000D03*
%TO.P,U2,14,SC4*%
%TO.N,unconnected-(U2-SC4-Pad14)*%
X232525000Y-120130000D03*
%TO.P,U2,15,SD5*%
%TO.N,unconnected-(U2-SD5-Pad15)*%
X231875000Y-120130000D03*
%TO.P,U2,16,SC5*%
%TO.N,unconnected-(U2-SC5-Pad16)*%
X231225000Y-120130000D03*
%TO.P,U2,17,SD6*%
%TO.N,unconnected-(U2-SD6-Pad17)*%
X230575000Y-120130000D03*
%TO.P,U2,18,SC6*%
%TO.N,unconnected-(U2-SC6-Pad18)*%
X229925000Y-120130000D03*
%TO.P,U2,19,SD7*%
%TO.N,unconnected-(U2-SD7-Pad19)*%
X229275000Y-120130000D03*
%TO.P,U2,20,SC7*%
%TO.N,unconnected-(U2-SC7-Pad20)*%
X228625000Y-120130000D03*
%TO.P,U2,21,A2*%
%TO.N,GND*%
X227975000Y-120130000D03*
%TO.P,U2,22,SCL*%
%TO.N,/SCL*%
X227325000Y-120130000D03*
%TO.P,U2,23,SDA*%
%TO.N,/SDA*%
X226675000Y-120130000D03*
%TO.P,U2,24,VCC*%
%TO.N,+3.3V*%
X226025000Y-120130000D03*
%TD*%
D15*
%TO.P,Qw1,1,GND*%
%TO.N,GND*%
X214700000Y-123000000D03*
%TO.P,Qw1,2,3.3V*%
%TO.N,+3.3V*%
X215700000Y-123000000D03*
%TO.P,Qw1,3,SDA*%
%TO.N,/SD0*%
X216700000Y-123000000D03*
%TO.P,Qw1,4,SCL*%
%TO.N,/SC0*%
X217700000Y-123000000D03*
D16*
%TO.P,Qw1,MP*%
%TO.N,N/C*%
X213400000Y-120475000D03*
X219000000Y-120475000D03*
%TD*%
D20*
%TO.P,POT1,1,1*%
%TO.N,+3.3V*%
X100000000Y-105000000D03*
%TO.P,POT1,2,2*%
%TO.N,/A0*%
X95000000Y-105000000D03*
%TO.P,POT1,3,3*%
%TO.N,GND*%
X90000000Y-105000000D03*
%TD*%
D14*
%TO.P,R_ZVD_1,1*%
%TO.N,Net-(Q1-Pad2)*%
X94400000Y-139912500D03*
%TO.P,R_ZVD_1,2*%
%TO.N,GND*%
X94400000Y-138087500D03*
%TD*%
D10*
%TO.P,REF\u002A\u002A,4*%
%TO.N,GND*%
X232000000Y-136000000D03*
%TD*%
D46*
%TO.P,U4,1,GPIO2*%
%TO.N,unconnected-(U4-GPIO2-Pad1)*%
X196750000Y-121850000D03*
%TO.P,U4,2,GPIO1*%
%TO.N,unconnected-(U4-GPIO1-Pad2)*%
X196250000Y-121850000D03*
%TO.P,U4,3,BUSY/TE*%
%TO.N,unconnected-(U4-BUSY{slash}TE-Pad3)*%
X195750000Y-121850000D03*
%TO.P,U4,4,INT*%
%TO.N,unconnected-(U4-INT-Pad4)*%
X195250000Y-121850000D03*
%TO.P,U4,5,SDA*%
%TO.N,unconnected-(U4-SDA-Pad5)*%
X194750000Y-121850000D03*
%TO.P,U4,6,SCL*%
%TO.N,unconnected-(U4-SCL-Pad6)*%
X194250000Y-121850000D03*
%TO.P,U4,7,TS_CS*%
%TO.N,unconnected-(U4-TS_CS-Pad7)*%
X193750000Y-121850000D03*
%TO.P,U4,8,MEM_CS*%
%TO.N,unconnected-(U4-MEM_CS-Pad8)*%
X193250000Y-121850000D03*
%TO.P,U4,9,SD_CS*%
%TO.N,unconnected-(U4-SD_CS-Pad9)*%
X192750000Y-121850000D03*
%TO.P,U4,10,DISP_CS*%
%TO.N,/TFT_CS*%
X192250000Y-121850000D03*
%TO.P,U4,11,RESET*%
%TO.N,/TFT_RST*%
X191750000Y-121850000D03*
%TO.P,U4,12,DC*%
%TO.N,/TFT_D{slash}C*%
X191250000Y-121850000D03*
%TO.P,U4,13,MISO*%
%TO.N,unconnected-(U4-MISO-Pad13)*%
X190750000Y-121850000D03*
%TO.P,U4,14,MOSI*%
%TO.N,/MOSI*%
X190250000Y-121850000D03*
%TO.P,U4,15,SCK*%
%TO.N,/SCK*%
X189750000Y-121850000D03*
%TO.P,U4,16,GND*%
%TO.N,GND*%
X189250000Y-121850000D03*
%TO.P,U4,17,BACKLITE*%
%TO.N,unconnected-(U4-BACKLITE-Pad17)*%
X188750000Y-121850000D03*
%TO.P,U4,18,VCC*%
%TO.N,+3.3V*%
X188250000Y-121850000D03*
D47*
%TO.P,U4,MP*%
%TO.N,N/C*%
X198650000Y-118600000D03*
X186350000Y-118600000D03*
%TD*%
D48*
%TO.P,C_LED1,1*%
%TO.N,/BUCK_5V*%
X203250000Y-110367677D03*
D27*
%TO.P,C_LED1,2*%
%TO.N,GND*%
X203250000Y-105367677D03*
%TD*%
D49*
%TO.P,Q2,1*%
%TO.N,Net-(Q1-Pad1)*%
X91315000Y-138287500D03*
%TO.P,Q2,2*%
%TO.N,+5V*%
X89485000Y-138287500D03*
%TO.P,Q2,3*%
%TO.N,/BUCK_5V*%
X90400000Y-140337500D03*
%TD*%
D50*
%TO.N,+3.3V*%
X172000000Y-131000000D03*
X173000000Y-130000000D03*
X142750000Y-142699500D03*
X172000000Y-132000000D03*
X171000000Y-132000000D03*
X150400000Y-131600000D03*
X173000000Y-132000000D03*
X222400000Y-133000000D03*
X187200000Y-122600000D03*
X215600000Y-137200000D03*
X215800000Y-124400000D03*
X221600000Y-118600000D03*
X223600000Y-118600000D03*
X224800000Y-120000000D03*
X156750000Y-142250000D03*
X215600000Y-130600000D03*
X215600000Y-144800000D03*
X173000000Y-131000000D03*
%TO.N,GND*%
X104400000Y-129200000D03*
X95600000Y-142200000D03*
X223800000Y-123600000D03*
X119800000Y-134800000D03*
X94400000Y-136200000D03*
X109400000Y-124400000D03*
X144750000Y-142699500D03*
X228000000Y-118800000D03*
X214800000Y-124400000D03*
X105000000Y-133000000D03*
X158750000Y-142250000D03*
X105000000Y-135000000D03*
X103000000Y-135000000D03*
X188500000Y-123500000D03*
X224800000Y-124600000D03*
X105200000Y-130400000D03*
X234000000Y-125800000D03*
X214600000Y-144800000D03*
X214600000Y-130600000D03*
X94400000Y-134200000D03*
X103000000Y-133000000D03*
X214600000Y-137200000D03*
%TO.N,/SCK*%
X192400000Y-137600000D03*
%TO.N,/IMU_INT*%
X170412299Y-108787701D03*
%TO.N,/BUCK_5V*%
X114200000Y-128400000D03*
%TO.N,/MOTOR_EN*%
X151000000Y-113400000D03*
%TO.N,/HALL_L_A*%
X151800000Y-132600000D03*
%TO.N,/HALL_L_B*%
X170800000Y-121000000D03*
X172200000Y-125200000D03*
%TO.N,/HALL_R_A*%
X152750000Y-123750000D03*
%TO.N,/HALL_R_B*%
X156000000Y-120000000D03*
%TO.N,/SCL*%
X140400000Y-134000000D03*
X191400000Y-134200000D03*
X176950000Y-133750000D03*
%TO.N,/SDA*%
X175200000Y-134449500D03*
X224400000Y-116600000D03*
X194200000Y-131600000D03*
X225475455Y-118599500D03*
X203600000Y-131400000D03*
X206200000Y-125800000D03*
X133800000Y-131600000D03*
%TO.N,/TX*%
X156200000Y-118600000D03*
X174800000Y-118000000D03*
X140000000Y-116500000D03*
X159400000Y-117000000D03*
%TO.N,/RX*%
X148800000Y-121200000D03*
X154800000Y-111200000D03*
%TO.N,/DIR1*%
X173600000Y-116200000D03*
X159600000Y-129400000D03*
%TO.N,/DIR2*%
X159600000Y-123800000D03*
X171000000Y-115800000D03*
%TO.N,Net-(Q1-Pad2)*%
X91600000Y-141200000D03*
X95500000Y-140300000D03*
%TO.N,+5V*%
X89400000Y-140400000D03*
%TO.N,/SD0*%
X225200000Y-127800000D03*
X226809659Y-128863000D03*
X221800000Y-131200000D03*
X227962000Y-127499688D03*
%TO.N,/SC0*%
X220600000Y-131063000D03*
X224200000Y-125800000D03*
%TO.N,/SD1*%
X229331188Y-127731188D03*
X229400000Y-129800000D03*
%TO.N,/SC1*%
X217800000Y-131400000D03*
X219400000Y-129526500D03*
%TO.N,/SC2*%
X228800000Y-141000000D03*
X221800000Y-139400000D03*
%TO.N,/SD3*%
X234000000Y-129200000D03*
X231400000Y-130800000D03*
%TO.N,/SC3*%
X230600000Y-129800000D03*
X233000000Y-128400000D03*
X221400000Y-143200000D03*
%TO.N,/WS2812*%
X184400000Y-115800000D03*
%TO.N,/PWR_EN*%
X113200000Y-130800000D03*
%TO.N,/RST*%
X191850000Y-123200000D03*
X221800000Y-116200000D03*
X226668812Y-127331188D03*
X185500000Y-124550000D03*
%TO.N,/BAT_READING*%
X119600000Y-132400000D03*
%TO.N,/TFT_RST*%
X184600000Y-113350000D03*
X188150000Y-114250000D03*
X188150000Y-117600000D03*
X186950000Y-115750000D03*
%TO.N,/LDO2*%
X169500000Y-131250000D03*
X172000000Y-119500000D03*
%TD*%
D51*
%TO.N,+3.3V*%
X224670000Y-120130000D02*
X223805000Y-120130000D01*
D52*
X215700000Y-143000000D02*
X215700000Y-144700000D01*
D53*
X215700000Y-124300000D02*
X215800000Y-124400000D01*
D51*
X223805000Y-120130000D02*
X223600000Y-119925000D01*
D53*
X150400000Y-130400000D02*
X150400000Y-131600000D01*
D52*
X224930000Y-120130000D02*
X224800000Y-120000000D01*
D51*
X156750000Y-139150000D02*
X156750000Y-142250000D01*
D53*
X215700000Y-123000000D02*
X215700000Y-124300000D01*
D52*
X215700000Y-130500000D02*
X215600000Y-130600000D01*
X215700000Y-144700000D02*
X215600000Y-144800000D01*
X188250000Y-121850000D02*
X187950000Y-121850000D01*
D54*
X223430000Y-133800000D02*
X223200000Y-133800000D01*
X223200000Y-133800000D02*
X222400000Y-133000000D01*
D51*
X221600000Y-119925000D02*
X221600000Y-118600000D01*
D52*
X226025000Y-120130000D02*
X224930000Y-120130000D01*
D51*
X224800000Y-120000000D02*
X224670000Y-120130000D01*
D52*
X187950000Y-121850000D02*
X187200000Y-122600000D01*
X215700000Y-137100000D02*
X215600000Y-137200000D01*
X215700000Y-129325000D02*
X215700000Y-130500000D01*
D51*
X223600000Y-119925000D02*
X223600000Y-118600000D01*
D52*
X215700000Y-135825000D02*
X215700000Y-137100000D01*
D51*
X142750000Y-139150000D02*
X142750000Y-142699500D01*
X221600000Y-119925000D02*
X223600000Y-119925000D01*
D52*
%TO.N,GND*%
X233930000Y-125870000D02*
X234000000Y-125800000D01*
X227975000Y-118825000D02*
X228000000Y-118800000D01*
D51*
X224800000Y-124600000D02*
X224800000Y-124645000D01*
X223800000Y-123645000D02*
X224755000Y-124600000D01*
D53*
X121625000Y-136600000D02*
X121625000Y-137525000D01*
D52*
X214700000Y-144700000D02*
X214600000Y-144800000D01*
D51*
X119825000Y-134800000D02*
X121625000Y-136600000D01*
D52*
X214700000Y-129325000D02*
X214700000Y-130500000D01*
D51*
X105307502Y-129080000D02*
X104520000Y-129080000D01*
X118525000Y-133500000D02*
X119800000Y-134775000D01*
X119800000Y-134775000D02*
X119800000Y-134800000D01*
D52*
X233175000Y-125870000D02*
X233930000Y-125870000D01*
D51*
X158750000Y-139150000D02*
X158750000Y-142250000D01*
D52*
X214700000Y-123000000D02*
X214700000Y-124300000D01*
D51*
X223600000Y-122000000D02*
X221600000Y-122000000D01*
D52*
X214700000Y-130500000D02*
X214600000Y-130600000D01*
D51*
X109300000Y-125587500D02*
X109300000Y-124500000D01*
X94400000Y-142650000D02*
X95150000Y-142650000D01*
X94400000Y-137900000D02*
X94400000Y-137362500D01*
X95150000Y-142650000D02*
X95600000Y-142200000D01*
X224755000Y-124600000D02*
X224800000Y-124600000D01*
X223600000Y-123445000D02*
X223755000Y-123600000D01*
X106962500Y-134800000D02*
X107050000Y-134712500D01*
X144750000Y-139150000D02*
X144750000Y-142699500D01*
X226025000Y-125870000D02*
X226670000Y-125870000D01*
X223600000Y-122000000D02*
X223600000Y-123445000D01*
D52*
X188500000Y-123500000D02*
X189250000Y-122750000D01*
D53*
X122337500Y-138262500D02*
X126000000Y-138262500D01*
D51*
X223800000Y-123600000D02*
X223800000Y-123645000D01*
D52*
X214700000Y-137100000D02*
X214600000Y-137200000D01*
D51*
X105307502Y-130292498D02*
X105200000Y-130400000D01*
D52*
X227975000Y-120130000D02*
X227975000Y-118825000D01*
D51*
X94400000Y-137362500D02*
X93237500Y-136200000D01*
D52*
X214700000Y-135825000D02*
X214700000Y-137100000D01*
D53*
X121625000Y-137525000D02*
X122337500Y-138237500D01*
D51*
X118412500Y-133500000D02*
X118525000Y-133500000D01*
X93237500Y-136200000D02*
X94400000Y-136200000D01*
X105307502Y-129080000D02*
X105307502Y-130292498D01*
D52*
X189250000Y-122750000D02*
X189250000Y-121850000D01*
D54*
X122337500Y-138237500D02*
X122337500Y-138262500D01*
D51*
X93237500Y-136200000D02*
X93237500Y-134200000D01*
X104520000Y-129080000D02*
X104400000Y-129200000D01*
D52*
X214700000Y-124300000D02*
X214800000Y-124400000D01*
D51*
X223755000Y-123600000D02*
X223800000Y-123600000D01*
D52*
X214700000Y-143000000D02*
X214700000Y-144700000D01*
D51*
X109300000Y-124500000D02*
X109400000Y-124400000D01*
X93237500Y-134200000D02*
X94400000Y-134200000D01*
X119800000Y-134800000D02*
X119825000Y-134800000D01*
X224800000Y-124645000D02*
X226025000Y-125870000D01*
D52*
%TO.N,/SCK*%
X189750000Y-121850000D02*
X189750000Y-131530000D01*
D54*
X192400000Y-137600000D02*
X192400000Y-137000000D01*
X192400000Y-137000000D02*
X188740000Y-133340000D01*
X188740000Y-133340000D02*
X187940000Y-133340000D01*
D52*
X187940000Y-133340000D02*
X182000000Y-139280000D01*
X189750000Y-131530000D02*
X187940000Y-133340000D01*
D53*
%TO.N,/MISO*%
X200320000Y-141820000D02*
X182000000Y-141820000D01*
X201310000Y-143890000D02*
X201310000Y-142810000D01*
X201310000Y-142810000D02*
X200320000Y-141820000D01*
%TO.N,/IMU_INT*%
X167884598Y-106260000D02*
X170412299Y-108787701D01*
X166760000Y-106260000D02*
X167884598Y-106260000D01*
D52*
%TO.N,/MOSI*%
X191450000Y-124000000D02*
X199200000Y-124000000D01*
X190250000Y-121850000D02*
X190250000Y-122800000D01*
X190250000Y-122800000D02*
X191450000Y-124000000D01*
X199200000Y-124000000D02*
X201310000Y-126110000D01*
D51*
%TO.N,Net-(U3-SW)*%
X103600000Y-131400000D02*
X101362500Y-129162500D01*
X101362500Y-126412500D02*
X99807500Y-126412500D01*
X106257502Y-129080000D02*
X106257502Y-130544580D01*
X105402082Y-131400000D02*
X103600000Y-131400000D01*
X99807500Y-126412500D02*
X98407500Y-127812500D01*
X101362500Y-129162500D02*
X101362500Y-126412500D01*
X106257502Y-130544580D02*
X105402082Y-131400000D01*
%TO.N,Net-(U3-VBST)*%
X104950002Y-126412500D02*
X105307502Y-126770000D01*
X103437500Y-126412500D02*
X104950002Y-126412500D01*
%TO.N,/VBAT*%
X109125000Y-132750000D02*
X109087500Y-132712500D01*
X109087500Y-132712500D02*
X109087500Y-130959998D01*
X114000000Y-138025000D02*
X114587500Y-138612500D01*
X109087500Y-130959998D02*
X107207502Y-129080000D01*
X109125000Y-134712500D02*
X109125000Y-132750000D01*
X115600000Y-132000000D02*
X116675000Y-132000000D01*
X114000000Y-133600000D02*
X115600000Y-132000000D01*
X114000000Y-138025000D02*
X112437500Y-138025000D01*
X114587500Y-138612500D02*
X118000000Y-138612500D01*
X114000000Y-138025000D02*
X114000000Y-133600000D01*
X112437500Y-138025000D02*
X109125000Y-134712500D01*
%TO.N,/BUCK_5V*%
X90962500Y-136400000D02*
X91162500Y-136200000D01*
X90400000Y-140337500D02*
X90400000Y-142377500D01*
X89392500Y-127812500D02*
X89392500Y-130412500D01*
X122500000Y-124580000D02*
X122500000Y-127120000D01*
X90400000Y-136400000D02*
X90962500Y-136400000D01*
X89392500Y-130412500D02*
X90400000Y-131420000D01*
X113000000Y-126797918D02*
X109752082Y-123550000D01*
X90962500Y-134000000D02*
X91162500Y-134200000D01*
X90400000Y-134000000D02*
X90962500Y-134000000D01*
X90400000Y-134000000D02*
X90400000Y-131420000D01*
X122500000Y-122040000D02*
X122500000Y-124580000D01*
X90400000Y-140337500D02*
X90400000Y-136400000D01*
X113000000Y-127500000D02*
X113000000Y-126797918D01*
X122500000Y-119500000D02*
X122500000Y-122040000D01*
X109752082Y-123550000D02*
X93655000Y-123550000D01*
X90400000Y-136400000D02*
X90400000Y-134000000D01*
X113300000Y-127500000D02*
X114200000Y-128400000D01*
X93655000Y-123550000D02*
X89392500Y-127812500D01*
X113000000Y-127500000D02*
X113300000Y-127500000D01*
%TO.N,/MOTOR_EN*%
X150400000Y-124925000D02*
X149675000Y-124925000D01*
X147525000Y-127075000D02*
X145500000Y-127075000D01*
D52*
X150400000Y-124925000D02*
X150400000Y-114000000D01*
D51*
X149675000Y-124925000D02*
X147525000Y-127075000D01*
D52*
X150400000Y-114000000D02*
X151000000Y-113400000D01*
D51*
%TO.N,Net-(D1-A)*%
X150400000Y-128575000D02*
X150400000Y-126675000D01*
%TO.N,Net-(D2-A)*%
X123412500Y-135000000D02*
X123412500Y-136562500D01*
X123412500Y-136562500D02*
X123375000Y-136600000D01*
D53*
%TO.N,/HALL_L_A*%
X138750000Y-137684316D02*
X140217158Y-136217158D01*
X140217158Y-136217158D02*
X143834315Y-132600000D01*
X138750000Y-139150000D02*
X138750000Y-137684316D01*
X143834315Y-132600000D02*
X151800000Y-132600000D01*
%TO.N,/HALL_L_B*%
X162000000Y-140400000D02*
X170200000Y-140400000D01*
X174050000Y-136550000D02*
X174050000Y-127050000D01*
X170200000Y-140400000D02*
X174050000Y-136550000D01*
X154672183Y-143600000D02*
X158800000Y-143600000D01*
X140750000Y-139150000D02*
X140750000Y-138622183D01*
X142000000Y-135000000D02*
X146072183Y-135000000D01*
X140800000Y-136200000D02*
X142000000Y-135000000D01*
X140750000Y-138622183D02*
X140800000Y-138572183D01*
X140800000Y-138572183D02*
X140800000Y-136200000D01*
X174050000Y-127050000D02*
X172200000Y-125200000D01*
X170800000Y-121000000D02*
X168760000Y-118960000D01*
X168760000Y-118960000D02*
X166760000Y-118960000D01*
X146072183Y-135000000D02*
X154672183Y-143600000D01*
X158800000Y-143600000D02*
X162000000Y-140400000D01*
D52*
%TO.N,/HALL_R_A*%
X152750000Y-123750000D02*
X152750000Y-139150000D01*
%TO.N,/HALL_R_B*%
X154750000Y-121250000D02*
X156000000Y-120000000D01*
X154750000Y-139150000D02*
X154750000Y-121250000D01*
D51*
%TO.N,Net-(J2-Pin_2)*%
X189460000Y-104000000D02*
X189460000Y-107960000D01*
X189460000Y-107960000D02*
X189500000Y-108000000D01*
D54*
%TO.N,/SCL*%
X227325000Y-120130000D02*
X227325000Y-119429363D01*
X225832137Y-117936500D02*
X218263500Y-117936500D01*
X218263500Y-117936500D02*
X208800000Y-127400000D01*
D53*
X176950000Y-133750000D02*
X177400000Y-134200000D01*
X138000000Y-134000000D02*
X140400000Y-134000000D01*
X134000000Y-130000000D02*
X134000000Y-129620000D01*
D54*
X227325000Y-119429363D02*
X225832137Y-117936500D01*
D53*
X177400000Y-134200000D02*
X182000000Y-134200000D01*
X134000000Y-130000000D02*
X138000000Y-134000000D01*
D54*
X197461669Y-127400000D02*
X208800000Y-127400000D01*
X191400000Y-134200000D02*
X191400000Y-133461669D01*
X191400000Y-133461669D02*
X197461669Y-127400000D01*
D53*
X134000000Y-129620000D02*
X131500000Y-127120000D01*
%TO.N,/SDA*%
X133000000Y-130800000D02*
X131800000Y-130800000D01*
X175540000Y-131660000D02*
X182000000Y-131660000D01*
X129500000Y-128500000D02*
X129500000Y-126580000D01*
D54*
X203600000Y-131400000D02*
X194400000Y-131400000D01*
X224136500Y-116863500D02*
X215136500Y-116863500D01*
X194400000Y-131400000D02*
X194200000Y-131600000D01*
D53*
X133000000Y-130800000D02*
X133800000Y-131600000D01*
D54*
X226675000Y-120130000D02*
X226675000Y-119429363D01*
D53*
X175200000Y-132000000D02*
X175540000Y-131660000D01*
D54*
X225845137Y-118599500D02*
X225475455Y-118599500D01*
D53*
X131800000Y-130800000D02*
X129500000Y-128500000D01*
D54*
X224400000Y-116600000D02*
X224136500Y-116863500D01*
X215136500Y-116863500D02*
X206200000Y-125800000D01*
D53*
X129500000Y-126580000D02*
X131500000Y-124580000D01*
D54*
X226675000Y-119429363D02*
X225845137Y-118599500D01*
D53*
X175200000Y-134449500D02*
X175200000Y-132000000D01*
%TO.N,/TX*%
X142800000Y-112700000D02*
X151439950Y-112700000D01*
X170050000Y-122750000D02*
X174800000Y-118000000D01*
X159400000Y-117000000D02*
X165150000Y-122750000D01*
X142800000Y-112700000D02*
X140000000Y-115500000D01*
X151439950Y-112700000D02*
X156200000Y-117460050D01*
X140000000Y-115500000D02*
X140000000Y-116500000D01*
X165150000Y-122750000D02*
X170050000Y-122750000D01*
X156200000Y-117460050D02*
X156200000Y-118600000D01*
%TO.N,/RX*%
X165087400Y-109887400D02*
X162400000Y-107200000D01*
X181212601Y-117207399D02*
X171007399Y-117207399D01*
X148800000Y-121200000D02*
X142800000Y-121200000D01*
X142800000Y-121200000D02*
X139420000Y-124580000D01*
X158800000Y-107200000D02*
X158700000Y-107300000D01*
X139420000Y-124580000D02*
X136000000Y-124580000D01*
X154800000Y-111200000D02*
X158700000Y-107300000D01*
X167000000Y-109887400D02*
X165087400Y-109887400D01*
X167847400Y-114047400D02*
X167847400Y-110734800D01*
X182000000Y-116420000D02*
X181212601Y-117207399D01*
X148790000Y-121190000D02*
X148800000Y-121200000D01*
X162400000Y-107200000D02*
X158800000Y-107200000D01*
X167847400Y-110734800D02*
X167000000Y-109887400D01*
X171007399Y-117207399D02*
X167847400Y-114047400D01*
D52*
%TO.N,/DIR1*%
X173600000Y-116200000D02*
X178460000Y-111340000D01*
X157425000Y-131575000D02*
X159600000Y-129400000D01*
X157250000Y-131575000D02*
X157425000Y-131575000D01*
X178460000Y-111340000D02*
X182000000Y-111340000D01*
%TO.N,/DIR2*%
X171000000Y-115800000D02*
X178000000Y-108800000D01*
X159600000Y-124145000D02*
X159600000Y-123800000D01*
X157250000Y-126495000D02*
X159600000Y-124145000D01*
X178000000Y-108800000D02*
X182000000Y-108800000D01*
%TO.N,/A0*%
X160750000Y-121000000D02*
X157500000Y-117750000D01*
X163700000Y-134200000D02*
X160750000Y-131250000D01*
X100000000Y-110000000D02*
X95000000Y-105000000D01*
X157500000Y-117750000D02*
X157113604Y-117750000D01*
X149363604Y-110000000D02*
X100000000Y-110000000D01*
X157113604Y-117750000D02*
X149363604Y-110000000D01*
X166760000Y-134200000D02*
X163700000Y-134200000D01*
X160750000Y-131250000D02*
X160750000Y-121000000D01*
%TO.N,/A1*%
X161500000Y-129750000D02*
X163410000Y-131660000D01*
X122500000Y-105000000D02*
X120000000Y-105000000D01*
X126500000Y-109000000D02*
X149000000Y-109000000D01*
X163410000Y-131660000D02*
X166760000Y-131660000D01*
X126500000Y-109000000D02*
X122500000Y-105000000D01*
X157686396Y-117300000D02*
X161500000Y-121113604D01*
X157300000Y-117300000D02*
X157686396Y-117300000D01*
X149000000Y-109000000D02*
X157300000Y-117300000D01*
X161500000Y-121113604D02*
X161500000Y-129750000D01*
%TO.N,/A3*%
X163750000Y-125250000D02*
X165080000Y-126580000D01*
X145000000Y-105000000D02*
X146022792Y-105000000D01*
X165080000Y-126580000D02*
X166760000Y-126580000D01*
X163750000Y-122727208D02*
X163750000Y-125250000D01*
X146022792Y-105000000D02*
X163750000Y-122727208D01*
D54*
%TO.N,/A4*%
X209900000Y-112600000D02*
X217500000Y-105000000D01*
X183600000Y-117800000D02*
X188600000Y-112800000D01*
X166760000Y-124040000D02*
X170760000Y-124040000D01*
X188600000Y-112800000D02*
X209400000Y-112800000D01*
X209400000Y-112800000D02*
X209600000Y-112600000D01*
X209600000Y-112600000D02*
X209900000Y-112600000D01*
X177000000Y-117800000D02*
X183600000Y-117800000D01*
X170760000Y-124040000D02*
X177000000Y-117800000D01*
D51*
%TO.N,Net-(Q1-Pad1)*%
X92675000Y-146200000D02*
X94400000Y-144475000D01*
X89450000Y-145356175D02*
X90293825Y-146200000D01*
X92600000Y-139572500D02*
X92600000Y-143200000D01*
X91315000Y-138287500D02*
X92600000Y-139572500D01*
X92600000Y-143200000D02*
X93875000Y-144475000D01*
X89450000Y-144747500D02*
X89450000Y-145356175D01*
X90293825Y-146200000D02*
X92675000Y-146200000D01*
X93875000Y-144475000D02*
X94400000Y-144475000D01*
%TO.N,Net-(Q1-Pad2)*%
X90400000Y-144747500D02*
X91350000Y-144747500D01*
X91350000Y-142377500D02*
X91350000Y-144747500D01*
X95500000Y-140300000D02*
X94925000Y-139725000D01*
X91350000Y-141450000D02*
X91600000Y-141200000D01*
X91350000Y-142377500D02*
X91350000Y-141450000D01*
X94925000Y-139725000D02*
X94400000Y-139725000D01*
%TO.N,+5V*%
X89400000Y-140400000D02*
X89400000Y-142327500D01*
X89485000Y-140315000D02*
X89400000Y-140400000D01*
X89400000Y-142327500D02*
X89450000Y-142377500D01*
X89485000Y-138287500D02*
X89485000Y-140315000D01*
D54*
%TO.N,/SD0*%
X221736500Y-134310301D02*
X221736500Y-131263500D01*
X227962000Y-125883000D02*
X227975000Y-125870000D01*
X217653249Y-124400000D02*
X221800000Y-124400000D01*
X223430000Y-134490000D02*
X221916199Y-134490000D01*
X216700000Y-123000000D02*
X216700000Y-123446751D01*
X225200000Y-127800000D02*
X226263000Y-128863000D01*
X227962000Y-127499688D02*
X227962000Y-125883000D01*
X221916199Y-134490000D02*
X221736500Y-134310301D01*
X221800000Y-124400000D02*
X225200000Y-127800000D01*
X221736500Y-131263500D02*
X221800000Y-131200000D01*
X216700000Y-123446751D02*
X217653249Y-124400000D01*
X226263000Y-128863000D02*
X226809659Y-128863000D01*
%TO.N,/SC0*%
X222093751Y-135130000D02*
X220600000Y-133636249D01*
X228200000Y-128200000D02*
X228625000Y-127775000D01*
X217700000Y-123000000D02*
X218500000Y-123800000D01*
X228625000Y-127775000D02*
X228625000Y-125870000D01*
X226600000Y-128200000D02*
X228200000Y-128200000D01*
X222200000Y-123800000D02*
X226600000Y-128200000D01*
X218500000Y-123800000D02*
X222200000Y-123800000D01*
X223430000Y-135130000D02*
X222093751Y-135130000D01*
X220600000Y-133636249D02*
X220600000Y-131063000D01*
%TO.N,/SD1*%
X218600000Y-130400000D02*
X225600000Y-130400000D01*
X229331188Y-127731188D02*
X229331188Y-125926188D01*
X223430000Y-135770000D02*
X222271303Y-135770000D01*
X225600000Y-130400000D02*
X225800000Y-130200000D01*
X229331188Y-125926188D02*
X229275000Y-125870000D01*
X217415223Y-130400000D02*
X218600000Y-130400000D01*
X220200000Y-133698697D02*
X220200000Y-132000000D01*
X225800000Y-130200000D02*
X229000000Y-130200000D01*
X220200000Y-132000000D02*
X218600000Y-130400000D01*
X216700000Y-129684777D02*
X217415223Y-130400000D01*
X229000000Y-130200000D02*
X229400000Y-129800000D01*
X216700000Y-129325000D02*
X216700000Y-129684777D01*
X222271303Y-135770000D02*
X220200000Y-133698697D01*
%TO.N,/SC1*%
X230000000Y-128000000D02*
X230000000Y-125945000D01*
X228473500Y-129526500D02*
X230000000Y-128000000D01*
X219400000Y-129526500D02*
X228473500Y-129526500D01*
X217700000Y-129325000D02*
X217901500Y-129526500D01*
X223430000Y-136460000D02*
X220433801Y-136460000D01*
X220433801Y-136460000D02*
X217800000Y-133826199D01*
X217901500Y-129526500D02*
X219400000Y-129526500D01*
X217800000Y-133826199D02*
X217800000Y-131400000D01*
X230000000Y-125945000D02*
X229925000Y-125870000D01*
%TO.N,/SD2*%
X220715223Y-140200000D02*
X222200000Y-140200000D01*
X234000000Y-140200000D02*
X236600000Y-137600000D01*
X232400000Y-130600000D02*
X230575000Y-128775000D01*
X236600000Y-137600000D02*
X236600000Y-133400000D01*
X236600000Y-133400000D02*
X233800000Y-130600000D01*
X216700000Y-135825000D02*
X216700000Y-136184777D01*
X230575000Y-128775000D02*
X230575000Y-125870000D01*
X225200000Y-136460000D02*
X225200000Y-137200000D01*
X222200000Y-140200000D02*
X234000000Y-140200000D01*
X225200000Y-137200000D02*
X222200000Y-140200000D01*
X216700000Y-136184777D02*
X220715223Y-140200000D01*
X233800000Y-130600000D02*
X232400000Y-130600000D01*
%TO.N,/SC2*%
X224400000Y-136119000D02*
X224400000Y-137200000D01*
X237200000Y-132800000D02*
X234400000Y-130000000D01*
X224400000Y-137200000D02*
X223200000Y-138400000D01*
X231200000Y-128600000D02*
X231200000Y-125895000D01*
X220800000Y-138400000D02*
X221800000Y-139400000D01*
X217700000Y-135825000D02*
X218225000Y-135825000D01*
X228800000Y-141000000D02*
X234200000Y-141000000D01*
X234400000Y-130000000D02*
X232600000Y-130000000D01*
X231200000Y-125895000D02*
X231225000Y-125870000D01*
X234200000Y-141000000D02*
X237200000Y-138000000D01*
X224749000Y-135770000D02*
X224400000Y-136119000D01*
X237200000Y-138000000D02*
X237200000Y-132800000D01*
X218225000Y-135825000D02*
X220800000Y-138400000D01*
X232600000Y-130000000D02*
X231200000Y-128600000D01*
X223200000Y-138400000D02*
X220800000Y-138400000D01*
X225200000Y-135770000D02*
X224749000Y-135770000D01*
%TO.N,/SD3*%
X225200000Y-135130000D02*
X227070000Y-135130000D01*
X227200000Y-135000000D02*
X231400000Y-130800000D01*
X217378723Y-144038500D02*
X231961500Y-144038500D01*
X231961500Y-144038500D02*
X237800000Y-138200000D01*
X227070000Y-135130000D02*
X227200000Y-135000000D01*
X237800000Y-138200000D02*
X237800000Y-132000000D01*
X232800000Y-129200000D02*
X231875000Y-128275000D01*
X216700000Y-143359777D02*
X217378723Y-144038500D01*
X237800000Y-132000000D02*
X235000000Y-129200000D01*
X235000000Y-129200000D02*
X232800000Y-129200000D01*
X231875000Y-128275000D02*
X231875000Y-125870000D01*
X216700000Y-143000000D02*
X216700000Y-143359777D01*
%TO.N,/SC3*%
X225910000Y-134490000D02*
X230600000Y-129800000D01*
X232525000Y-127925000D02*
X232525000Y-125870000D01*
X233000000Y-128400000D02*
X232525000Y-127925000D01*
X217700000Y-143000000D02*
X217900000Y-143200000D01*
X225200000Y-134490000D02*
X225910000Y-134490000D01*
X217900000Y-143200000D02*
X221400000Y-143200000D01*
D51*
%TO.N,Net-(U3-VFB)*%
X111087500Y-127412500D02*
X111175000Y-127500000D01*
X109300000Y-127412500D02*
X111087500Y-127412500D01*
X108657500Y-126770000D02*
X109300000Y-127412500D01*
X107207502Y-126770000D02*
X108657500Y-126770000D01*
D54*
%TO.N,/WS2812*%
X189500000Y-110700000D02*
X184400000Y-115800000D01*
X189500000Y-109825000D02*
X189500000Y-110700000D01*
D53*
%TO.N,/PWR_EN*%
X119600000Y-130800000D02*
X121587500Y-132787500D01*
X106257502Y-127275426D02*
X106982076Y-128000000D01*
X106982076Y-128000000D02*
X108600000Y-128000000D01*
X121587500Y-132787500D02*
X121587500Y-135000000D01*
D54*
X106257502Y-126770000D02*
X106257502Y-127275426D01*
D53*
X111400000Y-130800000D02*
X119600000Y-130800000D01*
X108600000Y-128000000D02*
X111400000Y-130800000D01*
%TO.N,/RST*%
X183200000Y-134537816D02*
X183200000Y-125240000D01*
X130500000Y-138262500D02*
X135262500Y-138262500D01*
D54*
X227325000Y-125870000D02*
X227325000Y-126675000D01*
X192273000Y-123200000D02*
X191850000Y-123200000D01*
X184990000Y-124040000D02*
X182000000Y-124040000D01*
D53*
X183200000Y-125240000D02*
X182000000Y-124040000D01*
X135262500Y-138262500D02*
X143900000Y-146900000D01*
X130500000Y-144762500D02*
X130500000Y-138262500D01*
D54*
X185500000Y-124550000D02*
X184990000Y-124040000D01*
D53*
X177512600Y-135287400D02*
X182450416Y-135287400D01*
D54*
X227325000Y-126675000D02*
X226668812Y-127331188D01*
D53*
X182450416Y-135287400D02*
X183200000Y-134537816D01*
D54*
X192273000Y-123200000D02*
X206600000Y-123200000D01*
D53*
X143900000Y-146900000D02*
X165900000Y-146900000D01*
D54*
X206600000Y-123200000D02*
X213600000Y-116200000D01*
X213600000Y-116200000D02*
X221800000Y-116200000D01*
D53*
X165900000Y-146900000D02*
X177512600Y-135287400D01*
D54*
%TO.N,/TFT_CS*%
X185646198Y-116800000D02*
X181946298Y-120499900D01*
X188600000Y-116800000D02*
X185646198Y-116800000D01*
X192250000Y-121850000D02*
X192250000Y-120450000D01*
X192250000Y-120450000D02*
X188600000Y-116800000D01*
X175380100Y-120499900D02*
X166760000Y-129120000D01*
X181946298Y-120499900D02*
X175380100Y-120499900D01*
D53*
%TO.N,/BAT_READING*%
X118500000Y-132000000D02*
X119200000Y-132000000D01*
X116587500Y-133500000D02*
X117000000Y-133500000D01*
X117000000Y-133500000D02*
X118500000Y-132000000D01*
X119200000Y-132000000D02*
X119600000Y-132400000D01*
D52*
%TO.N,/TFT_D{slash}C*%
X191250000Y-121850000D02*
X191250000Y-120900000D01*
X191100000Y-120750000D02*
X187500000Y-120750000D01*
X186475000Y-132265000D02*
X182000000Y-136740000D01*
X186475000Y-121775000D02*
X186475000Y-132265000D01*
X187500000Y-120750000D02*
X186475000Y-121775000D01*
X191250000Y-120900000D02*
X191100000Y-120750000D01*
D55*
%TO.N,Net-(J9-Pin_2)*%
X113692500Y-141307500D02*
X114000000Y-141000000D01*
X109107502Y-141307500D02*
X113692500Y-141307500D01*
D53*
%TO.N,/TFT_RST*%
X191750000Y-121850000D02*
X191750000Y-120464066D01*
X184600000Y-113350000D02*
X183650000Y-112400000D01*
X191750000Y-120464066D02*
X188885934Y-117600000D01*
X186950000Y-115450000D02*
X188150000Y-114250000D01*
X183650000Y-112400000D02*
X183650000Y-107910000D01*
X186950000Y-115750000D02*
X186950000Y-115450000D01*
X188885934Y-117600000D02*
X188150000Y-117600000D01*
X183650000Y-107910000D02*
X182300520Y-106560520D01*
D55*
%TO.N,/LD01*%
X169790000Y-136740000D02*
X169800000Y-136750000D01*
X166760000Y-136740000D02*
X169790000Y-136740000D01*
D51*
%TO.N,/LDO2*%
X168920000Y-116420000D02*
X172000000Y-119500000D01*
X169500000Y-131250000D02*
X169500000Y-133725000D01*
X166760000Y-116420000D02*
X168920000Y-116420000D01*
X169500000Y-133725000D02*
X169775000Y-134000000D01*
%TD*%
%TA.AperFunction,Conductor*%
%TO.N,GND*%
G36*
X102934723Y-131809439D02*
G01*
X102974951Y-131836319D01*
X103024269Y-131885637D01*
X103036051Y-131899270D01*
X103050389Y-131918529D01*
X103088337Y-131950372D01*
X103096311Y-131957680D01*
X103100221Y-131961590D01*
X103124537Y-131980816D01*
X103127336Y-131983096D01*
X103185752Y-132032113D01*
X103202179Y-132042578D01*
X103271320Y-132074819D01*
X103274567Y-132076391D01*
X103342699Y-132110609D01*
X103361087Y-132117000D01*
X103362323Y-132117255D01*
X103362327Y-132117257D01*
X103435895Y-132132447D01*
X103439242Y-132133189D01*
X103512279Y-132150500D01*
X103512281Y-132150500D01*
X103513509Y-132150791D01*
X103532878Y-132152770D01*
X103534140Y-132152733D01*
X103534144Y-132152734D01*
X103606533Y-132150627D01*
X103609131Y-132150552D01*
X103612737Y-132150500D01*
X105338376Y-132150500D01*
X105356346Y-132151809D01*
X105360402Y-132152402D01*
X105380105Y-132155289D01*
X105429450Y-132150972D01*
X105440258Y-132150500D01*
X105445788Y-132150500D01*
X105445791Y-132150500D01*
X105476632Y-132146894D01*
X105480113Y-132146539D01*
X105554879Y-132139999D01*
X105554879Y-132139998D01*
X105556134Y-132139889D01*
X105575144Y-132135674D01*
X105576332Y-132135241D01*
X105576337Y-132135241D01*
X105646902Y-132109557D01*
X105650177Y-132108419D01*
X105721416Y-132084814D01*
X105721418Y-132084812D01*
X105722618Y-132084415D01*
X105740145Y-132075929D01*
X105741194Y-132075238D01*
X105741199Y-132075237D01*
X105803888Y-132034005D01*
X105806880Y-132032099D01*
X105870738Y-131992712D01*
X105870738Y-131992711D01*
X105871811Y-131992050D01*
X105886906Y-131979753D01*
X105887774Y-131978832D01*
X105887778Y-131978830D01*
X105939268Y-131924252D01*
X105941680Y-131921768D01*
X106027133Y-131836315D01*
X106067359Y-131809439D01*
X106114811Y-131800000D01*
X107676000Y-131800000D01*
X107738000Y-131816613D01*
X107783387Y-131862000D01*
X107800000Y-131924000D01*
X107800000Y-137776976D01*
X107791735Y-137821489D01*
X105830572Y-142920513D01*
X105803998Y-142962177D01*
X105763263Y-142990153D01*
X105714837Y-143000000D01*
X102524000Y-143000000D01*
X102462000Y-142983387D01*
X102416613Y-142938000D01*
X102400000Y-142876000D01*
X102400000Y-131924000D01*
X102416613Y-131862000D01*
X102462000Y-131816613D01*
X102524000Y-131800000D01*
X102887270Y-131800000D01*
X102934723Y-131809439D01*
G37*
%TD.AperFunction*%
%TD*%
%TA.AperFunction,Conductor*%
%TO.N,+3.3V*%
G36*
X173387500Y-128916613D02*
G01*
X173432887Y-128962000D01*
X173449500Y-129024000D01*
X173449500Y-136249903D01*
X173440061Y-136297356D01*
X173413181Y-136337584D01*
X171576745Y-138174018D01*
X171538797Y-138199927D01*
X171494020Y-138210238D01*
X170655514Y-138243779D01*
X170601239Y-138233648D01*
X170556741Y-138200961D01*
X170530844Y-138152198D01*
X170528682Y-138097027D01*
X170550569Y-137980295D01*
X170568111Y-137936139D01*
X170600974Y-137901821D01*
X170639866Y-137874393D01*
X170720724Y-137780482D01*
X171220724Y-137030482D01*
X171274503Y-136924715D01*
X171302155Y-136809327D01*
X171302155Y-136690673D01*
X171274503Y-136575285D01*
X171274503Y-136575284D01*
X171220723Y-136469517D01*
X171046406Y-136208042D01*
X170720724Y-135719518D01*
X170639866Y-135625607D01*
X170630031Y-135614184D01*
X170607750Y-135576427D01*
X170600000Y-135533277D01*
X170600000Y-135187686D01*
X170607750Y-135144535D01*
X170630032Y-135106779D01*
X170695723Y-135030483D01*
X170695724Y-135030482D01*
X171195724Y-134280482D01*
X171249503Y-134174715D01*
X171277155Y-134059327D01*
X171277155Y-133940673D01*
X171249503Y-133825285D01*
X171249503Y-133825284D01*
X171195723Y-133719517D01*
X170695723Y-132969516D01*
X170630032Y-132893221D01*
X170607750Y-132855465D01*
X170600000Y-132812314D01*
X170600000Y-131054693D01*
X170610546Y-131004651D01*
X170640391Y-130963121D01*
X172864484Y-128932428D01*
X172903254Y-128908391D01*
X172948093Y-128900000D01*
X173325500Y-128900000D01*
X173387500Y-128916613D01*
G37*
%TD.AperFunction*%
%TD*%
M02*
