M48
; DRILL file {KiCad 7.0.1-0} date 2023 July 02, Sunday 18:57:55
; FORMAT={-:-/ absolute / inch / decimal}
; #@! TF.CreationDate,2023-07-02T18:57:55-05:00
; #@! TF.GenerationSoftware,Kicad,Pcbnew,7.0.1-0
; #@! TF.FileFunction,Plated,1,2,PTH
FMAT,2
INCH
; #@! TA.AperFunction,Plated,PTH,ViaDrill
T1C0.0157
; #@! TA.AperFunction,Plated,PTH,ComponentDrill
T2C0.0295
; #@! TA.AperFunction,Plated,PTH,ComponentDrill
T3C0.0300
; #@! TA.AperFunction,Plated,PTH,ComponentDrill
T4C0.0354
; #@! TA.AperFunction,Plated,PTH,ComponentDrill
T5C0.0394
; #@! TA.AperFunction,Plated,PTH,ComponentDrill
T6C0.0433
; #@! TA.AperFunction,Plated,PTH,ComponentDrill
T7C0.0512
; #@! TA.AperFunction,Plated,PTH,ComponentDrill
T8C0.0728
; #@! TA.AperFunction,Plated,PTH,ComponentDrill
T9C0.1693
%
G90
G05
T1
X2.9528Y-3.8386
X2.9528Y-3.937
X2.9528Y-4.0354
X2.9528Y-4.1339
X2.9528Y-4.2323
X2.9528Y-4.3307
X2.9528Y-4.4291
X2.9528Y-4.5276
X2.9528Y-4.626
X2.9528Y-4.7244
X2.9528Y-4.8228
X2.9528Y-4.9213
X2.9528Y-5.0197
X2.9528Y-5.1181
X2.9528Y-5.2165
X2.9528Y-5.315
X2.9528Y-5.4134
X2.9528Y-5.5118
X2.9528Y-5.6102
X2.9528Y-5.7087
X3.0512Y-3.7402
X3.0512Y-3.8386
X3.0512Y-3.937
X3.0512Y-4.3307
X3.0512Y-4.4291
X3.0512Y-4.5276
X3.0512Y-4.626
X3.0512Y-4.7244
X3.0512Y-4.8228
X3.0512Y-4.9213
X3.0512Y-5.0197
X3.0512Y-5.1181
X3.0512Y-5.5118
X3.0512Y-5.6102
X3.0512Y-5.7087
X3.1496Y-3.7402
X3.1496Y-3.8386
X3.1496Y-4.3307
X3.1496Y-4.4291
X3.1496Y-4.5276
X3.1496Y-4.626
X3.1496Y-4.7244
X3.1496Y-4.8228
X3.1496Y-4.9213
X3.1496Y-5.0197
X3.1496Y-5.1181
X3.1496Y-5.6102
X3.1496Y-5.7087
X3.248Y-3.7402
X3.248Y-3.8386
X3.248Y-4.3307
X3.248Y-4.4291
X3.248Y-4.5276
X3.248Y-4.626
X3.248Y-4.7244
X3.248Y-4.8228
X3.248Y-4.9213
X3.248Y-5.0197
X3.248Y-5.1181
X3.248Y-5.6102
X3.248Y-5.7087
X3.3465Y-3.7402
X3.3465Y-3.8386
X3.3465Y-3.937
X3.3465Y-4.0354
X3.3465Y-4.1339
X3.3465Y-4.2323
X3.3465Y-4.3307
X3.3465Y-4.4291
X3.3465Y-4.5276
X3.3465Y-4.626
X3.3465Y-4.7244
X3.3465Y-5.7087
X3.4449Y-3.7402
X3.4449Y-3.8386
X3.4449Y-3.937
X3.4449Y-4.0354
X3.4449Y-4.1339
X3.4449Y-4.2323
X3.4449Y-4.3307
X3.5433Y-3.7402
X3.5433Y-3.8386
X3.5433Y-3.937
X3.5433Y-4.0354
X3.5433Y-4.1339
X3.6417Y-3.7402
X3.6417Y-3.8386
X3.6417Y-3.937
X3.6417Y-4.0354
X3.7402Y-3.7402
X3.7402Y-3.8386
X3.7402Y-3.937
X3.8976Y-5.315
X4.0945Y-5.0787
X4.0945Y-5.3543
X4.1732Y-5.0
X4.2028Y-4.124
X4.2126Y-5.2362
X4.252Y-4.9213
X4.2579Y-4.124
X4.3071Y-4.124
X4.3307Y-5.1181
X4.3898Y-3.8976
X4.3898Y-3.9567
X4.3898Y-4.0157
X4.3898Y-4.0551
X4.3898Y-5.4921
X4.4094Y-4.685
X4.4094Y-4.7638
X4.4882Y-5.0394
X4.5276Y-5.4724
X4.5748Y-5.2598
X4.5787Y-4.9331
X4.5967Y-5.4825
X4.7205Y-5.2992
X4.7205Y-5.4961
X4.7343Y-4.1988
X4.748Y-4.2402
X4.7835Y-4.2598
X4.811Y-4.1772
X4.813Y-4.0965
X4.813Y-4.1358
X4.8228Y-4.2677
X4.8228Y-5.315
X4.8228Y-5.4134
X4.8228Y-5.5118
X4.8228Y-5.6102
X4.8228Y-5.7087
X4.8661Y-4.2717
X4.8799Y-4.1791
X4.8819Y-4.0945
X4.8819Y-4.1358
X4.9075Y-4.2717
X4.9409Y-4.2441
X4.9606Y-4.8622
X4.9606Y-4.9016
X4.9606Y-4.9409
X4.9606Y-4.9803
X4.9705Y-4.2106
X4.9803Y-4.1772
X5.0787Y-4.7244
X5.0787Y-4.8622
X5.1339Y-4.7087
X5.1969Y-4.9606
X5.315Y-4.8228
X5.315Y-4.9213
X5.4134Y-5.4134
X5.4134Y-5.5118
X5.4134Y-5.6102
X5.4134Y-5.7087
X5.5315Y-4.7441
X5.5906Y-3.7795
X5.689Y-4.7441
X5.9055Y-5.5512
X5.9252Y-4.4882
X5.9843Y-4.2913
X6.0827Y-4.5079
X6.1798Y-4.6864
X6.2205Y-4.5669
X6.3189Y-4.0945
X6.4173Y-4.9409
X6.5354Y-3.8189
X6.5945Y-3.936
X6.6339Y-4.967
X6.6929Y-4.3504
X6.6929Y-5.5118
X6.6929Y-5.6102
X6.6929Y-5.7087
X6.7323Y-4.0157
X6.7323Y-5.1181
X6.7323Y-5.2953
X6.752Y-4.7835
X6.7913Y-5.4134
X6.7913Y-5.5118
X6.7913Y-5.6102
X6.7913Y-5.7087
X6.8504Y-4.4882
X6.8701Y-5.0197
X6.8898Y-4.7244
X6.8898Y-5.4134
X6.8898Y-5.5118
X6.8898Y-5.6102
X6.8898Y-5.7087
X6.9094Y-5.1181
X6.9882Y-5.4134
X6.9882Y-5.5118
X6.9882Y-5.6102
X6.9882Y-5.7087
X7.0079Y-4.685
X7.0276Y-4.8031
X7.0472Y-4.4882
X7.0866Y-5.5118
X7.0866Y-5.6102
X7.0866Y-5.7087
X7.2835Y-4.0354
X7.2835Y-4.1339
X7.2835Y-4.2323
X7.2835Y-4.5472
X7.3031Y-4.7047
X7.3031Y-4.8622
X7.3228Y-3.7795
X7.3228Y-3.8583
X7.3819Y-4.0354
X7.3819Y-4.1339
X7.4606Y-4.9409
X7.4803Y-4.0354
X7.4803Y-4.2323
X7.4803Y-5.1772
X7.5197Y-4.7047
X7.5197Y-5.6693
X7.5787Y-4.1339
X7.5787Y-4.2323
X7.5787Y-5.748
X7.6351Y-4.6626
X7.6772Y-4.1339
X7.6772Y-4.2323
X7.6772Y-5.6102
X7.6969Y-5.315
X7.6969Y-5.5118
X7.7598Y-4.6299
X7.7756Y-4.8228
X7.7756Y-5.2165
X7.815Y-4.626
X7.874Y-4.7244
X7.874Y-4.8228
X7.874Y-4.9213
X7.874Y-5.4134
X7.874Y-5.5118
X7.9528Y-4.2913
X7.9724Y-4.4291
X7.9724Y-4.5276
X8.0709Y-4.5276
X8.0709Y-4.7244
X8.0709Y-4.8228
X8.0709Y-4.9213
X8.1693Y-4.5276
X8.2677Y-3.7795
X8.2677Y-3.8189
X8.3071Y-3.7795
X8.3071Y-3.8189
X8.3071Y-5.5906
X8.3465Y-3.7795
X8.3465Y-3.8189
X8.3858Y-3.7795
X8.3858Y-3.8189
X8.3858Y-4.8819
X8.3858Y-5.2756
X8.4252Y-3.7795
X8.4252Y-3.8189
X8.4646Y-3.7795
X8.4646Y-3.8189
X8.5Y-4.3
X8.5039Y-3.7795
X8.5039Y-3.8189
X8.5827Y-3.9764
X8.7205Y-4.8425
X8.7269Y-4.9606
X8.7402Y-5.2362
X8.7598Y-4.6654
X8.7598Y-4.7835
X8.8386Y-5.3346
X8.8583Y-4.8622
X8.8583Y-5.0197
X8.9173Y-5.0394
X8.937Y-4.9213
X9.0945Y-4.9803
T2
X3.6567Y-5.2118
X3.6567Y-5.5071
X3.7354Y-5.2118
X3.7354Y-5.5071
X3.8142Y-5.2118
X3.8142Y-5.5071
X3.8929Y-5.2118
X3.8929Y-5.5071
T3
X7.3815Y-5.0209
X7.3815Y-5.1209
X7.3815Y-5.2209
X7.3815Y-5.3209
X7.3815Y-5.4209
X7.3815Y-5.5209
X8.0815Y-5.0209
X8.0815Y-5.1209
X8.0815Y-5.2209
X8.0815Y-5.3209
X8.0815Y-5.4209
X8.0815Y-5.5209
T4
X6.5654Y-4.0835
X6.5654Y-4.1835
X6.5654Y-4.2835
X6.5654Y-4.3835
X6.5654Y-4.4835
X6.5654Y-4.5835
X6.5654Y-4.6835
X6.5654Y-4.7835
X6.5654Y-4.8835
X6.5654Y-4.9835
X6.5654Y-5.0835
X6.5654Y-5.1835
X6.5654Y-5.2835
X6.5654Y-5.3835
X6.5654Y-5.4835
X6.5654Y-5.5835
X6.5654Y-5.6835
X7.1654Y-4.0835
X7.1654Y-4.1835
X7.1654Y-4.2835
X7.1654Y-4.3835
X7.1654Y-4.4835
X7.1654Y-4.5835
X7.1654Y-4.6835
X7.1654Y-4.7835
X7.1654Y-4.8835
X7.1654Y-4.9835
X7.1654Y-5.0835
X7.1654Y-5.1835
X7.1654Y-5.2835
X7.1654Y-5.3835
X7.1654Y-5.4835
X7.1654Y-5.5835
X7.1654Y-5.6835
T5
X3.6341Y-4.9756
X3.7341Y-4.9756
X3.8341Y-4.9756
X3.9341Y-4.9756
X4.0341Y-4.9756
X5.5142Y-4.2433
X5.5142Y-4.4402
X5.5142Y-4.637
X5.5157Y-4.8339
X5.5157Y-5.0268
X5.6142Y-4.2433
X5.6142Y-4.4402
X5.6142Y-4.637
X5.6157Y-4.8339
X5.6157Y-5.0268
X5.7142Y-4.2433
X5.7142Y-4.4402
X5.7142Y-4.637
X5.7157Y-4.8339
X5.7157Y-5.0268
X5.8142Y-4.2433
X5.8142Y-4.4402
X5.8142Y-4.637
X5.8157Y-4.8339
X5.8157Y-5.0268
X8.7126Y-3.9854
X8.8126Y-3.9854
X8.9126Y-3.9854
T6
X6.1665Y-4.8476
X6.1665Y-5.1035
X6.3437Y-4.8476
X6.3437Y-5.1035
T7
X4.0898Y-3.7945
X4.2866Y-3.7945
X4.4835Y-3.7945
X4.9756Y-3.7945
X5.0546Y-5.5108
X5.1724Y-3.7945
X5.2515Y-5.5108
X5.3693Y-3.7945
X5.8614Y-3.7945
X6.0583Y-3.7945
X6.2551Y-3.7945
X7.4362Y-3.7945
X7.6331Y-3.7945
X7.8299Y-3.7945
T8
X3.6305Y-4.2431
X3.6305Y-4.7632
X4.0057Y-4.3181
X4.0057Y-4.5031
X4.0057Y-4.6882
X5.6014Y-5.6947
X5.6764Y-5.3195
X5.8614Y-5.3195
X6.0465Y-5.3195
X6.1215Y-5.6947
T9
X3.1496Y-4.0945
X3.1496Y-5.3543
X6.2992Y-4.4094
X9.4488Y-4.0945
X9.4488Y-5.3543
T0
M30
